M48
;DRILL file {kicad (2014-08-02 BZR 5044)-product} date 13.08.2014 13:27:43
;FORMAT={-:-/ absolute / inch / decimal}
FMAT,2
INCH,TZ
T1C0.024
T2C0.025
T3C0.031
T4C0.032
T5C0.035
T6C0.040
%
G90
G05
M72
T1
X2.5472Y-1.7776
X2.5472Y-1.8366
T2
X1.2795Y-2.2047
X1.5669Y-1.8307
X1.7559Y-1.3858
X1.7795Y-1.5472
X1.7913Y-1.0276
X1.8228Y-1.5433
X1.8332Y-0.9825
X1.9146Y-1.5755
X1.95Y-1.925
X1.9646Y-1.1181
X2.0764Y-1.415
X2.1012Y-1.5045
X2.1539Y-1.5179
X2.1539Y-1.5588
X2.24Y-1.4925
X2.2627Y-1.4412
X2.2715Y-1.3403
X2.2847Y-1.5492
X2.2913Y-1.8661
X2.315Y-1.4847
X2.3184Y-1.4278
X2.329Y-1.7766
X2.3531Y-1.47
X2.3686Y-1.5597
X2.3701Y-1.7953
X2.5146Y-1.1683
X2.5471Y-1.5166
X2.8277Y-1.5681
X2.9336Y-1.5774
X2.9538Y-0.7667
X3.0669Y-1.378
X3.0984Y-1.9134
X3.1614Y-0.9843
X3.3425Y-1.1929
X3.4028Y-1.3211
X3.4028Y-1.3711
X3.4028Y-1.4211
X3.4028Y-1.4711
X3.4028Y-1.5211
X3.4028Y-1.5711
X3.4028Y-1.6211
X3.4028Y-1.6711
X3.7402Y-2.1181
X3.7983Y-1.6133
X3.8644Y-1.5143
X3.8819Y-1.9961
X3.8895Y-1.4819
X3.9173Y-1.5315
X4.1417Y-1.9855
X4.1551Y-1.0875
T3
X3.6961Y-0.7906
X3.6961Y-2.2906
X3.7961Y-0.7906
X3.7961Y-2.2906
X3.8961Y-0.7906
X3.8961Y-2.2906
X3.9961Y-0.7906
X3.9961Y-2.2906
X4.0961Y-0.7906
X4.0961Y-2.2906
X4.1961Y-0.7906
X4.1961Y-2.2906
X4.2961Y-0.7906
X4.2961Y-2.2906
T4
X2.8161Y-2.2441
X2.9161Y-2.2441
T5
X0.7973Y-1.3977
X0.7973Y-1.5709
T6
X0.6102Y-0.7634
X0.6102Y-0.8634
X0.6102Y-0.9634
X0.6102Y-1.0634
X0.7736Y-0.6969
X0.8736Y-0.6969
X0.9736Y-0.6969
X1.0736Y-0.6969
X1.1736Y-0.6969
X1.2736Y-0.6969
X1.4563Y-2.1732
X1.5232Y-0.6496
X1.5563Y-2.1732
X1.6232Y-0.6496
X1.6563Y-2.1732
X1.7232Y-0.6496
X1.7563Y-2.1732
X1.8232Y-0.6496
X2.0319Y-0.6496
X2.1319Y-0.6496
X2.2319Y-0.6496
X2.3319Y-0.6496
X2.3665Y-0.8673
X2.3665Y-0.9673
X2.4319Y-0.6496
X2.4665Y-0.8673
X2.4665Y-0.9673
X2.5319Y-0.6496
X2.5665Y-0.8673
X2.5665Y-0.9673
X2.6319Y-0.6496
X2.6665Y-0.8673
X2.6665Y-0.9673
X2.7319Y-0.6496
X2.7665Y-0.8673
X2.7665Y-0.9673
X2.8665Y-0.8673
X2.8665Y-0.9673
X2.9665Y-0.8673
X2.9665Y-0.9673
X3.0665Y-0.8673
X3.0665Y-0.9673
T0
M30
