%FSLAX46Y46*%
G04 Gerber Fmt 4.6, Leading zero omitted, Abs format (unit mm)*
G04 Created by KiCad (PCBNEW (2014-08-02 BZR 5044)-product) date 13.08.2014 17:47:44*
%MOMM*%
G01*
G04 APERTURE LIST*
%ADD10C,0.150000*%
%ADD11R,0.635000X1.143000*%
%ADD12R,1.143000X0.635000*%
%ADD13R,1.727200X2.032000*%
%ADD14O,1.727200X2.032000*%
%ADD15R,2.301240X0.500380*%
%ADD16R,2.499360X1.998980*%
%ADD17R,1.600200X1.803400*%
%ADD18R,0.797560X0.797560*%
%ADD19R,3.657600X2.032000*%
%ADD20R,1.016000X2.032000*%
%ADD21R,1.800860X3.149600*%
%ADD22R,2.032000X1.524000*%
%ADD23R,0.248920X1.524000*%
%ADD24O,0.248920X1.524000*%
%ADD25O,1.524000X0.248920*%
%ADD26R,5.499100X1.998980*%
%ADD27R,2.032000X1.727200*%
%ADD28O,2.032000X1.727200*%
%ADD29C,1.397000*%
%ADD30R,0.381000X1.270000*%
%ADD31R,1.016000X1.016000*%
%ADD32C,1.016000*%
%ADD33R,1.727200X1.727200*%
%ADD34O,1.727200X1.727200*%
%ADD35C,1.000760*%
%ADD36C,1.524000*%
%ADD37C,1.676400*%
%ADD38R,1.524000X2.032000*%
%ADD39R,0.914400X0.914400*%
%ADD40C,0.889000*%
%ADD41C,0.254000*%
%ADD42C,0.250000*%
G04 APERTURE END LIST*
D10*
D11*
X45998800Y-23008000D03*
X47522800Y-23008000D03*
D12*
X46484000Y-33646000D03*
X46484000Y-32122000D03*
D13*
X42855600Y-18328800D03*
D14*
X45395600Y-18328800D03*
X47935600Y-18328800D03*
X50475600Y-18328800D03*
D11*
X43000400Y-24054000D03*
X44524400Y-24054000D03*
X44722000Y-27784000D03*
X46246000Y-27784000D03*
D15*
X31133320Y-39583800D03*
X31133320Y-40383900D03*
X31133320Y-41184000D03*
X31133320Y-41984100D03*
X31133320Y-42784200D03*
D16*
X31034260Y-36733920D03*
X25535160Y-36733920D03*
X31034260Y-45634080D03*
X25535160Y-45634080D03*
D17*
X33928200Y-57781200D03*
X31134200Y-57781200D03*
D18*
X38429200Y-53049100D03*
X38429200Y-54547700D03*
D19*
X33688400Y-48225200D03*
D20*
X33688400Y-54829200D03*
X35974400Y-54829200D03*
X31402400Y-54829200D03*
D21*
X26555200Y-54400380D03*
X26555200Y-50148420D03*
D22*
X36284000Y-35065000D03*
X36284000Y-38367000D03*
D23*
X59633040Y-29714060D03*
D24*
X59132660Y-29714060D03*
X58632280Y-29714060D03*
X58131900Y-29714060D03*
X57631520Y-29714060D03*
X57133680Y-29714060D03*
X56633300Y-29714060D03*
X56132920Y-29714060D03*
X55632540Y-29714060D03*
X55132160Y-29714060D03*
X54631780Y-29714060D03*
X54133940Y-29714060D03*
X53633560Y-29714060D03*
X53133180Y-29714060D03*
X52632800Y-29714060D03*
X52132420Y-29714060D03*
D25*
X49851500Y-31834960D03*
X49851500Y-32335340D03*
X49851500Y-32835720D03*
X49851500Y-33336100D03*
X49851500Y-33836480D03*
X49851500Y-34334320D03*
X49851500Y-34834700D03*
X49851500Y-35335080D03*
X49851500Y-35835460D03*
X49851500Y-36335840D03*
X49851500Y-36836220D03*
X49851500Y-37334060D03*
X49851500Y-37834440D03*
X49851500Y-38334820D03*
X49851500Y-38835200D03*
X49851500Y-39335580D03*
D24*
X52132420Y-41616500D03*
X52632800Y-41616500D03*
X53133180Y-41616500D03*
X53633560Y-41616500D03*
X54133940Y-41616500D03*
X54631780Y-41616500D03*
X55132160Y-41616500D03*
X55632540Y-41616500D03*
X56132920Y-41616500D03*
X56633300Y-41616500D03*
X57133680Y-41616500D03*
X57631520Y-41616500D03*
X58131900Y-41616500D03*
X58632280Y-41616500D03*
X59132660Y-41616500D03*
X59633040Y-41616500D03*
D25*
X61753940Y-39335580D03*
X61753940Y-38835200D03*
X61753940Y-37834440D03*
X61771720Y-38334820D03*
X61753940Y-37334060D03*
X61753940Y-36836220D03*
X61753940Y-36335840D03*
X61753940Y-35835460D03*
X61753940Y-35335080D03*
X61753940Y-34834700D03*
X61753940Y-34341940D03*
X61753940Y-33841560D03*
X61753940Y-33341180D03*
X61753940Y-32840800D03*
X61753940Y-32342960D03*
X61753940Y-31842580D03*
D17*
X67981000Y-38384000D03*
X65187000Y-38384000D03*
D11*
X56646000Y-27284000D03*
X55122000Y-27284000D03*
D12*
X46784000Y-35522000D03*
X46784000Y-37046000D03*
D13*
X50594000Y-15484000D03*
D14*
X53134000Y-15484000D03*
X55674000Y-15484000D03*
X58214000Y-15484000D03*
X60754000Y-15484000D03*
X63294000Y-15484000D03*
X65834000Y-15484000D03*
X68374000Y-15484000D03*
D26*
X59983000Y-50584000D03*
X50585000Y-50584000D03*
D11*
X56146000Y-46084000D03*
X54622000Y-46084000D03*
X64122000Y-41584000D03*
X65646000Y-41584000D03*
X52922000Y-54484000D03*
X54446000Y-54484000D03*
X57546000Y-54484000D03*
X56022000Y-54484000D03*
D27*
X27384000Y-19274000D03*
D28*
X27384000Y-21814000D03*
X27384000Y-24354000D03*
X27384000Y-26894000D03*
D13*
X27434000Y-16684000D03*
D14*
X29974000Y-16684000D03*
X32514000Y-16684000D03*
X35054000Y-16684000D03*
X37594000Y-16684000D03*
X40134000Y-16684000D03*
D12*
X37784000Y-30122000D03*
X37784000Y-31646000D03*
X41484000Y-28422000D03*
X41484000Y-29946000D03*
X31335001Y-28928000D03*
X31335001Y-30452000D03*
D10*
G36*
X25610000Y-32443224D02*
X26597828Y-33431052D01*
X25610000Y-34418880D01*
X24622172Y-33431052D01*
X25610000Y-32443224D01*
X25610000Y-32443224D01*
G37*
D29*
X27406051Y-31635001D03*
X25610000Y-29838950D03*
D12*
X38524400Y-50254000D03*
X38524400Y-51778000D03*
X43784000Y-42422000D03*
X43784000Y-43946000D03*
D11*
X39922000Y-47484000D03*
X41446000Y-47484000D03*
D30*
X42059360Y-41325000D03*
X41409120Y-41325000D03*
X40758880Y-41325000D03*
X40108640Y-41325000D03*
X40108640Y-45643000D03*
X40758880Y-45643000D03*
X41409120Y-45643000D03*
X42059360Y-45643000D03*
D13*
X50012000Y-55366800D03*
D14*
X47472000Y-55366800D03*
X44932000Y-55366800D03*
X42392000Y-55366800D03*
D11*
X46722000Y-41184000D03*
X48246000Y-41184000D03*
D31*
X85414000Y-32539000D03*
D32*
X85414000Y-33809000D03*
X85414000Y-35079000D03*
X85414000Y-36349000D03*
X85414000Y-37619000D03*
X85414000Y-38889000D03*
X85414000Y-40159000D03*
X85414000Y-41429000D03*
D18*
X71834700Y-33684000D03*
X73333300Y-33684000D03*
D33*
X76874000Y-21014000D03*
D34*
X76874000Y-23554000D03*
X74334000Y-21014000D03*
X74334000Y-23554000D03*
X71794000Y-21014000D03*
X71794000Y-23554000D03*
X69254000Y-21014000D03*
X69254000Y-23554000D03*
X66714000Y-21014000D03*
X66714000Y-23554000D03*
X64174000Y-21014000D03*
X64174000Y-23554000D03*
X61634000Y-21014000D03*
X61634000Y-23554000D03*
X59094000Y-21014000D03*
X59094000Y-23554000D03*
D11*
X68922000Y-33684000D03*
X70446000Y-33684000D03*
D35*
X63295155Y-43745855D02*
X63648977Y-44099677D01*
X63648977Y-45668323D02*
X63295155Y-46022145D01*
D36*
X92864000Y-57164000D03*
X95404000Y-57164000D03*
X97944000Y-57164000D03*
X100484000Y-57164000D03*
X103024000Y-57164000D03*
X105564000Y-57164000D03*
X108104000Y-57164000D03*
X108104000Y-19064000D03*
X105564000Y-19064000D03*
X103024000Y-19064000D03*
X100484000Y-19064000D03*
X97944000Y-19064000D03*
X95404000Y-19064000D03*
X92864000Y-19064000D03*
D37*
X70514000Y-55984000D03*
X73054000Y-55984000D03*
D38*
X64633000Y-55984000D03*
X67935000Y-55984000D03*
D39*
X66068000Y-52973000D03*
X66068000Y-51195000D03*
X68100000Y-52084000D03*
D11*
X64522000Y-47984000D03*
X66046000Y-47984000D03*
D40*
X77684000Y-47584000D03*
X48514000Y-47879000D03*
X41402000Y-52679600D03*
X47614200Y-39000644D03*
X40182800Y-50800000D03*
X63681009Y-37505740D03*
X93984000Y-52784000D03*
X97584000Y-49684000D03*
X43584000Y-34184000D03*
X57184000Y-46384000D03*
X83884000Y-29284000D03*
X76884000Y-33984000D03*
X102924519Y-28306562D03*
X104184038Y-49414503D03*
X44864556Y-25506275D03*
X53693760Y-38576608D03*
X46684000Y-25084000D03*
X53693760Y-37537596D03*
X79284000Y-23984000D03*
X74010578Y-18457422D03*
X48884000Y-27384000D03*
X56680388Y-33027233D03*
X56457655Y-35590911D03*
X58140583Y-44109021D03*
X59146615Y-38599771D03*
X97776589Y-36624576D03*
X73497115Y-39050521D03*
X97140138Y-37446089D03*
X95460578Y-39960578D03*
X98484000Y-37884000D03*
X57014480Y-38334647D03*
X55879610Y-36892379D03*
X58753350Y-36322382D03*
X57784000Y-36696423D03*
X57871230Y-35249188D03*
X70808011Y-38814480D03*
X62854918Y-28659927D03*
X44018256Y-37991412D03*
X45311770Y-38183649D03*
X59184000Y-44584000D03*
X52354952Y-37199320D03*
X38784000Y-45484000D03*
X51723808Y-34923808D03*
X41800000Y-37700000D03*
D41*
X31335001Y-28928000D02*
X26520950Y-28928000D01*
X26520950Y-28928000D02*
X25610000Y-29838950D01*
X46484000Y-32693500D02*
X46484000Y-32122000D01*
X46626220Y-32835720D02*
X46484000Y-32693500D01*
X49851500Y-32835720D02*
X46626220Y-32835720D01*
X48835500Y-36335840D02*
X49851500Y-36335840D01*
X48319660Y-36335840D02*
X48835500Y-36335840D01*
X47609500Y-37046000D02*
X48319660Y-36335840D01*
X46784000Y-37046000D02*
X47609500Y-37046000D01*
X53133180Y-40600500D02*
X53349680Y-40384000D01*
X53133180Y-41616500D02*
X53133180Y-40600500D01*
X54631780Y-40600500D02*
X54631780Y-41616500D01*
X54415280Y-40384000D02*
X54631780Y-40600500D01*
X53349680Y-40384000D02*
X54415280Y-40384000D01*
X49851500Y-36335840D02*
X54235840Y-36335840D01*
X54415280Y-36515280D02*
X54415280Y-40384000D01*
X54235840Y-36335840D02*
X54415280Y-36515280D01*
X54415280Y-36515280D02*
X54415280Y-35752720D01*
X54415280Y-35752720D02*
X56084000Y-34084000D01*
X60737940Y-35335080D02*
X61753940Y-35335080D01*
X59486860Y-34084000D02*
X60737940Y-35335080D01*
X56084000Y-34084000D02*
X59486860Y-34084000D01*
X55132160Y-33132160D02*
X55132160Y-29714060D01*
X56084000Y-34084000D02*
X55132160Y-33132160D01*
X55122000Y-29703900D02*
X55132160Y-29714060D01*
X55122000Y-27284000D02*
X55122000Y-29703900D01*
X54622000Y-41626280D02*
X54631780Y-41616500D01*
X54622000Y-46084000D02*
X54622000Y-41626280D01*
X49851500Y-32835720D02*
X54835720Y-32835720D01*
X54835720Y-32835720D02*
X55132160Y-33132160D01*
X55122000Y-22674644D02*
X58412644Y-19384000D01*
X73470401Y-20150401D02*
X74334000Y-21014000D01*
X55122000Y-27284000D02*
X55122000Y-22674644D01*
X58412644Y-19384000D02*
X72704000Y-19384000D01*
X72704000Y-19384000D02*
X73470401Y-20150401D01*
X54631780Y-41616500D02*
X54631780Y-42632500D01*
X54631780Y-42632500D02*
X49385280Y-47879000D01*
X49385280Y-47879000D02*
X49142617Y-47879000D01*
X49142617Y-47879000D02*
X48514000Y-47879000D01*
X26719420Y-15090980D02*
X36153380Y-15090980D01*
X36153380Y-15090980D02*
X37594000Y-16531600D01*
X37594000Y-16531600D02*
X37594000Y-16684000D01*
X46230000Y-32122000D02*
X46484000Y-32122000D01*
X45754000Y-31646000D02*
X46230000Y-32122000D01*
X37784000Y-31646000D02*
X45754000Y-31646000D01*
X27131600Y-19574000D02*
X27284000Y-19574000D01*
X26014000Y-18456400D02*
X27131600Y-19574000D01*
X26014000Y-15796400D02*
X26014000Y-18456400D01*
X26719420Y-15090980D02*
X26014000Y-15796400D01*
X33688400Y-57541400D02*
X33928200Y-57781200D01*
X33688400Y-54829200D02*
X33688400Y-57541400D01*
X33688400Y-54829200D02*
X33688400Y-56099200D01*
X33688400Y-56099200D02*
X35065600Y-57476400D01*
X35065600Y-57476400D02*
X35349802Y-57476400D01*
X35349802Y-57476400D02*
X36759401Y-56066801D01*
X36759401Y-56066801D02*
X36759401Y-54921337D01*
X36759401Y-54921337D02*
X37896239Y-53784499D01*
X37896239Y-53784499D02*
X40297101Y-53784499D01*
X40297101Y-53784499D02*
X40957501Y-53124099D01*
X40957501Y-53124099D02*
X41402000Y-52679600D01*
X37674000Y-16284000D02*
X37674000Y-16436400D01*
X37674000Y-16284000D02*
X37674000Y-16131600D01*
X36284000Y-35065000D02*
X29235000Y-35065000D01*
X29235000Y-35065000D02*
X28200000Y-36100000D01*
X28200000Y-36100000D02*
X28200000Y-37600000D01*
X28200000Y-37600000D02*
X27228800Y-38571200D01*
X27228800Y-38571200D02*
X27228800Y-46990000D01*
X27228800Y-46990000D02*
X26555200Y-47663600D01*
X26555200Y-47663600D02*
X26555200Y-50148420D01*
X70984000Y-13384000D02*
X47648000Y-13384000D01*
X47648000Y-13384000D02*
X42855600Y-18176400D01*
X42855600Y-18176400D02*
X42855600Y-18328800D01*
X43792400Y-23008000D02*
X46098800Y-23008000D01*
X43000400Y-24054000D02*
X43000400Y-23800000D01*
X43000400Y-23800000D02*
X43792400Y-23008000D01*
X43000400Y-24054000D02*
X43000400Y-18473600D01*
X43000400Y-18473600D02*
X42855600Y-18328800D01*
X42687000Y-41325000D02*
X43784000Y-42422000D01*
X42059360Y-41325000D02*
X42687000Y-41325000D01*
X46722000Y-41438000D02*
X46722000Y-41184000D01*
X45738000Y-42422000D02*
X46722000Y-41438000D01*
X43784000Y-42422000D02*
X45738000Y-42422000D01*
X77991600Y-21014000D02*
X76874000Y-21014000D01*
X85414000Y-28436400D02*
X77991600Y-21014000D01*
X85414000Y-32539000D02*
X85414000Y-28436400D01*
X65649000Y-55984000D02*
X64633000Y-55984000D01*
X66942001Y-57277001D02*
X65649000Y-55984000D01*
X80490999Y-57277001D02*
X66942001Y-57277001D01*
X99405501Y-38362499D02*
X80490999Y-57277001D01*
X99405501Y-37199158D02*
X99405501Y-38362499D01*
X98047344Y-35841001D02*
X99405501Y-37199158D01*
X85414000Y-36349000D02*
X85921999Y-35841001D01*
X86199001Y-32562001D02*
X86176000Y-32539000D01*
X86199001Y-35716479D02*
X86199001Y-32562001D01*
X86074479Y-35841001D02*
X86199001Y-35716479D01*
X86176000Y-32539000D02*
X85414000Y-32539000D01*
X85921999Y-35841001D02*
X86074479Y-35841001D01*
X86074479Y-35841001D02*
X98047344Y-35841001D01*
X76874000Y-19274000D02*
X70984000Y-13384000D01*
X76874000Y-21014000D02*
X76874000Y-19274000D01*
X46722000Y-41184000D02*
X46722000Y-39892844D01*
X46722000Y-39892844D02*
X47169701Y-39445143D01*
X47169701Y-39445143D02*
X47614200Y-39000644D01*
X35974400Y-54321200D02*
X35974400Y-54829200D01*
X31801620Y-50148420D02*
X35974400Y-54321200D01*
X26555200Y-50148420D02*
X31801620Y-50148420D01*
X35974400Y-53559200D02*
X35974400Y-54829200D01*
X35974400Y-51978500D02*
X35974400Y-53559200D01*
X37698900Y-50254000D02*
X35974400Y-51978500D01*
X38524400Y-50254000D02*
X37698900Y-50254000D01*
X39349900Y-50254000D02*
X39895900Y-50800000D01*
X38524400Y-50254000D02*
X39349900Y-50254000D01*
X39895900Y-50800000D02*
X40182800Y-50800000D01*
X50629200Y-55984000D02*
X50012000Y-55366800D01*
X64633000Y-55984000D02*
X50629200Y-55984000D01*
D10*
X66566440Y-33841560D02*
X76854000Y-23554000D01*
X61753940Y-33841560D02*
X66566440Y-33841560D01*
X64526820Y-33341180D02*
X74314000Y-23554000D01*
X61753940Y-33341180D02*
X64526820Y-33341180D01*
X71678280Y-23554000D02*
X71774000Y-23554000D01*
X62391480Y-32840800D02*
X71678280Y-23554000D01*
X61753940Y-32840800D02*
X62391480Y-32840800D01*
X69234000Y-24631630D02*
X69234000Y-23554000D01*
X69234000Y-25500440D02*
X69234000Y-24631630D01*
X62391480Y-32342960D02*
X69234000Y-25500440D01*
X61753940Y-32342960D02*
X62391480Y-32342960D01*
X61753940Y-31842580D02*
X61753940Y-31568120D01*
X61753940Y-31568120D02*
X66694000Y-26628060D01*
X66694000Y-26628060D02*
X66694000Y-25698278D01*
X66694000Y-25698278D02*
X66694000Y-23554000D01*
X59633040Y-28074960D02*
X64154000Y-23554000D01*
X59633040Y-29714060D02*
X59633040Y-28074960D01*
X59132660Y-28735778D02*
X59132660Y-28802060D01*
X59132660Y-28802060D02*
X59132660Y-29714060D01*
X59235809Y-25932191D02*
X61614000Y-23554000D01*
X59132660Y-26035340D02*
X59235809Y-25932191D01*
X59132660Y-29714060D02*
X59132660Y-26035340D01*
D41*
X59074000Y-23554000D02*
X58627190Y-24000810D01*
D10*
X58632280Y-28585970D02*
X58632280Y-29714060D01*
X58627190Y-28580880D02*
X58632280Y-28585970D01*
X58632280Y-23995720D02*
X59074000Y-23554000D01*
X58632280Y-29714060D02*
X58632280Y-23995720D01*
D41*
X41446000Y-47484000D02*
X41446000Y-45679880D01*
X41446000Y-45679880D02*
X41409120Y-45643000D01*
X25610000Y-33431052D02*
X25610000Y-36659080D01*
X25610000Y-36659080D02*
X25535160Y-36733920D01*
D10*
X49851500Y-33336100D02*
X49213960Y-33336100D01*
X54913500Y-54484000D02*
X56022000Y-54484000D01*
X54446000Y-54484000D02*
X54913500Y-54484000D01*
X64236900Y-38384000D02*
X63681009Y-37828109D01*
X65187000Y-38384000D02*
X64236900Y-38384000D01*
X63681009Y-37828109D02*
X63681009Y-37505740D01*
D41*
X46793900Y-33336100D02*
X46484000Y-33646000D01*
X49851500Y-33336100D02*
X46793900Y-33336100D01*
X43784000Y-43946000D02*
X41822000Y-43946000D01*
X41409120Y-44358880D02*
X41409120Y-45643000D01*
X41822000Y-43946000D02*
X41409120Y-44358880D01*
X56132920Y-46070920D02*
X56146000Y-46084000D01*
X56132920Y-41616500D02*
X56132920Y-46070920D01*
X47097460Y-35835460D02*
X46784000Y-35522000D01*
X49851500Y-35835460D02*
X47097460Y-35835460D01*
X49851500Y-35835460D02*
X51832540Y-35835460D01*
X51832540Y-35835460D02*
X52584000Y-35084000D01*
X52584000Y-35084000D02*
X52584000Y-34284000D01*
X51636100Y-33336100D02*
X49851500Y-33336100D01*
X52584000Y-34284000D02*
X51636100Y-33336100D01*
X44122000Y-33646000D02*
X43584000Y-34184000D01*
X46484000Y-33646000D02*
X44122000Y-33646000D01*
X56717500Y-46084000D02*
X57017500Y-46384000D01*
X56146000Y-46084000D02*
X56717500Y-46084000D01*
X57017500Y-46384000D02*
X57184000Y-46384000D01*
X83439501Y-29728499D02*
X83439501Y-36539501D01*
X83884000Y-29284000D02*
X83439501Y-29728499D01*
X84519000Y-37619000D02*
X85414000Y-37619000D01*
X83439501Y-36539501D02*
X84519000Y-37619000D01*
X73333300Y-33684000D02*
X76584000Y-33684000D01*
X76584000Y-33684000D02*
X76884000Y-33984000D01*
X57354000Y-21014000D02*
X59094000Y-21014000D01*
X56784000Y-21584000D02*
X57354000Y-21014000D01*
X56784000Y-25384000D02*
X56784000Y-21584000D01*
X56646000Y-25522000D02*
X56784000Y-25384000D01*
X56646000Y-27284000D02*
X56646000Y-25522000D01*
X55632540Y-28698060D02*
X56146600Y-28184000D01*
X55632540Y-29714060D02*
X55632540Y-28698060D01*
X56646000Y-28109500D02*
X56646000Y-27284000D01*
X56571500Y-28184000D02*
X56646000Y-28109500D01*
X56146600Y-28184000D02*
X56571500Y-28184000D01*
X102136019Y-54236019D02*
X104354076Y-54236019D01*
X104736019Y-49966484D02*
X104628537Y-49859002D01*
X104736019Y-53854076D02*
X104736019Y-49966484D01*
X97584000Y-49684000D02*
X102136019Y-54236019D01*
X104354076Y-54236019D02*
X104736019Y-53854076D01*
X104628537Y-49859002D02*
X104184038Y-49414503D01*
X31402400Y-57208200D02*
X31134200Y-57476400D01*
X31402400Y-54829200D02*
X31402400Y-57208200D01*
X30973580Y-54400380D02*
X31402400Y-54829200D01*
X26555200Y-54400380D02*
X30973580Y-54400380D01*
X31402400Y-57513000D02*
X31134200Y-57781200D01*
X31402400Y-54829200D02*
X31402400Y-57513000D01*
X41572900Y-54547700D02*
X42392000Y-55366800D01*
X38429200Y-54547700D02*
X41572900Y-54547700D01*
X29974000Y-16531600D02*
X29974000Y-16684000D01*
D10*
X29974000Y-16836400D02*
X29974000Y-16684000D01*
X29974000Y-17850000D02*
X29974000Y-16684000D01*
X29974000Y-23606002D02*
X29974000Y-17850000D01*
X37032499Y-30664501D02*
X29974000Y-23606002D01*
X48955501Y-30664501D02*
X37032499Y-30664501D01*
X49851500Y-31560500D02*
X48955501Y-30664501D01*
X49851500Y-31834960D02*
X49851500Y-31560500D01*
X49213960Y-32335340D02*
X49851500Y-32335340D01*
X32514000Y-16531600D02*
X32514000Y-16684000D01*
X31425390Y-15442990D02*
X32514000Y-16531600D01*
X29523083Y-15442990D02*
X31425390Y-15442990D01*
X28885390Y-16080683D02*
X29523083Y-15442990D01*
X28885390Y-23043390D02*
X28885390Y-16080683D01*
X36826000Y-30984000D02*
X28885390Y-23043390D01*
X46640002Y-30984000D02*
X36826000Y-30984000D01*
X47991342Y-32335340D02*
X46640002Y-30984000D01*
X49851500Y-32335340D02*
X47991342Y-32335340D01*
X85414000Y-40159000D02*
X78084050Y-32829050D01*
X78084050Y-32829050D02*
X78084050Y-23208328D01*
X78084050Y-23208328D02*
X77259722Y-22384000D01*
X77259722Y-22384000D02*
X75584000Y-22384000D01*
X75584000Y-22384000D02*
X75422601Y-22222601D01*
X75422601Y-22222601D02*
X75422601Y-18722601D01*
X75422601Y-18722601D02*
X70484000Y-13784000D01*
X70484000Y-13784000D02*
X48774400Y-13784000D01*
X48774400Y-13784000D02*
X45395600Y-17162800D01*
X45395600Y-17162800D02*
X45395600Y-18328800D01*
X44524400Y-24054000D02*
X46346802Y-24054000D01*
X46346802Y-24054000D02*
X46784000Y-23616802D01*
X46784000Y-23616802D02*
X46784000Y-20883200D01*
X46784000Y-20883200D02*
X45395600Y-19494800D01*
X45395600Y-19494800D02*
X45395600Y-18328800D01*
X44524400Y-25166119D02*
X44864556Y-25506275D01*
X44524400Y-24054000D02*
X44524400Y-25166119D01*
X53249261Y-39021107D02*
X53693760Y-38576608D01*
X49851500Y-39335580D02*
X52934788Y-39335580D01*
X52934788Y-39335580D02*
X53249261Y-39021107D01*
X69637166Y-14084010D02*
X49709388Y-14084010D01*
X49709388Y-14084010D02*
X47935600Y-15857798D01*
X47935600Y-15857798D02*
X47935600Y-17162800D01*
X47935600Y-17162800D02*
X47935600Y-18328800D01*
X47128499Y-24639501D02*
X46684000Y-25084000D01*
X47622800Y-23008000D02*
X47622800Y-24145200D01*
X47622800Y-24145200D02*
X47128499Y-24639501D01*
X47622800Y-23008000D02*
X47622800Y-18641600D01*
X47622800Y-18641600D02*
X47935600Y-18328800D01*
X49851500Y-38835200D02*
X49220115Y-38835200D01*
X49851500Y-38835200D02*
X52396156Y-38835200D01*
X52396156Y-38835200D02*
X53249261Y-37982095D01*
X53249261Y-37982095D02*
X53693760Y-37537596D01*
X85414000Y-38889000D02*
X84695580Y-38889000D01*
X84695580Y-38889000D02*
X79284000Y-33477420D01*
X79284000Y-33477420D02*
X79284000Y-24612617D01*
X79284000Y-24612617D02*
X79284000Y-23984000D01*
X74010578Y-18457422D02*
X69637166Y-14084010D01*
X37784000Y-22120400D02*
X40134000Y-19770400D01*
X40134000Y-19770400D02*
X40134000Y-16684000D01*
X40146000Y-16352000D02*
X40214000Y-16284000D01*
X40214000Y-16131600D02*
X40214000Y-16284000D01*
X37784000Y-30122000D02*
X37784000Y-22120400D01*
X37922000Y-29984000D02*
X37784000Y-30122000D01*
X44722000Y-29784000D02*
X44522000Y-29984000D01*
X44722000Y-27784000D02*
X44722000Y-29784000D01*
X44428510Y-29984000D02*
X37922000Y-29984000D01*
X44522000Y-29984000D02*
X44428510Y-29984000D01*
X41484000Y-29984000D02*
X44428510Y-29984000D01*
X41384000Y-29884000D02*
X41484000Y-29984000D01*
X41422000Y-29884000D02*
X41384000Y-29884000D01*
X41484000Y-29946000D02*
X41422000Y-29884000D01*
X55132160Y-41616500D02*
X55132160Y-47786900D01*
X55132160Y-47786900D02*
X52335060Y-50584000D01*
X53484550Y-51733490D02*
X52335060Y-50584000D01*
X52335060Y-50584000D02*
X50585000Y-50584000D01*
X53484550Y-52358450D02*
X53484550Y-51733490D01*
X52922000Y-52921000D02*
X53484550Y-52358450D01*
X52922000Y-54484000D02*
X52922000Y-52921000D01*
X55632540Y-41616500D02*
X55632540Y-47983600D01*
X55632540Y-47983600D02*
X58232940Y-50584000D01*
X57083450Y-51733490D02*
X58232940Y-50584000D01*
X58232940Y-50584000D02*
X59983000Y-50584000D01*
X57083450Y-51958450D02*
X57083450Y-51733490D01*
X57083450Y-52558450D02*
X57083450Y-51733490D01*
X57546000Y-53021000D02*
X57083450Y-52558450D01*
X57546000Y-54484000D02*
X57546000Y-53021000D01*
X67981000Y-38282400D02*
X67981000Y-38384000D01*
X61753940Y-35835460D02*
X63242422Y-35835460D01*
X63242422Y-35835460D02*
X63490972Y-36084010D01*
X63490972Y-36084010D02*
X65782610Y-36084010D01*
X65782610Y-36084010D02*
X67981000Y-38282400D01*
X38524400Y-51778000D02*
X38524400Y-52953900D01*
X38524400Y-52953900D02*
X38429200Y-53049100D01*
X70446000Y-33684000D02*
X71834700Y-33684000D01*
X70514000Y-55984000D02*
X69328607Y-55984000D01*
X69328607Y-55984000D02*
X67935000Y-55984000D01*
X72930505Y-53060505D02*
X72984000Y-53114000D01*
X71954000Y-52084000D02*
X72930505Y-53060505D01*
X72930505Y-53060505D02*
X73054000Y-53184000D01*
X73054000Y-53184000D02*
X73054000Y-55984000D01*
X68100000Y-52084000D02*
X71954000Y-52084000D01*
X62665940Y-34834700D02*
X63615240Y-35784000D01*
X61753940Y-34834700D02*
X62665940Y-34834700D01*
X79769000Y-35784000D02*
X85414000Y-41429000D01*
X63615240Y-35784000D02*
X79769000Y-35784000D01*
X48884000Y-27384000D02*
X46646000Y-27384000D01*
X46646000Y-27384000D02*
X46246000Y-27784000D01*
X56633300Y-32980145D02*
X56680388Y-33027233D01*
X56633300Y-29714060D02*
X56633300Y-32980145D01*
X56902154Y-35146412D02*
X56457655Y-35590911D01*
X61122555Y-36335840D02*
X59366402Y-34579687D01*
X57468879Y-34579687D02*
X56902154Y-35146412D01*
X59366402Y-34579687D02*
X57468879Y-34579687D01*
X61753940Y-36335840D02*
X61122555Y-36335840D01*
X57696084Y-43664522D02*
X58140583Y-44109021D01*
X56633300Y-42601738D02*
X57696084Y-43664522D01*
X56633300Y-41616500D02*
X56633300Y-42601738D01*
X81950679Y-39050521D02*
X74125732Y-39050521D01*
X85765841Y-42162001D02*
X85062159Y-42162001D01*
X74125732Y-39050521D02*
X73497115Y-39050521D01*
X86147001Y-39883970D02*
X86147001Y-41780841D01*
X97776589Y-36624576D02*
X89406395Y-36624576D01*
X86147001Y-41780841D02*
X85765841Y-42162001D01*
X89406395Y-36624576D02*
X86147001Y-39883970D01*
X85062159Y-42162001D02*
X81950679Y-39050521D01*
X57133680Y-41616500D02*
X57133680Y-39984089D01*
X57133680Y-39984089D02*
X58517998Y-38599771D01*
X58517998Y-38599771D02*
X59146615Y-38599771D01*
X101245999Y-19825999D02*
X101245999Y-43245999D01*
X100484000Y-19064000D02*
X101245999Y-19825999D01*
X101245999Y-43245999D02*
X105584000Y-47584000D01*
X101245999Y-57925999D02*
X100484000Y-57164000D01*
X101471001Y-58151001D02*
X101245999Y-57925999D01*
X103497761Y-58151001D02*
X101471001Y-58151001D01*
X104011001Y-57637761D02*
X103497761Y-58151001D01*
X104011001Y-57256237D02*
X104011001Y-57637761D01*
X105584000Y-55683238D02*
X104011001Y-57256237D01*
X105584000Y-47584000D02*
X105584000Y-55683238D01*
X57631520Y-40978960D02*
X58581010Y-40029470D01*
X58581010Y-40029470D02*
X78346280Y-40029470D01*
X96511521Y-37446089D02*
X97140138Y-37446089D01*
X80778821Y-42462011D02*
X91495601Y-42462009D01*
X57631520Y-41616500D02*
X57631520Y-40978960D01*
X91495601Y-42462009D02*
X96511521Y-37446089D01*
X78346280Y-40029470D02*
X80778821Y-42462011D01*
X58131900Y-41616500D02*
X58131900Y-42254040D01*
X80586299Y-42762021D02*
X92659137Y-42762019D01*
X95016079Y-40405077D02*
X95460578Y-39960578D01*
X92659137Y-42762019D02*
X95016079Y-40405077D01*
X58131900Y-41616500D02*
X58131900Y-40978960D01*
X58131900Y-40978960D02*
X58781380Y-40329480D01*
X58781380Y-40329480D02*
X78153758Y-40329480D01*
X78153758Y-40329480D02*
X80586299Y-42762021D01*
X103024000Y-57164000D02*
X105194039Y-54993961D01*
X105194039Y-54993961D02*
X105194039Y-47618317D01*
X105194039Y-47618317D02*
X100945989Y-43370267D01*
X100945989Y-43370267D02*
X100945989Y-22065989D01*
X100945989Y-22065989D02*
X98705999Y-19825999D01*
X98705999Y-19825999D02*
X97944000Y-19064000D01*
X98039501Y-38328499D02*
X98484000Y-37884000D01*
X93305969Y-43062031D02*
X98039501Y-38328499D01*
X80462031Y-43062031D02*
X93305969Y-43062031D01*
X78084000Y-40684000D02*
X80462031Y-43062031D01*
X59832305Y-40684000D02*
X78084000Y-40684000D01*
X59777795Y-40629490D02*
X59832305Y-40684000D01*
X58981750Y-40629490D02*
X59777795Y-40629490D01*
X58632280Y-40978960D02*
X58981750Y-40629490D01*
X58632280Y-41616500D02*
X58632280Y-40978960D01*
X61753940Y-39335580D02*
X60841940Y-39335580D01*
X60841940Y-39335580D02*
X59396508Y-37890148D01*
X57458979Y-37890148D02*
X57014480Y-38334647D01*
X59396508Y-37890148D02*
X57458979Y-37890148D01*
X56440732Y-37453501D02*
X56324109Y-37336878D01*
X61753940Y-38835200D02*
X61116400Y-38835200D01*
X61116400Y-38835200D02*
X59734701Y-37453501D01*
X59734701Y-37453501D02*
X56440732Y-37453501D01*
X56324109Y-37336878D02*
X55879610Y-36892379D01*
X59381967Y-36322382D02*
X58753350Y-36322382D01*
X59604342Y-36322382D02*
X59381967Y-36322382D01*
X61116400Y-37834440D02*
X59604342Y-36322382D01*
X61753940Y-37834440D02*
X61116400Y-37834440D01*
X61771720Y-38334820D02*
X61122555Y-38334820D01*
X61122555Y-38334820D02*
X59779618Y-36991883D01*
X59779618Y-36991883D02*
X58431989Y-36991883D01*
X58431989Y-36991883D02*
X58136529Y-36696423D01*
X58136529Y-36696423D02*
X57784000Y-36696423D01*
X57832641Y-36784000D02*
X57832641Y-36745064D01*
X57832641Y-36745064D02*
X57784000Y-36696423D01*
X58499847Y-35249188D02*
X57871230Y-35249188D01*
X59611625Y-35249188D02*
X58499847Y-35249188D01*
X60608016Y-36245579D02*
X59611625Y-35249188D01*
X60608017Y-36825677D02*
X60608016Y-36245579D01*
X61116400Y-37334060D02*
X60608017Y-36825677D01*
X61753940Y-37334060D02*
X61116400Y-37334060D01*
X70179394Y-38814480D02*
X70808011Y-38814480D01*
X69657322Y-38814480D02*
X70179394Y-38814480D01*
X68961101Y-39510701D02*
X69657322Y-38814480D01*
X67000899Y-39510701D02*
X68961101Y-39510701D01*
X66884000Y-39393802D02*
X67000899Y-39510701D01*
X66884000Y-37974198D02*
X66884000Y-39393802D01*
X65746022Y-36836220D02*
X66884000Y-37974198D01*
X61753940Y-36836220D02*
X65746022Y-36836220D01*
X52132420Y-16485580D02*
X53134000Y-15484000D01*
X52132420Y-29714060D02*
X52132420Y-16485580D01*
X55674000Y-15636400D02*
X55674000Y-15484000D01*
X54660400Y-16650000D02*
X55674000Y-15636400D01*
X54508000Y-16650000D02*
X54660400Y-16650000D01*
X52632800Y-18525200D02*
X54508000Y-16650000D01*
X52632800Y-29714060D02*
X52632800Y-18525200D01*
X53133180Y-18601498D02*
X54750678Y-16984000D01*
X53133180Y-29714060D02*
X53133180Y-18601498D01*
X58214000Y-15636400D02*
X58214000Y-15484000D01*
X56866400Y-16984000D02*
X58214000Y-15636400D01*
X54750678Y-16984000D02*
X56866400Y-16984000D01*
X53633560Y-29714060D02*
X53633560Y-19034440D01*
X53633560Y-19034440D02*
X55184000Y-17484000D01*
X60754000Y-15636400D02*
X60754000Y-15484000D01*
X58906400Y-17484000D02*
X60754000Y-15636400D01*
X55184000Y-17484000D02*
X58906400Y-17484000D01*
X63294000Y-15636400D02*
X63294000Y-15484000D01*
X62205390Y-16725010D02*
X63294000Y-15636400D01*
X60542990Y-16725010D02*
X62205390Y-16725010D01*
X59184000Y-18084000D02*
X60542990Y-16725010D01*
X55384000Y-18084000D02*
X59184000Y-18084000D01*
X54156376Y-19311624D02*
X55384000Y-18084000D01*
X54156376Y-24711624D02*
X54156376Y-19311624D01*
X54133940Y-24734060D02*
X54156376Y-24711624D01*
X54133940Y-29714060D02*
X54133940Y-24734060D01*
X65834000Y-15636400D02*
X65834000Y-15484000D01*
X64445380Y-17025020D02*
X65834000Y-15636400D01*
X60742980Y-17025020D02*
X64445380Y-17025020D01*
X59384000Y-18384000D02*
X60742980Y-17025020D01*
X59308278Y-18384000D02*
X59384000Y-18384000D01*
X59308269Y-18384009D02*
X59308278Y-18384000D01*
X55983990Y-18384010D02*
X59308269Y-18384009D01*
X54579499Y-19788501D02*
X55983990Y-18384010D01*
X54579499Y-28749779D02*
X54579499Y-19788501D01*
X54631780Y-28802060D02*
X54579499Y-28749779D01*
X54631780Y-29714060D02*
X54631780Y-28802060D01*
X70930401Y-20150401D02*
X71794000Y-21014000D01*
X56132920Y-29076520D02*
X56673430Y-28536010D01*
X56673430Y-28536010D02*
X56829807Y-28536010D01*
X56829807Y-28536010D02*
X58005399Y-27360418D01*
X56132920Y-29714060D02*
X56132920Y-29076520D01*
X58005399Y-27360418D02*
X58005399Y-23031471D01*
X58005399Y-23031471D02*
X58934269Y-22102601D01*
X58934269Y-22102601D02*
X62363740Y-22102601D01*
X62363740Y-22102601D02*
X62819591Y-21646750D01*
X62819591Y-21646750D02*
X62819591Y-20757279D01*
X62819591Y-20757279D02*
X63792870Y-19784000D01*
X63792870Y-19784000D02*
X70564000Y-19784000D01*
X70564000Y-19784000D02*
X70930401Y-20150401D01*
X65625399Y-26880308D02*
X65625399Y-23031471D01*
X63176279Y-29329428D02*
X65625399Y-26880308D01*
X63076279Y-29329428D02*
X63176279Y-29329428D01*
X60001047Y-32404660D02*
X63076279Y-29329428D01*
X58912280Y-32404660D02*
X60001047Y-32404660D01*
X57133680Y-30626060D02*
X58912280Y-32404660D01*
X57133680Y-29714060D02*
X57133680Y-30626060D01*
X57133680Y-29714060D02*
X57133680Y-30347985D01*
X57133680Y-29714060D02*
X57133680Y-30351600D01*
X66191471Y-22465399D02*
X65706709Y-22950161D01*
X65625399Y-23031471D02*
X65706709Y-22950161D01*
X67802601Y-22465399D02*
X69254000Y-21014000D01*
X66191471Y-22465399D02*
X67802601Y-22465399D01*
X65625399Y-23031471D02*
X66191471Y-22465399D01*
X62410419Y-29104426D02*
X62854918Y-28659927D01*
X59410195Y-32104650D02*
X62410419Y-29104426D01*
X57631520Y-30626060D02*
X59110110Y-32104650D01*
X57631520Y-29714060D02*
X57631520Y-30626060D01*
X59110110Y-32104650D02*
X59410195Y-32104650D01*
X65037599Y-21877599D02*
X64174000Y-21014000D01*
X65262601Y-22102601D02*
X65037599Y-21877599D01*
X65262601Y-25305399D02*
X65262601Y-22102601D01*
X59866939Y-30701061D02*
X65262601Y-25305399D01*
X58206901Y-30701061D02*
X59866939Y-30701061D01*
X58131900Y-30626060D02*
X58206901Y-30701061D01*
X58131900Y-29714060D02*
X58131900Y-30626060D01*
X47472000Y-55214400D02*
X47472000Y-55366800D01*
X46458400Y-54200800D02*
X47472000Y-55214400D01*
X46306000Y-54200800D02*
X46458400Y-54200800D01*
X42059360Y-49954160D02*
X46306000Y-54200800D01*
X42059360Y-45643000D02*
X42059360Y-49954160D01*
X40758880Y-49394880D02*
X44932000Y-53568000D01*
X44932000Y-53568000D02*
X44932000Y-55366800D01*
X40758880Y-45643000D02*
X40758880Y-49394880D01*
X62976356Y-45633300D02*
X63684000Y-45633300D01*
X62511920Y-45633300D02*
X62976356Y-45633300D01*
X59132660Y-42254040D02*
X62511920Y-45633300D01*
X59132660Y-41616500D02*
X59132660Y-42254040D01*
X63684000Y-45633300D02*
X64322000Y-46271300D01*
X64522000Y-46981196D02*
X64522000Y-47984000D01*
X64322000Y-46781196D02*
X64522000Y-46981196D01*
X64322000Y-46271300D02*
X64322000Y-46781196D01*
X62976356Y-44134700D02*
X63684000Y-44134700D01*
X61513700Y-44134700D02*
X62976356Y-44134700D01*
X59633040Y-42254040D02*
X61513700Y-44134700D01*
X59633040Y-41616500D02*
X59633040Y-42254040D01*
X64122000Y-43696700D02*
X63684000Y-44134700D01*
X64122000Y-41584000D02*
X64122000Y-43696700D01*
X36134030Y-42983990D02*
X33533940Y-40383900D01*
X33533940Y-40383900D02*
X31133320Y-40383900D01*
X36134030Y-42983990D02*
X53184010Y-42983990D01*
X53184010Y-42983990D02*
X53633560Y-42534440D01*
X53633560Y-42534440D02*
X53633560Y-41616500D01*
X35983999Y-43283999D02*
X33884000Y-41184000D01*
X33884000Y-41184000D02*
X31133320Y-41184000D01*
X35983999Y-43283999D02*
X53378441Y-43283999D01*
X53378441Y-43283999D02*
X54133940Y-42528500D01*
X54133940Y-42528500D02*
X54133940Y-41616500D01*
X49851500Y-38334820D02*
X48363516Y-38334820D01*
X48363516Y-38334820D02*
X47999149Y-37970453D01*
X47999149Y-37970453D02*
X46488409Y-37970453D01*
X46488409Y-37970453D02*
X45605361Y-38853501D01*
X45605361Y-38853501D02*
X44880345Y-38853501D01*
X44880345Y-38853501D02*
X44462755Y-38435911D01*
X44462755Y-38435911D02*
X44018256Y-37991412D01*
X48287414Y-37834440D02*
X48123417Y-37670443D01*
X48123417Y-37670443D02*
X45824976Y-37670443D01*
X49851500Y-37834440D02*
X48287414Y-37834440D01*
X45756269Y-37739150D02*
X45311770Y-38183649D01*
X45824976Y-37670443D02*
X45756269Y-37739150D01*
X49851500Y-37334060D02*
X52220212Y-37334060D01*
X52220212Y-37334060D02*
X52354952Y-37199320D01*
X65795000Y-51195000D02*
X59184000Y-44584000D01*
X66068000Y-51195000D02*
X65795000Y-51195000D01*
X67226060Y-34341940D02*
X67884000Y-33684000D01*
X67884000Y-33684000D02*
X68922000Y-33684000D01*
X61753940Y-34341940D02*
X67226060Y-34341940D01*
X38784000Y-45484000D02*
X39949640Y-45484000D01*
X39949640Y-45484000D02*
X40108640Y-45643000D01*
X49851500Y-34834700D02*
X51634700Y-34834700D01*
X51634700Y-34834700D02*
X51723808Y-34923808D01*
X40108640Y-45643000D02*
X40108640Y-47297360D01*
X40108640Y-40540000D02*
X40108640Y-41325000D01*
X40108640Y-37976220D02*
X40108640Y-40540000D01*
X41354370Y-36730490D02*
X40108640Y-37976220D01*
X42020955Y-36730489D02*
X41354370Y-36730490D01*
X44371963Y-34379481D02*
X42020955Y-36730489D01*
X47784037Y-34379479D02*
X44371963Y-34379481D01*
X48327036Y-33836480D02*
X47784037Y-34379479D01*
X49851500Y-33836480D02*
X48327036Y-33836480D01*
X40758880Y-40540000D02*
X40758880Y-41325000D01*
X41478639Y-37030499D02*
X40758880Y-37750258D01*
X44496232Y-34679490D02*
X42145223Y-37030499D01*
X49851500Y-34334320D02*
X49213960Y-34334320D01*
X40758880Y-37750258D02*
X40758880Y-40540000D01*
X49213960Y-34334320D02*
X48868790Y-34679490D01*
X42145223Y-37030499D02*
X41478639Y-37030499D01*
X48868790Y-34679490D02*
X44496232Y-34679490D01*
X52132420Y-41616500D02*
X51857960Y-41616500D01*
X41409120Y-40540000D02*
X41409120Y-41325000D01*
X51857960Y-41616500D02*
X50945960Y-42528500D01*
X50945960Y-42528500D02*
X48296498Y-42528500D01*
X48296498Y-42528500D02*
X47674881Y-41906883D01*
X47674881Y-41906883D02*
X47674881Y-39930825D01*
X47674881Y-39930825D02*
X48283701Y-39322005D01*
X48283701Y-39322005D02*
X48283701Y-38679283D01*
X48283701Y-38679283D02*
X47874881Y-38270463D01*
X47874881Y-38270463D02*
X46765447Y-38270463D01*
X46765447Y-38270463D02*
X45878268Y-39157642D01*
X45878268Y-39157642D02*
X42791478Y-39157642D01*
X42791478Y-39157642D02*
X41409120Y-40540000D01*
X52412300Y-40484000D02*
X49413500Y-40484000D01*
X49413500Y-40484000D02*
X48713500Y-41184000D01*
X48713500Y-41184000D02*
X48246000Y-41184000D01*
X52632800Y-41616500D02*
X52632800Y-40704500D01*
X52632800Y-40704500D02*
X52412300Y-40484000D01*
D41*
X31133320Y-39583800D02*
X33216200Y-39583800D01*
X33216200Y-39583800D02*
X34433000Y-38367000D01*
X34433000Y-38367000D02*
X36284000Y-38367000D01*
D10*
X44620501Y-34979499D02*
X41900000Y-37700000D01*
X41900000Y-37700000D02*
X41800000Y-37700000D01*
X47535501Y-34979499D02*
X44620501Y-34979499D01*
X49851500Y-35335080D02*
X47891082Y-35335080D01*
X47891082Y-35335080D02*
X47535501Y-34979499D01*
D42*
G36*
X41609360Y-49608964D02*
X41208880Y-49208484D01*
X41208880Y-48430500D01*
X41327250Y-48430500D01*
X41421000Y-48336750D01*
X41421000Y-47509000D01*
X41401000Y-47509000D01*
X41401000Y-47459000D01*
X41421000Y-47459000D01*
X41421000Y-47439000D01*
X41471000Y-47439000D01*
X41471000Y-47459000D01*
X41491000Y-47459000D01*
X41491000Y-47509000D01*
X41471000Y-47509000D01*
X41471000Y-48336750D01*
X41564750Y-48430500D01*
X41609360Y-48430500D01*
X41609360Y-49608964D01*
X41609360Y-49608964D01*
G37*
X41609360Y-49608964D02*
X41208880Y-49208484D01*
X41208880Y-48430500D01*
X41327250Y-48430500D01*
X41421000Y-48336750D01*
X41421000Y-47509000D01*
X41401000Y-47509000D01*
X41401000Y-47459000D01*
X41421000Y-47459000D01*
X41421000Y-47439000D01*
X41471000Y-47439000D01*
X41471000Y-47459000D01*
X41491000Y-47459000D01*
X41491000Y-47509000D01*
X41471000Y-47509000D01*
X41471000Y-48336750D01*
X41564750Y-48430500D01*
X41609360Y-48430500D01*
X41609360Y-49608964D01*
G36*
X48809018Y-35810458D02*
X48714500Y-35810458D01*
X48714500Y-35833840D01*
X48319665Y-35833840D01*
X48319660Y-35833839D01*
X48127553Y-35872052D01*
X47964692Y-35980872D01*
X47544623Y-36400940D01*
X47430092Y-36353500D01*
X47280908Y-36353500D01*
X46759000Y-36353500D01*
X46759000Y-36120750D01*
X46759000Y-35547000D01*
X45931250Y-35547000D01*
X45837500Y-35640750D01*
X45837500Y-35914092D01*
X45894590Y-36051920D01*
X46000079Y-36157410D01*
X46137908Y-36214500D01*
X46287092Y-36214500D01*
X46665250Y-36214500D01*
X46759000Y-36120750D01*
X46759000Y-36353500D01*
X46137908Y-36353500D01*
X46000080Y-36410590D01*
X45894590Y-36516079D01*
X45837500Y-36653908D01*
X45837500Y-36803092D01*
X45837500Y-37220443D01*
X45824976Y-37220443D01*
X45652768Y-37254697D01*
X45506778Y-37352245D01*
X45489086Y-37369936D01*
X45475494Y-37364292D01*
X45149477Y-37364007D01*
X44848167Y-37488506D01*
X44741256Y-37595229D01*
X44713399Y-37527809D01*
X44483072Y-37297079D01*
X44181980Y-37172055D01*
X43855963Y-37171770D01*
X43554653Y-37296269D01*
X43323923Y-37526596D01*
X43198899Y-37827688D01*
X43198614Y-38153705D01*
X43323113Y-38455015D01*
X43553440Y-38685745D01*
X43606173Y-38707642D01*
X42791478Y-38707642D01*
X42619270Y-38741896D01*
X42473280Y-38839444D01*
X41208880Y-40103844D01*
X41208880Y-38267808D01*
X41335184Y-38394333D01*
X41636276Y-38519357D01*
X41962293Y-38519642D01*
X42263603Y-38395143D01*
X42494333Y-38164816D01*
X42619357Y-37863724D01*
X42619572Y-37616823D01*
X44806896Y-35429499D01*
X45863749Y-35429499D01*
X45931250Y-35497000D01*
X46759000Y-35497000D01*
X46759000Y-35477000D01*
X46809000Y-35477000D01*
X46809000Y-35497000D01*
X46829000Y-35497000D01*
X46829000Y-35547000D01*
X46809000Y-35547000D01*
X46809000Y-36120750D01*
X46902750Y-36214500D01*
X47280908Y-36214500D01*
X47430092Y-36214500D01*
X47567921Y-36157410D01*
X47673410Y-36051920D01*
X47730500Y-35914092D01*
X47730500Y-35753138D01*
X47891082Y-35785080D01*
X48781643Y-35785080D01*
X48809018Y-35810458D01*
X48809018Y-35810458D01*
G37*
X48809018Y-35810458D02*
X48714500Y-35810458D01*
X48714500Y-35833840D01*
X48319665Y-35833840D01*
X48319660Y-35833839D01*
X48127553Y-35872052D01*
X47964692Y-35980872D01*
X47544623Y-36400940D01*
X47430092Y-36353500D01*
X47280908Y-36353500D01*
X46759000Y-36353500D01*
X46759000Y-36120750D01*
X46759000Y-35547000D01*
X45931250Y-35547000D01*
X45837500Y-35640750D01*
X45837500Y-35914092D01*
X45894590Y-36051920D01*
X46000079Y-36157410D01*
X46137908Y-36214500D01*
X46287092Y-36214500D01*
X46665250Y-36214500D01*
X46759000Y-36120750D01*
X46759000Y-36353500D01*
X46137908Y-36353500D01*
X46000080Y-36410590D01*
X45894590Y-36516079D01*
X45837500Y-36653908D01*
X45837500Y-36803092D01*
X45837500Y-37220443D01*
X45824976Y-37220443D01*
X45652768Y-37254697D01*
X45506778Y-37352245D01*
X45489086Y-37369936D01*
X45475494Y-37364292D01*
X45149477Y-37364007D01*
X44848167Y-37488506D01*
X44741256Y-37595229D01*
X44713399Y-37527809D01*
X44483072Y-37297079D01*
X44181980Y-37172055D01*
X43855963Y-37171770D01*
X43554653Y-37296269D01*
X43323923Y-37526596D01*
X43198899Y-37827688D01*
X43198614Y-38153705D01*
X43323113Y-38455015D01*
X43553440Y-38685745D01*
X43606173Y-38707642D01*
X42791478Y-38707642D01*
X42619270Y-38741896D01*
X42473280Y-38839444D01*
X41208880Y-40103844D01*
X41208880Y-38267808D01*
X41335184Y-38394333D01*
X41636276Y-38519357D01*
X41962293Y-38519642D01*
X42263603Y-38395143D01*
X42494333Y-38164816D01*
X42619357Y-37863724D01*
X42619572Y-37616823D01*
X44806896Y-35429499D01*
X45863749Y-35429499D01*
X45931250Y-35497000D01*
X46759000Y-35497000D01*
X46759000Y-35477000D01*
X46809000Y-35477000D01*
X46809000Y-35497000D01*
X46829000Y-35497000D01*
X46829000Y-35547000D01*
X46809000Y-35547000D01*
X46809000Y-36120750D01*
X46902750Y-36214500D01*
X47280908Y-36214500D01*
X47430092Y-36214500D01*
X47567921Y-36157410D01*
X47673410Y-36051920D01*
X47730500Y-35914092D01*
X47730500Y-35753138D01*
X47891082Y-35785080D01*
X48781643Y-35785080D01*
X48809018Y-35810458D01*
G36*
X54630160Y-32333720D02*
X51010452Y-32333720D01*
X50972756Y-32144205D01*
X50933296Y-32085150D01*
X50972756Y-32026095D01*
X51010775Y-31834960D01*
X50972756Y-31643825D01*
X50864487Y-31481788D01*
X50702450Y-31373519D01*
X50511315Y-31335500D01*
X50450600Y-31335500D01*
X50450600Y-19625777D01*
X50450600Y-18353800D01*
X50450600Y-18303800D01*
X50450600Y-17031823D01*
X50257187Y-16957209D01*
X50024705Y-17022516D01*
X49617455Y-17282900D01*
X49340850Y-17679311D01*
X49237000Y-18151400D01*
X49237000Y-18303800D01*
X50450600Y-18303800D01*
X50450600Y-18353800D01*
X49237000Y-18353800D01*
X49237000Y-18506200D01*
X49340850Y-18978289D01*
X49617455Y-19374700D01*
X50024705Y-19635084D01*
X50257187Y-19700391D01*
X50450600Y-19625777D01*
X50450600Y-31335500D01*
X50231971Y-31335500D01*
X50169698Y-31242302D01*
X49703642Y-30776246D01*
X49703642Y-27221707D01*
X49579143Y-26920397D01*
X49348816Y-26689667D01*
X49047724Y-26564643D01*
X48721707Y-26564358D01*
X48420397Y-26688857D01*
X48189667Y-26919184D01*
X48183514Y-26934000D01*
X46815330Y-26934000D01*
X46775921Y-26894590D01*
X46638092Y-26837500D01*
X46488908Y-26837500D01*
X45853908Y-26837500D01*
X45716080Y-26894590D01*
X45610590Y-27000079D01*
X45553500Y-27137908D01*
X45553500Y-27287092D01*
X45553500Y-28430092D01*
X45610590Y-28567920D01*
X45716079Y-28673410D01*
X45853908Y-28730500D01*
X46003092Y-28730500D01*
X46638092Y-28730500D01*
X46775920Y-28673410D01*
X46881410Y-28567921D01*
X46938500Y-28430092D01*
X46938500Y-28280908D01*
X46938500Y-27834000D01*
X48183236Y-27834000D01*
X48188857Y-27847603D01*
X48419184Y-28078333D01*
X48720276Y-28203357D01*
X49046293Y-28203642D01*
X49347603Y-28079143D01*
X49578333Y-27848816D01*
X49703357Y-27547724D01*
X49703642Y-27221707D01*
X49703642Y-30776246D01*
X49273699Y-30346303D01*
X49127709Y-30248755D01*
X48955501Y-30214501D01*
X44927895Y-30214501D01*
X45040198Y-30102198D01*
X45137746Y-29956208D01*
X45137746Y-29956207D01*
X45172000Y-29784000D01*
X45172000Y-28706513D01*
X45251920Y-28673410D01*
X45357410Y-28567921D01*
X45414500Y-28430092D01*
X45414500Y-28280908D01*
X45414500Y-27137908D01*
X45357410Y-27000080D01*
X45251921Y-26894590D01*
X45114092Y-26837500D01*
X44964908Y-26837500D01*
X44329908Y-26837500D01*
X44192080Y-26894590D01*
X44086590Y-27000079D01*
X44029500Y-27137908D01*
X44029500Y-27287092D01*
X44029500Y-28430092D01*
X44086590Y-28567920D01*
X44192079Y-28673410D01*
X44272000Y-28706513D01*
X44272000Y-29534000D01*
X42430500Y-29534000D01*
X42430500Y-28814092D01*
X42430500Y-28540750D01*
X42430500Y-28303250D01*
X42430500Y-28029908D01*
X42373410Y-27892080D01*
X42267921Y-27786590D01*
X42130092Y-27729500D01*
X41980908Y-27729500D01*
X41602750Y-27729500D01*
X41509000Y-27823250D01*
X41509000Y-28397000D01*
X42336750Y-28397000D01*
X42430500Y-28303250D01*
X42430500Y-28540750D01*
X42336750Y-28447000D01*
X41509000Y-28447000D01*
X41509000Y-29020750D01*
X41602750Y-29114500D01*
X41980908Y-29114500D01*
X42130092Y-29114500D01*
X42267921Y-29057410D01*
X42373410Y-28951920D01*
X42430500Y-28814092D01*
X42430500Y-29534000D01*
X42422253Y-29534000D01*
X42373410Y-29416080D01*
X42267921Y-29310590D01*
X42130092Y-29253500D01*
X41980908Y-29253500D01*
X41459000Y-29253500D01*
X41459000Y-29020750D01*
X41459000Y-28447000D01*
X41459000Y-28397000D01*
X41459000Y-27823250D01*
X41365250Y-27729500D01*
X40987092Y-27729500D01*
X40837908Y-27729500D01*
X40700079Y-27786590D01*
X40594590Y-27892080D01*
X40537500Y-28029908D01*
X40537500Y-28303250D01*
X40631250Y-28397000D01*
X41459000Y-28397000D01*
X41459000Y-28447000D01*
X40631250Y-28447000D01*
X40537500Y-28540750D01*
X40537500Y-28814092D01*
X40594590Y-28951920D01*
X40700079Y-29057410D01*
X40837908Y-29114500D01*
X40987092Y-29114500D01*
X41365250Y-29114500D01*
X41459000Y-29020750D01*
X41459000Y-29253500D01*
X40837908Y-29253500D01*
X40700080Y-29310590D01*
X40594590Y-29416079D01*
X40545746Y-29534000D01*
X38615330Y-29534000D01*
X38567921Y-29486590D01*
X38430092Y-29429500D01*
X38280908Y-29429500D01*
X38234000Y-29429500D01*
X38234000Y-22306796D01*
X40452198Y-20088598D01*
X40549746Y-19942608D01*
X40549746Y-19942607D01*
X40584000Y-19770400D01*
X40584000Y-18012740D01*
X40607992Y-18007968D01*
X41009822Y-17739473D01*
X41278317Y-17337643D01*
X41372600Y-16863651D01*
X41372600Y-16504349D01*
X41278317Y-16030357D01*
X41009822Y-15628527D01*
X40607992Y-15360032D01*
X40134000Y-15265749D01*
X39660008Y-15360032D01*
X39258178Y-15628527D01*
X38989683Y-16030357D01*
X38895400Y-16504349D01*
X38895400Y-16863651D01*
X38989683Y-17337643D01*
X39258178Y-17739473D01*
X39660008Y-18007968D01*
X39684000Y-18012740D01*
X39684000Y-19584004D01*
X37465802Y-21802202D01*
X37368254Y-21948192D01*
X37334000Y-22120400D01*
X37334000Y-29429500D01*
X37137908Y-29429500D01*
X37000080Y-29486590D01*
X36894590Y-29592079D01*
X36837500Y-29729908D01*
X36837500Y-29833106D01*
X36292600Y-29288206D01*
X36292600Y-16861400D01*
X36292600Y-16709000D01*
X35079000Y-16709000D01*
X35079000Y-17980977D01*
X35272413Y-18055591D01*
X35504895Y-17990284D01*
X35912145Y-17729900D01*
X36188750Y-17333489D01*
X36292600Y-16861400D01*
X36292600Y-29288206D01*
X35029000Y-28024606D01*
X35029000Y-17980977D01*
X35029000Y-16709000D01*
X33815400Y-16709000D01*
X33815400Y-16861400D01*
X33919250Y-17333489D01*
X34195855Y-17729900D01*
X34603105Y-17990284D01*
X34835587Y-18055591D01*
X35029000Y-17980977D01*
X35029000Y-28024606D01*
X30424000Y-23419606D01*
X30424000Y-18012740D01*
X30447992Y-18007968D01*
X30849822Y-17739473D01*
X31118317Y-17337643D01*
X31212600Y-16863651D01*
X31212600Y-16504349D01*
X31118317Y-16030357D01*
X31026531Y-15892990D01*
X31238994Y-15892990D01*
X31372357Y-16026353D01*
X31369683Y-16030357D01*
X31275400Y-16504349D01*
X31275400Y-16863651D01*
X31369683Y-17337643D01*
X31638178Y-17739473D01*
X32040008Y-18007968D01*
X32514000Y-18102251D01*
X32987992Y-18007968D01*
X33389822Y-17739473D01*
X33658317Y-17337643D01*
X33752600Y-16863651D01*
X33752600Y-16504349D01*
X33658317Y-16030357D01*
X33389822Y-15628527D01*
X33336622Y-15592980D01*
X34266424Y-15592980D01*
X34195855Y-15638100D01*
X33919250Y-16034511D01*
X33815400Y-16506600D01*
X33815400Y-16659000D01*
X35029000Y-16659000D01*
X35029000Y-16639000D01*
X35079000Y-16639000D01*
X35079000Y-16659000D01*
X36292600Y-16659000D01*
X36292600Y-16506600D01*
X36188750Y-16034511D01*
X35912145Y-15638100D01*
X35841575Y-15592980D01*
X35945444Y-15592980D01*
X36438589Y-16086125D01*
X36355400Y-16504349D01*
X36355400Y-16863651D01*
X36449683Y-17337643D01*
X36718178Y-17739473D01*
X37120008Y-18007968D01*
X37594000Y-18102251D01*
X38067992Y-18007968D01*
X38469822Y-17739473D01*
X38738317Y-17337643D01*
X38832600Y-16863651D01*
X38832600Y-16504349D01*
X38738317Y-16030357D01*
X38469822Y-15628527D01*
X38067992Y-15360032D01*
X37594000Y-15265749D01*
X37130316Y-15357981D01*
X36508348Y-14736012D01*
X36345487Y-14627192D01*
X36153380Y-14588979D01*
X36153374Y-14588980D01*
X26722771Y-14588980D01*
X27868935Y-13442815D01*
X46886795Y-13435268D01*
X43384264Y-16937800D01*
X41917408Y-16937800D01*
X41779580Y-16994890D01*
X41674090Y-17100379D01*
X41617000Y-17238208D01*
X41617000Y-17387392D01*
X41617000Y-19419392D01*
X41674090Y-19557220D01*
X41779579Y-19662710D01*
X41917408Y-19719800D01*
X42066592Y-19719800D01*
X42498400Y-19719800D01*
X42498400Y-23153025D01*
X42470480Y-23164590D01*
X42364990Y-23270079D01*
X42307900Y-23407908D01*
X42307900Y-23557092D01*
X42307900Y-24700092D01*
X42364990Y-24837920D01*
X42470479Y-24943410D01*
X42608308Y-25000500D01*
X42757492Y-25000500D01*
X43392492Y-25000500D01*
X43530320Y-24943410D01*
X43635810Y-24837921D01*
X43692900Y-24700092D01*
X43692900Y-24550908D01*
X43692900Y-23817436D01*
X43831900Y-23678436D01*
X43831900Y-24700092D01*
X43888990Y-24837920D01*
X43994479Y-24943410D01*
X44074400Y-24976513D01*
X44074400Y-25166119D01*
X44088670Y-25237860D01*
X44045199Y-25342551D01*
X44044914Y-25668568D01*
X44169413Y-25969878D01*
X44399740Y-26200608D01*
X44700832Y-26325632D01*
X45026849Y-26325917D01*
X45328159Y-26201418D01*
X45558889Y-25971091D01*
X45683913Y-25669999D01*
X45684198Y-25343982D01*
X45559699Y-25042672D01*
X45329372Y-24811942D01*
X45193875Y-24755679D01*
X45216900Y-24700092D01*
X45216900Y-24550908D01*
X45216900Y-24504000D01*
X46105052Y-24504000D01*
X45989667Y-24619184D01*
X45864643Y-24920276D01*
X45864358Y-25246293D01*
X45988857Y-25547603D01*
X46219184Y-25778333D01*
X46520276Y-25903357D01*
X46846293Y-25903642D01*
X47147603Y-25779143D01*
X47378333Y-25548816D01*
X47503357Y-25247724D01*
X47503642Y-24921707D01*
X47497515Y-24906880D01*
X47940998Y-24463398D01*
X48038546Y-24317408D01*
X48038546Y-24317407D01*
X48072800Y-24145200D01*
X48072800Y-23877330D01*
X48158210Y-23791921D01*
X48215300Y-23654092D01*
X48215300Y-23504908D01*
X48215300Y-22361908D01*
X48158210Y-22224080D01*
X48072800Y-22138669D01*
X48072800Y-19719760D01*
X48409592Y-19652768D01*
X48811422Y-19384273D01*
X49079917Y-18982443D01*
X49174200Y-18508451D01*
X49174200Y-18149149D01*
X49079917Y-17675157D01*
X48811422Y-17273327D01*
X48409592Y-17004832D01*
X48385600Y-17000059D01*
X48385600Y-16044194D01*
X49355400Y-15074394D01*
X49355400Y-16574592D01*
X49412490Y-16712420D01*
X49517979Y-16817910D01*
X49655808Y-16875000D01*
X49804992Y-16875000D01*
X51532192Y-16875000D01*
X51670020Y-16817910D01*
X51682420Y-16805510D01*
X51682420Y-18006932D01*
X51610350Y-17679311D01*
X51333745Y-17282900D01*
X50926495Y-17022516D01*
X50694013Y-16957209D01*
X50500600Y-17031823D01*
X50500600Y-18303800D01*
X50520600Y-18303800D01*
X50520600Y-18353800D01*
X50500600Y-18353800D01*
X50500600Y-19625777D01*
X50694013Y-19700391D01*
X50926495Y-19635084D01*
X51333745Y-19374700D01*
X51610350Y-18978289D01*
X51682420Y-18650667D01*
X51682420Y-28845987D01*
X51670979Y-28863110D01*
X51632960Y-29054245D01*
X51632960Y-30373875D01*
X51670979Y-30565010D01*
X51779248Y-30727047D01*
X51941285Y-30835316D01*
X52132420Y-30873335D01*
X52323555Y-30835316D01*
X52382610Y-30795856D01*
X52441665Y-30835316D01*
X52632800Y-30873335D01*
X52823935Y-30835316D01*
X52882990Y-30795856D01*
X52942045Y-30835316D01*
X53133180Y-30873335D01*
X53324315Y-30835316D01*
X53383370Y-30795856D01*
X53442425Y-30835316D01*
X53633560Y-30873335D01*
X53824695Y-30835316D01*
X53883750Y-30795856D01*
X53942805Y-30835316D01*
X54133940Y-30873335D01*
X54325075Y-30835316D01*
X54382860Y-30796705D01*
X54440645Y-30835316D01*
X54630160Y-30873012D01*
X54630160Y-32333720D01*
X54630160Y-32333720D01*
G37*
X54630160Y-32333720D02*
X51010452Y-32333720D01*
X50972756Y-32144205D01*
X50933296Y-32085150D01*
X50972756Y-32026095D01*
X51010775Y-31834960D01*
X50972756Y-31643825D01*
X50864487Y-31481788D01*
X50702450Y-31373519D01*
X50511315Y-31335500D01*
X50450600Y-31335500D01*
X50450600Y-19625777D01*
X50450600Y-18353800D01*
X50450600Y-18303800D01*
X50450600Y-17031823D01*
X50257187Y-16957209D01*
X50024705Y-17022516D01*
X49617455Y-17282900D01*
X49340850Y-17679311D01*
X49237000Y-18151400D01*
X49237000Y-18303800D01*
X50450600Y-18303800D01*
X50450600Y-18353800D01*
X49237000Y-18353800D01*
X49237000Y-18506200D01*
X49340850Y-18978289D01*
X49617455Y-19374700D01*
X50024705Y-19635084D01*
X50257187Y-19700391D01*
X50450600Y-19625777D01*
X50450600Y-31335500D01*
X50231971Y-31335500D01*
X50169698Y-31242302D01*
X49703642Y-30776246D01*
X49703642Y-27221707D01*
X49579143Y-26920397D01*
X49348816Y-26689667D01*
X49047724Y-26564643D01*
X48721707Y-26564358D01*
X48420397Y-26688857D01*
X48189667Y-26919184D01*
X48183514Y-26934000D01*
X46815330Y-26934000D01*
X46775921Y-26894590D01*
X46638092Y-26837500D01*
X46488908Y-26837500D01*
X45853908Y-26837500D01*
X45716080Y-26894590D01*
X45610590Y-27000079D01*
X45553500Y-27137908D01*
X45553500Y-27287092D01*
X45553500Y-28430092D01*
X45610590Y-28567920D01*
X45716079Y-28673410D01*
X45853908Y-28730500D01*
X46003092Y-28730500D01*
X46638092Y-28730500D01*
X46775920Y-28673410D01*
X46881410Y-28567921D01*
X46938500Y-28430092D01*
X46938500Y-28280908D01*
X46938500Y-27834000D01*
X48183236Y-27834000D01*
X48188857Y-27847603D01*
X48419184Y-28078333D01*
X48720276Y-28203357D01*
X49046293Y-28203642D01*
X49347603Y-28079143D01*
X49578333Y-27848816D01*
X49703357Y-27547724D01*
X49703642Y-27221707D01*
X49703642Y-30776246D01*
X49273699Y-30346303D01*
X49127709Y-30248755D01*
X48955501Y-30214501D01*
X44927895Y-30214501D01*
X45040198Y-30102198D01*
X45137746Y-29956208D01*
X45137746Y-29956207D01*
X45172000Y-29784000D01*
X45172000Y-28706513D01*
X45251920Y-28673410D01*
X45357410Y-28567921D01*
X45414500Y-28430092D01*
X45414500Y-28280908D01*
X45414500Y-27137908D01*
X45357410Y-27000080D01*
X45251921Y-26894590D01*
X45114092Y-26837500D01*
X44964908Y-26837500D01*
X44329908Y-26837500D01*
X44192080Y-26894590D01*
X44086590Y-27000079D01*
X44029500Y-27137908D01*
X44029500Y-27287092D01*
X44029500Y-28430092D01*
X44086590Y-28567920D01*
X44192079Y-28673410D01*
X44272000Y-28706513D01*
X44272000Y-29534000D01*
X42430500Y-29534000D01*
X42430500Y-28814092D01*
X42430500Y-28540750D01*
X42430500Y-28303250D01*
X42430500Y-28029908D01*
X42373410Y-27892080D01*
X42267921Y-27786590D01*
X42130092Y-27729500D01*
X41980908Y-27729500D01*
X41602750Y-27729500D01*
X41509000Y-27823250D01*
X41509000Y-28397000D01*
X42336750Y-28397000D01*
X42430500Y-28303250D01*
X42430500Y-28540750D01*
X42336750Y-28447000D01*
X41509000Y-28447000D01*
X41509000Y-29020750D01*
X41602750Y-29114500D01*
X41980908Y-29114500D01*
X42130092Y-29114500D01*
X42267921Y-29057410D01*
X42373410Y-28951920D01*
X42430500Y-28814092D01*
X42430500Y-29534000D01*
X42422253Y-29534000D01*
X42373410Y-29416080D01*
X42267921Y-29310590D01*
X42130092Y-29253500D01*
X41980908Y-29253500D01*
X41459000Y-29253500D01*
X41459000Y-29020750D01*
X41459000Y-28447000D01*
X41459000Y-28397000D01*
X41459000Y-27823250D01*
X41365250Y-27729500D01*
X40987092Y-27729500D01*
X40837908Y-27729500D01*
X40700079Y-27786590D01*
X40594590Y-27892080D01*
X40537500Y-28029908D01*
X40537500Y-28303250D01*
X40631250Y-28397000D01*
X41459000Y-28397000D01*
X41459000Y-28447000D01*
X40631250Y-28447000D01*
X40537500Y-28540750D01*
X40537500Y-28814092D01*
X40594590Y-28951920D01*
X40700079Y-29057410D01*
X40837908Y-29114500D01*
X40987092Y-29114500D01*
X41365250Y-29114500D01*
X41459000Y-29020750D01*
X41459000Y-29253500D01*
X40837908Y-29253500D01*
X40700080Y-29310590D01*
X40594590Y-29416079D01*
X40545746Y-29534000D01*
X38615330Y-29534000D01*
X38567921Y-29486590D01*
X38430092Y-29429500D01*
X38280908Y-29429500D01*
X38234000Y-29429500D01*
X38234000Y-22306796D01*
X40452198Y-20088598D01*
X40549746Y-19942608D01*
X40549746Y-19942607D01*
X40584000Y-19770400D01*
X40584000Y-18012740D01*
X40607992Y-18007968D01*
X41009822Y-17739473D01*
X41278317Y-17337643D01*
X41372600Y-16863651D01*
X41372600Y-16504349D01*
X41278317Y-16030357D01*
X41009822Y-15628527D01*
X40607992Y-15360032D01*
X40134000Y-15265749D01*
X39660008Y-15360032D01*
X39258178Y-15628527D01*
X38989683Y-16030357D01*
X38895400Y-16504349D01*
X38895400Y-16863651D01*
X38989683Y-17337643D01*
X39258178Y-17739473D01*
X39660008Y-18007968D01*
X39684000Y-18012740D01*
X39684000Y-19584004D01*
X37465802Y-21802202D01*
X37368254Y-21948192D01*
X37334000Y-22120400D01*
X37334000Y-29429500D01*
X37137908Y-29429500D01*
X37000080Y-29486590D01*
X36894590Y-29592079D01*
X36837500Y-29729908D01*
X36837500Y-29833106D01*
X36292600Y-29288206D01*
X36292600Y-16861400D01*
X36292600Y-16709000D01*
X35079000Y-16709000D01*
X35079000Y-17980977D01*
X35272413Y-18055591D01*
X35504895Y-17990284D01*
X35912145Y-17729900D01*
X36188750Y-17333489D01*
X36292600Y-16861400D01*
X36292600Y-29288206D01*
X35029000Y-28024606D01*
X35029000Y-17980977D01*
X35029000Y-16709000D01*
X33815400Y-16709000D01*
X33815400Y-16861400D01*
X33919250Y-17333489D01*
X34195855Y-17729900D01*
X34603105Y-17990284D01*
X34835587Y-18055591D01*
X35029000Y-17980977D01*
X35029000Y-28024606D01*
X30424000Y-23419606D01*
X30424000Y-18012740D01*
X30447992Y-18007968D01*
X30849822Y-17739473D01*
X31118317Y-17337643D01*
X31212600Y-16863651D01*
X31212600Y-16504349D01*
X31118317Y-16030357D01*
X31026531Y-15892990D01*
X31238994Y-15892990D01*
X31372357Y-16026353D01*
X31369683Y-16030357D01*
X31275400Y-16504349D01*
X31275400Y-16863651D01*
X31369683Y-17337643D01*
X31638178Y-17739473D01*
X32040008Y-18007968D01*
X32514000Y-18102251D01*
X32987992Y-18007968D01*
X33389822Y-17739473D01*
X33658317Y-17337643D01*
X33752600Y-16863651D01*
X33752600Y-16504349D01*
X33658317Y-16030357D01*
X33389822Y-15628527D01*
X33336622Y-15592980D01*
X34266424Y-15592980D01*
X34195855Y-15638100D01*
X33919250Y-16034511D01*
X33815400Y-16506600D01*
X33815400Y-16659000D01*
X35029000Y-16659000D01*
X35029000Y-16639000D01*
X35079000Y-16639000D01*
X35079000Y-16659000D01*
X36292600Y-16659000D01*
X36292600Y-16506600D01*
X36188750Y-16034511D01*
X35912145Y-15638100D01*
X35841575Y-15592980D01*
X35945444Y-15592980D01*
X36438589Y-16086125D01*
X36355400Y-16504349D01*
X36355400Y-16863651D01*
X36449683Y-17337643D01*
X36718178Y-17739473D01*
X37120008Y-18007968D01*
X37594000Y-18102251D01*
X38067992Y-18007968D01*
X38469822Y-17739473D01*
X38738317Y-17337643D01*
X38832600Y-16863651D01*
X38832600Y-16504349D01*
X38738317Y-16030357D01*
X38469822Y-15628527D01*
X38067992Y-15360032D01*
X37594000Y-15265749D01*
X37130316Y-15357981D01*
X36508348Y-14736012D01*
X36345487Y-14627192D01*
X36153380Y-14588979D01*
X36153374Y-14588980D01*
X26722771Y-14588980D01*
X27868935Y-13442815D01*
X46886795Y-13435268D01*
X43384264Y-16937800D01*
X41917408Y-16937800D01*
X41779580Y-16994890D01*
X41674090Y-17100379D01*
X41617000Y-17238208D01*
X41617000Y-17387392D01*
X41617000Y-19419392D01*
X41674090Y-19557220D01*
X41779579Y-19662710D01*
X41917408Y-19719800D01*
X42066592Y-19719800D01*
X42498400Y-19719800D01*
X42498400Y-23153025D01*
X42470480Y-23164590D01*
X42364990Y-23270079D01*
X42307900Y-23407908D01*
X42307900Y-23557092D01*
X42307900Y-24700092D01*
X42364990Y-24837920D01*
X42470479Y-24943410D01*
X42608308Y-25000500D01*
X42757492Y-25000500D01*
X43392492Y-25000500D01*
X43530320Y-24943410D01*
X43635810Y-24837921D01*
X43692900Y-24700092D01*
X43692900Y-24550908D01*
X43692900Y-23817436D01*
X43831900Y-23678436D01*
X43831900Y-24700092D01*
X43888990Y-24837920D01*
X43994479Y-24943410D01*
X44074400Y-24976513D01*
X44074400Y-25166119D01*
X44088670Y-25237860D01*
X44045199Y-25342551D01*
X44044914Y-25668568D01*
X44169413Y-25969878D01*
X44399740Y-26200608D01*
X44700832Y-26325632D01*
X45026849Y-26325917D01*
X45328159Y-26201418D01*
X45558889Y-25971091D01*
X45683913Y-25669999D01*
X45684198Y-25343982D01*
X45559699Y-25042672D01*
X45329372Y-24811942D01*
X45193875Y-24755679D01*
X45216900Y-24700092D01*
X45216900Y-24550908D01*
X45216900Y-24504000D01*
X46105052Y-24504000D01*
X45989667Y-24619184D01*
X45864643Y-24920276D01*
X45864358Y-25246293D01*
X45988857Y-25547603D01*
X46219184Y-25778333D01*
X46520276Y-25903357D01*
X46846293Y-25903642D01*
X47147603Y-25779143D01*
X47378333Y-25548816D01*
X47503357Y-25247724D01*
X47503642Y-24921707D01*
X47497515Y-24906880D01*
X47940998Y-24463398D01*
X48038546Y-24317408D01*
X48038546Y-24317407D01*
X48072800Y-24145200D01*
X48072800Y-23877330D01*
X48158210Y-23791921D01*
X48215300Y-23654092D01*
X48215300Y-23504908D01*
X48215300Y-22361908D01*
X48158210Y-22224080D01*
X48072800Y-22138669D01*
X48072800Y-19719760D01*
X48409592Y-19652768D01*
X48811422Y-19384273D01*
X49079917Y-18982443D01*
X49174200Y-18508451D01*
X49174200Y-18149149D01*
X49079917Y-17675157D01*
X48811422Y-17273327D01*
X48409592Y-17004832D01*
X48385600Y-17000059D01*
X48385600Y-16044194D01*
X49355400Y-15074394D01*
X49355400Y-16574592D01*
X49412490Y-16712420D01*
X49517979Y-16817910D01*
X49655808Y-16875000D01*
X49804992Y-16875000D01*
X51532192Y-16875000D01*
X51670020Y-16817910D01*
X51682420Y-16805510D01*
X51682420Y-18006932D01*
X51610350Y-17679311D01*
X51333745Y-17282900D01*
X50926495Y-17022516D01*
X50694013Y-16957209D01*
X50500600Y-17031823D01*
X50500600Y-18303800D01*
X50520600Y-18303800D01*
X50520600Y-18353800D01*
X50500600Y-18353800D01*
X50500600Y-19625777D01*
X50694013Y-19700391D01*
X50926495Y-19635084D01*
X51333745Y-19374700D01*
X51610350Y-18978289D01*
X51682420Y-18650667D01*
X51682420Y-28845987D01*
X51670979Y-28863110D01*
X51632960Y-29054245D01*
X51632960Y-30373875D01*
X51670979Y-30565010D01*
X51779248Y-30727047D01*
X51941285Y-30835316D01*
X52132420Y-30873335D01*
X52323555Y-30835316D01*
X52382610Y-30795856D01*
X52441665Y-30835316D01*
X52632800Y-30873335D01*
X52823935Y-30835316D01*
X52882990Y-30795856D01*
X52942045Y-30835316D01*
X53133180Y-30873335D01*
X53324315Y-30835316D01*
X53383370Y-30795856D01*
X53442425Y-30835316D01*
X53633560Y-30873335D01*
X53824695Y-30835316D01*
X53883750Y-30795856D01*
X53942805Y-30835316D01*
X54133940Y-30873335D01*
X54325075Y-30835316D01*
X54382860Y-30796705D01*
X54440645Y-30835316D01*
X54630160Y-30873012D01*
X54630160Y-32333720D01*
G36*
X55374064Y-34084000D02*
X54060312Y-35397752D01*
X53951492Y-35560613D01*
X53913279Y-35752720D01*
X53913280Y-35752725D01*
X53913280Y-35833840D01*
X50988500Y-35833840D01*
X50988500Y-35810458D01*
X50893981Y-35810458D01*
X50977822Y-35732733D01*
X50960048Y-35667422D01*
X50921484Y-35602948D01*
X50972756Y-35526215D01*
X51009561Y-35341178D01*
X51028665Y-35387411D01*
X51258992Y-35618141D01*
X51560084Y-35743165D01*
X51886101Y-35743450D01*
X52187411Y-35618951D01*
X52418141Y-35388624D01*
X52543165Y-35087532D01*
X52543450Y-34761515D01*
X52418951Y-34460205D01*
X52188624Y-34229475D01*
X51887532Y-34104451D01*
X51561515Y-34104166D01*
X51260205Y-34228665D01*
X51103896Y-34384700D01*
X51000753Y-34384700D01*
X51010775Y-34334320D01*
X50972756Y-34143185D01*
X50934145Y-34085400D01*
X50972756Y-34027615D01*
X51010775Y-33836480D01*
X50972756Y-33645345D01*
X50921484Y-33568611D01*
X50960048Y-33504138D01*
X50977822Y-33438827D01*
X50893981Y-33361102D01*
X50988500Y-33361102D01*
X50988500Y-33337720D01*
X54627784Y-33337720D01*
X54777189Y-33487124D01*
X54777192Y-33487128D01*
X55374064Y-34084000D01*
X55374064Y-34084000D01*
G37*
X55374064Y-34084000D02*
X54060312Y-35397752D01*
X53951492Y-35560613D01*
X53913279Y-35752720D01*
X53913280Y-35752725D01*
X53913280Y-35833840D01*
X50988500Y-35833840D01*
X50988500Y-35810458D01*
X50893981Y-35810458D01*
X50977822Y-35732733D01*
X50960048Y-35667422D01*
X50921484Y-35602948D01*
X50972756Y-35526215D01*
X51009561Y-35341178D01*
X51028665Y-35387411D01*
X51258992Y-35618141D01*
X51560084Y-35743165D01*
X51886101Y-35743450D01*
X52187411Y-35618951D01*
X52418141Y-35388624D01*
X52543165Y-35087532D01*
X52543450Y-34761515D01*
X52418951Y-34460205D01*
X52188624Y-34229475D01*
X51887532Y-34104451D01*
X51561515Y-34104166D01*
X51260205Y-34228665D01*
X51103896Y-34384700D01*
X51000753Y-34384700D01*
X51010775Y-34334320D01*
X50972756Y-34143185D01*
X50934145Y-34085400D01*
X50972756Y-34027615D01*
X51010775Y-33836480D01*
X50972756Y-33645345D01*
X50921484Y-33568611D01*
X50960048Y-33504138D01*
X50977822Y-33438827D01*
X50893981Y-33361102D01*
X50988500Y-33361102D01*
X50988500Y-33337720D01*
X54627784Y-33337720D01*
X54777189Y-33487124D01*
X54777192Y-33487128D01*
X55374064Y-34084000D01*
G36*
X61679000Y-21039000D02*
X61659000Y-21039000D01*
X61659000Y-21059000D01*
X61609000Y-21059000D01*
X61609000Y-21039000D01*
X60489423Y-21039000D01*
X60414809Y-21232413D01*
X60424030Y-21278777D01*
X60587298Y-21652601D01*
X60140701Y-21652601D01*
X60303970Y-21278777D01*
X60313191Y-21232413D01*
X60238577Y-21039000D01*
X59119000Y-21039000D01*
X59119000Y-21059000D01*
X59069000Y-21059000D01*
X59069000Y-21039000D01*
X57949423Y-21039000D01*
X57874809Y-21232413D01*
X57884030Y-21278777D01*
X58077459Y-21721658D01*
X58383876Y-22016597D01*
X57687201Y-22713273D01*
X57589653Y-22859263D01*
X57555399Y-23031471D01*
X57555399Y-27174022D01*
X57338500Y-27390920D01*
X57338500Y-27165250D01*
X57338500Y-26787092D01*
X57338500Y-26637908D01*
X57281410Y-26500079D01*
X57175920Y-26394590D01*
X57038092Y-26337500D01*
X56764750Y-26337500D01*
X56671000Y-26431250D01*
X56671000Y-27259000D01*
X57244750Y-27259000D01*
X57338500Y-27165250D01*
X57338500Y-27390920D01*
X57332585Y-27396835D01*
X57244750Y-27309000D01*
X56671000Y-27309000D01*
X56671000Y-27329000D01*
X56621000Y-27329000D01*
X56621000Y-27309000D01*
X56621000Y-27259000D01*
X56621000Y-26431250D01*
X56527250Y-26337500D01*
X56253908Y-26337500D01*
X56116080Y-26394590D01*
X56010590Y-26500079D01*
X55953500Y-26637908D01*
X55953500Y-26787092D01*
X55953500Y-27165250D01*
X56047250Y-27259000D01*
X56621000Y-27259000D01*
X56621000Y-27309000D01*
X56047250Y-27309000D01*
X55953500Y-27402750D01*
X55953500Y-27780908D01*
X55953500Y-27930092D01*
X56010590Y-28067921D01*
X56116080Y-28173410D01*
X56253908Y-28230500D01*
X56342544Y-28230500D01*
X55989788Y-28583255D01*
X55941785Y-28592804D01*
X55865051Y-28644075D01*
X55800578Y-28605512D01*
X55735267Y-28587738D01*
X55657540Y-28671581D01*
X55657540Y-28933186D01*
X55633460Y-29054245D01*
X55633460Y-29710540D01*
X55631620Y-29701290D01*
X55631620Y-29054245D01*
X55624000Y-29015936D01*
X55624000Y-28184974D01*
X55651920Y-28173410D01*
X55757410Y-28067921D01*
X55814500Y-27930092D01*
X55814500Y-27780908D01*
X55814500Y-26637908D01*
X55757410Y-26500080D01*
X55651921Y-26394590D01*
X55624000Y-26383024D01*
X55624000Y-22882579D01*
X57982254Y-20524324D01*
X57884030Y-20749223D01*
X57874809Y-20795587D01*
X57949423Y-20989000D01*
X59069000Y-20989000D01*
X59069000Y-20969000D01*
X59119000Y-20969000D01*
X59119000Y-20989000D01*
X60238577Y-20989000D01*
X60313191Y-20795587D01*
X60303970Y-20749223D01*
X60110541Y-20306342D01*
X59762352Y-19971196D01*
X59545031Y-19886000D01*
X61182968Y-19886000D01*
X60965648Y-19971196D01*
X60617459Y-20306342D01*
X60424030Y-20749223D01*
X60414809Y-20795587D01*
X60489423Y-20989000D01*
X61609000Y-20989000D01*
X61609000Y-20969000D01*
X61659000Y-20969000D01*
X61659000Y-20989000D01*
X61679000Y-20989000D01*
X61679000Y-21039000D01*
X61679000Y-21039000D01*
G37*
X61679000Y-21039000D02*
X61659000Y-21039000D01*
X61659000Y-21059000D01*
X61609000Y-21059000D01*
X61609000Y-21039000D01*
X60489423Y-21039000D01*
X60414809Y-21232413D01*
X60424030Y-21278777D01*
X60587298Y-21652601D01*
X60140701Y-21652601D01*
X60303970Y-21278777D01*
X60313191Y-21232413D01*
X60238577Y-21039000D01*
X59119000Y-21039000D01*
X59119000Y-21059000D01*
X59069000Y-21059000D01*
X59069000Y-21039000D01*
X57949423Y-21039000D01*
X57874809Y-21232413D01*
X57884030Y-21278777D01*
X58077459Y-21721658D01*
X58383876Y-22016597D01*
X57687201Y-22713273D01*
X57589653Y-22859263D01*
X57555399Y-23031471D01*
X57555399Y-27174022D01*
X57338500Y-27390920D01*
X57338500Y-27165250D01*
X57338500Y-26787092D01*
X57338500Y-26637908D01*
X57281410Y-26500079D01*
X57175920Y-26394590D01*
X57038092Y-26337500D01*
X56764750Y-26337500D01*
X56671000Y-26431250D01*
X56671000Y-27259000D01*
X57244750Y-27259000D01*
X57338500Y-27165250D01*
X57338500Y-27390920D01*
X57332585Y-27396835D01*
X57244750Y-27309000D01*
X56671000Y-27309000D01*
X56671000Y-27329000D01*
X56621000Y-27329000D01*
X56621000Y-27309000D01*
X56621000Y-27259000D01*
X56621000Y-26431250D01*
X56527250Y-26337500D01*
X56253908Y-26337500D01*
X56116080Y-26394590D01*
X56010590Y-26500079D01*
X55953500Y-26637908D01*
X55953500Y-26787092D01*
X55953500Y-27165250D01*
X56047250Y-27259000D01*
X56621000Y-27259000D01*
X56621000Y-27309000D01*
X56047250Y-27309000D01*
X55953500Y-27402750D01*
X55953500Y-27780908D01*
X55953500Y-27930092D01*
X56010590Y-28067921D01*
X56116080Y-28173410D01*
X56253908Y-28230500D01*
X56342544Y-28230500D01*
X55989788Y-28583255D01*
X55941785Y-28592804D01*
X55865051Y-28644075D01*
X55800578Y-28605512D01*
X55735267Y-28587738D01*
X55657540Y-28671581D01*
X55657540Y-28933186D01*
X55633460Y-29054245D01*
X55633460Y-29710540D01*
X55631620Y-29701290D01*
X55631620Y-29054245D01*
X55624000Y-29015936D01*
X55624000Y-28184974D01*
X55651920Y-28173410D01*
X55757410Y-28067921D01*
X55814500Y-27930092D01*
X55814500Y-27780908D01*
X55814500Y-26637908D01*
X55757410Y-26500080D01*
X55651921Y-26394590D01*
X55624000Y-26383024D01*
X55624000Y-22882579D01*
X57982254Y-20524324D01*
X57884030Y-20749223D01*
X57874809Y-20795587D01*
X57949423Y-20989000D01*
X59069000Y-20989000D01*
X59069000Y-20969000D01*
X59119000Y-20969000D01*
X59119000Y-20989000D01*
X60238577Y-20989000D01*
X60313191Y-20795587D01*
X60303970Y-20749223D01*
X60110541Y-20306342D01*
X59762352Y-19971196D01*
X59545031Y-19886000D01*
X61182968Y-19886000D01*
X60965648Y-19971196D01*
X60617459Y-20306342D01*
X60424030Y-20749223D01*
X60414809Y-20795587D01*
X60489423Y-20989000D01*
X61609000Y-20989000D01*
X61609000Y-20969000D01*
X61659000Y-20969000D01*
X61659000Y-20989000D01*
X61679000Y-20989000D01*
X61679000Y-21039000D01*
G36*
X66477247Y-39579470D02*
X66223660Y-39579470D01*
X66305010Y-39498121D01*
X66362100Y-39360292D01*
X66362100Y-39211108D01*
X66362100Y-38502750D01*
X66268350Y-38409000D01*
X65212000Y-38409000D01*
X65212000Y-38429000D01*
X65162000Y-38429000D01*
X65162000Y-38409000D01*
X64105650Y-38409000D01*
X64011900Y-38502750D01*
X64011900Y-39211108D01*
X64011900Y-39360292D01*
X64068990Y-39498121D01*
X64150339Y-39579470D01*
X62839946Y-39579470D01*
X62875196Y-39526715D01*
X62913215Y-39335580D01*
X62875196Y-39144445D01*
X62835736Y-39085390D01*
X62875196Y-39026335D01*
X62913215Y-38835200D01*
X62875196Y-38644065D01*
X62844626Y-38598314D01*
X62892976Y-38525955D01*
X62930995Y-38334820D01*
X62892976Y-38143685D01*
X62844626Y-38071325D01*
X62875196Y-38025575D01*
X62913215Y-37834440D01*
X62875196Y-37643305D01*
X62835736Y-37584250D01*
X62875196Y-37525195D01*
X62913215Y-37334060D01*
X62903699Y-37286220D01*
X64062221Y-37286220D01*
X64011900Y-37407708D01*
X64011900Y-37556892D01*
X64011900Y-38265250D01*
X64105650Y-38359000D01*
X65162000Y-38359000D01*
X65162000Y-38339000D01*
X65212000Y-38339000D01*
X65212000Y-38359000D01*
X66268350Y-38359000D01*
X66362100Y-38265250D01*
X66362100Y-38088694D01*
X66434000Y-38160594D01*
X66434000Y-39393802D01*
X66468254Y-39566010D01*
X66477247Y-39579470D01*
X66477247Y-39579470D01*
G37*
X66477247Y-39579470D02*
X66223660Y-39579470D01*
X66305010Y-39498121D01*
X66362100Y-39360292D01*
X66362100Y-39211108D01*
X66362100Y-38502750D01*
X66268350Y-38409000D01*
X65212000Y-38409000D01*
X65212000Y-38429000D01*
X65162000Y-38429000D01*
X65162000Y-38409000D01*
X64105650Y-38409000D01*
X64011900Y-38502750D01*
X64011900Y-39211108D01*
X64011900Y-39360292D01*
X64068990Y-39498121D01*
X64150339Y-39579470D01*
X62839946Y-39579470D01*
X62875196Y-39526715D01*
X62913215Y-39335580D01*
X62875196Y-39144445D01*
X62835736Y-39085390D01*
X62875196Y-39026335D01*
X62913215Y-38835200D01*
X62875196Y-38644065D01*
X62844626Y-38598314D01*
X62892976Y-38525955D01*
X62930995Y-38334820D01*
X62892976Y-38143685D01*
X62844626Y-38071325D01*
X62875196Y-38025575D01*
X62913215Y-37834440D01*
X62875196Y-37643305D01*
X62835736Y-37584250D01*
X62875196Y-37525195D01*
X62913215Y-37334060D01*
X62903699Y-37286220D01*
X64062221Y-37286220D01*
X64011900Y-37407708D01*
X64011900Y-37556892D01*
X64011900Y-38265250D01*
X64105650Y-38359000D01*
X65162000Y-38359000D01*
X65162000Y-38339000D01*
X65212000Y-38339000D01*
X65212000Y-38359000D01*
X66268350Y-38359000D01*
X66362100Y-38265250D01*
X66362100Y-38088694D01*
X66434000Y-38160594D01*
X66434000Y-39393802D01*
X66468254Y-39566010D01*
X66477247Y-39579470D01*
G36*
X74972601Y-19963457D02*
X74832258Y-19869683D01*
X74358266Y-19775400D01*
X74309734Y-19775400D01*
X73889021Y-19859085D01*
X73825369Y-19795434D01*
X73825369Y-19795433D01*
X73825365Y-19795430D01*
X73058968Y-19029032D01*
X72896107Y-18920212D01*
X72704000Y-18881999D01*
X72703994Y-18882000D01*
X69612600Y-18882000D01*
X69612600Y-15661400D01*
X69612600Y-15509000D01*
X68399000Y-15509000D01*
X68399000Y-16780977D01*
X68592413Y-16855591D01*
X68824895Y-16790284D01*
X69232145Y-16529900D01*
X69508750Y-16133489D01*
X69612600Y-15661400D01*
X69612600Y-18882000D01*
X68349000Y-18882000D01*
X68349000Y-16780977D01*
X68349000Y-15509000D01*
X67135400Y-15509000D01*
X67135400Y-15661400D01*
X67239250Y-16133489D01*
X67515855Y-16529900D01*
X67923105Y-16790284D01*
X68155587Y-16855591D01*
X68349000Y-16780977D01*
X68349000Y-18882000D01*
X58412644Y-18882000D01*
X58220536Y-18920212D01*
X58155303Y-18963799D01*
X58057676Y-19029032D01*
X58057673Y-19029035D01*
X55029499Y-22057209D01*
X55029499Y-19974897D01*
X56170386Y-18834009D01*
X59308269Y-18834009D01*
X59308314Y-18834000D01*
X59384000Y-18834000D01*
X59556207Y-18799746D01*
X59556208Y-18799746D01*
X59702198Y-18702198D01*
X60929376Y-17475020D01*
X64445380Y-17475020D01*
X64617587Y-17440766D01*
X64617588Y-17440766D01*
X64763578Y-17343218D01*
X65323333Y-16783462D01*
X65360008Y-16807968D01*
X65834000Y-16902251D01*
X66307992Y-16807968D01*
X66709822Y-16539473D01*
X66978317Y-16137643D01*
X67072600Y-15663651D01*
X67072600Y-15304349D01*
X66978317Y-14830357D01*
X66780303Y-14534010D01*
X67448931Y-14534010D01*
X67239250Y-14834511D01*
X67135400Y-15306600D01*
X67135400Y-15459000D01*
X68349000Y-15459000D01*
X68349000Y-15439000D01*
X68399000Y-15439000D01*
X68399000Y-15459000D01*
X69612600Y-15459000D01*
X69612600Y-15306600D01*
X69508750Y-14834511D01*
X69299068Y-14534010D01*
X69450770Y-14534010D01*
X73196865Y-18280105D01*
X73191221Y-18293698D01*
X73190936Y-18619715D01*
X73315435Y-18921025D01*
X73545762Y-19151755D01*
X73846854Y-19276779D01*
X74172871Y-19277064D01*
X74474181Y-19152565D01*
X74704911Y-18922238D01*
X74787337Y-18723733D01*
X74972601Y-18908997D01*
X74972601Y-19963457D01*
X74972601Y-19963457D01*
G37*
X74972601Y-19963457D02*
X74832258Y-19869683D01*
X74358266Y-19775400D01*
X74309734Y-19775400D01*
X73889021Y-19859085D01*
X73825369Y-19795434D01*
X73825369Y-19795433D01*
X73825365Y-19795430D01*
X73058968Y-19029032D01*
X72896107Y-18920212D01*
X72704000Y-18881999D01*
X72703994Y-18882000D01*
X69612600Y-18882000D01*
X69612600Y-15661400D01*
X69612600Y-15509000D01*
X68399000Y-15509000D01*
X68399000Y-16780977D01*
X68592413Y-16855591D01*
X68824895Y-16790284D01*
X69232145Y-16529900D01*
X69508750Y-16133489D01*
X69612600Y-15661400D01*
X69612600Y-18882000D01*
X68349000Y-18882000D01*
X68349000Y-16780977D01*
X68349000Y-15509000D01*
X67135400Y-15509000D01*
X67135400Y-15661400D01*
X67239250Y-16133489D01*
X67515855Y-16529900D01*
X67923105Y-16790284D01*
X68155587Y-16855591D01*
X68349000Y-16780977D01*
X68349000Y-18882000D01*
X58412644Y-18882000D01*
X58220536Y-18920212D01*
X58155303Y-18963799D01*
X58057676Y-19029032D01*
X58057673Y-19029035D01*
X55029499Y-22057209D01*
X55029499Y-19974897D01*
X56170386Y-18834009D01*
X59308269Y-18834009D01*
X59308314Y-18834000D01*
X59384000Y-18834000D01*
X59556207Y-18799746D01*
X59556208Y-18799746D01*
X59702198Y-18702198D01*
X60929376Y-17475020D01*
X64445380Y-17475020D01*
X64617587Y-17440766D01*
X64617588Y-17440766D01*
X64763578Y-17343218D01*
X65323333Y-16783462D01*
X65360008Y-16807968D01*
X65834000Y-16902251D01*
X66307992Y-16807968D01*
X66709822Y-16539473D01*
X66978317Y-16137643D01*
X67072600Y-15663651D01*
X67072600Y-15304349D01*
X66978317Y-14830357D01*
X66780303Y-14534010D01*
X67448931Y-14534010D01*
X67239250Y-14834511D01*
X67135400Y-15306600D01*
X67135400Y-15459000D01*
X68349000Y-15459000D01*
X68349000Y-15439000D01*
X68399000Y-15439000D01*
X68399000Y-15459000D01*
X69612600Y-15459000D01*
X69612600Y-15306600D01*
X69508750Y-14834511D01*
X69299068Y-14534010D01*
X69450770Y-14534010D01*
X73196865Y-18280105D01*
X73191221Y-18293698D01*
X73190936Y-18619715D01*
X73315435Y-18921025D01*
X73545762Y-19151755D01*
X73846854Y-19276779D01*
X74172871Y-19277064D01*
X74474181Y-19152565D01*
X74704911Y-18922238D01*
X74787337Y-18723733D01*
X74972601Y-18908997D01*
X74972601Y-19963457D01*
G36*
X80078783Y-35460179D02*
X79941208Y-35368254D01*
X79769000Y-35334000D01*
X74107080Y-35334000D01*
X74107080Y-34157372D01*
X74107080Y-34008188D01*
X74107080Y-33802750D01*
X74107080Y-33565250D01*
X74107080Y-33359812D01*
X74107080Y-33210628D01*
X74049990Y-33072799D01*
X73944500Y-32967310D01*
X73806672Y-32910220D01*
X73452050Y-32910220D01*
X73358300Y-33003970D01*
X73358300Y-33659000D01*
X74013330Y-33659000D01*
X74107080Y-33565250D01*
X74107080Y-33802750D01*
X74013330Y-33709000D01*
X73358300Y-33709000D01*
X73358300Y-34364030D01*
X73452050Y-34457780D01*
X73806672Y-34457780D01*
X73944500Y-34400690D01*
X74049990Y-34295201D01*
X74107080Y-34157372D01*
X74107080Y-35334000D01*
X73308300Y-35334000D01*
X73308300Y-34364030D01*
X73308300Y-33709000D01*
X73288300Y-33709000D01*
X73288300Y-33659000D01*
X73308300Y-33659000D01*
X73308300Y-33003970D01*
X73214550Y-32910220D01*
X72859928Y-32910220D01*
X72722100Y-32967310D01*
X72616610Y-33072799D01*
X72583999Y-33151527D01*
X72551390Y-33072800D01*
X72445901Y-32967310D01*
X72308072Y-32910220D01*
X72158888Y-32910220D01*
X71361328Y-32910220D01*
X71223500Y-32967310D01*
X71138500Y-33052309D01*
X71138500Y-33037908D01*
X71081410Y-32900080D01*
X70975921Y-32794590D01*
X70838092Y-32737500D01*
X70688908Y-32737500D01*
X70053908Y-32737500D01*
X69916080Y-32794590D01*
X69810590Y-32900079D01*
X69753500Y-33037908D01*
X69753500Y-33187092D01*
X69753500Y-34330092D01*
X69810590Y-34467920D01*
X69916079Y-34573410D01*
X70053908Y-34630500D01*
X70203092Y-34630500D01*
X70838092Y-34630500D01*
X70975920Y-34573410D01*
X71081410Y-34467921D01*
X71138500Y-34330092D01*
X71138500Y-34315690D01*
X71223499Y-34400690D01*
X71361328Y-34457780D01*
X71510512Y-34457780D01*
X72308072Y-34457780D01*
X72445900Y-34400690D01*
X72551390Y-34295201D01*
X72584000Y-34216472D01*
X72616610Y-34295201D01*
X72722100Y-34400690D01*
X72859928Y-34457780D01*
X73214550Y-34457780D01*
X73308300Y-34364030D01*
X73308300Y-35334000D01*
X63801636Y-35334000D01*
X63259576Y-34791940D01*
X67226060Y-34791940D01*
X67398267Y-34757686D01*
X67398268Y-34757686D01*
X67544258Y-34660138D01*
X68070396Y-34134000D01*
X68229500Y-34134000D01*
X68229500Y-34330092D01*
X68286590Y-34467920D01*
X68392079Y-34573410D01*
X68529908Y-34630500D01*
X68679092Y-34630500D01*
X69314092Y-34630500D01*
X69451920Y-34573410D01*
X69557410Y-34467921D01*
X69614500Y-34330092D01*
X69614500Y-34180908D01*
X69614500Y-33037908D01*
X69557410Y-32900080D01*
X69451921Y-32794590D01*
X69314092Y-32737500D01*
X69164908Y-32737500D01*
X68529908Y-32737500D01*
X68392080Y-32794590D01*
X68286590Y-32900079D01*
X68229500Y-33037908D01*
X68229500Y-33187092D01*
X68229500Y-33234000D01*
X67884000Y-33234000D01*
X67792120Y-33252275D01*
X76357960Y-24686435D01*
X76375742Y-24698317D01*
X76849734Y-24792600D01*
X76898266Y-24792600D01*
X77372258Y-24698317D01*
X77634050Y-24523392D01*
X77634050Y-32829050D01*
X77668304Y-33001258D01*
X77765852Y-33147248D01*
X80078783Y-35460179D01*
X80078783Y-35460179D01*
G37*
X80078783Y-35460179D02*
X79941208Y-35368254D01*
X79769000Y-35334000D01*
X74107080Y-35334000D01*
X74107080Y-34157372D01*
X74107080Y-34008188D01*
X74107080Y-33802750D01*
X74107080Y-33565250D01*
X74107080Y-33359812D01*
X74107080Y-33210628D01*
X74049990Y-33072799D01*
X73944500Y-32967310D01*
X73806672Y-32910220D01*
X73452050Y-32910220D01*
X73358300Y-33003970D01*
X73358300Y-33659000D01*
X74013330Y-33659000D01*
X74107080Y-33565250D01*
X74107080Y-33802750D01*
X74013330Y-33709000D01*
X73358300Y-33709000D01*
X73358300Y-34364030D01*
X73452050Y-34457780D01*
X73806672Y-34457780D01*
X73944500Y-34400690D01*
X74049990Y-34295201D01*
X74107080Y-34157372D01*
X74107080Y-35334000D01*
X73308300Y-35334000D01*
X73308300Y-34364030D01*
X73308300Y-33709000D01*
X73288300Y-33709000D01*
X73288300Y-33659000D01*
X73308300Y-33659000D01*
X73308300Y-33003970D01*
X73214550Y-32910220D01*
X72859928Y-32910220D01*
X72722100Y-32967310D01*
X72616610Y-33072799D01*
X72583999Y-33151527D01*
X72551390Y-33072800D01*
X72445901Y-32967310D01*
X72308072Y-32910220D01*
X72158888Y-32910220D01*
X71361328Y-32910220D01*
X71223500Y-32967310D01*
X71138500Y-33052309D01*
X71138500Y-33037908D01*
X71081410Y-32900080D01*
X70975921Y-32794590D01*
X70838092Y-32737500D01*
X70688908Y-32737500D01*
X70053908Y-32737500D01*
X69916080Y-32794590D01*
X69810590Y-32900079D01*
X69753500Y-33037908D01*
X69753500Y-33187092D01*
X69753500Y-34330092D01*
X69810590Y-34467920D01*
X69916079Y-34573410D01*
X70053908Y-34630500D01*
X70203092Y-34630500D01*
X70838092Y-34630500D01*
X70975920Y-34573410D01*
X71081410Y-34467921D01*
X71138500Y-34330092D01*
X71138500Y-34315690D01*
X71223499Y-34400690D01*
X71361328Y-34457780D01*
X71510512Y-34457780D01*
X72308072Y-34457780D01*
X72445900Y-34400690D01*
X72551390Y-34295201D01*
X72584000Y-34216472D01*
X72616610Y-34295201D01*
X72722100Y-34400690D01*
X72859928Y-34457780D01*
X73214550Y-34457780D01*
X73308300Y-34364030D01*
X73308300Y-35334000D01*
X63801636Y-35334000D01*
X63259576Y-34791940D01*
X67226060Y-34791940D01*
X67398267Y-34757686D01*
X67398268Y-34757686D01*
X67544258Y-34660138D01*
X68070396Y-34134000D01*
X68229500Y-34134000D01*
X68229500Y-34330092D01*
X68286590Y-34467920D01*
X68392079Y-34573410D01*
X68529908Y-34630500D01*
X68679092Y-34630500D01*
X69314092Y-34630500D01*
X69451920Y-34573410D01*
X69557410Y-34467921D01*
X69614500Y-34330092D01*
X69614500Y-34180908D01*
X69614500Y-33037908D01*
X69557410Y-32900080D01*
X69451921Y-32794590D01*
X69314092Y-32737500D01*
X69164908Y-32737500D01*
X68529908Y-32737500D01*
X68392080Y-32794590D01*
X68286590Y-32900079D01*
X68229500Y-33037908D01*
X68229500Y-33187092D01*
X68229500Y-33234000D01*
X67884000Y-33234000D01*
X67792120Y-33252275D01*
X76357960Y-24686435D01*
X76375742Y-24698317D01*
X76849734Y-24792600D01*
X76898266Y-24792600D01*
X77372258Y-24698317D01*
X77634050Y-24523392D01*
X77634050Y-32829050D01*
X77668304Y-33001258D01*
X77765852Y-33147248D01*
X80078783Y-35460179D01*
G36*
X89051574Y-36343001D02*
X86298960Y-39095614D01*
X86298960Y-37453524D01*
X86168272Y-37127460D01*
X86156771Y-37110247D01*
X86001720Y-37066636D01*
X85449355Y-37619000D01*
X86001720Y-38171364D01*
X86156771Y-38127753D01*
X86294922Y-37804780D01*
X86298960Y-37453524D01*
X86298960Y-39095614D01*
X86273896Y-39120678D01*
X86296846Y-39065410D01*
X86297153Y-38714131D01*
X86163007Y-38389474D01*
X85914832Y-38140866D01*
X85890340Y-38130696D01*
X85414000Y-37654355D01*
X85378645Y-37689710D01*
X85378645Y-37619000D01*
X84826280Y-37066636D01*
X84671229Y-37110247D01*
X84533078Y-37433220D01*
X84529040Y-37784476D01*
X84659728Y-38110540D01*
X84671229Y-38127753D01*
X84826280Y-38171364D01*
X85378645Y-37619000D01*
X85378645Y-37689710D01*
X84938142Y-38130213D01*
X84914474Y-38139993D01*
X84748577Y-38305601D01*
X79734000Y-33291024D01*
X79734000Y-24684763D01*
X79747603Y-24679143D01*
X79978333Y-24448816D01*
X80103357Y-24147724D01*
X80103629Y-23835965D01*
X84912000Y-28644335D01*
X84912000Y-31656000D01*
X84831408Y-31656000D01*
X84693580Y-31713090D01*
X84588090Y-31818579D01*
X84531000Y-31956408D01*
X84531000Y-32105592D01*
X84531000Y-33121592D01*
X84588090Y-33259420D01*
X84657348Y-33328679D01*
X84531154Y-33632590D01*
X84530847Y-33983869D01*
X84664993Y-34308526D01*
X84800249Y-34444018D01*
X84665866Y-34578168D01*
X84531154Y-34902590D01*
X84530847Y-35253869D01*
X84664993Y-35578526D01*
X84800249Y-35714018D01*
X84665866Y-35848168D01*
X84531154Y-36172590D01*
X84530847Y-36523869D01*
X84664993Y-36848526D01*
X84913168Y-37097134D01*
X84937659Y-37107303D01*
X85414000Y-37583645D01*
X85889857Y-37107786D01*
X85913526Y-37098007D01*
X86162134Y-36849832D01*
X86296846Y-36525410D01*
X86297005Y-36343001D01*
X89051574Y-36343001D01*
X89051574Y-36343001D01*
G37*
X89051574Y-36343001D02*
X86298960Y-39095614D01*
X86298960Y-37453524D01*
X86168272Y-37127460D01*
X86156771Y-37110247D01*
X86001720Y-37066636D01*
X85449355Y-37619000D01*
X86001720Y-38171364D01*
X86156771Y-38127753D01*
X86294922Y-37804780D01*
X86298960Y-37453524D01*
X86298960Y-39095614D01*
X86273896Y-39120678D01*
X86296846Y-39065410D01*
X86297153Y-38714131D01*
X86163007Y-38389474D01*
X85914832Y-38140866D01*
X85890340Y-38130696D01*
X85414000Y-37654355D01*
X85378645Y-37689710D01*
X85378645Y-37619000D01*
X84826280Y-37066636D01*
X84671229Y-37110247D01*
X84533078Y-37433220D01*
X84529040Y-37784476D01*
X84659728Y-38110540D01*
X84671229Y-38127753D01*
X84826280Y-38171364D01*
X85378645Y-37619000D01*
X85378645Y-37689710D01*
X84938142Y-38130213D01*
X84914474Y-38139993D01*
X84748577Y-38305601D01*
X79734000Y-33291024D01*
X79734000Y-24684763D01*
X79747603Y-24679143D01*
X79978333Y-24448816D01*
X80103357Y-24147724D01*
X80103629Y-23835965D01*
X84912000Y-28644335D01*
X84912000Y-31656000D01*
X84831408Y-31656000D01*
X84693580Y-31713090D01*
X84588090Y-31818579D01*
X84531000Y-31956408D01*
X84531000Y-32105592D01*
X84531000Y-33121592D01*
X84588090Y-33259420D01*
X84657348Y-33328679D01*
X84531154Y-33632590D01*
X84530847Y-33983869D01*
X84664993Y-34308526D01*
X84800249Y-34444018D01*
X84665866Y-34578168D01*
X84531154Y-34902590D01*
X84530847Y-35253869D01*
X84664993Y-35578526D01*
X84800249Y-35714018D01*
X84665866Y-35848168D01*
X84531154Y-36172590D01*
X84530847Y-36523869D01*
X84664993Y-36848526D01*
X84913168Y-37097134D01*
X84937659Y-37107303D01*
X85414000Y-37583645D01*
X85889857Y-37107786D01*
X85913526Y-37098007D01*
X86162134Y-36849832D01*
X86296846Y-36525410D01*
X86297005Y-36343001D01*
X89051574Y-36343001D01*
G36*
X110015000Y-56953248D02*
X109241197Y-57727051D01*
X109241197Y-56938829D01*
X109241197Y-18838829D01*
X109068464Y-18420783D01*
X108748900Y-18100660D01*
X108331155Y-17927198D01*
X107878829Y-17926803D01*
X107460783Y-18099536D01*
X107140660Y-18419100D01*
X106967198Y-18836845D01*
X106966803Y-19289171D01*
X107139536Y-19707217D01*
X107459100Y-20027340D01*
X107876845Y-20200802D01*
X108329171Y-20201197D01*
X108747217Y-20028464D01*
X109067340Y-19708900D01*
X109240802Y-19291155D01*
X109241197Y-18838829D01*
X109241197Y-56938829D01*
X109068464Y-56520783D01*
X108748900Y-56200660D01*
X108331155Y-56027198D01*
X107878829Y-56026803D01*
X107460783Y-56199536D01*
X107140660Y-56519100D01*
X106967198Y-56936845D01*
X106966803Y-57389171D01*
X107139536Y-57807217D01*
X107459100Y-58127340D01*
X107876845Y-58300802D01*
X108329171Y-58301197D01*
X108747217Y-58128464D01*
X109067340Y-57808900D01*
X109240802Y-57391155D01*
X109241197Y-56938829D01*
X109241197Y-57727051D01*
X106701197Y-60267051D01*
X106701197Y-56938829D01*
X106701197Y-18838829D01*
X106528464Y-18420783D01*
X106208900Y-18100660D01*
X105791155Y-17927198D01*
X105338829Y-17926803D01*
X104920783Y-18099536D01*
X104600660Y-18419100D01*
X104427198Y-18836845D01*
X104426803Y-19289171D01*
X104599536Y-19707217D01*
X104919100Y-20027340D01*
X105336845Y-20200802D01*
X105789171Y-20201197D01*
X106207217Y-20028464D01*
X106527340Y-19708900D01*
X106700802Y-19291155D01*
X106701197Y-18838829D01*
X106701197Y-56938829D01*
X106528464Y-56520783D01*
X106208900Y-56200660D01*
X105851414Y-56052219D01*
X105902198Y-56001436D01*
X105999746Y-55855446D01*
X105999747Y-55855445D01*
X106034000Y-55683238D01*
X106034000Y-47584000D01*
X105999746Y-47411793D01*
X105999746Y-47411792D01*
X105902198Y-47265802D01*
X104161197Y-45524801D01*
X104161197Y-18838829D01*
X103988464Y-18420783D01*
X103668900Y-18100660D01*
X103251155Y-17927198D01*
X102798829Y-17926803D01*
X102380783Y-18099536D01*
X102060660Y-18419100D01*
X101887198Y-18836845D01*
X101886803Y-19289171D01*
X102059536Y-19707217D01*
X102379100Y-20027340D01*
X102796845Y-20200802D01*
X103249171Y-20201197D01*
X103667217Y-20028464D01*
X103987340Y-19708900D01*
X104160802Y-19291155D01*
X104161197Y-18838829D01*
X104161197Y-45524801D01*
X101695999Y-43059603D01*
X101695999Y-19825999D01*
X101661745Y-19653791D01*
X101564197Y-19507801D01*
X101540629Y-19484233D01*
X101620802Y-19291155D01*
X101621197Y-18838829D01*
X101448464Y-18420783D01*
X101128900Y-18100660D01*
X100711155Y-17927198D01*
X100258829Y-17926803D01*
X99840783Y-18099536D01*
X99520660Y-18419100D01*
X99347198Y-18836845D01*
X99346803Y-19289171D01*
X99519536Y-19707217D01*
X99839100Y-20027340D01*
X100256845Y-20200802D01*
X100709171Y-20201197D01*
X100795999Y-20165320D01*
X100795999Y-21279603D01*
X99024197Y-19507801D01*
X99000629Y-19484233D01*
X99080802Y-19291155D01*
X99081197Y-18838829D01*
X98908464Y-18420783D01*
X98588900Y-18100660D01*
X98171155Y-17927198D01*
X97718829Y-17926803D01*
X97300783Y-18099536D01*
X96980660Y-18419100D01*
X96807198Y-18836845D01*
X96806803Y-19289171D01*
X96979536Y-19707217D01*
X97299100Y-20027340D01*
X97716845Y-20200802D01*
X98169171Y-20201197D01*
X98364211Y-20120607D01*
X98387801Y-20144197D01*
X100495989Y-22252385D01*
X100495989Y-43370267D01*
X100530243Y-43542475D01*
X100627791Y-43688465D01*
X104744039Y-47804713D01*
X104744039Y-54807565D01*
X103444233Y-56107370D01*
X103251155Y-56027198D01*
X102798829Y-56026803D01*
X102380783Y-56199536D01*
X102060660Y-56519100D01*
X101887198Y-56936845D01*
X101886803Y-57389171D01*
X102015648Y-57701001D01*
X101657397Y-57701001D01*
X101564197Y-57607801D01*
X101540629Y-57584233D01*
X101620802Y-57391155D01*
X101621197Y-56938829D01*
X101448464Y-56520783D01*
X101128900Y-56200660D01*
X100711155Y-56027198D01*
X100258829Y-56026803D01*
X99840783Y-56199536D01*
X99520660Y-56519100D01*
X99347198Y-56936845D01*
X99346803Y-57389171D01*
X99519536Y-57807217D01*
X99839100Y-58127340D01*
X100256845Y-58300802D01*
X100709171Y-58301197D01*
X100904211Y-58220607D01*
X100927801Y-58244197D01*
X101152803Y-58469199D01*
X101298793Y-58566747D01*
X101298794Y-58566747D01*
X101471001Y-58601001D01*
X103497761Y-58601001D01*
X103669968Y-58566747D01*
X103669969Y-58566747D01*
X103815959Y-58469199D01*
X104329199Y-57955959D01*
X104426747Y-57809969D01*
X104426747Y-57809968D01*
X104461001Y-57637761D01*
X104461001Y-57471936D01*
X104599536Y-57807217D01*
X104919100Y-58127340D01*
X105336845Y-58300802D01*
X105789171Y-58301197D01*
X106207217Y-58128464D01*
X106527340Y-57808900D01*
X106700802Y-57391155D01*
X106701197Y-56938829D01*
X106701197Y-60267051D01*
X106483248Y-60485000D01*
X99081197Y-60485000D01*
X99081197Y-56938829D01*
X98908464Y-56520783D01*
X98588900Y-56200660D01*
X98171155Y-56027198D01*
X97718829Y-56026803D01*
X97300783Y-56199536D01*
X96980660Y-56519100D01*
X96807198Y-56936845D01*
X96806803Y-57389171D01*
X96979536Y-57807217D01*
X97299100Y-58127340D01*
X97716845Y-58300802D01*
X98169171Y-58301197D01*
X98587217Y-58128464D01*
X98907340Y-57808900D01*
X99080802Y-57391155D01*
X99081197Y-56938829D01*
X99081197Y-60485000D01*
X96541197Y-60485000D01*
X96541197Y-56938829D01*
X96368464Y-56520783D01*
X96048900Y-56200660D01*
X95631155Y-56027198D01*
X95178829Y-56026803D01*
X94760783Y-56199536D01*
X94440660Y-56519100D01*
X94267198Y-56936845D01*
X94266803Y-57389171D01*
X94439536Y-57807217D01*
X94759100Y-58127340D01*
X95176845Y-58300802D01*
X95629171Y-58301197D01*
X96047217Y-58128464D01*
X96367340Y-57808900D01*
X96540802Y-57391155D01*
X96541197Y-56938829D01*
X96541197Y-60485000D01*
X94001197Y-60485000D01*
X94001197Y-56938829D01*
X93828464Y-56520783D01*
X93508900Y-56200660D01*
X93091155Y-56027198D01*
X92638829Y-56026803D01*
X92220783Y-56199536D01*
X91900660Y-56519100D01*
X91727198Y-56936845D01*
X91726803Y-57389171D01*
X91899536Y-57807217D01*
X92219100Y-58127340D01*
X92636845Y-58300802D01*
X93089171Y-58301197D01*
X93507217Y-58128464D01*
X93827340Y-57808900D01*
X94000802Y-57391155D01*
X94001197Y-56938829D01*
X94001197Y-60485000D01*
X48710600Y-60485000D01*
X48710600Y-55546451D01*
X48710600Y-55187149D01*
X48616317Y-54713157D01*
X48347822Y-54311327D01*
X47945992Y-54042832D01*
X47472000Y-53948549D01*
X46998008Y-54042832D01*
X46961333Y-54067337D01*
X46776598Y-53882602D01*
X46630608Y-53785054D01*
X46500837Y-53759241D01*
X44730500Y-51988904D01*
X44730500Y-44338092D01*
X44730500Y-44064750D01*
X44636750Y-43971000D01*
X43809000Y-43971000D01*
X43809000Y-44544750D01*
X43902750Y-44638500D01*
X44280908Y-44638500D01*
X44430092Y-44638500D01*
X44567921Y-44581410D01*
X44673410Y-44475920D01*
X44730500Y-44338092D01*
X44730500Y-51988904D01*
X43759000Y-51017404D01*
X43759000Y-44544750D01*
X43759000Y-43971000D01*
X42931250Y-43971000D01*
X42837500Y-44064750D01*
X42837500Y-44338092D01*
X42894590Y-44475920D01*
X43000079Y-44581410D01*
X43137908Y-44638500D01*
X43287092Y-44638500D01*
X43665250Y-44638500D01*
X43759000Y-44544750D01*
X43759000Y-51017404D01*
X42509360Y-49767764D01*
X42509360Y-46548830D01*
X42567770Y-46490421D01*
X42624860Y-46352592D01*
X42624860Y-46203408D01*
X42624860Y-44933408D01*
X42567770Y-44795580D01*
X42462281Y-44690090D01*
X42324452Y-44633000D01*
X42175268Y-44633000D01*
X41794268Y-44633000D01*
X41734240Y-44657864D01*
X41674212Y-44633000D01*
X41527870Y-44633000D01*
X41434120Y-44726750D01*
X41434120Y-45618000D01*
X41454120Y-45618000D01*
X41454120Y-45668000D01*
X41434120Y-45668000D01*
X41434120Y-45688000D01*
X41384120Y-45688000D01*
X41384120Y-45668000D01*
X41364120Y-45668000D01*
X41364120Y-45618000D01*
X41384120Y-45618000D01*
X41384120Y-44726750D01*
X41290370Y-44633000D01*
X41144028Y-44633000D01*
X41084000Y-44657864D01*
X41023972Y-44633000D01*
X40874788Y-44633000D01*
X40493788Y-44633000D01*
X40433760Y-44657864D01*
X40373732Y-44633000D01*
X40224548Y-44633000D01*
X39843548Y-44633000D01*
X39705720Y-44690090D01*
X39600230Y-44795579D01*
X39543140Y-44933408D01*
X39543140Y-45034000D01*
X39484763Y-45034000D01*
X39479143Y-45020397D01*
X39248816Y-44789667D01*
X38947724Y-44664643D01*
X38621707Y-44664358D01*
X38320397Y-44788857D01*
X38089667Y-45019184D01*
X37964643Y-45320276D01*
X37964358Y-45646293D01*
X38088857Y-45947603D01*
X38319184Y-46178333D01*
X38620276Y-46303357D01*
X38946293Y-46303642D01*
X39247603Y-46179143D01*
X39478333Y-45948816D01*
X39484485Y-45934000D01*
X39543140Y-45934000D01*
X39543140Y-46352592D01*
X39600230Y-46490420D01*
X39647309Y-46537500D01*
X39529908Y-46537500D01*
X39392080Y-46594590D01*
X39286590Y-46700079D01*
X39229500Y-46837908D01*
X39229500Y-46987092D01*
X39229500Y-48130092D01*
X39286590Y-48267920D01*
X39392079Y-48373410D01*
X39529908Y-48430500D01*
X39679092Y-48430500D01*
X40308880Y-48430500D01*
X40308880Y-49394880D01*
X40343134Y-49567088D01*
X40440682Y-49713078D01*
X44482000Y-53754396D01*
X44482000Y-54038059D01*
X44458008Y-54042832D01*
X44056178Y-54311327D01*
X43787683Y-54713157D01*
X43693400Y-55187149D01*
X43693400Y-55546451D01*
X43787683Y-56020443D01*
X44056178Y-56422273D01*
X44458008Y-56690768D01*
X44932000Y-56785051D01*
X45405992Y-56690768D01*
X45807822Y-56422273D01*
X46076317Y-56020443D01*
X46170600Y-55546451D01*
X46170600Y-55187149D01*
X46076317Y-54713157D01*
X45863583Y-54394779D01*
X45987802Y-54518998D01*
X46133792Y-54616546D01*
X46133793Y-54616546D01*
X46263562Y-54642358D01*
X46330357Y-54709153D01*
X46327683Y-54713157D01*
X46233400Y-55187149D01*
X46233400Y-55546451D01*
X46327683Y-56020443D01*
X46596178Y-56422273D01*
X46998008Y-56690768D01*
X47472000Y-56785051D01*
X47945992Y-56690768D01*
X48347822Y-56422273D01*
X48616317Y-56020443D01*
X48710600Y-55546451D01*
X48710600Y-60485000D01*
X43630600Y-60485000D01*
X43630600Y-55544200D01*
X43630600Y-55391800D01*
X43630600Y-55341800D01*
X43630600Y-55189400D01*
X43526750Y-54717311D01*
X43250145Y-54320900D01*
X42842895Y-54060516D01*
X42610413Y-53995209D01*
X42417000Y-54069823D01*
X42417000Y-55341800D01*
X43630600Y-55341800D01*
X43630600Y-55391800D01*
X42417000Y-55391800D01*
X42417000Y-56663777D01*
X42610413Y-56738391D01*
X42842895Y-56673084D01*
X43250145Y-56412700D01*
X43526750Y-56016289D01*
X43630600Y-55544200D01*
X43630600Y-60485000D01*
X42367000Y-60485000D01*
X42367000Y-56663777D01*
X42367000Y-55391800D01*
X42367000Y-55341800D01*
X42367000Y-54069823D01*
X42221642Y-54013747D01*
X42221642Y-52517307D01*
X42097143Y-52215997D01*
X41866816Y-51985267D01*
X41565724Y-51860243D01*
X41239707Y-51859958D01*
X40938397Y-51984457D01*
X40707667Y-52214784D01*
X40582643Y-52515876D01*
X40582404Y-52789260D01*
X40089165Y-53282499D01*
X39202980Y-53282499D01*
X39202980Y-52575728D01*
X39159393Y-52470500D01*
X39170492Y-52470500D01*
X39308320Y-52413410D01*
X39413810Y-52307921D01*
X39470900Y-52170092D01*
X39470900Y-52020908D01*
X39470900Y-51385908D01*
X39413810Y-51248080D01*
X39308321Y-51142590D01*
X39170492Y-51085500D01*
X39021308Y-51085500D01*
X37878308Y-51085500D01*
X37740480Y-51142590D01*
X37634990Y-51248079D01*
X37577900Y-51385908D01*
X37577900Y-51535092D01*
X37577900Y-52170092D01*
X37634990Y-52307920D01*
X37738739Y-52411670D01*
X37712510Y-52437899D01*
X37655420Y-52575728D01*
X37655420Y-52724912D01*
X37655420Y-53353259D01*
X37541271Y-53429531D01*
X37541268Y-53429534D01*
X36857400Y-54113402D01*
X36857400Y-53738608D01*
X36800310Y-53600780D01*
X36694821Y-53495290D01*
X36556992Y-53438200D01*
X36476400Y-53438200D01*
X36476400Y-52186435D01*
X37763775Y-50899059D01*
X37878308Y-50946500D01*
X38027492Y-50946500D01*
X39170492Y-50946500D01*
X39285024Y-50899059D01*
X39373649Y-50987685D01*
X39487657Y-51263603D01*
X39717984Y-51494333D01*
X40019076Y-51619357D01*
X40345093Y-51619642D01*
X40646403Y-51495143D01*
X40877133Y-51264816D01*
X41002157Y-50963724D01*
X41002442Y-50637707D01*
X40877943Y-50336397D01*
X40647616Y-50105667D01*
X40346524Y-49980643D01*
X40020507Y-49980358D01*
X39854702Y-50048867D01*
X39704868Y-49899032D01*
X39542007Y-49790212D01*
X39432151Y-49768360D01*
X39413810Y-49724080D01*
X39308321Y-49618590D01*
X39170492Y-49561500D01*
X39021308Y-49561500D01*
X37878308Y-49561500D01*
X37740480Y-49618590D01*
X37634990Y-49724079D01*
X37616648Y-49768360D01*
X37506792Y-49790212D01*
X37441559Y-49833799D01*
X37343932Y-49899032D01*
X37343929Y-49899035D01*
X35892200Y-51350764D01*
X35892200Y-49315792D01*
X35892200Y-49166608D01*
X35892200Y-47134608D01*
X35835110Y-46996780D01*
X35729621Y-46891290D01*
X35591792Y-46834200D01*
X35442608Y-46834200D01*
X32606733Y-46834200D01*
X32658940Y-46708162D01*
X32658940Y-46558978D01*
X32658940Y-45752830D01*
X32658940Y-45515330D01*
X32658940Y-44709182D01*
X32658940Y-44559998D01*
X32658940Y-43108982D01*
X32658940Y-42959798D01*
X32658940Y-42902950D01*
X32565190Y-42809200D01*
X31158320Y-42809200D01*
X31158320Y-43315640D01*
X31252070Y-43409390D01*
X32358532Y-43409390D01*
X32496360Y-43352300D01*
X32601850Y-43246811D01*
X32658940Y-43108982D01*
X32658940Y-44559998D01*
X32601850Y-44422169D01*
X32496360Y-44316680D01*
X32358532Y-44259590D01*
X31153010Y-44259590D01*
X31108320Y-44304280D01*
X31108320Y-43315640D01*
X31108320Y-42809200D01*
X29701450Y-42809200D01*
X29607700Y-42902950D01*
X29607700Y-42959798D01*
X29607700Y-43108982D01*
X29664790Y-43246811D01*
X29770280Y-43352300D01*
X29908108Y-43409390D01*
X31014570Y-43409390D01*
X31108320Y-43315640D01*
X31108320Y-44304280D01*
X31059260Y-44353340D01*
X31059260Y-45609080D01*
X32565190Y-45609080D01*
X32658940Y-45515330D01*
X32658940Y-45752830D01*
X32565190Y-45659080D01*
X31059260Y-45659080D01*
X31059260Y-46914820D01*
X31153010Y-47008570D01*
X31536806Y-47008570D01*
X31484600Y-47134608D01*
X31484600Y-47283792D01*
X31484600Y-49315792D01*
X31541690Y-49453620D01*
X31647179Y-49559110D01*
X31785008Y-49616200D01*
X31934192Y-49616200D01*
X35591792Y-49616200D01*
X35729620Y-49559110D01*
X35835110Y-49453621D01*
X35892200Y-49315792D01*
X35892200Y-51350764D01*
X35619432Y-51623532D01*
X35510612Y-51786393D01*
X35472399Y-51978500D01*
X35472400Y-51978505D01*
X35472400Y-53109264D01*
X32156588Y-49793452D01*
X31993727Y-49684632D01*
X31801620Y-49646419D01*
X31801614Y-49646420D01*
X31009260Y-49646420D01*
X31009260Y-46914820D01*
X31009260Y-45659080D01*
X31009260Y-45609080D01*
X31009260Y-44353340D01*
X30915510Y-44259590D01*
X29709988Y-44259590D01*
X29572160Y-44316680D01*
X29466670Y-44422169D01*
X29409580Y-44559998D01*
X29409580Y-44709182D01*
X29409580Y-45515330D01*
X29503330Y-45609080D01*
X31009260Y-45609080D01*
X31009260Y-45659080D01*
X29503330Y-45659080D01*
X29409580Y-45752830D01*
X29409580Y-46558978D01*
X29409580Y-46708162D01*
X29466670Y-46845991D01*
X29572160Y-46951480D01*
X29709988Y-47008570D01*
X30915510Y-47008570D01*
X31009260Y-46914820D01*
X31009260Y-49646420D01*
X27830630Y-49646420D01*
X27830630Y-48499028D01*
X27773540Y-48361200D01*
X27668051Y-48255710D01*
X27530222Y-48198620D01*
X27381038Y-48198620D01*
X27057200Y-48198620D01*
X27057200Y-47871535D01*
X27583764Y-47344970D01*
X27583767Y-47344968D01*
X27583768Y-47344968D01*
X27649000Y-47247340D01*
X27692588Y-47182108D01*
X27692588Y-47182107D01*
X27730800Y-46990000D01*
X27730800Y-43596848D01*
X27835448Y-43850117D01*
X28067203Y-44082277D01*
X28370161Y-44208076D01*
X28698199Y-44208362D01*
X29001377Y-44083092D01*
X29233537Y-43851337D01*
X29359336Y-43548379D01*
X29359622Y-43220341D01*
X29234352Y-42917163D01*
X29002597Y-42685003D01*
X28699639Y-42559204D01*
X28371601Y-42558918D01*
X28068423Y-42684188D01*
X27836263Y-42915943D01*
X27730800Y-43169926D01*
X27730800Y-39197568D01*
X27835448Y-39450837D01*
X28067203Y-39682997D01*
X28370161Y-39808796D01*
X28698199Y-39809082D01*
X29001377Y-39683812D01*
X29233537Y-39452057D01*
X29359336Y-39149099D01*
X29359622Y-38821061D01*
X29234352Y-38517883D01*
X29002597Y-38285723D01*
X28699639Y-38159924D01*
X28371601Y-38159638D01*
X28335296Y-38174638D01*
X28554964Y-37954970D01*
X28554967Y-37954968D01*
X28554968Y-37954968D01*
X28620200Y-37857340D01*
X28663788Y-37792108D01*
X28663788Y-37792107D01*
X28702000Y-37600000D01*
X28702000Y-36307936D01*
X29442936Y-35567000D01*
X29448034Y-35567000D01*
X29409580Y-35659838D01*
X29409580Y-35809022D01*
X29409580Y-36615170D01*
X29503330Y-36708920D01*
X31009260Y-36708920D01*
X31009260Y-36688920D01*
X31059260Y-36688920D01*
X31059260Y-36708920D01*
X32565190Y-36708920D01*
X32658940Y-36615170D01*
X32658940Y-35809022D01*
X32658940Y-35659838D01*
X32620485Y-35567000D01*
X34893000Y-35567000D01*
X34893000Y-35901592D01*
X34950090Y-36039420D01*
X35055579Y-36144910D01*
X35193408Y-36202000D01*
X35342592Y-36202000D01*
X37374592Y-36202000D01*
X37512420Y-36144910D01*
X37617910Y-36039421D01*
X37675000Y-35901592D01*
X37675000Y-35752408D01*
X37675000Y-34228408D01*
X37617910Y-34090580D01*
X37512421Y-33985090D01*
X37374592Y-33928000D01*
X37225408Y-33928000D01*
X35193408Y-33928000D01*
X35055580Y-33985090D01*
X34950090Y-34090579D01*
X34893000Y-34228408D01*
X34893000Y-34377592D01*
X34893000Y-34563000D01*
X32281501Y-34563000D01*
X32281501Y-30844092D01*
X32281501Y-30570750D01*
X32281501Y-30333250D01*
X32281501Y-30059908D01*
X32224411Y-29922080D01*
X32118922Y-29816590D01*
X31981093Y-29759500D01*
X31831909Y-29759500D01*
X31453751Y-29759500D01*
X31360001Y-29853250D01*
X31360001Y-30427000D01*
X32187751Y-30427000D01*
X32281501Y-30333250D01*
X32281501Y-30570750D01*
X32187751Y-30477000D01*
X31360001Y-30477000D01*
X31360001Y-31050750D01*
X31453751Y-31144500D01*
X31831909Y-31144500D01*
X31981093Y-31144500D01*
X32118922Y-31087410D01*
X32224411Y-30981920D01*
X32281501Y-30844092D01*
X32281501Y-34563000D01*
X31310001Y-34563000D01*
X31310001Y-31050750D01*
X31310001Y-30477000D01*
X31310001Y-30427000D01*
X31310001Y-29853250D01*
X31216251Y-29759500D01*
X30838093Y-29759500D01*
X30688909Y-29759500D01*
X30551080Y-29816590D01*
X30445591Y-29922080D01*
X30388501Y-30059908D01*
X30388501Y-30333250D01*
X30482251Y-30427000D01*
X31310001Y-30427000D01*
X31310001Y-30477000D01*
X30482251Y-30477000D01*
X30388501Y-30570750D01*
X30388501Y-30844092D01*
X30445591Y-30981920D01*
X30551080Y-31087410D01*
X30688909Y-31144500D01*
X30838093Y-31144500D01*
X31216251Y-31144500D01*
X31310001Y-31050750D01*
X31310001Y-34563000D01*
X29235005Y-34563000D01*
X29235000Y-34562999D01*
X29042892Y-34601212D01*
X28880032Y-34710032D01*
X28479737Y-35110327D01*
X28479737Y-31422405D01*
X28316651Y-31027707D01*
X28014934Y-30725463D01*
X27620520Y-30561688D01*
X27193455Y-30561315D01*
X26798757Y-30724401D01*
X26496513Y-31026118D01*
X26332738Y-31420532D01*
X26332365Y-31847597D01*
X26495451Y-32242295D01*
X26797168Y-32544539D01*
X27191582Y-32708314D01*
X27618647Y-32708687D01*
X28013345Y-32545601D01*
X28315589Y-32243884D01*
X28479364Y-31849470D01*
X28479737Y-31422405D01*
X28479737Y-35110327D01*
X27845032Y-35745032D01*
X27736212Y-35907893D01*
X27697999Y-36100000D01*
X27698000Y-36100005D01*
X27698000Y-37392064D01*
X27159840Y-37930224D01*
X27159840Y-37808002D01*
X27159840Y-37658818D01*
X27159840Y-36852670D01*
X27159840Y-36615170D01*
X27159840Y-35809022D01*
X27159840Y-35659838D01*
X27102750Y-35522009D01*
X26997260Y-35416520D01*
X26972829Y-35406400D01*
X26972829Y-33356460D01*
X26915738Y-33218631D01*
X26810249Y-33113142D01*
X26453048Y-32755942D01*
X26320466Y-32755942D01*
X26285110Y-32791297D01*
X26285110Y-32720586D01*
X26285110Y-32588004D01*
X25927910Y-32230803D01*
X25822421Y-32125314D01*
X25684592Y-32068223D01*
X25535407Y-32068224D01*
X25397579Y-32125314D01*
X24934890Y-32588004D01*
X24934890Y-32720586D01*
X25610000Y-33395697D01*
X26285110Y-32720586D01*
X26285110Y-32791297D01*
X25645355Y-33431052D01*
X26320466Y-34106162D01*
X26453048Y-34106162D01*
X26915738Y-33643473D01*
X26972828Y-33505645D01*
X26972829Y-33356460D01*
X26972829Y-35406400D01*
X26859432Y-35359430D01*
X26285110Y-35359430D01*
X26285110Y-34274100D01*
X26285110Y-34141518D01*
X25610000Y-33466407D01*
X24934890Y-34141518D01*
X24934890Y-34274100D01*
X25292090Y-34631301D01*
X25397579Y-34736790D01*
X25535408Y-34793881D01*
X25684593Y-34793880D01*
X25822421Y-34736790D01*
X26285110Y-34274100D01*
X26285110Y-35359430D01*
X25653910Y-35359430D01*
X25560160Y-35453180D01*
X25560160Y-36708920D01*
X27066090Y-36708920D01*
X27159840Y-36615170D01*
X27159840Y-36852670D01*
X27066090Y-36758920D01*
X25560160Y-36758920D01*
X25560160Y-38014660D01*
X25653910Y-38108410D01*
X26859432Y-38108410D01*
X26997260Y-38051320D01*
X27102750Y-37945831D01*
X27159840Y-37808002D01*
X27159840Y-37930224D01*
X26873832Y-38216232D01*
X26765012Y-38379093D01*
X26726799Y-38571200D01*
X26726800Y-38571205D01*
X26726800Y-44259590D01*
X25653910Y-44259590D01*
X25560160Y-44353340D01*
X25560160Y-45609080D01*
X25580160Y-45609080D01*
X25580160Y-45659080D01*
X25560160Y-45659080D01*
X25560160Y-46914820D01*
X25653910Y-47008570D01*
X26500294Y-47008570D01*
X26200232Y-47308632D01*
X26091412Y-47471493D01*
X26053199Y-47663600D01*
X26053200Y-47663605D01*
X26053200Y-48198620D01*
X25580178Y-48198620D01*
X25442350Y-48255710D01*
X25336860Y-48361199D01*
X25279770Y-48499028D01*
X25279770Y-48648212D01*
X25279770Y-51797812D01*
X25336860Y-51935640D01*
X25442349Y-52041130D01*
X25580178Y-52098220D01*
X25729362Y-52098220D01*
X27530222Y-52098220D01*
X27668050Y-52041130D01*
X27773540Y-51935641D01*
X27830630Y-51797812D01*
X27830630Y-51648628D01*
X27830630Y-50650420D01*
X31593684Y-50650420D01*
X35091400Y-54148136D01*
X35091400Y-55919792D01*
X35148490Y-56057620D01*
X35253979Y-56163110D01*
X35391808Y-56220200D01*
X35540992Y-56220200D01*
X35896066Y-56220200D01*
X35207701Y-56908565D01*
X35102773Y-56803637D01*
X35046210Y-56667080D01*
X34940721Y-56561590D01*
X34804162Y-56505026D01*
X34435533Y-56136397D01*
X34514310Y-56057621D01*
X34571400Y-55919792D01*
X34571400Y-55770608D01*
X34571400Y-53738608D01*
X34514310Y-53600780D01*
X34408821Y-53495290D01*
X34270992Y-53438200D01*
X34121808Y-53438200D01*
X33105808Y-53438200D01*
X32967980Y-53495290D01*
X32862490Y-53600779D01*
X32805400Y-53738608D01*
X32805400Y-53887792D01*
X32805400Y-55919792D01*
X32862490Y-56057620D01*
X32967979Y-56163110D01*
X33105808Y-56220200D01*
X33186400Y-56220200D01*
X33186400Y-56504500D01*
X33053508Y-56504500D01*
X32915680Y-56561590D01*
X32810190Y-56667079D01*
X32753100Y-56804908D01*
X32753100Y-56954092D01*
X32753100Y-58757492D01*
X32810190Y-58895320D01*
X32915679Y-59000810D01*
X33053508Y-59057900D01*
X33202692Y-59057900D01*
X34802892Y-59057900D01*
X34940720Y-59000810D01*
X35046210Y-58895321D01*
X35103300Y-58757492D01*
X35103300Y-58608308D01*
X35103300Y-57978400D01*
X35349796Y-57978400D01*
X35349802Y-57978401D01*
X35349802Y-57978400D01*
X35541909Y-57940188D01*
X35704770Y-57831368D01*
X37114369Y-56421769D01*
X37223189Y-56258908D01*
X37261401Y-56066801D01*
X37261402Y-56066801D01*
X37261401Y-56066795D01*
X37261401Y-55129272D01*
X37655420Y-54735253D01*
X37655420Y-55021072D01*
X37712510Y-55158900D01*
X37817999Y-55264390D01*
X37955828Y-55321480D01*
X38105012Y-55321480D01*
X38310450Y-55321480D01*
X38404200Y-55227730D01*
X38404200Y-54572700D01*
X38384200Y-54572700D01*
X38384200Y-54522700D01*
X38404200Y-54522700D01*
X38404200Y-54502700D01*
X38454200Y-54502700D01*
X38454200Y-54522700D01*
X39109230Y-54522700D01*
X39202980Y-54428950D01*
X39202980Y-54286499D01*
X40297095Y-54286499D01*
X40297101Y-54286500D01*
X40297101Y-54286499D01*
X40489208Y-54248287D01*
X40652069Y-54139467D01*
X41292530Y-53499004D01*
X41564293Y-53499242D01*
X41865603Y-53374743D01*
X42096333Y-53144416D01*
X42221357Y-52843324D01*
X42221642Y-52517307D01*
X42221642Y-54013747D01*
X42173587Y-53995209D01*
X41941105Y-54060516D01*
X41533855Y-54320900D01*
X41257250Y-54717311D01*
X41153400Y-55189400D01*
X41153400Y-55341800D01*
X42367000Y-55341800D01*
X42367000Y-55391800D01*
X41153400Y-55391800D01*
X41153400Y-55544200D01*
X41257250Y-56016289D01*
X41533855Y-56412700D01*
X41941105Y-56673084D01*
X42173587Y-56738391D01*
X42367000Y-56663777D01*
X42367000Y-60485000D01*
X39202980Y-60485000D01*
X39202980Y-55021072D01*
X39202980Y-54666450D01*
X39109230Y-54572700D01*
X38454200Y-54572700D01*
X38454200Y-55227730D01*
X38547950Y-55321480D01*
X38753388Y-55321480D01*
X38902572Y-55321480D01*
X39040401Y-55264390D01*
X39145890Y-55158900D01*
X39202980Y-55021072D01*
X39202980Y-60485000D01*
X32309300Y-60485000D01*
X32309300Y-58757492D01*
X32309300Y-58608308D01*
X32309300Y-57899950D01*
X32309300Y-57662450D01*
X32309300Y-56954092D01*
X32309300Y-56804908D01*
X32285400Y-56747207D01*
X32285400Y-55919792D01*
X32285400Y-55770608D01*
X32285400Y-54947950D01*
X32285400Y-54710450D01*
X32285400Y-53887792D01*
X32285400Y-53738608D01*
X32228310Y-53600779D01*
X32122820Y-53495290D01*
X31984992Y-53438200D01*
X31521150Y-53438200D01*
X31427400Y-53531950D01*
X31427400Y-54804200D01*
X32191650Y-54804200D01*
X32285400Y-54710450D01*
X32285400Y-54947950D01*
X32191650Y-54854200D01*
X31427400Y-54854200D01*
X31427400Y-56126450D01*
X31521150Y-56220200D01*
X31984992Y-56220200D01*
X32122820Y-56163110D01*
X32228310Y-56057621D01*
X32285400Y-55919792D01*
X32285400Y-56747207D01*
X32252210Y-56667079D01*
X32146720Y-56561590D01*
X32008892Y-56504500D01*
X31377400Y-56504500D01*
X31377400Y-56126450D01*
X31377400Y-54854200D01*
X31377400Y-54804200D01*
X31377400Y-53531950D01*
X31283650Y-53438200D01*
X30819808Y-53438200D01*
X30681980Y-53495290D01*
X30576490Y-53600779D01*
X30519400Y-53738608D01*
X30519400Y-53887792D01*
X30519400Y-54710450D01*
X30613150Y-54804200D01*
X31377400Y-54804200D01*
X31377400Y-54854200D01*
X30613150Y-54854200D01*
X30519400Y-54947950D01*
X30519400Y-55770608D01*
X30519400Y-55919792D01*
X30576490Y-56057621D01*
X30681980Y-56163110D01*
X30819808Y-56220200D01*
X31283650Y-56220200D01*
X31377400Y-56126450D01*
X31377400Y-56504500D01*
X31252950Y-56504500D01*
X31159200Y-56598250D01*
X31159200Y-57756200D01*
X32215550Y-57756200D01*
X32309300Y-57662450D01*
X32309300Y-57899950D01*
X32215550Y-57806200D01*
X31159200Y-57806200D01*
X31159200Y-58964150D01*
X31252950Y-59057900D01*
X32008892Y-59057900D01*
X32146720Y-59000810D01*
X32252210Y-58895321D01*
X32309300Y-58757492D01*
X32309300Y-60485000D01*
X31109200Y-60485000D01*
X31109200Y-58964150D01*
X31109200Y-57806200D01*
X31109200Y-57756200D01*
X31109200Y-56598250D01*
X31015450Y-56504500D01*
X30259508Y-56504500D01*
X30121680Y-56561590D01*
X30016190Y-56667079D01*
X29959100Y-56804908D01*
X29959100Y-56954092D01*
X29959100Y-57662450D01*
X30052850Y-57756200D01*
X31109200Y-57756200D01*
X31109200Y-57806200D01*
X30052850Y-57806200D01*
X29959100Y-57899950D01*
X29959100Y-58608308D01*
X29959100Y-58757492D01*
X30016190Y-58895321D01*
X30121680Y-59000810D01*
X30259508Y-59057900D01*
X31015450Y-59057900D01*
X31109200Y-58964150D01*
X31109200Y-60485000D01*
X28136751Y-60485000D01*
X27830630Y-60178878D01*
X27830630Y-56049772D01*
X27830630Y-54519130D01*
X27830630Y-54281630D01*
X27830630Y-52750988D01*
X27773540Y-52613160D01*
X27668051Y-52507670D01*
X27530222Y-52450580D01*
X27381038Y-52450580D01*
X26673950Y-52450580D01*
X26580200Y-52544330D01*
X26580200Y-54375380D01*
X27736880Y-54375380D01*
X27830630Y-54281630D01*
X27830630Y-54519130D01*
X27736880Y-54425380D01*
X26580200Y-54425380D01*
X26580200Y-56256430D01*
X26673950Y-56350180D01*
X27381038Y-56350180D01*
X27530222Y-56350180D01*
X27668051Y-56293090D01*
X27773540Y-56187600D01*
X27830630Y-56049772D01*
X27830630Y-60178878D01*
X26530200Y-58878448D01*
X26530200Y-56256430D01*
X26530200Y-54425380D01*
X26530200Y-54375380D01*
X26530200Y-52544330D01*
X26436450Y-52450580D01*
X25729362Y-52450580D01*
X25580178Y-52450580D01*
X25442349Y-52507670D01*
X25336860Y-52613160D01*
X25279770Y-52750988D01*
X25279770Y-54281630D01*
X25373520Y-54375380D01*
X26530200Y-54375380D01*
X26530200Y-54425380D01*
X25373520Y-54425380D01*
X25279770Y-54519130D01*
X25279770Y-56049772D01*
X25336860Y-56187600D01*
X25442349Y-56293090D01*
X25580178Y-56350180D01*
X25729362Y-56350180D01*
X26436450Y-56350180D01*
X26530200Y-56256430D01*
X26530200Y-58878448D01*
X24605000Y-56953248D01*
X24605000Y-47008570D01*
X25416410Y-47008570D01*
X25510160Y-46914820D01*
X25510160Y-45659080D01*
X25490160Y-45659080D01*
X25490160Y-45609080D01*
X25510160Y-45609080D01*
X25510160Y-44353340D01*
X25416410Y-44259590D01*
X24605000Y-44259590D01*
X24605000Y-38108410D01*
X25416410Y-38108410D01*
X25510160Y-38014660D01*
X25510160Y-36758920D01*
X25490160Y-36758920D01*
X25490160Y-36708920D01*
X25510160Y-36708920D01*
X25510160Y-35453180D01*
X25416410Y-35359430D01*
X24605000Y-35359430D01*
X24605000Y-33944210D01*
X24766952Y-34106162D01*
X24899534Y-34106162D01*
X25574645Y-33431052D01*
X24899534Y-32755942D01*
X24766952Y-32755942D01*
X24605000Y-32917893D01*
X24605000Y-30217778D01*
X24699400Y-30446244D01*
X25001117Y-30748488D01*
X25395531Y-30912263D01*
X25822596Y-30912636D01*
X26217294Y-30749550D01*
X26519538Y-30447833D01*
X26683313Y-30053419D01*
X26683686Y-29626354D01*
X26639491Y-29519394D01*
X26728885Y-29430000D01*
X30434026Y-29430000D01*
X30445591Y-29457920D01*
X30551080Y-29563410D01*
X30688909Y-29620500D01*
X30838093Y-29620500D01*
X31981093Y-29620500D01*
X32118921Y-29563410D01*
X32224411Y-29457921D01*
X32281501Y-29320092D01*
X32281501Y-29170908D01*
X32281501Y-28535908D01*
X32224411Y-28398080D01*
X32118922Y-28292590D01*
X31981093Y-28235500D01*
X31831909Y-28235500D01*
X30688909Y-28235500D01*
X30551081Y-28292590D01*
X30445591Y-28398079D01*
X30434025Y-28426000D01*
X28802251Y-28426000D01*
X28802251Y-24354000D01*
X28707968Y-23880008D01*
X28439473Y-23478178D01*
X28037643Y-23209683D01*
X27563651Y-23115400D01*
X27204349Y-23115400D01*
X26730357Y-23209683D01*
X26328527Y-23478178D01*
X26060032Y-23880008D01*
X25965749Y-24354000D01*
X26060032Y-24827992D01*
X26328527Y-25229822D01*
X26730357Y-25498317D01*
X27204349Y-25592600D01*
X27563651Y-25592600D01*
X28037643Y-25498317D01*
X28439473Y-25229822D01*
X28707968Y-24827992D01*
X28802251Y-24354000D01*
X28802251Y-28426000D01*
X28755591Y-28426000D01*
X28755591Y-27112413D01*
X28755591Y-26675587D01*
X28690284Y-26443105D01*
X28429900Y-26035855D01*
X28033489Y-25759250D01*
X27561400Y-25655400D01*
X27409000Y-25655400D01*
X27409000Y-26869000D01*
X28680977Y-26869000D01*
X28755591Y-26675587D01*
X28755591Y-27112413D01*
X28680977Y-26919000D01*
X27409000Y-26919000D01*
X27409000Y-28132600D01*
X27561400Y-28132600D01*
X28033489Y-28028750D01*
X28429900Y-27752145D01*
X28690284Y-27344895D01*
X28755591Y-27112413D01*
X28755591Y-28426000D01*
X27359000Y-28426000D01*
X27359000Y-28132600D01*
X27359000Y-26919000D01*
X27359000Y-26869000D01*
X27359000Y-25655400D01*
X27206600Y-25655400D01*
X26734511Y-25759250D01*
X26338100Y-26035855D01*
X26077716Y-26443105D01*
X26012409Y-26675587D01*
X26087023Y-26869000D01*
X27359000Y-26869000D01*
X27359000Y-26919000D01*
X26087023Y-26919000D01*
X26012409Y-27112413D01*
X26077716Y-27344895D01*
X26338100Y-27752145D01*
X26734511Y-28028750D01*
X27206600Y-28132600D01*
X27359000Y-28132600D01*
X27359000Y-28426000D01*
X26520955Y-28426000D01*
X26520950Y-28425999D01*
X26328843Y-28464212D01*
X26165982Y-28573032D01*
X26165979Y-28573035D01*
X25929687Y-28809327D01*
X25824469Y-28765637D01*
X25397404Y-28765264D01*
X25002706Y-28928350D01*
X24700462Y-29230067D01*
X24605000Y-29459965D01*
X24605000Y-16706751D01*
X25512000Y-15799751D01*
X25512000Y-18456394D01*
X25511999Y-18456400D01*
X25550212Y-18648507D01*
X25659032Y-18811368D01*
X25993000Y-19145336D01*
X25993000Y-20212192D01*
X26050090Y-20350020D01*
X26155579Y-20455510D01*
X26293408Y-20512600D01*
X26442592Y-20512600D01*
X28435390Y-20512600D01*
X28435390Y-20935449D01*
X28037643Y-20669683D01*
X27563651Y-20575400D01*
X27204349Y-20575400D01*
X26730357Y-20669683D01*
X26328527Y-20938178D01*
X26060032Y-21340008D01*
X25965749Y-21814000D01*
X26060032Y-22287992D01*
X26328527Y-22689822D01*
X26730357Y-22958317D01*
X27204349Y-23052600D01*
X27563651Y-23052600D01*
X28037643Y-22958317D01*
X28435390Y-22692550D01*
X28435390Y-23043390D01*
X28469644Y-23215598D01*
X28567192Y-23361588D01*
X36507802Y-31302198D01*
X36653792Y-31399746D01*
X36826000Y-31434000D01*
X36837500Y-31434000D01*
X36837500Y-32038092D01*
X36894590Y-32175920D01*
X37000079Y-32281410D01*
X37137908Y-32338500D01*
X37287092Y-32338500D01*
X38430092Y-32338500D01*
X38567920Y-32281410D01*
X38673410Y-32175921D01*
X38684975Y-32148000D01*
X45537500Y-32148000D01*
X45537500Y-32514092D01*
X45594590Y-32651920D01*
X45700079Y-32757410D01*
X45837908Y-32814500D01*
X45987092Y-32814500D01*
X46006067Y-32814500D01*
X46020212Y-32885607D01*
X46065576Y-32953500D01*
X45987092Y-32953500D01*
X45837908Y-32953500D01*
X45700079Y-33010590D01*
X45594590Y-33116080D01*
X45537500Y-33253908D01*
X45537500Y-33527250D01*
X45631250Y-33621000D01*
X46459000Y-33621000D01*
X46459000Y-33601000D01*
X46509000Y-33601000D01*
X46509000Y-33621000D01*
X47336750Y-33621000D01*
X47430500Y-33527250D01*
X47430500Y-33337720D01*
X48714500Y-33337720D01*
X48714500Y-33361102D01*
X48809018Y-33361102D01*
X48781643Y-33386480D01*
X48327036Y-33386480D01*
X48154829Y-33420733D01*
X48008838Y-33518282D01*
X47597640Y-33929479D01*
X47430500Y-33929479D01*
X47430500Y-33764750D01*
X47336750Y-33671000D01*
X46509000Y-33671000D01*
X46509000Y-33691000D01*
X46459000Y-33691000D01*
X46459000Y-33671000D01*
X45631250Y-33671000D01*
X45537500Y-33764750D01*
X45537500Y-33929480D01*
X44371963Y-33929481D01*
X44199755Y-33963735D01*
X44053765Y-34061283D01*
X41834558Y-36280489D01*
X41354369Y-36280490D01*
X41182161Y-36314744D01*
X41036172Y-36412292D01*
X39790442Y-37658022D01*
X39692894Y-37804012D01*
X39658640Y-37976220D01*
X39658640Y-40419169D01*
X39600230Y-40477579D01*
X39543140Y-40615408D01*
X39543140Y-40764592D01*
X39543140Y-42034592D01*
X39600230Y-42172420D01*
X39705719Y-42277910D01*
X39843548Y-42335000D01*
X39992732Y-42335000D01*
X40373732Y-42335000D01*
X40433759Y-42310135D01*
X40493788Y-42335000D01*
X40642972Y-42335000D01*
X41023972Y-42335000D01*
X41083999Y-42310135D01*
X41144028Y-42335000D01*
X41293212Y-42335000D01*
X41674212Y-42335000D01*
X41734239Y-42310135D01*
X41794268Y-42335000D01*
X41943452Y-42335000D01*
X42324452Y-42335000D01*
X42462280Y-42277910D01*
X42567770Y-42172421D01*
X42624860Y-42034592D01*
X42624860Y-41972795D01*
X42837500Y-42185435D01*
X42837500Y-42533990D01*
X36320426Y-42533990D01*
X33852138Y-40065702D01*
X33706148Y-39968154D01*
X33568242Y-39940723D01*
X33571168Y-39938768D01*
X34640936Y-38869000D01*
X34893000Y-38869000D01*
X34893000Y-39203592D01*
X34950090Y-39341420D01*
X35055579Y-39446910D01*
X35193408Y-39504000D01*
X35342592Y-39504000D01*
X37374592Y-39504000D01*
X37512420Y-39446910D01*
X37617910Y-39341421D01*
X37675000Y-39203592D01*
X37675000Y-39054408D01*
X37675000Y-37530408D01*
X37617910Y-37392580D01*
X37512421Y-37287090D01*
X37374592Y-37230000D01*
X37225408Y-37230000D01*
X35193408Y-37230000D01*
X35055580Y-37287090D01*
X34950090Y-37392579D01*
X34893000Y-37530408D01*
X34893000Y-37679592D01*
X34893000Y-37865000D01*
X34433005Y-37865000D01*
X34433000Y-37864999D01*
X34240892Y-37903212D01*
X34078032Y-38012032D01*
X33008264Y-39081800D01*
X32658940Y-39081800D01*
X32658940Y-37808002D01*
X32658940Y-37658818D01*
X32658940Y-36852670D01*
X32565190Y-36758920D01*
X31059260Y-36758920D01*
X31059260Y-38014660D01*
X31153010Y-38108410D01*
X32358532Y-38108410D01*
X32496360Y-38051320D01*
X32601850Y-37945831D01*
X32658940Y-37808002D01*
X32658940Y-39081800D01*
X32562460Y-39081800D01*
X32496361Y-39015700D01*
X32358532Y-38958610D01*
X32209348Y-38958610D01*
X31009260Y-38958610D01*
X31009260Y-38014660D01*
X31009260Y-36758920D01*
X29503330Y-36758920D01*
X29409580Y-36852670D01*
X29409580Y-37658818D01*
X29409580Y-37808002D01*
X29466670Y-37945831D01*
X29572160Y-38051320D01*
X29709988Y-38108410D01*
X30915510Y-38108410D01*
X31009260Y-38014660D01*
X31009260Y-38958610D01*
X29908108Y-38958610D01*
X29770280Y-39015700D01*
X29664790Y-39121189D01*
X29607700Y-39259018D01*
X29607700Y-39408202D01*
X29607700Y-39908582D01*
X29638876Y-39983849D01*
X29607700Y-40059118D01*
X29607700Y-40208302D01*
X29607700Y-40708682D01*
X29638876Y-40783949D01*
X29607700Y-40859218D01*
X29607700Y-41008402D01*
X29607700Y-41508782D01*
X29638876Y-41584049D01*
X29607700Y-41659318D01*
X29607700Y-41808502D01*
X29607700Y-42308882D01*
X29638876Y-42384149D01*
X29607700Y-42459418D01*
X29607700Y-42608602D01*
X29607700Y-42665450D01*
X29701450Y-42759200D01*
X31108320Y-42759200D01*
X31108320Y-42739200D01*
X31158320Y-42739200D01*
X31158320Y-42759200D01*
X32565190Y-42759200D01*
X32658940Y-42665450D01*
X32658940Y-42608602D01*
X32658940Y-42459418D01*
X32627763Y-42384150D01*
X32658940Y-42308882D01*
X32658940Y-42159698D01*
X32658940Y-41659318D01*
X32648452Y-41634000D01*
X33697604Y-41634000D01*
X35665801Y-43602197D01*
X35811791Y-43699745D01*
X35811792Y-43699745D01*
X35983999Y-43733999D01*
X42837500Y-43733999D01*
X42837500Y-43827250D01*
X42931250Y-43921000D01*
X43759000Y-43921000D01*
X43759000Y-43901000D01*
X43809000Y-43901000D01*
X43809000Y-43921000D01*
X44636750Y-43921000D01*
X44730500Y-43827250D01*
X44730500Y-43733999D01*
X52820345Y-43733999D01*
X49177344Y-47377000D01*
X49170813Y-47377000D01*
X48978816Y-47184667D01*
X48677724Y-47059643D01*
X48351707Y-47059358D01*
X48050397Y-47183857D01*
X47819667Y-47414184D01*
X47694643Y-47715276D01*
X47694358Y-48041293D01*
X47818857Y-48342603D01*
X48049184Y-48573333D01*
X48350276Y-48698357D01*
X48676293Y-48698642D01*
X48977603Y-48574143D01*
X49171083Y-48381000D01*
X49385274Y-48381000D01*
X49385280Y-48381001D01*
X49385280Y-48381000D01*
X49577387Y-48342788D01*
X49740248Y-48233968D01*
X54120000Y-43854215D01*
X54120000Y-45183025D01*
X54092080Y-45194590D01*
X53986590Y-45300079D01*
X53929500Y-45437908D01*
X53929500Y-45587092D01*
X53929500Y-46730092D01*
X53986590Y-46867920D01*
X54092079Y-46973410D01*
X54229908Y-47030500D01*
X54379092Y-47030500D01*
X54682160Y-47030500D01*
X54682160Y-47600504D01*
X53073153Y-49209510D01*
X47760858Y-49209510D01*
X47623030Y-49266600D01*
X47517540Y-49372089D01*
X47460450Y-49509918D01*
X47460450Y-49659102D01*
X47460450Y-51658082D01*
X47517540Y-51795910D01*
X47623029Y-51901400D01*
X47760858Y-51958490D01*
X47910042Y-51958490D01*
X53034550Y-51958490D01*
X53034550Y-52172054D01*
X52603802Y-52602802D01*
X52506254Y-52748792D01*
X52472000Y-52921000D01*
X52472000Y-53561486D01*
X52392080Y-53594590D01*
X52286590Y-53700079D01*
X52229500Y-53837908D01*
X52229500Y-53987092D01*
X52229500Y-55130092D01*
X52286590Y-55267920D01*
X52392079Y-55373410D01*
X52529908Y-55430500D01*
X52679092Y-55430500D01*
X53314092Y-55430500D01*
X53451920Y-55373410D01*
X53557410Y-55267921D01*
X53614500Y-55130092D01*
X53614500Y-54980908D01*
X53614500Y-53837908D01*
X53557410Y-53700080D01*
X53451921Y-53594590D01*
X53372000Y-53561486D01*
X53372000Y-53107396D01*
X53802748Y-52676648D01*
X53900296Y-52530658D01*
X53900296Y-52530657D01*
X53934550Y-52358450D01*
X53934550Y-51733490D01*
X53900296Y-51561282D01*
X53802748Y-51415292D01*
X53709550Y-51322094D01*
X53709550Y-49845906D01*
X55290035Y-48265420D01*
X55314342Y-48301798D01*
X56858450Y-49845906D01*
X56858450Y-51322094D01*
X56765252Y-51415292D01*
X56667704Y-51561282D01*
X56633450Y-51733490D01*
X56633450Y-51958450D01*
X56633450Y-52558450D01*
X56667704Y-52730658D01*
X56765252Y-52876648D01*
X57096000Y-53207396D01*
X57096000Y-53561486D01*
X57016080Y-53594590D01*
X56910590Y-53700079D01*
X56853500Y-53837908D01*
X56853500Y-53987092D01*
X56853500Y-55130092D01*
X56910590Y-55267920D01*
X57016079Y-55373410D01*
X57153908Y-55430500D01*
X57303092Y-55430500D01*
X57938092Y-55430500D01*
X58075920Y-55373410D01*
X58181410Y-55267921D01*
X58238500Y-55130092D01*
X58238500Y-54980908D01*
X58238500Y-53837908D01*
X58181410Y-53700080D01*
X58075921Y-53594590D01*
X57996000Y-53561486D01*
X57996000Y-53021000D01*
X57961746Y-52848792D01*
X57864198Y-52702802D01*
X57533450Y-52372054D01*
X57533450Y-51958490D01*
X62807142Y-51958490D01*
X62944970Y-51901400D01*
X63050460Y-51795911D01*
X63107550Y-51658082D01*
X63107550Y-51508898D01*
X63107550Y-49509918D01*
X63050460Y-49372090D01*
X62944971Y-49266600D01*
X62807142Y-49209510D01*
X62657958Y-49209510D01*
X57494846Y-49209510D01*
X56838500Y-48553164D01*
X56838500Y-46730092D01*
X56838500Y-46580908D01*
X56838500Y-46202750D01*
X56838500Y-45965250D01*
X56838500Y-45587092D01*
X56838500Y-45437908D01*
X56781410Y-45300079D01*
X56675920Y-45194590D01*
X56538092Y-45137500D01*
X56264750Y-45137500D01*
X56171000Y-45231250D01*
X56171000Y-46059000D01*
X56744750Y-46059000D01*
X56838500Y-45965250D01*
X56838500Y-46202750D01*
X56744750Y-46109000D01*
X56171000Y-46109000D01*
X56171000Y-46936750D01*
X56264750Y-47030500D01*
X56538092Y-47030500D01*
X56675920Y-46973410D01*
X56781410Y-46867921D01*
X56838500Y-46730092D01*
X56838500Y-48553164D01*
X56082540Y-47797204D01*
X56082540Y-46975210D01*
X56121000Y-46936750D01*
X56121000Y-46109000D01*
X56101000Y-46109000D01*
X56101000Y-46059000D01*
X56121000Y-46059000D01*
X56121000Y-45231250D01*
X56082540Y-45192790D01*
X56082540Y-42686356D01*
X56107920Y-42658979D01*
X56107920Y-42397373D01*
X56132000Y-42276315D01*
X56132000Y-40956685D01*
X56107920Y-40835626D01*
X56107920Y-40574021D01*
X56030193Y-40490178D01*
X55964882Y-40507952D01*
X55900408Y-40546515D01*
X55823675Y-40495244D01*
X55632540Y-40457225D01*
X55441405Y-40495244D01*
X55382350Y-40534703D01*
X55323295Y-40495244D01*
X55132160Y-40457225D01*
X55106304Y-40462368D01*
X55095568Y-40408393D01*
X55095568Y-40408392D01*
X55051980Y-40343159D01*
X54986748Y-40245532D01*
X54986744Y-40245529D01*
X54917280Y-40176064D01*
X54917280Y-36515280D01*
X54917280Y-35960655D01*
X56291935Y-34586000D01*
X56826170Y-34586000D01*
X56634971Y-34777198D01*
X56621379Y-34771554D01*
X56295362Y-34771269D01*
X55994052Y-34895768D01*
X55763322Y-35126095D01*
X55638298Y-35427187D01*
X55638013Y-35753204D01*
X55762512Y-36054514D01*
X55780758Y-36072792D01*
X55717317Y-36072737D01*
X55416007Y-36197236D01*
X55185277Y-36427563D01*
X55060253Y-36728655D01*
X55059968Y-37054672D01*
X55184467Y-37355982D01*
X55414794Y-37586712D01*
X55715886Y-37711736D01*
X56041903Y-37712021D01*
X56056729Y-37705894D01*
X56122534Y-37771699D01*
X56268524Y-37869247D01*
X56268525Y-37869247D01*
X56316432Y-37878776D01*
X56195123Y-38170923D01*
X56194838Y-38496940D01*
X56319337Y-38798250D01*
X56549664Y-39028980D01*
X56850756Y-39154004D01*
X57176773Y-39154289D01*
X57432923Y-39048449D01*
X56815482Y-39665891D01*
X56717934Y-39811881D01*
X56683680Y-39984089D01*
X56683680Y-40467246D01*
X56633300Y-40457225D01*
X56442165Y-40495244D01*
X56365431Y-40546515D01*
X56300958Y-40507952D01*
X56235647Y-40490178D01*
X56157920Y-40574021D01*
X56157920Y-40835626D01*
X56133840Y-40956685D01*
X56133840Y-42276315D01*
X56157920Y-42397373D01*
X56157920Y-42658979D01*
X56204729Y-42709471D01*
X56217554Y-42773946D01*
X56315102Y-42919936D01*
X57326870Y-43931704D01*
X57321226Y-43945297D01*
X57320941Y-44271314D01*
X57445440Y-44572624D01*
X57675767Y-44803354D01*
X57976859Y-44928378D01*
X58302876Y-44928663D01*
X58419757Y-44880368D01*
X58488857Y-45047603D01*
X58719184Y-45278333D01*
X59020276Y-45403357D01*
X59346293Y-45403642D01*
X59361119Y-45397515D01*
X65235800Y-51272196D01*
X65235800Y-51726792D01*
X65292890Y-51864620D01*
X65398379Y-51970110D01*
X65536208Y-52027200D01*
X65685392Y-52027200D01*
X66599792Y-52027200D01*
X66737620Y-51970110D01*
X66843110Y-51864621D01*
X66900200Y-51726792D01*
X66900200Y-51577608D01*
X66900200Y-50663208D01*
X66843110Y-50525380D01*
X66738500Y-50420769D01*
X66738500Y-48630092D01*
X66738500Y-48480908D01*
X66738500Y-48102750D01*
X66738500Y-47865250D01*
X66738500Y-47487092D01*
X66738500Y-47337908D01*
X66681410Y-47200079D01*
X66575920Y-47094590D01*
X66438092Y-47037500D01*
X66338500Y-47037500D01*
X66338500Y-42230092D01*
X66338500Y-42080908D01*
X66338500Y-41702750D01*
X66244750Y-41609000D01*
X65671000Y-41609000D01*
X65671000Y-42436750D01*
X65764750Y-42530500D01*
X66038092Y-42530500D01*
X66175920Y-42473410D01*
X66281410Y-42367921D01*
X66338500Y-42230092D01*
X66338500Y-47037500D01*
X66164750Y-47037500D01*
X66071000Y-47131250D01*
X66071000Y-47959000D01*
X66644750Y-47959000D01*
X66738500Y-47865250D01*
X66738500Y-48102750D01*
X66644750Y-48009000D01*
X66071000Y-48009000D01*
X66071000Y-48836750D01*
X66164750Y-48930500D01*
X66438092Y-48930500D01*
X66575920Y-48873410D01*
X66681410Y-48767921D01*
X66738500Y-48630092D01*
X66738500Y-50420769D01*
X66737621Y-50419890D01*
X66599792Y-50362800D01*
X66450608Y-50362800D01*
X66021000Y-50362800D01*
X66021000Y-48836750D01*
X66021000Y-48009000D01*
X66021000Y-47959000D01*
X66021000Y-47131250D01*
X65927250Y-47037500D01*
X65653908Y-47037500D01*
X65621000Y-47051130D01*
X65621000Y-42436750D01*
X65621000Y-41609000D01*
X65047250Y-41609000D01*
X64953500Y-41702750D01*
X64953500Y-42080908D01*
X64953500Y-42230092D01*
X65010590Y-42367921D01*
X65116080Y-42473410D01*
X65253908Y-42530500D01*
X65527250Y-42530500D01*
X65621000Y-42436750D01*
X65621000Y-47051130D01*
X65516080Y-47094590D01*
X65410590Y-47200079D01*
X65353500Y-47337908D01*
X65353500Y-47487092D01*
X65353500Y-47865250D01*
X65447250Y-47959000D01*
X66021000Y-47959000D01*
X66021000Y-48009000D01*
X65447250Y-48009000D01*
X65353500Y-48102750D01*
X65353500Y-48480908D01*
X65353500Y-48630092D01*
X65410590Y-48767921D01*
X65516080Y-48873410D01*
X65653908Y-48930500D01*
X65927250Y-48930500D01*
X66021000Y-48836750D01*
X66021000Y-50362800D01*
X65599196Y-50362800D01*
X64166896Y-48930500D01*
X64279092Y-48930500D01*
X64914092Y-48930500D01*
X65051920Y-48873410D01*
X65157410Y-48767921D01*
X65214500Y-48630092D01*
X65214500Y-48480908D01*
X65214500Y-47337908D01*
X65157410Y-47200080D01*
X65051921Y-47094590D01*
X64972000Y-47061486D01*
X64972000Y-46981196D01*
X64937746Y-46808989D01*
X64937746Y-46808988D01*
X64840198Y-46662998D01*
X64772000Y-46594800D01*
X64772000Y-46271300D01*
X64737746Y-46099092D01*
X64640198Y-45953102D01*
X64506746Y-45819650D01*
X64539949Y-45652731D01*
X64473315Y-45317737D01*
X64283556Y-45033744D01*
X64059449Y-44884000D01*
X64283556Y-44734256D01*
X64473315Y-44450263D01*
X64539949Y-44115269D01*
X64501681Y-43922882D01*
X64537746Y-43868908D01*
X64537747Y-43868907D01*
X64572000Y-43696700D01*
X64572000Y-42506513D01*
X64651920Y-42473410D01*
X64757410Y-42367921D01*
X64814500Y-42230092D01*
X64814500Y-42080908D01*
X64814500Y-41134000D01*
X64953500Y-41134000D01*
X64953500Y-41465250D01*
X65047250Y-41559000D01*
X65621000Y-41559000D01*
X65621000Y-41539000D01*
X65671000Y-41539000D01*
X65671000Y-41559000D01*
X66244750Y-41559000D01*
X66338500Y-41465250D01*
X66338500Y-41134000D01*
X77897604Y-41134000D01*
X80143833Y-43380229D01*
X80289823Y-43477777D01*
X80289824Y-43477777D01*
X80462031Y-43512031D01*
X93305969Y-43512031D01*
X93478176Y-43477777D01*
X93478177Y-43477777D01*
X93624167Y-43380229D01*
X98306683Y-38697712D01*
X98320276Y-38703357D01*
X98354677Y-38703387D01*
X80283063Y-56775001D01*
X78503642Y-56775001D01*
X78503642Y-47421707D01*
X78379143Y-47120397D01*
X78148816Y-46889667D01*
X77847724Y-46764643D01*
X77521707Y-46764358D01*
X77220397Y-46888857D01*
X76989667Y-47119184D01*
X76864643Y-47420276D01*
X76864358Y-47746293D01*
X76988857Y-48047603D01*
X77219184Y-48278333D01*
X77520276Y-48403357D01*
X77846293Y-48403642D01*
X78147603Y-48279143D01*
X78378333Y-48048816D01*
X78503357Y-47747724D01*
X78503642Y-47421707D01*
X78503642Y-56775001D01*
X73978840Y-56775001D01*
X74081901Y-56672120D01*
X74266989Y-56226379D01*
X74267410Y-55743738D01*
X74083101Y-55297675D01*
X73742120Y-54956099D01*
X73504000Y-54857222D01*
X73504000Y-53184000D01*
X73469746Y-53011792D01*
X73372198Y-52865802D01*
X73302198Y-52795802D01*
X73248703Y-52742307D01*
X72272198Y-51765802D01*
X72126208Y-51668254D01*
X71954000Y-51634000D01*
X68932200Y-51634000D01*
X68932200Y-51552208D01*
X68875110Y-51414380D01*
X68769621Y-51308890D01*
X68631792Y-51251800D01*
X68482608Y-51251800D01*
X67568208Y-51251800D01*
X67430380Y-51308890D01*
X67324890Y-51414379D01*
X67267800Y-51552208D01*
X67267800Y-51701392D01*
X67267800Y-52615792D01*
X67324890Y-52753620D01*
X67430379Y-52859110D01*
X67568208Y-52916200D01*
X67717392Y-52916200D01*
X68631792Y-52916200D01*
X68769620Y-52859110D01*
X68875110Y-52753621D01*
X68932200Y-52615792D01*
X68932200Y-52534000D01*
X71767604Y-52534000D01*
X72604000Y-53370396D01*
X72604000Y-54857251D01*
X72367675Y-54954899D01*
X72026099Y-55295880D01*
X71841011Y-55741621D01*
X71840590Y-56224262D01*
X72024899Y-56670325D01*
X72129392Y-56775001D01*
X71438840Y-56775001D01*
X71541901Y-56672120D01*
X71726989Y-56226379D01*
X71727410Y-55743738D01*
X71543101Y-55297675D01*
X71202120Y-54956099D01*
X70756379Y-54771011D01*
X70273738Y-54770590D01*
X69827675Y-54954899D01*
X69486099Y-55295880D01*
X69387222Y-55534000D01*
X69328607Y-55534000D01*
X69072000Y-55534000D01*
X69072000Y-54893408D01*
X69014910Y-54755580D01*
X68909421Y-54650090D01*
X68771592Y-54593000D01*
X68622408Y-54593000D01*
X67098408Y-54593000D01*
X66960580Y-54650090D01*
X66900200Y-54710469D01*
X66900200Y-53504792D01*
X66900200Y-53091750D01*
X66900200Y-52854250D01*
X66900200Y-52441208D01*
X66843110Y-52303380D01*
X66737621Y-52197890D01*
X66599792Y-52140800D01*
X66450608Y-52140800D01*
X66186750Y-52140800D01*
X66093000Y-52234550D01*
X66093000Y-52948000D01*
X66806450Y-52948000D01*
X66900200Y-52854250D01*
X66900200Y-53091750D01*
X66806450Y-52998000D01*
X66093000Y-52998000D01*
X66093000Y-53711450D01*
X66186750Y-53805200D01*
X66450608Y-53805200D01*
X66599792Y-53805200D01*
X66737621Y-53748110D01*
X66843110Y-53642620D01*
X66900200Y-53504792D01*
X66900200Y-54710469D01*
X66855090Y-54755579D01*
X66798000Y-54893408D01*
X66798000Y-55042592D01*
X66798000Y-56423064D01*
X66043000Y-55668064D01*
X66043000Y-53711450D01*
X66043000Y-52998000D01*
X66043000Y-52948000D01*
X66043000Y-52234550D01*
X65949250Y-52140800D01*
X65685392Y-52140800D01*
X65536208Y-52140800D01*
X65398379Y-52197890D01*
X65292890Y-52303380D01*
X65235800Y-52441208D01*
X65235800Y-52854250D01*
X65329550Y-52948000D01*
X66043000Y-52948000D01*
X66043000Y-52998000D01*
X65329550Y-52998000D01*
X65235800Y-53091750D01*
X65235800Y-53504792D01*
X65292890Y-53642620D01*
X65398379Y-53748110D01*
X65536208Y-53805200D01*
X65685392Y-53805200D01*
X65949250Y-53805200D01*
X66043000Y-53711450D01*
X66043000Y-55668064D01*
X66003968Y-55629032D01*
X65841107Y-55520212D01*
X65770000Y-55506067D01*
X65770000Y-54893408D01*
X65712910Y-54755580D01*
X65607421Y-54650090D01*
X65469592Y-54593000D01*
X65320408Y-54593000D01*
X63796408Y-54593000D01*
X63658580Y-54650090D01*
X63553090Y-54755579D01*
X63496000Y-54893408D01*
X63496000Y-55042592D01*
X63496000Y-55482000D01*
X56714500Y-55482000D01*
X56714500Y-55130092D01*
X56714500Y-54980908D01*
X56714500Y-54602750D01*
X56714500Y-54365250D01*
X56714500Y-53987092D01*
X56714500Y-53837908D01*
X56657410Y-53700079D01*
X56551920Y-53594590D01*
X56414092Y-53537500D01*
X56140750Y-53537500D01*
X56047000Y-53631250D01*
X56047000Y-54459000D01*
X56620750Y-54459000D01*
X56714500Y-54365250D01*
X56714500Y-54602750D01*
X56620750Y-54509000D01*
X56047000Y-54509000D01*
X56047000Y-55336750D01*
X56140750Y-55430500D01*
X56414092Y-55430500D01*
X56551920Y-55373410D01*
X56657410Y-55267921D01*
X56714500Y-55130092D01*
X56714500Y-55482000D01*
X55997000Y-55482000D01*
X55997000Y-55336750D01*
X55997000Y-54509000D01*
X55997000Y-54459000D01*
X55997000Y-53631250D01*
X55903250Y-53537500D01*
X55629908Y-53537500D01*
X55492080Y-53594590D01*
X55386590Y-53700079D01*
X55329500Y-53837908D01*
X55329500Y-53987092D01*
X55329500Y-54365250D01*
X55423250Y-54459000D01*
X55997000Y-54459000D01*
X55997000Y-54509000D01*
X55423250Y-54509000D01*
X55329500Y-54602750D01*
X55329500Y-54980908D01*
X55329500Y-55130092D01*
X55386590Y-55267921D01*
X55492080Y-55373410D01*
X55629908Y-55430500D01*
X55903250Y-55430500D01*
X55997000Y-55336750D01*
X55997000Y-55482000D01*
X55138500Y-55482000D01*
X55138500Y-55130092D01*
X55138500Y-54980908D01*
X55138500Y-54602750D01*
X55138500Y-54365250D01*
X55138500Y-53987092D01*
X55138500Y-53837908D01*
X55081410Y-53700079D01*
X54975920Y-53594590D01*
X54838092Y-53537500D01*
X54564750Y-53537500D01*
X54471000Y-53631250D01*
X54471000Y-54459000D01*
X55044750Y-54459000D01*
X55138500Y-54365250D01*
X55138500Y-54602750D01*
X55044750Y-54509000D01*
X54471000Y-54509000D01*
X54471000Y-55336750D01*
X54564750Y-55430500D01*
X54838092Y-55430500D01*
X54975920Y-55373410D01*
X55081410Y-55267921D01*
X55138500Y-55130092D01*
X55138500Y-55482000D01*
X54421000Y-55482000D01*
X54421000Y-55336750D01*
X54421000Y-54509000D01*
X54421000Y-54459000D01*
X54421000Y-53631250D01*
X54327250Y-53537500D01*
X54053908Y-53537500D01*
X53916080Y-53594590D01*
X53810590Y-53700079D01*
X53753500Y-53837908D01*
X53753500Y-53987092D01*
X53753500Y-54365250D01*
X53847250Y-54459000D01*
X54421000Y-54459000D01*
X54421000Y-54509000D01*
X53847250Y-54509000D01*
X53753500Y-54602750D01*
X53753500Y-54980908D01*
X53753500Y-55130092D01*
X53810590Y-55267921D01*
X53916080Y-55373410D01*
X54053908Y-55430500D01*
X54327250Y-55430500D01*
X54421000Y-55336750D01*
X54421000Y-55482000D01*
X51250600Y-55482000D01*
X51250600Y-54276208D01*
X51193510Y-54138380D01*
X51088021Y-54032890D01*
X50950192Y-53975800D01*
X50801008Y-53975800D01*
X49073808Y-53975800D01*
X48935980Y-54032890D01*
X48830490Y-54138379D01*
X48773400Y-54276208D01*
X48773400Y-54425392D01*
X48773400Y-56457392D01*
X48830490Y-56595220D01*
X48935979Y-56700710D01*
X49073808Y-56757800D01*
X49222992Y-56757800D01*
X50950192Y-56757800D01*
X51088020Y-56700710D01*
X51193510Y-56595221D01*
X51238750Y-56486000D01*
X63496000Y-56486000D01*
X63496000Y-57074592D01*
X63553090Y-57212420D01*
X63658579Y-57317910D01*
X63796408Y-57375000D01*
X63945592Y-57375000D01*
X65469592Y-57375000D01*
X65607420Y-57317910D01*
X65712910Y-57212421D01*
X65770000Y-57074592D01*
X65770000Y-56925408D01*
X65770000Y-56814935D01*
X66587030Y-57631965D01*
X66587033Y-57631969D01*
X66587034Y-57631969D01*
X66749894Y-57740789D01*
X66942001Y-57779002D01*
X66942001Y-57779001D01*
X66942006Y-57779001D01*
X80490993Y-57779001D01*
X80490999Y-57779002D01*
X80490999Y-57779001D01*
X80683106Y-57740789D01*
X80845967Y-57631969D01*
X99760465Y-38717469D01*
X99760468Y-38717467D01*
X99760469Y-38717467D01*
X99825701Y-38619839D01*
X99869289Y-38554607D01*
X99869289Y-38554606D01*
X99907501Y-38362499D01*
X99907501Y-37199163D01*
X99907501Y-37199158D01*
X99907502Y-37199158D01*
X99869289Y-37007051D01*
X99869289Y-37007050D01*
X99760469Y-36844190D01*
X98402312Y-35486033D01*
X98239451Y-35377213D01*
X98047344Y-35339000D01*
X98047338Y-35339001D01*
X96541197Y-35339001D01*
X96541197Y-18838829D01*
X96368464Y-18420783D01*
X96048900Y-18100660D01*
X95631155Y-17927198D01*
X95178829Y-17926803D01*
X94760783Y-18099536D01*
X94440660Y-18419100D01*
X94267198Y-18836845D01*
X94266803Y-19289171D01*
X94439536Y-19707217D01*
X94759100Y-20027340D01*
X95176845Y-20200802D01*
X95629171Y-20201197D01*
X96047217Y-20028464D01*
X96367340Y-19708900D01*
X96540802Y-19291155D01*
X96541197Y-18838829D01*
X96541197Y-35339001D01*
X94001197Y-35339001D01*
X94001197Y-18838829D01*
X93828464Y-18420783D01*
X93508900Y-18100660D01*
X93091155Y-17927198D01*
X92638829Y-17926803D01*
X92220783Y-18099536D01*
X91900660Y-18419100D01*
X91727198Y-18836845D01*
X91726803Y-19289171D01*
X91899536Y-19707217D01*
X92219100Y-20027340D01*
X92636845Y-20200802D01*
X93089171Y-20201197D01*
X93507217Y-20028464D01*
X93827340Y-19708900D01*
X94000802Y-19291155D01*
X94001197Y-18838829D01*
X94001197Y-35339001D01*
X86701001Y-35339001D01*
X86701001Y-32562001D01*
X86662789Y-32369894D01*
X86662789Y-32369893D01*
X86619201Y-32304660D01*
X86553969Y-32207033D01*
X86553965Y-32207030D01*
X86530968Y-32184032D01*
X86368107Y-32075212D01*
X86297000Y-32061067D01*
X86297000Y-31956408D01*
X86239910Y-31818580D01*
X86134421Y-31713090D01*
X85996592Y-31656000D01*
X85916000Y-31656000D01*
X85916000Y-28436405D01*
X85916000Y-28436400D01*
X85916001Y-28436400D01*
X85877788Y-28244293D01*
X85768968Y-28081433D01*
X85768968Y-28081432D01*
X85768964Y-28081429D01*
X78346568Y-20659032D01*
X78183707Y-20550212D01*
X78112600Y-20536067D01*
X78112600Y-20075808D01*
X78055510Y-19937980D01*
X77950021Y-19832490D01*
X77812192Y-19775400D01*
X77663008Y-19775400D01*
X77376000Y-19775400D01*
X77376000Y-19274005D01*
X77376000Y-19274000D01*
X77376001Y-19274000D01*
X77337788Y-19081893D01*
X77228968Y-18919032D01*
X71735344Y-13425408D01*
X106719773Y-13411525D01*
X110015000Y-16706751D01*
X110015000Y-56953248D01*
X110015000Y-56953248D01*
G37*
X110015000Y-56953248D02*
X109241197Y-57727051D01*
X109241197Y-56938829D01*
X109241197Y-18838829D01*
X109068464Y-18420783D01*
X108748900Y-18100660D01*
X108331155Y-17927198D01*
X107878829Y-17926803D01*
X107460783Y-18099536D01*
X107140660Y-18419100D01*
X106967198Y-18836845D01*
X106966803Y-19289171D01*
X107139536Y-19707217D01*
X107459100Y-20027340D01*
X107876845Y-20200802D01*
X108329171Y-20201197D01*
X108747217Y-20028464D01*
X109067340Y-19708900D01*
X109240802Y-19291155D01*
X109241197Y-18838829D01*
X109241197Y-56938829D01*
X109068464Y-56520783D01*
X108748900Y-56200660D01*
X108331155Y-56027198D01*
X107878829Y-56026803D01*
X107460783Y-56199536D01*
X107140660Y-56519100D01*
X106967198Y-56936845D01*
X106966803Y-57389171D01*
X107139536Y-57807217D01*
X107459100Y-58127340D01*
X107876845Y-58300802D01*
X108329171Y-58301197D01*
X108747217Y-58128464D01*
X109067340Y-57808900D01*
X109240802Y-57391155D01*
X109241197Y-56938829D01*
X109241197Y-57727051D01*
X106701197Y-60267051D01*
X106701197Y-56938829D01*
X106701197Y-18838829D01*
X106528464Y-18420783D01*
X106208900Y-18100660D01*
X105791155Y-17927198D01*
X105338829Y-17926803D01*
X104920783Y-18099536D01*
X104600660Y-18419100D01*
X104427198Y-18836845D01*
X104426803Y-19289171D01*
X104599536Y-19707217D01*
X104919100Y-20027340D01*
X105336845Y-20200802D01*
X105789171Y-20201197D01*
X106207217Y-20028464D01*
X106527340Y-19708900D01*
X106700802Y-19291155D01*
X106701197Y-18838829D01*
X106701197Y-56938829D01*
X106528464Y-56520783D01*
X106208900Y-56200660D01*
X105851414Y-56052219D01*
X105902198Y-56001436D01*
X105999746Y-55855446D01*
X105999747Y-55855445D01*
X106034000Y-55683238D01*
X106034000Y-47584000D01*
X105999746Y-47411793D01*
X105999746Y-47411792D01*
X105902198Y-47265802D01*
X104161197Y-45524801D01*
X104161197Y-18838829D01*
X103988464Y-18420783D01*
X103668900Y-18100660D01*
X103251155Y-17927198D01*
X102798829Y-17926803D01*
X102380783Y-18099536D01*
X102060660Y-18419100D01*
X101887198Y-18836845D01*
X101886803Y-19289171D01*
X102059536Y-19707217D01*
X102379100Y-20027340D01*
X102796845Y-20200802D01*
X103249171Y-20201197D01*
X103667217Y-20028464D01*
X103987340Y-19708900D01*
X104160802Y-19291155D01*
X104161197Y-18838829D01*
X104161197Y-45524801D01*
X101695999Y-43059603D01*
X101695999Y-19825999D01*
X101661745Y-19653791D01*
X101564197Y-19507801D01*
X101540629Y-19484233D01*
X101620802Y-19291155D01*
X101621197Y-18838829D01*
X101448464Y-18420783D01*
X101128900Y-18100660D01*
X100711155Y-17927198D01*
X100258829Y-17926803D01*
X99840783Y-18099536D01*
X99520660Y-18419100D01*
X99347198Y-18836845D01*
X99346803Y-19289171D01*
X99519536Y-19707217D01*
X99839100Y-20027340D01*
X100256845Y-20200802D01*
X100709171Y-20201197D01*
X100795999Y-20165320D01*
X100795999Y-21279603D01*
X99024197Y-19507801D01*
X99000629Y-19484233D01*
X99080802Y-19291155D01*
X99081197Y-18838829D01*
X98908464Y-18420783D01*
X98588900Y-18100660D01*
X98171155Y-17927198D01*
X97718829Y-17926803D01*
X97300783Y-18099536D01*
X96980660Y-18419100D01*
X96807198Y-18836845D01*
X96806803Y-19289171D01*
X96979536Y-19707217D01*
X97299100Y-20027340D01*
X97716845Y-20200802D01*
X98169171Y-20201197D01*
X98364211Y-20120607D01*
X98387801Y-20144197D01*
X100495989Y-22252385D01*
X100495989Y-43370267D01*
X100530243Y-43542475D01*
X100627791Y-43688465D01*
X104744039Y-47804713D01*
X104744039Y-54807565D01*
X103444233Y-56107370D01*
X103251155Y-56027198D01*
X102798829Y-56026803D01*
X102380783Y-56199536D01*
X102060660Y-56519100D01*
X101887198Y-56936845D01*
X101886803Y-57389171D01*
X102015648Y-57701001D01*
X101657397Y-57701001D01*
X101564197Y-57607801D01*
X101540629Y-57584233D01*
X101620802Y-57391155D01*
X101621197Y-56938829D01*
X101448464Y-56520783D01*
X101128900Y-56200660D01*
X100711155Y-56027198D01*
X100258829Y-56026803D01*
X99840783Y-56199536D01*
X99520660Y-56519100D01*
X99347198Y-56936845D01*
X99346803Y-57389171D01*
X99519536Y-57807217D01*
X99839100Y-58127340D01*
X100256845Y-58300802D01*
X100709171Y-58301197D01*
X100904211Y-58220607D01*
X100927801Y-58244197D01*
X101152803Y-58469199D01*
X101298793Y-58566747D01*
X101298794Y-58566747D01*
X101471001Y-58601001D01*
X103497761Y-58601001D01*
X103669968Y-58566747D01*
X103669969Y-58566747D01*
X103815959Y-58469199D01*
X104329199Y-57955959D01*
X104426747Y-57809969D01*
X104426747Y-57809968D01*
X104461001Y-57637761D01*
X104461001Y-57471936D01*
X104599536Y-57807217D01*
X104919100Y-58127340D01*
X105336845Y-58300802D01*
X105789171Y-58301197D01*
X106207217Y-58128464D01*
X106527340Y-57808900D01*
X106700802Y-57391155D01*
X106701197Y-56938829D01*
X106701197Y-60267051D01*
X106483248Y-60485000D01*
X99081197Y-60485000D01*
X99081197Y-56938829D01*
X98908464Y-56520783D01*
X98588900Y-56200660D01*
X98171155Y-56027198D01*
X97718829Y-56026803D01*
X97300783Y-56199536D01*
X96980660Y-56519100D01*
X96807198Y-56936845D01*
X96806803Y-57389171D01*
X96979536Y-57807217D01*
X97299100Y-58127340D01*
X97716845Y-58300802D01*
X98169171Y-58301197D01*
X98587217Y-58128464D01*
X98907340Y-57808900D01*
X99080802Y-57391155D01*
X99081197Y-56938829D01*
X99081197Y-60485000D01*
X96541197Y-60485000D01*
X96541197Y-56938829D01*
X96368464Y-56520783D01*
X96048900Y-56200660D01*
X95631155Y-56027198D01*
X95178829Y-56026803D01*
X94760783Y-56199536D01*
X94440660Y-56519100D01*
X94267198Y-56936845D01*
X94266803Y-57389171D01*
X94439536Y-57807217D01*
X94759100Y-58127340D01*
X95176845Y-58300802D01*
X95629171Y-58301197D01*
X96047217Y-58128464D01*
X96367340Y-57808900D01*
X96540802Y-57391155D01*
X96541197Y-56938829D01*
X96541197Y-60485000D01*
X94001197Y-60485000D01*
X94001197Y-56938829D01*
X93828464Y-56520783D01*
X93508900Y-56200660D01*
X93091155Y-56027198D01*
X92638829Y-56026803D01*
X92220783Y-56199536D01*
X91900660Y-56519100D01*
X91727198Y-56936845D01*
X91726803Y-57389171D01*
X91899536Y-57807217D01*
X92219100Y-58127340D01*
X92636845Y-58300802D01*
X93089171Y-58301197D01*
X93507217Y-58128464D01*
X93827340Y-57808900D01*
X94000802Y-57391155D01*
X94001197Y-56938829D01*
X94001197Y-60485000D01*
X48710600Y-60485000D01*
X48710600Y-55546451D01*
X48710600Y-55187149D01*
X48616317Y-54713157D01*
X48347822Y-54311327D01*
X47945992Y-54042832D01*
X47472000Y-53948549D01*
X46998008Y-54042832D01*
X46961333Y-54067337D01*
X46776598Y-53882602D01*
X46630608Y-53785054D01*
X46500837Y-53759241D01*
X44730500Y-51988904D01*
X44730500Y-44338092D01*
X44730500Y-44064750D01*
X44636750Y-43971000D01*
X43809000Y-43971000D01*
X43809000Y-44544750D01*
X43902750Y-44638500D01*
X44280908Y-44638500D01*
X44430092Y-44638500D01*
X44567921Y-44581410D01*
X44673410Y-44475920D01*
X44730500Y-44338092D01*
X44730500Y-51988904D01*
X43759000Y-51017404D01*
X43759000Y-44544750D01*
X43759000Y-43971000D01*
X42931250Y-43971000D01*
X42837500Y-44064750D01*
X42837500Y-44338092D01*
X42894590Y-44475920D01*
X43000079Y-44581410D01*
X43137908Y-44638500D01*
X43287092Y-44638500D01*
X43665250Y-44638500D01*
X43759000Y-44544750D01*
X43759000Y-51017404D01*
X42509360Y-49767764D01*
X42509360Y-46548830D01*
X42567770Y-46490421D01*
X42624860Y-46352592D01*
X42624860Y-46203408D01*
X42624860Y-44933408D01*
X42567770Y-44795580D01*
X42462281Y-44690090D01*
X42324452Y-44633000D01*
X42175268Y-44633000D01*
X41794268Y-44633000D01*
X41734240Y-44657864D01*
X41674212Y-44633000D01*
X41527870Y-44633000D01*
X41434120Y-44726750D01*
X41434120Y-45618000D01*
X41454120Y-45618000D01*
X41454120Y-45668000D01*
X41434120Y-45668000D01*
X41434120Y-45688000D01*
X41384120Y-45688000D01*
X41384120Y-45668000D01*
X41364120Y-45668000D01*
X41364120Y-45618000D01*
X41384120Y-45618000D01*
X41384120Y-44726750D01*
X41290370Y-44633000D01*
X41144028Y-44633000D01*
X41084000Y-44657864D01*
X41023972Y-44633000D01*
X40874788Y-44633000D01*
X40493788Y-44633000D01*
X40433760Y-44657864D01*
X40373732Y-44633000D01*
X40224548Y-44633000D01*
X39843548Y-44633000D01*
X39705720Y-44690090D01*
X39600230Y-44795579D01*
X39543140Y-44933408D01*
X39543140Y-45034000D01*
X39484763Y-45034000D01*
X39479143Y-45020397D01*
X39248816Y-44789667D01*
X38947724Y-44664643D01*
X38621707Y-44664358D01*
X38320397Y-44788857D01*
X38089667Y-45019184D01*
X37964643Y-45320276D01*
X37964358Y-45646293D01*
X38088857Y-45947603D01*
X38319184Y-46178333D01*
X38620276Y-46303357D01*
X38946293Y-46303642D01*
X39247603Y-46179143D01*
X39478333Y-45948816D01*
X39484485Y-45934000D01*
X39543140Y-45934000D01*
X39543140Y-46352592D01*
X39600230Y-46490420D01*
X39647309Y-46537500D01*
X39529908Y-46537500D01*
X39392080Y-46594590D01*
X39286590Y-46700079D01*
X39229500Y-46837908D01*
X39229500Y-46987092D01*
X39229500Y-48130092D01*
X39286590Y-48267920D01*
X39392079Y-48373410D01*
X39529908Y-48430500D01*
X39679092Y-48430500D01*
X40308880Y-48430500D01*
X40308880Y-49394880D01*
X40343134Y-49567088D01*
X40440682Y-49713078D01*
X44482000Y-53754396D01*
X44482000Y-54038059D01*
X44458008Y-54042832D01*
X44056178Y-54311327D01*
X43787683Y-54713157D01*
X43693400Y-55187149D01*
X43693400Y-55546451D01*
X43787683Y-56020443D01*
X44056178Y-56422273D01*
X44458008Y-56690768D01*
X44932000Y-56785051D01*
X45405992Y-56690768D01*
X45807822Y-56422273D01*
X46076317Y-56020443D01*
X46170600Y-55546451D01*
X46170600Y-55187149D01*
X46076317Y-54713157D01*
X45863583Y-54394779D01*
X45987802Y-54518998D01*
X46133792Y-54616546D01*
X46133793Y-54616546D01*
X46263562Y-54642358D01*
X46330357Y-54709153D01*
X46327683Y-54713157D01*
X46233400Y-55187149D01*
X46233400Y-55546451D01*
X46327683Y-56020443D01*
X46596178Y-56422273D01*
X46998008Y-56690768D01*
X47472000Y-56785051D01*
X47945992Y-56690768D01*
X48347822Y-56422273D01*
X48616317Y-56020443D01*
X48710600Y-55546451D01*
X48710600Y-60485000D01*
X43630600Y-60485000D01*
X43630600Y-55544200D01*
X43630600Y-55391800D01*
X43630600Y-55341800D01*
X43630600Y-55189400D01*
X43526750Y-54717311D01*
X43250145Y-54320900D01*
X42842895Y-54060516D01*
X42610413Y-53995209D01*
X42417000Y-54069823D01*
X42417000Y-55341800D01*
X43630600Y-55341800D01*
X43630600Y-55391800D01*
X42417000Y-55391800D01*
X42417000Y-56663777D01*
X42610413Y-56738391D01*
X42842895Y-56673084D01*
X43250145Y-56412700D01*
X43526750Y-56016289D01*
X43630600Y-55544200D01*
X43630600Y-60485000D01*
X42367000Y-60485000D01*
X42367000Y-56663777D01*
X42367000Y-55391800D01*
X42367000Y-55341800D01*
X42367000Y-54069823D01*
X42221642Y-54013747D01*
X42221642Y-52517307D01*
X42097143Y-52215997D01*
X41866816Y-51985267D01*
X41565724Y-51860243D01*
X41239707Y-51859958D01*
X40938397Y-51984457D01*
X40707667Y-52214784D01*
X40582643Y-52515876D01*
X40582404Y-52789260D01*
X40089165Y-53282499D01*
X39202980Y-53282499D01*
X39202980Y-52575728D01*
X39159393Y-52470500D01*
X39170492Y-52470500D01*
X39308320Y-52413410D01*
X39413810Y-52307921D01*
X39470900Y-52170092D01*
X39470900Y-52020908D01*
X39470900Y-51385908D01*
X39413810Y-51248080D01*
X39308321Y-51142590D01*
X39170492Y-51085500D01*
X39021308Y-51085500D01*
X37878308Y-51085500D01*
X37740480Y-51142590D01*
X37634990Y-51248079D01*
X37577900Y-51385908D01*
X37577900Y-51535092D01*
X37577900Y-52170092D01*
X37634990Y-52307920D01*
X37738739Y-52411670D01*
X37712510Y-52437899D01*
X37655420Y-52575728D01*
X37655420Y-52724912D01*
X37655420Y-53353259D01*
X37541271Y-53429531D01*
X37541268Y-53429534D01*
X36857400Y-54113402D01*
X36857400Y-53738608D01*
X36800310Y-53600780D01*
X36694821Y-53495290D01*
X36556992Y-53438200D01*
X36476400Y-53438200D01*
X36476400Y-52186435D01*
X37763775Y-50899059D01*
X37878308Y-50946500D01*
X38027492Y-50946500D01*
X39170492Y-50946500D01*
X39285024Y-50899059D01*
X39373649Y-50987685D01*
X39487657Y-51263603D01*
X39717984Y-51494333D01*
X40019076Y-51619357D01*
X40345093Y-51619642D01*
X40646403Y-51495143D01*
X40877133Y-51264816D01*
X41002157Y-50963724D01*
X41002442Y-50637707D01*
X40877943Y-50336397D01*
X40647616Y-50105667D01*
X40346524Y-49980643D01*
X40020507Y-49980358D01*
X39854702Y-50048867D01*
X39704868Y-49899032D01*
X39542007Y-49790212D01*
X39432151Y-49768360D01*
X39413810Y-49724080D01*
X39308321Y-49618590D01*
X39170492Y-49561500D01*
X39021308Y-49561500D01*
X37878308Y-49561500D01*
X37740480Y-49618590D01*
X37634990Y-49724079D01*
X37616648Y-49768360D01*
X37506792Y-49790212D01*
X37441559Y-49833799D01*
X37343932Y-49899032D01*
X37343929Y-49899035D01*
X35892200Y-51350764D01*
X35892200Y-49315792D01*
X35892200Y-49166608D01*
X35892200Y-47134608D01*
X35835110Y-46996780D01*
X35729621Y-46891290D01*
X35591792Y-46834200D01*
X35442608Y-46834200D01*
X32606733Y-46834200D01*
X32658940Y-46708162D01*
X32658940Y-46558978D01*
X32658940Y-45752830D01*
X32658940Y-45515330D01*
X32658940Y-44709182D01*
X32658940Y-44559998D01*
X32658940Y-43108982D01*
X32658940Y-42959798D01*
X32658940Y-42902950D01*
X32565190Y-42809200D01*
X31158320Y-42809200D01*
X31158320Y-43315640D01*
X31252070Y-43409390D01*
X32358532Y-43409390D01*
X32496360Y-43352300D01*
X32601850Y-43246811D01*
X32658940Y-43108982D01*
X32658940Y-44559998D01*
X32601850Y-44422169D01*
X32496360Y-44316680D01*
X32358532Y-44259590D01*
X31153010Y-44259590D01*
X31108320Y-44304280D01*
X31108320Y-43315640D01*
X31108320Y-42809200D01*
X29701450Y-42809200D01*
X29607700Y-42902950D01*
X29607700Y-42959798D01*
X29607700Y-43108982D01*
X29664790Y-43246811D01*
X29770280Y-43352300D01*
X29908108Y-43409390D01*
X31014570Y-43409390D01*
X31108320Y-43315640D01*
X31108320Y-44304280D01*
X31059260Y-44353340D01*
X31059260Y-45609080D01*
X32565190Y-45609080D01*
X32658940Y-45515330D01*
X32658940Y-45752830D01*
X32565190Y-45659080D01*
X31059260Y-45659080D01*
X31059260Y-46914820D01*
X31153010Y-47008570D01*
X31536806Y-47008570D01*
X31484600Y-47134608D01*
X31484600Y-47283792D01*
X31484600Y-49315792D01*
X31541690Y-49453620D01*
X31647179Y-49559110D01*
X31785008Y-49616200D01*
X31934192Y-49616200D01*
X35591792Y-49616200D01*
X35729620Y-49559110D01*
X35835110Y-49453621D01*
X35892200Y-49315792D01*
X35892200Y-51350764D01*
X35619432Y-51623532D01*
X35510612Y-51786393D01*
X35472399Y-51978500D01*
X35472400Y-51978505D01*
X35472400Y-53109264D01*
X32156588Y-49793452D01*
X31993727Y-49684632D01*
X31801620Y-49646419D01*
X31801614Y-49646420D01*
X31009260Y-49646420D01*
X31009260Y-46914820D01*
X31009260Y-45659080D01*
X31009260Y-45609080D01*
X31009260Y-44353340D01*
X30915510Y-44259590D01*
X29709988Y-44259590D01*
X29572160Y-44316680D01*
X29466670Y-44422169D01*
X29409580Y-44559998D01*
X29409580Y-44709182D01*
X29409580Y-45515330D01*
X29503330Y-45609080D01*
X31009260Y-45609080D01*
X31009260Y-45659080D01*
X29503330Y-45659080D01*
X29409580Y-45752830D01*
X29409580Y-46558978D01*
X29409580Y-46708162D01*
X29466670Y-46845991D01*
X29572160Y-46951480D01*
X29709988Y-47008570D01*
X30915510Y-47008570D01*
X31009260Y-46914820D01*
X31009260Y-49646420D01*
X27830630Y-49646420D01*
X27830630Y-48499028D01*
X27773540Y-48361200D01*
X27668051Y-48255710D01*
X27530222Y-48198620D01*
X27381038Y-48198620D01*
X27057200Y-48198620D01*
X27057200Y-47871535D01*
X27583764Y-47344970D01*
X27583767Y-47344968D01*
X27583768Y-47344968D01*
X27649000Y-47247340D01*
X27692588Y-47182108D01*
X27692588Y-47182107D01*
X27730800Y-46990000D01*
X27730800Y-43596848D01*
X27835448Y-43850117D01*
X28067203Y-44082277D01*
X28370161Y-44208076D01*
X28698199Y-44208362D01*
X29001377Y-44083092D01*
X29233537Y-43851337D01*
X29359336Y-43548379D01*
X29359622Y-43220341D01*
X29234352Y-42917163D01*
X29002597Y-42685003D01*
X28699639Y-42559204D01*
X28371601Y-42558918D01*
X28068423Y-42684188D01*
X27836263Y-42915943D01*
X27730800Y-43169926D01*
X27730800Y-39197568D01*
X27835448Y-39450837D01*
X28067203Y-39682997D01*
X28370161Y-39808796D01*
X28698199Y-39809082D01*
X29001377Y-39683812D01*
X29233537Y-39452057D01*
X29359336Y-39149099D01*
X29359622Y-38821061D01*
X29234352Y-38517883D01*
X29002597Y-38285723D01*
X28699639Y-38159924D01*
X28371601Y-38159638D01*
X28335296Y-38174638D01*
X28554964Y-37954970D01*
X28554967Y-37954968D01*
X28554968Y-37954968D01*
X28620200Y-37857340D01*
X28663788Y-37792108D01*
X28663788Y-37792107D01*
X28702000Y-37600000D01*
X28702000Y-36307936D01*
X29442936Y-35567000D01*
X29448034Y-35567000D01*
X29409580Y-35659838D01*
X29409580Y-35809022D01*
X29409580Y-36615170D01*
X29503330Y-36708920D01*
X31009260Y-36708920D01*
X31009260Y-36688920D01*
X31059260Y-36688920D01*
X31059260Y-36708920D01*
X32565190Y-36708920D01*
X32658940Y-36615170D01*
X32658940Y-35809022D01*
X32658940Y-35659838D01*
X32620485Y-35567000D01*
X34893000Y-35567000D01*
X34893000Y-35901592D01*
X34950090Y-36039420D01*
X35055579Y-36144910D01*
X35193408Y-36202000D01*
X35342592Y-36202000D01*
X37374592Y-36202000D01*
X37512420Y-36144910D01*
X37617910Y-36039421D01*
X37675000Y-35901592D01*
X37675000Y-35752408D01*
X37675000Y-34228408D01*
X37617910Y-34090580D01*
X37512421Y-33985090D01*
X37374592Y-33928000D01*
X37225408Y-33928000D01*
X35193408Y-33928000D01*
X35055580Y-33985090D01*
X34950090Y-34090579D01*
X34893000Y-34228408D01*
X34893000Y-34377592D01*
X34893000Y-34563000D01*
X32281501Y-34563000D01*
X32281501Y-30844092D01*
X32281501Y-30570750D01*
X32281501Y-30333250D01*
X32281501Y-30059908D01*
X32224411Y-29922080D01*
X32118922Y-29816590D01*
X31981093Y-29759500D01*
X31831909Y-29759500D01*
X31453751Y-29759500D01*
X31360001Y-29853250D01*
X31360001Y-30427000D01*
X32187751Y-30427000D01*
X32281501Y-30333250D01*
X32281501Y-30570750D01*
X32187751Y-30477000D01*
X31360001Y-30477000D01*
X31360001Y-31050750D01*
X31453751Y-31144500D01*
X31831909Y-31144500D01*
X31981093Y-31144500D01*
X32118922Y-31087410D01*
X32224411Y-30981920D01*
X32281501Y-30844092D01*
X32281501Y-34563000D01*
X31310001Y-34563000D01*
X31310001Y-31050750D01*
X31310001Y-30477000D01*
X31310001Y-30427000D01*
X31310001Y-29853250D01*
X31216251Y-29759500D01*
X30838093Y-29759500D01*
X30688909Y-29759500D01*
X30551080Y-29816590D01*
X30445591Y-29922080D01*
X30388501Y-30059908D01*
X30388501Y-30333250D01*
X30482251Y-30427000D01*
X31310001Y-30427000D01*
X31310001Y-30477000D01*
X30482251Y-30477000D01*
X30388501Y-30570750D01*
X30388501Y-30844092D01*
X30445591Y-30981920D01*
X30551080Y-31087410D01*
X30688909Y-31144500D01*
X30838093Y-31144500D01*
X31216251Y-31144500D01*
X31310001Y-31050750D01*
X31310001Y-34563000D01*
X29235005Y-34563000D01*
X29235000Y-34562999D01*
X29042892Y-34601212D01*
X28880032Y-34710032D01*
X28479737Y-35110327D01*
X28479737Y-31422405D01*
X28316651Y-31027707D01*
X28014934Y-30725463D01*
X27620520Y-30561688D01*
X27193455Y-30561315D01*
X26798757Y-30724401D01*
X26496513Y-31026118D01*
X26332738Y-31420532D01*
X26332365Y-31847597D01*
X26495451Y-32242295D01*
X26797168Y-32544539D01*
X27191582Y-32708314D01*
X27618647Y-32708687D01*
X28013345Y-32545601D01*
X28315589Y-32243884D01*
X28479364Y-31849470D01*
X28479737Y-31422405D01*
X28479737Y-35110327D01*
X27845032Y-35745032D01*
X27736212Y-35907893D01*
X27697999Y-36100000D01*
X27698000Y-36100005D01*
X27698000Y-37392064D01*
X27159840Y-37930224D01*
X27159840Y-37808002D01*
X27159840Y-37658818D01*
X27159840Y-36852670D01*
X27159840Y-36615170D01*
X27159840Y-35809022D01*
X27159840Y-35659838D01*
X27102750Y-35522009D01*
X26997260Y-35416520D01*
X26972829Y-35406400D01*
X26972829Y-33356460D01*
X26915738Y-33218631D01*
X26810249Y-33113142D01*
X26453048Y-32755942D01*
X26320466Y-32755942D01*
X26285110Y-32791297D01*
X26285110Y-32720586D01*
X26285110Y-32588004D01*
X25927910Y-32230803D01*
X25822421Y-32125314D01*
X25684592Y-32068223D01*
X25535407Y-32068224D01*
X25397579Y-32125314D01*
X24934890Y-32588004D01*
X24934890Y-32720586D01*
X25610000Y-33395697D01*
X26285110Y-32720586D01*
X26285110Y-32791297D01*
X25645355Y-33431052D01*
X26320466Y-34106162D01*
X26453048Y-34106162D01*
X26915738Y-33643473D01*
X26972828Y-33505645D01*
X26972829Y-33356460D01*
X26972829Y-35406400D01*
X26859432Y-35359430D01*
X26285110Y-35359430D01*
X26285110Y-34274100D01*
X26285110Y-34141518D01*
X25610000Y-33466407D01*
X24934890Y-34141518D01*
X24934890Y-34274100D01*
X25292090Y-34631301D01*
X25397579Y-34736790D01*
X25535408Y-34793881D01*
X25684593Y-34793880D01*
X25822421Y-34736790D01*
X26285110Y-34274100D01*
X26285110Y-35359430D01*
X25653910Y-35359430D01*
X25560160Y-35453180D01*
X25560160Y-36708920D01*
X27066090Y-36708920D01*
X27159840Y-36615170D01*
X27159840Y-36852670D01*
X27066090Y-36758920D01*
X25560160Y-36758920D01*
X25560160Y-38014660D01*
X25653910Y-38108410D01*
X26859432Y-38108410D01*
X26997260Y-38051320D01*
X27102750Y-37945831D01*
X27159840Y-37808002D01*
X27159840Y-37930224D01*
X26873832Y-38216232D01*
X26765012Y-38379093D01*
X26726799Y-38571200D01*
X26726800Y-38571205D01*
X26726800Y-44259590D01*
X25653910Y-44259590D01*
X25560160Y-44353340D01*
X25560160Y-45609080D01*
X25580160Y-45609080D01*
X25580160Y-45659080D01*
X25560160Y-45659080D01*
X25560160Y-46914820D01*
X25653910Y-47008570D01*
X26500294Y-47008570D01*
X26200232Y-47308632D01*
X26091412Y-47471493D01*
X26053199Y-47663600D01*
X26053200Y-47663605D01*
X26053200Y-48198620D01*
X25580178Y-48198620D01*
X25442350Y-48255710D01*
X25336860Y-48361199D01*
X25279770Y-48499028D01*
X25279770Y-48648212D01*
X25279770Y-51797812D01*
X25336860Y-51935640D01*
X25442349Y-52041130D01*
X25580178Y-52098220D01*
X25729362Y-52098220D01*
X27530222Y-52098220D01*
X27668050Y-52041130D01*
X27773540Y-51935641D01*
X27830630Y-51797812D01*
X27830630Y-51648628D01*
X27830630Y-50650420D01*
X31593684Y-50650420D01*
X35091400Y-54148136D01*
X35091400Y-55919792D01*
X35148490Y-56057620D01*
X35253979Y-56163110D01*
X35391808Y-56220200D01*
X35540992Y-56220200D01*
X35896066Y-56220200D01*
X35207701Y-56908565D01*
X35102773Y-56803637D01*
X35046210Y-56667080D01*
X34940721Y-56561590D01*
X34804162Y-56505026D01*
X34435533Y-56136397D01*
X34514310Y-56057621D01*
X34571400Y-55919792D01*
X34571400Y-55770608D01*
X34571400Y-53738608D01*
X34514310Y-53600780D01*
X34408821Y-53495290D01*
X34270992Y-53438200D01*
X34121808Y-53438200D01*
X33105808Y-53438200D01*
X32967980Y-53495290D01*
X32862490Y-53600779D01*
X32805400Y-53738608D01*
X32805400Y-53887792D01*
X32805400Y-55919792D01*
X32862490Y-56057620D01*
X32967979Y-56163110D01*
X33105808Y-56220200D01*
X33186400Y-56220200D01*
X33186400Y-56504500D01*
X33053508Y-56504500D01*
X32915680Y-56561590D01*
X32810190Y-56667079D01*
X32753100Y-56804908D01*
X32753100Y-56954092D01*
X32753100Y-58757492D01*
X32810190Y-58895320D01*
X32915679Y-59000810D01*
X33053508Y-59057900D01*
X33202692Y-59057900D01*
X34802892Y-59057900D01*
X34940720Y-59000810D01*
X35046210Y-58895321D01*
X35103300Y-58757492D01*
X35103300Y-58608308D01*
X35103300Y-57978400D01*
X35349796Y-57978400D01*
X35349802Y-57978401D01*
X35349802Y-57978400D01*
X35541909Y-57940188D01*
X35704770Y-57831368D01*
X37114369Y-56421769D01*
X37223189Y-56258908D01*
X37261401Y-56066801D01*
X37261402Y-56066801D01*
X37261401Y-56066795D01*
X37261401Y-55129272D01*
X37655420Y-54735253D01*
X37655420Y-55021072D01*
X37712510Y-55158900D01*
X37817999Y-55264390D01*
X37955828Y-55321480D01*
X38105012Y-55321480D01*
X38310450Y-55321480D01*
X38404200Y-55227730D01*
X38404200Y-54572700D01*
X38384200Y-54572700D01*
X38384200Y-54522700D01*
X38404200Y-54522700D01*
X38404200Y-54502700D01*
X38454200Y-54502700D01*
X38454200Y-54522700D01*
X39109230Y-54522700D01*
X39202980Y-54428950D01*
X39202980Y-54286499D01*
X40297095Y-54286499D01*
X40297101Y-54286500D01*
X40297101Y-54286499D01*
X40489208Y-54248287D01*
X40652069Y-54139467D01*
X41292530Y-53499004D01*
X41564293Y-53499242D01*
X41865603Y-53374743D01*
X42096333Y-53144416D01*
X42221357Y-52843324D01*
X42221642Y-52517307D01*
X42221642Y-54013747D01*
X42173587Y-53995209D01*
X41941105Y-54060516D01*
X41533855Y-54320900D01*
X41257250Y-54717311D01*
X41153400Y-55189400D01*
X41153400Y-55341800D01*
X42367000Y-55341800D01*
X42367000Y-55391800D01*
X41153400Y-55391800D01*
X41153400Y-55544200D01*
X41257250Y-56016289D01*
X41533855Y-56412700D01*
X41941105Y-56673084D01*
X42173587Y-56738391D01*
X42367000Y-56663777D01*
X42367000Y-60485000D01*
X39202980Y-60485000D01*
X39202980Y-55021072D01*
X39202980Y-54666450D01*
X39109230Y-54572700D01*
X38454200Y-54572700D01*
X38454200Y-55227730D01*
X38547950Y-55321480D01*
X38753388Y-55321480D01*
X38902572Y-55321480D01*
X39040401Y-55264390D01*
X39145890Y-55158900D01*
X39202980Y-55021072D01*
X39202980Y-60485000D01*
X32309300Y-60485000D01*
X32309300Y-58757492D01*
X32309300Y-58608308D01*
X32309300Y-57899950D01*
X32309300Y-57662450D01*
X32309300Y-56954092D01*
X32309300Y-56804908D01*
X32285400Y-56747207D01*
X32285400Y-55919792D01*
X32285400Y-55770608D01*
X32285400Y-54947950D01*
X32285400Y-54710450D01*
X32285400Y-53887792D01*
X32285400Y-53738608D01*
X32228310Y-53600779D01*
X32122820Y-53495290D01*
X31984992Y-53438200D01*
X31521150Y-53438200D01*
X31427400Y-53531950D01*
X31427400Y-54804200D01*
X32191650Y-54804200D01*
X32285400Y-54710450D01*
X32285400Y-54947950D01*
X32191650Y-54854200D01*
X31427400Y-54854200D01*
X31427400Y-56126450D01*
X31521150Y-56220200D01*
X31984992Y-56220200D01*
X32122820Y-56163110D01*
X32228310Y-56057621D01*
X32285400Y-55919792D01*
X32285400Y-56747207D01*
X32252210Y-56667079D01*
X32146720Y-56561590D01*
X32008892Y-56504500D01*
X31377400Y-56504500D01*
X31377400Y-56126450D01*
X31377400Y-54854200D01*
X31377400Y-54804200D01*
X31377400Y-53531950D01*
X31283650Y-53438200D01*
X30819808Y-53438200D01*
X30681980Y-53495290D01*
X30576490Y-53600779D01*
X30519400Y-53738608D01*
X30519400Y-53887792D01*
X30519400Y-54710450D01*
X30613150Y-54804200D01*
X31377400Y-54804200D01*
X31377400Y-54854200D01*
X30613150Y-54854200D01*
X30519400Y-54947950D01*
X30519400Y-55770608D01*
X30519400Y-55919792D01*
X30576490Y-56057621D01*
X30681980Y-56163110D01*
X30819808Y-56220200D01*
X31283650Y-56220200D01*
X31377400Y-56126450D01*
X31377400Y-56504500D01*
X31252950Y-56504500D01*
X31159200Y-56598250D01*
X31159200Y-57756200D01*
X32215550Y-57756200D01*
X32309300Y-57662450D01*
X32309300Y-57899950D01*
X32215550Y-57806200D01*
X31159200Y-57806200D01*
X31159200Y-58964150D01*
X31252950Y-59057900D01*
X32008892Y-59057900D01*
X32146720Y-59000810D01*
X32252210Y-58895321D01*
X32309300Y-58757492D01*
X32309300Y-60485000D01*
X31109200Y-60485000D01*
X31109200Y-58964150D01*
X31109200Y-57806200D01*
X31109200Y-57756200D01*
X31109200Y-56598250D01*
X31015450Y-56504500D01*
X30259508Y-56504500D01*
X30121680Y-56561590D01*
X30016190Y-56667079D01*
X29959100Y-56804908D01*
X29959100Y-56954092D01*
X29959100Y-57662450D01*
X30052850Y-57756200D01*
X31109200Y-57756200D01*
X31109200Y-57806200D01*
X30052850Y-57806200D01*
X29959100Y-57899950D01*
X29959100Y-58608308D01*
X29959100Y-58757492D01*
X30016190Y-58895321D01*
X30121680Y-59000810D01*
X30259508Y-59057900D01*
X31015450Y-59057900D01*
X31109200Y-58964150D01*
X31109200Y-60485000D01*
X28136751Y-60485000D01*
X27830630Y-60178878D01*
X27830630Y-56049772D01*
X27830630Y-54519130D01*
X27830630Y-54281630D01*
X27830630Y-52750988D01*
X27773540Y-52613160D01*
X27668051Y-52507670D01*
X27530222Y-52450580D01*
X27381038Y-52450580D01*
X26673950Y-52450580D01*
X26580200Y-52544330D01*
X26580200Y-54375380D01*
X27736880Y-54375380D01*
X27830630Y-54281630D01*
X27830630Y-54519130D01*
X27736880Y-54425380D01*
X26580200Y-54425380D01*
X26580200Y-56256430D01*
X26673950Y-56350180D01*
X27381038Y-56350180D01*
X27530222Y-56350180D01*
X27668051Y-56293090D01*
X27773540Y-56187600D01*
X27830630Y-56049772D01*
X27830630Y-60178878D01*
X26530200Y-58878448D01*
X26530200Y-56256430D01*
X26530200Y-54425380D01*
X26530200Y-54375380D01*
X26530200Y-52544330D01*
X26436450Y-52450580D01*
X25729362Y-52450580D01*
X25580178Y-52450580D01*
X25442349Y-52507670D01*
X25336860Y-52613160D01*
X25279770Y-52750988D01*
X25279770Y-54281630D01*
X25373520Y-54375380D01*
X26530200Y-54375380D01*
X26530200Y-54425380D01*
X25373520Y-54425380D01*
X25279770Y-54519130D01*
X25279770Y-56049772D01*
X25336860Y-56187600D01*
X25442349Y-56293090D01*
X25580178Y-56350180D01*
X25729362Y-56350180D01*
X26436450Y-56350180D01*
X26530200Y-56256430D01*
X26530200Y-58878448D01*
X24605000Y-56953248D01*
X24605000Y-47008570D01*
X25416410Y-47008570D01*
X25510160Y-46914820D01*
X25510160Y-45659080D01*
X25490160Y-45659080D01*
X25490160Y-45609080D01*
X25510160Y-45609080D01*
X25510160Y-44353340D01*
X25416410Y-44259590D01*
X24605000Y-44259590D01*
X24605000Y-38108410D01*
X25416410Y-38108410D01*
X25510160Y-38014660D01*
X25510160Y-36758920D01*
X25490160Y-36758920D01*
X25490160Y-36708920D01*
X25510160Y-36708920D01*
X25510160Y-35453180D01*
X25416410Y-35359430D01*
X24605000Y-35359430D01*
X24605000Y-33944210D01*
X24766952Y-34106162D01*
X24899534Y-34106162D01*
X25574645Y-33431052D01*
X24899534Y-32755942D01*
X24766952Y-32755942D01*
X24605000Y-32917893D01*
X24605000Y-30217778D01*
X24699400Y-30446244D01*
X25001117Y-30748488D01*
X25395531Y-30912263D01*
X25822596Y-30912636D01*
X26217294Y-30749550D01*
X26519538Y-30447833D01*
X26683313Y-30053419D01*
X26683686Y-29626354D01*
X26639491Y-29519394D01*
X26728885Y-29430000D01*
X30434026Y-29430000D01*
X30445591Y-29457920D01*
X30551080Y-29563410D01*
X30688909Y-29620500D01*
X30838093Y-29620500D01*
X31981093Y-29620500D01*
X32118921Y-29563410D01*
X32224411Y-29457921D01*
X32281501Y-29320092D01*
X32281501Y-29170908D01*
X32281501Y-28535908D01*
X32224411Y-28398080D01*
X32118922Y-28292590D01*
X31981093Y-28235500D01*
X31831909Y-28235500D01*
X30688909Y-28235500D01*
X30551081Y-28292590D01*
X30445591Y-28398079D01*
X30434025Y-28426000D01*
X28802251Y-28426000D01*
X28802251Y-24354000D01*
X28707968Y-23880008D01*
X28439473Y-23478178D01*
X28037643Y-23209683D01*
X27563651Y-23115400D01*
X27204349Y-23115400D01*
X26730357Y-23209683D01*
X26328527Y-23478178D01*
X26060032Y-23880008D01*
X25965749Y-24354000D01*
X26060032Y-24827992D01*
X26328527Y-25229822D01*
X26730357Y-25498317D01*
X27204349Y-25592600D01*
X27563651Y-25592600D01*
X28037643Y-25498317D01*
X28439473Y-25229822D01*
X28707968Y-24827992D01*
X28802251Y-24354000D01*
X28802251Y-28426000D01*
X28755591Y-28426000D01*
X28755591Y-27112413D01*
X28755591Y-26675587D01*
X28690284Y-26443105D01*
X28429900Y-26035855D01*
X28033489Y-25759250D01*
X27561400Y-25655400D01*
X27409000Y-25655400D01*
X27409000Y-26869000D01*
X28680977Y-26869000D01*
X28755591Y-26675587D01*
X28755591Y-27112413D01*
X28680977Y-26919000D01*
X27409000Y-26919000D01*
X27409000Y-28132600D01*
X27561400Y-28132600D01*
X28033489Y-28028750D01*
X28429900Y-27752145D01*
X28690284Y-27344895D01*
X28755591Y-27112413D01*
X28755591Y-28426000D01*
X27359000Y-28426000D01*
X27359000Y-28132600D01*
X27359000Y-26919000D01*
X27359000Y-26869000D01*
X27359000Y-25655400D01*
X27206600Y-25655400D01*
X26734511Y-25759250D01*
X26338100Y-26035855D01*
X26077716Y-26443105D01*
X26012409Y-26675587D01*
X26087023Y-26869000D01*
X27359000Y-26869000D01*
X27359000Y-26919000D01*
X26087023Y-26919000D01*
X26012409Y-27112413D01*
X26077716Y-27344895D01*
X26338100Y-27752145D01*
X26734511Y-28028750D01*
X27206600Y-28132600D01*
X27359000Y-28132600D01*
X27359000Y-28426000D01*
X26520955Y-28426000D01*
X26520950Y-28425999D01*
X26328843Y-28464212D01*
X26165982Y-28573032D01*
X26165979Y-28573035D01*
X25929687Y-28809327D01*
X25824469Y-28765637D01*
X25397404Y-28765264D01*
X25002706Y-28928350D01*
X24700462Y-29230067D01*
X24605000Y-29459965D01*
X24605000Y-16706751D01*
X25512000Y-15799751D01*
X25512000Y-18456394D01*
X25511999Y-18456400D01*
X25550212Y-18648507D01*
X25659032Y-18811368D01*
X25993000Y-19145336D01*
X25993000Y-20212192D01*
X26050090Y-20350020D01*
X26155579Y-20455510D01*
X26293408Y-20512600D01*
X26442592Y-20512600D01*
X28435390Y-20512600D01*
X28435390Y-20935449D01*
X28037643Y-20669683D01*
X27563651Y-20575400D01*
X27204349Y-20575400D01*
X26730357Y-20669683D01*
X26328527Y-20938178D01*
X26060032Y-21340008D01*
X25965749Y-21814000D01*
X26060032Y-22287992D01*
X26328527Y-22689822D01*
X26730357Y-22958317D01*
X27204349Y-23052600D01*
X27563651Y-23052600D01*
X28037643Y-22958317D01*
X28435390Y-22692550D01*
X28435390Y-23043390D01*
X28469644Y-23215598D01*
X28567192Y-23361588D01*
X36507802Y-31302198D01*
X36653792Y-31399746D01*
X36826000Y-31434000D01*
X36837500Y-31434000D01*
X36837500Y-32038092D01*
X36894590Y-32175920D01*
X37000079Y-32281410D01*
X37137908Y-32338500D01*
X37287092Y-32338500D01*
X38430092Y-32338500D01*
X38567920Y-32281410D01*
X38673410Y-32175921D01*
X38684975Y-32148000D01*
X45537500Y-32148000D01*
X45537500Y-32514092D01*
X45594590Y-32651920D01*
X45700079Y-32757410D01*
X45837908Y-32814500D01*
X45987092Y-32814500D01*
X46006067Y-32814500D01*
X46020212Y-32885607D01*
X46065576Y-32953500D01*
X45987092Y-32953500D01*
X45837908Y-32953500D01*
X45700079Y-33010590D01*
X45594590Y-33116080D01*
X45537500Y-33253908D01*
X45537500Y-33527250D01*
X45631250Y-33621000D01*
X46459000Y-33621000D01*
X46459000Y-33601000D01*
X46509000Y-33601000D01*
X46509000Y-33621000D01*
X47336750Y-33621000D01*
X47430500Y-33527250D01*
X47430500Y-33337720D01*
X48714500Y-33337720D01*
X48714500Y-33361102D01*
X48809018Y-33361102D01*
X48781643Y-33386480D01*
X48327036Y-33386480D01*
X48154829Y-33420733D01*
X48008838Y-33518282D01*
X47597640Y-33929479D01*
X47430500Y-33929479D01*
X47430500Y-33764750D01*
X47336750Y-33671000D01*
X46509000Y-33671000D01*
X46509000Y-33691000D01*
X46459000Y-33691000D01*
X46459000Y-33671000D01*
X45631250Y-33671000D01*
X45537500Y-33764750D01*
X45537500Y-33929480D01*
X44371963Y-33929481D01*
X44199755Y-33963735D01*
X44053765Y-34061283D01*
X41834558Y-36280489D01*
X41354369Y-36280490D01*
X41182161Y-36314744D01*
X41036172Y-36412292D01*
X39790442Y-37658022D01*
X39692894Y-37804012D01*
X39658640Y-37976220D01*
X39658640Y-40419169D01*
X39600230Y-40477579D01*
X39543140Y-40615408D01*
X39543140Y-40764592D01*
X39543140Y-42034592D01*
X39600230Y-42172420D01*
X39705719Y-42277910D01*
X39843548Y-42335000D01*
X39992732Y-42335000D01*
X40373732Y-42335000D01*
X40433759Y-42310135D01*
X40493788Y-42335000D01*
X40642972Y-42335000D01*
X41023972Y-42335000D01*
X41083999Y-42310135D01*
X41144028Y-42335000D01*
X41293212Y-42335000D01*
X41674212Y-42335000D01*
X41734239Y-42310135D01*
X41794268Y-42335000D01*
X41943452Y-42335000D01*
X42324452Y-42335000D01*
X42462280Y-42277910D01*
X42567770Y-42172421D01*
X42624860Y-42034592D01*
X42624860Y-41972795D01*
X42837500Y-42185435D01*
X42837500Y-42533990D01*
X36320426Y-42533990D01*
X33852138Y-40065702D01*
X33706148Y-39968154D01*
X33568242Y-39940723D01*
X33571168Y-39938768D01*
X34640936Y-38869000D01*
X34893000Y-38869000D01*
X34893000Y-39203592D01*
X34950090Y-39341420D01*
X35055579Y-39446910D01*
X35193408Y-39504000D01*
X35342592Y-39504000D01*
X37374592Y-39504000D01*
X37512420Y-39446910D01*
X37617910Y-39341421D01*
X37675000Y-39203592D01*
X37675000Y-39054408D01*
X37675000Y-37530408D01*
X37617910Y-37392580D01*
X37512421Y-37287090D01*
X37374592Y-37230000D01*
X37225408Y-37230000D01*
X35193408Y-37230000D01*
X35055580Y-37287090D01*
X34950090Y-37392579D01*
X34893000Y-37530408D01*
X34893000Y-37679592D01*
X34893000Y-37865000D01*
X34433005Y-37865000D01*
X34433000Y-37864999D01*
X34240892Y-37903212D01*
X34078032Y-38012032D01*
X33008264Y-39081800D01*
X32658940Y-39081800D01*
X32658940Y-37808002D01*
X32658940Y-37658818D01*
X32658940Y-36852670D01*
X32565190Y-36758920D01*
X31059260Y-36758920D01*
X31059260Y-38014660D01*
X31153010Y-38108410D01*
X32358532Y-38108410D01*
X32496360Y-38051320D01*
X32601850Y-37945831D01*
X32658940Y-37808002D01*
X32658940Y-39081800D01*
X32562460Y-39081800D01*
X32496361Y-39015700D01*
X32358532Y-38958610D01*
X32209348Y-38958610D01*
X31009260Y-38958610D01*
X31009260Y-38014660D01*
X31009260Y-36758920D01*
X29503330Y-36758920D01*
X29409580Y-36852670D01*
X29409580Y-37658818D01*
X29409580Y-37808002D01*
X29466670Y-37945831D01*
X29572160Y-38051320D01*
X29709988Y-38108410D01*
X30915510Y-38108410D01*
X31009260Y-38014660D01*
X31009260Y-38958610D01*
X29908108Y-38958610D01*
X29770280Y-39015700D01*
X29664790Y-39121189D01*
X29607700Y-39259018D01*
X29607700Y-39408202D01*
X29607700Y-39908582D01*
X29638876Y-39983849D01*
X29607700Y-40059118D01*
X29607700Y-40208302D01*
X29607700Y-40708682D01*
X29638876Y-40783949D01*
X29607700Y-40859218D01*
X29607700Y-41008402D01*
X29607700Y-41508782D01*
X29638876Y-41584049D01*
X29607700Y-41659318D01*
X29607700Y-41808502D01*
X29607700Y-42308882D01*
X29638876Y-42384149D01*
X29607700Y-42459418D01*
X29607700Y-42608602D01*
X29607700Y-42665450D01*
X29701450Y-42759200D01*
X31108320Y-42759200D01*
X31108320Y-42739200D01*
X31158320Y-42739200D01*
X31158320Y-42759200D01*
X32565190Y-42759200D01*
X32658940Y-42665450D01*
X32658940Y-42608602D01*
X32658940Y-42459418D01*
X32627763Y-42384150D01*
X32658940Y-42308882D01*
X32658940Y-42159698D01*
X32658940Y-41659318D01*
X32648452Y-41634000D01*
X33697604Y-41634000D01*
X35665801Y-43602197D01*
X35811791Y-43699745D01*
X35811792Y-43699745D01*
X35983999Y-43733999D01*
X42837500Y-43733999D01*
X42837500Y-43827250D01*
X42931250Y-43921000D01*
X43759000Y-43921000D01*
X43759000Y-43901000D01*
X43809000Y-43901000D01*
X43809000Y-43921000D01*
X44636750Y-43921000D01*
X44730500Y-43827250D01*
X44730500Y-43733999D01*
X52820345Y-43733999D01*
X49177344Y-47377000D01*
X49170813Y-47377000D01*
X48978816Y-47184667D01*
X48677724Y-47059643D01*
X48351707Y-47059358D01*
X48050397Y-47183857D01*
X47819667Y-47414184D01*
X47694643Y-47715276D01*
X47694358Y-48041293D01*
X47818857Y-48342603D01*
X48049184Y-48573333D01*
X48350276Y-48698357D01*
X48676293Y-48698642D01*
X48977603Y-48574143D01*
X49171083Y-48381000D01*
X49385274Y-48381000D01*
X49385280Y-48381001D01*
X49385280Y-48381000D01*
X49577387Y-48342788D01*
X49740248Y-48233968D01*
X54120000Y-43854215D01*
X54120000Y-45183025D01*
X54092080Y-45194590D01*
X53986590Y-45300079D01*
X53929500Y-45437908D01*
X53929500Y-45587092D01*
X53929500Y-46730092D01*
X53986590Y-46867920D01*
X54092079Y-46973410D01*
X54229908Y-47030500D01*
X54379092Y-47030500D01*
X54682160Y-47030500D01*
X54682160Y-47600504D01*
X53073153Y-49209510D01*
X47760858Y-49209510D01*
X47623030Y-49266600D01*
X47517540Y-49372089D01*
X47460450Y-49509918D01*
X47460450Y-49659102D01*
X47460450Y-51658082D01*
X47517540Y-51795910D01*
X47623029Y-51901400D01*
X47760858Y-51958490D01*
X47910042Y-51958490D01*
X53034550Y-51958490D01*
X53034550Y-52172054D01*
X52603802Y-52602802D01*
X52506254Y-52748792D01*
X52472000Y-52921000D01*
X52472000Y-53561486D01*
X52392080Y-53594590D01*
X52286590Y-53700079D01*
X52229500Y-53837908D01*
X52229500Y-53987092D01*
X52229500Y-55130092D01*
X52286590Y-55267920D01*
X52392079Y-55373410D01*
X52529908Y-55430500D01*
X52679092Y-55430500D01*
X53314092Y-55430500D01*
X53451920Y-55373410D01*
X53557410Y-55267921D01*
X53614500Y-55130092D01*
X53614500Y-54980908D01*
X53614500Y-53837908D01*
X53557410Y-53700080D01*
X53451921Y-53594590D01*
X53372000Y-53561486D01*
X53372000Y-53107396D01*
X53802748Y-52676648D01*
X53900296Y-52530658D01*
X53900296Y-52530657D01*
X53934550Y-52358450D01*
X53934550Y-51733490D01*
X53900296Y-51561282D01*
X53802748Y-51415292D01*
X53709550Y-51322094D01*
X53709550Y-49845906D01*
X55290035Y-48265420D01*
X55314342Y-48301798D01*
X56858450Y-49845906D01*
X56858450Y-51322094D01*
X56765252Y-51415292D01*
X56667704Y-51561282D01*
X56633450Y-51733490D01*
X56633450Y-51958450D01*
X56633450Y-52558450D01*
X56667704Y-52730658D01*
X56765252Y-52876648D01*
X57096000Y-53207396D01*
X57096000Y-53561486D01*
X57016080Y-53594590D01*
X56910590Y-53700079D01*
X56853500Y-53837908D01*
X56853500Y-53987092D01*
X56853500Y-55130092D01*
X56910590Y-55267920D01*
X57016079Y-55373410D01*
X57153908Y-55430500D01*
X57303092Y-55430500D01*
X57938092Y-55430500D01*
X58075920Y-55373410D01*
X58181410Y-55267921D01*
X58238500Y-55130092D01*
X58238500Y-54980908D01*
X58238500Y-53837908D01*
X58181410Y-53700080D01*
X58075921Y-53594590D01*
X57996000Y-53561486D01*
X57996000Y-53021000D01*
X57961746Y-52848792D01*
X57864198Y-52702802D01*
X57533450Y-52372054D01*
X57533450Y-51958490D01*
X62807142Y-51958490D01*
X62944970Y-51901400D01*
X63050460Y-51795911D01*
X63107550Y-51658082D01*
X63107550Y-51508898D01*
X63107550Y-49509918D01*
X63050460Y-49372090D01*
X62944971Y-49266600D01*
X62807142Y-49209510D01*
X62657958Y-49209510D01*
X57494846Y-49209510D01*
X56838500Y-48553164D01*
X56838500Y-46730092D01*
X56838500Y-46580908D01*
X56838500Y-46202750D01*
X56838500Y-45965250D01*
X56838500Y-45587092D01*
X56838500Y-45437908D01*
X56781410Y-45300079D01*
X56675920Y-45194590D01*
X56538092Y-45137500D01*
X56264750Y-45137500D01*
X56171000Y-45231250D01*
X56171000Y-46059000D01*
X56744750Y-46059000D01*
X56838500Y-45965250D01*
X56838500Y-46202750D01*
X56744750Y-46109000D01*
X56171000Y-46109000D01*
X56171000Y-46936750D01*
X56264750Y-47030500D01*
X56538092Y-47030500D01*
X56675920Y-46973410D01*
X56781410Y-46867921D01*
X56838500Y-46730092D01*
X56838500Y-48553164D01*
X56082540Y-47797204D01*
X56082540Y-46975210D01*
X56121000Y-46936750D01*
X56121000Y-46109000D01*
X56101000Y-46109000D01*
X56101000Y-46059000D01*
X56121000Y-46059000D01*
X56121000Y-45231250D01*
X56082540Y-45192790D01*
X56082540Y-42686356D01*
X56107920Y-42658979D01*
X56107920Y-42397373D01*
X56132000Y-42276315D01*
X56132000Y-40956685D01*
X56107920Y-40835626D01*
X56107920Y-40574021D01*
X56030193Y-40490178D01*
X55964882Y-40507952D01*
X55900408Y-40546515D01*
X55823675Y-40495244D01*
X55632540Y-40457225D01*
X55441405Y-40495244D01*
X55382350Y-40534703D01*
X55323295Y-40495244D01*
X55132160Y-40457225D01*
X55106304Y-40462368D01*
X55095568Y-40408393D01*
X55095568Y-40408392D01*
X55051980Y-40343159D01*
X54986748Y-40245532D01*
X54986744Y-40245529D01*
X54917280Y-40176064D01*
X54917280Y-36515280D01*
X54917280Y-35960655D01*
X56291935Y-34586000D01*
X56826170Y-34586000D01*
X56634971Y-34777198D01*
X56621379Y-34771554D01*
X56295362Y-34771269D01*
X55994052Y-34895768D01*
X55763322Y-35126095D01*
X55638298Y-35427187D01*
X55638013Y-35753204D01*
X55762512Y-36054514D01*
X55780758Y-36072792D01*
X55717317Y-36072737D01*
X55416007Y-36197236D01*
X55185277Y-36427563D01*
X55060253Y-36728655D01*
X55059968Y-37054672D01*
X55184467Y-37355982D01*
X55414794Y-37586712D01*
X55715886Y-37711736D01*
X56041903Y-37712021D01*
X56056729Y-37705894D01*
X56122534Y-37771699D01*
X56268524Y-37869247D01*
X56268525Y-37869247D01*
X56316432Y-37878776D01*
X56195123Y-38170923D01*
X56194838Y-38496940D01*
X56319337Y-38798250D01*
X56549664Y-39028980D01*
X56850756Y-39154004D01*
X57176773Y-39154289D01*
X57432923Y-39048449D01*
X56815482Y-39665891D01*
X56717934Y-39811881D01*
X56683680Y-39984089D01*
X56683680Y-40467246D01*
X56633300Y-40457225D01*
X56442165Y-40495244D01*
X56365431Y-40546515D01*
X56300958Y-40507952D01*
X56235647Y-40490178D01*
X56157920Y-40574021D01*
X56157920Y-40835626D01*
X56133840Y-40956685D01*
X56133840Y-42276315D01*
X56157920Y-42397373D01*
X56157920Y-42658979D01*
X56204729Y-42709471D01*
X56217554Y-42773946D01*
X56315102Y-42919936D01*
X57326870Y-43931704D01*
X57321226Y-43945297D01*
X57320941Y-44271314D01*
X57445440Y-44572624D01*
X57675767Y-44803354D01*
X57976859Y-44928378D01*
X58302876Y-44928663D01*
X58419757Y-44880368D01*
X58488857Y-45047603D01*
X58719184Y-45278333D01*
X59020276Y-45403357D01*
X59346293Y-45403642D01*
X59361119Y-45397515D01*
X65235800Y-51272196D01*
X65235800Y-51726792D01*
X65292890Y-51864620D01*
X65398379Y-51970110D01*
X65536208Y-52027200D01*
X65685392Y-52027200D01*
X66599792Y-52027200D01*
X66737620Y-51970110D01*
X66843110Y-51864621D01*
X66900200Y-51726792D01*
X66900200Y-51577608D01*
X66900200Y-50663208D01*
X66843110Y-50525380D01*
X66738500Y-50420769D01*
X66738500Y-48630092D01*
X66738500Y-48480908D01*
X66738500Y-48102750D01*
X66738500Y-47865250D01*
X66738500Y-47487092D01*
X66738500Y-47337908D01*
X66681410Y-47200079D01*
X66575920Y-47094590D01*
X66438092Y-47037500D01*
X66338500Y-47037500D01*
X66338500Y-42230092D01*
X66338500Y-42080908D01*
X66338500Y-41702750D01*
X66244750Y-41609000D01*
X65671000Y-41609000D01*
X65671000Y-42436750D01*
X65764750Y-42530500D01*
X66038092Y-42530500D01*
X66175920Y-42473410D01*
X66281410Y-42367921D01*
X66338500Y-42230092D01*
X66338500Y-47037500D01*
X66164750Y-47037500D01*
X66071000Y-47131250D01*
X66071000Y-47959000D01*
X66644750Y-47959000D01*
X66738500Y-47865250D01*
X66738500Y-48102750D01*
X66644750Y-48009000D01*
X66071000Y-48009000D01*
X66071000Y-48836750D01*
X66164750Y-48930500D01*
X66438092Y-48930500D01*
X66575920Y-48873410D01*
X66681410Y-48767921D01*
X66738500Y-48630092D01*
X66738500Y-50420769D01*
X66737621Y-50419890D01*
X66599792Y-50362800D01*
X66450608Y-50362800D01*
X66021000Y-50362800D01*
X66021000Y-48836750D01*
X66021000Y-48009000D01*
X66021000Y-47959000D01*
X66021000Y-47131250D01*
X65927250Y-47037500D01*
X65653908Y-47037500D01*
X65621000Y-47051130D01*
X65621000Y-42436750D01*
X65621000Y-41609000D01*
X65047250Y-41609000D01*
X64953500Y-41702750D01*
X64953500Y-42080908D01*
X64953500Y-42230092D01*
X65010590Y-42367921D01*
X65116080Y-42473410D01*
X65253908Y-42530500D01*
X65527250Y-42530500D01*
X65621000Y-42436750D01*
X65621000Y-47051130D01*
X65516080Y-47094590D01*
X65410590Y-47200079D01*
X65353500Y-47337908D01*
X65353500Y-47487092D01*
X65353500Y-47865250D01*
X65447250Y-47959000D01*
X66021000Y-47959000D01*
X66021000Y-48009000D01*
X65447250Y-48009000D01*
X65353500Y-48102750D01*
X65353500Y-48480908D01*
X65353500Y-48630092D01*
X65410590Y-48767921D01*
X65516080Y-48873410D01*
X65653908Y-48930500D01*
X65927250Y-48930500D01*
X66021000Y-48836750D01*
X66021000Y-50362800D01*
X65599196Y-50362800D01*
X64166896Y-48930500D01*
X64279092Y-48930500D01*
X64914092Y-48930500D01*
X65051920Y-48873410D01*
X65157410Y-48767921D01*
X65214500Y-48630092D01*
X65214500Y-48480908D01*
X65214500Y-47337908D01*
X65157410Y-47200080D01*
X65051921Y-47094590D01*
X64972000Y-47061486D01*
X64972000Y-46981196D01*
X64937746Y-46808989D01*
X64937746Y-46808988D01*
X64840198Y-46662998D01*
X64772000Y-46594800D01*
X64772000Y-46271300D01*
X64737746Y-46099092D01*
X64640198Y-45953102D01*
X64506746Y-45819650D01*
X64539949Y-45652731D01*
X64473315Y-45317737D01*
X64283556Y-45033744D01*
X64059449Y-44884000D01*
X64283556Y-44734256D01*
X64473315Y-44450263D01*
X64539949Y-44115269D01*
X64501681Y-43922882D01*
X64537746Y-43868908D01*
X64537747Y-43868907D01*
X64572000Y-43696700D01*
X64572000Y-42506513D01*
X64651920Y-42473410D01*
X64757410Y-42367921D01*
X64814500Y-42230092D01*
X64814500Y-42080908D01*
X64814500Y-41134000D01*
X64953500Y-41134000D01*
X64953500Y-41465250D01*
X65047250Y-41559000D01*
X65621000Y-41559000D01*
X65621000Y-41539000D01*
X65671000Y-41539000D01*
X65671000Y-41559000D01*
X66244750Y-41559000D01*
X66338500Y-41465250D01*
X66338500Y-41134000D01*
X77897604Y-41134000D01*
X80143833Y-43380229D01*
X80289823Y-43477777D01*
X80289824Y-43477777D01*
X80462031Y-43512031D01*
X93305969Y-43512031D01*
X93478176Y-43477777D01*
X93478177Y-43477777D01*
X93624167Y-43380229D01*
X98306683Y-38697712D01*
X98320276Y-38703357D01*
X98354677Y-38703387D01*
X80283063Y-56775001D01*
X78503642Y-56775001D01*
X78503642Y-47421707D01*
X78379143Y-47120397D01*
X78148816Y-46889667D01*
X77847724Y-46764643D01*
X77521707Y-46764358D01*
X77220397Y-46888857D01*
X76989667Y-47119184D01*
X76864643Y-47420276D01*
X76864358Y-47746293D01*
X76988857Y-48047603D01*
X77219184Y-48278333D01*
X77520276Y-48403357D01*
X77846293Y-48403642D01*
X78147603Y-48279143D01*
X78378333Y-48048816D01*
X78503357Y-47747724D01*
X78503642Y-47421707D01*
X78503642Y-56775001D01*
X73978840Y-56775001D01*
X74081901Y-56672120D01*
X74266989Y-56226379D01*
X74267410Y-55743738D01*
X74083101Y-55297675D01*
X73742120Y-54956099D01*
X73504000Y-54857222D01*
X73504000Y-53184000D01*
X73469746Y-53011792D01*
X73372198Y-52865802D01*
X73302198Y-52795802D01*
X73248703Y-52742307D01*
X72272198Y-51765802D01*
X72126208Y-51668254D01*
X71954000Y-51634000D01*
X68932200Y-51634000D01*
X68932200Y-51552208D01*
X68875110Y-51414380D01*
X68769621Y-51308890D01*
X68631792Y-51251800D01*
X68482608Y-51251800D01*
X67568208Y-51251800D01*
X67430380Y-51308890D01*
X67324890Y-51414379D01*
X67267800Y-51552208D01*
X67267800Y-51701392D01*
X67267800Y-52615792D01*
X67324890Y-52753620D01*
X67430379Y-52859110D01*
X67568208Y-52916200D01*
X67717392Y-52916200D01*
X68631792Y-52916200D01*
X68769620Y-52859110D01*
X68875110Y-52753621D01*
X68932200Y-52615792D01*
X68932200Y-52534000D01*
X71767604Y-52534000D01*
X72604000Y-53370396D01*
X72604000Y-54857251D01*
X72367675Y-54954899D01*
X72026099Y-55295880D01*
X71841011Y-55741621D01*
X71840590Y-56224262D01*
X72024899Y-56670325D01*
X72129392Y-56775001D01*
X71438840Y-56775001D01*
X71541901Y-56672120D01*
X71726989Y-56226379D01*
X71727410Y-55743738D01*
X71543101Y-55297675D01*
X71202120Y-54956099D01*
X70756379Y-54771011D01*
X70273738Y-54770590D01*
X69827675Y-54954899D01*
X69486099Y-55295880D01*
X69387222Y-55534000D01*
X69328607Y-55534000D01*
X69072000Y-55534000D01*
X69072000Y-54893408D01*
X69014910Y-54755580D01*
X68909421Y-54650090D01*
X68771592Y-54593000D01*
X68622408Y-54593000D01*
X67098408Y-54593000D01*
X66960580Y-54650090D01*
X66900200Y-54710469D01*
X66900200Y-53504792D01*
X66900200Y-53091750D01*
X66900200Y-52854250D01*
X66900200Y-52441208D01*
X66843110Y-52303380D01*
X66737621Y-52197890D01*
X66599792Y-52140800D01*
X66450608Y-52140800D01*
X66186750Y-52140800D01*
X66093000Y-52234550D01*
X66093000Y-52948000D01*
X66806450Y-52948000D01*
X66900200Y-52854250D01*
X66900200Y-53091750D01*
X66806450Y-52998000D01*
X66093000Y-52998000D01*
X66093000Y-53711450D01*
X66186750Y-53805200D01*
X66450608Y-53805200D01*
X66599792Y-53805200D01*
X66737621Y-53748110D01*
X66843110Y-53642620D01*
X66900200Y-53504792D01*
X66900200Y-54710469D01*
X66855090Y-54755579D01*
X66798000Y-54893408D01*
X66798000Y-55042592D01*
X66798000Y-56423064D01*
X66043000Y-55668064D01*
X66043000Y-53711450D01*
X66043000Y-52998000D01*
X66043000Y-52948000D01*
X66043000Y-52234550D01*
X65949250Y-52140800D01*
X65685392Y-52140800D01*
X65536208Y-52140800D01*
X65398379Y-52197890D01*
X65292890Y-52303380D01*
X65235800Y-52441208D01*
X65235800Y-52854250D01*
X65329550Y-52948000D01*
X66043000Y-52948000D01*
X66043000Y-52998000D01*
X65329550Y-52998000D01*
X65235800Y-53091750D01*
X65235800Y-53504792D01*
X65292890Y-53642620D01*
X65398379Y-53748110D01*
X65536208Y-53805200D01*
X65685392Y-53805200D01*
X65949250Y-53805200D01*
X66043000Y-53711450D01*
X66043000Y-55668064D01*
X66003968Y-55629032D01*
X65841107Y-55520212D01*
X65770000Y-55506067D01*
X65770000Y-54893408D01*
X65712910Y-54755580D01*
X65607421Y-54650090D01*
X65469592Y-54593000D01*
X65320408Y-54593000D01*
X63796408Y-54593000D01*
X63658580Y-54650090D01*
X63553090Y-54755579D01*
X63496000Y-54893408D01*
X63496000Y-55042592D01*
X63496000Y-55482000D01*
X56714500Y-55482000D01*
X56714500Y-55130092D01*
X56714500Y-54980908D01*
X56714500Y-54602750D01*
X56714500Y-54365250D01*
X56714500Y-53987092D01*
X56714500Y-53837908D01*
X56657410Y-53700079D01*
X56551920Y-53594590D01*
X56414092Y-53537500D01*
X56140750Y-53537500D01*
X56047000Y-53631250D01*
X56047000Y-54459000D01*
X56620750Y-54459000D01*
X56714500Y-54365250D01*
X56714500Y-54602750D01*
X56620750Y-54509000D01*
X56047000Y-54509000D01*
X56047000Y-55336750D01*
X56140750Y-55430500D01*
X56414092Y-55430500D01*
X56551920Y-55373410D01*
X56657410Y-55267921D01*
X56714500Y-55130092D01*
X56714500Y-55482000D01*
X55997000Y-55482000D01*
X55997000Y-55336750D01*
X55997000Y-54509000D01*
X55997000Y-54459000D01*
X55997000Y-53631250D01*
X55903250Y-53537500D01*
X55629908Y-53537500D01*
X55492080Y-53594590D01*
X55386590Y-53700079D01*
X55329500Y-53837908D01*
X55329500Y-53987092D01*
X55329500Y-54365250D01*
X55423250Y-54459000D01*
X55997000Y-54459000D01*
X55997000Y-54509000D01*
X55423250Y-54509000D01*
X55329500Y-54602750D01*
X55329500Y-54980908D01*
X55329500Y-55130092D01*
X55386590Y-55267921D01*
X55492080Y-55373410D01*
X55629908Y-55430500D01*
X55903250Y-55430500D01*
X55997000Y-55336750D01*
X55997000Y-55482000D01*
X55138500Y-55482000D01*
X55138500Y-55130092D01*
X55138500Y-54980908D01*
X55138500Y-54602750D01*
X55138500Y-54365250D01*
X55138500Y-53987092D01*
X55138500Y-53837908D01*
X55081410Y-53700079D01*
X54975920Y-53594590D01*
X54838092Y-53537500D01*
X54564750Y-53537500D01*
X54471000Y-53631250D01*
X54471000Y-54459000D01*
X55044750Y-54459000D01*
X55138500Y-54365250D01*
X55138500Y-54602750D01*
X55044750Y-54509000D01*
X54471000Y-54509000D01*
X54471000Y-55336750D01*
X54564750Y-55430500D01*
X54838092Y-55430500D01*
X54975920Y-55373410D01*
X55081410Y-55267921D01*
X55138500Y-55130092D01*
X55138500Y-55482000D01*
X54421000Y-55482000D01*
X54421000Y-55336750D01*
X54421000Y-54509000D01*
X54421000Y-54459000D01*
X54421000Y-53631250D01*
X54327250Y-53537500D01*
X54053908Y-53537500D01*
X53916080Y-53594590D01*
X53810590Y-53700079D01*
X53753500Y-53837908D01*
X53753500Y-53987092D01*
X53753500Y-54365250D01*
X53847250Y-54459000D01*
X54421000Y-54459000D01*
X54421000Y-54509000D01*
X53847250Y-54509000D01*
X53753500Y-54602750D01*
X53753500Y-54980908D01*
X53753500Y-55130092D01*
X53810590Y-55267921D01*
X53916080Y-55373410D01*
X54053908Y-55430500D01*
X54327250Y-55430500D01*
X54421000Y-55336750D01*
X54421000Y-55482000D01*
X51250600Y-55482000D01*
X51250600Y-54276208D01*
X51193510Y-54138380D01*
X51088021Y-54032890D01*
X50950192Y-53975800D01*
X50801008Y-53975800D01*
X49073808Y-53975800D01*
X48935980Y-54032890D01*
X48830490Y-54138379D01*
X48773400Y-54276208D01*
X48773400Y-54425392D01*
X48773400Y-56457392D01*
X48830490Y-56595220D01*
X48935979Y-56700710D01*
X49073808Y-56757800D01*
X49222992Y-56757800D01*
X50950192Y-56757800D01*
X51088020Y-56700710D01*
X51193510Y-56595221D01*
X51238750Y-56486000D01*
X63496000Y-56486000D01*
X63496000Y-57074592D01*
X63553090Y-57212420D01*
X63658579Y-57317910D01*
X63796408Y-57375000D01*
X63945592Y-57375000D01*
X65469592Y-57375000D01*
X65607420Y-57317910D01*
X65712910Y-57212421D01*
X65770000Y-57074592D01*
X65770000Y-56925408D01*
X65770000Y-56814935D01*
X66587030Y-57631965D01*
X66587033Y-57631969D01*
X66587034Y-57631969D01*
X66749894Y-57740789D01*
X66942001Y-57779002D01*
X66942001Y-57779001D01*
X66942006Y-57779001D01*
X80490993Y-57779001D01*
X80490999Y-57779002D01*
X80490999Y-57779001D01*
X80683106Y-57740789D01*
X80845967Y-57631969D01*
X99760465Y-38717469D01*
X99760468Y-38717467D01*
X99760469Y-38717467D01*
X99825701Y-38619839D01*
X99869289Y-38554607D01*
X99869289Y-38554606D01*
X99907501Y-38362499D01*
X99907501Y-37199163D01*
X99907501Y-37199158D01*
X99907502Y-37199158D01*
X99869289Y-37007051D01*
X99869289Y-37007050D01*
X99760469Y-36844190D01*
X98402312Y-35486033D01*
X98239451Y-35377213D01*
X98047344Y-35339000D01*
X98047338Y-35339001D01*
X96541197Y-35339001D01*
X96541197Y-18838829D01*
X96368464Y-18420783D01*
X96048900Y-18100660D01*
X95631155Y-17927198D01*
X95178829Y-17926803D01*
X94760783Y-18099536D01*
X94440660Y-18419100D01*
X94267198Y-18836845D01*
X94266803Y-19289171D01*
X94439536Y-19707217D01*
X94759100Y-20027340D01*
X95176845Y-20200802D01*
X95629171Y-20201197D01*
X96047217Y-20028464D01*
X96367340Y-19708900D01*
X96540802Y-19291155D01*
X96541197Y-18838829D01*
X96541197Y-35339001D01*
X94001197Y-35339001D01*
X94001197Y-18838829D01*
X93828464Y-18420783D01*
X93508900Y-18100660D01*
X93091155Y-17927198D01*
X92638829Y-17926803D01*
X92220783Y-18099536D01*
X91900660Y-18419100D01*
X91727198Y-18836845D01*
X91726803Y-19289171D01*
X91899536Y-19707217D01*
X92219100Y-20027340D01*
X92636845Y-20200802D01*
X93089171Y-20201197D01*
X93507217Y-20028464D01*
X93827340Y-19708900D01*
X94000802Y-19291155D01*
X94001197Y-18838829D01*
X94001197Y-35339001D01*
X86701001Y-35339001D01*
X86701001Y-32562001D01*
X86662789Y-32369894D01*
X86662789Y-32369893D01*
X86619201Y-32304660D01*
X86553969Y-32207033D01*
X86553965Y-32207030D01*
X86530968Y-32184032D01*
X86368107Y-32075212D01*
X86297000Y-32061067D01*
X86297000Y-31956408D01*
X86239910Y-31818580D01*
X86134421Y-31713090D01*
X85996592Y-31656000D01*
X85916000Y-31656000D01*
X85916000Y-28436405D01*
X85916000Y-28436400D01*
X85916001Y-28436400D01*
X85877788Y-28244293D01*
X85768968Y-28081433D01*
X85768968Y-28081432D01*
X85768964Y-28081429D01*
X78346568Y-20659032D01*
X78183707Y-20550212D01*
X78112600Y-20536067D01*
X78112600Y-20075808D01*
X78055510Y-19937980D01*
X77950021Y-19832490D01*
X77812192Y-19775400D01*
X77663008Y-19775400D01*
X77376000Y-19775400D01*
X77376000Y-19274005D01*
X77376000Y-19274000D01*
X77376001Y-19274000D01*
X77337788Y-19081893D01*
X77228968Y-18919032D01*
X71735344Y-13425408D01*
X106719773Y-13411525D01*
X110015000Y-16706751D01*
X110015000Y-56953248D01*
M02*
