%FSLAX46Y46*%
G04 Gerber Fmt 4.6, Leading zero omitted, Abs format (unit mm)*
G04 Created by KiCad (PCBNEW (2014-08-02 BZR 5044)-product) date 13.08.2014 17:47:44*
%MOMM*%
G01*
G04 APERTURE LIST*
%ADD10C,0.150000*%
%ADD11R,0.635000X1.143000*%
%ADD12R,1.143000X0.635000*%
%ADD13R,1.727200X2.032000*%
%ADD14O,1.727200X2.032000*%
%ADD15R,2.301240X0.500380*%
%ADD16R,2.499360X1.998980*%
%ADD17C,0.899160*%
%ADD18R,1.600200X1.803400*%
%ADD19R,0.797560X0.797560*%
%ADD20R,3.657600X2.032000*%
%ADD21R,1.016000X2.032000*%
%ADD22R,1.800860X3.149600*%
%ADD23R,2.032000X1.524000*%
%ADD24R,0.248920X1.524000*%
%ADD25O,0.248920X1.524000*%
%ADD26O,1.524000X0.248920*%
%ADD27R,5.499100X1.998980*%
%ADD28R,2.032000X1.727200*%
%ADD29O,2.032000X1.727200*%
%ADD30C,1.397000*%
%ADD31R,0.381000X1.270000*%
%ADD32R,1.016000X1.016000*%
%ADD33C,1.016000*%
%ADD34R,1.727200X1.727200*%
%ADD35O,1.727200X1.727200*%
%ADD36C,1.000760*%
%ADD37C,1.524000*%
%ADD38C,1.676400*%
%ADD39R,1.524000X2.032000*%
%ADD40R,0.914400X0.914400*%
G04 APERTURE END LIST*
D10*
D11*
X45998800Y-23008000D03*
X47522800Y-23008000D03*
D12*
X46484000Y-33646000D03*
X46484000Y-32122000D03*
D13*
X42855600Y-18328800D03*
D14*
X45395600Y-18328800D03*
X47935600Y-18328800D03*
X50475600Y-18328800D03*
D11*
X43000400Y-24054000D03*
X44524400Y-24054000D03*
X44722000Y-27784000D03*
X46246000Y-27784000D03*
D15*
X31133320Y-39583800D03*
X31133320Y-40383900D03*
X31133320Y-41184000D03*
X31133320Y-41984100D03*
X31133320Y-42784200D03*
D16*
X31034260Y-36733920D03*
X25535160Y-36733920D03*
X31034260Y-45634080D03*
X25535160Y-45634080D03*
D17*
X28534900Y-38984360D03*
X28534900Y-43383640D03*
D18*
X33928200Y-57781200D03*
X31134200Y-57781200D03*
D19*
X38429200Y-53049100D03*
X38429200Y-54547700D03*
D20*
X33688400Y-48225200D03*
D21*
X33688400Y-54829200D03*
X35974400Y-54829200D03*
X31402400Y-54829200D03*
D22*
X26555200Y-54400380D03*
X26555200Y-50148420D03*
D23*
X36284000Y-35065000D03*
X36284000Y-38367000D03*
D24*
X59633040Y-29714060D03*
D25*
X59132660Y-29714060D03*
X58632280Y-29714060D03*
X58131900Y-29714060D03*
X57631520Y-29714060D03*
X57133680Y-29714060D03*
X56633300Y-29714060D03*
X56132920Y-29714060D03*
X55632540Y-29714060D03*
X55132160Y-29714060D03*
X54631780Y-29714060D03*
X54133940Y-29714060D03*
X53633560Y-29714060D03*
X53133180Y-29714060D03*
X52632800Y-29714060D03*
X52132420Y-29714060D03*
D26*
X49851500Y-31834960D03*
X49851500Y-32335340D03*
X49851500Y-32835720D03*
X49851500Y-33336100D03*
X49851500Y-33836480D03*
X49851500Y-34334320D03*
X49851500Y-34834700D03*
X49851500Y-35335080D03*
X49851500Y-35835460D03*
X49851500Y-36335840D03*
X49851500Y-36836220D03*
X49851500Y-37334060D03*
X49851500Y-37834440D03*
X49851500Y-38334820D03*
X49851500Y-38835200D03*
X49851500Y-39335580D03*
D25*
X52132420Y-41616500D03*
X52632800Y-41616500D03*
X53133180Y-41616500D03*
X53633560Y-41616500D03*
X54133940Y-41616500D03*
X54631780Y-41616500D03*
X55132160Y-41616500D03*
X55632540Y-41616500D03*
X56132920Y-41616500D03*
X56633300Y-41616500D03*
X57133680Y-41616500D03*
X57631520Y-41616500D03*
X58131900Y-41616500D03*
X58632280Y-41616500D03*
X59132660Y-41616500D03*
X59633040Y-41616500D03*
D26*
X61753940Y-39335580D03*
X61753940Y-38835200D03*
X61753940Y-37834440D03*
X61771720Y-38334820D03*
X61753940Y-37334060D03*
X61753940Y-36836220D03*
X61753940Y-36335840D03*
X61753940Y-35835460D03*
X61753940Y-35335080D03*
X61753940Y-34834700D03*
X61753940Y-34341940D03*
X61753940Y-33841560D03*
X61753940Y-33341180D03*
X61753940Y-32840800D03*
X61753940Y-32342960D03*
X61753940Y-31842580D03*
D18*
X67981000Y-38384000D03*
X65187000Y-38384000D03*
D11*
X56646000Y-27284000D03*
X55122000Y-27284000D03*
D12*
X46784000Y-35522000D03*
X46784000Y-37046000D03*
D13*
X50594000Y-15484000D03*
D14*
X53134000Y-15484000D03*
X55674000Y-15484000D03*
X58214000Y-15484000D03*
X60754000Y-15484000D03*
X63294000Y-15484000D03*
X65834000Y-15484000D03*
X68374000Y-15484000D03*
D27*
X59983000Y-50584000D03*
X50585000Y-50584000D03*
D11*
X56146000Y-46084000D03*
X54622000Y-46084000D03*
X64122000Y-41584000D03*
X65646000Y-41584000D03*
X52922000Y-54484000D03*
X54446000Y-54484000D03*
X57546000Y-54484000D03*
X56022000Y-54484000D03*
D28*
X27384000Y-19274000D03*
D29*
X27384000Y-21814000D03*
X27384000Y-24354000D03*
X27384000Y-26894000D03*
D13*
X27434000Y-16684000D03*
D14*
X29974000Y-16684000D03*
X32514000Y-16684000D03*
X35054000Y-16684000D03*
X37594000Y-16684000D03*
X40134000Y-16684000D03*
D12*
X37784000Y-30122000D03*
X37784000Y-31646000D03*
X41484000Y-28422000D03*
X41484000Y-29946000D03*
X31335001Y-28928000D03*
X31335001Y-30452000D03*
D10*
G36*
X25610000Y-32443224D02*
X26597828Y-33431052D01*
X25610000Y-34418880D01*
X24622172Y-33431052D01*
X25610000Y-32443224D01*
X25610000Y-32443224D01*
G37*
D30*
X27406051Y-31635001D03*
X25610000Y-29838950D03*
D12*
X38524400Y-50254000D03*
X38524400Y-51778000D03*
X43784000Y-42422000D03*
X43784000Y-43946000D03*
D11*
X39922000Y-47484000D03*
X41446000Y-47484000D03*
D31*
X42059360Y-41325000D03*
X41409120Y-41325000D03*
X40758880Y-41325000D03*
X40108640Y-41325000D03*
X40108640Y-45643000D03*
X40758880Y-45643000D03*
X41409120Y-45643000D03*
X42059360Y-45643000D03*
D13*
X50012000Y-55366800D03*
D14*
X47472000Y-55366800D03*
X44932000Y-55366800D03*
X42392000Y-55366800D03*
D11*
X46722000Y-41184000D03*
X48246000Y-41184000D03*
D32*
X85414000Y-32539000D03*
D33*
X85414000Y-33809000D03*
X85414000Y-35079000D03*
X85414000Y-36349000D03*
X85414000Y-37619000D03*
X85414000Y-38889000D03*
X85414000Y-40159000D03*
X85414000Y-41429000D03*
D19*
X71834700Y-33684000D03*
X73333300Y-33684000D03*
D34*
X76874000Y-21014000D03*
D35*
X76874000Y-23554000D03*
X74334000Y-21014000D03*
X74334000Y-23554000D03*
X71794000Y-21014000D03*
X71794000Y-23554000D03*
X69254000Y-21014000D03*
X69254000Y-23554000D03*
X66714000Y-21014000D03*
X66714000Y-23554000D03*
X64174000Y-21014000D03*
X64174000Y-23554000D03*
X61634000Y-21014000D03*
X61634000Y-23554000D03*
X59094000Y-21014000D03*
X59094000Y-23554000D03*
D11*
X68922000Y-33684000D03*
X70446000Y-33684000D03*
D36*
X63295155Y-43745855D02*
X63648977Y-44099677D01*
X63648977Y-45668323D02*
X63295155Y-46022145D01*
D37*
X92864000Y-57164000D03*
X95404000Y-57164000D03*
X97944000Y-57164000D03*
X100484000Y-57164000D03*
X103024000Y-57164000D03*
X105564000Y-57164000D03*
X108104000Y-57164000D03*
X108104000Y-19064000D03*
X105564000Y-19064000D03*
X103024000Y-19064000D03*
X100484000Y-19064000D03*
X97944000Y-19064000D03*
X95404000Y-19064000D03*
X92864000Y-19064000D03*
D38*
X70514000Y-55984000D03*
X73054000Y-55984000D03*
D39*
X64633000Y-55984000D03*
X67935000Y-55984000D03*
D40*
X66068000Y-52973000D03*
X66068000Y-51195000D03*
X68100000Y-52084000D03*
D11*
X64522000Y-47984000D03*
X66046000Y-47984000D03*
M02*
