M48
;DRILL file {kicad (2014-08-02 BZR 5044)-product} date 13.08.2014 17:47:52
;FORMAT={-:-/ absolute / inch / decimal}
FMAT,2
INCH,TZ
T1C0.024
T2C0.025
T3C0.031
T4C0.032
T5C0.035
T6C0.040
%
G90
G05
M72
T1
X2.5072Y-1.7376
X2.5072Y-1.7966
T2
X1.5269Y-1.7907
X1.582Y-2.
X1.63Y-2.074
X1.6457Y-1.4843
X1.7159Y-1.3458
X1.733Y-1.4957
X1.7663Y-1.0042
X1.7839Y-1.5033
X1.838Y-0.9876
X1.8746Y-1.5355
X1.91Y-1.885
X1.9246Y-1.0781
X2.0364Y-1.375
X2.0612Y-1.4645
X2.1139Y-1.4779
X2.1139Y-1.5188
X2.2Y-1.4525
X2.2227Y-1.4012
X2.2315Y-1.3003
X2.2447Y-1.5092
X2.2513Y-1.8261
X2.275Y-1.4447
X2.2784Y-1.3878
X2.289Y-1.7366
X2.3131Y-1.43
X2.3286Y-1.5197
X2.3301Y-1.7553
X2.4746Y-1.1283
X2.5071Y-1.4766
X2.7877Y-1.5281
X2.8936Y-1.5374
X2.9138Y-0.7267
X3.0269Y-1.338
X3.0584Y-1.8734
X3.1214Y-0.9443
X3.3025Y-1.1529
X3.3628Y-1.2811
X3.3628Y-1.3311
X3.3628Y-1.3811
X3.3628Y-1.4311
X3.3628Y-1.4811
X3.3628Y-1.5311
X3.3628Y-1.5811
X3.3628Y-1.6311
X3.7002Y-2.0781
X3.7583Y-1.5733
X3.8244Y-1.4743
X3.8419Y-1.9561
X3.8495Y-1.4419
X3.8773Y-1.4915
X4.0521Y-1.1144
X4.1017Y-1.9455
T3
X3.6561Y-0.7506
X3.6561Y-2.2506
X3.7561Y-0.7506
X3.7561Y-2.2506
X3.8561Y-0.7506
X3.8561Y-2.2506
X3.9561Y-0.7506
X3.9561Y-2.2506
X4.0561Y-0.7506
X4.0561Y-2.2506
X4.1561Y-0.7506
X4.1561Y-2.2506
X4.2561Y-0.7506
X4.2561Y-2.2506
T4
X1.0083Y-1.1748
X1.0083Y-1.3162
X1.079Y-1.2455
X2.7761Y-2.2041
X2.8761Y-2.2041
T5
X1.1234Y-1.5348
X1.1234Y-1.708
T6
X1.0781Y-0.7588
X1.0781Y-0.8588
X1.0781Y-0.9588
X1.0781Y-1.0588
X1.0801Y-0.6569
X1.1801Y-0.6569
X1.2801Y-0.6569
X1.3801Y-0.6569
X1.4801Y-0.6569
X1.5801Y-0.6569
X1.669Y-2.1798
X1.6872Y-0.7216
X1.769Y-2.1798
X1.7872Y-0.7216
X1.869Y-2.1798
X1.8872Y-0.7216
X1.969Y-2.1798
X1.9872Y-0.7216
X1.9919Y-0.6096
X2.0919Y-0.6096
X2.1919Y-0.6096
X2.2919Y-0.6096
X2.3265Y-0.8273
X2.3265Y-0.9273
X2.3919Y-0.6096
X2.4265Y-0.8273
X2.4265Y-0.9273
X2.4919Y-0.6096
X2.5265Y-0.8273
X2.5265Y-0.9273
X2.5919Y-0.6096
X2.6265Y-0.8273
X2.6265Y-0.9273
X2.6919Y-0.6096
X2.7265Y-0.8273
X2.7265Y-0.9273
X2.8265Y-0.8273
X2.8265Y-0.9273
X2.9265Y-0.8273
X2.9265Y-0.9273
X3.0265Y-0.8273
X3.0265Y-0.9273
T0
M30
