%FSLAX46Y46*%
G04 Gerber Fmt 4.6, Leading zero omitted, Abs format (unit mm)*
G04 Created by KiCad (PCBNEW (2014-08-02 BZR 5044)-product) date 13.08.2014 13:27:26*
%MOMM*%
G01*
G04 APERTURE LIST*
%ADD10C,0.150000*%
%ADD11R,1.143000X0.635000*%
%ADD12R,0.248920X1.524000*%
%ADD13O,0.248920X1.524000*%
%ADD14O,1.524000X0.248920*%
%ADD15R,1.016000X1.016000*%
%ADD16C,1.016000*%
%ADD17R,1.600200X1.803400*%
%ADD18R,2.301240X0.500380*%
%ADD19R,2.499360X1.998980*%
%ADD20C,0.899160*%
%ADD21R,0.797560X0.797560*%
%ADD22C,1.676400*%
%ADD23R,1.727200X2.032000*%
%ADD24O,1.727200X2.032000*%
%ADD25R,2.032000X1.727200*%
%ADD26O,2.032000X1.727200*%
%ADD27R,1.727200X1.727200*%
%ADD28O,1.727200X1.727200*%
%ADD29R,3.657600X2.032000*%
%ADD30R,1.016000X2.032000*%
%ADD31R,5.499100X1.998980*%
%ADD32R,1.800860X3.149600*%
%ADD33R,0.635000X1.143000*%
%ADD34R,1.524000X2.032000*%
%ADD35C,1.524000*%
%ADD36R,0.914400X0.914400*%
%ADD37R,0.381000X1.270000*%
%ADD38C,1.000760*%
G04 APERTURE END LIST*
D10*
D11*
X47500000Y-34662000D03*
X47500000Y-33138000D03*
D12*
X60649040Y-30730060D03*
D13*
X60148660Y-30730060D03*
X59648280Y-30730060D03*
X59147900Y-30730060D03*
X58647520Y-30730060D03*
X58149680Y-30730060D03*
X57649300Y-30730060D03*
X57148920Y-30730060D03*
X56648540Y-30730060D03*
X56148160Y-30730060D03*
X55647780Y-30730060D03*
X55149940Y-30730060D03*
X54649560Y-30730060D03*
X54149180Y-30730060D03*
X53648800Y-30730060D03*
X53148420Y-30730060D03*
D14*
X50867500Y-32850960D03*
X50867500Y-33351340D03*
X50867500Y-33851720D03*
X50867500Y-34352100D03*
X50867500Y-34852480D03*
X50867500Y-35350320D03*
X50867500Y-35850700D03*
X50867500Y-36351080D03*
X50867500Y-36851460D03*
X50867500Y-37351840D03*
X50867500Y-37852220D03*
X50867500Y-38350060D03*
X50867500Y-38850440D03*
X50867500Y-39350820D03*
X50867500Y-39851200D03*
X50867500Y-40351580D03*
D13*
X53148420Y-42632500D03*
X53648800Y-42632500D03*
X54149180Y-42632500D03*
X54649560Y-42632500D03*
X55149940Y-42632500D03*
X55647780Y-42632500D03*
X56148160Y-42632500D03*
X56648540Y-42632500D03*
X57148920Y-42632500D03*
X57649300Y-42632500D03*
X58149680Y-42632500D03*
X58647520Y-42632500D03*
X59147900Y-42632500D03*
X59648280Y-42632500D03*
X60148660Y-42632500D03*
X60649040Y-42632500D03*
D14*
X62769940Y-40351580D03*
X62769940Y-39851200D03*
X62769940Y-38850440D03*
X62787720Y-39350820D03*
X62769940Y-38350060D03*
X62769940Y-37852220D03*
X62769940Y-37351840D03*
X62769940Y-36851460D03*
X62769940Y-36351080D03*
X62769940Y-35850700D03*
X62769940Y-35357940D03*
X62769940Y-34857560D03*
X62769940Y-34357180D03*
X62769940Y-33856800D03*
X62769940Y-33358960D03*
X62769940Y-32858580D03*
D15*
X86430000Y-33555000D03*
D16*
X86430000Y-34825000D03*
X86430000Y-36095000D03*
X86430000Y-37365000D03*
X86430000Y-38635000D03*
X86430000Y-39905000D03*
X86430000Y-41175000D03*
X86430000Y-42445000D03*
D17*
X68997000Y-39400000D03*
X66203000Y-39400000D03*
X29497000Y-55800000D03*
X26703000Y-55800000D03*
D18*
X22849320Y-36099800D03*
X22849320Y-36899900D03*
X22849320Y-37700000D03*
X22849320Y-38500100D03*
X22849320Y-39300200D03*
D19*
X22750260Y-33249920D03*
X17251160Y-33249920D03*
X22750260Y-42150080D03*
X17251160Y-42150080D03*
D20*
X20250900Y-35500360D03*
X20250900Y-39899640D03*
D21*
X26949300Y-58800000D03*
X25450700Y-58800000D03*
X72850700Y-34700000D03*
X74349300Y-34700000D03*
D22*
X71530000Y-57000000D03*
X74070000Y-57000000D03*
D23*
X38690000Y-16500000D03*
D24*
X41230000Y-16500000D03*
X43770000Y-16500000D03*
X46310000Y-16500000D03*
D25*
X15500000Y-19390000D03*
D26*
X15500000Y-21930000D03*
X15500000Y-24470000D03*
X15500000Y-27010000D03*
D27*
X77890000Y-22030000D03*
D28*
X77890000Y-24570000D03*
X75350000Y-22030000D03*
X75350000Y-24570000D03*
X72810000Y-22030000D03*
X72810000Y-24570000D03*
X70270000Y-22030000D03*
X70270000Y-24570000D03*
X67730000Y-22030000D03*
X67730000Y-24570000D03*
X65190000Y-22030000D03*
X65190000Y-24570000D03*
X62650000Y-22030000D03*
X62650000Y-24570000D03*
X60110000Y-22030000D03*
X60110000Y-24570000D03*
D29*
X28800000Y-46498000D03*
D30*
X28800000Y-53102000D03*
X31086000Y-53102000D03*
X26514000Y-53102000D03*
D31*
X60999000Y-51600000D03*
X51601000Y-51600000D03*
D32*
X20600000Y-56025980D03*
X20600000Y-51774020D03*
D23*
X19650000Y-17700000D03*
D24*
X22190000Y-17700000D03*
X24730000Y-17700000D03*
X27270000Y-17700000D03*
X29810000Y-17700000D03*
X32350000Y-17700000D03*
D33*
X30862000Y-59200000D03*
X29338000Y-59200000D03*
D11*
X38800000Y-31138000D03*
X38800000Y-32662000D03*
D33*
X69938000Y-34700000D03*
X71462000Y-34700000D03*
D34*
X65649000Y-57000000D03*
X68951000Y-57000000D03*
D33*
X40538000Y-20300000D03*
X42062000Y-20300000D03*
X39638000Y-22200000D03*
X41162000Y-22200000D03*
X45738000Y-28800000D03*
X47262000Y-28800000D03*
D35*
X93880000Y-58180000D03*
X96420000Y-58180000D03*
X98960000Y-58180000D03*
X101500000Y-58180000D03*
X104040000Y-58180000D03*
X106580000Y-58180000D03*
X109120000Y-58180000D03*
X109120000Y-20080000D03*
X106580000Y-20080000D03*
X104040000Y-20080000D03*
X101500000Y-20080000D03*
X98960000Y-20080000D03*
X96420000Y-20080000D03*
X93880000Y-20080000D03*
D36*
X67084000Y-53989000D03*
X67084000Y-52211000D03*
X69116000Y-53100000D03*
D11*
X44800000Y-43438000D03*
X44800000Y-44962000D03*
D33*
X57162000Y-47100000D03*
X55638000Y-47100000D03*
X65538000Y-49000000D03*
X67062000Y-49000000D03*
X65138000Y-42600000D03*
X66662000Y-42600000D03*
X57662000Y-28300000D03*
X56138000Y-28300000D03*
D11*
X47800000Y-36538000D03*
X47800000Y-38062000D03*
D33*
X53938000Y-55500000D03*
X55462000Y-55500000D03*
X58562000Y-55500000D03*
X57038000Y-55500000D03*
D11*
X42500000Y-29438000D03*
X42500000Y-30962000D03*
D23*
X51610000Y-16500000D03*
D24*
X54150000Y-16500000D03*
X56690000Y-16500000D03*
X59230000Y-16500000D03*
X61770000Y-16500000D03*
X64310000Y-16500000D03*
X66850000Y-16500000D03*
X69390000Y-16500000D03*
D33*
X39262000Y-48000000D03*
X37738000Y-48000000D03*
D37*
X43075360Y-42341000D03*
X42425120Y-42341000D03*
X41774880Y-42341000D03*
X41124640Y-42341000D03*
X41124640Y-46659000D03*
X41774880Y-46659000D03*
X42425120Y-46659000D03*
X43075360Y-46659000D03*
D23*
X44610000Y-55200000D03*
D24*
X42070000Y-55200000D03*
X39530000Y-55200000D03*
X36990000Y-55200000D03*
D34*
X30151000Y-35000000D03*
X26849000Y-35000000D03*
D33*
X47738000Y-42200000D03*
X49262000Y-42200000D03*
D38*
X64311155Y-44761855D02*
X64664977Y-45115677D01*
X64664977Y-46684323D02*
X64311155Y-47038145D01*
M02*
