M48
;DRILL file {KiCad 4.0.0-1rc2.201511201506+6189~38~ubuntu14.04.1-stable} date Son 29 Nov 2015 20:00:39 CET
;FORMAT={-:-/ absolute / inch / decimal}
FMAT,2
INCH,TZ
T1C0.024
T2C0.025
T3C0.031
T4C0.032
T5C0.040
T6C0.035
%
G90
G05
M72
T1
X2.5072Y-1.7376
X2.5072Y-1.7966
T2
X1.5269Y-1.7907
X1.582Y-2.
X1.63Y-2.074
X1.6457Y-1.4843
X1.7159Y-1.3458
X1.733Y-1.4957
X1.7663Y-1.0042
X1.7839Y-1.5033
X1.838Y-0.9876
X1.8746Y-1.5355
X1.91Y-1.885
X1.9246Y-1.0781
X2.0364Y-1.375
X2.0612Y-1.4645
X2.1139Y-1.4779
X2.1139Y-1.5188
X2.2315Y-1.3003
X2.24Y-1.535
X2.2483Y-1.4495
X2.2513Y-1.8261
X2.2603Y-1.3741
X2.285Y-1.565
X2.325Y-1.4825
X2.3301Y-1.7553
X2.3302Y-1.3824
X2.3494Y-1.5414
X2.4746Y-1.1283
X2.4909Y-1.5842
X2.4952Y-1.5308
X2.5076Y-1.4736
X2.6799Y-1.5701
X2.84Y-1.805
X2.8865Y-1.8055
X2.9138Y-0.7267
X3.0419Y-1.3671
X3.1214Y-0.9443
X3.2756Y-1.1264
X3.3628Y-1.2811
X3.3628Y-1.3311
X3.3628Y-1.3811
X3.3628Y-1.4311
X3.3628Y-1.4811
X3.3628Y-1.5311
X3.3628Y-1.5811
X3.3628Y-1.6311
X3.835Y-1.855
X3.84Y-1.95
X3.86Y-1.665
X4.085Y-1.63
X4.21Y-2.015
T3
X3.6561Y-0.7506
X3.6561Y-2.2506
X3.7561Y-0.7506
X3.7561Y-2.2506
X3.8561Y-0.7506
X3.8561Y-2.2506
X3.9561Y-0.7506
X3.9561Y-2.2506
X4.0561Y-0.7506
X4.0561Y-2.2506
X4.1561Y-0.7506
X4.1561Y-2.2506
X4.2561Y-0.7506
X4.2561Y-2.2506
T4
X1.0083Y-1.1748
X1.0083Y-1.3162
X1.079Y-1.2455
X2.413Y-2.266
X2.513Y-2.266
T5
X1.0781Y-0.7588
X1.0781Y-0.8588
X1.0781Y-0.9588
X1.0781Y-1.0588
X1.0801Y-0.6569
X1.1801Y-0.6569
X1.2801Y-0.6569
X1.3801Y-0.6569
X1.4801Y-0.6569
X1.5801Y-0.6569
X1.669Y-2.1798
X1.6872Y-0.7216
X1.769Y-2.1798
X1.7872Y-0.7216
X1.869Y-2.1798
X1.8872Y-0.7216
X1.969Y-2.1798
X1.9872Y-0.7216
X1.9919Y-0.6096
X2.0919Y-0.6096
X2.1919Y-0.6096
X2.2919Y-0.6096
X2.3265Y-0.8273
X2.3265Y-0.9273
X2.3919Y-0.6096
X2.4265Y-0.8273
X2.4265Y-0.9273
X2.4919Y-0.6096
X2.5265Y-0.8273
X2.5265Y-0.9273
X2.5919Y-0.6096
X2.6265Y-0.8273
X2.6265Y-0.9273
X2.6919Y-0.6096
X2.7265Y-0.8273
X2.7265Y-0.9273
X2.8265Y-0.8273
X2.8265Y-0.9273
X2.9265Y-0.8273
X2.9265Y-0.9273
X3.0265Y-0.8273
X3.0265Y-0.9273
T6
X1.1234Y-1.5348
X1.1234Y-1.708
T0
M30
