%FSLAX46Y46*%
G04 Gerber Fmt 4.6, Leading zero omitted, Abs format (unit mm)*
G04 Created by KiCad (PCBNEW (2014-08-02 BZR 5044)-product) date 13.08.2014 17:47:44*
%MOMM*%
G01*
G04 APERTURE LIST*
%ADD10C,0.150000*%
%ADD11C,0.250000*%
%ADD12C,0.200000*%
%ADD13C,0.127000*%
%ADD14C,0.119380*%
%ADD15C,0.254000*%
%ADD16C,0.381000*%
%ADD17C,0.066040*%
%ADD18C,0.101600*%
%ADD19C,0.203200*%
%ADD20C,0.304800*%
%ADD21C,0.152400*%
%ADD22C,0.114300*%
%ADD23C,0.088900*%
%ADD24C,0.129540*%
G04 APERTURE END LIST*
D10*
D11*
X58992190Y-18232381D02*
X58658856Y-17756190D01*
X58420761Y-18232381D02*
X58420761Y-17232381D01*
X58801714Y-17232381D01*
X58896952Y-17280000D01*
X58944571Y-17327619D01*
X58992190Y-17422857D01*
X58992190Y-17565714D01*
X58944571Y-17660952D01*
X58896952Y-17708571D01*
X58801714Y-17756190D01*
X58420761Y-17756190D01*
X59420761Y-18232381D02*
X59420761Y-17232381D01*
X59801714Y-17232381D01*
X59896952Y-17280000D01*
X59944571Y-17327619D01*
X59992190Y-17422857D01*
X59992190Y-17565714D01*
X59944571Y-17660952D01*
X59896952Y-17708571D01*
X59801714Y-17756190D01*
X59420761Y-17756190D01*
X61135047Y-17327619D02*
X61182666Y-17280000D01*
X61277904Y-17232381D01*
X61516000Y-17232381D01*
X61611238Y-17280000D01*
X61658857Y-17327619D01*
X61706476Y-17422857D01*
X61706476Y-17518095D01*
X61658857Y-17660952D01*
X61087428Y-18232381D01*
X61706476Y-18232381D01*
X62658857Y-18232381D02*
X62087428Y-18232381D01*
X62373142Y-18232381D02*
X62373142Y-17232381D01*
X62277904Y-17375238D01*
X62182666Y-17470476D01*
X62087428Y-17518095D01*
X63801714Y-17327619D02*
X63849333Y-17280000D01*
X63944571Y-17232381D01*
X64182667Y-17232381D01*
X64277905Y-17280000D01*
X64325524Y-17327619D01*
X64373143Y-17422857D01*
X64373143Y-17518095D01*
X64325524Y-17660952D01*
X63754095Y-18232381D01*
X64373143Y-18232381D01*
X65230286Y-17232381D02*
X65039809Y-17232381D01*
X64944571Y-17280000D01*
X64896952Y-17327619D01*
X64801714Y-17470476D01*
X64754095Y-17660952D01*
X64754095Y-18041905D01*
X64801714Y-18137143D01*
X64849333Y-18184762D01*
X64944571Y-18232381D01*
X65135048Y-18232381D01*
X65230286Y-18184762D01*
X65277905Y-18137143D01*
X65325524Y-18041905D01*
X65325524Y-17803810D01*
X65277905Y-17708571D01*
X65230286Y-17660952D01*
X65135048Y-17613333D01*
X64944571Y-17613333D01*
X64849333Y-17660952D01*
X64801714Y-17708571D01*
X64754095Y-17803810D01*
X67039810Y-18232381D02*
X66468381Y-18232381D01*
X66754095Y-18232381D02*
X66754095Y-17232381D01*
X66658857Y-17375238D01*
X66563619Y-17470476D01*
X66468381Y-17518095D01*
X67516000Y-18232381D02*
X67706476Y-18232381D01*
X67801715Y-18184762D01*
X67849334Y-18137143D01*
X67944572Y-17994286D01*
X67992191Y-17803810D01*
X67992191Y-17422857D01*
X67944572Y-17327619D01*
X67896953Y-17280000D01*
X67801715Y-17232381D01*
X67611238Y-17232381D01*
X67516000Y-17280000D01*
X67468381Y-17327619D01*
X67420762Y-17422857D01*
X67420762Y-17660952D01*
X67468381Y-17756190D01*
X67516000Y-17803810D01*
X67611238Y-17851429D01*
X67801715Y-17851429D01*
X67896953Y-17803810D01*
X67944572Y-17756190D01*
X67992191Y-17660952D01*
X69135048Y-17327619D02*
X69182667Y-17280000D01*
X69277905Y-17232381D01*
X69516001Y-17232381D01*
X69611239Y-17280000D01*
X69658858Y-17327619D01*
X69706477Y-17422857D01*
X69706477Y-17518095D01*
X69658858Y-17660952D01*
X69087429Y-18232381D01*
X69706477Y-18232381D01*
X70039810Y-17232381D02*
X70706477Y-17232381D01*
X70277905Y-18232381D01*
X30035714Y-32170667D02*
X30511905Y-32170667D01*
X29940476Y-32456381D02*
X30273809Y-31456381D01*
X30607143Y-32456381D01*
X30940476Y-32456381D02*
X30940476Y-31456381D01*
X31511905Y-32456381D01*
X31511905Y-31456381D01*
X32511905Y-32456381D02*
X31940476Y-32456381D01*
X32226190Y-32456381D02*
X32226190Y-31456381D01*
X32130952Y-31599238D01*
X32035714Y-31694476D01*
X31940476Y-31742095D01*
X33464286Y-32456381D02*
X32892857Y-32456381D01*
X33178571Y-32456381D02*
X33178571Y-31456381D01*
X33083333Y-31599238D01*
X32988095Y-31694476D01*
X32892857Y-31742095D01*
X28972095Y-20202429D02*
X29734000Y-20202429D01*
X29353048Y-20583381D02*
X29353048Y-19821476D01*
X30114952Y-19583381D02*
X30734000Y-19583381D01*
X30400666Y-19964333D01*
X30543524Y-19964333D01*
X30638762Y-20011952D01*
X30686381Y-20059571D01*
X30734000Y-20154810D01*
X30734000Y-20392905D01*
X30686381Y-20488143D01*
X30638762Y-20535762D01*
X30543524Y-20583381D01*
X30257809Y-20583381D01*
X30162571Y-20535762D01*
X30114952Y-20488143D01*
X31019714Y-19583381D02*
X31353047Y-20583381D01*
X31686381Y-19583381D01*
X31924476Y-19583381D02*
X32543524Y-19583381D01*
X32210190Y-19964333D01*
X32353048Y-19964333D01*
X32448286Y-20011952D01*
X32495905Y-20059571D01*
X32543524Y-20154810D01*
X32543524Y-20392905D01*
X32495905Y-20488143D01*
X32448286Y-20535762D01*
X32353048Y-20583381D01*
X32067333Y-20583381D01*
X31972095Y-20535762D01*
X31924476Y-20488143D01*
X29591143Y-22233381D02*
X29257809Y-21757190D01*
X29019714Y-22233381D02*
X29019714Y-21233381D01*
X29400667Y-21233381D01*
X29495905Y-21281000D01*
X29543524Y-21328619D01*
X29591143Y-21423857D01*
X29591143Y-21566714D01*
X29543524Y-21661952D01*
X29495905Y-21709571D01*
X29400667Y-21757190D01*
X29019714Y-21757190D01*
X30353048Y-21709571D02*
X30495905Y-21757190D01*
X30543524Y-21804810D01*
X30591143Y-21900048D01*
X30591143Y-22042905D01*
X30543524Y-22138143D01*
X30495905Y-22185762D01*
X30400667Y-22233381D01*
X30019714Y-22233381D01*
X30019714Y-21233381D01*
X30353048Y-21233381D01*
X30448286Y-21281000D01*
X30495905Y-21328619D01*
X30543524Y-21423857D01*
X30543524Y-21519095D01*
X30495905Y-21614333D01*
X30448286Y-21661952D01*
X30353048Y-21709571D01*
X30019714Y-21709571D01*
X31543524Y-22233381D02*
X30972095Y-22233381D01*
X31257809Y-22233381D02*
X31257809Y-21233381D01*
X31162571Y-21376238D01*
X31067333Y-21471476D01*
X30972095Y-21519095D01*
X32448286Y-21233381D02*
X31972095Y-21233381D01*
X31924476Y-21709571D01*
X31972095Y-21661952D01*
X32067333Y-21614333D01*
X32305429Y-21614333D01*
X32400667Y-21661952D01*
X32448286Y-21709571D01*
X32495905Y-21804810D01*
X32495905Y-22042905D01*
X32448286Y-22138143D01*
X32400667Y-22185762D01*
X32305429Y-22233381D01*
X32067333Y-22233381D01*
X31972095Y-22185762D01*
X31924476Y-22138143D01*
X29591143Y-23883381D02*
X29257809Y-23407190D01*
X29019714Y-23883381D02*
X29019714Y-22883381D01*
X29400667Y-22883381D01*
X29495905Y-22931000D01*
X29543524Y-22978619D01*
X29591143Y-23073857D01*
X29591143Y-23216714D01*
X29543524Y-23311952D01*
X29495905Y-23359571D01*
X29400667Y-23407190D01*
X29019714Y-23407190D01*
X30353048Y-23359571D02*
X30495905Y-23407190D01*
X30543524Y-23454810D01*
X30591143Y-23550048D01*
X30591143Y-23692905D01*
X30543524Y-23788143D01*
X30495905Y-23835762D01*
X30400667Y-23883381D01*
X30019714Y-23883381D01*
X30019714Y-22883381D01*
X30353048Y-22883381D01*
X30448286Y-22931000D01*
X30495905Y-22978619D01*
X30543524Y-23073857D01*
X30543524Y-23169095D01*
X30495905Y-23264333D01*
X30448286Y-23311952D01*
X30353048Y-23359571D01*
X30019714Y-23359571D01*
X31543524Y-23883381D02*
X30972095Y-23883381D01*
X31257809Y-23883381D02*
X31257809Y-22883381D01*
X31162571Y-23026238D01*
X31067333Y-23121476D01*
X30972095Y-23169095D01*
X32400667Y-23216714D02*
X32400667Y-23883381D01*
X32162571Y-22835762D02*
X31924476Y-23550048D01*
X32543524Y-23550048D01*
X29972096Y-24581000D02*
X29876858Y-24533381D01*
X29734001Y-24533381D01*
X29591143Y-24581000D01*
X29495905Y-24676238D01*
X29448286Y-24771476D01*
X29400667Y-24961952D01*
X29400667Y-25104810D01*
X29448286Y-25295286D01*
X29495905Y-25390524D01*
X29591143Y-25485762D01*
X29734001Y-25533381D01*
X29829239Y-25533381D01*
X29972096Y-25485762D01*
X30019715Y-25438143D01*
X30019715Y-25104810D01*
X29829239Y-25104810D01*
X30448286Y-25533381D02*
X30448286Y-24533381D01*
X31019715Y-25533381D01*
X31019715Y-24533381D01*
X31495905Y-25533381D02*
X31495905Y-24533381D01*
X31734000Y-24533381D01*
X31876858Y-24581000D01*
X31972096Y-24676238D01*
X32019715Y-24771476D01*
X32067334Y-24961952D01*
X32067334Y-25104810D01*
X32019715Y-25295286D01*
X31972096Y-25390524D01*
X31876858Y-25485762D01*
X31734000Y-25533381D01*
X31495905Y-25533381D01*
X58944953Y-18550000D02*
X58849715Y-18502381D01*
X58706858Y-18502381D01*
X58564000Y-18550000D01*
X58468762Y-18645238D01*
X58421143Y-18740476D01*
X58373524Y-18930952D01*
X58373524Y-19073810D01*
X58421143Y-19264286D01*
X58468762Y-19359524D01*
X58564000Y-19454762D01*
X58706858Y-19502381D01*
X58802096Y-19502381D01*
X58944953Y-19454762D01*
X58992572Y-19407143D01*
X58992572Y-19073810D01*
X58802096Y-19073810D01*
X60706858Y-18550000D02*
X60611620Y-18502381D01*
X60468763Y-18502381D01*
X60325905Y-18550000D01*
X60230667Y-18645238D01*
X60183048Y-18740476D01*
X60135429Y-18930952D01*
X60135429Y-19073810D01*
X60183048Y-19264286D01*
X60230667Y-19359524D01*
X60325905Y-19454762D01*
X60468763Y-19502381D01*
X60564001Y-19502381D01*
X60706858Y-19454762D01*
X60754477Y-19407143D01*
X60754477Y-19073810D01*
X60564001Y-19073810D01*
X62516382Y-19502381D02*
X62183048Y-19026190D01*
X61944953Y-19502381D02*
X61944953Y-18502381D01*
X62325906Y-18502381D01*
X62421144Y-18550000D01*
X62468763Y-18597619D01*
X62516382Y-18692857D01*
X62516382Y-18835714D01*
X62468763Y-18930952D01*
X62421144Y-18978571D01*
X62325906Y-19026190D01*
X61944953Y-19026190D01*
X63468763Y-18550000D02*
X63373525Y-18502381D01*
X63230668Y-18502381D01*
X63087810Y-18550000D01*
X62992572Y-18645238D01*
X62944953Y-18740476D01*
X62897334Y-18930952D01*
X62897334Y-19073810D01*
X62944953Y-19264286D01*
X62992572Y-19359524D01*
X63087810Y-19454762D01*
X63230668Y-19502381D01*
X63325906Y-19502381D01*
X63468763Y-19454762D01*
X63516382Y-19407143D01*
X63516382Y-19073810D01*
X63325906Y-19073810D01*
X64230668Y-19835714D02*
X63992572Y-19835714D01*
X63992572Y-18407143D01*
X64230668Y-18407143D01*
X65040192Y-18502381D02*
X64849715Y-18502381D01*
X64754477Y-18550000D01*
X64706858Y-18597619D01*
X64611620Y-18740476D01*
X64564001Y-18930952D01*
X64564001Y-19311905D01*
X64611620Y-19407143D01*
X64659239Y-19454762D01*
X64754477Y-19502381D01*
X64944954Y-19502381D01*
X65040192Y-19454762D01*
X65087811Y-19407143D01*
X65135430Y-19311905D01*
X65135430Y-19073810D01*
X65087811Y-18978571D01*
X65040192Y-18930952D01*
X64944954Y-18883333D01*
X64754477Y-18883333D01*
X64659239Y-18930952D01*
X64611620Y-18978571D01*
X64564001Y-19073810D01*
X65564001Y-19407143D02*
X65611620Y-19454762D01*
X65564001Y-19502381D01*
X65516382Y-19454762D01*
X65564001Y-19407143D01*
X65564001Y-19502381D01*
X66040191Y-19407143D02*
X66087810Y-19454762D01*
X66040191Y-19502381D01*
X65992572Y-19454762D01*
X66040191Y-19407143D01*
X66040191Y-19502381D01*
X66564000Y-19502381D02*
X66754476Y-19502381D01*
X66849715Y-19454762D01*
X66897334Y-19407143D01*
X66992572Y-19264286D01*
X67040191Y-19073810D01*
X67040191Y-18692857D01*
X66992572Y-18597619D01*
X66944953Y-18550000D01*
X66849715Y-18502381D01*
X66659238Y-18502381D01*
X66564000Y-18550000D01*
X66516381Y-18597619D01*
X66468762Y-18692857D01*
X66468762Y-18930952D01*
X66516381Y-19026190D01*
X66564000Y-19073810D01*
X66659238Y-19121429D01*
X66849715Y-19121429D01*
X66944953Y-19073810D01*
X66992572Y-19026190D01*
X67040191Y-18930952D01*
X67373524Y-19835714D02*
X67611619Y-19835714D01*
X67611619Y-18407143D01*
X67373524Y-18407143D01*
X68897334Y-19121429D02*
X69659239Y-19121429D01*
X69278287Y-19502381D02*
X69278287Y-18740476D01*
X70040191Y-18502381D02*
X70659239Y-18502381D01*
X70325905Y-18883333D01*
X70468763Y-18883333D01*
X70564001Y-18930952D01*
X70611620Y-18978571D01*
X70659239Y-19073810D01*
X70659239Y-19311905D01*
X70611620Y-19407143D01*
X70564001Y-19454762D01*
X70468763Y-19502381D01*
X70183048Y-19502381D01*
X70087810Y-19454762D01*
X70040191Y-19407143D01*
X71087810Y-19407143D02*
X71135429Y-19454762D01*
X71087810Y-19502381D01*
X71040191Y-19454762D01*
X71087810Y-19407143D01*
X71087810Y-19502381D01*
X71468762Y-18502381D02*
X72087810Y-18502381D01*
X71754476Y-18883333D01*
X71897334Y-18883333D01*
X71992572Y-18930952D01*
X72040191Y-18978571D01*
X72087810Y-19073810D01*
X72087810Y-19311905D01*
X72040191Y-19407143D01*
X71992572Y-19454762D01*
X71897334Y-19502381D01*
X71611619Y-19502381D01*
X71516381Y-19454762D01*
X71468762Y-19407143D01*
X72373524Y-18502381D02*
X72706857Y-19502381D01*
X73040191Y-18502381D01*
X74135429Y-19121429D02*
X74897334Y-19121429D01*
X74516382Y-19502381D02*
X74516382Y-18740476D01*
X75849715Y-18502381D02*
X75373524Y-18502381D01*
X75325905Y-18978571D01*
X75373524Y-18930952D01*
X75468762Y-18883333D01*
X75706858Y-18883333D01*
X75802096Y-18930952D01*
X75849715Y-18978571D01*
X75897334Y-19073810D01*
X75897334Y-19311905D01*
X75849715Y-19407143D01*
X75802096Y-19454762D01*
X75706858Y-19502381D01*
X75468762Y-19502381D01*
X75373524Y-19454762D01*
X75325905Y-19407143D01*
X76183048Y-18502381D02*
X76516381Y-19502381D01*
X76849715Y-18502381D01*
X33036000Y-19502381D02*
X33036000Y-18502381D01*
X34083619Y-19407143D02*
X34036000Y-19454762D01*
X33893143Y-19502381D01*
X33797905Y-19502381D01*
X33655047Y-19454762D01*
X33559809Y-19359524D01*
X33512190Y-19264286D01*
X33464571Y-19073810D01*
X33464571Y-18930952D01*
X33512190Y-18740476D01*
X33559809Y-18645238D01*
X33655047Y-18550000D01*
X33797905Y-18502381D01*
X33893143Y-18502381D01*
X34036000Y-18550000D01*
X34083619Y-18597619D01*
X34512190Y-19502381D02*
X34512190Y-18502381D01*
X34750285Y-18502381D01*
X34893143Y-18550000D01*
X34988381Y-18645238D01*
X35036000Y-18740476D01*
X35083619Y-18930952D01*
X35083619Y-19073810D01*
X35036000Y-19264286D01*
X34988381Y-19359524D01*
X34893143Y-19454762D01*
X34750285Y-19502381D01*
X34512190Y-19502381D01*
X39299523Y-21153429D02*
X40061428Y-21153429D01*
X39680476Y-21534381D02*
X39680476Y-20772476D01*
X41013809Y-20534381D02*
X40537618Y-20534381D01*
X40489999Y-21010571D01*
X40537618Y-20962952D01*
X40632856Y-20915333D01*
X40870952Y-20915333D01*
X40966190Y-20962952D01*
X41013809Y-21010571D01*
X41061428Y-21105810D01*
X41061428Y-21343905D01*
X41013809Y-21439143D01*
X40966190Y-21486762D01*
X40870952Y-21534381D01*
X40632856Y-21534381D01*
X40537618Y-21486762D01*
X40489999Y-21439143D01*
X41347142Y-20534381D02*
X41680475Y-21534381D01*
X42013809Y-20534381D01*
X43061428Y-21486762D02*
X43204285Y-21534381D01*
X43442381Y-21534381D01*
X43537619Y-21486762D01*
X43585238Y-21439143D01*
X43632857Y-21343905D01*
X43632857Y-21248667D01*
X43585238Y-21153429D01*
X43537619Y-21105810D01*
X43442381Y-21058190D01*
X43251904Y-21010571D01*
X43156666Y-20962952D01*
X43109047Y-20915333D01*
X43061428Y-20820095D01*
X43061428Y-20724857D01*
X43109047Y-20629619D01*
X43156666Y-20582000D01*
X43251904Y-20534381D01*
X43490000Y-20534381D01*
X43632857Y-20582000D01*
X44632857Y-21439143D02*
X44585238Y-21486762D01*
X44442381Y-21534381D01*
X44347143Y-21534381D01*
X44204285Y-21486762D01*
X44109047Y-21391524D01*
X44061428Y-21296286D01*
X44013809Y-21105810D01*
X44013809Y-20962952D01*
X44061428Y-20772476D01*
X44109047Y-20677238D01*
X44204285Y-20582000D01*
X44347143Y-20534381D01*
X44442381Y-20534381D01*
X44585238Y-20582000D01*
X44632857Y-20629619D01*
X45537619Y-21534381D02*
X45061428Y-21534381D01*
X45061428Y-20534381D01*
X45823333Y-20629619D02*
X45870952Y-20582000D01*
X45966190Y-20534381D01*
X46204286Y-20534381D01*
X46299524Y-20582000D01*
X46347143Y-20629619D01*
X46394762Y-20724857D01*
X46394762Y-20820095D01*
X46347143Y-20962952D01*
X45775714Y-21534381D01*
X46394762Y-21534381D01*
X47537619Y-21486762D02*
X47680476Y-21534381D01*
X47918572Y-21534381D01*
X48013810Y-21486762D01*
X48061429Y-21439143D01*
X48109048Y-21343905D01*
X48109048Y-21248667D01*
X48061429Y-21153429D01*
X48013810Y-21105810D01*
X47918572Y-21058190D01*
X47728095Y-21010571D01*
X47632857Y-20962952D01*
X47585238Y-20915333D01*
X47537619Y-20820095D01*
X47537619Y-20724857D01*
X47585238Y-20629619D01*
X47632857Y-20582000D01*
X47728095Y-20534381D01*
X47966191Y-20534381D01*
X48109048Y-20582000D01*
X48537619Y-21534381D02*
X48537619Y-20534381D01*
X48775714Y-20534381D01*
X48918572Y-20582000D01*
X49013810Y-20677238D01*
X49061429Y-20772476D01*
X49109048Y-20962952D01*
X49109048Y-21105810D01*
X49061429Y-21296286D01*
X49013810Y-21391524D01*
X48918572Y-21486762D01*
X48775714Y-21534381D01*
X48537619Y-21534381D01*
X49490000Y-21248667D02*
X49966191Y-21248667D01*
X49394762Y-21534381D02*
X49728095Y-20534381D01*
X50061429Y-21534381D01*
X50347143Y-20629619D02*
X50394762Y-20582000D01*
X50490000Y-20534381D01*
X50728096Y-20534381D01*
X50823334Y-20582000D01*
X50870953Y-20629619D01*
X50918572Y-20724857D01*
X50918572Y-20820095D01*
X50870953Y-20962952D01*
X50299524Y-21534381D01*
X50918572Y-21534381D01*
X52632858Y-20582000D02*
X52537620Y-20534381D01*
X52394763Y-20534381D01*
X52251905Y-20582000D01*
X52156667Y-20677238D01*
X52109048Y-20772476D01*
X52061429Y-20962952D01*
X52061429Y-21105810D01*
X52109048Y-21296286D01*
X52156667Y-21391524D01*
X52251905Y-21486762D01*
X52394763Y-21534381D01*
X52490001Y-21534381D01*
X52632858Y-21486762D01*
X52680477Y-21439143D01*
X52680477Y-21105810D01*
X52490001Y-21105810D01*
X53109048Y-21534381D02*
X53109048Y-20534381D01*
X53680477Y-21534381D01*
X53680477Y-20534381D01*
X54156667Y-21534381D02*
X54156667Y-20534381D01*
X54394762Y-20534381D01*
X54537620Y-20582000D01*
X54632858Y-20677238D01*
X54680477Y-20772476D01*
X54728096Y-20962952D01*
X54728096Y-21105810D01*
X54680477Y-21296286D01*
X54632858Y-21391524D01*
X54537620Y-21486762D01*
X54394762Y-21534381D01*
X54156667Y-21534381D01*
X53023048Y-13628667D02*
X53499239Y-13628667D01*
X52927810Y-13914381D02*
X53261143Y-12914381D01*
X53594477Y-13914381D01*
X53927810Y-13914381D02*
X53927810Y-12914381D01*
X54499239Y-13914381D01*
X54499239Y-12914381D01*
X55689715Y-12866762D02*
X54832572Y-14152476D01*
X56594477Y-13914381D02*
X56261143Y-13438190D01*
X56023048Y-13914381D02*
X56023048Y-12914381D01*
X56404001Y-12914381D01*
X56499239Y-12962000D01*
X56546858Y-13009619D01*
X56594477Y-13104857D01*
X56594477Y-13247714D01*
X56546858Y-13342952D01*
X56499239Y-13390571D01*
X56404001Y-13438190D01*
X56023048Y-13438190D01*
X57356382Y-13390571D02*
X57499239Y-13438190D01*
X57546858Y-13485810D01*
X57594477Y-13581048D01*
X57594477Y-13723905D01*
X57546858Y-13819143D01*
X57499239Y-13866762D01*
X57404001Y-13914381D01*
X57023048Y-13914381D01*
X57023048Y-12914381D01*
X57356382Y-12914381D01*
X57451620Y-12962000D01*
X57499239Y-13009619D01*
X57546858Y-13104857D01*
X57546858Y-13200095D01*
X57499239Y-13295333D01*
X57451620Y-13342952D01*
X57356382Y-13390571D01*
X57023048Y-13390571D01*
X58308763Y-14247714D02*
X58070667Y-14247714D01*
X58070667Y-12819143D01*
X58308763Y-12819143D01*
X58880191Y-12914381D02*
X58975430Y-12914381D01*
X59070668Y-12962000D01*
X59118287Y-13009619D01*
X59165906Y-13104857D01*
X59213525Y-13295333D01*
X59213525Y-13533429D01*
X59165906Y-13723905D01*
X59118287Y-13819143D01*
X59070668Y-13866762D01*
X58975430Y-13914381D01*
X58880191Y-13914381D01*
X58784953Y-13866762D01*
X58737334Y-13819143D01*
X58689715Y-13723905D01*
X58642096Y-13533429D01*
X58642096Y-13295333D01*
X58689715Y-13104857D01*
X58737334Y-13009619D01*
X58784953Y-12962000D01*
X58880191Y-12914381D01*
X59642096Y-13819143D02*
X59689715Y-13866762D01*
X59642096Y-13914381D01*
X59594477Y-13866762D01*
X59642096Y-13819143D01*
X59642096Y-13914381D01*
X60118286Y-13819143D02*
X60165905Y-13866762D01*
X60118286Y-13914381D01*
X60070667Y-13866762D01*
X60118286Y-13819143D01*
X60118286Y-13914381D01*
X61070667Y-12914381D02*
X60594476Y-12914381D01*
X60546857Y-13390571D01*
X60594476Y-13342952D01*
X60689714Y-13295333D01*
X60927810Y-13295333D01*
X61023048Y-13342952D01*
X61070667Y-13390571D01*
X61118286Y-13485810D01*
X61118286Y-13723905D01*
X61070667Y-13819143D01*
X61023048Y-13866762D01*
X60927810Y-13914381D01*
X60689714Y-13914381D01*
X60594476Y-13866762D01*
X60546857Y-13819143D01*
X61451619Y-14247714D02*
X61689714Y-14247714D01*
X61689714Y-12819143D01*
X61451619Y-12819143D01*
X63801905Y-26360381D02*
X63468571Y-25884190D01*
X63230476Y-26360381D02*
X63230476Y-25360381D01*
X63611429Y-25360381D01*
X63706667Y-25408000D01*
X63754286Y-25455619D01*
X63801905Y-25550857D01*
X63801905Y-25693714D01*
X63754286Y-25788952D01*
X63706667Y-25836571D01*
X63611429Y-25884190D01*
X63230476Y-25884190D01*
X64230476Y-25836571D02*
X64563810Y-25836571D01*
X64706667Y-26360381D02*
X64230476Y-26360381D01*
X64230476Y-25360381D01*
X64706667Y-25360381D01*
X65420953Y-26693714D02*
X65182857Y-26693714D01*
X65182857Y-25265143D01*
X65420953Y-25265143D01*
X65706667Y-25360381D02*
X66373334Y-25360381D01*
X65944762Y-26360381D01*
X66754286Y-26265143D02*
X66801905Y-26312762D01*
X66754286Y-26360381D01*
X66706667Y-26312762D01*
X66754286Y-26265143D01*
X66754286Y-26360381D01*
X67230476Y-26265143D02*
X67278095Y-26312762D01*
X67230476Y-26360381D01*
X67182857Y-26312762D01*
X67230476Y-26265143D01*
X67230476Y-26360381D01*
X67897142Y-25360381D02*
X67992381Y-25360381D01*
X68087619Y-25408000D01*
X68135238Y-25455619D01*
X68182857Y-25550857D01*
X68230476Y-25741333D01*
X68230476Y-25979429D01*
X68182857Y-26169905D01*
X68135238Y-26265143D01*
X68087619Y-26312762D01*
X67992381Y-26360381D01*
X67897142Y-26360381D01*
X67801904Y-26312762D01*
X67754285Y-26265143D01*
X67706666Y-26169905D01*
X67659047Y-25979429D01*
X67659047Y-25741333D01*
X67706666Y-25550857D01*
X67754285Y-25455619D01*
X67801904Y-25408000D01*
X67897142Y-25360381D01*
X68563809Y-26693714D02*
X68801904Y-26693714D01*
X68801904Y-25265143D01*
X68563809Y-25265143D01*
X40759714Y-57158000D02*
X40664476Y-57110381D01*
X40521619Y-57110381D01*
X40378761Y-57158000D01*
X40283523Y-57253238D01*
X40235904Y-57348476D01*
X40188285Y-57538952D01*
X40188285Y-57681810D01*
X40235904Y-57872286D01*
X40283523Y-57967524D01*
X40378761Y-58062762D01*
X40521619Y-58110381D01*
X40616857Y-58110381D01*
X40759714Y-58062762D01*
X40807333Y-58015143D01*
X40807333Y-57681810D01*
X40616857Y-57681810D01*
X41235904Y-58110381D02*
X41235904Y-57110381D01*
X41807333Y-58110381D01*
X41807333Y-57110381D01*
X42283523Y-58110381D02*
X42283523Y-57110381D01*
X42521618Y-57110381D01*
X42664476Y-57158000D01*
X42759714Y-57253238D01*
X42807333Y-57348476D01*
X42854952Y-57538952D01*
X42854952Y-57681810D01*
X42807333Y-57872286D01*
X42759714Y-57967524D01*
X42664476Y-58062762D01*
X42521618Y-58110381D01*
X42283523Y-58110381D01*
X43902571Y-57110381D02*
X44235904Y-58110381D01*
X44569238Y-57110381D01*
X45235905Y-57586571D02*
X45378762Y-57634190D01*
X45426381Y-57681810D01*
X45474000Y-57777048D01*
X45474000Y-57919905D01*
X45426381Y-58015143D01*
X45378762Y-58062762D01*
X45283524Y-58110381D01*
X44902571Y-58110381D01*
X44902571Y-57110381D01*
X45235905Y-57110381D01*
X45331143Y-57158000D01*
X45378762Y-57205619D01*
X45426381Y-57300857D01*
X45426381Y-57396095D01*
X45378762Y-57491333D01*
X45331143Y-57538952D01*
X45235905Y-57586571D01*
X44902571Y-57586571D01*
X46521619Y-57110381D02*
X46854952Y-58110381D01*
X47188286Y-57110381D01*
X47474000Y-57824667D02*
X47950191Y-57824667D01*
X47378762Y-58110381D02*
X47712095Y-57110381D01*
X48045429Y-58110381D01*
X49140667Y-57729429D02*
X49902572Y-57729429D01*
X49521620Y-58110381D02*
X49521620Y-57348476D01*
X50854953Y-57110381D02*
X50378762Y-57110381D01*
X50331143Y-57586571D01*
X50378762Y-57538952D01*
X50474000Y-57491333D01*
X50712096Y-57491333D01*
X50807334Y-57538952D01*
X50854953Y-57586571D01*
X50902572Y-57681810D01*
X50902572Y-57919905D01*
X50854953Y-58015143D01*
X50807334Y-58062762D01*
X50712096Y-58110381D01*
X50474000Y-58110381D01*
X50378762Y-58062762D01*
X50331143Y-58015143D01*
X51188286Y-57110381D02*
X51521619Y-58110381D01*
X51854953Y-57110381D01*
D12*
X40019000Y-19684000D02*
X40519000Y-20184000D01*
X39819000Y-19884000D02*
X40019000Y-19684000D01*
X40019000Y-19484000D02*
X39819000Y-19884000D01*
X40119000Y-19884000D02*
X40019000Y-19484000D01*
X39719000Y-19884000D02*
X40119000Y-19884000D01*
X40019000Y-19184000D02*
X39719000Y-19884000D01*
X40319000Y-19984000D02*
X40019000Y-19184000D01*
X39719000Y-19984000D02*
X40319000Y-19984000D01*
X39419000Y-20184000D02*
X39719000Y-19984000D01*
X40519000Y-20184000D02*
X39419000Y-20184000D01*
X40019000Y-18884000D02*
X40519000Y-20184000D01*
X39419000Y-20184000D02*
X40019000Y-18884000D01*
D13*
X46260420Y-22309500D02*
X45554300Y-22309500D01*
X45554300Y-22309500D02*
X45554300Y-23706500D01*
X45554300Y-23706500D02*
X46260420Y-23706500D01*
X47967300Y-22309500D02*
X47261180Y-22309500D01*
X47967300Y-22309500D02*
X47967300Y-23706500D01*
X47967300Y-23706500D02*
X47261180Y-23706500D01*
D14*
X47134240Y-32383620D02*
X47134240Y-31685120D01*
X47134240Y-33384380D02*
X47134240Y-34082880D01*
X45833760Y-32383620D02*
X45833760Y-31685120D01*
X45833760Y-34082880D02*
X45833760Y-33384380D01*
X45849000Y-31685120D02*
X47119000Y-31685120D01*
X47119000Y-34082880D02*
X45849000Y-34082880D01*
D15*
X44125600Y-19598800D02*
X51745600Y-19598800D01*
X44125600Y-17058800D02*
X51745600Y-17058800D01*
X41585600Y-17058800D02*
X44125600Y-17058800D01*
X51745600Y-19598800D02*
X51745600Y-17058800D01*
X44125600Y-17058800D02*
X44125600Y-19598800D01*
X41585600Y-17058800D02*
X41585600Y-19598800D01*
X41585600Y-19598800D02*
X44125600Y-19598800D01*
D13*
X43262020Y-23355500D02*
X42555900Y-23355500D01*
X42555900Y-23355500D02*
X42555900Y-24752500D01*
X42555900Y-24752500D02*
X43262020Y-24752500D01*
X44968900Y-23355500D02*
X44262780Y-23355500D01*
X44968900Y-23355500D02*
X44968900Y-24752500D01*
X44968900Y-24752500D02*
X44262780Y-24752500D01*
X44983620Y-27085500D02*
X44277500Y-27085500D01*
X44277500Y-27085500D02*
X44277500Y-28482500D01*
X44277500Y-28482500D02*
X44983620Y-28482500D01*
X46690500Y-27085500D02*
X45984380Y-27085500D01*
X46690500Y-27085500D02*
X46690500Y-28482500D01*
X46690500Y-28482500D02*
X45984380Y-28482500D01*
D16*
X24084820Y-37333360D02*
X24084820Y-45034640D01*
X23084060Y-37333360D02*
X23084060Y-45034640D01*
X23084060Y-45034640D02*
X32283940Y-45034640D01*
X32283940Y-45034640D02*
X32283940Y-37333360D01*
X32283940Y-37333360D02*
X23084060Y-37333360D01*
D13*
X33674200Y-58594000D02*
X33674200Y-56968400D01*
X31388200Y-56968400D02*
X31388200Y-58594000D01*
X30931000Y-56968400D02*
X30931000Y-58594000D01*
X30931000Y-58594000D02*
X34131400Y-58594000D01*
X34131400Y-58594000D02*
X34131400Y-56968400D01*
X34131400Y-56968400D02*
X30931000Y-56968400D01*
D17*
X38878780Y-54247980D02*
X37979620Y-54247980D01*
X37979620Y-54247980D02*
X37979620Y-54646760D01*
X38878780Y-54646760D02*
X37979620Y-54646760D01*
X38878780Y-54247980D02*
X38878780Y-54646760D01*
X38878780Y-52950040D02*
X37979620Y-52950040D01*
X37979620Y-52950040D02*
X37979620Y-53348820D01*
X38878780Y-53348820D02*
X37979620Y-53348820D01*
X38878780Y-52950040D02*
X38878780Y-53348820D01*
X38878780Y-53798400D02*
X38728920Y-53798400D01*
X38728920Y-53798400D02*
X38728920Y-54098120D01*
X38878780Y-54098120D02*
X38728920Y-54098120D01*
X38878780Y-53798400D02*
X38878780Y-54098120D01*
X38129480Y-53798400D02*
X37979620Y-53798400D01*
X37979620Y-53798400D02*
X37979620Y-54098120D01*
X38129480Y-54098120D02*
X37979620Y-54098120D01*
X38129480Y-53798400D02*
X38129480Y-54098120D01*
X38579060Y-53798400D02*
X38279340Y-53798400D01*
X38279340Y-53798400D02*
X38279340Y-54098120D01*
X38579060Y-54098120D02*
X38279340Y-54098120D01*
X38579060Y-53798400D02*
X38579060Y-54098120D01*
D18*
X38827980Y-54247980D02*
X38827980Y-53348820D01*
X38030420Y-54247980D02*
X38030420Y-53348820D01*
D19*
X30132400Y-53051200D02*
X30132400Y-56099200D01*
X30132400Y-56099200D02*
X37244400Y-56099200D01*
X37244400Y-56099200D02*
X37244400Y-53051200D01*
X30132400Y-50003200D02*
X30132400Y-49241200D01*
X30132400Y-49241200D02*
X31656400Y-46955200D01*
X31656400Y-46955200D02*
X35720400Y-46955200D01*
X35720400Y-46955200D02*
X37244400Y-49241200D01*
X37244400Y-49241200D02*
X37244400Y-50003200D01*
D16*
X28455120Y-48073240D02*
X24655280Y-48073240D01*
X28455120Y-54773760D02*
X28455120Y-49775040D01*
X24655280Y-54771220D02*
X24655280Y-49772500D01*
X29458420Y-47570320D02*
X28358600Y-47570320D01*
X28958040Y-46970880D02*
X28958040Y-48169760D01*
D13*
X37427000Y-34176000D02*
X35141000Y-34176000D01*
X35141000Y-34176000D02*
X35141000Y-35827000D01*
X37427000Y-37605000D02*
X37427000Y-39256000D01*
X37427000Y-39256000D02*
X35141000Y-39256000D01*
X35141000Y-39256000D02*
X35141000Y-37605000D01*
X37427000Y-35827000D02*
X37427000Y-34176000D01*
D19*
X60247720Y-31601280D02*
G75*
G03X60247720Y-31601280I-381000J0D01*
G74*
G01*
X50722720Y-40745280D02*
X60882720Y-40745280D01*
X60882720Y-40745280D02*
X60882720Y-31220280D01*
X60882720Y-31220280D02*
X60247720Y-30585280D01*
X60247720Y-30585280D02*
X50722720Y-30585280D01*
X50722720Y-30585280D02*
X50722720Y-40745280D01*
D13*
X67727000Y-39196800D02*
X67727000Y-37571200D01*
X65441000Y-37571200D02*
X65441000Y-39196800D01*
X64983800Y-37571200D02*
X64983800Y-39196800D01*
X64983800Y-39196800D02*
X68184200Y-39196800D01*
X68184200Y-39196800D02*
X68184200Y-37571200D01*
X68184200Y-37571200D02*
X64983800Y-37571200D01*
D14*
X55383620Y-26633760D02*
X54685120Y-26633760D01*
X56384380Y-26633760D02*
X57082880Y-26633760D01*
X55383620Y-27934240D02*
X54685120Y-27934240D01*
X57082880Y-27934240D02*
X56384380Y-27934240D01*
X54685120Y-27919000D02*
X54685120Y-26649000D01*
X57082880Y-26649000D02*
X57082880Y-27919000D01*
X46133760Y-36784380D02*
X46133760Y-37482880D01*
X46133760Y-35783620D02*
X46133760Y-35085120D01*
X47434240Y-36784380D02*
X47434240Y-37482880D01*
X47434240Y-35085120D02*
X47434240Y-35783620D01*
X47419000Y-37482880D02*
X46149000Y-37482880D01*
X46149000Y-35085120D02*
X47419000Y-35085120D01*
D15*
X51864000Y-14214000D02*
X69644000Y-14214000D01*
X69644000Y-14214000D02*
X69644000Y-16754000D01*
X69644000Y-16754000D02*
X51864000Y-16754000D01*
X49324000Y-14214000D02*
X51864000Y-14214000D01*
X51864000Y-14214000D02*
X51864000Y-16754000D01*
X49324000Y-14214000D02*
X49324000Y-16754000D01*
X49324000Y-16754000D02*
X51864000Y-16754000D01*
D10*
X60237000Y-52235000D02*
X60237000Y-51854000D01*
X60237000Y-48933000D02*
X60237000Y-49314000D01*
X50331000Y-48933000D02*
X50331000Y-49314000D01*
X50331000Y-52235000D02*
X50331000Y-51854000D01*
X49569000Y-53124000D02*
X49569000Y-51854000D01*
X49569000Y-48044000D02*
X49569000Y-49314000D01*
X60999000Y-48044000D02*
X60999000Y-49314000D01*
X60999000Y-53124000D02*
X60999000Y-51854000D01*
X60237000Y-48933000D02*
X59602000Y-48298000D01*
X59602000Y-48298000D02*
X50966000Y-48298000D01*
X50966000Y-48298000D02*
X50331000Y-48933000D01*
X50331000Y-52235000D02*
X50966000Y-52870000D01*
X50966000Y-52870000D02*
X59602000Y-52870000D01*
X59602000Y-52870000D02*
X60237000Y-52235000D01*
X49569000Y-48044000D02*
X60999000Y-48044000D01*
X60999000Y-53124000D02*
X49569000Y-53124000D01*
D14*
X54883620Y-45433760D02*
X54185120Y-45433760D01*
X55884380Y-45433760D02*
X56582880Y-45433760D01*
X54883620Y-46734240D02*
X54185120Y-46734240D01*
X56582880Y-46734240D02*
X55884380Y-46734240D01*
X54185120Y-46719000D02*
X54185120Y-45449000D01*
X56582880Y-45449000D02*
X56582880Y-46719000D01*
X65384380Y-42234240D02*
X66082880Y-42234240D01*
X64383620Y-42234240D02*
X63685120Y-42234240D01*
X65384380Y-40933760D02*
X66082880Y-40933760D01*
X63685120Y-40933760D02*
X64383620Y-40933760D01*
X66082880Y-40949000D02*
X66082880Y-42219000D01*
X63685120Y-42219000D02*
X63685120Y-40949000D01*
X54184380Y-55134240D02*
X54882880Y-55134240D01*
X53183620Y-55134240D02*
X52485120Y-55134240D01*
X54184380Y-53833760D02*
X54882880Y-53833760D01*
X52485120Y-53833760D02*
X53183620Y-53833760D01*
X54882880Y-53849000D02*
X54882880Y-55119000D01*
X52485120Y-55119000D02*
X52485120Y-53849000D01*
X56283620Y-53833760D02*
X55585120Y-53833760D01*
X57284380Y-53833760D02*
X57982880Y-53833760D01*
X56283620Y-55134240D02*
X55585120Y-55134240D01*
X57982880Y-55134240D02*
X57284380Y-55134240D01*
X55585120Y-55119000D02*
X55585120Y-53849000D01*
X57982880Y-53849000D02*
X57982880Y-55119000D01*
D15*
X26114000Y-20544000D02*
X26114000Y-28164000D01*
X28654000Y-20544000D02*
X28654000Y-28164000D01*
X28654000Y-18004000D02*
X28654000Y-20544000D01*
X26114000Y-28164000D02*
X28654000Y-28164000D01*
X28654000Y-20544000D02*
X26114000Y-20544000D01*
X28654000Y-18004000D02*
X26114000Y-18004000D01*
X26114000Y-18004000D02*
X26114000Y-20544000D01*
X28704000Y-12620000D02*
X26164000Y-15160000D01*
X26164000Y-12620000D02*
X28704000Y-15160000D01*
X27307000Y-12493000D02*
X27307000Y-6651000D01*
X27307000Y-6651000D02*
X27561000Y-6651000D01*
X27561000Y-6651000D02*
X27561000Y-12493000D01*
X27561000Y-12493000D02*
X27434000Y-12493000D01*
X27434000Y-12493000D02*
X27434000Y-6651000D01*
X27180000Y-15160000D02*
X27180000Y-15541000D01*
X27688000Y-15160000D02*
X27688000Y-15541000D01*
X29720000Y-15160000D02*
X29720000Y-15541000D01*
X30228000Y-15160000D02*
X30228000Y-15541000D01*
X32260000Y-15160000D02*
X32260000Y-15541000D01*
X32768000Y-15160000D02*
X32768000Y-15541000D01*
X40388000Y-15160000D02*
X40388000Y-15541000D01*
X39880000Y-15160000D02*
X39880000Y-15541000D01*
X37848000Y-15160000D02*
X37848000Y-15541000D01*
X37340000Y-15160000D02*
X37340000Y-15541000D01*
X35308000Y-15160000D02*
X35308000Y-15541000D01*
X34800000Y-15160000D02*
X34800000Y-15541000D01*
X26164000Y-15160000D02*
X26164000Y-12620000D01*
X28704000Y-15160000D02*
X28704000Y-12620000D01*
X28704000Y-15160000D02*
X31244000Y-15160000D01*
X31244000Y-15160000D02*
X31244000Y-12620000D01*
X29720000Y-12620000D02*
X29720000Y-6524000D01*
X29720000Y-6524000D02*
X30228000Y-6524000D01*
X30228000Y-6524000D02*
X30228000Y-12620000D01*
X31244000Y-12620000D02*
X28704000Y-12620000D01*
X28704000Y-12620000D02*
X26164000Y-12620000D01*
X27688000Y-6524000D02*
X27688000Y-12620000D01*
X27180000Y-6524000D02*
X27688000Y-6524000D01*
X27180000Y-12620000D02*
X27180000Y-6524000D01*
X28704000Y-15160000D02*
X28704000Y-12620000D01*
X26164000Y-15160000D02*
X28704000Y-15160000D01*
X36324000Y-15160000D02*
X36324000Y-12620000D01*
X36324000Y-15160000D02*
X38864000Y-15160000D01*
X38864000Y-15160000D02*
X38864000Y-12620000D01*
X37340000Y-12620000D02*
X37340000Y-6524000D01*
X37340000Y-6524000D02*
X37848000Y-6524000D01*
X37848000Y-6524000D02*
X37848000Y-12620000D01*
X38864000Y-12620000D02*
X36324000Y-12620000D01*
X41404000Y-12620000D02*
X38864000Y-12620000D01*
X40388000Y-6524000D02*
X40388000Y-12620000D01*
X39880000Y-6524000D02*
X40388000Y-6524000D01*
X39880000Y-12620000D02*
X39880000Y-6524000D01*
X41404000Y-15160000D02*
X41404000Y-12620000D01*
X38864000Y-15160000D02*
X41404000Y-15160000D01*
X38864000Y-15160000D02*
X38864000Y-12620000D01*
X33784000Y-15160000D02*
X33784000Y-12620000D01*
X33784000Y-15160000D02*
X36324000Y-15160000D01*
X36324000Y-15160000D02*
X36324000Y-12620000D01*
X34800000Y-12620000D02*
X34800000Y-6524000D01*
X34800000Y-6524000D02*
X35308000Y-6524000D01*
X35308000Y-6524000D02*
X35308000Y-12620000D01*
X36324000Y-12620000D02*
X33784000Y-12620000D01*
X33784000Y-12620000D02*
X31244000Y-12620000D01*
X32768000Y-6524000D02*
X32768000Y-12620000D01*
X32260000Y-6524000D02*
X32768000Y-6524000D01*
X32260000Y-12620000D02*
X32260000Y-6524000D01*
X33784000Y-15160000D02*
X33784000Y-12620000D01*
X31244000Y-15160000D02*
X33784000Y-15160000D01*
X31244000Y-15160000D02*
X31244000Y-12620000D01*
D13*
X38482500Y-30383620D02*
X38482500Y-29677500D01*
X38482500Y-29677500D02*
X37085500Y-29677500D01*
X37085500Y-29677500D02*
X37085500Y-30383620D01*
X38482500Y-32090500D02*
X38482500Y-31384380D01*
X38482500Y-32090500D02*
X37085500Y-32090500D01*
X37085500Y-32090500D02*
X37085500Y-31384380D01*
D14*
X40833760Y-29684380D02*
X40833760Y-30382880D01*
X40833760Y-28683620D02*
X40833760Y-27985120D01*
X42134240Y-29684380D02*
X42134240Y-30382880D01*
X42134240Y-27985120D02*
X42134240Y-28683620D01*
X42119000Y-30382880D02*
X40849000Y-30382880D01*
X40849000Y-27985120D02*
X42119000Y-27985120D01*
D16*
X38752780Y-27073860D02*
X39113460Y-28544520D01*
X39113460Y-28544520D02*
X39392860Y-27482800D01*
X39392860Y-27482800D02*
X39702740Y-28554680D01*
X39702740Y-28554680D02*
X40043100Y-27104340D01*
X37332920Y-27764740D02*
X38122860Y-27754580D01*
X38122860Y-27754580D02*
X38133020Y-27764740D01*
X38133020Y-27764740D02*
X38133020Y-27754580D01*
X38173660Y-27043380D02*
X38173660Y-28585160D01*
X37284660Y-27033220D02*
X37284660Y-28602940D01*
X37284660Y-28602940D02*
X37294820Y-28592780D01*
X36733480Y-27134820D02*
X36382960Y-27053540D01*
X36382960Y-27053540D02*
X36062920Y-27043380D01*
X36062920Y-27043380D02*
X35824160Y-27244040D01*
X35824160Y-27244040D02*
X35793680Y-27513280D01*
X35793680Y-27513280D02*
X36034980Y-27754580D01*
X36034980Y-27754580D02*
X36423600Y-27884120D01*
X36423600Y-27884120D02*
X36603940Y-28044140D01*
X36603940Y-28044140D02*
X36644580Y-28343860D01*
X36644580Y-28343860D02*
X36413440Y-28564840D01*
X36413440Y-28564840D02*
X36093400Y-28592780D01*
X36093400Y-28592780D02*
X35742880Y-28483560D01*
X34704020Y-27033220D02*
X34455100Y-27053540D01*
X34455100Y-27053540D02*
X34213800Y-27294840D01*
X34213800Y-27294840D02*
X34124900Y-27785060D01*
X34124900Y-27785060D02*
X34152840Y-28133040D01*
X34152840Y-28133040D02*
X34353500Y-28453080D01*
X34353500Y-28453080D02*
X34604960Y-28575000D01*
X34604960Y-28575000D02*
X34914840Y-28503880D01*
X34914840Y-28503880D02*
X35133280Y-28323540D01*
X35133280Y-28323540D02*
X35204400Y-27863800D01*
X35204400Y-27863800D02*
X35153600Y-27454860D01*
X35153600Y-27454860D02*
X35044380Y-27172920D01*
X35044380Y-27172920D02*
X34683700Y-27043380D01*
X35303460Y-25313640D02*
X35044380Y-25874980D01*
X35044380Y-25874980D02*
X35582860Y-26393140D01*
X35582860Y-26393140D02*
X36103560Y-26123900D01*
X36103560Y-26123900D02*
X36382960Y-26283920D01*
X37823140Y-26263600D02*
X38153340Y-26073100D01*
X38153340Y-26073100D02*
X38592760Y-26403300D01*
X38592760Y-26403300D02*
X39065200Y-25913080D01*
X39065200Y-25913080D02*
X38783260Y-25433020D01*
X38783260Y-25433020D02*
X38973760Y-24963120D01*
X38973760Y-24963120D02*
X39583360Y-24775160D01*
X39583360Y-24775160D02*
X39583360Y-24094440D01*
X39583360Y-24094440D02*
X39024560Y-23954740D01*
X39024560Y-23954740D02*
X38823900Y-23383240D01*
X38823900Y-23383240D02*
X39093140Y-22913340D01*
X39093140Y-22913340D02*
X38623240Y-22402800D01*
X38623240Y-22402800D02*
X38105080Y-22664420D01*
X38105080Y-22664420D02*
X37635180Y-22463760D01*
X37635180Y-22463760D02*
X37465000Y-21922740D01*
X37465000Y-21922740D02*
X36774120Y-21904960D01*
X36774120Y-21904960D02*
X36563300Y-22453600D01*
X36563300Y-22453600D02*
X36144200Y-22623780D01*
X36144200Y-22623780D02*
X35593020Y-22354540D01*
X35593020Y-22354540D02*
X35074860Y-22882860D01*
X35074860Y-22882860D02*
X35323780Y-23423880D01*
X35323780Y-23423880D02*
X35153600Y-23903940D01*
X35153600Y-23903940D02*
X34604960Y-24003000D01*
X34604960Y-24003000D02*
X34594800Y-24704040D01*
X34594800Y-24704040D02*
X35153600Y-24904700D01*
X35153600Y-24904700D02*
X35293300Y-25303480D01*
X37434520Y-25283160D02*
X37734240Y-25133300D01*
X37734240Y-25133300D02*
X37934900Y-24935180D01*
X37934900Y-24935180D02*
X38084760Y-24533860D01*
X38084760Y-24533860D02*
X38084760Y-24135080D01*
X38084760Y-24135080D02*
X37934900Y-23784560D01*
X37934900Y-23784560D02*
X37482780Y-23434040D01*
X37482780Y-23434040D02*
X37033200Y-23383240D01*
X37033200Y-23383240D02*
X36634420Y-23484840D01*
X36634420Y-23484840D02*
X36233100Y-23832820D01*
X36233100Y-23832820D02*
X36083240Y-24284940D01*
X36083240Y-24284940D02*
X36134040Y-24782780D01*
X36134040Y-24782780D02*
X36382960Y-25085040D01*
X36382960Y-25085040D02*
X36733480Y-25283160D01*
X36733480Y-25283160D02*
X36382960Y-26283920D01*
X37434520Y-25283160D02*
X37833300Y-26283920D01*
D14*
X30684761Y-30190380D02*
X30684761Y-30888880D01*
X30684761Y-29189620D02*
X30684761Y-28491120D01*
X31985241Y-30190380D02*
X31985241Y-30888880D01*
X31985241Y-28491120D02*
X31985241Y-29189620D01*
X31970001Y-30888880D02*
X30700001Y-30888880D01*
X30700001Y-28491120D02*
X31970001Y-28491120D01*
D20*
X24711974Y-28940924D02*
X24711974Y-34329078D01*
X24711974Y-34329078D02*
X25610000Y-35227103D01*
X25610000Y-35227103D02*
X27406051Y-35227103D01*
X27406051Y-35227103D02*
X29202102Y-33431052D01*
X29202102Y-33431052D02*
X29202102Y-29838950D01*
X29202102Y-29838950D02*
X27406051Y-28042899D01*
X27406051Y-28042899D02*
X25610000Y-28042899D01*
X25610000Y-28042899D02*
X24711974Y-28940924D01*
D13*
X39222900Y-50515620D02*
X39222900Y-49809500D01*
X39222900Y-49809500D02*
X37825900Y-49809500D01*
X37825900Y-49809500D02*
X37825900Y-50515620D01*
X39222900Y-52222500D02*
X39222900Y-51516380D01*
X39222900Y-52222500D02*
X37825900Y-52222500D01*
X37825900Y-52222500D02*
X37825900Y-51516380D01*
D14*
X43133760Y-43684380D02*
X43133760Y-44382880D01*
X43133760Y-42683620D02*
X43133760Y-41985120D01*
X44434240Y-43684380D02*
X44434240Y-44382880D01*
X44434240Y-41985120D02*
X44434240Y-42683620D01*
X44419000Y-44382880D02*
X43149000Y-44382880D01*
X43149000Y-41985120D02*
X44419000Y-41985120D01*
D13*
X40183620Y-46785500D02*
X39477500Y-46785500D01*
X39477500Y-46785500D02*
X39477500Y-48182500D01*
X39477500Y-48182500D02*
X40183620Y-48182500D01*
X41890500Y-46785500D02*
X41184380Y-46785500D01*
X41890500Y-46785500D02*
X41890500Y-48182500D01*
X41890500Y-48182500D02*
X41184380Y-48182500D01*
D19*
X41401500Y-41896500D02*
X42671500Y-43103000D01*
X42671500Y-41896500D02*
X39496500Y-41896500D01*
X39496500Y-41896500D02*
X39496500Y-45071500D01*
X39496500Y-45071500D02*
X42671500Y-45071500D01*
X42671500Y-45071500D02*
X42671500Y-41896500D01*
D15*
X48742000Y-54096800D02*
X41122000Y-54096800D01*
X48742000Y-56636800D02*
X41122000Y-56636800D01*
X51282000Y-56636800D02*
X48742000Y-56636800D01*
X41122000Y-54096800D02*
X41122000Y-56636800D01*
X48742000Y-56636800D02*
X48742000Y-54096800D01*
X51282000Y-56636800D02*
X51282000Y-54096800D01*
X51282000Y-54096800D02*
X48742000Y-54096800D01*
D13*
X46983620Y-40485500D02*
X46277500Y-40485500D01*
X46277500Y-40485500D02*
X46277500Y-41882500D01*
X46277500Y-41882500D02*
X46983620Y-41882500D01*
X48690500Y-40485500D02*
X47984380Y-40485500D01*
X48690500Y-40485500D02*
X48690500Y-41882500D01*
X48690500Y-41882500D02*
X47984380Y-41882500D01*
D10*
X86430000Y-31650000D02*
X86430000Y-42318000D01*
X86430000Y-42318000D02*
X84652000Y-42318000D01*
X84652000Y-42318000D02*
X84398000Y-42318000D01*
X84398000Y-42318000D02*
X84398000Y-31650000D01*
X84398000Y-31650000D02*
X86430000Y-31650000D01*
D17*
X73033580Y-33234420D02*
X73033580Y-34133580D01*
X73033580Y-34133580D02*
X73432360Y-34133580D01*
X73432360Y-33234420D02*
X73432360Y-34133580D01*
X73033580Y-33234420D02*
X73432360Y-33234420D01*
X71735640Y-33234420D02*
X71735640Y-34133580D01*
X71735640Y-34133580D02*
X72134420Y-34133580D01*
X72134420Y-33234420D02*
X72134420Y-34133580D01*
X71735640Y-33234420D02*
X72134420Y-33234420D01*
X72584000Y-33234420D02*
X72584000Y-33384280D01*
X72584000Y-33384280D02*
X72883720Y-33384280D01*
X72883720Y-33234420D02*
X72883720Y-33384280D01*
X72584000Y-33234420D02*
X72883720Y-33234420D01*
X72584000Y-33983720D02*
X72584000Y-34133580D01*
X72584000Y-34133580D02*
X72883720Y-34133580D01*
X72883720Y-33983720D02*
X72883720Y-34133580D01*
X72584000Y-33983720D02*
X72883720Y-33983720D01*
X72584000Y-33534140D02*
X72584000Y-33833860D01*
X72584000Y-33833860D02*
X72883720Y-33833860D01*
X72883720Y-33534140D02*
X72883720Y-33833860D01*
X72584000Y-33534140D02*
X72883720Y-33534140D01*
D18*
X73033580Y-33285220D02*
X72134420Y-33285220D01*
X73033580Y-34082780D02*
X72134420Y-34082780D01*
D15*
X57824000Y-24824000D02*
X78144000Y-24824000D01*
X75604000Y-19744000D02*
X57824000Y-19744000D01*
X57824000Y-24824000D02*
X57824000Y-19744000D01*
X78144000Y-24824000D02*
X78144000Y-22284000D01*
X78144000Y-19744000D02*
X75604000Y-19744000D01*
X78144000Y-22284000D02*
X75604000Y-22284000D01*
X75604000Y-22284000D02*
X75604000Y-19744000D01*
X78144000Y-19744000D02*
X78144000Y-22284000D01*
D13*
X69183620Y-32985500D02*
X68477500Y-32985500D01*
X68477500Y-32985500D02*
X68477500Y-34382500D01*
X68477500Y-34382500D02*
X69183620Y-34382500D01*
X70890500Y-32985500D02*
X70184380Y-32985500D01*
X70890500Y-32985500D02*
X70890500Y-34382500D01*
X70890500Y-34382500D02*
X70184380Y-34382500D01*
D16*
X64933680Y-46484200D02*
X73534120Y-46484200D01*
X73534120Y-46484200D02*
X73534120Y-43283800D01*
X73534120Y-43283800D02*
X64933680Y-43283800D01*
X64933680Y-44033100D02*
X64933680Y-43283800D01*
X64933680Y-45783160D02*
X64933680Y-46484200D01*
X64933680Y-44584280D02*
X64633960Y-44485220D01*
X64933680Y-45183720D02*
X64633960Y-45282780D01*
X64933680Y-45783160D02*
X64933680Y-43984840D01*
D10*
X91086000Y-58434000D02*
G75*
G03X91086000Y-58434000I-508000J0D01*
G74*
G01*
X90832000Y-58434000D02*
G75*
G03X90832000Y-58434000I-254000J0D01*
G74*
G01*
X90937210Y-58434000D02*
G75*
G03X90937210Y-58434000I-359210J0D01*
G74*
G01*
X120804000Y-22620000D02*
X121312000Y-23128000D01*
X120804000Y-12714000D02*
X120804000Y-22620000D01*
X121312000Y-53608000D02*
X121058000Y-53862000D01*
X121312000Y-43448000D02*
X121312000Y-53608000D01*
X120804000Y-42940000D02*
X121312000Y-43448000D01*
X120804000Y-33796000D02*
X120804000Y-42940000D01*
X121312000Y-33288000D02*
X120804000Y-33796000D01*
X121312000Y-23128000D02*
X121312000Y-33288000D01*
X120804000Y-54116000D02*
X120804000Y-63514000D01*
X121058000Y-53862000D02*
X120804000Y-54116000D01*
X121058000Y-53862000D02*
X120804000Y-54116000D01*
X120804000Y-54116000D02*
X120804000Y-63514000D01*
X121312000Y-23128000D02*
X121312000Y-33288000D01*
X121312000Y-33288000D02*
X120804000Y-33796000D01*
X120804000Y-33796000D02*
X120804000Y-42940000D01*
X120804000Y-42940000D02*
X121312000Y-43448000D01*
X121312000Y-43448000D02*
X121312000Y-53608000D01*
X121312000Y-53608000D02*
X121058000Y-53862000D01*
X120804000Y-12714000D02*
X120804000Y-22620000D01*
X120804000Y-22620000D02*
X121312000Y-23128000D01*
X80164000Y-22620000D02*
X80672000Y-23128000D01*
X80164000Y-12714000D02*
X80164000Y-22620000D01*
X80672000Y-53608000D02*
X80418000Y-53862000D01*
X80672000Y-43448000D02*
X80672000Y-53608000D01*
X80164000Y-42940000D02*
X80672000Y-43448000D01*
X80164000Y-33796000D02*
X80164000Y-42940000D01*
X80672000Y-33288000D02*
X80164000Y-33796000D01*
X80672000Y-23128000D02*
X80672000Y-33288000D01*
X80164000Y-54116000D02*
X80164000Y-63514000D01*
X80418000Y-53862000D02*
X80164000Y-54116000D01*
X80418000Y-53862000D02*
X80164000Y-54116000D01*
X80164000Y-54116000D02*
X80164000Y-63514000D01*
X80672000Y-23128000D02*
X80672000Y-33288000D01*
X80672000Y-33288000D02*
X80164000Y-33796000D01*
X80164000Y-33796000D02*
X80164000Y-42940000D01*
X80164000Y-42940000D02*
X80672000Y-43448000D01*
X80672000Y-43448000D02*
X80672000Y-53608000D01*
X80672000Y-53608000D02*
X80418000Y-53862000D01*
X80164000Y-12714000D02*
X80164000Y-22620000D01*
X80164000Y-22620000D02*
X80672000Y-23128000D01*
X80164000Y-12714000D02*
X120804000Y-12714000D01*
X120804000Y-63514000D02*
X80164000Y-63514000D01*
D15*
X73612800Y-57254000D02*
X73612800Y-54714000D01*
D21*
X70867136Y-55008473D02*
G75*
G03X70514000Y-55984000I1170864J-975527D01*
G74*
G01*
X70515889Y-55984469D02*
G75*
G03X70900080Y-56994920I1522111J469D01*
G74*
G01*
X73560147Y-55983966D02*
G75*
G03X73193700Y-54993400I-1522147J-34D01*
G74*
G01*
X73208864Y-56959527D02*
G75*
G03X73562000Y-55984000I-1170864J975527D01*
G74*
G01*
X73277166Y-55096845D02*
G75*
G03X72038000Y-54460000I-1239166J-887155D01*
G74*
G01*
X72037199Y-54460000D02*
G75*
G03X70818800Y-55069600I801J-1524000D01*
G74*
G01*
X72038442Y-57506206D02*
G75*
G03X73239420Y-56918720I-442J1522206D01*
G74*
G01*
X70835436Y-56920171D02*
G75*
G03X72038000Y-57508000I1202564J936171D01*
G74*
G01*
X72038000Y-55349000D02*
G75*
G03X71403000Y-55984000I0J-635000D01*
G74*
G01*
X72038000Y-54968000D02*
G75*
G03X71022000Y-55984000I0J-1016000D01*
G74*
G01*
X72038000Y-56619000D02*
G75*
G03X72673000Y-55984000I0J635000D01*
G74*
G01*
X72038000Y-57000000D02*
G75*
G03X73054000Y-55984000I0J1016000D01*
G74*
G01*
D15*
X73596880Y-54680574D02*
G75*
G03X72038000Y-53952000I-1558880J-1303426D01*
G74*
G01*
X72037025Y-53954540D02*
G75*
G03X70247300Y-55028960I975J-2029460D01*
G74*
G01*
X72040552Y-58013386D02*
G75*
G03X73587400Y-57294640I-2552J2029386D01*
G74*
G01*
X70274701Y-56993851D02*
G75*
G03X72038000Y-58016000I1763299J1009851D01*
G74*
G01*
X70248870Y-55020653D02*
G75*
G03X70006000Y-55984000I1789130J-963347D01*
G74*
G01*
X70007077Y-55984100D02*
G75*
G03X70308260Y-57048260I2030923J100D01*
G74*
G01*
D13*
X63744000Y-54841000D02*
X63744000Y-57127000D01*
X63744000Y-57127000D02*
X65395000Y-57127000D01*
X67173000Y-54841000D02*
X68824000Y-54841000D01*
X68824000Y-54841000D02*
X68824000Y-57127000D01*
X68824000Y-57127000D02*
X67173000Y-57127000D01*
X65395000Y-54841000D02*
X63744000Y-54841000D01*
D14*
X66703000Y-53608000D02*
X66703000Y-50560000D01*
X66703000Y-50560000D02*
X67465000Y-50560000D01*
X67465000Y-50560000D02*
X67465000Y-53608000D01*
X67465000Y-53608000D02*
X66703000Y-53608000D01*
X65784380Y-48634240D02*
X66482880Y-48634240D01*
X64783620Y-48634240D02*
X64085120Y-48634240D01*
X65784380Y-47333760D02*
X66482880Y-47333760D01*
X64085120Y-47333760D02*
X64783620Y-47333760D01*
X66482880Y-47349000D02*
X66482880Y-48619000D01*
X64085120Y-48619000D02*
X64085120Y-47349000D01*
D22*
X47050662Y-23020700D02*
X46812386Y-23173100D01*
X47050662Y-23281957D02*
X46550282Y-23281957D01*
X46550282Y-23107785D01*
X46574110Y-23064243D01*
X46597938Y-23042471D01*
X46645593Y-23020700D01*
X46717076Y-23020700D01*
X46764731Y-23042471D01*
X46788559Y-23064243D01*
X46812386Y-23107785D01*
X46812386Y-23281957D01*
X46550282Y-22607043D02*
X46550282Y-22824757D01*
X46788559Y-22846528D01*
X46764731Y-22824757D01*
X46740903Y-22781214D01*
X46740903Y-22672357D01*
X46764731Y-22628814D01*
X46788559Y-22607043D01*
X46836214Y-22585271D01*
X46955352Y-22585271D01*
X47003007Y-22607043D01*
X47026835Y-22628814D01*
X47050662Y-22672357D01*
X47050662Y-22781214D01*
X47026835Y-22824757D01*
X47003007Y-22846528D01*
X44952683Y-23323686D02*
X45291350Y-23323686D01*
X44759159Y-23432543D02*
X45122016Y-23541400D01*
X45122016Y-23258372D01*
X45291350Y-23084200D02*
X44783350Y-23084200D01*
X45097826Y-23040657D02*
X45291350Y-22910028D01*
X44952683Y-22910028D02*
X45146207Y-23084200D01*
X44783350Y-22757629D02*
X44783350Y-22452829D01*
X45291350Y-22648772D01*
X46407800Y-33065429D02*
X46386029Y-33089619D01*
X46320715Y-33113810D01*
X46277172Y-33113810D01*
X46211857Y-33089619D01*
X46168315Y-33041238D01*
X46146543Y-32992857D01*
X46124772Y-32896095D01*
X46124772Y-32823524D01*
X46146543Y-32726762D01*
X46168315Y-32678381D01*
X46211857Y-32630000D01*
X46277172Y-32605810D01*
X46320715Y-32605810D01*
X46386029Y-32630000D01*
X46407800Y-32654190D01*
X46799686Y-32775143D02*
X46799686Y-33113810D01*
X46690829Y-32581619D02*
X46581972Y-32944476D01*
X46865000Y-32944476D01*
X45972371Y-34764810D02*
X45711114Y-34764810D01*
X45841742Y-34764810D02*
X45841742Y-34256810D01*
X45798199Y-34329381D01*
X45754657Y-34377762D01*
X45711114Y-34401952D01*
X46255400Y-34256810D02*
X46298943Y-34256810D01*
X46342486Y-34281000D01*
X46364257Y-34305190D01*
X46386028Y-34353571D01*
X46407800Y-34450333D01*
X46407800Y-34571286D01*
X46386028Y-34668048D01*
X46364257Y-34716429D01*
X46342486Y-34740619D01*
X46298943Y-34764810D01*
X46255400Y-34764810D01*
X46211857Y-34740619D01*
X46190086Y-34716429D01*
X46168314Y-34668048D01*
X46146543Y-34571286D01*
X46146543Y-34450333D01*
X46168314Y-34353571D01*
X46190086Y-34305190D01*
X46211857Y-34281000D01*
X46255400Y-34256810D01*
X46690829Y-34256810D02*
X46734372Y-34256810D01*
X46777915Y-34281000D01*
X46799686Y-34305190D01*
X46821457Y-34353571D01*
X46843229Y-34450333D01*
X46843229Y-34571286D01*
X46821457Y-34668048D01*
X46799686Y-34716429D01*
X46777915Y-34740619D01*
X46734372Y-34764810D01*
X46690829Y-34764810D01*
X46647286Y-34740619D01*
X46625515Y-34716429D01*
X46603743Y-34668048D01*
X46581972Y-34571286D01*
X46581972Y-34450333D01*
X46603743Y-34353571D01*
X46625515Y-34305190D01*
X46647286Y-34281000D01*
X46690829Y-34256810D01*
X47039172Y-34426143D02*
X47039172Y-34764810D01*
X47039172Y-34474524D02*
X47060944Y-34450333D01*
X47104486Y-34426143D01*
X47169801Y-34426143D01*
X47213344Y-34450333D01*
X47235115Y-34498714D01*
X47235115Y-34764810D01*
D19*
X45728219Y-16617324D02*
X45728219Y-15347324D01*
X46212028Y-15347324D01*
X46332981Y-15407800D01*
X46393457Y-15468276D01*
X46453933Y-15589229D01*
X46453933Y-15770657D01*
X46393457Y-15891610D01*
X46332981Y-15952086D01*
X46212028Y-16012562D01*
X45728219Y-16012562D01*
X46937743Y-15468276D02*
X46998219Y-15407800D01*
X47119171Y-15347324D01*
X47421552Y-15347324D01*
X47542505Y-15407800D01*
X47602981Y-15468276D01*
X47663457Y-15589229D01*
X47663457Y-15710181D01*
X47602981Y-15891610D01*
X46877267Y-16617324D01*
X47663457Y-16617324D01*
D22*
X44052262Y-24066700D02*
X43813986Y-24219100D01*
X44052262Y-24327957D02*
X43551882Y-24327957D01*
X43551882Y-24153785D01*
X43575710Y-24110243D01*
X43599538Y-24088471D01*
X43647193Y-24066700D01*
X43718676Y-24066700D01*
X43766331Y-24088471D01*
X43790159Y-24110243D01*
X43813986Y-24153785D01*
X43813986Y-24327957D01*
X43551882Y-23674814D02*
X43551882Y-23761900D01*
X43575710Y-23805443D01*
X43599538Y-23827214D01*
X43671020Y-23870757D01*
X43766331Y-23892528D01*
X43956952Y-23892528D01*
X44004607Y-23870757D01*
X44028435Y-23848985D01*
X44052262Y-23805443D01*
X44052262Y-23718357D01*
X44028435Y-23674814D01*
X44004607Y-23653043D01*
X43956952Y-23631271D01*
X43837814Y-23631271D01*
X43790159Y-23653043D01*
X43766331Y-23674814D01*
X43742503Y-23718357D01*
X43742503Y-23805443D01*
X43766331Y-23848985D01*
X43790159Y-23870757D01*
X43837814Y-23892528D01*
X41954283Y-24369686D02*
X42292950Y-24369686D01*
X41760759Y-24478543D02*
X42123616Y-24587400D01*
X42123616Y-24304372D01*
X42292950Y-24130200D02*
X41784950Y-24130200D01*
X42099426Y-24086657D02*
X42292950Y-23956028D01*
X41954283Y-23956028D02*
X42147807Y-24130200D01*
X41784950Y-23803629D02*
X41784950Y-23498829D01*
X42292950Y-23694772D01*
X45773862Y-27796700D02*
X45535586Y-27949100D01*
X45773862Y-28057957D02*
X45273482Y-28057957D01*
X45273482Y-27883785D01*
X45297310Y-27840243D01*
X45321138Y-27818471D01*
X45368793Y-27796700D01*
X45440276Y-27796700D01*
X45487931Y-27818471D01*
X45511759Y-27840243D01*
X45535586Y-27883785D01*
X45535586Y-28057957D01*
X45273482Y-27644300D02*
X45273482Y-27339500D01*
X45773862Y-27535443D01*
X44014550Y-28317400D02*
X44014550Y-28578657D01*
X44014550Y-28448029D02*
X43506550Y-28448029D01*
X43579121Y-28491572D01*
X43627502Y-28535114D01*
X43651692Y-28578657D01*
X43506550Y-28034371D02*
X43506550Y-27990828D01*
X43530740Y-27947285D01*
X43554930Y-27925514D01*
X43603311Y-27903743D01*
X43700073Y-27881971D01*
X43821026Y-27881971D01*
X43917788Y-27903743D01*
X43966169Y-27925514D01*
X43990359Y-27947285D01*
X44014550Y-27990828D01*
X44014550Y-28034371D01*
X43990359Y-28077914D01*
X43966169Y-28099685D01*
X43917788Y-28121457D01*
X43821026Y-28143228D01*
X43700073Y-28143228D01*
X43603311Y-28121457D01*
X43554930Y-28099685D01*
X43530740Y-28077914D01*
X43506550Y-28034371D01*
X43506550Y-27598942D02*
X43506550Y-27555399D01*
X43530740Y-27511856D01*
X43554930Y-27490085D01*
X43603311Y-27468314D01*
X43700073Y-27446542D01*
X43821026Y-27446542D01*
X43917788Y-27468314D01*
X43966169Y-27490085D01*
X43990359Y-27511856D01*
X44014550Y-27555399D01*
X44014550Y-27598942D01*
X43990359Y-27642485D01*
X43966169Y-27664256D01*
X43917788Y-27686028D01*
X43821026Y-27707799D01*
X43700073Y-27707799D01*
X43603311Y-27686028D01*
X43554930Y-27664256D01*
X43530740Y-27642485D01*
X43506550Y-27598942D01*
X44014550Y-26989342D02*
X43772645Y-27141742D01*
X44014550Y-27250599D02*
X43506550Y-27250599D01*
X43506550Y-27076427D01*
X43530740Y-27032885D01*
X43554930Y-27011113D01*
X43603311Y-26989342D01*
X43675883Y-26989342D01*
X43724264Y-27011113D01*
X43748454Y-27032885D01*
X43772645Y-27076427D01*
X43772645Y-27250599D01*
D19*
X26450286Y-48448037D02*
X26401905Y-48496418D01*
X26256762Y-48544799D01*
X26160000Y-48544799D01*
X26014858Y-48496418D01*
X25918096Y-48399656D01*
X25869715Y-48302894D01*
X25821334Y-48109370D01*
X25821334Y-47964228D01*
X25869715Y-47770704D01*
X25918096Y-47673942D01*
X26014858Y-47577180D01*
X26160000Y-47528799D01*
X26256762Y-47528799D01*
X26401905Y-47577180D01*
X26450286Y-47625561D01*
X27079239Y-47528799D02*
X27272762Y-47528799D01*
X27369524Y-47577180D01*
X27466286Y-47673942D01*
X27514667Y-47867466D01*
X27514667Y-48206132D01*
X27466286Y-48399656D01*
X27369524Y-48496418D01*
X27272762Y-48544799D01*
X27079239Y-48544799D01*
X26982477Y-48496418D01*
X26885715Y-48399656D01*
X26837334Y-48206132D01*
X26837334Y-47867466D01*
X26885715Y-47673942D01*
X26982477Y-47577180D01*
X27079239Y-47528799D01*
X27950096Y-48544799D02*
X27950096Y-47528799D01*
X28530667Y-48544799D01*
X28530667Y-47528799D01*
X29546667Y-48544799D02*
X28966096Y-48544799D01*
X29256382Y-48544799D02*
X29256382Y-47528799D01*
X29159620Y-47673942D01*
X29062858Y-47770704D01*
X28966096Y-47819085D01*
D14*
X32234928Y-56664507D02*
X32211100Y-56688335D01*
X32139617Y-56712162D01*
X32091962Y-56712162D01*
X32020479Y-56688335D01*
X31972824Y-56640680D01*
X31948996Y-56593024D01*
X31925168Y-56497714D01*
X31925168Y-56426231D01*
X31948996Y-56330920D01*
X31972824Y-56283265D01*
X32020479Y-56235610D01*
X32091962Y-56211782D01*
X32139617Y-56211782D01*
X32211100Y-56235610D01*
X32234928Y-56259438D01*
X32711480Y-56712162D02*
X32425548Y-56712162D01*
X32568514Y-56712162D02*
X32568514Y-56211782D01*
X32520859Y-56283265D01*
X32473204Y-56330920D01*
X32425548Y-56354748D01*
X32878273Y-56211782D02*
X33188032Y-56211782D01*
X33021239Y-56402403D01*
X33092721Y-56402403D01*
X33140377Y-56426231D01*
X33164204Y-56450059D01*
X33188032Y-56497714D01*
X33188032Y-56616852D01*
X33164204Y-56664507D01*
X33140377Y-56688335D01*
X33092721Y-56712162D01*
X32949756Y-56712162D01*
X32902100Y-56688335D01*
X32878273Y-56664507D01*
D13*
X39675010Y-54173353D02*
X39167010Y-54173353D01*
X39167010Y-54052400D01*
X39191200Y-53979829D01*
X39239581Y-53931448D01*
X39287962Y-53907257D01*
X39384724Y-53883067D01*
X39457295Y-53883067D01*
X39554057Y-53907257D01*
X39602438Y-53931448D01*
X39650819Y-53979829D01*
X39675010Y-54052400D01*
X39675010Y-54173353D01*
X39675010Y-53399257D02*
X39675010Y-53689543D01*
X39675010Y-53544400D02*
X39167010Y-53544400D01*
X39239581Y-53592781D01*
X39287962Y-53641162D01*
X39312152Y-53689543D01*
X37643010Y-55612685D02*
X37643010Y-55854590D01*
X37135010Y-55854590D01*
X37376914Y-55443352D02*
X37376914Y-55274018D01*
X37643010Y-55201447D02*
X37643010Y-55443352D01*
X37135010Y-55443352D01*
X37135010Y-55201447D01*
X37643010Y-54983733D02*
X37135010Y-54983733D01*
X37135010Y-54862780D01*
X37159200Y-54790209D01*
X37207581Y-54741828D01*
X37255962Y-54717637D01*
X37352724Y-54693447D01*
X37425295Y-54693447D01*
X37522057Y-54717637D01*
X37570438Y-54741828D01*
X37618819Y-54790209D01*
X37643010Y-54862780D01*
X37643010Y-54983733D01*
X37691390Y-54596685D02*
X37691390Y-54209637D01*
X37643010Y-54088685D02*
X37135010Y-54088685D01*
X37135010Y-53895161D01*
X37159200Y-53846780D01*
X37183390Y-53822589D01*
X37231771Y-53798399D01*
X37304343Y-53798399D01*
X37352724Y-53822589D01*
X37376914Y-53846780D01*
X37401105Y-53895161D01*
X37401105Y-54088685D01*
X37135010Y-53483923D02*
X37135010Y-53387161D01*
X37159200Y-53338780D01*
X37207581Y-53290399D01*
X37304343Y-53266208D01*
X37473676Y-53266208D01*
X37570438Y-53290399D01*
X37618819Y-53338780D01*
X37643010Y-53387161D01*
X37643010Y-53483923D01*
X37618819Y-53532304D01*
X37570438Y-53580685D01*
X37473676Y-53604875D01*
X37304343Y-53604875D01*
X37207581Y-53580685D01*
X37159200Y-53532304D01*
X37135010Y-53483923D01*
X37135010Y-53096876D02*
X37643010Y-52975923D01*
X37280152Y-52879161D01*
X37643010Y-52782399D01*
X37135010Y-52661447D01*
X37376914Y-52467924D02*
X37376914Y-52298590D01*
X37643010Y-52226019D02*
X37643010Y-52467924D01*
X37135010Y-52467924D01*
X37135010Y-52226019D01*
X37643010Y-51718019D02*
X37401105Y-51887352D01*
X37643010Y-52008305D02*
X37135010Y-52008305D01*
X37135010Y-51814781D01*
X37159200Y-51766400D01*
X37183390Y-51742209D01*
X37231771Y-51718019D01*
X37304343Y-51718019D01*
X37352724Y-51742209D01*
X37376914Y-51766400D01*
X37401105Y-51814781D01*
X37401105Y-52008305D01*
D19*
X32914305Y-50208819D02*
X32914305Y-51031295D01*
X32962686Y-51128057D01*
X33011067Y-51176438D01*
X33107829Y-51224819D01*
X33301352Y-51224819D01*
X33398114Y-51176438D01*
X33446495Y-51128057D01*
X33494876Y-51031295D01*
X33494876Y-50208819D01*
X33930305Y-50305581D02*
X33978686Y-50257200D01*
X34075448Y-50208819D01*
X34317352Y-50208819D01*
X34414114Y-50257200D01*
X34462495Y-50305581D01*
X34510876Y-50402343D01*
X34510876Y-50499105D01*
X34462495Y-50644248D01*
X33881924Y-51224819D01*
X34510876Y-51224819D01*
X26455448Y-52748819D02*
X25971639Y-52748819D01*
X25971639Y-51732819D01*
X26794115Y-52748819D02*
X26794115Y-51732819D01*
X27132781Y-52458533D01*
X27471448Y-51732819D01*
X27471448Y-52748819D01*
X28487448Y-52748819D02*
X27906877Y-52748819D01*
X28197163Y-52748819D02*
X28197163Y-51732819D01*
X28100401Y-51877962D01*
X28003639Y-51974724D01*
X27906877Y-52023105D01*
X29455067Y-52748819D02*
X28874496Y-52748819D01*
X29164782Y-52748819D02*
X29164782Y-51732819D01*
X29068020Y-51877962D01*
X28971258Y-51974724D01*
X28874496Y-52023105D01*
X30422686Y-52748819D02*
X29842115Y-52748819D01*
X30132401Y-52748819D02*
X30132401Y-51732819D01*
X30035639Y-51877962D01*
X29938877Y-51974724D01*
X29842115Y-52023105D01*
X30761353Y-51732819D02*
X31438686Y-51732819D01*
X31003258Y-52748819D01*
X31583829Y-52845581D02*
X32357924Y-52845581D01*
X32551448Y-52700438D02*
X32696591Y-52748819D01*
X32938495Y-52748819D01*
X33035257Y-52700438D01*
X33083638Y-52652057D01*
X33132019Y-52555295D01*
X33132019Y-52458533D01*
X33083638Y-52361771D01*
X33035257Y-52313390D01*
X32938495Y-52265010D01*
X32744972Y-52216629D01*
X32648210Y-52168248D01*
X32599829Y-52119867D01*
X32551448Y-52023105D01*
X32551448Y-51926343D01*
X32599829Y-51829581D01*
X32648210Y-51781200D01*
X32744972Y-51732819D01*
X32986876Y-51732819D01*
X33132019Y-51781200D01*
X33760972Y-51732819D02*
X33954495Y-51732819D01*
X34051257Y-51781200D01*
X34148019Y-51877962D01*
X34196400Y-52071486D01*
X34196400Y-52410152D01*
X34148019Y-52603676D01*
X34051257Y-52700438D01*
X33954495Y-52748819D01*
X33760972Y-52748819D01*
X33664210Y-52700438D01*
X33567448Y-52603676D01*
X33519067Y-52410152D01*
X33519067Y-52071486D01*
X33567448Y-51877962D01*
X33664210Y-51781200D01*
X33760972Y-51732819D01*
X34486686Y-51732819D02*
X35067257Y-51732819D01*
X34776972Y-52748819D02*
X34776972Y-51732819D01*
X35357543Y-51829581D02*
X35405924Y-51781200D01*
X35502686Y-51732819D01*
X35744590Y-51732819D01*
X35841352Y-51781200D01*
X35889733Y-51829581D01*
X35938114Y-51926343D01*
X35938114Y-52023105D01*
X35889733Y-52168248D01*
X35309162Y-52748819D01*
X35938114Y-52748819D01*
X36325162Y-51829581D02*
X36373543Y-51781200D01*
X36470305Y-51732819D01*
X36712209Y-51732819D01*
X36808971Y-51781200D01*
X36857352Y-51829581D01*
X36905733Y-51926343D01*
X36905733Y-52023105D01*
X36857352Y-52168248D01*
X36276781Y-52748819D01*
X36905733Y-52748819D01*
X37244400Y-51732819D02*
X37873352Y-51732819D01*
X37534686Y-52119867D01*
X37679828Y-52119867D01*
X37776590Y-52168248D01*
X37824971Y-52216629D01*
X37873352Y-52313390D01*
X37873352Y-52555295D01*
X37824971Y-52652057D01*
X37776590Y-52700438D01*
X37679828Y-52748819D01*
X37389543Y-52748819D01*
X37292781Y-52700438D01*
X37244400Y-52652057D01*
X38066876Y-52845581D02*
X38840971Y-52845581D01*
X38986114Y-51732819D02*
X39615066Y-51732819D01*
X39276400Y-52119867D01*
X39421542Y-52119867D01*
X39518304Y-52168248D01*
X39566685Y-52216629D01*
X39615066Y-52313390D01*
X39615066Y-52555295D01*
X39566685Y-52652057D01*
X39518304Y-52700438D01*
X39421542Y-52748819D01*
X39131257Y-52748819D01*
X39034495Y-52700438D01*
X38986114Y-52652057D01*
X39905352Y-51732819D02*
X40244019Y-52748819D01*
X40582685Y-51732819D01*
X40824590Y-51732819D02*
X41453542Y-51732819D01*
X41114876Y-52119867D01*
X41260018Y-52119867D01*
X41356780Y-52168248D01*
X41405161Y-52216629D01*
X41453542Y-52313390D01*
X41453542Y-52555295D01*
X41405161Y-52652057D01*
X41356780Y-52700438D01*
X41260018Y-52748819D01*
X40969733Y-52748819D01*
X40872971Y-52700438D01*
X40824590Y-52652057D01*
D20*
X30398946Y-52327740D02*
X30471517Y-52400311D01*
X30544089Y-52618025D01*
X30544089Y-52763168D01*
X30471517Y-52980883D01*
X30326374Y-53126025D01*
X30181231Y-53198597D01*
X29890946Y-53271168D01*
X29673231Y-53271168D01*
X29382946Y-53198597D01*
X29237803Y-53126025D01*
X29092660Y-52980883D01*
X29020089Y-52763168D01*
X29020089Y-52618025D01*
X29092660Y-52400311D01*
X29165231Y-52327740D01*
X30544089Y-50876311D02*
X30544089Y-51747168D01*
X30544089Y-51311740D02*
X29020089Y-51311740D01*
X29237803Y-51456883D01*
X29382946Y-51602025D01*
X29455517Y-51747168D01*
X29064357Y-48153431D02*
X29064357Y-46992288D01*
X29644929Y-47572859D02*
X28483786Y-47572859D01*
D13*
X36628714Y-37205857D02*
X36265857Y-37459857D01*
X36628714Y-37641285D02*
X35866714Y-37641285D01*
X35866714Y-37351000D01*
X35903000Y-37278428D01*
X35939286Y-37242143D01*
X36011857Y-37205857D01*
X36120714Y-37205857D01*
X36193286Y-37242143D01*
X36229571Y-37278428D01*
X36265857Y-37351000D01*
X36265857Y-37641285D01*
X36628714Y-36480143D02*
X36628714Y-36915571D01*
X36628714Y-36697857D02*
X35866714Y-36697857D01*
X35975571Y-36770428D01*
X36048143Y-36843000D01*
X36084429Y-36915571D01*
X36120714Y-35827000D02*
X36628714Y-35827000D01*
X35830429Y-36008429D02*
X36374714Y-36189857D01*
X36374714Y-35718143D01*
X54919042Y-36505718D02*
X54919042Y-37396048D01*
X54971414Y-37500793D01*
X55023787Y-37553165D01*
X55128531Y-37605538D01*
X55338021Y-37605538D01*
X55442766Y-37553165D01*
X55495138Y-37500793D01*
X55547510Y-37396048D01*
X55547510Y-36505718D01*
X56647330Y-37605538D02*
X56018862Y-37605538D01*
X56333096Y-37605538D02*
X56333096Y-36505718D01*
X56228351Y-36662835D01*
X56123606Y-36767580D01*
X56018862Y-36819952D01*
D21*
X49259921Y-34385725D02*
X49259921Y-33384965D01*
X49641163Y-33384965D01*
X49736474Y-33432620D01*
X49784129Y-33480275D01*
X49831784Y-33575586D01*
X49831784Y-33718551D01*
X49784129Y-33813862D01*
X49736474Y-33861517D01*
X49641163Y-33909172D01*
X49259921Y-33909172D01*
X50260681Y-34385725D02*
X50260681Y-33384965D01*
X51309096Y-34290414D02*
X51261441Y-34338070D01*
X51118475Y-34385725D01*
X51023165Y-34385725D01*
X50880199Y-34338070D01*
X50784888Y-34242759D01*
X50737233Y-34147449D01*
X50689578Y-33956828D01*
X50689578Y-33813862D01*
X50737233Y-33623241D01*
X50784888Y-33527930D01*
X50880199Y-33432620D01*
X51023165Y-33384965D01*
X51118475Y-33384965D01*
X51261441Y-33432620D01*
X51309096Y-33480275D01*
X51690338Y-33480275D02*
X51737993Y-33432620D01*
X51833304Y-33384965D01*
X52071580Y-33384965D01*
X52166890Y-33432620D01*
X52214546Y-33480275D01*
X52262201Y-33575586D01*
X52262201Y-33670896D01*
X52214546Y-33813862D01*
X51642683Y-34385725D01*
X52262201Y-34385725D01*
X53119995Y-33718551D02*
X53119995Y-34385725D01*
X52881719Y-33337310D02*
X52643443Y-34052138D01*
X53262961Y-34052138D01*
X53977790Y-33861517D02*
X53644203Y-33861517D01*
X53644203Y-34385725D02*
X53644203Y-33384965D01*
X54120756Y-33384965D01*
X54787929Y-33384965D02*
X54787929Y-34099793D01*
X54740273Y-34242759D01*
X54644963Y-34338070D01*
X54501997Y-34385725D01*
X54406687Y-34385725D01*
X55169171Y-33384965D02*
X55836344Y-34385725D01*
X55836344Y-33384965D02*
X55169171Y-34385725D01*
X56122276Y-33384965D02*
X56789449Y-34385725D01*
X56789449Y-33384965D02*
X56122276Y-34385725D01*
X57075381Y-33384965D02*
X57742554Y-34385725D01*
X57742554Y-33384965D02*
X57075381Y-34385725D01*
X58648004Y-33432620D02*
X58552693Y-33384965D01*
X58409728Y-33384965D01*
X58266762Y-33432620D01*
X58171451Y-33527930D01*
X58123796Y-33623241D01*
X58076141Y-33813862D01*
X58076141Y-33956828D01*
X58123796Y-34147449D01*
X58171451Y-34242759D01*
X58266762Y-34338070D01*
X58409728Y-34385725D01*
X58505038Y-34385725D01*
X58648004Y-34338070D01*
X58695659Y-34290414D01*
X58695659Y-33956828D01*
X58505038Y-33956828D01*
X59458143Y-33861517D02*
X59601109Y-33909172D01*
X59648764Y-33956828D01*
X59696419Y-34052138D01*
X59696419Y-34195104D01*
X59648764Y-34290414D01*
X59601109Y-34338070D01*
X59505798Y-34385725D01*
X59124556Y-34385725D01*
X59124556Y-33384965D01*
X59458143Y-33384965D01*
X59553453Y-33432620D01*
X59601109Y-33480275D01*
X59648764Y-33575586D01*
X59648764Y-33670896D01*
X59601109Y-33766207D01*
X59553453Y-33813862D01*
X59458143Y-33861517D01*
X59124556Y-33861517D01*
X60649524Y-34385725D02*
X60077661Y-34385725D01*
X60363592Y-34385725D02*
X60363592Y-33384965D01*
X60268282Y-33527930D01*
X60172971Y-33623241D01*
X60077661Y-33670896D01*
X61269042Y-33384965D02*
X61364353Y-33384965D01*
X61459663Y-33432620D01*
X61507318Y-33480275D01*
X61554974Y-33575586D01*
X61602629Y-33766207D01*
X61602629Y-34004483D01*
X61554974Y-34195104D01*
X61507318Y-34290414D01*
X61459663Y-34338070D01*
X61364353Y-34385725D01*
X61269042Y-34385725D01*
X61173732Y-34338070D01*
X61126076Y-34290414D01*
X61078421Y-34195104D01*
X61030766Y-34004483D01*
X61030766Y-33766207D01*
X61078421Y-33575586D01*
X61126076Y-33480275D01*
X61173732Y-33432620D01*
X61269042Y-33384965D01*
X62460423Y-33384965D02*
X62269802Y-33384965D01*
X62174492Y-33432620D01*
X62126837Y-33480275D01*
X62031526Y-33623241D01*
X61983871Y-33813862D01*
X61983871Y-34195104D01*
X62031526Y-34290414D01*
X62079181Y-34338070D01*
X62174492Y-34385725D01*
X62365113Y-34385725D01*
X62460423Y-34338070D01*
X62508079Y-34290414D01*
X62555734Y-34195104D01*
X62555734Y-33956828D01*
X62508079Y-33861517D01*
X62460423Y-33813862D01*
X62365113Y-33766207D01*
X62174492Y-33766207D01*
X62079181Y-33813862D01*
X62031526Y-33861517D01*
X61983871Y-33956828D01*
D14*
X66287728Y-37267307D02*
X66263900Y-37291135D01*
X66192417Y-37314962D01*
X66144762Y-37314962D01*
X66073279Y-37291135D01*
X66025624Y-37243480D01*
X66001796Y-37195824D01*
X65977968Y-37100514D01*
X65977968Y-37029031D01*
X66001796Y-36933720D01*
X66025624Y-36886065D01*
X66073279Y-36838410D01*
X66144762Y-36814582D01*
X66192417Y-36814582D01*
X66263900Y-36838410D01*
X66287728Y-36862238D01*
X66764280Y-37314962D02*
X66478348Y-37314962D01*
X66621314Y-37314962D02*
X66621314Y-36814582D01*
X66573659Y-36886065D01*
X66526004Y-36933720D01*
X66478348Y-36957548D01*
X66954900Y-36862238D02*
X66978728Y-36838410D01*
X67026383Y-36814582D01*
X67145521Y-36814582D01*
X67193177Y-36838410D01*
X67217004Y-36862238D01*
X67240832Y-36909893D01*
X67240832Y-36957548D01*
X67217004Y-37029031D01*
X66931073Y-37314962D01*
X67240832Y-37314962D01*
D22*
X56065429Y-27360200D02*
X56089619Y-27381971D01*
X56113810Y-27447285D01*
X56113810Y-27490828D01*
X56089619Y-27556143D01*
X56041238Y-27599685D01*
X55992857Y-27621457D01*
X55896095Y-27643228D01*
X55823524Y-27643228D01*
X55726762Y-27621457D01*
X55678381Y-27599685D01*
X55630000Y-27556143D01*
X55605810Y-27490828D01*
X55605810Y-27447285D01*
X55630000Y-27381971D01*
X55654190Y-27360200D01*
X55605810Y-27207800D02*
X55605810Y-26903000D01*
X56113810Y-27098943D01*
X57764810Y-27795629D02*
X57764810Y-28056886D01*
X57764810Y-27926258D02*
X57256810Y-27926258D01*
X57329381Y-27969801D01*
X57377762Y-28013343D01*
X57401952Y-28056886D01*
X57256810Y-27512600D02*
X57256810Y-27469057D01*
X57281000Y-27425514D01*
X57305190Y-27403743D01*
X57353571Y-27381972D01*
X57450333Y-27360200D01*
X57571286Y-27360200D01*
X57668048Y-27381972D01*
X57716429Y-27403743D01*
X57740619Y-27425514D01*
X57764810Y-27469057D01*
X57764810Y-27512600D01*
X57740619Y-27556143D01*
X57716429Y-27577914D01*
X57668048Y-27599686D01*
X57571286Y-27621457D01*
X57450333Y-27621457D01*
X57353571Y-27599686D01*
X57305190Y-27577914D01*
X57281000Y-27556143D01*
X57256810Y-27512600D01*
X57256810Y-27077171D02*
X57256810Y-27033628D01*
X57281000Y-26990085D01*
X57305190Y-26968314D01*
X57353571Y-26946543D01*
X57450333Y-26924771D01*
X57571286Y-26924771D01*
X57668048Y-26946543D01*
X57716429Y-26968314D01*
X57740619Y-26990085D01*
X57764810Y-27033628D01*
X57764810Y-27077171D01*
X57740619Y-27120714D01*
X57716429Y-27142485D01*
X57668048Y-27164257D01*
X57571286Y-27186028D01*
X57450333Y-27186028D01*
X57353571Y-27164257D01*
X57305190Y-27142485D01*
X57281000Y-27120714D01*
X57256810Y-27077171D01*
X57426143Y-26728828D02*
X57764810Y-26728828D01*
X57474524Y-26728828D02*
X57450333Y-26707056D01*
X57426143Y-26663514D01*
X57426143Y-26598199D01*
X57450333Y-26554656D01*
X57498714Y-26532885D01*
X57764810Y-26532885D01*
X46707800Y-36465429D02*
X46686029Y-36489619D01*
X46620715Y-36513810D01*
X46577172Y-36513810D01*
X46511857Y-36489619D01*
X46468315Y-36441238D01*
X46446543Y-36392857D01*
X46424772Y-36296095D01*
X46424772Y-36223524D01*
X46446543Y-36126762D01*
X46468315Y-36078381D01*
X46511857Y-36030000D01*
X46577172Y-36005810D01*
X46620715Y-36005810D01*
X46686029Y-36030000D01*
X46707800Y-36054190D01*
X46969057Y-36223524D02*
X46925515Y-36199333D01*
X46903743Y-36175143D01*
X46881972Y-36126762D01*
X46881972Y-36102571D01*
X46903743Y-36054190D01*
X46925515Y-36030000D01*
X46969057Y-36005810D01*
X47056143Y-36005810D01*
X47099686Y-36030000D01*
X47121457Y-36054190D01*
X47143229Y-36102571D01*
X47143229Y-36126762D01*
X47121457Y-36175143D01*
X47099686Y-36199333D01*
X47056143Y-36223524D01*
X46969057Y-36223524D01*
X46925515Y-36247714D01*
X46903743Y-36271905D01*
X46881972Y-36320286D01*
X46881972Y-36417048D01*
X46903743Y-36465429D01*
X46925515Y-36489619D01*
X46969057Y-36513810D01*
X47056143Y-36513810D01*
X47099686Y-36489619D01*
X47121457Y-36465429D01*
X47143229Y-36417048D01*
X47143229Y-36320286D01*
X47121457Y-36271905D01*
X47099686Y-36247714D01*
X47056143Y-36223524D01*
X46272371Y-34862810D02*
X46011114Y-34862810D01*
X46141742Y-34862810D02*
X46141742Y-34354810D01*
X46098199Y-34427381D01*
X46054657Y-34475762D01*
X46011114Y-34499952D01*
X46555400Y-34354810D02*
X46598943Y-34354810D01*
X46642486Y-34379000D01*
X46664257Y-34403190D01*
X46686028Y-34451571D01*
X46707800Y-34548333D01*
X46707800Y-34669286D01*
X46686028Y-34766048D01*
X46664257Y-34814429D01*
X46642486Y-34838619D01*
X46598943Y-34862810D01*
X46555400Y-34862810D01*
X46511857Y-34838619D01*
X46490086Y-34814429D01*
X46468314Y-34766048D01*
X46446543Y-34669286D01*
X46446543Y-34548333D01*
X46468314Y-34451571D01*
X46490086Y-34403190D01*
X46511857Y-34379000D01*
X46555400Y-34354810D01*
X46990829Y-34354810D02*
X47034372Y-34354810D01*
X47077915Y-34379000D01*
X47099686Y-34403190D01*
X47121457Y-34451571D01*
X47143229Y-34548333D01*
X47143229Y-34669286D01*
X47121457Y-34766048D01*
X47099686Y-34814429D01*
X47077915Y-34838619D01*
X47034372Y-34862810D01*
X46990829Y-34862810D01*
X46947286Y-34838619D01*
X46925515Y-34814429D01*
X46903743Y-34766048D01*
X46881972Y-34669286D01*
X46881972Y-34548333D01*
X46903743Y-34451571D01*
X46925515Y-34403190D01*
X46947286Y-34379000D01*
X46990829Y-34354810D01*
X47339172Y-34524143D02*
X47339172Y-34862810D01*
X47339172Y-34572524D02*
X47360944Y-34548333D01*
X47404486Y-34524143D01*
X47469801Y-34524143D01*
X47513344Y-34548333D01*
X47535115Y-34596714D01*
X47535115Y-34862810D01*
D19*
X58546619Y-13772524D02*
X58546619Y-12502524D01*
X59030428Y-12502524D01*
X59151381Y-12563000D01*
X59211857Y-12623476D01*
X59272333Y-12744429D01*
X59272333Y-12925857D01*
X59211857Y-13046810D01*
X59151381Y-13107286D01*
X59030428Y-13167762D01*
X58546619Y-13167762D01*
X60360905Y-12925857D02*
X60360905Y-13772524D01*
X60058524Y-12442048D02*
X59756143Y-13349190D01*
X60542333Y-13349190D01*
D10*
X54736381Y-51745905D02*
X55269714Y-52545905D01*
X55269714Y-51745905D02*
X54736381Y-52545905D01*
X55993524Y-52545905D02*
X55536381Y-52545905D01*
X55764952Y-52545905D02*
X55764952Y-51745905D01*
X55688762Y-51860190D01*
X55612571Y-51936381D01*
X55536381Y-51974476D01*
X51112571Y-49169714D02*
X51074476Y-49207810D01*
X50960190Y-49245905D01*
X50884000Y-49245905D01*
X50769714Y-49207810D01*
X50693523Y-49131619D01*
X50655428Y-49055429D01*
X50617333Y-48903048D01*
X50617333Y-48788762D01*
X50655428Y-48636381D01*
X50693523Y-48560190D01*
X50769714Y-48484000D01*
X50884000Y-48445905D01*
X50960190Y-48445905D01*
X51074476Y-48484000D01*
X51112571Y-48522095D01*
X51912571Y-49245905D02*
X51645904Y-48864952D01*
X51455428Y-49245905D02*
X51455428Y-48445905D01*
X51760190Y-48445905D01*
X51836381Y-48484000D01*
X51874476Y-48522095D01*
X51912571Y-48598286D01*
X51912571Y-48712571D01*
X51874476Y-48788762D01*
X51836381Y-48826857D01*
X51760190Y-48864952D01*
X51455428Y-48864952D01*
X52407809Y-48864952D02*
X52407809Y-49245905D01*
X52141142Y-48445905D02*
X52407809Y-48864952D01*
X52674476Y-48445905D01*
X52903047Y-49207810D02*
X53017333Y-49245905D01*
X53207809Y-49245905D01*
X53283999Y-49207810D01*
X53322095Y-49169714D01*
X53360190Y-49093524D01*
X53360190Y-49017333D01*
X53322095Y-48941143D01*
X53283999Y-48903048D01*
X53207809Y-48864952D01*
X53055428Y-48826857D01*
X52979237Y-48788762D01*
X52941142Y-48750667D01*
X52903047Y-48674476D01*
X52903047Y-48598286D01*
X52941142Y-48522095D01*
X52979237Y-48484000D01*
X53055428Y-48445905D01*
X53245904Y-48445905D01*
X53360190Y-48484000D01*
X53588761Y-48445905D02*
X54045904Y-48445905D01*
X53817333Y-49245905D02*
X53817333Y-48445905D01*
X54274476Y-49017333D02*
X54655428Y-49017333D01*
X54198285Y-49245905D02*
X54464952Y-48445905D01*
X54731619Y-49245905D01*
X55379238Y-49245905D02*
X54998285Y-49245905D01*
X54998285Y-48445905D01*
X55455428Y-49322095D02*
X56064952Y-49322095D01*
X56674476Y-49245905D02*
X56217333Y-49245905D01*
X56445904Y-49245905D02*
X56445904Y-48445905D01*
X56369714Y-48560190D01*
X56293523Y-48636381D01*
X56217333Y-48674476D01*
X56979238Y-48522095D02*
X57017333Y-48484000D01*
X57093524Y-48445905D01*
X57284000Y-48445905D01*
X57360190Y-48484000D01*
X57398286Y-48522095D01*
X57436381Y-48598286D01*
X57436381Y-48674476D01*
X57398286Y-48788762D01*
X56941143Y-49245905D01*
X57436381Y-49245905D01*
X57779238Y-49245905D02*
X57779238Y-48445905D01*
X58045905Y-49017333D01*
X58312572Y-48445905D01*
X58312572Y-49245905D01*
X58693524Y-49245905D02*
X58693524Y-48445905D01*
X58693524Y-48826857D02*
X59150667Y-48826857D01*
X59150667Y-49245905D02*
X59150667Y-48445905D01*
X59455429Y-48445905D02*
X59988762Y-48445905D01*
X59455429Y-49245905D01*
X59988762Y-49245905D01*
D22*
X55565429Y-46160200D02*
X55589619Y-46181971D01*
X55613810Y-46247285D01*
X55613810Y-46290828D01*
X55589619Y-46356143D01*
X55541238Y-46399685D01*
X55492857Y-46421457D01*
X55396095Y-46443228D01*
X55323524Y-46443228D01*
X55226762Y-46421457D01*
X55178381Y-46399685D01*
X55130000Y-46356143D01*
X55105810Y-46290828D01*
X55105810Y-46247285D01*
X55130000Y-46181971D01*
X55154190Y-46160200D01*
X55105810Y-46007800D02*
X55105810Y-45724771D01*
X55299333Y-45877171D01*
X55299333Y-45811857D01*
X55323524Y-45768314D01*
X55347714Y-45746543D01*
X55396095Y-45724771D01*
X55517048Y-45724771D01*
X55565429Y-45746543D01*
X55589619Y-45768314D01*
X55613810Y-45811857D01*
X55613810Y-45942485D01*
X55589619Y-45986028D01*
X55565429Y-46007800D01*
X57264810Y-46595629D02*
X57264810Y-46856886D01*
X57264810Y-46726258D02*
X56756810Y-46726258D01*
X56829381Y-46769801D01*
X56877762Y-46813343D01*
X56901952Y-46856886D01*
X56756810Y-46312600D02*
X56756810Y-46269057D01*
X56781000Y-46225514D01*
X56805190Y-46203743D01*
X56853571Y-46181972D01*
X56950333Y-46160200D01*
X57071286Y-46160200D01*
X57168048Y-46181972D01*
X57216429Y-46203743D01*
X57240619Y-46225514D01*
X57264810Y-46269057D01*
X57264810Y-46312600D01*
X57240619Y-46356143D01*
X57216429Y-46377914D01*
X57168048Y-46399686D01*
X57071286Y-46421457D01*
X56950333Y-46421457D01*
X56853571Y-46399686D01*
X56805190Y-46377914D01*
X56781000Y-46356143D01*
X56756810Y-46312600D01*
X56756810Y-45877171D02*
X56756810Y-45833628D01*
X56781000Y-45790085D01*
X56805190Y-45768314D01*
X56853571Y-45746543D01*
X56950333Y-45724771D01*
X57071286Y-45724771D01*
X57168048Y-45746543D01*
X57216429Y-45768314D01*
X57240619Y-45790085D01*
X57264810Y-45833628D01*
X57264810Y-45877171D01*
X57240619Y-45920714D01*
X57216429Y-45942485D01*
X57168048Y-45964257D01*
X57071286Y-45986028D01*
X56950333Y-45986028D01*
X56853571Y-45964257D01*
X56805190Y-45942485D01*
X56781000Y-45920714D01*
X56756810Y-45877171D01*
X56926143Y-45528828D02*
X57264810Y-45528828D01*
X56974524Y-45528828D02*
X56950333Y-45507056D01*
X56926143Y-45463514D01*
X56926143Y-45398199D01*
X56950333Y-45354656D01*
X56998714Y-45332885D01*
X57264810Y-45332885D01*
X65065429Y-41660200D02*
X65089619Y-41681971D01*
X65113810Y-41747285D01*
X65113810Y-41790828D01*
X65089619Y-41856143D01*
X65041238Y-41899685D01*
X64992857Y-41921457D01*
X64896095Y-41943228D01*
X64823524Y-41943228D01*
X64726762Y-41921457D01*
X64678381Y-41899685D01*
X64630000Y-41856143D01*
X64605810Y-41790828D01*
X64605810Y-41747285D01*
X64630000Y-41681971D01*
X64654190Y-41660200D01*
X64605810Y-41268314D02*
X64605810Y-41355400D01*
X64630000Y-41398943D01*
X64654190Y-41420714D01*
X64726762Y-41464257D01*
X64823524Y-41486028D01*
X65017048Y-41486028D01*
X65065429Y-41464257D01*
X65089619Y-41442485D01*
X65113810Y-41398943D01*
X65113810Y-41311857D01*
X65089619Y-41268314D01*
X65065429Y-41246543D01*
X65017048Y-41224771D01*
X64896095Y-41224771D01*
X64847714Y-41246543D01*
X64823524Y-41268314D01*
X64799333Y-41311857D01*
X64799333Y-41398943D01*
X64823524Y-41442485D01*
X64847714Y-41464257D01*
X64896095Y-41486028D01*
X63414429Y-41605772D02*
X63438619Y-41584000D01*
X63462810Y-41605772D01*
X63438619Y-41627543D01*
X63414429Y-41605772D01*
X63462810Y-41605772D01*
X62979000Y-41692857D02*
X62954810Y-41649314D01*
X62954810Y-41540457D01*
X62979000Y-41496914D01*
X63027381Y-41475143D01*
X63075762Y-41475143D01*
X63124143Y-41496914D01*
X63148333Y-41518686D01*
X63172524Y-41562229D01*
X63196714Y-41584000D01*
X63245095Y-41605772D01*
X63269286Y-41605772D01*
X53865429Y-54560200D02*
X53889619Y-54581971D01*
X53913810Y-54647285D01*
X53913810Y-54690828D01*
X53889619Y-54756143D01*
X53841238Y-54799685D01*
X53792857Y-54821457D01*
X53696095Y-54843228D01*
X53623524Y-54843228D01*
X53526762Y-54821457D01*
X53478381Y-54799685D01*
X53430000Y-54756143D01*
X53405810Y-54690828D01*
X53405810Y-54647285D01*
X53430000Y-54581971D01*
X53454190Y-54560200D01*
X53913810Y-54342485D02*
X53913810Y-54255400D01*
X53889619Y-54211857D01*
X53865429Y-54190085D01*
X53792857Y-54146543D01*
X53696095Y-54124771D01*
X53502571Y-54124771D01*
X53454190Y-54146543D01*
X53430000Y-54168314D01*
X53405810Y-54211857D01*
X53405810Y-54298943D01*
X53430000Y-54342485D01*
X53454190Y-54364257D01*
X53502571Y-54386028D01*
X53623524Y-54386028D01*
X53671905Y-54364257D01*
X53696095Y-54342485D01*
X53720286Y-54298943D01*
X53720286Y-54211857D01*
X53696095Y-54168314D01*
X53671905Y-54146543D01*
X53623524Y-54124771D01*
X51803190Y-55039171D02*
X51779000Y-55017400D01*
X51754810Y-54973857D01*
X51754810Y-54865000D01*
X51779000Y-54821457D01*
X51803190Y-54799686D01*
X51851571Y-54777914D01*
X51899952Y-54777914D01*
X51972524Y-54799686D01*
X52262810Y-55060943D01*
X52262810Y-54777914D01*
X51803190Y-54603742D02*
X51779000Y-54581971D01*
X51754810Y-54538428D01*
X51754810Y-54429571D01*
X51779000Y-54386028D01*
X51803190Y-54364257D01*
X51851571Y-54342485D01*
X51899952Y-54342485D01*
X51972524Y-54364257D01*
X52262810Y-54625514D01*
X52262810Y-54342485D01*
X51924143Y-54146542D02*
X52432143Y-54146542D01*
X51948333Y-54146542D02*
X51924143Y-54102999D01*
X51924143Y-54015913D01*
X51948333Y-53972370D01*
X51972524Y-53950599D01*
X52020905Y-53928828D01*
X52166048Y-53928828D01*
X52214429Y-53950599D01*
X52238619Y-53972370D01*
X52262810Y-54015913D01*
X52262810Y-54102999D01*
X52238619Y-54146542D01*
X56965429Y-54777915D02*
X56989619Y-54799686D01*
X57013810Y-54865000D01*
X57013810Y-54908543D01*
X56989619Y-54973858D01*
X56941238Y-55017400D01*
X56892857Y-55039172D01*
X56796095Y-55060943D01*
X56723524Y-55060943D01*
X56626762Y-55039172D01*
X56578381Y-55017400D01*
X56530000Y-54973858D01*
X56505810Y-54908543D01*
X56505810Y-54865000D01*
X56530000Y-54799686D01*
X56554190Y-54777915D01*
X57013810Y-54342486D02*
X57013810Y-54603743D01*
X57013810Y-54473115D02*
X56505810Y-54473115D01*
X56578381Y-54516658D01*
X56626762Y-54560200D01*
X56650952Y-54603743D01*
X56505810Y-54059457D02*
X56505810Y-54015914D01*
X56530000Y-53972371D01*
X56554190Y-53950600D01*
X56602571Y-53928829D01*
X56699333Y-53907057D01*
X56820286Y-53907057D01*
X56917048Y-53928829D01*
X56965429Y-53950600D01*
X56989619Y-53972371D01*
X57013810Y-54015914D01*
X57013810Y-54059457D01*
X56989619Y-54103000D01*
X56965429Y-54124771D01*
X56917048Y-54146543D01*
X56820286Y-54168314D01*
X56699333Y-54168314D01*
X56602571Y-54146543D01*
X56554190Y-54124771D01*
X56530000Y-54103000D01*
X56505810Y-54059457D01*
X58205190Y-55039171D02*
X58181000Y-55017400D01*
X58156810Y-54973857D01*
X58156810Y-54865000D01*
X58181000Y-54821457D01*
X58205190Y-54799686D01*
X58253571Y-54777914D01*
X58301952Y-54777914D01*
X58374524Y-54799686D01*
X58664810Y-55060943D01*
X58664810Y-54777914D01*
X58205190Y-54603742D02*
X58181000Y-54581971D01*
X58156810Y-54538428D01*
X58156810Y-54429571D01*
X58181000Y-54386028D01*
X58205190Y-54364257D01*
X58253571Y-54342485D01*
X58301952Y-54342485D01*
X58374524Y-54364257D01*
X58664810Y-54625514D01*
X58664810Y-54342485D01*
X58326143Y-54146542D02*
X58834143Y-54146542D01*
X58350333Y-54146542D02*
X58326143Y-54102999D01*
X58326143Y-54015913D01*
X58350333Y-53972370D01*
X58374524Y-53950599D01*
X58422905Y-53928828D01*
X58568048Y-53928828D01*
X58616429Y-53950599D01*
X58640619Y-53972370D01*
X58664810Y-54015913D01*
X58664810Y-54102999D01*
X58640619Y-54146542D01*
D19*
X30244524Y-24021381D02*
X28974524Y-24021381D01*
X28974524Y-23537572D01*
X29035000Y-23416619D01*
X29095476Y-23356143D01*
X29216429Y-23295667D01*
X29397857Y-23295667D01*
X29518810Y-23356143D01*
X29579286Y-23416619D01*
X29639762Y-23537572D01*
X29639762Y-24021381D01*
X28974524Y-22146619D02*
X28974524Y-22751381D01*
X29579286Y-22811857D01*
X29518810Y-22751381D01*
X29458333Y-22630429D01*
X29458333Y-22328048D01*
X29518810Y-22207095D01*
X29579286Y-22146619D01*
X29700238Y-22086143D01*
X30002619Y-22086143D01*
X30123571Y-22146619D01*
X30184048Y-22207095D01*
X30244524Y-22328048D01*
X30244524Y-22630429D01*
X30184048Y-22751381D01*
X30123571Y-22811857D01*
X32846619Y-19544524D02*
X32846619Y-18274524D01*
X33330428Y-18274524D01*
X33451381Y-18335000D01*
X33511857Y-18395476D01*
X33572333Y-18516429D01*
X33572333Y-18697857D01*
X33511857Y-18818810D01*
X33451381Y-18879286D01*
X33330428Y-18939762D01*
X32846619Y-18939762D01*
X34781857Y-19544524D02*
X34056143Y-19544524D01*
X34419000Y-19544524D02*
X34419000Y-18274524D01*
X34298048Y-18455952D01*
X34177095Y-18576905D01*
X34056143Y-18637381D01*
D22*
X37771300Y-31173862D02*
X37618900Y-30935586D01*
X37510043Y-31173862D02*
X37510043Y-30673482D01*
X37684215Y-30673482D01*
X37727757Y-30697310D01*
X37749529Y-30721138D01*
X37771300Y-30768793D01*
X37771300Y-30840276D01*
X37749529Y-30887931D01*
X37727757Y-30911759D01*
X37684215Y-30935586D01*
X37510043Y-30935586D01*
X37945472Y-30721138D02*
X37967243Y-30697310D01*
X38010786Y-30673482D01*
X38119643Y-30673482D01*
X38163186Y-30697310D01*
X38184957Y-30721138D01*
X38206729Y-30768793D01*
X38206729Y-30816448D01*
X38184957Y-30887931D01*
X37923700Y-31173862D01*
X38206729Y-31173862D01*
X37511857Y-29414550D02*
X37250600Y-29414550D01*
X37381228Y-29414550D02*
X37381228Y-28906550D01*
X37337685Y-28979121D01*
X37294143Y-29027502D01*
X37250600Y-29051692D01*
X37794886Y-28906550D02*
X37838429Y-28906550D01*
X37881972Y-28930740D01*
X37903743Y-28954930D01*
X37925514Y-29003311D01*
X37947286Y-29100073D01*
X37947286Y-29221026D01*
X37925514Y-29317788D01*
X37903743Y-29366169D01*
X37881972Y-29390359D01*
X37838429Y-29414550D01*
X37794886Y-29414550D01*
X37751343Y-29390359D01*
X37729572Y-29366169D01*
X37707800Y-29317788D01*
X37686029Y-29221026D01*
X37686029Y-29100073D01*
X37707800Y-29003311D01*
X37729572Y-28954930D01*
X37751343Y-28930740D01*
X37794886Y-28906550D01*
X38143229Y-29414550D02*
X38143229Y-28906550D01*
X38186772Y-29221026D02*
X38317401Y-29414550D01*
X38317401Y-29075883D02*
X38143229Y-29269407D01*
X41190085Y-29365429D02*
X41168314Y-29389619D01*
X41103000Y-29413810D01*
X41059457Y-29413810D01*
X40994142Y-29389619D01*
X40950600Y-29341238D01*
X40928828Y-29292857D01*
X40907057Y-29196095D01*
X40907057Y-29123524D01*
X40928828Y-29026762D01*
X40950600Y-28978381D01*
X40994142Y-28930000D01*
X41059457Y-28905810D01*
X41103000Y-28905810D01*
X41168314Y-28930000D01*
X41190085Y-28954190D01*
X41625514Y-29413810D02*
X41364257Y-29413810D01*
X41494885Y-29413810D02*
X41494885Y-28905810D01*
X41451342Y-28978381D01*
X41407800Y-29026762D01*
X41364257Y-29050952D01*
X42060943Y-29413810D02*
X41799686Y-29413810D01*
X41930314Y-29413810D02*
X41930314Y-28905810D01*
X41886771Y-28978381D01*
X41843229Y-29026762D01*
X41799686Y-29050952D01*
X40972371Y-27762810D02*
X40711114Y-27762810D01*
X40841742Y-27762810D02*
X40841742Y-27254810D01*
X40798199Y-27327381D01*
X40754657Y-27375762D01*
X40711114Y-27399952D01*
X41255400Y-27254810D02*
X41298943Y-27254810D01*
X41342486Y-27279000D01*
X41364257Y-27303190D01*
X41386028Y-27351571D01*
X41407800Y-27448333D01*
X41407800Y-27569286D01*
X41386028Y-27666048D01*
X41364257Y-27714429D01*
X41342486Y-27738619D01*
X41298943Y-27762810D01*
X41255400Y-27762810D01*
X41211857Y-27738619D01*
X41190086Y-27714429D01*
X41168314Y-27666048D01*
X41146543Y-27569286D01*
X41146543Y-27448333D01*
X41168314Y-27351571D01*
X41190086Y-27303190D01*
X41211857Y-27279000D01*
X41255400Y-27254810D01*
X41690829Y-27254810D02*
X41734372Y-27254810D01*
X41777915Y-27279000D01*
X41799686Y-27303190D01*
X41821457Y-27351571D01*
X41843229Y-27448333D01*
X41843229Y-27569286D01*
X41821457Y-27666048D01*
X41799686Y-27714429D01*
X41777915Y-27738619D01*
X41734372Y-27762810D01*
X41690829Y-27762810D01*
X41647286Y-27738619D01*
X41625515Y-27714429D01*
X41603743Y-27666048D01*
X41581972Y-27569286D01*
X41581972Y-27448333D01*
X41603743Y-27351571D01*
X41625515Y-27303190D01*
X41647286Y-27279000D01*
X41690829Y-27254810D01*
X42039172Y-27424143D02*
X42039172Y-27762810D01*
X42039172Y-27472524D02*
X42060944Y-27448333D01*
X42104486Y-27424143D01*
X42169801Y-27424143D01*
X42213344Y-27448333D01*
X42235115Y-27496714D01*
X42235115Y-27762810D01*
X31041086Y-29871429D02*
X31019315Y-29895619D01*
X30954001Y-29919810D01*
X30910458Y-29919810D01*
X30845143Y-29895619D01*
X30801601Y-29847238D01*
X30779829Y-29798857D01*
X30758058Y-29702095D01*
X30758058Y-29629524D01*
X30779829Y-29532762D01*
X30801601Y-29484381D01*
X30845143Y-29436000D01*
X30910458Y-29411810D01*
X30954001Y-29411810D01*
X31019315Y-29436000D01*
X31041086Y-29460190D01*
X31476515Y-29919810D02*
X31215258Y-29919810D01*
X31345886Y-29919810D02*
X31345886Y-29411810D01*
X31302343Y-29484381D01*
X31258801Y-29532762D01*
X31215258Y-29556952D01*
X31868401Y-29581143D02*
X31868401Y-29919810D01*
X31759544Y-29387619D02*
X31650687Y-29750476D01*
X31933715Y-29750476D01*
X30823372Y-28268810D02*
X30562115Y-28268810D01*
X30692743Y-28268810D02*
X30692743Y-27760810D01*
X30649200Y-27833381D01*
X30605658Y-27881762D01*
X30562115Y-27905952D01*
X31106401Y-27760810D02*
X31149944Y-27760810D01*
X31193487Y-27785000D01*
X31215258Y-27809190D01*
X31237029Y-27857571D01*
X31258801Y-27954333D01*
X31258801Y-28075286D01*
X31237029Y-28172048D01*
X31215258Y-28220429D01*
X31193487Y-28244619D01*
X31149944Y-28268810D01*
X31106401Y-28268810D01*
X31062858Y-28244619D01*
X31041087Y-28220429D01*
X31019315Y-28172048D01*
X30997544Y-28075286D01*
X30997544Y-27954333D01*
X31019315Y-27857571D01*
X31041087Y-27809190D01*
X31062858Y-27785000D01*
X31106401Y-27760810D01*
X31541830Y-27760810D02*
X31585373Y-27760810D01*
X31628916Y-27785000D01*
X31650687Y-27809190D01*
X31672458Y-27857571D01*
X31694230Y-27954333D01*
X31694230Y-28075286D01*
X31672458Y-28172048D01*
X31650687Y-28220429D01*
X31628916Y-28244619D01*
X31585373Y-28268810D01*
X31541830Y-28268810D01*
X31498287Y-28244619D01*
X31476516Y-28220429D01*
X31454744Y-28172048D01*
X31432973Y-28075286D01*
X31432973Y-27954333D01*
X31454744Y-27857571D01*
X31476516Y-27809190D01*
X31498287Y-27785000D01*
X31541830Y-27760810D01*
X31890173Y-27930143D02*
X31890173Y-28268810D01*
X31890173Y-27978524D02*
X31911945Y-27954333D01*
X31955487Y-27930143D01*
X32020802Y-27930143D01*
X32064345Y-27954333D01*
X32086116Y-28002714D01*
X32086116Y-28268810D01*
D19*
X22873160Y-28196846D02*
X23454739Y-28778424D01*
X23557370Y-28812635D01*
X23625791Y-28812635D01*
X23728423Y-28778424D01*
X23865264Y-28641583D01*
X23899475Y-28538951D01*
X23899475Y-28470530D01*
X23865264Y-28367899D01*
X23283686Y-27786320D01*
X23967896Y-27102110D02*
X23625791Y-27444215D01*
X23933686Y-27820531D01*
X23933686Y-27752110D01*
X23967897Y-27649478D01*
X24138949Y-27478426D01*
X24241580Y-27444216D01*
X24310001Y-27444216D01*
X24412632Y-27478426D01*
X24583685Y-27649478D01*
X24617895Y-27752110D01*
X24617895Y-27820531D01*
X24583685Y-27923162D01*
X24412633Y-28094214D01*
X24310001Y-28128425D01*
X24241580Y-28128425D01*
X28098814Y-36980391D02*
X27380394Y-36261971D01*
X28133024Y-36535655D01*
X27859341Y-35783024D01*
X28577761Y-36501444D01*
X29261971Y-35680392D02*
X29261971Y-35748813D01*
X29193550Y-35885655D01*
X29125129Y-35954077D01*
X28988287Y-36022497D01*
X28851445Y-36022497D01*
X28748814Y-35988286D01*
X28577761Y-35885655D01*
X28475130Y-35783024D01*
X28372499Y-35611971D01*
X28338288Y-35509340D01*
X28338288Y-35372497D01*
X28406708Y-35235656D01*
X28475129Y-35167235D01*
X28611972Y-35098814D01*
X28680393Y-35098814D01*
X29638287Y-35440919D02*
X28919866Y-34722498D01*
X29193550Y-34448815D01*
X29296182Y-34414604D01*
X29364603Y-34414604D01*
X29467234Y-34448815D01*
X29569866Y-34551446D01*
X29604076Y-34654078D01*
X29604076Y-34722499D01*
X29569866Y-34825130D01*
X29296182Y-35098814D01*
X30390918Y-34688288D02*
X30527760Y-34551445D01*
X30561970Y-34448815D01*
X30561970Y-34380393D01*
X30527759Y-34209341D01*
X30425128Y-34038288D01*
X30151444Y-33764605D01*
X30048813Y-33730394D01*
X29980391Y-33730394D01*
X29877760Y-33764605D01*
X29740918Y-33901446D01*
X29706708Y-34004078D01*
X29706708Y-34072499D01*
X29740918Y-34175130D01*
X29911971Y-34346183D01*
X30014603Y-34380393D01*
X30083023Y-34380393D01*
X30185655Y-34346182D01*
X30322496Y-34209341D01*
X30356707Y-34106709D01*
X30356707Y-34038289D01*
X30322497Y-33935657D01*
X30254076Y-33388289D02*
X30733023Y-32909342D01*
X31143549Y-33935657D01*
X31143549Y-32498816D02*
X31211969Y-32430395D01*
X31314601Y-32396185D01*
X31383022Y-32396185D01*
X31485654Y-32430395D01*
X31656706Y-32533027D01*
X31827758Y-32704079D01*
X31930390Y-32875131D01*
X31964600Y-32977763D01*
X31964600Y-33046184D01*
X31930390Y-33148816D01*
X31861969Y-33217236D01*
X31759338Y-33251447D01*
X31690917Y-33251447D01*
X31588285Y-33217236D01*
X31417232Y-33114604D01*
X31246181Y-32943552D01*
X31143549Y-32772500D01*
X31109338Y-32669868D01*
X31109338Y-32601447D01*
X31143549Y-32498816D01*
X31827759Y-31814606D02*
X31896179Y-31746185D01*
X31998811Y-31711975D01*
X32067232Y-31711975D01*
X32169863Y-31746185D01*
X32340916Y-31848817D01*
X32511968Y-32019869D01*
X32614600Y-32190921D01*
X32648810Y-32293553D01*
X32648810Y-32361974D01*
X32614600Y-32464606D01*
X32546179Y-32533026D01*
X32443548Y-32567237D01*
X32375127Y-32567237D01*
X32272495Y-32533026D01*
X32101442Y-32430394D01*
X31930390Y-32259343D01*
X31827759Y-32088290D01*
X31793548Y-31985658D01*
X31793548Y-31917237D01*
X31827759Y-31814606D01*
D22*
X38511700Y-51305862D02*
X38359300Y-51067586D01*
X38250443Y-51305862D02*
X38250443Y-50805482D01*
X38424615Y-50805482D01*
X38468157Y-50829310D01*
X38489929Y-50853138D01*
X38511700Y-50900793D01*
X38511700Y-50972276D01*
X38489929Y-51019931D01*
X38468157Y-51043759D01*
X38424615Y-51067586D01*
X38250443Y-51067586D01*
X38947129Y-51305862D02*
X38685872Y-51305862D01*
X38816500Y-51305862D02*
X38816500Y-50805482D01*
X38772957Y-50876965D01*
X38729415Y-50924620D01*
X38685872Y-50948448D01*
X37707971Y-49038550D02*
X37991000Y-49038550D01*
X37838600Y-49232073D01*
X37903914Y-49232073D01*
X37947457Y-49256264D01*
X37969228Y-49280454D01*
X37991000Y-49328835D01*
X37991000Y-49449788D01*
X37969228Y-49498169D01*
X37947457Y-49522359D01*
X37903914Y-49546550D01*
X37773286Y-49546550D01*
X37729743Y-49522359D01*
X37707971Y-49498169D01*
X38143400Y-49038550D02*
X38426429Y-49038550D01*
X38274029Y-49232073D01*
X38339343Y-49232073D01*
X38382886Y-49256264D01*
X38404657Y-49280454D01*
X38426429Y-49328835D01*
X38426429Y-49449788D01*
X38404657Y-49498169D01*
X38382886Y-49522359D01*
X38339343Y-49546550D01*
X38208715Y-49546550D01*
X38165172Y-49522359D01*
X38143400Y-49498169D01*
X38709458Y-49038550D02*
X38753001Y-49038550D01*
X38796544Y-49062740D01*
X38818315Y-49086930D01*
X38840086Y-49135311D01*
X38861858Y-49232073D01*
X38861858Y-49353026D01*
X38840086Y-49449788D01*
X38818315Y-49498169D01*
X38796544Y-49522359D01*
X38753001Y-49546550D01*
X38709458Y-49546550D01*
X38665915Y-49522359D01*
X38644144Y-49498169D01*
X38622372Y-49449788D01*
X38600601Y-49353026D01*
X38600601Y-49232073D01*
X38622372Y-49135311D01*
X38644144Y-49086930D01*
X38665915Y-49062740D01*
X38709458Y-49038550D01*
X39319058Y-49546550D02*
X39166658Y-49304645D01*
X39057801Y-49546550D02*
X39057801Y-49038550D01*
X39231973Y-49038550D01*
X39275515Y-49062740D01*
X39297287Y-49086930D01*
X39319058Y-49135311D01*
X39319058Y-49207883D01*
X39297287Y-49256264D01*
X39275515Y-49280454D01*
X39231973Y-49304645D01*
X39057801Y-49304645D01*
X43707800Y-43365429D02*
X43686029Y-43389619D01*
X43620715Y-43413810D01*
X43577172Y-43413810D01*
X43511857Y-43389619D01*
X43468315Y-43341238D01*
X43446543Y-43292857D01*
X43424772Y-43196095D01*
X43424772Y-43123524D01*
X43446543Y-43026762D01*
X43468315Y-42978381D01*
X43511857Y-42930000D01*
X43577172Y-42905810D01*
X43620715Y-42905810D01*
X43686029Y-42930000D01*
X43707800Y-42954190D01*
X43881972Y-42954190D02*
X43903743Y-42930000D01*
X43947286Y-42905810D01*
X44056143Y-42905810D01*
X44099686Y-42930000D01*
X44121457Y-42954190D01*
X44143229Y-43002571D01*
X44143229Y-43050952D01*
X44121457Y-43123524D01*
X43860200Y-43413810D01*
X44143229Y-43413810D01*
X43272371Y-41762810D02*
X43011114Y-41762810D01*
X43141742Y-41762810D02*
X43141742Y-41254810D01*
X43098199Y-41327381D01*
X43054657Y-41375762D01*
X43011114Y-41399952D01*
X43555400Y-41254810D02*
X43598943Y-41254810D01*
X43642486Y-41279000D01*
X43664257Y-41303190D01*
X43686028Y-41351571D01*
X43707800Y-41448333D01*
X43707800Y-41569286D01*
X43686028Y-41666048D01*
X43664257Y-41714429D01*
X43642486Y-41738619D01*
X43598943Y-41762810D01*
X43555400Y-41762810D01*
X43511857Y-41738619D01*
X43490086Y-41714429D01*
X43468314Y-41666048D01*
X43446543Y-41569286D01*
X43446543Y-41448333D01*
X43468314Y-41351571D01*
X43490086Y-41303190D01*
X43511857Y-41279000D01*
X43555400Y-41254810D01*
X43990829Y-41254810D02*
X44034372Y-41254810D01*
X44077915Y-41279000D01*
X44099686Y-41303190D01*
X44121457Y-41351571D01*
X44143229Y-41448333D01*
X44143229Y-41569286D01*
X44121457Y-41666048D01*
X44099686Y-41714429D01*
X44077915Y-41738619D01*
X44034372Y-41762810D01*
X43990829Y-41762810D01*
X43947286Y-41738619D01*
X43925515Y-41714429D01*
X43903743Y-41666048D01*
X43881972Y-41569286D01*
X43881972Y-41448333D01*
X43903743Y-41351571D01*
X43925515Y-41303190D01*
X43947286Y-41279000D01*
X43990829Y-41254810D01*
X44339172Y-41424143D02*
X44339172Y-41762810D01*
X44339172Y-41472524D02*
X44360944Y-41448333D01*
X44404486Y-41424143D01*
X44469801Y-41424143D01*
X44513344Y-41448333D01*
X44535115Y-41496714D01*
X44535115Y-41762810D01*
X40973862Y-47714415D02*
X40735586Y-47866815D01*
X40973862Y-47975672D02*
X40473482Y-47975672D01*
X40473482Y-47801500D01*
X40497310Y-47757958D01*
X40521138Y-47736186D01*
X40568793Y-47714415D01*
X40640276Y-47714415D01*
X40687931Y-47736186D01*
X40711759Y-47757958D01*
X40735586Y-47801500D01*
X40735586Y-47975672D01*
X40973862Y-47278986D02*
X40973862Y-47540243D01*
X40973862Y-47409615D02*
X40473482Y-47409615D01*
X40544965Y-47453158D01*
X40592620Y-47496700D01*
X40616448Y-47540243D01*
X40473482Y-47126586D02*
X40473482Y-46843557D01*
X40664103Y-46995957D01*
X40664103Y-46930643D01*
X40687931Y-46887100D01*
X40711759Y-46865329D01*
X40759414Y-46843557D01*
X40878552Y-46843557D01*
X40926207Y-46865329D01*
X40950035Y-46887100D01*
X40973862Y-46930643D01*
X40973862Y-47061271D01*
X40950035Y-47104814D01*
X40926207Y-47126586D01*
X39214550Y-47756143D02*
X39214550Y-48017400D01*
X39214550Y-47886772D02*
X38706550Y-47886772D01*
X38779121Y-47930315D01*
X38827502Y-47973857D01*
X38851692Y-48017400D01*
X38706550Y-47473114D02*
X38706550Y-47429571D01*
X38730740Y-47386028D01*
X38754930Y-47364257D01*
X38803311Y-47342486D01*
X38900073Y-47320714D01*
X39021026Y-47320714D01*
X39117788Y-47342486D01*
X39166169Y-47364257D01*
X39190359Y-47386028D01*
X39214550Y-47429571D01*
X39214550Y-47473114D01*
X39190359Y-47516657D01*
X39166169Y-47538428D01*
X39117788Y-47560200D01*
X39021026Y-47581971D01*
X38900073Y-47581971D01*
X38803311Y-47560200D01*
X38754930Y-47538428D01*
X38730740Y-47516657D01*
X38706550Y-47473114D01*
X39214550Y-47124771D02*
X38706550Y-47124771D01*
X39021026Y-47081228D02*
X39214550Y-46950599D01*
X38875883Y-46950599D02*
X39069407Y-47124771D01*
D21*
X40321516Y-42300965D02*
X40321516Y-43111104D01*
X40369171Y-43206414D01*
X40416827Y-43254070D01*
X40512137Y-43301725D01*
X40702758Y-43301725D01*
X40798069Y-43254070D01*
X40845724Y-43206414D01*
X40893379Y-43111104D01*
X40893379Y-42300965D01*
X41798828Y-42634551D02*
X41798828Y-43301725D01*
X41560552Y-42253310D02*
X41322276Y-42968138D01*
X41941794Y-42968138D01*
D13*
X37843443Y-44698725D02*
X37843443Y-43697965D01*
X38177030Y-44412793D01*
X38510617Y-43697965D01*
X38510617Y-44698725D01*
X39559032Y-44603414D02*
X39511377Y-44651070D01*
X39368411Y-44698725D01*
X39273101Y-44698725D01*
X39130135Y-44651070D01*
X39034824Y-44555759D01*
X38987169Y-44460449D01*
X38939514Y-44269828D01*
X38939514Y-44126862D01*
X38987169Y-43936241D01*
X39034824Y-43840930D01*
X39130135Y-43745620D01*
X39273101Y-43697965D01*
X39368411Y-43697965D01*
X39511377Y-43745620D01*
X39559032Y-43793275D01*
X39987929Y-44698725D02*
X39987929Y-43697965D01*
X40369171Y-43697965D01*
X40464482Y-43745620D01*
X40512137Y-43793275D01*
X40559792Y-43888586D01*
X40559792Y-44031551D01*
X40512137Y-44126862D01*
X40464482Y-44174517D01*
X40369171Y-44222172D01*
X39987929Y-44222172D01*
X41417586Y-44031551D02*
X41417586Y-44698725D01*
X41179310Y-43650310D02*
X40941034Y-44365138D01*
X41560552Y-44365138D01*
X42084760Y-44126862D02*
X41989449Y-44079207D01*
X41941794Y-44031551D01*
X41894139Y-43936241D01*
X41894139Y-43888586D01*
X41941794Y-43793275D01*
X41989449Y-43745620D01*
X42084760Y-43697965D01*
X42275381Y-43697965D01*
X42370691Y-43745620D01*
X42418347Y-43793275D01*
X42466002Y-43888586D01*
X42466002Y-43936241D01*
X42418347Y-44031551D01*
X42370691Y-44079207D01*
X42275381Y-44126862D01*
X42084760Y-44126862D01*
X41989449Y-44174517D01*
X41941794Y-44222172D01*
X41894139Y-44317483D01*
X41894139Y-44508104D01*
X41941794Y-44603414D01*
X41989449Y-44651070D01*
X42084760Y-44698725D01*
X42275381Y-44698725D01*
X42370691Y-44651070D01*
X42418347Y-44603414D01*
X42466002Y-44508104D01*
X42466002Y-44317483D01*
X42418347Y-44222172D01*
X42370691Y-44174517D01*
X42275381Y-44126862D01*
X42799589Y-43697965D02*
X43466762Y-44698725D01*
X43466762Y-43697965D02*
X42799589Y-44698725D01*
X43800349Y-43793275D02*
X43848004Y-43745620D01*
X43943315Y-43697965D01*
X44181591Y-43697965D01*
X44276901Y-43745620D01*
X44324557Y-43793275D01*
X44372212Y-43888586D01*
X44372212Y-43983896D01*
X44324557Y-44126862D01*
X43752694Y-44698725D01*
X44372212Y-44698725D01*
D19*
X45764619Y-57927324D02*
X45764619Y-56657324D01*
X46248428Y-56657324D01*
X46369381Y-56717800D01*
X46429857Y-56778276D01*
X46490333Y-56899229D01*
X46490333Y-57080657D01*
X46429857Y-57201610D01*
X46369381Y-57262086D01*
X46248428Y-57322562D01*
X45764619Y-57322562D01*
X46913667Y-56657324D02*
X47699857Y-56657324D01*
X47276524Y-57141133D01*
X47457952Y-57141133D01*
X47578905Y-57201610D01*
X47639381Y-57262086D01*
X47699857Y-57383038D01*
X47699857Y-57685419D01*
X47639381Y-57806371D01*
X47578905Y-57866848D01*
X47457952Y-57927324D01*
X47095095Y-57927324D01*
X46974143Y-57866848D01*
X46913667Y-57806371D01*
D22*
X47773862Y-41414415D02*
X47535586Y-41566815D01*
X47773862Y-41675672D02*
X47273482Y-41675672D01*
X47273482Y-41501500D01*
X47297310Y-41457958D01*
X47321138Y-41436186D01*
X47368793Y-41414415D01*
X47440276Y-41414415D01*
X47487931Y-41436186D01*
X47511759Y-41457958D01*
X47535586Y-41501500D01*
X47535586Y-41675672D01*
X47773862Y-40978986D02*
X47773862Y-41240243D01*
X47773862Y-41109615D02*
X47273482Y-41109615D01*
X47344965Y-41153158D01*
X47392620Y-41196700D01*
X47416448Y-41240243D01*
X47273482Y-40565329D02*
X47273482Y-40783043D01*
X47511759Y-40804814D01*
X47487931Y-40783043D01*
X47464103Y-40739500D01*
X47464103Y-40630643D01*
X47487931Y-40587100D01*
X47511759Y-40565329D01*
X47559414Y-40543557D01*
X47678552Y-40543557D01*
X47726207Y-40565329D01*
X47750035Y-40587100D01*
X47773862Y-40630643D01*
X47773862Y-40739500D01*
X47750035Y-40783043D01*
X47726207Y-40804814D01*
X46014550Y-41717400D02*
X46014550Y-41978657D01*
X46014550Y-41848029D02*
X45506550Y-41848029D01*
X45579121Y-41891572D01*
X45627502Y-41935114D01*
X45651692Y-41978657D01*
X45506550Y-41434371D02*
X45506550Y-41390828D01*
X45530740Y-41347285D01*
X45554930Y-41325514D01*
X45603311Y-41303743D01*
X45700073Y-41281971D01*
X45821026Y-41281971D01*
X45917788Y-41303743D01*
X45966169Y-41325514D01*
X45990359Y-41347285D01*
X46014550Y-41390828D01*
X46014550Y-41434371D01*
X45990359Y-41477914D01*
X45966169Y-41499685D01*
X45917788Y-41521457D01*
X45821026Y-41543228D01*
X45700073Y-41543228D01*
X45603311Y-41521457D01*
X45554930Y-41499685D01*
X45530740Y-41477914D01*
X45506550Y-41434371D01*
X45506550Y-40998942D02*
X45506550Y-40955399D01*
X45530740Y-40911856D01*
X45554930Y-40890085D01*
X45603311Y-40868314D01*
X45700073Y-40846542D01*
X45821026Y-40846542D01*
X45917788Y-40868314D01*
X45966169Y-40890085D01*
X45990359Y-40911856D01*
X46014550Y-40955399D01*
X46014550Y-40998942D01*
X45990359Y-41042485D01*
X45966169Y-41064256D01*
X45917788Y-41086028D01*
X45821026Y-41107799D01*
X45700073Y-41107799D01*
X45603311Y-41086028D01*
X45554930Y-41064256D01*
X45530740Y-41042485D01*
X45506550Y-40998942D01*
X46014550Y-40650599D02*
X45506550Y-40650599D01*
X46014550Y-40389342D02*
X45724264Y-40585285D01*
X45506550Y-40389342D02*
X45796835Y-40650599D01*
D19*
X90445619Y-37733904D02*
X89429619Y-37733904D01*
X89429619Y-37346857D01*
X89478000Y-37250095D01*
X89526381Y-37201714D01*
X89623143Y-37153333D01*
X89768286Y-37153333D01*
X89865048Y-37201714D01*
X89913429Y-37250095D01*
X89961810Y-37346857D01*
X89961810Y-37733904D01*
X89429619Y-36814666D02*
X89429619Y-36137333D01*
X90445619Y-36572761D01*
X83744857Y-39136952D02*
X83793238Y-39185333D01*
X83841619Y-39330476D01*
X83841619Y-39427238D01*
X83793238Y-39572380D01*
X83696476Y-39669142D01*
X83599714Y-39717523D01*
X83406190Y-39765904D01*
X83261048Y-39765904D01*
X83067524Y-39717523D01*
X82970762Y-39669142D01*
X82874000Y-39572380D01*
X82825619Y-39427238D01*
X82825619Y-39330476D01*
X82874000Y-39185333D01*
X82922381Y-39136952D01*
X82825619Y-38507999D02*
X82825619Y-38314476D01*
X82874000Y-38217714D01*
X82970762Y-38120952D01*
X83164286Y-38072571D01*
X83502952Y-38072571D01*
X83696476Y-38120952D01*
X83793238Y-38217714D01*
X83841619Y-38314476D01*
X83841619Y-38507999D01*
X83793238Y-38604761D01*
X83696476Y-38701523D01*
X83502952Y-38749904D01*
X83164286Y-38749904D01*
X82970762Y-38701523D01*
X82874000Y-38604761D01*
X82825619Y-38507999D01*
X83841619Y-37637142D02*
X82825619Y-37637142D01*
X83841619Y-37056571D01*
X82825619Y-37056571D01*
X83841619Y-36572761D02*
X82825619Y-36572761D01*
X83841619Y-35992190D01*
X82825619Y-35992190D01*
X83938381Y-35750285D02*
X83938381Y-34976190D01*
X83261048Y-34589142D02*
X83212667Y-34685904D01*
X83164286Y-34734285D01*
X83067524Y-34782666D01*
X83019143Y-34782666D01*
X82922381Y-34734285D01*
X82874000Y-34685904D01*
X82825619Y-34589142D01*
X82825619Y-34395619D01*
X82874000Y-34298857D01*
X82922381Y-34250476D01*
X83019143Y-34202095D01*
X83067524Y-34202095D01*
X83164286Y-34250476D01*
X83212667Y-34298857D01*
X83261048Y-34395619D01*
X83261048Y-34589142D01*
X83309429Y-34685904D01*
X83357810Y-34734285D01*
X83454571Y-34782666D01*
X83648095Y-34782666D01*
X83744857Y-34734285D01*
X83793238Y-34685904D01*
X83841619Y-34589142D01*
X83841619Y-34395619D01*
X83793238Y-34298857D01*
X83744857Y-34250476D01*
X83648095Y-34202095D01*
X83454571Y-34202095D01*
X83357810Y-34250476D01*
X83309429Y-34298857D01*
X83261048Y-34395619D01*
D13*
X72209047Y-32897810D02*
X72209047Y-32389810D01*
X72330000Y-32389810D01*
X72402571Y-32414000D01*
X72450952Y-32462381D01*
X72475143Y-32510762D01*
X72499333Y-32607524D01*
X72499333Y-32680095D01*
X72475143Y-32776857D01*
X72450952Y-32825238D01*
X72402571Y-32873619D01*
X72330000Y-32897810D01*
X72209047Y-32897810D01*
X72692857Y-32438190D02*
X72717047Y-32414000D01*
X72765428Y-32389810D01*
X72886381Y-32389810D01*
X72934762Y-32414000D01*
X72958952Y-32438190D01*
X72983143Y-32486571D01*
X72983143Y-32534952D01*
X72958952Y-32607524D01*
X72668666Y-32897810D01*
X72983143Y-32897810D01*
X70830190Y-34421810D02*
X70830190Y-34833048D01*
X70854381Y-34881429D01*
X70878571Y-34905619D01*
X70926952Y-34929810D01*
X71023714Y-34929810D01*
X71072095Y-34905619D01*
X71096286Y-34881429D01*
X71120476Y-34833048D01*
X71120476Y-34421810D01*
X71338190Y-34905619D02*
X71410761Y-34929810D01*
X71531714Y-34929810D01*
X71580095Y-34905619D01*
X71604285Y-34881429D01*
X71628476Y-34833048D01*
X71628476Y-34784667D01*
X71604285Y-34736286D01*
X71580095Y-34712095D01*
X71531714Y-34687905D01*
X71434952Y-34663714D01*
X71386571Y-34639524D01*
X71362380Y-34615333D01*
X71338190Y-34566952D01*
X71338190Y-34518571D01*
X71362380Y-34470190D01*
X71386571Y-34446000D01*
X71434952Y-34421810D01*
X71555904Y-34421810D01*
X71628476Y-34446000D01*
X71846190Y-34663714D02*
X72015524Y-34663714D01*
X72088095Y-34929810D02*
X71846190Y-34929810D01*
X71846190Y-34421810D01*
X72088095Y-34421810D01*
X72596095Y-34929810D02*
X72426762Y-34687905D01*
X72305809Y-34929810D02*
X72305809Y-34421810D01*
X72499333Y-34421810D01*
X72547714Y-34446000D01*
X72571905Y-34470190D01*
X72596095Y-34518571D01*
X72596095Y-34591143D01*
X72571905Y-34639524D01*
X72547714Y-34663714D01*
X72499333Y-34687905D01*
X72305809Y-34687905D01*
X72692857Y-34978190D02*
X73079905Y-34978190D01*
X73442762Y-34929810D02*
X73200857Y-34929810D01*
X73200857Y-34421810D01*
X73612095Y-34663714D02*
X73781429Y-34663714D01*
X73854000Y-34929810D02*
X73612095Y-34929810D01*
X73612095Y-34421810D01*
X73854000Y-34421810D01*
X74071714Y-34929810D02*
X74071714Y-34421810D01*
X74192667Y-34421810D01*
X74265238Y-34446000D01*
X74313619Y-34494381D01*
X74337810Y-34542762D01*
X74362000Y-34639524D01*
X74362000Y-34712095D01*
X74337810Y-34808857D01*
X74313619Y-34857238D01*
X74265238Y-34905619D01*
X74192667Y-34929810D01*
X74071714Y-34929810D01*
D19*
X67046619Y-26668524D02*
X67046619Y-25398524D01*
X67530428Y-25398524D01*
X67651381Y-25459000D01*
X67711857Y-25519476D01*
X67772333Y-25640429D01*
X67772333Y-25821857D01*
X67711857Y-25942810D01*
X67651381Y-26003286D01*
X67530428Y-26063762D01*
X67046619Y-26063762D01*
X68498048Y-25942810D02*
X68377095Y-25882333D01*
X68316619Y-25821857D01*
X68256143Y-25700905D01*
X68256143Y-25640429D01*
X68316619Y-25519476D01*
X68377095Y-25459000D01*
X68498048Y-25398524D01*
X68739952Y-25398524D01*
X68860905Y-25459000D01*
X68921381Y-25519476D01*
X68981857Y-25640429D01*
X68981857Y-25700905D01*
X68921381Y-25821857D01*
X68860905Y-25882333D01*
X68739952Y-25942810D01*
X68498048Y-25942810D01*
X68377095Y-26003286D01*
X68316619Y-26063762D01*
X68256143Y-26184714D01*
X68256143Y-26426619D01*
X68316619Y-26547571D01*
X68377095Y-26608048D01*
X68498048Y-26668524D01*
X68739952Y-26668524D01*
X68860905Y-26608048D01*
X68921381Y-26547571D01*
X68981857Y-26426619D01*
X68981857Y-26184714D01*
X68921381Y-26063762D01*
X68860905Y-26003286D01*
X68739952Y-25942810D01*
D22*
X69973862Y-33696700D02*
X69735586Y-33849100D01*
X69973862Y-33957957D02*
X69473482Y-33957957D01*
X69473482Y-33783785D01*
X69497310Y-33740243D01*
X69521138Y-33718471D01*
X69568793Y-33696700D01*
X69640276Y-33696700D01*
X69687931Y-33718471D01*
X69711759Y-33740243D01*
X69735586Y-33783785D01*
X69735586Y-33957957D01*
X69473482Y-33544300D02*
X69473482Y-33261271D01*
X69664103Y-33413671D01*
X69664103Y-33348357D01*
X69687931Y-33304814D01*
X69711759Y-33283043D01*
X69759414Y-33261271D01*
X69878552Y-33261271D01*
X69926207Y-33283043D01*
X69950035Y-33304814D01*
X69973862Y-33348357D01*
X69973862Y-33478985D01*
X69950035Y-33522528D01*
X69926207Y-33544300D01*
X67706550Y-34500429D02*
X67706550Y-34217400D01*
X67900073Y-34369800D01*
X67900073Y-34304486D01*
X67924264Y-34260943D01*
X67948454Y-34239172D01*
X67996835Y-34217400D01*
X68117788Y-34217400D01*
X68166169Y-34239172D01*
X68190359Y-34260943D01*
X68214550Y-34304486D01*
X68214550Y-34435114D01*
X68190359Y-34478657D01*
X68166169Y-34500429D01*
X67706550Y-34065000D02*
X67706550Y-33781971D01*
X67900073Y-33934371D01*
X67900073Y-33869057D01*
X67924264Y-33825514D01*
X67948454Y-33803743D01*
X67996835Y-33781971D01*
X68117788Y-33781971D01*
X68166169Y-33803743D01*
X68190359Y-33825514D01*
X68214550Y-33869057D01*
X68214550Y-33999685D01*
X68190359Y-34043228D01*
X68166169Y-34065000D01*
X67706550Y-33498942D02*
X67706550Y-33455399D01*
X67730740Y-33411856D01*
X67754930Y-33390085D01*
X67803311Y-33368314D01*
X67900073Y-33346542D01*
X68021026Y-33346542D01*
X68117788Y-33368314D01*
X68166169Y-33390085D01*
X68190359Y-33411856D01*
X68214550Y-33455399D01*
X68214550Y-33498942D01*
X68190359Y-33542485D01*
X68166169Y-33564256D01*
X68117788Y-33586028D01*
X68021026Y-33607799D01*
X67900073Y-33607799D01*
X67803311Y-33586028D01*
X67754930Y-33564256D01*
X67730740Y-33542485D01*
X67706550Y-33498942D01*
X68214550Y-32889342D02*
X67972645Y-33041742D01*
X68214550Y-33150599D02*
X67706550Y-33150599D01*
X67706550Y-32976427D01*
X67730740Y-32932885D01*
X67754930Y-32911113D01*
X67803311Y-32889342D01*
X67875883Y-32889342D01*
X67924264Y-32911113D01*
X67948454Y-32932885D01*
X67972645Y-32976427D01*
X67972645Y-33150599D01*
D20*
X74698529Y-46366635D02*
X76222529Y-45350635D01*
X74698529Y-45350635D02*
X76222529Y-46366635D01*
X74843671Y-44842634D02*
X74771100Y-44770063D01*
X74698529Y-44624920D01*
X74698529Y-44262063D01*
X74771100Y-44116920D01*
X74843671Y-44044349D01*
X74988814Y-43971777D01*
X75133957Y-43971777D01*
X75351671Y-44044349D01*
X76222529Y-44915206D01*
X76222529Y-43971777D01*
D10*
X99341143Y-61422571D02*
X99341143Y-62636857D01*
X99412571Y-62779714D01*
X99484000Y-62851143D01*
X99626857Y-62922571D01*
X99912571Y-62922571D01*
X100055429Y-62851143D01*
X100126857Y-62779714D01*
X100198286Y-62636857D01*
X100198286Y-61422571D01*
X100769715Y-61422571D02*
X101698286Y-61422571D01*
X101198286Y-61994000D01*
X101412572Y-61994000D01*
X101555429Y-62065429D01*
X101626858Y-62136857D01*
X101698286Y-62279714D01*
X101698286Y-62636857D01*
X101626858Y-62779714D01*
X101555429Y-62851143D01*
X101412572Y-62922571D01*
X100984000Y-62922571D01*
X100841143Y-62851143D01*
X100769715Y-62779714D01*
X74399715Y-15702571D02*
X73685429Y-15702571D01*
X73614000Y-16416857D01*
X73685429Y-16345429D01*
X73828286Y-16274000D01*
X74185429Y-16274000D01*
X74328286Y-16345429D01*
X74399715Y-16416857D01*
X74471143Y-16559714D01*
X74471143Y-16916857D01*
X74399715Y-17059714D01*
X74328286Y-17131143D01*
X74185429Y-17202571D01*
X73828286Y-17202571D01*
X73685429Y-17131143D01*
X73614000Y-17059714D01*
X75399714Y-15702571D02*
X75542571Y-15702571D01*
X75685428Y-15774000D01*
X75756857Y-15845429D01*
X75828286Y-15988286D01*
X75899714Y-16274000D01*
X75899714Y-16631143D01*
X75828286Y-16916857D01*
X75756857Y-17059714D01*
X75685428Y-17131143D01*
X75542571Y-17202571D01*
X75399714Y-17202571D01*
X75256857Y-17131143D01*
X75185428Y-17059714D01*
X75114000Y-16916857D01*
X75042571Y-16631143D01*
X75042571Y-16274000D01*
X75114000Y-15988286D01*
X75185428Y-15845429D01*
X75256857Y-15774000D01*
X75399714Y-15702571D01*
X76542571Y-17202571D02*
X76542571Y-16202571D01*
X76542571Y-16345429D02*
X76613999Y-16274000D01*
X76756857Y-16202571D01*
X76971142Y-16202571D01*
X77113999Y-16274000D01*
X77185428Y-16416857D01*
X77185428Y-17202571D01*
X77185428Y-16416857D02*
X77256857Y-16274000D01*
X77399714Y-16202571D01*
X77613999Y-16202571D01*
X77756857Y-16274000D01*
X77828285Y-16416857D01*
X77828285Y-17202571D01*
X78542571Y-17202571D02*
X78542571Y-16202571D01*
X78542571Y-16345429D02*
X78613999Y-16274000D01*
X78756857Y-16202571D01*
X78971142Y-16202571D01*
X79113999Y-16274000D01*
X79185428Y-16416857D01*
X79185428Y-17202571D01*
X79185428Y-16416857D02*
X79256857Y-16274000D01*
X79399714Y-16202571D01*
X79613999Y-16202571D01*
X79756857Y-16274000D01*
X79828285Y-16416857D01*
X79828285Y-17202571D01*
X80185428Y-17345429D02*
X81328285Y-17345429D01*
X82399714Y-15702571D02*
X81685428Y-15702571D01*
X81613999Y-16416857D01*
X81685428Y-16345429D01*
X81828285Y-16274000D01*
X82185428Y-16274000D01*
X82328285Y-16345429D01*
X82399714Y-16416857D01*
X82471142Y-16559714D01*
X82471142Y-16916857D01*
X82399714Y-17059714D01*
X82328285Y-17131143D01*
X82185428Y-17202571D01*
X81828285Y-17202571D01*
X81685428Y-17131143D01*
X81613999Y-17059714D01*
X82971142Y-17202571D02*
X83756856Y-16202571D01*
X82971142Y-16202571D02*
X83756856Y-17202571D01*
X84185428Y-15702571D02*
X85185428Y-15702571D01*
X84542571Y-17202571D01*
X85399713Y-17345429D02*
X86542570Y-17345429D01*
X86899713Y-17202571D02*
X86899713Y-15702571D01*
X87256856Y-15702571D01*
X87471141Y-15774000D01*
X87613999Y-15916857D01*
X87685427Y-16059714D01*
X87756856Y-16345429D01*
X87756856Y-16559714D01*
X87685427Y-16845429D01*
X87613999Y-16988286D01*
X87471141Y-17131143D01*
X87256856Y-17202571D01*
X86899713Y-17202571D01*
X88613999Y-17202571D02*
X88471141Y-17131143D01*
X88399713Y-17059714D01*
X88328284Y-16916857D01*
X88328284Y-16488286D01*
X88399713Y-16345429D01*
X88471141Y-16274000D01*
X88613999Y-16202571D01*
X88828284Y-16202571D01*
X88971141Y-16274000D01*
X89042570Y-16345429D01*
X89113999Y-16488286D01*
X89113999Y-16916857D01*
X89042570Y-17059714D01*
X88971141Y-17131143D01*
X88828284Y-17202571D01*
X88613999Y-17202571D01*
X89542570Y-16202571D02*
X90113999Y-16202571D01*
X89756856Y-15702571D02*
X89756856Y-16988286D01*
X89828284Y-17131143D01*
X89971142Y-17202571D01*
X90113999Y-17202571D01*
X90256856Y-17345429D02*
X91399713Y-17345429D01*
X91756856Y-17202571D02*
X91756856Y-15702571D01*
X92256856Y-16774000D01*
X92756856Y-15702571D01*
X92756856Y-17202571D01*
X94113999Y-17202571D02*
X94113999Y-16416857D01*
X94042570Y-16274000D01*
X93899713Y-16202571D01*
X93613999Y-16202571D01*
X93471142Y-16274000D01*
X94113999Y-17131143D02*
X93971142Y-17202571D01*
X93613999Y-17202571D01*
X93471142Y-17131143D01*
X93399713Y-16988286D01*
X93399713Y-16845429D01*
X93471142Y-16702571D01*
X93613999Y-16631143D01*
X93971142Y-16631143D01*
X94113999Y-16559714D01*
X94613999Y-16202571D02*
X95185428Y-16202571D01*
X94828285Y-15702571D02*
X94828285Y-16988286D01*
X94899713Y-17131143D01*
X95042571Y-17202571D01*
X95185428Y-17202571D01*
X95685428Y-17202571D02*
X95685428Y-16202571D01*
X95685428Y-16488286D02*
X95756856Y-16345429D01*
X95828285Y-16274000D01*
X95971142Y-16202571D01*
X96113999Y-16202571D01*
X96613999Y-17202571D02*
X96613999Y-16202571D01*
X96613999Y-15702571D02*
X96542570Y-15774000D01*
X96613999Y-15845429D01*
X96685427Y-15774000D01*
X96613999Y-15702571D01*
X96613999Y-15845429D01*
X97185428Y-17202571D02*
X97971142Y-16202571D01*
X97185428Y-16202571D02*
X97971142Y-17202571D01*
X98185428Y-17345429D02*
X99328285Y-17345429D01*
X100399714Y-17202571D02*
X99685428Y-17202571D01*
X99685428Y-15702571D01*
X101471142Y-17131143D02*
X101328285Y-17202571D01*
X101042571Y-17202571D01*
X100899714Y-17131143D01*
X100828285Y-16988286D01*
X100828285Y-16416857D01*
X100899714Y-16274000D01*
X101042571Y-16202571D01*
X101328285Y-16202571D01*
X101471142Y-16274000D01*
X101542571Y-16416857D01*
X101542571Y-16559714D01*
X100828285Y-16702571D01*
X102828285Y-17202571D02*
X102828285Y-15702571D01*
X102828285Y-17131143D02*
X102685428Y-17202571D01*
X102399714Y-17202571D01*
X102256856Y-17131143D01*
X102185428Y-17059714D01*
X102113999Y-16916857D01*
X102113999Y-16488286D01*
X102185428Y-16345429D01*
X102256856Y-16274000D01*
X102399714Y-16202571D01*
X102685428Y-16202571D01*
X102828285Y-16274000D01*
X103185428Y-17345429D02*
X104328285Y-17345429D01*
X104685428Y-17202571D02*
X104685428Y-15702571D01*
X105042571Y-15702571D01*
X105256856Y-15774000D01*
X105399714Y-15916857D01*
X105471142Y-16059714D01*
X105542571Y-16345429D01*
X105542571Y-16559714D01*
X105471142Y-16845429D01*
X105399714Y-16988286D01*
X105256856Y-17131143D01*
X105042571Y-17202571D01*
X104685428Y-17202571D01*
X106185428Y-17202571D02*
X106185428Y-16202571D01*
X106185428Y-15702571D02*
X106113999Y-15774000D01*
X106185428Y-15845429D01*
X106256856Y-15774000D01*
X106185428Y-15702571D01*
X106185428Y-15845429D01*
X106828285Y-17131143D02*
X106971142Y-17202571D01*
X107256857Y-17202571D01*
X107399714Y-17131143D01*
X107471142Y-16988286D01*
X107471142Y-16916857D01*
X107399714Y-16774000D01*
X107256857Y-16702571D01*
X107042571Y-16702571D01*
X106899714Y-16631143D01*
X106828285Y-16488286D01*
X106828285Y-16416857D01*
X106899714Y-16274000D01*
X107042571Y-16202571D01*
X107256857Y-16202571D01*
X107399714Y-16274000D01*
X108114000Y-16202571D02*
X108114000Y-17702571D01*
X108114000Y-16274000D02*
X108256857Y-16202571D01*
X108542571Y-16202571D01*
X108685428Y-16274000D01*
X108756857Y-16345429D01*
X108828286Y-16488286D01*
X108828286Y-16916857D01*
X108756857Y-17059714D01*
X108685428Y-17131143D01*
X108542571Y-17202571D01*
X108256857Y-17202571D01*
X108114000Y-17131143D01*
X109685429Y-17202571D02*
X109542571Y-17131143D01*
X109471143Y-16988286D01*
X109471143Y-15702571D01*
X110899714Y-17202571D02*
X110899714Y-16416857D01*
X110828285Y-16274000D01*
X110685428Y-16202571D01*
X110399714Y-16202571D01*
X110256857Y-16274000D01*
X110899714Y-17131143D02*
X110756857Y-17202571D01*
X110399714Y-17202571D01*
X110256857Y-17131143D01*
X110185428Y-16988286D01*
X110185428Y-16845429D01*
X110256857Y-16702571D01*
X110399714Y-16631143D01*
X110756857Y-16631143D01*
X110899714Y-16559714D01*
X111471143Y-16202571D02*
X111828286Y-17202571D01*
X112185428Y-16202571D02*
X111828286Y-17202571D01*
X111685428Y-17559714D01*
X111614000Y-17631143D01*
X111471143Y-17702571D01*
D23*
X72999572Y-53534714D02*
X72999572Y-52772714D01*
X73181000Y-52772714D01*
X73289857Y-52809000D01*
X73362429Y-52881571D01*
X73398714Y-52954143D01*
X73435000Y-53099286D01*
X73435000Y-53208143D01*
X73398714Y-53353286D01*
X73362429Y-53425857D01*
X73289857Y-53498429D01*
X73181000Y-53534714D01*
X72999572Y-53534714D01*
X73689000Y-52772714D02*
X74160714Y-52772714D01*
X73906714Y-53063000D01*
X74015572Y-53063000D01*
X74088143Y-53099286D01*
X74124429Y-53135571D01*
X74160714Y-53208143D01*
X74160714Y-53389571D01*
X74124429Y-53462143D01*
X74088143Y-53498429D01*
X74015572Y-53534714D01*
X73797857Y-53534714D01*
X73725286Y-53498429D01*
X73689000Y-53462143D01*
X70078572Y-58868714D02*
X70078572Y-58106714D01*
X70876857Y-58868714D02*
X70622857Y-58505857D01*
X70441429Y-58868714D02*
X70441429Y-58106714D01*
X70731714Y-58106714D01*
X70804286Y-58143000D01*
X70840571Y-58179286D01*
X70876857Y-58251857D01*
X70876857Y-58360714D01*
X70840571Y-58433286D01*
X70804286Y-58469571D01*
X70731714Y-58505857D01*
X70441429Y-58505857D01*
X71022000Y-58941286D02*
X71602571Y-58941286D01*
X72146857Y-58868714D02*
X71784000Y-58868714D01*
X71784000Y-58106714D01*
X72400857Y-58469571D02*
X72654857Y-58469571D01*
X72763714Y-58868714D02*
X72400857Y-58868714D01*
X72400857Y-58106714D01*
X72763714Y-58106714D01*
X73090286Y-58868714D02*
X73090286Y-58106714D01*
X73271714Y-58106714D01*
X73380571Y-58143000D01*
X73453143Y-58215571D01*
X73489428Y-58288143D01*
X73525714Y-58433286D01*
X73525714Y-58542143D01*
X73489428Y-58687286D01*
X73453143Y-58759857D01*
X73380571Y-58832429D01*
X73271714Y-58868714D01*
X73090286Y-58868714D01*
D13*
X66157000Y-56328714D02*
X65903000Y-55965857D01*
X65721572Y-56328714D02*
X65721572Y-55566714D01*
X66011857Y-55566714D01*
X66084429Y-55603000D01*
X66120714Y-55639286D01*
X66157000Y-55711857D01*
X66157000Y-55820714D01*
X66120714Y-55893286D01*
X66084429Y-55929571D01*
X66011857Y-55965857D01*
X65721572Y-55965857D01*
X66810143Y-55820714D02*
X66810143Y-56328714D01*
X66628714Y-55530429D02*
X66447286Y-56074714D01*
X66919000Y-56074714D01*
D24*
X65342286Y-52156571D02*
X65306000Y-52229143D01*
X65233429Y-52301714D01*
X65124571Y-52410571D01*
X65088286Y-52483143D01*
X65088286Y-52555714D01*
X65269714Y-52519429D02*
X65233429Y-52592000D01*
X65160857Y-52664571D01*
X65015714Y-52700857D01*
X64761714Y-52700857D01*
X64616571Y-52664571D01*
X64544000Y-52592000D01*
X64507714Y-52519429D01*
X64507714Y-52374286D01*
X64544000Y-52301714D01*
X64616571Y-52229143D01*
X64761714Y-52192857D01*
X65015714Y-52192857D01*
X65160857Y-52229143D01*
X65233429Y-52301714D01*
X65269714Y-52374286D01*
X65269714Y-52519429D01*
X65269714Y-51467143D02*
X65269714Y-51902571D01*
X65269714Y-51684857D02*
X64507714Y-51684857D01*
X64616571Y-51757428D01*
X64689143Y-51830000D01*
X64725429Y-51902571D01*
X66739286Y-54152285D02*
X66703000Y-54115999D01*
X66666714Y-54043428D01*
X66666714Y-53861999D01*
X66703000Y-53789428D01*
X66739286Y-53753142D01*
X66811857Y-53716857D01*
X66884429Y-53716857D01*
X66993286Y-53753142D01*
X67428714Y-54188571D01*
X67428714Y-53716857D01*
X67428714Y-53390285D02*
X66666714Y-53390285D01*
X67428714Y-52954857D01*
X66666714Y-52954857D01*
X66666714Y-52664571D02*
X66666714Y-52156571D01*
X67428714Y-52483142D01*
X66666714Y-51721143D02*
X66666714Y-51648571D01*
X66703000Y-51576000D01*
X66739286Y-51539714D01*
X66811857Y-51503428D01*
X66957000Y-51467143D01*
X67138429Y-51467143D01*
X67283571Y-51503428D01*
X67356143Y-51539714D01*
X67392429Y-51576000D01*
X67428714Y-51648571D01*
X67428714Y-51721143D01*
X67392429Y-51793714D01*
X67356143Y-51830000D01*
X67283571Y-51866285D01*
X67138429Y-51902571D01*
X66957000Y-51902571D01*
X66811857Y-51866285D01*
X66739286Y-51830000D01*
X66703000Y-51793714D01*
X66666714Y-51721143D01*
X66666714Y-50995429D02*
X66666714Y-50922857D01*
X66703000Y-50850286D01*
X66739286Y-50814000D01*
X66811857Y-50777714D01*
X66957000Y-50741429D01*
X67138429Y-50741429D01*
X67283571Y-50777714D01*
X67356143Y-50814000D01*
X67392429Y-50850286D01*
X67428714Y-50922857D01*
X67428714Y-50995429D01*
X67392429Y-51068000D01*
X67356143Y-51104286D01*
X67283571Y-51140571D01*
X67138429Y-51176857D01*
X66957000Y-51176857D01*
X66811857Y-51140571D01*
X66739286Y-51104286D01*
X66703000Y-51068000D01*
X66666714Y-50995429D01*
X66739286Y-50451143D02*
X66703000Y-50414857D01*
X66666714Y-50342286D01*
X66666714Y-50160857D01*
X66703000Y-50088286D01*
X66739286Y-50052000D01*
X66811857Y-50015715D01*
X66884429Y-50015715D01*
X66993286Y-50052000D01*
X67428714Y-50487429D01*
X67428714Y-50015715D01*
D22*
X65465429Y-48060200D02*
X65489619Y-48081971D01*
X65513810Y-48147285D01*
X65513810Y-48190828D01*
X65489619Y-48256143D01*
X65441238Y-48299685D01*
X65392857Y-48321457D01*
X65296095Y-48343228D01*
X65223524Y-48343228D01*
X65126762Y-48321457D01*
X65078381Y-48299685D01*
X65030000Y-48256143D01*
X65005810Y-48190828D01*
X65005810Y-48147285D01*
X65030000Y-48081971D01*
X65054190Y-48060200D01*
X65005810Y-47646543D02*
X65005810Y-47864257D01*
X65247714Y-47886028D01*
X65223524Y-47864257D01*
X65199333Y-47820714D01*
X65199333Y-47711857D01*
X65223524Y-47668314D01*
X65247714Y-47646543D01*
X65296095Y-47624771D01*
X65417048Y-47624771D01*
X65465429Y-47646543D01*
X65489619Y-47668314D01*
X65513810Y-47711857D01*
X65513810Y-47820714D01*
X65489619Y-47864257D01*
X65465429Y-47886028D01*
X63814429Y-48005772D02*
X63838619Y-47984000D01*
X63862810Y-48005772D01*
X63838619Y-48027543D01*
X63814429Y-48005772D01*
X63862810Y-48005772D01*
X63379000Y-48092857D02*
X63354810Y-48049314D01*
X63354810Y-47940457D01*
X63379000Y-47896914D01*
X63427381Y-47875143D01*
X63475762Y-47875143D01*
X63524143Y-47896914D01*
X63548333Y-47918686D01*
X63572524Y-47962229D01*
X63596714Y-47984000D01*
X63645095Y-48005772D01*
X63669286Y-48005772D01*
M02*
