%FSLAX46Y46*%
G04 Gerber Fmt 4.6, Leading zero omitted, Abs format (unit mm)*
G04 Created by KiCad (PCBNEW (2014-08-02 BZR 5044)-product) date 13.08.2014 17:47:44*
%MOMM*%
G01*
G04 APERTURE LIST*
%ADD10C,0.150000*%
%ADD11R,1.727200X2.032000*%
%ADD12O,1.727200X2.032000*%
%ADD13R,2.032000X1.727200*%
%ADD14O,2.032000X1.727200*%
%ADD15C,1.397000*%
%ADD16R,1.016000X1.016000*%
%ADD17C,1.016000*%
%ADD18R,1.727200X1.727200*%
%ADD19O,1.727200X1.727200*%
%ADD20C,1.000760*%
%ADD21R,1.143000X0.635000*%
%ADD22R,0.914400X0.914400*%
%ADD23C,1.524000*%
%ADD24C,1.676400*%
%ADD25C,0.889000*%
%ADD26C,0.254000*%
%ADD27C,0.250000*%
G04 APERTURE END LIST*
D10*
D11*
X42855600Y-18328800D03*
D12*
X45395600Y-18328800D03*
X47935600Y-18328800D03*
X50475600Y-18328800D03*
D11*
X50594000Y-15484000D03*
D12*
X53134000Y-15484000D03*
X55674000Y-15484000D03*
X58214000Y-15484000D03*
X60754000Y-15484000D03*
X63294000Y-15484000D03*
X65834000Y-15484000D03*
X68374000Y-15484000D03*
D13*
X27384000Y-19274000D03*
D14*
X27384000Y-21814000D03*
X27384000Y-24354000D03*
X27384000Y-26894000D03*
D11*
X27434000Y-16684000D03*
D12*
X29974000Y-16684000D03*
X32514000Y-16684000D03*
X35054000Y-16684000D03*
X37594000Y-16684000D03*
X40134000Y-16684000D03*
D10*
G36*
X25610000Y-32443224D02*
X26597828Y-33431052D01*
X25610000Y-34418880D01*
X24622172Y-33431052D01*
X25610000Y-32443224D01*
X25610000Y-32443224D01*
G37*
D15*
X27406051Y-31635001D03*
X25610000Y-29838950D03*
D11*
X50012000Y-55366800D03*
D12*
X47472000Y-55366800D03*
X44932000Y-55366800D03*
X42392000Y-55366800D03*
D16*
X85414000Y-32539000D03*
D17*
X85414000Y-33809000D03*
X85414000Y-35079000D03*
X85414000Y-36349000D03*
X85414000Y-37619000D03*
X85414000Y-38889000D03*
X85414000Y-40159000D03*
X85414000Y-41429000D03*
D18*
X76874000Y-21014000D03*
D19*
X76874000Y-23554000D03*
X74334000Y-21014000D03*
X74334000Y-23554000D03*
X71794000Y-21014000D03*
X71794000Y-23554000D03*
X69254000Y-21014000D03*
X69254000Y-23554000D03*
X66714000Y-21014000D03*
X66714000Y-23554000D03*
X64174000Y-21014000D03*
X64174000Y-23554000D03*
X61634000Y-21014000D03*
X61634000Y-23554000D03*
X59094000Y-21014000D03*
X59094000Y-23554000D03*
D20*
X63295155Y-43745855D02*
X63648977Y-44099677D01*
X63648977Y-45668323D02*
X63295155Y-46022145D01*
D21*
X95384000Y-23046000D03*
X95384000Y-21522000D03*
X100484000Y-23346000D03*
X100484000Y-21822000D03*
X102184000Y-23346000D03*
X102184000Y-21822000D03*
D22*
X103395000Y-26900000D03*
X105173000Y-26900000D03*
X104284000Y-24868000D03*
X92295000Y-26300000D03*
X94073000Y-26300000D03*
X93184000Y-24268000D03*
D21*
X97884000Y-53322000D03*
X97884000Y-54846000D03*
X105584000Y-53322000D03*
X105584000Y-54846000D03*
D23*
X92864000Y-57164000D03*
X95404000Y-57164000D03*
X97944000Y-57164000D03*
X100484000Y-57164000D03*
X103024000Y-57164000D03*
X105564000Y-57164000D03*
X108104000Y-57164000D03*
X108104000Y-19064000D03*
X105564000Y-19064000D03*
X103024000Y-19064000D03*
X100484000Y-19064000D03*
X97944000Y-19064000D03*
X95404000Y-19064000D03*
X92864000Y-19064000D03*
D22*
X107395000Y-26800000D03*
X109173000Y-26800000D03*
X108284000Y-24768000D03*
X103273000Y-51268000D03*
X101495000Y-51268000D03*
X102384000Y-53300000D03*
X92573000Y-52568000D03*
X90795000Y-52568000D03*
X91684000Y-54600000D03*
X108873000Y-49668000D03*
X107095000Y-49668000D03*
X107984000Y-51700000D03*
X96173000Y-49668000D03*
X94395000Y-49668000D03*
X95284000Y-51700000D03*
D24*
X70514000Y-55984000D03*
X73054000Y-55984000D03*
D25*
X77684000Y-47584000D03*
X48514000Y-47879000D03*
X41402000Y-52679600D03*
X47614200Y-39000644D03*
X40182800Y-50800000D03*
X63681009Y-37505740D03*
X93984000Y-52784000D03*
X97584000Y-49684000D03*
X43584000Y-34184000D03*
X57184000Y-46384000D03*
X83884000Y-29284000D03*
X76884000Y-33984000D03*
X102924519Y-28306562D03*
X104184038Y-49414503D03*
X44864556Y-25506275D03*
X53693760Y-38576608D03*
X46684000Y-25084000D03*
X53693760Y-37537596D03*
X79284000Y-23984000D03*
X74010578Y-18457422D03*
X48884000Y-27384000D03*
X56680388Y-33027233D03*
X56457655Y-35590911D03*
X58140583Y-44109021D03*
X59146615Y-38599771D03*
X97776589Y-36624576D03*
X73497115Y-39050521D03*
X97140138Y-37446089D03*
X95460578Y-39960578D03*
X98484000Y-37884000D03*
X57014480Y-38334647D03*
X55879610Y-36892379D03*
X58753350Y-36322382D03*
X57784000Y-36696423D03*
X57871230Y-35249188D03*
X70808011Y-38814480D03*
X62854918Y-28659927D03*
X44018256Y-37991412D03*
X45311770Y-38183649D03*
X59184000Y-44584000D03*
X52354952Y-37199320D03*
X38784000Y-45484000D03*
X51723808Y-34923808D03*
X41800000Y-37700000D03*
D26*
X27284000Y-19574000D02*
X27131600Y-19574000D01*
X27131600Y-19574000D02*
X25210000Y-21495600D01*
X25210000Y-21495600D02*
X25210000Y-27910000D01*
X25210000Y-27910000D02*
X25610000Y-28310000D01*
X25610000Y-28310000D02*
X25610000Y-29838950D01*
X50594000Y-15331600D02*
X50541600Y-15384000D01*
X50541600Y-15384000D02*
X38741600Y-15384000D01*
X38741600Y-15384000D02*
X37594000Y-16531600D01*
X37594000Y-16531600D02*
X37594000Y-16684000D01*
X50594000Y-15484000D02*
X50594000Y-15331600D01*
X68846456Y-14190990D02*
X51734610Y-14190990D01*
X51734610Y-14190990D02*
X50594000Y-15331600D01*
X74334000Y-21014000D02*
X73239077Y-19919077D01*
X73239077Y-19919077D02*
X73239077Y-18583611D01*
X73239077Y-18583611D02*
X68846456Y-14190990D01*
X43713400Y-52679600D02*
X42030617Y-52679600D01*
X48514000Y-47879000D02*
X43713400Y-52679600D01*
X42030617Y-52679600D02*
X41402000Y-52679600D01*
X48398019Y-39784463D02*
X48058699Y-39445143D01*
X54182280Y-39784463D02*
X48398019Y-39784463D01*
X48058699Y-39445143D02*
X47614200Y-39000644D01*
X56736010Y-42338193D02*
X54182280Y-39784463D01*
X54029807Y-45836010D02*
X56736010Y-43129807D01*
X56736010Y-43129807D02*
X56736010Y-42338193D01*
X42665817Y-50800000D02*
X43688388Y-49777429D01*
X40182800Y-50800000D02*
X42665817Y-50800000D01*
X43688388Y-49777429D02*
X47629807Y-45836010D01*
X43594000Y-49871817D02*
X43688388Y-49777429D01*
X49950016Y-54034816D02*
X49950016Y-45836010D01*
X50012000Y-54096800D02*
X49950016Y-54034816D01*
X50012000Y-55366800D02*
X50012000Y-54096800D01*
X49950016Y-45836010D02*
X54029807Y-45836010D01*
X47629807Y-45836010D02*
X49950016Y-45836010D01*
D10*
X106205599Y-26217799D02*
X103470001Y-26217799D01*
X103395000Y-26292800D02*
X103395000Y-26900000D01*
X103470001Y-26217799D02*
X103395000Y-26292800D01*
X106787800Y-26800000D02*
X106205599Y-26217799D01*
X107395000Y-26800000D02*
X106787800Y-26800000D01*
D26*
X60412686Y-21014000D02*
X61634000Y-21014000D01*
X53241600Y-21014000D02*
X60412686Y-21014000D01*
X59094000Y-21014000D02*
X61634000Y-21014000D01*
X61634000Y-18434000D02*
X61634000Y-21014000D01*
X62184000Y-17884000D02*
X61634000Y-18434000D01*
X67244000Y-17884000D02*
X62184000Y-17884000D01*
X68374000Y-16754000D02*
X67244000Y-17884000D01*
X68374000Y-15484000D02*
X68374000Y-16754000D01*
X93768000Y-52568000D02*
X93984000Y-52784000D01*
X92573000Y-52568000D02*
X93768000Y-52568000D01*
X97568000Y-49668000D02*
X96173000Y-49668000D01*
X97568000Y-49668000D02*
X97584000Y-49684000D01*
X91583800Y-26300000D02*
X91567800Y-26284000D01*
X92295000Y-26300000D02*
X91583800Y-26300000D01*
X91567800Y-26284000D02*
X86884000Y-26284000D01*
X86884000Y-26284000D02*
X83884000Y-29284000D01*
X84695580Y-37619000D02*
X85414000Y-37619000D01*
X79890383Y-37619000D02*
X84695580Y-37619000D01*
X76884000Y-34612617D02*
X79890383Y-37619000D01*
X76884000Y-33984000D02*
X76884000Y-34612617D01*
X43139501Y-33739501D02*
X43139501Y-25328499D01*
X43584000Y-34184000D02*
X43139501Y-33739501D01*
X47454000Y-21014000D02*
X53241600Y-21014000D01*
X43139501Y-25328499D02*
X47454000Y-21014000D01*
X103273000Y-51268000D02*
X103273000Y-50325541D01*
D10*
X103395000Y-26900000D02*
X103395000Y-27836081D01*
D26*
X103739539Y-49859002D02*
X104184038Y-49414503D01*
D10*
X103395000Y-27836081D02*
X103369018Y-27862063D01*
X103369018Y-27862063D02*
X102924519Y-28306562D01*
D26*
X103273000Y-50325541D02*
X103739539Y-49859002D01*
X29974000Y-16531600D02*
X29974000Y-16684000D01*
D10*
X45309055Y-25950774D02*
X44864556Y-25506275D01*
X53024259Y-37216235D02*
X53372399Y-36868095D01*
X53024259Y-37907107D02*
X53024259Y-37216235D01*
X53693760Y-38576608D02*
X53024259Y-37907107D01*
X53372399Y-36868095D02*
X53372399Y-34014118D01*
X53372399Y-34014118D02*
X45309055Y-25950774D01*
X46684000Y-25712617D02*
X46684000Y-25084000D01*
X46684000Y-26263616D02*
X46684000Y-25712617D01*
X53693760Y-33273376D02*
X46684000Y-26263616D01*
X53693760Y-37537596D02*
X53693760Y-33273376D01*
X75422601Y-21694803D02*
X75422601Y-19869445D01*
X79284000Y-23984000D02*
X77402601Y-22102601D01*
X75422601Y-19869445D02*
X74455077Y-18901921D01*
X75830399Y-22102601D02*
X75422601Y-21694803D01*
X74455077Y-18901921D02*
X74010578Y-18457422D01*
X77402601Y-22102601D02*
X75830399Y-22102601D01*
X48884000Y-27384000D02*
X51037155Y-27384000D01*
X51037155Y-27384000D02*
X56235889Y-32582734D01*
X56235889Y-32582734D02*
X56680388Y-33027233D01*
X56457655Y-35247623D02*
X56457655Y-35590911D01*
X57425600Y-34279678D02*
X56457655Y-35247623D01*
X59639767Y-34279677D02*
X57425600Y-34279678D01*
X68635454Y-25283990D02*
X59639767Y-34279677D01*
X93911690Y-25283990D02*
X68635454Y-25283990D01*
X95384000Y-23811680D02*
X93911690Y-25283990D01*
X95384000Y-23046000D02*
X95384000Y-23811680D01*
X95384000Y-21522000D02*
X95384000Y-19084000D01*
X95384000Y-19084000D02*
X95404000Y-19064000D01*
X97884000Y-52854500D02*
X97884000Y-53322000D01*
X96013500Y-50984000D02*
X97884000Y-52854500D01*
X64386945Y-50984000D02*
X96013500Y-50984000D01*
X58140583Y-44737638D02*
X64386945Y-50984000D01*
X58140583Y-44109021D02*
X58140583Y-44737638D01*
X97884000Y-54846000D02*
X97884000Y-57104000D01*
X97884000Y-57104000D02*
X97944000Y-57164000D01*
X98221088Y-36180077D02*
X97776589Y-36624576D01*
X100484000Y-23346000D02*
X100484000Y-33917165D01*
X100484000Y-33917165D02*
X98221088Y-36180077D01*
X73052616Y-38606022D02*
X73497115Y-39050521D01*
X59146615Y-38599771D02*
X69183302Y-38599771D01*
X69183302Y-38599771D02*
X70238113Y-37544960D01*
X71991554Y-37544960D02*
X73052616Y-38606022D01*
X70238113Y-37544960D02*
X71991554Y-37544960D01*
X100484000Y-21822000D02*
X100484000Y-21354500D01*
X100484000Y-21354500D02*
X100484000Y-19064000D01*
X102184000Y-23346000D02*
X102184000Y-33193138D01*
X102184000Y-33193138D02*
X97931049Y-37446089D01*
X97768755Y-37446089D02*
X97140138Y-37446089D01*
X97931049Y-37446089D02*
X97768755Y-37446089D01*
X102184000Y-21822000D02*
X102184000Y-19904000D01*
X102184000Y-19904000D02*
X103024000Y-19064000D01*
X102984000Y-19104000D02*
X103024000Y-19064000D01*
X96089195Y-39960578D02*
X95460578Y-39960578D01*
X105584000Y-53322000D02*
X105584000Y-49455383D01*
X105584000Y-49455383D02*
X96089195Y-39960578D01*
X105584000Y-57144000D02*
X105564000Y-57164000D01*
X105584000Y-54846000D02*
X105584000Y-57144000D01*
X91684000Y-54600000D02*
X91684000Y-55984000D01*
X91684000Y-55984000D02*
X92864000Y-57164000D01*
X95284000Y-51700000D02*
X90343598Y-51700000D01*
X90343598Y-51700000D02*
X90112799Y-51930799D01*
X90112799Y-51930799D02*
X90112799Y-55873561D01*
X90112799Y-55873561D02*
X92390239Y-58151001D01*
X92390239Y-58151001D02*
X94416999Y-58151001D01*
X94416999Y-58151001D02*
X94642001Y-57925999D01*
X94642001Y-57925999D02*
X95404000Y-57164000D01*
X102384000Y-53300000D02*
X102384000Y-56524000D01*
X102384000Y-56524000D02*
X103024000Y-57164000D01*
X107984000Y-51700000D02*
X107984000Y-57044000D01*
X107984000Y-57044000D02*
X108104000Y-57164000D01*
X108284000Y-24768000D02*
X108284000Y-19244000D01*
X108284000Y-19244000D02*
X108104000Y-19064000D01*
X105132000Y-24868000D02*
X105564000Y-24436000D01*
X105564000Y-24436000D02*
X105564000Y-19064000D01*
X104284000Y-24868000D02*
X105132000Y-24868000D01*
X105884000Y-19384000D02*
X105564000Y-19064000D01*
X93184000Y-24268000D02*
X93184000Y-19384000D01*
X93184000Y-19384000D02*
X92864000Y-19064000D01*
X98484000Y-37884000D02*
X105173000Y-31195000D01*
X105173000Y-31195000D02*
X105173000Y-26900000D01*
X105173000Y-26900000D02*
X105173000Y-31148685D01*
X98928499Y-37439501D02*
X98484000Y-37884000D01*
X57014480Y-37706030D02*
X57014480Y-38334647D01*
X57014480Y-35962658D02*
X57014480Y-37706030D01*
X57201729Y-34927827D02*
X57201729Y-35775409D01*
X57549869Y-34579687D02*
X57201729Y-34927827D01*
X59764035Y-34579687D02*
X57549869Y-34579687D01*
X62837732Y-31505990D02*
X59764035Y-34579687D01*
X89474210Y-31505990D02*
X62837732Y-31505990D01*
X94073000Y-26907200D02*
X89474210Y-31505990D01*
X94073000Y-26300000D02*
X94073000Y-26907200D01*
X57201729Y-35775409D02*
X57014480Y-35962658D01*
X103500000Y-22764598D02*
X103500000Y-25403402D01*
X103500000Y-25403402D02*
X103785099Y-25688501D01*
X103785099Y-25688501D02*
X108668701Y-25688501D01*
X100680401Y-22364501D02*
X94771497Y-22364501D01*
X100796503Y-22364501D02*
X100680401Y-22364501D01*
X100680401Y-22364501D02*
X103099903Y-22364501D01*
X103099903Y-22364501D02*
X103500000Y-22764598D01*
X93866201Y-24905201D02*
X93787422Y-24983980D01*
X93866201Y-23269797D02*
X93866201Y-24905201D01*
X59515499Y-33979667D02*
X57078037Y-33979667D01*
X109173000Y-26192800D02*
X108668701Y-25688501D01*
X94771497Y-22364501D02*
X93866201Y-23269797D01*
X93787422Y-24983980D02*
X68511186Y-24983980D01*
X68511186Y-24983980D02*
X59515499Y-33979667D01*
X57078037Y-33979667D02*
X55435111Y-35622593D01*
X55435111Y-35622593D02*
X55435111Y-36447880D01*
X55435111Y-36447880D02*
X55879610Y-36892379D01*
X109173000Y-26800000D02*
X109173000Y-26192800D01*
X58753350Y-36179674D02*
X58753350Y-36322382D01*
X58943510Y-35989514D02*
X58753350Y-36179674D01*
X93830383Y-42283981D02*
X75692652Y-42283981D01*
X102177201Y-50630799D02*
X93830383Y-42283981D01*
X102177201Y-51905201D02*
X102177201Y-50630799D01*
X58753350Y-36950999D02*
X58753350Y-36322382D01*
X58353501Y-37350848D02*
X58753350Y-36950999D01*
X58353501Y-38753501D02*
X58353501Y-37350848D01*
X58883981Y-39283981D02*
X58353501Y-38753501D01*
X68923370Y-39283981D02*
X58883981Y-39283981D01*
X70362381Y-37844970D02*
X68923370Y-39283981D01*
X75692652Y-42283981D02*
X71253640Y-37844969D01*
X100217901Y-53864501D02*
X102177201Y-51905201D01*
X91484301Y-53864501D02*
X100217901Y-53864501D01*
X71253640Y-37844969D02*
X70362381Y-37844970D01*
X90795000Y-52568000D02*
X90795000Y-53175200D01*
X90795000Y-53175200D02*
X91484301Y-53864501D01*
X57784000Y-39309346D02*
X57784000Y-37325040D01*
X75568384Y-42583991D02*
X71129372Y-38144979D01*
X92203791Y-42583991D02*
X75568384Y-42583991D01*
X58058645Y-39583991D02*
X57784000Y-39309346D01*
X100887800Y-51268000D02*
X92203791Y-42583991D01*
X70486650Y-38144979D02*
X69047638Y-39583991D01*
X71129372Y-38144979D02*
X70486650Y-38144979D01*
X57784000Y-37325040D02*
X57784000Y-36696423D01*
X69047638Y-39583991D02*
X58058645Y-39583991D01*
X101495000Y-51268000D02*
X100887800Y-51268000D01*
X107095000Y-49668000D02*
X107095000Y-47604138D01*
X58499847Y-35249188D02*
X57871230Y-35249188D01*
X62962001Y-31805999D02*
X59518812Y-35249188D01*
X59518812Y-35249188D02*
X58499847Y-35249188D01*
X90015137Y-31805999D02*
X62962001Y-31805999D01*
X97606452Y-38115590D02*
X96324728Y-38115590D01*
X96324728Y-38115590D02*
X90015137Y-31805999D01*
X107095000Y-47604138D02*
X97606452Y-38115590D01*
X81661531Y-49668000D02*
X71252510Y-39258979D01*
X71252510Y-39258979D02*
X70808011Y-38814480D01*
X94395000Y-49668000D02*
X81661531Y-49668000D01*
X65262601Y-22465399D02*
X65262601Y-26252244D01*
X66714000Y-21014000D02*
X65262601Y-22465399D01*
X65262601Y-26252244D02*
X63299417Y-28215428D01*
X63299417Y-28215428D02*
X62854918Y-28659927D01*
X28702000Y-22656800D02*
X28702000Y-21966000D01*
X28702000Y-21966000D02*
X28550000Y-21814000D01*
X28550000Y-21814000D02*
X27384000Y-21814000D01*
X44084000Y-38184000D02*
X44018256Y-38118256D01*
X44018256Y-38118256D02*
X44018256Y-37991412D01*
X43573757Y-37546913D02*
X43573757Y-37528557D01*
X44018256Y-37991412D02*
X43573757Y-37546913D01*
X43573757Y-37528557D02*
X28702000Y-22656800D01*
X44384191Y-38983990D02*
X44063990Y-38983990D01*
X44063990Y-38983990D02*
X29434000Y-24354000D01*
X29434000Y-24354000D02*
X27384000Y-24354000D01*
X44511429Y-38983990D02*
X44384191Y-38983990D01*
X45311770Y-38183649D02*
X44511429Y-38983990D01*
X44484010Y-38983990D02*
X44384191Y-38983990D01*
X59184000Y-44584000D02*
X59184000Y-42688366D01*
X59184000Y-42688366D02*
X55741743Y-39246109D01*
X55741743Y-39246109D02*
X53372399Y-39246109D01*
X53372399Y-39246109D02*
X52354952Y-38228662D01*
X52354952Y-38228662D02*
X52354952Y-37827937D01*
X52354952Y-37827937D02*
X52354952Y-37199320D01*
X53884000Y-45484000D02*
X38784000Y-45484000D01*
X56384000Y-42984000D02*
X53884000Y-45484000D01*
X56384000Y-42484000D02*
X56384000Y-42984000D01*
X54084000Y-40184000D02*
X56384000Y-42484000D01*
X47384000Y-40184000D02*
X54084000Y-40184000D01*
X46884000Y-39684000D02*
X47384000Y-40184000D01*
X46884000Y-38784000D02*
X46884000Y-39684000D01*
X50744192Y-34923808D02*
X46884000Y-38784000D01*
X51723808Y-34923808D02*
X50744192Y-34923808D01*
X27406051Y-31635001D02*
X28104550Y-30936502D01*
X28104550Y-30936502D02*
X35136502Y-30936502D01*
X35136502Y-30936502D02*
X41355501Y-37155501D01*
X41355501Y-37155501D02*
X41355501Y-37255501D01*
X41355501Y-37255501D02*
X41800000Y-37700000D01*
D27*
G36*
X93336036Y-27007767D02*
X93127200Y-27216603D01*
X93127200Y-26831792D01*
X93127200Y-26682608D01*
X93127200Y-26418750D01*
X93033450Y-26325000D01*
X92320000Y-26325000D01*
X92320000Y-27038450D01*
X92413750Y-27132200D01*
X92826792Y-27132200D01*
X92964620Y-27075110D01*
X93070110Y-26969621D01*
X93127200Y-26831792D01*
X93127200Y-27216603D01*
X92270000Y-28073803D01*
X92270000Y-27038450D01*
X92270000Y-26325000D01*
X91556550Y-26325000D01*
X91462800Y-26418750D01*
X91462800Y-26682608D01*
X91462800Y-26831792D01*
X91519890Y-26969621D01*
X91625380Y-27075110D01*
X91763208Y-27132200D01*
X92176250Y-27132200D01*
X92270000Y-27038450D01*
X92270000Y-28073803D01*
X89287814Y-31055990D01*
X63499850Y-31055990D01*
X68821850Y-25733990D01*
X91476973Y-25733990D01*
X91462800Y-25768208D01*
X91462800Y-25917392D01*
X91462800Y-26181250D01*
X91556550Y-26275000D01*
X92270000Y-26275000D01*
X92270000Y-26255000D01*
X92320000Y-26255000D01*
X92320000Y-26275000D01*
X93033450Y-26275000D01*
X93127200Y-26181250D01*
X93127200Y-25917392D01*
X93127200Y-25768208D01*
X93113026Y-25733990D01*
X93254973Y-25733990D01*
X93240800Y-25768208D01*
X93240800Y-25917392D01*
X93240800Y-26831792D01*
X93297890Y-26969620D01*
X93336036Y-27007767D01*
X93336036Y-27007767D01*
G37*
X93336036Y-27007767D02*
X93127200Y-27216603D01*
X93127200Y-26831792D01*
X93127200Y-26682608D01*
X93127200Y-26418750D01*
X93033450Y-26325000D01*
X92320000Y-26325000D01*
X92320000Y-27038450D01*
X92413750Y-27132200D01*
X92826792Y-27132200D01*
X92964620Y-27075110D01*
X93070110Y-26969621D01*
X93127200Y-26831792D01*
X93127200Y-27216603D01*
X92270000Y-28073803D01*
X92270000Y-27038450D01*
X92270000Y-26325000D01*
X91556550Y-26325000D01*
X91462800Y-26418750D01*
X91462800Y-26682608D01*
X91462800Y-26831792D01*
X91519890Y-26969621D01*
X91625380Y-27075110D01*
X91763208Y-27132200D01*
X92176250Y-27132200D01*
X92270000Y-27038450D01*
X92270000Y-28073803D01*
X89287814Y-31055990D01*
X63499850Y-31055990D01*
X68821850Y-25733990D01*
X91476973Y-25733990D01*
X91462800Y-25768208D01*
X91462800Y-25917392D01*
X91462800Y-26181250D01*
X91556550Y-26275000D01*
X92270000Y-26275000D01*
X92270000Y-26255000D01*
X92320000Y-26255000D01*
X92320000Y-26275000D01*
X93033450Y-26275000D01*
X93127200Y-26181250D01*
X93127200Y-25917392D01*
X93127200Y-25768208D01*
X93113026Y-25733990D01*
X93254973Y-25733990D01*
X93240800Y-25768208D01*
X93240800Y-25917392D01*
X93240800Y-26831792D01*
X93297890Y-26969620D01*
X93336036Y-27007767D01*
G36*
X97089886Y-52696782D02*
X96994590Y-52792079D01*
X96937500Y-52929908D01*
X96937500Y-53079092D01*
X96937500Y-53414501D01*
X93405200Y-53414501D01*
X93405200Y-53099792D01*
X93405200Y-52950608D01*
X93405200Y-52686750D01*
X93311450Y-52593000D01*
X92598000Y-52593000D01*
X92598000Y-53306450D01*
X92691750Y-53400200D01*
X93104792Y-53400200D01*
X93242620Y-53343110D01*
X93348110Y-53237621D01*
X93405200Y-53099792D01*
X93405200Y-53414501D01*
X92548000Y-53414501D01*
X92548000Y-53306450D01*
X92548000Y-52593000D01*
X91834550Y-52593000D01*
X91740800Y-52686750D01*
X91740800Y-52950608D01*
X91740800Y-53099792D01*
X91797890Y-53237621D01*
X91903380Y-53343110D01*
X92041208Y-53400200D01*
X92454250Y-53400200D01*
X92548000Y-53306450D01*
X92548000Y-53414501D01*
X91670697Y-53414501D01*
X91531963Y-53275767D01*
X91570110Y-53237621D01*
X91627200Y-53099792D01*
X91627200Y-52950608D01*
X91627200Y-52150000D01*
X91740800Y-52150000D01*
X91740800Y-52185392D01*
X91740800Y-52449250D01*
X91834550Y-52543000D01*
X92548000Y-52543000D01*
X92548000Y-52523000D01*
X92598000Y-52523000D01*
X92598000Y-52543000D01*
X93311450Y-52543000D01*
X93405200Y-52449250D01*
X93405200Y-52185392D01*
X93405200Y-52150000D01*
X94451800Y-52150000D01*
X94451800Y-52231792D01*
X94508890Y-52369620D01*
X94614379Y-52475110D01*
X94752208Y-52532200D01*
X94901392Y-52532200D01*
X95815792Y-52532200D01*
X95953620Y-52475110D01*
X96059110Y-52369621D01*
X96116200Y-52231792D01*
X96116200Y-52082608D01*
X96116200Y-51723096D01*
X97089886Y-52696782D01*
X97089886Y-52696782D01*
G37*
X97089886Y-52696782D02*
X96994590Y-52792079D01*
X96937500Y-52929908D01*
X96937500Y-53079092D01*
X96937500Y-53414501D01*
X93405200Y-53414501D01*
X93405200Y-53099792D01*
X93405200Y-52950608D01*
X93405200Y-52686750D01*
X93311450Y-52593000D01*
X92598000Y-52593000D01*
X92598000Y-53306450D01*
X92691750Y-53400200D01*
X93104792Y-53400200D01*
X93242620Y-53343110D01*
X93348110Y-53237621D01*
X93405200Y-53099792D01*
X93405200Y-53414501D01*
X92548000Y-53414501D01*
X92548000Y-53306450D01*
X92548000Y-52593000D01*
X91834550Y-52593000D01*
X91740800Y-52686750D01*
X91740800Y-52950608D01*
X91740800Y-53099792D01*
X91797890Y-53237621D01*
X91903380Y-53343110D01*
X92041208Y-53400200D01*
X92454250Y-53400200D01*
X92548000Y-53306450D01*
X92548000Y-53414501D01*
X91670697Y-53414501D01*
X91531963Y-53275767D01*
X91570110Y-53237621D01*
X91627200Y-53099792D01*
X91627200Y-52950608D01*
X91627200Y-52150000D01*
X91740800Y-52150000D01*
X91740800Y-52185392D01*
X91740800Y-52449250D01*
X91834550Y-52543000D01*
X92548000Y-52543000D01*
X92548000Y-52523000D01*
X92598000Y-52523000D01*
X92598000Y-52543000D01*
X93311450Y-52543000D01*
X93405200Y-52449250D01*
X93405200Y-52185392D01*
X93405200Y-52150000D01*
X94451800Y-52150000D01*
X94451800Y-52231792D01*
X94508890Y-52369620D01*
X94614379Y-52475110D01*
X94752208Y-52532200D01*
X94901392Y-52532200D01*
X95815792Y-52532200D01*
X95953620Y-52475110D01*
X96059110Y-52369621D01*
X96116200Y-52231792D01*
X96116200Y-52082608D01*
X96116200Y-51723096D01*
X97089886Y-52696782D01*
G36*
X101345806Y-52100200D02*
X100031505Y-53414501D01*
X98830500Y-53414501D01*
X98830500Y-52929908D01*
X98773410Y-52792080D01*
X98667921Y-52686590D01*
X98530092Y-52629500D01*
X98380908Y-52629500D01*
X98264471Y-52629500D01*
X98202198Y-52536302D01*
X97005200Y-51339304D01*
X97005200Y-50199792D01*
X97005200Y-50050608D01*
X97005200Y-49786750D01*
X97005200Y-49549250D01*
X97005200Y-49285392D01*
X97005200Y-49136208D01*
X96948110Y-48998379D01*
X96842620Y-48892890D01*
X96704792Y-48835800D01*
X96291750Y-48835800D01*
X96198000Y-48929550D01*
X96198000Y-49643000D01*
X96911450Y-49643000D01*
X97005200Y-49549250D01*
X97005200Y-49786750D01*
X96911450Y-49693000D01*
X96198000Y-49693000D01*
X96198000Y-50406450D01*
X96291750Y-50500200D01*
X96704792Y-50500200D01*
X96842620Y-50443110D01*
X96948110Y-50337621D01*
X97005200Y-50199792D01*
X97005200Y-51339304D01*
X96331698Y-50665802D01*
X96185708Y-50568254D01*
X96148000Y-50560753D01*
X96148000Y-50406450D01*
X96148000Y-49693000D01*
X96148000Y-49643000D01*
X96148000Y-48929550D01*
X96054250Y-48835800D01*
X95641208Y-48835800D01*
X95503380Y-48892890D01*
X95397890Y-48998379D01*
X95340800Y-49136208D01*
X95340800Y-49285392D01*
X95340800Y-49549250D01*
X95434550Y-49643000D01*
X96148000Y-49643000D01*
X96148000Y-49693000D01*
X95434550Y-49693000D01*
X95340800Y-49786750D01*
X95340800Y-50050608D01*
X95340800Y-50199792D01*
X95397890Y-50337621D01*
X95503380Y-50443110D01*
X95641208Y-50500200D01*
X96054250Y-50500200D01*
X96148000Y-50406450D01*
X96148000Y-50560753D01*
X96013500Y-50534000D01*
X78503642Y-50534000D01*
X78503642Y-47421707D01*
X78379143Y-47120397D01*
X78148816Y-46889667D01*
X77847724Y-46764643D01*
X77521707Y-46764358D01*
X77220397Y-46888857D01*
X76989667Y-47119184D01*
X76864643Y-47420276D01*
X76864358Y-47746293D01*
X76988857Y-48047603D01*
X77219184Y-48278333D01*
X77520276Y-48403357D01*
X77846293Y-48403642D01*
X78147603Y-48279143D01*
X78378333Y-48048816D01*
X78503357Y-47747724D01*
X78503642Y-47421707D01*
X78503642Y-50534000D01*
X64573341Y-50534000D01*
X64539949Y-50500608D01*
X64539949Y-45652731D01*
X64473315Y-45317737D01*
X64283556Y-45033744D01*
X64059449Y-44884000D01*
X64283556Y-44734256D01*
X64473315Y-44450263D01*
X64539949Y-44115269D01*
X64473315Y-43780275D01*
X64283556Y-43496282D01*
X63898550Y-43111276D01*
X63614557Y-42921517D01*
X63279563Y-42854883D01*
X62944569Y-42921517D01*
X62660576Y-43111276D01*
X62470817Y-43395269D01*
X62404183Y-43730263D01*
X62470817Y-44065257D01*
X62660576Y-44349250D01*
X63045582Y-44734256D01*
X63269688Y-44884000D01*
X63045582Y-45033744D01*
X62660576Y-45418750D01*
X62470817Y-45702743D01*
X62404183Y-46037737D01*
X62470817Y-46372731D01*
X62660576Y-46656724D01*
X62944569Y-46846483D01*
X63279563Y-46913117D01*
X63614557Y-46846483D01*
X63898550Y-46656724D01*
X64283556Y-46271718D01*
X64473315Y-45987725D01*
X64539949Y-45652731D01*
X64539949Y-50500608D01*
X59414712Y-45375371D01*
X59647603Y-45279143D01*
X59878333Y-45048816D01*
X60003357Y-44747724D01*
X60003642Y-44421707D01*
X59879143Y-44120397D01*
X59648816Y-43889667D01*
X59634000Y-43883514D01*
X59634000Y-42688366D01*
X59599747Y-42516159D01*
X59599746Y-42516158D01*
X59502198Y-42370168D01*
X56059941Y-38927911D01*
X55913951Y-38830363D01*
X55741743Y-38796109D01*
X54489956Y-38796109D01*
X54513117Y-38740332D01*
X54513402Y-38414315D01*
X54388903Y-38113005D01*
X54333202Y-38057206D01*
X54388093Y-38002412D01*
X54513117Y-37701320D01*
X54513402Y-37375303D01*
X54388903Y-37073993D01*
X54158576Y-36843263D01*
X54143760Y-36837110D01*
X54143760Y-33273376D01*
X54109507Y-33101169D01*
X54109506Y-33101168D01*
X54011958Y-32955178D01*
X49197814Y-28141034D01*
X49347603Y-28079143D01*
X49578333Y-27848816D01*
X49584485Y-27834000D01*
X50850759Y-27834000D01*
X55866675Y-32849916D01*
X55861031Y-32863509D01*
X55860746Y-33189526D01*
X55985245Y-33490836D01*
X56215572Y-33721566D01*
X56516664Y-33846590D01*
X56574667Y-33846640D01*
X55116913Y-35304395D01*
X55019365Y-35450385D01*
X54985111Y-35622593D01*
X54985111Y-36447880D01*
X55019365Y-36620088D01*
X55072385Y-36699437D01*
X55060253Y-36728655D01*
X55059968Y-37054672D01*
X55184467Y-37355982D01*
X55414794Y-37586712D01*
X55715886Y-37711736D01*
X56041903Y-37712021D01*
X56343213Y-37587522D01*
X56564480Y-37366641D01*
X56564480Y-37633883D01*
X56550877Y-37639504D01*
X56320147Y-37869831D01*
X56195123Y-38170923D01*
X56194838Y-38496940D01*
X56319337Y-38798250D01*
X56549664Y-39028980D01*
X56850756Y-39154004D01*
X57176773Y-39154289D01*
X57334000Y-39089323D01*
X57334000Y-39309346D01*
X57368254Y-39481554D01*
X57465802Y-39627544D01*
X57740447Y-39902189D01*
X57886437Y-39999737D01*
X57886438Y-39999737D01*
X58058645Y-40033991D01*
X69047638Y-40033991D01*
X69219845Y-39999737D01*
X69219846Y-39999737D01*
X69365836Y-39902189D01*
X70076926Y-39191098D01*
X70112868Y-39278083D01*
X70343195Y-39508813D01*
X70644287Y-39633837D01*
X70970304Y-39634122D01*
X70985130Y-39627995D01*
X81343333Y-49986198D01*
X81489323Y-50083746D01*
X81489324Y-50083746D01*
X81661531Y-50118000D01*
X93562800Y-50118000D01*
X93562800Y-50199792D01*
X93619890Y-50337620D01*
X93725379Y-50443110D01*
X93863208Y-50500200D01*
X94012392Y-50500200D01*
X94926792Y-50500200D01*
X95064620Y-50443110D01*
X95170110Y-50337621D01*
X95227200Y-50199792D01*
X95227200Y-50050608D01*
X95227200Y-49136208D01*
X95170110Y-48998380D01*
X95064621Y-48892890D01*
X94926792Y-48835800D01*
X94777608Y-48835800D01*
X93863208Y-48835800D01*
X93725380Y-48892890D01*
X93619890Y-48998379D01*
X93562800Y-49136208D01*
X93562800Y-49218000D01*
X81847927Y-49218000D01*
X75663918Y-43033991D01*
X92017395Y-43033991D01*
X100569602Y-51586198D01*
X100662800Y-51648471D01*
X100662800Y-51799792D01*
X100719890Y-51937620D01*
X100825379Y-52043110D01*
X100963208Y-52100200D01*
X101112392Y-52100200D01*
X101345806Y-52100200D01*
X101345806Y-52100200D01*
G37*
X101345806Y-52100200D02*
X100031505Y-53414501D01*
X98830500Y-53414501D01*
X98830500Y-52929908D01*
X98773410Y-52792080D01*
X98667921Y-52686590D01*
X98530092Y-52629500D01*
X98380908Y-52629500D01*
X98264471Y-52629500D01*
X98202198Y-52536302D01*
X97005200Y-51339304D01*
X97005200Y-50199792D01*
X97005200Y-50050608D01*
X97005200Y-49786750D01*
X97005200Y-49549250D01*
X97005200Y-49285392D01*
X97005200Y-49136208D01*
X96948110Y-48998379D01*
X96842620Y-48892890D01*
X96704792Y-48835800D01*
X96291750Y-48835800D01*
X96198000Y-48929550D01*
X96198000Y-49643000D01*
X96911450Y-49643000D01*
X97005200Y-49549250D01*
X97005200Y-49786750D01*
X96911450Y-49693000D01*
X96198000Y-49693000D01*
X96198000Y-50406450D01*
X96291750Y-50500200D01*
X96704792Y-50500200D01*
X96842620Y-50443110D01*
X96948110Y-50337621D01*
X97005200Y-50199792D01*
X97005200Y-51339304D01*
X96331698Y-50665802D01*
X96185708Y-50568254D01*
X96148000Y-50560753D01*
X96148000Y-50406450D01*
X96148000Y-49693000D01*
X96148000Y-49643000D01*
X96148000Y-48929550D01*
X96054250Y-48835800D01*
X95641208Y-48835800D01*
X95503380Y-48892890D01*
X95397890Y-48998379D01*
X95340800Y-49136208D01*
X95340800Y-49285392D01*
X95340800Y-49549250D01*
X95434550Y-49643000D01*
X96148000Y-49643000D01*
X96148000Y-49693000D01*
X95434550Y-49693000D01*
X95340800Y-49786750D01*
X95340800Y-50050608D01*
X95340800Y-50199792D01*
X95397890Y-50337621D01*
X95503380Y-50443110D01*
X95641208Y-50500200D01*
X96054250Y-50500200D01*
X96148000Y-50406450D01*
X96148000Y-50560753D01*
X96013500Y-50534000D01*
X78503642Y-50534000D01*
X78503642Y-47421707D01*
X78379143Y-47120397D01*
X78148816Y-46889667D01*
X77847724Y-46764643D01*
X77521707Y-46764358D01*
X77220397Y-46888857D01*
X76989667Y-47119184D01*
X76864643Y-47420276D01*
X76864358Y-47746293D01*
X76988857Y-48047603D01*
X77219184Y-48278333D01*
X77520276Y-48403357D01*
X77846293Y-48403642D01*
X78147603Y-48279143D01*
X78378333Y-48048816D01*
X78503357Y-47747724D01*
X78503642Y-47421707D01*
X78503642Y-50534000D01*
X64573341Y-50534000D01*
X64539949Y-50500608D01*
X64539949Y-45652731D01*
X64473315Y-45317737D01*
X64283556Y-45033744D01*
X64059449Y-44884000D01*
X64283556Y-44734256D01*
X64473315Y-44450263D01*
X64539949Y-44115269D01*
X64473315Y-43780275D01*
X64283556Y-43496282D01*
X63898550Y-43111276D01*
X63614557Y-42921517D01*
X63279563Y-42854883D01*
X62944569Y-42921517D01*
X62660576Y-43111276D01*
X62470817Y-43395269D01*
X62404183Y-43730263D01*
X62470817Y-44065257D01*
X62660576Y-44349250D01*
X63045582Y-44734256D01*
X63269688Y-44884000D01*
X63045582Y-45033744D01*
X62660576Y-45418750D01*
X62470817Y-45702743D01*
X62404183Y-46037737D01*
X62470817Y-46372731D01*
X62660576Y-46656724D01*
X62944569Y-46846483D01*
X63279563Y-46913117D01*
X63614557Y-46846483D01*
X63898550Y-46656724D01*
X64283556Y-46271718D01*
X64473315Y-45987725D01*
X64539949Y-45652731D01*
X64539949Y-50500608D01*
X59414712Y-45375371D01*
X59647603Y-45279143D01*
X59878333Y-45048816D01*
X60003357Y-44747724D01*
X60003642Y-44421707D01*
X59879143Y-44120397D01*
X59648816Y-43889667D01*
X59634000Y-43883514D01*
X59634000Y-42688366D01*
X59599747Y-42516159D01*
X59599746Y-42516158D01*
X59502198Y-42370168D01*
X56059941Y-38927911D01*
X55913951Y-38830363D01*
X55741743Y-38796109D01*
X54489956Y-38796109D01*
X54513117Y-38740332D01*
X54513402Y-38414315D01*
X54388903Y-38113005D01*
X54333202Y-38057206D01*
X54388093Y-38002412D01*
X54513117Y-37701320D01*
X54513402Y-37375303D01*
X54388903Y-37073993D01*
X54158576Y-36843263D01*
X54143760Y-36837110D01*
X54143760Y-33273376D01*
X54109507Y-33101169D01*
X54109506Y-33101168D01*
X54011958Y-32955178D01*
X49197814Y-28141034D01*
X49347603Y-28079143D01*
X49578333Y-27848816D01*
X49584485Y-27834000D01*
X50850759Y-27834000D01*
X55866675Y-32849916D01*
X55861031Y-32863509D01*
X55860746Y-33189526D01*
X55985245Y-33490836D01*
X56215572Y-33721566D01*
X56516664Y-33846590D01*
X56574667Y-33846640D01*
X55116913Y-35304395D01*
X55019365Y-35450385D01*
X54985111Y-35622593D01*
X54985111Y-36447880D01*
X55019365Y-36620088D01*
X55072385Y-36699437D01*
X55060253Y-36728655D01*
X55059968Y-37054672D01*
X55184467Y-37355982D01*
X55414794Y-37586712D01*
X55715886Y-37711736D01*
X56041903Y-37712021D01*
X56343213Y-37587522D01*
X56564480Y-37366641D01*
X56564480Y-37633883D01*
X56550877Y-37639504D01*
X56320147Y-37869831D01*
X56195123Y-38170923D01*
X56194838Y-38496940D01*
X56319337Y-38798250D01*
X56549664Y-39028980D01*
X56850756Y-39154004D01*
X57176773Y-39154289D01*
X57334000Y-39089323D01*
X57334000Y-39309346D01*
X57368254Y-39481554D01*
X57465802Y-39627544D01*
X57740447Y-39902189D01*
X57886437Y-39999737D01*
X57886438Y-39999737D01*
X58058645Y-40033991D01*
X69047638Y-40033991D01*
X69219845Y-39999737D01*
X69219846Y-39999737D01*
X69365836Y-39902189D01*
X70076926Y-39191098D01*
X70112868Y-39278083D01*
X70343195Y-39508813D01*
X70644287Y-39633837D01*
X70970304Y-39634122D01*
X70985130Y-39627995D01*
X81343333Y-49986198D01*
X81489323Y-50083746D01*
X81489324Y-50083746D01*
X81661531Y-50118000D01*
X93562800Y-50118000D01*
X93562800Y-50199792D01*
X93619890Y-50337620D01*
X93725379Y-50443110D01*
X93863208Y-50500200D01*
X94012392Y-50500200D01*
X94926792Y-50500200D01*
X95064620Y-50443110D01*
X95170110Y-50337621D01*
X95227200Y-50199792D01*
X95227200Y-50050608D01*
X95227200Y-49136208D01*
X95170110Y-48998380D01*
X95064621Y-48892890D01*
X94926792Y-48835800D01*
X94777608Y-48835800D01*
X93863208Y-48835800D01*
X93725380Y-48892890D01*
X93619890Y-48998379D01*
X93562800Y-49136208D01*
X93562800Y-49218000D01*
X81847927Y-49218000D01*
X75663918Y-43033991D01*
X92017395Y-43033991D01*
X100569602Y-51586198D01*
X100662800Y-51648471D01*
X100662800Y-51799792D01*
X100719890Y-51937620D01*
X100825379Y-52043110D01*
X100963208Y-52100200D01*
X101112392Y-52100200D01*
X101345806Y-52100200D01*
G36*
X104723000Y-31008604D02*
X104227200Y-31504404D01*
X104227200Y-27431792D01*
X104227200Y-27282608D01*
X104227200Y-27018750D01*
X104133450Y-26925000D01*
X103420000Y-26925000D01*
X103420000Y-27638450D01*
X103513750Y-27732200D01*
X103926792Y-27732200D01*
X104064620Y-27675110D01*
X104170110Y-27569621D01*
X104227200Y-27431792D01*
X104227200Y-31504404D01*
X102634000Y-33097604D01*
X102634000Y-27583730D01*
X102725380Y-27675110D01*
X102863208Y-27732200D01*
X103276250Y-27732200D01*
X103370000Y-27638450D01*
X103370000Y-26925000D01*
X103350000Y-26925000D01*
X103350000Y-26875000D01*
X103370000Y-26875000D01*
X103370000Y-26161550D01*
X103276250Y-26067800D01*
X102863208Y-26067800D01*
X102725380Y-26124890D01*
X102634000Y-26216269D01*
X102634000Y-24038500D01*
X102830092Y-24038500D01*
X102967920Y-23981410D01*
X103050000Y-23899330D01*
X103050000Y-25403402D01*
X103084254Y-25575610D01*
X103181802Y-25721600D01*
X103466901Y-26006699D01*
X103558344Y-26067800D01*
X103513750Y-26067800D01*
X103420000Y-26161550D01*
X103420000Y-26875000D01*
X104133450Y-26875000D01*
X104227200Y-26781250D01*
X104227200Y-26517392D01*
X104227200Y-26368208D01*
X104170110Y-26230379D01*
X104078231Y-26138501D01*
X104489768Y-26138501D01*
X104397890Y-26230379D01*
X104340800Y-26368208D01*
X104340800Y-26517392D01*
X104340800Y-27431792D01*
X104397890Y-27569620D01*
X104503379Y-27675110D01*
X104641208Y-27732200D01*
X104723000Y-27732200D01*
X104723000Y-31008604D01*
X104723000Y-31008604D01*
G37*
X104723000Y-31008604D02*
X104227200Y-31504404D01*
X104227200Y-27431792D01*
X104227200Y-27282608D01*
X104227200Y-27018750D01*
X104133450Y-26925000D01*
X103420000Y-26925000D01*
X103420000Y-27638450D01*
X103513750Y-27732200D01*
X103926792Y-27732200D01*
X104064620Y-27675110D01*
X104170110Y-27569621D01*
X104227200Y-27431792D01*
X104227200Y-31504404D01*
X102634000Y-33097604D01*
X102634000Y-27583730D01*
X102725380Y-27675110D01*
X102863208Y-27732200D01*
X103276250Y-27732200D01*
X103370000Y-27638450D01*
X103370000Y-26925000D01*
X103350000Y-26925000D01*
X103350000Y-26875000D01*
X103370000Y-26875000D01*
X103370000Y-26161550D01*
X103276250Y-26067800D01*
X102863208Y-26067800D01*
X102725380Y-26124890D01*
X102634000Y-26216269D01*
X102634000Y-24038500D01*
X102830092Y-24038500D01*
X102967920Y-23981410D01*
X103050000Y-23899330D01*
X103050000Y-25403402D01*
X103084254Y-25575610D01*
X103181802Y-25721600D01*
X103466901Y-26006699D01*
X103558344Y-26067800D01*
X103513750Y-26067800D01*
X103420000Y-26161550D01*
X103420000Y-26875000D01*
X104133450Y-26875000D01*
X104227200Y-26781250D01*
X104227200Y-26517392D01*
X104227200Y-26368208D01*
X104170110Y-26230379D01*
X104078231Y-26138501D01*
X104489768Y-26138501D01*
X104397890Y-26230379D01*
X104340800Y-26368208D01*
X104340800Y-26517392D01*
X104340800Y-27431792D01*
X104397890Y-27569620D01*
X104503379Y-27675110D01*
X104641208Y-27732200D01*
X104723000Y-27732200D01*
X104723000Y-31008604D01*
G36*
X110015000Y-56953248D02*
X110005200Y-56963048D01*
X110005200Y-27331792D01*
X110005200Y-27182608D01*
X110005200Y-26268208D01*
X109948110Y-26130380D01*
X109842621Y-26024890D01*
X109704792Y-25967800D01*
X109555608Y-25967800D01*
X109553471Y-25967800D01*
X109491198Y-25874602D01*
X109056663Y-25440067D01*
X109059110Y-25437621D01*
X109116200Y-25299792D01*
X109116200Y-25150608D01*
X109116200Y-24236208D01*
X109059110Y-24098380D01*
X108953621Y-23992890D01*
X108815792Y-23935800D01*
X108734000Y-23935800D01*
X108734000Y-20033925D01*
X108747217Y-20028464D01*
X109067340Y-19708900D01*
X109240802Y-19291155D01*
X109241197Y-18838829D01*
X109068464Y-18420783D01*
X108748900Y-18100660D01*
X108331155Y-17927198D01*
X107878829Y-17926803D01*
X107460783Y-18099536D01*
X107140660Y-18419100D01*
X106967198Y-18836845D01*
X106966803Y-19289171D01*
X107139536Y-19707217D01*
X107459100Y-20027340D01*
X107834000Y-20183011D01*
X107834000Y-23935800D01*
X107752208Y-23935800D01*
X107614380Y-23992890D01*
X107508890Y-24098379D01*
X107451800Y-24236208D01*
X107451800Y-24385392D01*
X107451800Y-25238501D01*
X105371921Y-25238501D01*
X105450198Y-25186198D01*
X105882198Y-24754198D01*
X105979746Y-24608208D01*
X106014000Y-24436000D01*
X106014000Y-20108299D01*
X106207217Y-20028464D01*
X106527340Y-19708900D01*
X106700802Y-19291155D01*
X106701197Y-18838829D01*
X106528464Y-18420783D01*
X106208900Y-18100660D01*
X105791155Y-17927198D01*
X105338829Y-17926803D01*
X104920783Y-18099536D01*
X104600660Y-18419100D01*
X104427198Y-18836845D01*
X104426803Y-19289171D01*
X104599536Y-19707217D01*
X104919100Y-20027340D01*
X105114000Y-20108269D01*
X105114000Y-24249604D01*
X105090189Y-24273414D01*
X105059110Y-24198380D01*
X104953621Y-24092890D01*
X104815792Y-24035800D01*
X104666608Y-24035800D01*
X103950000Y-24035800D01*
X103950000Y-22764598D01*
X103915747Y-22592391D01*
X103915746Y-22592390D01*
X103818198Y-22446400D01*
X103418101Y-22046303D01*
X103272111Y-21948755D01*
X103130500Y-21920587D01*
X103130500Y-21429908D01*
X103073410Y-21292080D01*
X102967921Y-21186590D01*
X102830092Y-21129500D01*
X102680908Y-21129500D01*
X102634000Y-21129500D01*
X102634000Y-20133183D01*
X102796845Y-20200802D01*
X103249171Y-20201197D01*
X103667217Y-20028464D01*
X103987340Y-19708900D01*
X104160802Y-19291155D01*
X104161197Y-18838829D01*
X103988464Y-18420783D01*
X103668900Y-18100660D01*
X103251155Y-17927198D01*
X102798829Y-17926803D01*
X102380783Y-18099536D01*
X102060660Y-18419100D01*
X101887198Y-18836845D01*
X101886803Y-19289171D01*
X101967392Y-19484211D01*
X101865802Y-19585802D01*
X101768254Y-19731792D01*
X101734000Y-19904000D01*
X101734000Y-21129500D01*
X101537908Y-21129500D01*
X101400080Y-21186590D01*
X101333999Y-21252669D01*
X101267921Y-21186590D01*
X101130092Y-21129500D01*
X100980908Y-21129500D01*
X100934000Y-21129500D01*
X100934000Y-20108299D01*
X101127217Y-20028464D01*
X101447340Y-19708900D01*
X101620802Y-19291155D01*
X101621197Y-18838829D01*
X101448464Y-18420783D01*
X101128900Y-18100660D01*
X100711155Y-17927198D01*
X100258829Y-17926803D01*
X99840783Y-18099536D01*
X99520660Y-18419100D01*
X99347198Y-18836845D01*
X99346803Y-19289171D01*
X99519536Y-19707217D01*
X99839100Y-20027340D01*
X100034000Y-20108269D01*
X100034000Y-21129500D01*
X99837908Y-21129500D01*
X99700080Y-21186590D01*
X99594590Y-21292079D01*
X99537500Y-21429908D01*
X99537500Y-21579092D01*
X99537500Y-21914501D01*
X99081197Y-21914501D01*
X99081197Y-18838829D01*
X98908464Y-18420783D01*
X98588900Y-18100660D01*
X98171155Y-17927198D01*
X97718829Y-17926803D01*
X97300783Y-18099536D01*
X96980660Y-18419100D01*
X96807198Y-18836845D01*
X96806803Y-19289171D01*
X96979536Y-19707217D01*
X97299100Y-20027340D01*
X97716845Y-20200802D01*
X98169171Y-20201197D01*
X98587217Y-20028464D01*
X98907340Y-19708900D01*
X99080802Y-19291155D01*
X99081197Y-18838829D01*
X99081197Y-21914501D01*
X96330330Y-21914501D01*
X96330500Y-21914092D01*
X96330500Y-21764908D01*
X96330500Y-21129908D01*
X96273410Y-20992080D01*
X96167921Y-20886590D01*
X96030092Y-20829500D01*
X95880908Y-20829500D01*
X95834000Y-20829500D01*
X95834000Y-20116563D01*
X96047217Y-20028464D01*
X96367340Y-19708900D01*
X96540802Y-19291155D01*
X96541197Y-18838829D01*
X96368464Y-18420783D01*
X96048900Y-18100660D01*
X95631155Y-17927198D01*
X95178829Y-17926803D01*
X94760783Y-18099536D01*
X94440660Y-18419100D01*
X94267198Y-18836845D01*
X94266803Y-19289171D01*
X94439536Y-19707217D01*
X94759100Y-20027340D01*
X94934000Y-20099964D01*
X94934000Y-20829500D01*
X94737908Y-20829500D01*
X94600080Y-20886590D01*
X94494590Y-20992079D01*
X94437500Y-21129908D01*
X94437500Y-21279092D01*
X94437500Y-21914092D01*
X94483816Y-22025911D01*
X94453299Y-22046303D01*
X93634000Y-22865602D01*
X93634000Y-19901902D01*
X93827340Y-19708900D01*
X94000802Y-19291155D01*
X94001197Y-18838829D01*
X93828464Y-18420783D01*
X93508900Y-18100660D01*
X93091155Y-17927198D01*
X92638829Y-17926803D01*
X92220783Y-18099536D01*
X91900660Y-18419100D01*
X91727198Y-18836845D01*
X91726803Y-19289171D01*
X91899536Y-19707217D01*
X92219100Y-20027340D01*
X92636845Y-20200802D01*
X92734000Y-20200886D01*
X92734000Y-23435800D01*
X92652208Y-23435800D01*
X92514380Y-23492890D01*
X92408890Y-23598379D01*
X92351800Y-23736208D01*
X92351800Y-23885392D01*
X92351800Y-24533980D01*
X79893019Y-24533980D01*
X79978333Y-24448816D01*
X80103357Y-24147724D01*
X80103642Y-23821707D01*
X79979143Y-23520397D01*
X79748816Y-23289667D01*
X79447724Y-23164643D01*
X79121707Y-23164358D01*
X79106880Y-23170484D01*
X78040963Y-22104567D01*
X78055510Y-22090021D01*
X78112600Y-21952192D01*
X78112600Y-21803008D01*
X78112600Y-20075808D01*
X78055510Y-19937980D01*
X77950021Y-19832490D01*
X77812192Y-19775400D01*
X77663008Y-19775400D01*
X75935808Y-19775400D01*
X75860129Y-19806746D01*
X75838348Y-19697238D01*
X75838347Y-19697237D01*
X75740799Y-19551247D01*
X74824290Y-18634738D01*
X74829935Y-18621146D01*
X74830220Y-18295129D01*
X74705721Y-17993819D01*
X74475394Y-17763089D01*
X74174302Y-17638065D01*
X73848285Y-17637780D01*
X73546975Y-17762279D01*
X73337144Y-17971743D01*
X69201424Y-13836022D01*
X69038563Y-13727202D01*
X68846456Y-13688989D01*
X68846450Y-13688990D01*
X51734610Y-13688990D01*
X51542502Y-13727202D01*
X51379642Y-13836022D01*
X51122664Y-14093000D01*
X49655808Y-14093000D01*
X49517980Y-14150090D01*
X49412490Y-14255579D01*
X49355400Y-14393408D01*
X49355400Y-14542592D01*
X49355400Y-14882000D01*
X38741600Y-14882000D01*
X38549493Y-14920212D01*
X38386632Y-15029032D01*
X38386629Y-15029035D01*
X38057683Y-15357981D01*
X37594000Y-15265749D01*
X37120008Y-15360032D01*
X36718178Y-15628527D01*
X36449683Y-16030357D01*
X36355400Y-16504349D01*
X36355400Y-16863651D01*
X36449683Y-17337643D01*
X36718178Y-17739473D01*
X37120008Y-18007968D01*
X37594000Y-18102251D01*
X38067992Y-18007968D01*
X38469822Y-17739473D01*
X38738317Y-17337643D01*
X38832600Y-16863651D01*
X38832600Y-16504349D01*
X38749410Y-16086125D01*
X38949535Y-15886000D01*
X39086139Y-15886000D01*
X38989683Y-16030357D01*
X38895400Y-16504349D01*
X38895400Y-16863651D01*
X38989683Y-17337643D01*
X39258178Y-17739473D01*
X39660008Y-18007968D01*
X40134000Y-18102251D01*
X40607992Y-18007968D01*
X41009822Y-17739473D01*
X41278317Y-17337643D01*
X41372600Y-16863651D01*
X41372600Y-16504349D01*
X41278317Y-16030357D01*
X41181860Y-15886000D01*
X49355400Y-15886000D01*
X49355400Y-16574592D01*
X49412490Y-16712420D01*
X49517979Y-16817910D01*
X49655808Y-16875000D01*
X49804992Y-16875000D01*
X51532192Y-16875000D01*
X51670020Y-16817910D01*
X51775510Y-16712421D01*
X51832600Y-16574592D01*
X51832600Y-16425408D01*
X51832600Y-14802936D01*
X51942546Y-14692990D01*
X52081468Y-14692990D01*
X51989683Y-14830357D01*
X51895400Y-15304349D01*
X51895400Y-15663651D01*
X51989683Y-16137643D01*
X52258178Y-16539473D01*
X52660008Y-16807968D01*
X53134000Y-16902251D01*
X53607992Y-16807968D01*
X54009822Y-16539473D01*
X54278317Y-16137643D01*
X54372600Y-15663651D01*
X54372600Y-15304349D01*
X54278317Y-14830357D01*
X54186531Y-14692990D01*
X54621468Y-14692990D01*
X54529683Y-14830357D01*
X54435400Y-15304349D01*
X54435400Y-15663651D01*
X54529683Y-16137643D01*
X54798178Y-16539473D01*
X55200008Y-16807968D01*
X55674000Y-16902251D01*
X56147992Y-16807968D01*
X56549822Y-16539473D01*
X56818317Y-16137643D01*
X56912600Y-15663651D01*
X56912600Y-15304349D01*
X56818317Y-14830357D01*
X56726531Y-14692990D01*
X57161468Y-14692990D01*
X57069683Y-14830357D01*
X56975400Y-15304349D01*
X56975400Y-15663651D01*
X57069683Y-16137643D01*
X57338178Y-16539473D01*
X57740008Y-16807968D01*
X58214000Y-16902251D01*
X58687992Y-16807968D01*
X59089822Y-16539473D01*
X59358317Y-16137643D01*
X59452600Y-15663651D01*
X59452600Y-15304349D01*
X59358317Y-14830357D01*
X59266531Y-14692990D01*
X59701468Y-14692990D01*
X59609683Y-14830357D01*
X59515400Y-15304349D01*
X59515400Y-15663651D01*
X59609683Y-16137643D01*
X59878178Y-16539473D01*
X60280008Y-16807968D01*
X60754000Y-16902251D01*
X61227992Y-16807968D01*
X61629822Y-16539473D01*
X61898317Y-16137643D01*
X61992600Y-15663651D01*
X61992600Y-15304349D01*
X61898317Y-14830357D01*
X61806531Y-14692990D01*
X62241468Y-14692990D01*
X62149683Y-14830357D01*
X62055400Y-15304349D01*
X62055400Y-15663651D01*
X62149683Y-16137643D01*
X62418178Y-16539473D01*
X62820008Y-16807968D01*
X63294000Y-16902251D01*
X63767992Y-16807968D01*
X64169822Y-16539473D01*
X64438317Y-16137643D01*
X64532600Y-15663651D01*
X64532600Y-15304349D01*
X64438317Y-14830357D01*
X64346531Y-14692990D01*
X64781468Y-14692990D01*
X64689683Y-14830357D01*
X64595400Y-15304349D01*
X64595400Y-15663651D01*
X64689683Y-16137643D01*
X64958178Y-16539473D01*
X65360008Y-16807968D01*
X65834000Y-16902251D01*
X66307992Y-16807968D01*
X66709822Y-16539473D01*
X66978317Y-16137643D01*
X67072600Y-15663651D01*
X67072600Y-15304349D01*
X66978317Y-14830357D01*
X66886531Y-14692990D01*
X67337999Y-14692990D01*
X67239250Y-14834511D01*
X67135400Y-15306600D01*
X67135400Y-15459000D01*
X68349000Y-15459000D01*
X68349000Y-15439000D01*
X68399000Y-15439000D01*
X68399000Y-15459000D01*
X68419000Y-15459000D01*
X68419000Y-15509000D01*
X68399000Y-15509000D01*
X68399000Y-16780977D01*
X68592413Y-16855591D01*
X68824895Y-16790284D01*
X69232145Y-16529900D01*
X69508750Y-16133489D01*
X69611577Y-15666047D01*
X72737077Y-18791546D01*
X72737077Y-19919071D01*
X72737076Y-19919077D01*
X72775289Y-20111184D01*
X72884109Y-20274045D01*
X73162871Y-20552807D01*
X73071134Y-21014000D01*
X73165417Y-21487992D01*
X73433912Y-21889822D01*
X73835742Y-22158317D01*
X74309734Y-22252600D01*
X74358266Y-22252600D01*
X74832258Y-22158317D01*
X75087530Y-21987749D01*
X75104403Y-22013001D01*
X75512201Y-22420799D01*
X75658191Y-22518347D01*
X75830399Y-22552601D01*
X76161850Y-22552601D01*
X75973912Y-22678178D01*
X75705417Y-23080008D01*
X75611134Y-23554000D01*
X75705417Y-24027992D01*
X75973912Y-24429822D01*
X76129795Y-24533980D01*
X75078204Y-24533980D01*
X75234088Y-24429822D01*
X75502583Y-24027992D01*
X75596866Y-23554000D01*
X75502583Y-23080008D01*
X75234088Y-22678178D01*
X74832258Y-22409683D01*
X74358266Y-22315400D01*
X74309734Y-22315400D01*
X73835742Y-22409683D01*
X73433912Y-22678178D01*
X73165417Y-23080008D01*
X73071134Y-23554000D01*
X73165417Y-24027992D01*
X73433912Y-24429822D01*
X73589795Y-24533980D01*
X72538204Y-24533980D01*
X72694088Y-24429822D01*
X72962583Y-24027992D01*
X73056866Y-23554000D01*
X73056866Y-21014000D01*
X72962583Y-20540008D01*
X72694088Y-20138178D01*
X72292258Y-19869683D01*
X71818266Y-19775400D01*
X71769734Y-19775400D01*
X71295742Y-19869683D01*
X70893912Y-20138178D01*
X70625417Y-20540008D01*
X70531134Y-21014000D01*
X70625417Y-21487992D01*
X70893912Y-21889822D01*
X71295742Y-22158317D01*
X71769734Y-22252600D01*
X71818266Y-22252600D01*
X72292258Y-22158317D01*
X72694088Y-21889822D01*
X72962583Y-21487992D01*
X73056866Y-21014000D01*
X73056866Y-23554000D01*
X72962583Y-23080008D01*
X72694088Y-22678178D01*
X72292258Y-22409683D01*
X71818266Y-22315400D01*
X71769734Y-22315400D01*
X71295742Y-22409683D01*
X70893912Y-22678178D01*
X70625417Y-23080008D01*
X70531134Y-23554000D01*
X70625417Y-24027992D01*
X70893912Y-24429822D01*
X71049795Y-24533980D01*
X69998204Y-24533980D01*
X70154088Y-24429822D01*
X70422583Y-24027992D01*
X70516866Y-23554000D01*
X70516866Y-21014000D01*
X70422583Y-20540008D01*
X70154088Y-20138178D01*
X69752258Y-19869683D01*
X69278266Y-19775400D01*
X69229734Y-19775400D01*
X68755742Y-19869683D01*
X68353912Y-20138178D01*
X68349000Y-20145529D01*
X68349000Y-16780977D01*
X68349000Y-15509000D01*
X67135400Y-15509000D01*
X67135400Y-15661400D01*
X67239250Y-16133489D01*
X67515855Y-16529900D01*
X67923105Y-16790284D01*
X68155587Y-16855591D01*
X68349000Y-16780977D01*
X68349000Y-20145529D01*
X68085417Y-20540008D01*
X67991134Y-21014000D01*
X68085417Y-21487992D01*
X68353912Y-21889822D01*
X68755742Y-22158317D01*
X69229734Y-22252600D01*
X69278266Y-22252600D01*
X69752258Y-22158317D01*
X70154088Y-21889822D01*
X70422583Y-21487992D01*
X70516866Y-21014000D01*
X70516866Y-23554000D01*
X70422583Y-23080008D01*
X70154088Y-22678178D01*
X69752258Y-22409683D01*
X69278266Y-22315400D01*
X69229734Y-22315400D01*
X68755742Y-22409683D01*
X68353912Y-22678178D01*
X68085417Y-23080008D01*
X67991134Y-23554000D01*
X68085417Y-24027992D01*
X68353912Y-24429822D01*
X68510114Y-24534193D01*
X68338979Y-24568233D01*
X68192988Y-24665782D01*
X67976866Y-24881904D01*
X67976866Y-23554000D01*
X67882583Y-23080008D01*
X67614088Y-22678178D01*
X67212258Y-22409683D01*
X66738266Y-22315400D01*
X66689734Y-22315400D01*
X66215742Y-22409683D01*
X65813912Y-22678178D01*
X65712601Y-22829800D01*
X65712601Y-22651795D01*
X66209949Y-22154446D01*
X66215742Y-22158317D01*
X66689734Y-22252600D01*
X66738266Y-22252600D01*
X67212258Y-22158317D01*
X67614088Y-21889822D01*
X67882583Y-21487992D01*
X67976866Y-21014000D01*
X67882583Y-20540008D01*
X67614088Y-20138178D01*
X67212258Y-19869683D01*
X66738266Y-19775400D01*
X66689734Y-19775400D01*
X66215742Y-19869683D01*
X65813912Y-20138178D01*
X65545417Y-20540008D01*
X65451134Y-21014000D01*
X65545417Y-21487992D01*
X65568726Y-21522877D01*
X65436866Y-21654737D01*
X65436866Y-21014000D01*
X65342583Y-20540008D01*
X65074088Y-20138178D01*
X64672258Y-19869683D01*
X64198266Y-19775400D01*
X64149734Y-19775400D01*
X63675742Y-19869683D01*
X63273912Y-20138178D01*
X63005417Y-20540008D01*
X62911134Y-21014000D01*
X63005417Y-21487992D01*
X63273912Y-21889822D01*
X63675742Y-22158317D01*
X64149734Y-22252600D01*
X64198266Y-22252600D01*
X64672258Y-22158317D01*
X65074088Y-21889822D01*
X65342583Y-21487992D01*
X65436866Y-21014000D01*
X65436866Y-21654737D01*
X64944403Y-22147201D01*
X64846855Y-22293191D01*
X64812601Y-22465399D01*
X64812601Y-22503457D01*
X64672258Y-22409683D01*
X64198266Y-22315400D01*
X64149734Y-22315400D01*
X63675742Y-22409683D01*
X63273912Y-22678178D01*
X63005417Y-23080008D01*
X62911134Y-23554000D01*
X63005417Y-24027992D01*
X63273912Y-24429822D01*
X63675742Y-24698317D01*
X64149734Y-24792600D01*
X64198266Y-24792600D01*
X64672258Y-24698317D01*
X64812601Y-24604542D01*
X64812601Y-26065848D01*
X63032234Y-27846214D01*
X63018642Y-27840570D01*
X62896866Y-27840463D01*
X62896866Y-23554000D01*
X62853191Y-23334431D01*
X62853191Y-21232413D01*
X62853191Y-20795587D01*
X62843970Y-20749223D01*
X62650541Y-20306342D01*
X62302352Y-19971196D01*
X61852413Y-19794807D01*
X61659000Y-19869400D01*
X61659000Y-20989000D01*
X62778577Y-20989000D01*
X62853191Y-20795587D01*
X62853191Y-21232413D01*
X62778577Y-21039000D01*
X61659000Y-21039000D01*
X61659000Y-22158600D01*
X61852413Y-22233193D01*
X62302352Y-22056804D01*
X62650541Y-21721658D01*
X62843970Y-21278777D01*
X62853191Y-21232413D01*
X62853191Y-23334431D01*
X62802583Y-23080008D01*
X62534088Y-22678178D01*
X62132258Y-22409683D01*
X61658266Y-22315400D01*
X61609734Y-22315400D01*
X61609000Y-22315546D01*
X61609000Y-22158600D01*
X61609000Y-21039000D01*
X61609000Y-20989000D01*
X61609000Y-19869400D01*
X61415587Y-19794807D01*
X60965648Y-19971196D01*
X60617459Y-20306342D01*
X60424030Y-20749223D01*
X60414809Y-20795587D01*
X60489423Y-20989000D01*
X61609000Y-20989000D01*
X61609000Y-21039000D01*
X60489423Y-21039000D01*
X60414809Y-21232413D01*
X60424030Y-21278777D01*
X60617459Y-21721658D01*
X60965648Y-22056804D01*
X61415587Y-22233193D01*
X61609000Y-22158600D01*
X61609000Y-22315546D01*
X61135742Y-22409683D01*
X60733912Y-22678178D01*
X60465417Y-23080008D01*
X60371134Y-23554000D01*
X60465417Y-24027992D01*
X60733912Y-24429822D01*
X61135742Y-24698317D01*
X61609734Y-24792600D01*
X61658266Y-24792600D01*
X62132258Y-24698317D01*
X62534088Y-24429822D01*
X62802583Y-24027992D01*
X62896866Y-23554000D01*
X62896866Y-27840463D01*
X62692625Y-27840285D01*
X62391315Y-27964784D01*
X62160585Y-28195111D01*
X62035561Y-28496203D01*
X62035276Y-28822220D01*
X62159775Y-29123530D01*
X62390102Y-29354260D01*
X62691194Y-29479284D01*
X63017211Y-29479569D01*
X63318521Y-29355070D01*
X63549251Y-29124743D01*
X63674275Y-28823651D01*
X63674560Y-28497634D01*
X63668433Y-28482807D01*
X65580799Y-26570442D01*
X65678347Y-26424452D01*
X65712601Y-26252244D01*
X65712601Y-24278199D01*
X65813912Y-24429822D01*
X66215742Y-24698317D01*
X66689734Y-24792600D01*
X66738266Y-24792600D01*
X67212258Y-24698317D01*
X67614088Y-24429822D01*
X67882583Y-24027992D01*
X67976866Y-23554000D01*
X67976866Y-24881904D01*
X60356866Y-32501904D01*
X60356866Y-23554000D01*
X60313191Y-23334431D01*
X60313191Y-21232413D01*
X60313191Y-20795587D01*
X60303970Y-20749223D01*
X60110541Y-20306342D01*
X59762352Y-19971196D01*
X59312413Y-19794807D01*
X59119000Y-19869400D01*
X59119000Y-20989000D01*
X60238577Y-20989000D01*
X60313191Y-20795587D01*
X60313191Y-21232413D01*
X60238577Y-21039000D01*
X59119000Y-21039000D01*
X59119000Y-22158600D01*
X59312413Y-22233193D01*
X59762352Y-22056804D01*
X60110541Y-21721658D01*
X60303970Y-21278777D01*
X60313191Y-21232413D01*
X60313191Y-23334431D01*
X60262583Y-23080008D01*
X59994088Y-22678178D01*
X59592258Y-22409683D01*
X59118266Y-22315400D01*
X59069734Y-22315400D01*
X59069000Y-22315546D01*
X59069000Y-22158600D01*
X59069000Y-21039000D01*
X59069000Y-20989000D01*
X59069000Y-19869400D01*
X58875587Y-19794807D01*
X58425648Y-19971196D01*
X58077459Y-20306342D01*
X57884030Y-20749223D01*
X57874809Y-20795587D01*
X57949423Y-20989000D01*
X59069000Y-20989000D01*
X59069000Y-21039000D01*
X57949423Y-21039000D01*
X57874809Y-21232413D01*
X57884030Y-21278777D01*
X58077459Y-21721658D01*
X58425648Y-22056804D01*
X58875587Y-22233193D01*
X59069000Y-22158600D01*
X59069000Y-22315546D01*
X58595742Y-22409683D01*
X58193912Y-22678178D01*
X57925417Y-23080008D01*
X57831134Y-23554000D01*
X57925417Y-24027992D01*
X58193912Y-24429822D01*
X58595742Y-24698317D01*
X59069734Y-24792600D01*
X59118266Y-24792600D01*
X59592258Y-24698317D01*
X59994088Y-24429822D01*
X60262583Y-24027992D01*
X60356866Y-23554000D01*
X60356866Y-32501904D01*
X59329103Y-33529667D01*
X57337037Y-33529667D01*
X57374721Y-33492049D01*
X57499745Y-33190957D01*
X57500030Y-32864940D01*
X57375531Y-32563630D01*
X57145204Y-32332900D01*
X56844112Y-32207876D01*
X56518095Y-32207591D01*
X56503268Y-32213717D01*
X51714200Y-27424649D01*
X51714200Y-18506200D01*
X51714200Y-18353800D01*
X51714200Y-18303800D01*
X51714200Y-18151400D01*
X51610350Y-17679311D01*
X51333745Y-17282900D01*
X50926495Y-17022516D01*
X50694013Y-16957209D01*
X50500600Y-17031823D01*
X50500600Y-18303800D01*
X51714200Y-18303800D01*
X51714200Y-18353800D01*
X50500600Y-18353800D01*
X50500600Y-19625777D01*
X50694013Y-19700391D01*
X50926495Y-19635084D01*
X51333745Y-19374700D01*
X51610350Y-18978289D01*
X51714200Y-18506200D01*
X51714200Y-27424649D01*
X51355353Y-27065802D01*
X51209363Y-26968254D01*
X51037155Y-26934000D01*
X50450600Y-26934000D01*
X50450600Y-19625777D01*
X50450600Y-18353800D01*
X50450600Y-18303800D01*
X50450600Y-17031823D01*
X50257187Y-16957209D01*
X50024705Y-17022516D01*
X49617455Y-17282900D01*
X49340850Y-17679311D01*
X49237000Y-18151400D01*
X49237000Y-18303800D01*
X50450600Y-18303800D01*
X50450600Y-18353800D01*
X49237000Y-18353800D01*
X49237000Y-18506200D01*
X49340850Y-18978289D01*
X49617455Y-19374700D01*
X50024705Y-19635084D01*
X50257187Y-19700391D01*
X50450600Y-19625777D01*
X50450600Y-26934000D01*
X49584763Y-26934000D01*
X49579143Y-26920397D01*
X49348816Y-26689667D01*
X49174200Y-26617160D01*
X49174200Y-18508451D01*
X49174200Y-18149149D01*
X49079917Y-17675157D01*
X48811422Y-17273327D01*
X48409592Y-17004832D01*
X47935600Y-16910549D01*
X47461608Y-17004832D01*
X47059778Y-17273327D01*
X46791283Y-17675157D01*
X46697000Y-18149149D01*
X46697000Y-18508451D01*
X46791283Y-18982443D01*
X47059778Y-19384273D01*
X47461608Y-19652768D01*
X47935600Y-19747051D01*
X48409592Y-19652768D01*
X48811422Y-19384273D01*
X49079917Y-18982443D01*
X49174200Y-18508451D01*
X49174200Y-26617160D01*
X49047724Y-26564643D01*
X48721707Y-26564358D01*
X48420397Y-26688857D01*
X48189667Y-26919184D01*
X48126965Y-27070185D01*
X47134000Y-26077220D01*
X47134000Y-25784763D01*
X47147603Y-25779143D01*
X47378333Y-25548816D01*
X47503357Y-25247724D01*
X47503642Y-24921707D01*
X47379143Y-24620397D01*
X47148816Y-24389667D01*
X46847724Y-24264643D01*
X46634200Y-24264456D01*
X46634200Y-18508451D01*
X46634200Y-18149149D01*
X46539917Y-17675157D01*
X46271422Y-17273327D01*
X45869592Y-17004832D01*
X45395600Y-16910549D01*
X44921608Y-17004832D01*
X44519778Y-17273327D01*
X44251283Y-17675157D01*
X44157000Y-18149149D01*
X44157000Y-18508451D01*
X44251283Y-18982443D01*
X44519778Y-19384273D01*
X44921608Y-19652768D01*
X45395600Y-19747051D01*
X45869592Y-19652768D01*
X46271422Y-19384273D01*
X46539917Y-18982443D01*
X46634200Y-18508451D01*
X46634200Y-24264456D01*
X46521707Y-24264358D01*
X46220397Y-24388857D01*
X45989667Y-24619184D01*
X45864643Y-24920276D01*
X45864358Y-25246293D01*
X45988857Y-25547603D01*
X46219184Y-25778333D01*
X46234000Y-25784485D01*
X46234000Y-26239323D01*
X45678268Y-25683591D01*
X45683913Y-25669999D01*
X45684198Y-25343982D01*
X45559699Y-25042672D01*
X45329372Y-24811942D01*
X45028280Y-24686918D01*
X44702263Y-24686633D01*
X44400953Y-24811132D01*
X44170223Y-25041459D01*
X44094200Y-25224543D01*
X44094200Y-19419392D01*
X44094200Y-19270208D01*
X44094200Y-17238208D01*
X44037110Y-17100380D01*
X43931621Y-16994890D01*
X43793792Y-16937800D01*
X43644608Y-16937800D01*
X41917408Y-16937800D01*
X41779580Y-16994890D01*
X41674090Y-17100379D01*
X41617000Y-17238208D01*
X41617000Y-17387392D01*
X41617000Y-19419392D01*
X41674090Y-19557220D01*
X41779579Y-19662710D01*
X41917408Y-19719800D01*
X42066592Y-19719800D01*
X43793792Y-19719800D01*
X43931620Y-19662710D01*
X44037110Y-19557221D01*
X44094200Y-19419392D01*
X44094200Y-25224543D01*
X44045199Y-25342551D01*
X44044914Y-25668568D01*
X44169413Y-25969878D01*
X44399740Y-26200608D01*
X44700832Y-26325632D01*
X45026849Y-26325917D01*
X45041675Y-26319790D01*
X52922399Y-34200514D01*
X52922399Y-36607797D01*
X52819768Y-36504987D01*
X52518676Y-36379963D01*
X52192659Y-36379678D01*
X51891349Y-36504177D01*
X51660619Y-36734504D01*
X51535595Y-37035596D01*
X51535310Y-37361613D01*
X51659809Y-37662923D01*
X51890136Y-37893653D01*
X51904952Y-37899805D01*
X51904952Y-38228662D01*
X51939206Y-38400870D01*
X52036754Y-38546860D01*
X52772357Y-39282463D01*
X48605955Y-39282463D01*
X48433604Y-39110112D01*
X48433842Y-38838351D01*
X48309343Y-38537041D01*
X48079016Y-38306311D01*
X48021830Y-38282565D01*
X50930588Y-35373808D01*
X51023044Y-35373808D01*
X51028665Y-35387411D01*
X51258992Y-35618141D01*
X51560084Y-35743165D01*
X51886101Y-35743450D01*
X52187411Y-35618951D01*
X52418141Y-35388624D01*
X52543165Y-35087532D01*
X52543450Y-34761515D01*
X52418951Y-34460205D01*
X52188624Y-34229475D01*
X51887532Y-34104451D01*
X51561515Y-34104166D01*
X51260205Y-34228665D01*
X51029475Y-34458992D01*
X51023322Y-34473808D01*
X50744192Y-34473808D01*
X50571984Y-34508062D01*
X50425994Y-34605610D01*
X46565802Y-38465802D01*
X46468254Y-38611792D01*
X46434000Y-38784000D01*
X46434000Y-39684000D01*
X46468254Y-39856208D01*
X46565802Y-40002198D01*
X47065802Y-40502198D01*
X47211792Y-40599746D01*
X47211793Y-40599746D01*
X47384000Y-40634000D01*
X53897604Y-40634000D01*
X55934000Y-42670396D01*
X55934000Y-42797604D01*
X53697604Y-45034000D01*
X39484763Y-45034000D01*
X39479143Y-45020397D01*
X39248816Y-44789667D01*
X38947724Y-44664643D01*
X38621707Y-44664358D01*
X38320397Y-44788857D01*
X38089667Y-45019184D01*
X37964643Y-45320276D01*
X37964358Y-45646293D01*
X38088857Y-45947603D01*
X38319184Y-46178333D01*
X38620276Y-46303357D01*
X38946293Y-46303642D01*
X39247603Y-46179143D01*
X39478333Y-45948816D01*
X39484485Y-45934000D01*
X46821881Y-45934000D01*
X43333420Y-49422461D01*
X43333417Y-49422464D01*
X43239032Y-49516849D01*
X43239030Y-49516851D01*
X42457881Y-50298000D01*
X40839613Y-50298000D01*
X40647616Y-50105667D01*
X40346524Y-49980643D01*
X40020507Y-49980358D01*
X39719197Y-50104857D01*
X39488467Y-50335184D01*
X39363443Y-50636276D01*
X39363158Y-50962293D01*
X39487657Y-51263603D01*
X39717984Y-51494333D01*
X40019076Y-51619357D01*
X40345093Y-51619642D01*
X40646403Y-51495143D01*
X40839883Y-51302000D01*
X42665811Y-51302000D01*
X42665817Y-51302001D01*
X42665817Y-51302000D01*
X42857924Y-51263788D01*
X43020785Y-51154968D01*
X43948965Y-50226786D01*
X43948968Y-50226785D01*
X44043352Y-50132399D01*
X44043356Y-50132397D01*
X44043356Y-50132396D01*
X47837742Y-46338010D01*
X49448016Y-46338010D01*
X49448016Y-53975800D01*
X49333642Y-53975800D01*
X49333642Y-47716707D01*
X49209143Y-47415397D01*
X48978816Y-47184667D01*
X48677724Y-47059643D01*
X48351707Y-47059358D01*
X48050397Y-47183857D01*
X47819667Y-47414184D01*
X47694643Y-47715276D01*
X47694404Y-47988660D01*
X43505464Y-52177600D01*
X42058813Y-52177600D01*
X41866816Y-51985267D01*
X41565724Y-51860243D01*
X41239707Y-51859958D01*
X40938397Y-51984457D01*
X40707667Y-52214784D01*
X40582643Y-52515876D01*
X40582358Y-52841893D01*
X40706857Y-53143203D01*
X40937184Y-53373933D01*
X41238276Y-53498957D01*
X41564293Y-53499242D01*
X41865603Y-53374743D01*
X42059083Y-53181600D01*
X43713394Y-53181600D01*
X43713400Y-53181601D01*
X43713400Y-53181600D01*
X43905507Y-53143388D01*
X44068368Y-53034568D01*
X48404530Y-48698404D01*
X48676293Y-48698642D01*
X48977603Y-48574143D01*
X49208333Y-48343816D01*
X49333357Y-48042724D01*
X49333642Y-47716707D01*
X49333642Y-53975800D01*
X49073808Y-53975800D01*
X48935980Y-54032890D01*
X48830490Y-54138379D01*
X48773400Y-54276208D01*
X48773400Y-54425392D01*
X48773400Y-56457392D01*
X48830490Y-56595220D01*
X48935979Y-56700710D01*
X49073808Y-56757800D01*
X49222992Y-56757800D01*
X50950192Y-56757800D01*
X51088020Y-56700710D01*
X51193510Y-56595221D01*
X51250600Y-56457392D01*
X51250600Y-56308208D01*
X51250600Y-54276208D01*
X51193510Y-54138380D01*
X51088021Y-54032890D01*
X50950192Y-53975800D01*
X50801008Y-53975800D01*
X50489932Y-53975800D01*
X50475788Y-53904693D01*
X50452016Y-53869115D01*
X50452016Y-46338010D01*
X54029801Y-46338010D01*
X54029807Y-46338011D01*
X54029807Y-46338010D01*
X54221914Y-46299798D01*
X54384775Y-46190978D01*
X57090978Y-43484775D01*
X57199798Y-43321914D01*
X57238010Y-43129807D01*
X57238011Y-43129807D01*
X57238010Y-43129801D01*
X57238010Y-42338198D01*
X57238010Y-42338193D01*
X57238011Y-42338193D01*
X57199798Y-42146086D01*
X57090978Y-41983226D01*
X57090978Y-41983225D01*
X57090974Y-41983222D01*
X54803861Y-39696109D01*
X55555347Y-39696109D01*
X58734000Y-42874762D01*
X58734000Y-43543514D01*
X58605399Y-43414688D01*
X58304307Y-43289664D01*
X57978290Y-43289379D01*
X57676980Y-43413878D01*
X57446250Y-43644205D01*
X57321226Y-43945297D01*
X57320941Y-44271314D01*
X57445440Y-44572624D01*
X57675767Y-44803354D01*
X57706165Y-44815976D01*
X57724837Y-44909846D01*
X57822385Y-45055836D01*
X64068747Y-51302198D01*
X64214737Y-51399746D01*
X64214738Y-51399746D01*
X64386945Y-51434000D01*
X89973202Y-51434000D01*
X89794601Y-51612601D01*
X89697053Y-51758591D01*
X89662799Y-51930799D01*
X89662799Y-55873561D01*
X89697053Y-56045769D01*
X89794601Y-56191759D01*
X92072041Y-58469199D01*
X92218031Y-58566747D01*
X92218032Y-58566748D01*
X92390239Y-58601001D01*
X94416999Y-58601001D01*
X94589206Y-58566747D01*
X94589207Y-58566747D01*
X94735197Y-58469199D01*
X94960199Y-58244197D01*
X94983766Y-58220629D01*
X95176845Y-58300802D01*
X95629171Y-58301197D01*
X96047217Y-58128464D01*
X96367340Y-57808900D01*
X96540802Y-57391155D01*
X96541197Y-56938829D01*
X96368464Y-56520783D01*
X96048900Y-56200660D01*
X95631155Y-56027198D01*
X95178829Y-56026803D01*
X94760783Y-56199536D01*
X94440660Y-56519100D01*
X94267198Y-56936845D01*
X94266803Y-57389171D01*
X94347392Y-57584211D01*
X94323803Y-57607801D01*
X94230603Y-57701001D01*
X93872143Y-57701001D01*
X94000802Y-57391155D01*
X94001197Y-56938829D01*
X93828464Y-56520783D01*
X93508900Y-56200660D01*
X93091155Y-56027198D01*
X92638829Y-56026803D01*
X92443788Y-56107392D01*
X92134000Y-55797604D01*
X92134000Y-55432200D01*
X92215792Y-55432200D01*
X92353620Y-55375110D01*
X92459110Y-55269621D01*
X92516200Y-55131792D01*
X92516200Y-54982608D01*
X92516200Y-54314501D01*
X96996168Y-54314501D01*
X96994590Y-54316079D01*
X96937500Y-54453908D01*
X96937500Y-54603092D01*
X96937500Y-55238092D01*
X96994590Y-55375920D01*
X97100079Y-55481410D01*
X97237908Y-55538500D01*
X97387092Y-55538500D01*
X97434000Y-55538500D01*
X97434000Y-56144491D01*
X97300783Y-56199536D01*
X96980660Y-56519100D01*
X96807198Y-56936845D01*
X96806803Y-57389171D01*
X96979536Y-57807217D01*
X97299100Y-58127340D01*
X97716845Y-58300802D01*
X98169171Y-58301197D01*
X98587217Y-58128464D01*
X98907340Y-57808900D01*
X99080802Y-57391155D01*
X99081197Y-56938829D01*
X98908464Y-56520783D01*
X98588900Y-56200660D01*
X98334000Y-56094816D01*
X98334000Y-55538500D01*
X98530092Y-55538500D01*
X98667920Y-55481410D01*
X98773410Y-55375921D01*
X98830500Y-55238092D01*
X98830500Y-55088908D01*
X98830500Y-54453908D01*
X98773410Y-54316080D01*
X98771831Y-54314501D01*
X100217901Y-54314501D01*
X100390108Y-54280247D01*
X100390109Y-54280247D01*
X100536099Y-54182699D01*
X101551800Y-53166998D01*
X101551800Y-53831792D01*
X101608890Y-53969620D01*
X101714379Y-54075110D01*
X101852208Y-54132200D01*
X101934000Y-54132200D01*
X101934000Y-56524000D01*
X101968254Y-56696208D01*
X101979888Y-56713619D01*
X101979888Y-56713620D01*
X101887198Y-56936845D01*
X101886803Y-57389171D01*
X102059536Y-57807217D01*
X102379100Y-58127340D01*
X102796845Y-58300802D01*
X103249171Y-58301197D01*
X103667217Y-58128464D01*
X103987340Y-57808900D01*
X104160802Y-57391155D01*
X104161197Y-56938829D01*
X104105200Y-56803305D01*
X104105200Y-51799792D01*
X104105200Y-51650608D01*
X104105200Y-51386750D01*
X104105200Y-51149250D01*
X104105200Y-50885392D01*
X104105200Y-50736208D01*
X104048110Y-50598379D01*
X103942620Y-50492890D01*
X103804792Y-50435800D01*
X103391750Y-50435800D01*
X103298000Y-50529550D01*
X103298000Y-51243000D01*
X104011450Y-51243000D01*
X104105200Y-51149250D01*
X104105200Y-51386750D01*
X104011450Y-51293000D01*
X103298000Y-51293000D01*
X103298000Y-52006450D01*
X103391750Y-52100200D01*
X103804792Y-52100200D01*
X103942620Y-52043110D01*
X104048110Y-51937621D01*
X104105200Y-51799792D01*
X104105200Y-56803305D01*
X103988464Y-56520783D01*
X103668900Y-56200660D01*
X103251155Y-56027198D01*
X102834000Y-56026833D01*
X102834000Y-54132200D01*
X102915792Y-54132200D01*
X103053620Y-54075110D01*
X103159110Y-53969621D01*
X103216200Y-53831792D01*
X103216200Y-53682608D01*
X103216200Y-52768208D01*
X103159110Y-52630380D01*
X103053621Y-52524890D01*
X102915792Y-52467800D01*
X102766608Y-52467800D01*
X102250998Y-52467800D01*
X102495399Y-52223399D01*
X102592947Y-52077409D01*
X102592948Y-52077408D01*
X102600368Y-52040099D01*
X102603380Y-52043110D01*
X102741208Y-52100200D01*
X103154250Y-52100200D01*
X103248000Y-52006450D01*
X103248000Y-51293000D01*
X103228000Y-51293000D01*
X103228000Y-51243000D01*
X103248000Y-51243000D01*
X103248000Y-50529550D01*
X103154250Y-50435800D01*
X102741208Y-50435800D01*
X102603380Y-50492890D01*
X102600368Y-50495901D01*
X102592947Y-50458591D01*
X102495399Y-50312601D01*
X94148581Y-41965783D01*
X94002591Y-41868235D01*
X93830383Y-41833981D01*
X86298960Y-41833981D01*
X86298960Y-37453524D01*
X86168272Y-37127460D01*
X86156771Y-37110247D01*
X86001720Y-37066636D01*
X85449355Y-37619000D01*
X86001720Y-38171364D01*
X86156771Y-38127753D01*
X86294922Y-37804780D01*
X86298960Y-37453524D01*
X86298960Y-41833981D01*
X86201934Y-41833981D01*
X86296846Y-41605410D01*
X86297153Y-41254131D01*
X86163007Y-40929474D01*
X86027750Y-40793981D01*
X86162134Y-40659832D01*
X86296846Y-40335410D01*
X86297153Y-39984131D01*
X86163007Y-39659474D01*
X86027750Y-39523981D01*
X86162134Y-39389832D01*
X86296846Y-39065410D01*
X86297153Y-38714131D01*
X86163007Y-38389474D01*
X85914832Y-38140866D01*
X85890340Y-38130696D01*
X85414000Y-37654355D01*
X85378645Y-37689710D01*
X85378645Y-37619000D01*
X84826280Y-37066636D01*
X84671229Y-37110247D01*
X84533078Y-37433220D01*
X84529040Y-37784476D01*
X84659728Y-38110540D01*
X84671229Y-38127753D01*
X84826280Y-38171364D01*
X85378645Y-37619000D01*
X85378645Y-37689710D01*
X84938142Y-38130213D01*
X84914474Y-38139993D01*
X84665866Y-38388168D01*
X84531154Y-38712590D01*
X84530847Y-39063869D01*
X84664993Y-39388526D01*
X84800249Y-39524018D01*
X84665866Y-39658168D01*
X84531154Y-39982590D01*
X84530847Y-40333869D01*
X84664993Y-40658526D01*
X84800249Y-40794018D01*
X84665866Y-40928168D01*
X84531154Y-41252590D01*
X84530847Y-41603869D01*
X84625927Y-41833981D01*
X75879047Y-41833981D01*
X73840432Y-39795365D01*
X73960718Y-39745664D01*
X74191448Y-39515337D01*
X74316472Y-39214245D01*
X74316757Y-38888228D01*
X74192258Y-38586918D01*
X73961931Y-38356188D01*
X73660839Y-38231164D01*
X73334822Y-38230879D01*
X73319995Y-38237005D01*
X72309752Y-37226762D01*
X72163762Y-37129214D01*
X71991554Y-37094960D01*
X70238113Y-37094960D01*
X70065905Y-37129214D01*
X69919915Y-37226762D01*
X68996906Y-38149771D01*
X59847378Y-38149771D01*
X59841758Y-38136168D01*
X59611431Y-37905438D01*
X59310339Y-37780414D01*
X58984322Y-37780129D01*
X58803501Y-37854842D01*
X58803501Y-37537244D01*
X59071548Y-37269197D01*
X59169096Y-37123207D01*
X59169096Y-37123206D01*
X59187714Y-37029606D01*
X59216953Y-37017525D01*
X59447683Y-36787198D01*
X59572707Y-36486106D01*
X59572992Y-36160089D01*
X59448493Y-35858779D01*
X59289180Y-35699188D01*
X59518812Y-35699188D01*
X59691019Y-35664934D01*
X59691020Y-35664934D01*
X59837010Y-35567386D01*
X63148397Y-32255999D01*
X84531000Y-32255999D01*
X84531000Y-33121592D01*
X84588090Y-33259420D01*
X84657348Y-33328679D01*
X84531154Y-33632590D01*
X84530847Y-33983869D01*
X84664993Y-34308526D01*
X84800249Y-34444018D01*
X84665866Y-34578168D01*
X84531154Y-34902590D01*
X84530847Y-35253869D01*
X84664993Y-35578526D01*
X84800249Y-35714018D01*
X84665866Y-35848168D01*
X84531154Y-36172590D01*
X84530847Y-36523869D01*
X84664993Y-36848526D01*
X84913168Y-37097134D01*
X84937659Y-37107303D01*
X85414000Y-37583645D01*
X85889857Y-37107786D01*
X85913526Y-37098007D01*
X86162134Y-36849832D01*
X86296846Y-36525410D01*
X86297153Y-36174131D01*
X86163007Y-35849474D01*
X86027750Y-35713981D01*
X86162134Y-35579832D01*
X86296846Y-35255410D01*
X86297153Y-34904131D01*
X86163007Y-34579474D01*
X86027750Y-34443981D01*
X86162134Y-34309832D01*
X86296846Y-33985410D01*
X86297153Y-33634131D01*
X86170857Y-33328473D01*
X86239910Y-33259421D01*
X86297000Y-33121592D01*
X86297000Y-32972408D01*
X86297000Y-32255999D01*
X89828740Y-32255999D01*
X96006530Y-38433788D01*
X96152520Y-38531336D01*
X96152521Y-38531336D01*
X96324728Y-38565590D01*
X97420056Y-38565590D01*
X106645000Y-47790534D01*
X106645000Y-48835800D01*
X106563208Y-48835800D01*
X106425380Y-48892890D01*
X106319890Y-48998379D01*
X106262800Y-49136208D01*
X106262800Y-49285392D01*
X106262800Y-50199792D01*
X106319890Y-50337620D01*
X106425379Y-50443110D01*
X106563208Y-50500200D01*
X106712392Y-50500200D01*
X107626792Y-50500200D01*
X107764620Y-50443110D01*
X107870110Y-50337621D01*
X107927200Y-50199792D01*
X107927200Y-50050608D01*
X107927200Y-49136208D01*
X107870110Y-48998380D01*
X107764621Y-48892890D01*
X107626792Y-48835800D01*
X107545000Y-48835800D01*
X107545000Y-47604138D01*
X107510746Y-47431930D01*
X107413198Y-47285940D01*
X107370000Y-47242742D01*
X107370000Y-27538450D01*
X107370000Y-26825000D01*
X106656550Y-26825000D01*
X106562800Y-26918750D01*
X106562800Y-27182608D01*
X106562800Y-27331792D01*
X106619890Y-27469621D01*
X106725380Y-27575110D01*
X106863208Y-27632200D01*
X107276250Y-27632200D01*
X107370000Y-27538450D01*
X107370000Y-47242742D01*
X98776924Y-38649666D01*
X98947603Y-38579143D01*
X99178333Y-38348816D01*
X99303357Y-38047724D01*
X99303642Y-37721707D01*
X99297515Y-37706880D01*
X105491198Y-31513198D01*
X105588746Y-31367208D01*
X105588747Y-31367207D01*
X105623000Y-31195000D01*
X105623000Y-31148685D01*
X105623000Y-27732200D01*
X105704792Y-27732200D01*
X105842620Y-27675110D01*
X105948110Y-27569621D01*
X106005200Y-27431792D01*
X106005200Y-27282608D01*
X106005200Y-26368208D01*
X105948110Y-26230380D01*
X105856231Y-26138501D01*
X106616525Y-26138501D01*
X106562800Y-26268208D01*
X106562800Y-26417392D01*
X106562800Y-26681250D01*
X106656550Y-26775000D01*
X107370000Y-26775000D01*
X107370000Y-26755000D01*
X107420000Y-26755000D01*
X107420000Y-26775000D01*
X108133450Y-26775000D01*
X108227200Y-26681250D01*
X108227200Y-26417392D01*
X108227200Y-26268208D01*
X108173474Y-26138501D01*
X108394525Y-26138501D01*
X108340800Y-26268208D01*
X108340800Y-26417392D01*
X108340800Y-27331792D01*
X108397890Y-27469620D01*
X108503379Y-27575110D01*
X108641208Y-27632200D01*
X108790392Y-27632200D01*
X109704792Y-27632200D01*
X109842620Y-27575110D01*
X109948110Y-27469621D01*
X110005200Y-27331792D01*
X110005200Y-56963048D01*
X109705200Y-57263048D01*
X109705200Y-50199792D01*
X109705200Y-50050608D01*
X109705200Y-49786750D01*
X109705200Y-49549250D01*
X109705200Y-49285392D01*
X109705200Y-49136208D01*
X109648110Y-48998379D01*
X109542620Y-48892890D01*
X109404792Y-48835800D01*
X108991750Y-48835800D01*
X108898000Y-48929550D01*
X108898000Y-49643000D01*
X109611450Y-49643000D01*
X109705200Y-49549250D01*
X109705200Y-49786750D01*
X109611450Y-49693000D01*
X108898000Y-49693000D01*
X108898000Y-50406450D01*
X108991750Y-50500200D01*
X109404792Y-50500200D01*
X109542620Y-50443110D01*
X109648110Y-50337621D01*
X109705200Y-50199792D01*
X109705200Y-57263048D01*
X109241197Y-57727051D01*
X109241197Y-56938829D01*
X109068464Y-56520783D01*
X108848000Y-56299933D01*
X108848000Y-50406450D01*
X108848000Y-49693000D01*
X108848000Y-49643000D01*
X108848000Y-48929550D01*
X108754250Y-48835800D01*
X108341208Y-48835800D01*
X108227200Y-48883023D01*
X108227200Y-27331792D01*
X108227200Y-27182608D01*
X108227200Y-26918750D01*
X108133450Y-26825000D01*
X107420000Y-26825000D01*
X107420000Y-27538450D01*
X107513750Y-27632200D01*
X107926792Y-27632200D01*
X108064620Y-27575110D01*
X108170110Y-27469621D01*
X108227200Y-27331792D01*
X108227200Y-48883023D01*
X108203380Y-48892890D01*
X108097890Y-48998379D01*
X108040800Y-49136208D01*
X108040800Y-49285392D01*
X108040800Y-49549250D01*
X108134550Y-49643000D01*
X108848000Y-49643000D01*
X108848000Y-49693000D01*
X108134550Y-49693000D01*
X108040800Y-49786750D01*
X108040800Y-50050608D01*
X108040800Y-50199792D01*
X108097890Y-50337621D01*
X108203380Y-50443110D01*
X108341208Y-50500200D01*
X108754250Y-50500200D01*
X108848000Y-50406450D01*
X108848000Y-56299933D01*
X108748900Y-56200660D01*
X108434000Y-56069902D01*
X108434000Y-52532200D01*
X108515792Y-52532200D01*
X108653620Y-52475110D01*
X108759110Y-52369621D01*
X108816200Y-52231792D01*
X108816200Y-52082608D01*
X108816200Y-51168208D01*
X108759110Y-51030380D01*
X108653621Y-50924890D01*
X108515792Y-50867800D01*
X108366608Y-50867800D01*
X107452208Y-50867800D01*
X107314380Y-50924890D01*
X107208890Y-51030379D01*
X107151800Y-51168208D01*
X107151800Y-51317392D01*
X107151800Y-52231792D01*
X107208890Y-52369620D01*
X107314379Y-52475110D01*
X107452208Y-52532200D01*
X107534000Y-52532200D01*
X107534000Y-56169283D01*
X107460783Y-56199536D01*
X107140660Y-56519100D01*
X106967198Y-56936845D01*
X106966803Y-57389171D01*
X107139536Y-57807217D01*
X107459100Y-58127340D01*
X107876845Y-58300802D01*
X108329171Y-58301197D01*
X108747217Y-58128464D01*
X109067340Y-57808900D01*
X109240802Y-57391155D01*
X109241197Y-56938829D01*
X109241197Y-57727051D01*
X106701197Y-60267051D01*
X106701197Y-56938829D01*
X106528464Y-56520783D01*
X106208900Y-56200660D01*
X106034000Y-56128035D01*
X106034000Y-55538500D01*
X106230092Y-55538500D01*
X106367920Y-55481410D01*
X106473410Y-55375921D01*
X106530500Y-55238092D01*
X106530500Y-55088908D01*
X106530500Y-54453908D01*
X106530500Y-53714092D01*
X106530500Y-53564908D01*
X106530500Y-52929908D01*
X106473410Y-52792080D01*
X106367921Y-52686590D01*
X106230092Y-52629500D01*
X106080908Y-52629500D01*
X106034000Y-52629500D01*
X106034000Y-49455383D01*
X105999746Y-49283176D01*
X105999746Y-49283175D01*
X105902198Y-49137185D01*
X96407393Y-39642380D01*
X96261403Y-39544832D01*
X96167802Y-39526213D01*
X96155721Y-39496975D01*
X95925394Y-39266245D01*
X95624302Y-39141221D01*
X95298285Y-39140936D01*
X94996975Y-39265435D01*
X94766245Y-39495762D01*
X94641221Y-39796854D01*
X94640936Y-40122871D01*
X94765435Y-40424181D01*
X94995762Y-40654911D01*
X95296854Y-40779935D01*
X95622871Y-40780220D01*
X95924181Y-40655721D01*
X96036159Y-40543938D01*
X105134000Y-49641779D01*
X105134000Y-52629500D01*
X104937908Y-52629500D01*
X104800080Y-52686590D01*
X104694590Y-52792079D01*
X104637500Y-52929908D01*
X104637500Y-53079092D01*
X104637500Y-53714092D01*
X104694590Y-53851920D01*
X104800079Y-53957410D01*
X104937908Y-54014500D01*
X105087092Y-54014500D01*
X106230092Y-54014500D01*
X106367920Y-53957410D01*
X106473410Y-53851921D01*
X106530500Y-53714092D01*
X106530500Y-54453908D01*
X106473410Y-54316080D01*
X106367921Y-54210590D01*
X106230092Y-54153500D01*
X106080908Y-54153500D01*
X104937908Y-54153500D01*
X104800080Y-54210590D01*
X104694590Y-54316079D01*
X104637500Y-54453908D01*
X104637500Y-54603092D01*
X104637500Y-55238092D01*
X104694590Y-55375920D01*
X104800079Y-55481410D01*
X104937908Y-55538500D01*
X105087092Y-55538500D01*
X105134000Y-55538500D01*
X105134000Y-56111436D01*
X104920783Y-56199536D01*
X104600660Y-56519100D01*
X104427198Y-56936845D01*
X104426803Y-57389171D01*
X104599536Y-57807217D01*
X104919100Y-58127340D01*
X105336845Y-58300802D01*
X105789171Y-58301197D01*
X106207217Y-58128464D01*
X106527340Y-57808900D01*
X106700802Y-57391155D01*
X106701197Y-56938829D01*
X106701197Y-60267051D01*
X106483248Y-60485000D01*
X101621197Y-60485000D01*
X101621197Y-56938829D01*
X101448464Y-56520783D01*
X101128900Y-56200660D01*
X100711155Y-56027198D01*
X100258829Y-56026803D01*
X99840783Y-56199536D01*
X99520660Y-56519100D01*
X99347198Y-56936845D01*
X99346803Y-57389171D01*
X99519536Y-57807217D01*
X99839100Y-58127340D01*
X100256845Y-58300802D01*
X100709171Y-58301197D01*
X101127217Y-58128464D01*
X101447340Y-57808900D01*
X101620802Y-57391155D01*
X101621197Y-56938829D01*
X101621197Y-60485000D01*
X74267410Y-60485000D01*
X74267410Y-55743738D01*
X74083101Y-55297675D01*
X73742120Y-54956099D01*
X73296379Y-54771011D01*
X72813738Y-54770590D01*
X72367675Y-54954899D01*
X72026099Y-55295880D01*
X71841011Y-55741621D01*
X71840590Y-56224262D01*
X72024899Y-56670325D01*
X72365880Y-57011901D01*
X72811621Y-57196989D01*
X73294262Y-57197410D01*
X73740325Y-57013101D01*
X74081901Y-56672120D01*
X74266989Y-56226379D01*
X74267410Y-55743738D01*
X74267410Y-60485000D01*
X71727410Y-60485000D01*
X71727410Y-55743738D01*
X71543101Y-55297675D01*
X71202120Y-54956099D01*
X70756379Y-54771011D01*
X70273738Y-54770590D01*
X69827675Y-54954899D01*
X69486099Y-55295880D01*
X69301011Y-55741621D01*
X69300590Y-56224262D01*
X69484899Y-56670325D01*
X69825880Y-57011901D01*
X70271621Y-57196989D01*
X70754262Y-57197410D01*
X71200325Y-57013101D01*
X71541901Y-56672120D01*
X71726989Y-56226379D01*
X71727410Y-55743738D01*
X71727410Y-60485000D01*
X48710600Y-60485000D01*
X48710600Y-55546451D01*
X48710600Y-55187149D01*
X48616317Y-54713157D01*
X48347822Y-54311327D01*
X47945992Y-54042832D01*
X47472000Y-53948549D01*
X46998008Y-54042832D01*
X46596178Y-54311327D01*
X46327683Y-54713157D01*
X46233400Y-55187149D01*
X46233400Y-55546451D01*
X46327683Y-56020443D01*
X46596178Y-56422273D01*
X46998008Y-56690768D01*
X47472000Y-56785051D01*
X47945992Y-56690768D01*
X48347822Y-56422273D01*
X48616317Y-56020443D01*
X48710600Y-55546451D01*
X48710600Y-60485000D01*
X46170600Y-60485000D01*
X46170600Y-55546451D01*
X46170600Y-55187149D01*
X46076317Y-54713157D01*
X45807822Y-54311327D01*
X45405992Y-54042832D01*
X44932000Y-53948549D01*
X44458008Y-54042832D01*
X44056178Y-54311327D01*
X43787683Y-54713157D01*
X43693400Y-55187149D01*
X43693400Y-55546451D01*
X43787683Y-56020443D01*
X44056178Y-56422273D01*
X44458008Y-56690768D01*
X44932000Y-56785051D01*
X45405992Y-56690768D01*
X45807822Y-56422273D01*
X46076317Y-56020443D01*
X46170600Y-55546451D01*
X46170600Y-60485000D01*
X43630600Y-60485000D01*
X43630600Y-55544200D01*
X43630600Y-55391800D01*
X43630600Y-55341800D01*
X43630600Y-55189400D01*
X43526750Y-54717311D01*
X43250145Y-54320900D01*
X42842895Y-54060516D01*
X42610413Y-53995209D01*
X42417000Y-54069823D01*
X42417000Y-55341800D01*
X43630600Y-55341800D01*
X43630600Y-55391800D01*
X42417000Y-55391800D01*
X42417000Y-56663777D01*
X42610413Y-56738391D01*
X42842895Y-56673084D01*
X43250145Y-56412700D01*
X43526750Y-56016289D01*
X43630600Y-55544200D01*
X43630600Y-60485000D01*
X42367000Y-60485000D01*
X42367000Y-56663777D01*
X42367000Y-55391800D01*
X42367000Y-55341800D01*
X42367000Y-54069823D01*
X42173587Y-53995209D01*
X41941105Y-54060516D01*
X41533855Y-54320900D01*
X41257250Y-54717311D01*
X41153400Y-55189400D01*
X41153400Y-55341800D01*
X42367000Y-55341800D01*
X42367000Y-55391800D01*
X41153400Y-55391800D01*
X41153400Y-55544200D01*
X41257250Y-56016289D01*
X41533855Y-56412700D01*
X41941105Y-56673084D01*
X42173587Y-56738391D01*
X42367000Y-56663777D01*
X42367000Y-60485000D01*
X29359622Y-60485000D01*
X29359622Y-43220341D01*
X29359622Y-38821061D01*
X29234352Y-38517883D01*
X29002597Y-38285723D01*
X28699639Y-38159924D01*
X28371601Y-38159638D01*
X28068423Y-38284908D01*
X27836263Y-38516663D01*
X27710464Y-38819621D01*
X27710178Y-39147659D01*
X27835448Y-39450837D01*
X28067203Y-39682997D01*
X28370161Y-39808796D01*
X28698199Y-39809082D01*
X29001377Y-39683812D01*
X29233537Y-39452057D01*
X29359336Y-39149099D01*
X29359622Y-38821061D01*
X29359622Y-43220341D01*
X29234352Y-42917163D01*
X29002597Y-42685003D01*
X28699639Y-42559204D01*
X28371601Y-42558918D01*
X28068423Y-42684188D01*
X27836263Y-42915943D01*
X27710464Y-43218901D01*
X27710178Y-43546939D01*
X27835448Y-43850117D01*
X28067203Y-44082277D01*
X28370161Y-44208076D01*
X28698199Y-44208362D01*
X29001377Y-44083092D01*
X29233537Y-43851337D01*
X29359336Y-43548379D01*
X29359622Y-43220341D01*
X29359622Y-60485000D01*
X28136751Y-60485000D01*
X26972829Y-59321077D01*
X26972829Y-33356460D01*
X26915738Y-33218631D01*
X26810249Y-33113142D01*
X26453048Y-32755942D01*
X26320466Y-32755942D01*
X26285110Y-32791297D01*
X26285110Y-32720586D01*
X26285110Y-32588004D01*
X25927910Y-32230803D01*
X25822421Y-32125314D01*
X25684592Y-32068223D01*
X25535407Y-32068224D01*
X25397579Y-32125314D01*
X24934890Y-32588004D01*
X24934890Y-32720586D01*
X25610000Y-33395697D01*
X26285110Y-32720586D01*
X26285110Y-32791297D01*
X25645355Y-33431052D01*
X26320466Y-34106162D01*
X26453048Y-34106162D01*
X26915738Y-33643473D01*
X26972828Y-33505645D01*
X26972829Y-33356460D01*
X26972829Y-59321077D01*
X26285110Y-58633358D01*
X26285110Y-34274100D01*
X26285110Y-34141518D01*
X25610000Y-33466407D01*
X24934890Y-34141518D01*
X24934890Y-34274100D01*
X25292090Y-34631301D01*
X25397579Y-34736790D01*
X25535408Y-34793881D01*
X25684593Y-34793880D01*
X25822421Y-34736790D01*
X26285110Y-34274100D01*
X26285110Y-58633358D01*
X24605000Y-56953248D01*
X24605000Y-33944210D01*
X24766952Y-34106162D01*
X24899534Y-34106162D01*
X25574645Y-33431052D01*
X24899534Y-32755942D01*
X24766952Y-32755942D01*
X24605000Y-32917893D01*
X24605000Y-30217778D01*
X24699400Y-30446244D01*
X25001117Y-30748488D01*
X25395531Y-30912263D01*
X25822596Y-30912636D01*
X26217294Y-30749550D01*
X26519538Y-30447833D01*
X26683313Y-30053419D01*
X26683686Y-29626354D01*
X26520600Y-29231656D01*
X26218883Y-28929412D01*
X26112000Y-28885030D01*
X26112000Y-28310000D01*
X26073788Y-28117893D01*
X26073788Y-28117892D01*
X26030200Y-28052659D01*
X25964968Y-27955032D01*
X25964964Y-27955029D01*
X25712000Y-27702064D01*
X25712000Y-21703535D01*
X26056184Y-21359351D01*
X25965749Y-21814000D01*
X26060032Y-22287992D01*
X26328527Y-22689822D01*
X26730357Y-22958317D01*
X27204349Y-23052600D01*
X27563651Y-23052600D01*
X28037643Y-22958317D01*
X28279791Y-22796518D01*
X28286254Y-22829008D01*
X28383802Y-22974998D01*
X29312803Y-23904000D01*
X28712740Y-23904000D01*
X28707968Y-23880008D01*
X28439473Y-23478178D01*
X28037643Y-23209683D01*
X27563651Y-23115400D01*
X27204349Y-23115400D01*
X26730357Y-23209683D01*
X26328527Y-23478178D01*
X26060032Y-23880008D01*
X25965749Y-24354000D01*
X26060032Y-24827992D01*
X26328527Y-25229822D01*
X26730357Y-25498317D01*
X27204349Y-25592600D01*
X27563651Y-25592600D01*
X28037643Y-25498317D01*
X28439473Y-25229822D01*
X28707968Y-24827992D01*
X28712740Y-24804000D01*
X29247604Y-24804000D01*
X34930106Y-30486502D01*
X28755591Y-30486502D01*
X28755591Y-27112413D01*
X28755591Y-26675587D01*
X28690284Y-26443105D01*
X28429900Y-26035855D01*
X28033489Y-25759250D01*
X27561400Y-25655400D01*
X27409000Y-25655400D01*
X27409000Y-26869000D01*
X28680977Y-26869000D01*
X28755591Y-26675587D01*
X28755591Y-27112413D01*
X28680977Y-26919000D01*
X27409000Y-26919000D01*
X27409000Y-28132600D01*
X27561400Y-28132600D01*
X28033489Y-28028750D01*
X28429900Y-27752145D01*
X28690284Y-27344895D01*
X28755591Y-27112413D01*
X28755591Y-30486502D01*
X28104550Y-30486502D01*
X27932342Y-30520756D01*
X27786352Y-30618304D01*
X27777700Y-30626955D01*
X27620520Y-30561688D01*
X27359000Y-30561459D01*
X27359000Y-28132600D01*
X27359000Y-26919000D01*
X27359000Y-26869000D01*
X27359000Y-25655400D01*
X27206600Y-25655400D01*
X26734511Y-25759250D01*
X26338100Y-26035855D01*
X26077716Y-26443105D01*
X26012409Y-26675587D01*
X26087023Y-26869000D01*
X27359000Y-26869000D01*
X27359000Y-26919000D01*
X26087023Y-26919000D01*
X26012409Y-27112413D01*
X26077716Y-27344895D01*
X26338100Y-27752145D01*
X26734511Y-28028750D01*
X27206600Y-28132600D01*
X27359000Y-28132600D01*
X27359000Y-30561459D01*
X27193455Y-30561315D01*
X26798757Y-30724401D01*
X26496513Y-31026118D01*
X26332738Y-31420532D01*
X26332365Y-31847597D01*
X26495451Y-32242295D01*
X26797168Y-32544539D01*
X27191582Y-32708314D01*
X27618647Y-32708687D01*
X28013345Y-32545601D01*
X28315589Y-32243884D01*
X28479364Y-31849470D01*
X28479737Y-31422405D01*
X28464902Y-31386502D01*
X34950106Y-31386502D01*
X40926953Y-37363349D01*
X40939755Y-37427709D01*
X40992775Y-37507058D01*
X40980643Y-37536276D01*
X40980358Y-37862293D01*
X41104857Y-38163603D01*
X41335184Y-38394333D01*
X41636276Y-38519357D01*
X41962293Y-38519642D01*
X42263603Y-38395143D01*
X42494333Y-38164816D01*
X42527806Y-38084202D01*
X43745792Y-39302188D01*
X43891782Y-39399736D01*
X44063990Y-39433990D01*
X44384191Y-39433990D01*
X44484010Y-39433990D01*
X44511429Y-39433990D01*
X44683636Y-39399736D01*
X44683637Y-39399736D01*
X44829627Y-39302188D01*
X45134453Y-38997361D01*
X45148046Y-39003006D01*
X45474063Y-39003291D01*
X45775373Y-38878792D01*
X46006103Y-38648465D01*
X46131127Y-38347373D01*
X46131412Y-38021356D01*
X46006913Y-37720046D01*
X45776586Y-37489316D01*
X45475494Y-37364292D01*
X45149477Y-37364007D01*
X44848167Y-37488506D01*
X44741256Y-37595229D01*
X44713399Y-37527809D01*
X44483072Y-37297079D01*
X44181980Y-37172055D01*
X43855963Y-37171770D01*
X43854125Y-37172529D01*
X36292600Y-29611004D01*
X36292600Y-16861400D01*
X36292600Y-16709000D01*
X36292600Y-16659000D01*
X36292600Y-16506600D01*
X36188750Y-16034511D01*
X35912145Y-15638100D01*
X35504895Y-15377716D01*
X35272413Y-15312409D01*
X35079000Y-15387023D01*
X35079000Y-16659000D01*
X36292600Y-16659000D01*
X36292600Y-16709000D01*
X35079000Y-16709000D01*
X35079000Y-17980977D01*
X35272413Y-18055591D01*
X35504895Y-17990284D01*
X35912145Y-17729900D01*
X36188750Y-17333489D01*
X36292600Y-16861400D01*
X36292600Y-29611004D01*
X35029000Y-28347404D01*
X35029000Y-17980977D01*
X35029000Y-16709000D01*
X35029000Y-16659000D01*
X35029000Y-15387023D01*
X34835587Y-15312409D01*
X34603105Y-15377716D01*
X34195855Y-15638100D01*
X33919250Y-16034511D01*
X33815400Y-16506600D01*
X33815400Y-16659000D01*
X35029000Y-16659000D01*
X35029000Y-16709000D01*
X33815400Y-16709000D01*
X33815400Y-16861400D01*
X33919250Y-17333489D01*
X34195855Y-17729900D01*
X34603105Y-17990284D01*
X34835587Y-18055591D01*
X35029000Y-17980977D01*
X35029000Y-28347404D01*
X33752600Y-27071004D01*
X33752600Y-16863651D01*
X33752600Y-16504349D01*
X33658317Y-16030357D01*
X33389822Y-15628527D01*
X32987992Y-15360032D01*
X32514000Y-15265749D01*
X32040008Y-15360032D01*
X31638178Y-15628527D01*
X31369683Y-16030357D01*
X31275400Y-16504349D01*
X31275400Y-16863651D01*
X31369683Y-17337643D01*
X31638178Y-17739473D01*
X32040008Y-18007968D01*
X32514000Y-18102251D01*
X32987992Y-18007968D01*
X33389822Y-17739473D01*
X33658317Y-17337643D01*
X33752600Y-16863651D01*
X33752600Y-27071004D01*
X31212600Y-24531004D01*
X31212600Y-16863651D01*
X31212600Y-16504349D01*
X31118317Y-16030357D01*
X30849822Y-15628527D01*
X30447992Y-15360032D01*
X29974000Y-15265749D01*
X29500008Y-15360032D01*
X29098178Y-15628527D01*
X28829683Y-16030357D01*
X28735400Y-16504349D01*
X28735400Y-16863651D01*
X28829683Y-17337643D01*
X29098178Y-17739473D01*
X29500008Y-18007968D01*
X29974000Y-18102251D01*
X30447992Y-18007968D01*
X30849822Y-17739473D01*
X31118317Y-17337643D01*
X31212600Y-16863651D01*
X31212600Y-24531004D01*
X29152000Y-22470404D01*
X29152000Y-21966000D01*
X29117746Y-21793792D01*
X29020198Y-21647802D01*
X28868198Y-21495802D01*
X28722208Y-21398254D01*
X28719444Y-21397704D01*
X28707968Y-21340008D01*
X28439473Y-20938178D01*
X28037643Y-20669683D01*
X27563651Y-20575400D01*
X27204349Y-20575400D01*
X26749699Y-20665835D01*
X26902935Y-20512600D01*
X28474592Y-20512600D01*
X28612420Y-20455510D01*
X28717910Y-20350021D01*
X28775000Y-20212192D01*
X28775000Y-20063008D01*
X28775000Y-18335808D01*
X28717910Y-18197980D01*
X28612421Y-18092490D01*
X28474592Y-18035400D01*
X28467795Y-18035400D01*
X28510020Y-18017910D01*
X28615510Y-17912421D01*
X28672600Y-17774592D01*
X28672600Y-17625408D01*
X28672600Y-15593408D01*
X28615510Y-15455580D01*
X28510021Y-15350090D01*
X28372192Y-15293000D01*
X28223008Y-15293000D01*
X26495808Y-15293000D01*
X26357980Y-15350090D01*
X26252490Y-15455579D01*
X26195400Y-15593408D01*
X26195400Y-15742592D01*
X26195400Y-17774592D01*
X26252490Y-17912420D01*
X26357979Y-18017910D01*
X26400204Y-18035400D01*
X26293408Y-18035400D01*
X26155580Y-18092490D01*
X26050090Y-18197979D01*
X25993000Y-18335808D01*
X25993000Y-18484992D01*
X25993000Y-20002664D01*
X24855032Y-21140632D01*
X24746212Y-21303493D01*
X24707999Y-21495600D01*
X24708000Y-21495605D01*
X24708000Y-27909994D01*
X24707999Y-27910000D01*
X24746212Y-28102107D01*
X24855032Y-28264968D01*
X25108000Y-28517935D01*
X25108000Y-28884843D01*
X25002706Y-28928350D01*
X24700462Y-29230067D01*
X24605000Y-29459965D01*
X24605000Y-16706751D01*
X28136751Y-13175000D01*
X106483248Y-13175000D01*
X110015000Y-16706751D01*
X110015000Y-56953248D01*
X110015000Y-56953248D01*
G37*
X110015000Y-56953248D02*
X110005200Y-56963048D01*
X110005200Y-27331792D01*
X110005200Y-27182608D01*
X110005200Y-26268208D01*
X109948110Y-26130380D01*
X109842621Y-26024890D01*
X109704792Y-25967800D01*
X109555608Y-25967800D01*
X109553471Y-25967800D01*
X109491198Y-25874602D01*
X109056663Y-25440067D01*
X109059110Y-25437621D01*
X109116200Y-25299792D01*
X109116200Y-25150608D01*
X109116200Y-24236208D01*
X109059110Y-24098380D01*
X108953621Y-23992890D01*
X108815792Y-23935800D01*
X108734000Y-23935800D01*
X108734000Y-20033925D01*
X108747217Y-20028464D01*
X109067340Y-19708900D01*
X109240802Y-19291155D01*
X109241197Y-18838829D01*
X109068464Y-18420783D01*
X108748900Y-18100660D01*
X108331155Y-17927198D01*
X107878829Y-17926803D01*
X107460783Y-18099536D01*
X107140660Y-18419100D01*
X106967198Y-18836845D01*
X106966803Y-19289171D01*
X107139536Y-19707217D01*
X107459100Y-20027340D01*
X107834000Y-20183011D01*
X107834000Y-23935800D01*
X107752208Y-23935800D01*
X107614380Y-23992890D01*
X107508890Y-24098379D01*
X107451800Y-24236208D01*
X107451800Y-24385392D01*
X107451800Y-25238501D01*
X105371921Y-25238501D01*
X105450198Y-25186198D01*
X105882198Y-24754198D01*
X105979746Y-24608208D01*
X106014000Y-24436000D01*
X106014000Y-20108299D01*
X106207217Y-20028464D01*
X106527340Y-19708900D01*
X106700802Y-19291155D01*
X106701197Y-18838829D01*
X106528464Y-18420783D01*
X106208900Y-18100660D01*
X105791155Y-17927198D01*
X105338829Y-17926803D01*
X104920783Y-18099536D01*
X104600660Y-18419100D01*
X104427198Y-18836845D01*
X104426803Y-19289171D01*
X104599536Y-19707217D01*
X104919100Y-20027340D01*
X105114000Y-20108269D01*
X105114000Y-24249604D01*
X105090189Y-24273414D01*
X105059110Y-24198380D01*
X104953621Y-24092890D01*
X104815792Y-24035800D01*
X104666608Y-24035800D01*
X103950000Y-24035800D01*
X103950000Y-22764598D01*
X103915747Y-22592391D01*
X103915746Y-22592390D01*
X103818198Y-22446400D01*
X103418101Y-22046303D01*
X103272111Y-21948755D01*
X103130500Y-21920587D01*
X103130500Y-21429908D01*
X103073410Y-21292080D01*
X102967921Y-21186590D01*
X102830092Y-21129500D01*
X102680908Y-21129500D01*
X102634000Y-21129500D01*
X102634000Y-20133183D01*
X102796845Y-20200802D01*
X103249171Y-20201197D01*
X103667217Y-20028464D01*
X103987340Y-19708900D01*
X104160802Y-19291155D01*
X104161197Y-18838829D01*
X103988464Y-18420783D01*
X103668900Y-18100660D01*
X103251155Y-17927198D01*
X102798829Y-17926803D01*
X102380783Y-18099536D01*
X102060660Y-18419100D01*
X101887198Y-18836845D01*
X101886803Y-19289171D01*
X101967392Y-19484211D01*
X101865802Y-19585802D01*
X101768254Y-19731792D01*
X101734000Y-19904000D01*
X101734000Y-21129500D01*
X101537908Y-21129500D01*
X101400080Y-21186590D01*
X101333999Y-21252669D01*
X101267921Y-21186590D01*
X101130092Y-21129500D01*
X100980908Y-21129500D01*
X100934000Y-21129500D01*
X100934000Y-20108299D01*
X101127217Y-20028464D01*
X101447340Y-19708900D01*
X101620802Y-19291155D01*
X101621197Y-18838829D01*
X101448464Y-18420783D01*
X101128900Y-18100660D01*
X100711155Y-17927198D01*
X100258829Y-17926803D01*
X99840783Y-18099536D01*
X99520660Y-18419100D01*
X99347198Y-18836845D01*
X99346803Y-19289171D01*
X99519536Y-19707217D01*
X99839100Y-20027340D01*
X100034000Y-20108269D01*
X100034000Y-21129500D01*
X99837908Y-21129500D01*
X99700080Y-21186590D01*
X99594590Y-21292079D01*
X99537500Y-21429908D01*
X99537500Y-21579092D01*
X99537500Y-21914501D01*
X99081197Y-21914501D01*
X99081197Y-18838829D01*
X98908464Y-18420783D01*
X98588900Y-18100660D01*
X98171155Y-17927198D01*
X97718829Y-17926803D01*
X97300783Y-18099536D01*
X96980660Y-18419100D01*
X96807198Y-18836845D01*
X96806803Y-19289171D01*
X96979536Y-19707217D01*
X97299100Y-20027340D01*
X97716845Y-20200802D01*
X98169171Y-20201197D01*
X98587217Y-20028464D01*
X98907340Y-19708900D01*
X99080802Y-19291155D01*
X99081197Y-18838829D01*
X99081197Y-21914501D01*
X96330330Y-21914501D01*
X96330500Y-21914092D01*
X96330500Y-21764908D01*
X96330500Y-21129908D01*
X96273410Y-20992080D01*
X96167921Y-20886590D01*
X96030092Y-20829500D01*
X95880908Y-20829500D01*
X95834000Y-20829500D01*
X95834000Y-20116563D01*
X96047217Y-20028464D01*
X96367340Y-19708900D01*
X96540802Y-19291155D01*
X96541197Y-18838829D01*
X96368464Y-18420783D01*
X96048900Y-18100660D01*
X95631155Y-17927198D01*
X95178829Y-17926803D01*
X94760783Y-18099536D01*
X94440660Y-18419100D01*
X94267198Y-18836845D01*
X94266803Y-19289171D01*
X94439536Y-19707217D01*
X94759100Y-20027340D01*
X94934000Y-20099964D01*
X94934000Y-20829500D01*
X94737908Y-20829500D01*
X94600080Y-20886590D01*
X94494590Y-20992079D01*
X94437500Y-21129908D01*
X94437500Y-21279092D01*
X94437500Y-21914092D01*
X94483816Y-22025911D01*
X94453299Y-22046303D01*
X93634000Y-22865602D01*
X93634000Y-19901902D01*
X93827340Y-19708900D01*
X94000802Y-19291155D01*
X94001197Y-18838829D01*
X93828464Y-18420783D01*
X93508900Y-18100660D01*
X93091155Y-17927198D01*
X92638829Y-17926803D01*
X92220783Y-18099536D01*
X91900660Y-18419100D01*
X91727198Y-18836845D01*
X91726803Y-19289171D01*
X91899536Y-19707217D01*
X92219100Y-20027340D01*
X92636845Y-20200802D01*
X92734000Y-20200886D01*
X92734000Y-23435800D01*
X92652208Y-23435800D01*
X92514380Y-23492890D01*
X92408890Y-23598379D01*
X92351800Y-23736208D01*
X92351800Y-23885392D01*
X92351800Y-24533980D01*
X79893019Y-24533980D01*
X79978333Y-24448816D01*
X80103357Y-24147724D01*
X80103642Y-23821707D01*
X79979143Y-23520397D01*
X79748816Y-23289667D01*
X79447724Y-23164643D01*
X79121707Y-23164358D01*
X79106880Y-23170484D01*
X78040963Y-22104567D01*
X78055510Y-22090021D01*
X78112600Y-21952192D01*
X78112600Y-21803008D01*
X78112600Y-20075808D01*
X78055510Y-19937980D01*
X77950021Y-19832490D01*
X77812192Y-19775400D01*
X77663008Y-19775400D01*
X75935808Y-19775400D01*
X75860129Y-19806746D01*
X75838348Y-19697238D01*
X75838347Y-19697237D01*
X75740799Y-19551247D01*
X74824290Y-18634738D01*
X74829935Y-18621146D01*
X74830220Y-18295129D01*
X74705721Y-17993819D01*
X74475394Y-17763089D01*
X74174302Y-17638065D01*
X73848285Y-17637780D01*
X73546975Y-17762279D01*
X73337144Y-17971743D01*
X69201424Y-13836022D01*
X69038563Y-13727202D01*
X68846456Y-13688989D01*
X68846450Y-13688990D01*
X51734610Y-13688990D01*
X51542502Y-13727202D01*
X51379642Y-13836022D01*
X51122664Y-14093000D01*
X49655808Y-14093000D01*
X49517980Y-14150090D01*
X49412490Y-14255579D01*
X49355400Y-14393408D01*
X49355400Y-14542592D01*
X49355400Y-14882000D01*
X38741600Y-14882000D01*
X38549493Y-14920212D01*
X38386632Y-15029032D01*
X38386629Y-15029035D01*
X38057683Y-15357981D01*
X37594000Y-15265749D01*
X37120008Y-15360032D01*
X36718178Y-15628527D01*
X36449683Y-16030357D01*
X36355400Y-16504349D01*
X36355400Y-16863651D01*
X36449683Y-17337643D01*
X36718178Y-17739473D01*
X37120008Y-18007968D01*
X37594000Y-18102251D01*
X38067992Y-18007968D01*
X38469822Y-17739473D01*
X38738317Y-17337643D01*
X38832600Y-16863651D01*
X38832600Y-16504349D01*
X38749410Y-16086125D01*
X38949535Y-15886000D01*
X39086139Y-15886000D01*
X38989683Y-16030357D01*
X38895400Y-16504349D01*
X38895400Y-16863651D01*
X38989683Y-17337643D01*
X39258178Y-17739473D01*
X39660008Y-18007968D01*
X40134000Y-18102251D01*
X40607992Y-18007968D01*
X41009822Y-17739473D01*
X41278317Y-17337643D01*
X41372600Y-16863651D01*
X41372600Y-16504349D01*
X41278317Y-16030357D01*
X41181860Y-15886000D01*
X49355400Y-15886000D01*
X49355400Y-16574592D01*
X49412490Y-16712420D01*
X49517979Y-16817910D01*
X49655808Y-16875000D01*
X49804992Y-16875000D01*
X51532192Y-16875000D01*
X51670020Y-16817910D01*
X51775510Y-16712421D01*
X51832600Y-16574592D01*
X51832600Y-16425408D01*
X51832600Y-14802936D01*
X51942546Y-14692990D01*
X52081468Y-14692990D01*
X51989683Y-14830357D01*
X51895400Y-15304349D01*
X51895400Y-15663651D01*
X51989683Y-16137643D01*
X52258178Y-16539473D01*
X52660008Y-16807968D01*
X53134000Y-16902251D01*
X53607992Y-16807968D01*
X54009822Y-16539473D01*
X54278317Y-16137643D01*
X54372600Y-15663651D01*
X54372600Y-15304349D01*
X54278317Y-14830357D01*
X54186531Y-14692990D01*
X54621468Y-14692990D01*
X54529683Y-14830357D01*
X54435400Y-15304349D01*
X54435400Y-15663651D01*
X54529683Y-16137643D01*
X54798178Y-16539473D01*
X55200008Y-16807968D01*
X55674000Y-16902251D01*
X56147992Y-16807968D01*
X56549822Y-16539473D01*
X56818317Y-16137643D01*
X56912600Y-15663651D01*
X56912600Y-15304349D01*
X56818317Y-14830357D01*
X56726531Y-14692990D01*
X57161468Y-14692990D01*
X57069683Y-14830357D01*
X56975400Y-15304349D01*
X56975400Y-15663651D01*
X57069683Y-16137643D01*
X57338178Y-16539473D01*
X57740008Y-16807968D01*
X58214000Y-16902251D01*
X58687992Y-16807968D01*
X59089822Y-16539473D01*
X59358317Y-16137643D01*
X59452600Y-15663651D01*
X59452600Y-15304349D01*
X59358317Y-14830357D01*
X59266531Y-14692990D01*
X59701468Y-14692990D01*
X59609683Y-14830357D01*
X59515400Y-15304349D01*
X59515400Y-15663651D01*
X59609683Y-16137643D01*
X59878178Y-16539473D01*
X60280008Y-16807968D01*
X60754000Y-16902251D01*
X61227992Y-16807968D01*
X61629822Y-16539473D01*
X61898317Y-16137643D01*
X61992600Y-15663651D01*
X61992600Y-15304349D01*
X61898317Y-14830357D01*
X61806531Y-14692990D01*
X62241468Y-14692990D01*
X62149683Y-14830357D01*
X62055400Y-15304349D01*
X62055400Y-15663651D01*
X62149683Y-16137643D01*
X62418178Y-16539473D01*
X62820008Y-16807968D01*
X63294000Y-16902251D01*
X63767992Y-16807968D01*
X64169822Y-16539473D01*
X64438317Y-16137643D01*
X64532600Y-15663651D01*
X64532600Y-15304349D01*
X64438317Y-14830357D01*
X64346531Y-14692990D01*
X64781468Y-14692990D01*
X64689683Y-14830357D01*
X64595400Y-15304349D01*
X64595400Y-15663651D01*
X64689683Y-16137643D01*
X64958178Y-16539473D01*
X65360008Y-16807968D01*
X65834000Y-16902251D01*
X66307992Y-16807968D01*
X66709822Y-16539473D01*
X66978317Y-16137643D01*
X67072600Y-15663651D01*
X67072600Y-15304349D01*
X66978317Y-14830357D01*
X66886531Y-14692990D01*
X67337999Y-14692990D01*
X67239250Y-14834511D01*
X67135400Y-15306600D01*
X67135400Y-15459000D01*
X68349000Y-15459000D01*
X68349000Y-15439000D01*
X68399000Y-15439000D01*
X68399000Y-15459000D01*
X68419000Y-15459000D01*
X68419000Y-15509000D01*
X68399000Y-15509000D01*
X68399000Y-16780977D01*
X68592413Y-16855591D01*
X68824895Y-16790284D01*
X69232145Y-16529900D01*
X69508750Y-16133489D01*
X69611577Y-15666047D01*
X72737077Y-18791546D01*
X72737077Y-19919071D01*
X72737076Y-19919077D01*
X72775289Y-20111184D01*
X72884109Y-20274045D01*
X73162871Y-20552807D01*
X73071134Y-21014000D01*
X73165417Y-21487992D01*
X73433912Y-21889822D01*
X73835742Y-22158317D01*
X74309734Y-22252600D01*
X74358266Y-22252600D01*
X74832258Y-22158317D01*
X75087530Y-21987749D01*
X75104403Y-22013001D01*
X75512201Y-22420799D01*
X75658191Y-22518347D01*
X75830399Y-22552601D01*
X76161850Y-22552601D01*
X75973912Y-22678178D01*
X75705417Y-23080008D01*
X75611134Y-23554000D01*
X75705417Y-24027992D01*
X75973912Y-24429822D01*
X76129795Y-24533980D01*
X75078204Y-24533980D01*
X75234088Y-24429822D01*
X75502583Y-24027992D01*
X75596866Y-23554000D01*
X75502583Y-23080008D01*
X75234088Y-22678178D01*
X74832258Y-22409683D01*
X74358266Y-22315400D01*
X74309734Y-22315400D01*
X73835742Y-22409683D01*
X73433912Y-22678178D01*
X73165417Y-23080008D01*
X73071134Y-23554000D01*
X73165417Y-24027992D01*
X73433912Y-24429822D01*
X73589795Y-24533980D01*
X72538204Y-24533980D01*
X72694088Y-24429822D01*
X72962583Y-24027992D01*
X73056866Y-23554000D01*
X73056866Y-21014000D01*
X72962583Y-20540008D01*
X72694088Y-20138178D01*
X72292258Y-19869683D01*
X71818266Y-19775400D01*
X71769734Y-19775400D01*
X71295742Y-19869683D01*
X70893912Y-20138178D01*
X70625417Y-20540008D01*
X70531134Y-21014000D01*
X70625417Y-21487992D01*
X70893912Y-21889822D01*
X71295742Y-22158317D01*
X71769734Y-22252600D01*
X71818266Y-22252600D01*
X72292258Y-22158317D01*
X72694088Y-21889822D01*
X72962583Y-21487992D01*
X73056866Y-21014000D01*
X73056866Y-23554000D01*
X72962583Y-23080008D01*
X72694088Y-22678178D01*
X72292258Y-22409683D01*
X71818266Y-22315400D01*
X71769734Y-22315400D01*
X71295742Y-22409683D01*
X70893912Y-22678178D01*
X70625417Y-23080008D01*
X70531134Y-23554000D01*
X70625417Y-24027992D01*
X70893912Y-24429822D01*
X71049795Y-24533980D01*
X69998204Y-24533980D01*
X70154088Y-24429822D01*
X70422583Y-24027992D01*
X70516866Y-23554000D01*
X70516866Y-21014000D01*
X70422583Y-20540008D01*
X70154088Y-20138178D01*
X69752258Y-19869683D01*
X69278266Y-19775400D01*
X69229734Y-19775400D01*
X68755742Y-19869683D01*
X68353912Y-20138178D01*
X68349000Y-20145529D01*
X68349000Y-16780977D01*
X68349000Y-15509000D01*
X67135400Y-15509000D01*
X67135400Y-15661400D01*
X67239250Y-16133489D01*
X67515855Y-16529900D01*
X67923105Y-16790284D01*
X68155587Y-16855591D01*
X68349000Y-16780977D01*
X68349000Y-20145529D01*
X68085417Y-20540008D01*
X67991134Y-21014000D01*
X68085417Y-21487992D01*
X68353912Y-21889822D01*
X68755742Y-22158317D01*
X69229734Y-22252600D01*
X69278266Y-22252600D01*
X69752258Y-22158317D01*
X70154088Y-21889822D01*
X70422583Y-21487992D01*
X70516866Y-21014000D01*
X70516866Y-23554000D01*
X70422583Y-23080008D01*
X70154088Y-22678178D01*
X69752258Y-22409683D01*
X69278266Y-22315400D01*
X69229734Y-22315400D01*
X68755742Y-22409683D01*
X68353912Y-22678178D01*
X68085417Y-23080008D01*
X67991134Y-23554000D01*
X68085417Y-24027992D01*
X68353912Y-24429822D01*
X68510114Y-24534193D01*
X68338979Y-24568233D01*
X68192988Y-24665782D01*
X67976866Y-24881904D01*
X67976866Y-23554000D01*
X67882583Y-23080008D01*
X67614088Y-22678178D01*
X67212258Y-22409683D01*
X66738266Y-22315400D01*
X66689734Y-22315400D01*
X66215742Y-22409683D01*
X65813912Y-22678178D01*
X65712601Y-22829800D01*
X65712601Y-22651795D01*
X66209949Y-22154446D01*
X66215742Y-22158317D01*
X66689734Y-22252600D01*
X66738266Y-22252600D01*
X67212258Y-22158317D01*
X67614088Y-21889822D01*
X67882583Y-21487992D01*
X67976866Y-21014000D01*
X67882583Y-20540008D01*
X67614088Y-20138178D01*
X67212258Y-19869683D01*
X66738266Y-19775400D01*
X66689734Y-19775400D01*
X66215742Y-19869683D01*
X65813912Y-20138178D01*
X65545417Y-20540008D01*
X65451134Y-21014000D01*
X65545417Y-21487992D01*
X65568726Y-21522877D01*
X65436866Y-21654737D01*
X65436866Y-21014000D01*
X65342583Y-20540008D01*
X65074088Y-20138178D01*
X64672258Y-19869683D01*
X64198266Y-19775400D01*
X64149734Y-19775400D01*
X63675742Y-19869683D01*
X63273912Y-20138178D01*
X63005417Y-20540008D01*
X62911134Y-21014000D01*
X63005417Y-21487992D01*
X63273912Y-21889822D01*
X63675742Y-22158317D01*
X64149734Y-22252600D01*
X64198266Y-22252600D01*
X64672258Y-22158317D01*
X65074088Y-21889822D01*
X65342583Y-21487992D01*
X65436866Y-21014000D01*
X65436866Y-21654737D01*
X64944403Y-22147201D01*
X64846855Y-22293191D01*
X64812601Y-22465399D01*
X64812601Y-22503457D01*
X64672258Y-22409683D01*
X64198266Y-22315400D01*
X64149734Y-22315400D01*
X63675742Y-22409683D01*
X63273912Y-22678178D01*
X63005417Y-23080008D01*
X62911134Y-23554000D01*
X63005417Y-24027992D01*
X63273912Y-24429822D01*
X63675742Y-24698317D01*
X64149734Y-24792600D01*
X64198266Y-24792600D01*
X64672258Y-24698317D01*
X64812601Y-24604542D01*
X64812601Y-26065848D01*
X63032234Y-27846214D01*
X63018642Y-27840570D01*
X62896866Y-27840463D01*
X62896866Y-23554000D01*
X62853191Y-23334431D01*
X62853191Y-21232413D01*
X62853191Y-20795587D01*
X62843970Y-20749223D01*
X62650541Y-20306342D01*
X62302352Y-19971196D01*
X61852413Y-19794807D01*
X61659000Y-19869400D01*
X61659000Y-20989000D01*
X62778577Y-20989000D01*
X62853191Y-20795587D01*
X62853191Y-21232413D01*
X62778577Y-21039000D01*
X61659000Y-21039000D01*
X61659000Y-22158600D01*
X61852413Y-22233193D01*
X62302352Y-22056804D01*
X62650541Y-21721658D01*
X62843970Y-21278777D01*
X62853191Y-21232413D01*
X62853191Y-23334431D01*
X62802583Y-23080008D01*
X62534088Y-22678178D01*
X62132258Y-22409683D01*
X61658266Y-22315400D01*
X61609734Y-22315400D01*
X61609000Y-22315546D01*
X61609000Y-22158600D01*
X61609000Y-21039000D01*
X61609000Y-20989000D01*
X61609000Y-19869400D01*
X61415587Y-19794807D01*
X60965648Y-19971196D01*
X60617459Y-20306342D01*
X60424030Y-20749223D01*
X60414809Y-20795587D01*
X60489423Y-20989000D01*
X61609000Y-20989000D01*
X61609000Y-21039000D01*
X60489423Y-21039000D01*
X60414809Y-21232413D01*
X60424030Y-21278777D01*
X60617459Y-21721658D01*
X60965648Y-22056804D01*
X61415587Y-22233193D01*
X61609000Y-22158600D01*
X61609000Y-22315546D01*
X61135742Y-22409683D01*
X60733912Y-22678178D01*
X60465417Y-23080008D01*
X60371134Y-23554000D01*
X60465417Y-24027992D01*
X60733912Y-24429822D01*
X61135742Y-24698317D01*
X61609734Y-24792600D01*
X61658266Y-24792600D01*
X62132258Y-24698317D01*
X62534088Y-24429822D01*
X62802583Y-24027992D01*
X62896866Y-23554000D01*
X62896866Y-27840463D01*
X62692625Y-27840285D01*
X62391315Y-27964784D01*
X62160585Y-28195111D01*
X62035561Y-28496203D01*
X62035276Y-28822220D01*
X62159775Y-29123530D01*
X62390102Y-29354260D01*
X62691194Y-29479284D01*
X63017211Y-29479569D01*
X63318521Y-29355070D01*
X63549251Y-29124743D01*
X63674275Y-28823651D01*
X63674560Y-28497634D01*
X63668433Y-28482807D01*
X65580799Y-26570442D01*
X65678347Y-26424452D01*
X65712601Y-26252244D01*
X65712601Y-24278199D01*
X65813912Y-24429822D01*
X66215742Y-24698317D01*
X66689734Y-24792600D01*
X66738266Y-24792600D01*
X67212258Y-24698317D01*
X67614088Y-24429822D01*
X67882583Y-24027992D01*
X67976866Y-23554000D01*
X67976866Y-24881904D01*
X60356866Y-32501904D01*
X60356866Y-23554000D01*
X60313191Y-23334431D01*
X60313191Y-21232413D01*
X60313191Y-20795587D01*
X60303970Y-20749223D01*
X60110541Y-20306342D01*
X59762352Y-19971196D01*
X59312413Y-19794807D01*
X59119000Y-19869400D01*
X59119000Y-20989000D01*
X60238577Y-20989000D01*
X60313191Y-20795587D01*
X60313191Y-21232413D01*
X60238577Y-21039000D01*
X59119000Y-21039000D01*
X59119000Y-22158600D01*
X59312413Y-22233193D01*
X59762352Y-22056804D01*
X60110541Y-21721658D01*
X60303970Y-21278777D01*
X60313191Y-21232413D01*
X60313191Y-23334431D01*
X60262583Y-23080008D01*
X59994088Y-22678178D01*
X59592258Y-22409683D01*
X59118266Y-22315400D01*
X59069734Y-22315400D01*
X59069000Y-22315546D01*
X59069000Y-22158600D01*
X59069000Y-21039000D01*
X59069000Y-20989000D01*
X59069000Y-19869400D01*
X58875587Y-19794807D01*
X58425648Y-19971196D01*
X58077459Y-20306342D01*
X57884030Y-20749223D01*
X57874809Y-20795587D01*
X57949423Y-20989000D01*
X59069000Y-20989000D01*
X59069000Y-21039000D01*
X57949423Y-21039000D01*
X57874809Y-21232413D01*
X57884030Y-21278777D01*
X58077459Y-21721658D01*
X58425648Y-22056804D01*
X58875587Y-22233193D01*
X59069000Y-22158600D01*
X59069000Y-22315546D01*
X58595742Y-22409683D01*
X58193912Y-22678178D01*
X57925417Y-23080008D01*
X57831134Y-23554000D01*
X57925417Y-24027992D01*
X58193912Y-24429822D01*
X58595742Y-24698317D01*
X59069734Y-24792600D01*
X59118266Y-24792600D01*
X59592258Y-24698317D01*
X59994088Y-24429822D01*
X60262583Y-24027992D01*
X60356866Y-23554000D01*
X60356866Y-32501904D01*
X59329103Y-33529667D01*
X57337037Y-33529667D01*
X57374721Y-33492049D01*
X57499745Y-33190957D01*
X57500030Y-32864940D01*
X57375531Y-32563630D01*
X57145204Y-32332900D01*
X56844112Y-32207876D01*
X56518095Y-32207591D01*
X56503268Y-32213717D01*
X51714200Y-27424649D01*
X51714200Y-18506200D01*
X51714200Y-18353800D01*
X51714200Y-18303800D01*
X51714200Y-18151400D01*
X51610350Y-17679311D01*
X51333745Y-17282900D01*
X50926495Y-17022516D01*
X50694013Y-16957209D01*
X50500600Y-17031823D01*
X50500600Y-18303800D01*
X51714200Y-18303800D01*
X51714200Y-18353800D01*
X50500600Y-18353800D01*
X50500600Y-19625777D01*
X50694013Y-19700391D01*
X50926495Y-19635084D01*
X51333745Y-19374700D01*
X51610350Y-18978289D01*
X51714200Y-18506200D01*
X51714200Y-27424649D01*
X51355353Y-27065802D01*
X51209363Y-26968254D01*
X51037155Y-26934000D01*
X50450600Y-26934000D01*
X50450600Y-19625777D01*
X50450600Y-18353800D01*
X50450600Y-18303800D01*
X50450600Y-17031823D01*
X50257187Y-16957209D01*
X50024705Y-17022516D01*
X49617455Y-17282900D01*
X49340850Y-17679311D01*
X49237000Y-18151400D01*
X49237000Y-18303800D01*
X50450600Y-18303800D01*
X50450600Y-18353800D01*
X49237000Y-18353800D01*
X49237000Y-18506200D01*
X49340850Y-18978289D01*
X49617455Y-19374700D01*
X50024705Y-19635084D01*
X50257187Y-19700391D01*
X50450600Y-19625777D01*
X50450600Y-26934000D01*
X49584763Y-26934000D01*
X49579143Y-26920397D01*
X49348816Y-26689667D01*
X49174200Y-26617160D01*
X49174200Y-18508451D01*
X49174200Y-18149149D01*
X49079917Y-17675157D01*
X48811422Y-17273327D01*
X48409592Y-17004832D01*
X47935600Y-16910549D01*
X47461608Y-17004832D01*
X47059778Y-17273327D01*
X46791283Y-17675157D01*
X46697000Y-18149149D01*
X46697000Y-18508451D01*
X46791283Y-18982443D01*
X47059778Y-19384273D01*
X47461608Y-19652768D01*
X47935600Y-19747051D01*
X48409592Y-19652768D01*
X48811422Y-19384273D01*
X49079917Y-18982443D01*
X49174200Y-18508451D01*
X49174200Y-26617160D01*
X49047724Y-26564643D01*
X48721707Y-26564358D01*
X48420397Y-26688857D01*
X48189667Y-26919184D01*
X48126965Y-27070185D01*
X47134000Y-26077220D01*
X47134000Y-25784763D01*
X47147603Y-25779143D01*
X47378333Y-25548816D01*
X47503357Y-25247724D01*
X47503642Y-24921707D01*
X47379143Y-24620397D01*
X47148816Y-24389667D01*
X46847724Y-24264643D01*
X46634200Y-24264456D01*
X46634200Y-18508451D01*
X46634200Y-18149149D01*
X46539917Y-17675157D01*
X46271422Y-17273327D01*
X45869592Y-17004832D01*
X45395600Y-16910549D01*
X44921608Y-17004832D01*
X44519778Y-17273327D01*
X44251283Y-17675157D01*
X44157000Y-18149149D01*
X44157000Y-18508451D01*
X44251283Y-18982443D01*
X44519778Y-19384273D01*
X44921608Y-19652768D01*
X45395600Y-19747051D01*
X45869592Y-19652768D01*
X46271422Y-19384273D01*
X46539917Y-18982443D01*
X46634200Y-18508451D01*
X46634200Y-24264456D01*
X46521707Y-24264358D01*
X46220397Y-24388857D01*
X45989667Y-24619184D01*
X45864643Y-24920276D01*
X45864358Y-25246293D01*
X45988857Y-25547603D01*
X46219184Y-25778333D01*
X46234000Y-25784485D01*
X46234000Y-26239323D01*
X45678268Y-25683591D01*
X45683913Y-25669999D01*
X45684198Y-25343982D01*
X45559699Y-25042672D01*
X45329372Y-24811942D01*
X45028280Y-24686918D01*
X44702263Y-24686633D01*
X44400953Y-24811132D01*
X44170223Y-25041459D01*
X44094200Y-25224543D01*
X44094200Y-19419392D01*
X44094200Y-19270208D01*
X44094200Y-17238208D01*
X44037110Y-17100380D01*
X43931621Y-16994890D01*
X43793792Y-16937800D01*
X43644608Y-16937800D01*
X41917408Y-16937800D01*
X41779580Y-16994890D01*
X41674090Y-17100379D01*
X41617000Y-17238208D01*
X41617000Y-17387392D01*
X41617000Y-19419392D01*
X41674090Y-19557220D01*
X41779579Y-19662710D01*
X41917408Y-19719800D01*
X42066592Y-19719800D01*
X43793792Y-19719800D01*
X43931620Y-19662710D01*
X44037110Y-19557221D01*
X44094200Y-19419392D01*
X44094200Y-25224543D01*
X44045199Y-25342551D01*
X44044914Y-25668568D01*
X44169413Y-25969878D01*
X44399740Y-26200608D01*
X44700832Y-26325632D01*
X45026849Y-26325917D01*
X45041675Y-26319790D01*
X52922399Y-34200514D01*
X52922399Y-36607797D01*
X52819768Y-36504987D01*
X52518676Y-36379963D01*
X52192659Y-36379678D01*
X51891349Y-36504177D01*
X51660619Y-36734504D01*
X51535595Y-37035596D01*
X51535310Y-37361613D01*
X51659809Y-37662923D01*
X51890136Y-37893653D01*
X51904952Y-37899805D01*
X51904952Y-38228662D01*
X51939206Y-38400870D01*
X52036754Y-38546860D01*
X52772357Y-39282463D01*
X48605955Y-39282463D01*
X48433604Y-39110112D01*
X48433842Y-38838351D01*
X48309343Y-38537041D01*
X48079016Y-38306311D01*
X48021830Y-38282565D01*
X50930588Y-35373808D01*
X51023044Y-35373808D01*
X51028665Y-35387411D01*
X51258992Y-35618141D01*
X51560084Y-35743165D01*
X51886101Y-35743450D01*
X52187411Y-35618951D01*
X52418141Y-35388624D01*
X52543165Y-35087532D01*
X52543450Y-34761515D01*
X52418951Y-34460205D01*
X52188624Y-34229475D01*
X51887532Y-34104451D01*
X51561515Y-34104166D01*
X51260205Y-34228665D01*
X51029475Y-34458992D01*
X51023322Y-34473808D01*
X50744192Y-34473808D01*
X50571984Y-34508062D01*
X50425994Y-34605610D01*
X46565802Y-38465802D01*
X46468254Y-38611792D01*
X46434000Y-38784000D01*
X46434000Y-39684000D01*
X46468254Y-39856208D01*
X46565802Y-40002198D01*
X47065802Y-40502198D01*
X47211792Y-40599746D01*
X47211793Y-40599746D01*
X47384000Y-40634000D01*
X53897604Y-40634000D01*
X55934000Y-42670396D01*
X55934000Y-42797604D01*
X53697604Y-45034000D01*
X39484763Y-45034000D01*
X39479143Y-45020397D01*
X39248816Y-44789667D01*
X38947724Y-44664643D01*
X38621707Y-44664358D01*
X38320397Y-44788857D01*
X38089667Y-45019184D01*
X37964643Y-45320276D01*
X37964358Y-45646293D01*
X38088857Y-45947603D01*
X38319184Y-46178333D01*
X38620276Y-46303357D01*
X38946293Y-46303642D01*
X39247603Y-46179143D01*
X39478333Y-45948816D01*
X39484485Y-45934000D01*
X46821881Y-45934000D01*
X43333420Y-49422461D01*
X43333417Y-49422464D01*
X43239032Y-49516849D01*
X43239030Y-49516851D01*
X42457881Y-50298000D01*
X40839613Y-50298000D01*
X40647616Y-50105667D01*
X40346524Y-49980643D01*
X40020507Y-49980358D01*
X39719197Y-50104857D01*
X39488467Y-50335184D01*
X39363443Y-50636276D01*
X39363158Y-50962293D01*
X39487657Y-51263603D01*
X39717984Y-51494333D01*
X40019076Y-51619357D01*
X40345093Y-51619642D01*
X40646403Y-51495143D01*
X40839883Y-51302000D01*
X42665811Y-51302000D01*
X42665817Y-51302001D01*
X42665817Y-51302000D01*
X42857924Y-51263788D01*
X43020785Y-51154968D01*
X43948965Y-50226786D01*
X43948968Y-50226785D01*
X44043352Y-50132399D01*
X44043356Y-50132397D01*
X44043356Y-50132396D01*
X47837742Y-46338010D01*
X49448016Y-46338010D01*
X49448016Y-53975800D01*
X49333642Y-53975800D01*
X49333642Y-47716707D01*
X49209143Y-47415397D01*
X48978816Y-47184667D01*
X48677724Y-47059643D01*
X48351707Y-47059358D01*
X48050397Y-47183857D01*
X47819667Y-47414184D01*
X47694643Y-47715276D01*
X47694404Y-47988660D01*
X43505464Y-52177600D01*
X42058813Y-52177600D01*
X41866816Y-51985267D01*
X41565724Y-51860243D01*
X41239707Y-51859958D01*
X40938397Y-51984457D01*
X40707667Y-52214784D01*
X40582643Y-52515876D01*
X40582358Y-52841893D01*
X40706857Y-53143203D01*
X40937184Y-53373933D01*
X41238276Y-53498957D01*
X41564293Y-53499242D01*
X41865603Y-53374743D01*
X42059083Y-53181600D01*
X43713394Y-53181600D01*
X43713400Y-53181601D01*
X43713400Y-53181600D01*
X43905507Y-53143388D01*
X44068368Y-53034568D01*
X48404530Y-48698404D01*
X48676293Y-48698642D01*
X48977603Y-48574143D01*
X49208333Y-48343816D01*
X49333357Y-48042724D01*
X49333642Y-47716707D01*
X49333642Y-53975800D01*
X49073808Y-53975800D01*
X48935980Y-54032890D01*
X48830490Y-54138379D01*
X48773400Y-54276208D01*
X48773400Y-54425392D01*
X48773400Y-56457392D01*
X48830490Y-56595220D01*
X48935979Y-56700710D01*
X49073808Y-56757800D01*
X49222992Y-56757800D01*
X50950192Y-56757800D01*
X51088020Y-56700710D01*
X51193510Y-56595221D01*
X51250600Y-56457392D01*
X51250600Y-56308208D01*
X51250600Y-54276208D01*
X51193510Y-54138380D01*
X51088021Y-54032890D01*
X50950192Y-53975800D01*
X50801008Y-53975800D01*
X50489932Y-53975800D01*
X50475788Y-53904693D01*
X50452016Y-53869115D01*
X50452016Y-46338010D01*
X54029801Y-46338010D01*
X54029807Y-46338011D01*
X54029807Y-46338010D01*
X54221914Y-46299798D01*
X54384775Y-46190978D01*
X57090978Y-43484775D01*
X57199798Y-43321914D01*
X57238010Y-43129807D01*
X57238011Y-43129807D01*
X57238010Y-43129801D01*
X57238010Y-42338198D01*
X57238010Y-42338193D01*
X57238011Y-42338193D01*
X57199798Y-42146086D01*
X57090978Y-41983226D01*
X57090978Y-41983225D01*
X57090974Y-41983222D01*
X54803861Y-39696109D01*
X55555347Y-39696109D01*
X58734000Y-42874762D01*
X58734000Y-43543514D01*
X58605399Y-43414688D01*
X58304307Y-43289664D01*
X57978290Y-43289379D01*
X57676980Y-43413878D01*
X57446250Y-43644205D01*
X57321226Y-43945297D01*
X57320941Y-44271314D01*
X57445440Y-44572624D01*
X57675767Y-44803354D01*
X57706165Y-44815976D01*
X57724837Y-44909846D01*
X57822385Y-45055836D01*
X64068747Y-51302198D01*
X64214737Y-51399746D01*
X64214738Y-51399746D01*
X64386945Y-51434000D01*
X89973202Y-51434000D01*
X89794601Y-51612601D01*
X89697053Y-51758591D01*
X89662799Y-51930799D01*
X89662799Y-55873561D01*
X89697053Y-56045769D01*
X89794601Y-56191759D01*
X92072041Y-58469199D01*
X92218031Y-58566747D01*
X92218032Y-58566748D01*
X92390239Y-58601001D01*
X94416999Y-58601001D01*
X94589206Y-58566747D01*
X94589207Y-58566747D01*
X94735197Y-58469199D01*
X94960199Y-58244197D01*
X94983766Y-58220629D01*
X95176845Y-58300802D01*
X95629171Y-58301197D01*
X96047217Y-58128464D01*
X96367340Y-57808900D01*
X96540802Y-57391155D01*
X96541197Y-56938829D01*
X96368464Y-56520783D01*
X96048900Y-56200660D01*
X95631155Y-56027198D01*
X95178829Y-56026803D01*
X94760783Y-56199536D01*
X94440660Y-56519100D01*
X94267198Y-56936845D01*
X94266803Y-57389171D01*
X94347392Y-57584211D01*
X94323803Y-57607801D01*
X94230603Y-57701001D01*
X93872143Y-57701001D01*
X94000802Y-57391155D01*
X94001197Y-56938829D01*
X93828464Y-56520783D01*
X93508900Y-56200660D01*
X93091155Y-56027198D01*
X92638829Y-56026803D01*
X92443788Y-56107392D01*
X92134000Y-55797604D01*
X92134000Y-55432200D01*
X92215792Y-55432200D01*
X92353620Y-55375110D01*
X92459110Y-55269621D01*
X92516200Y-55131792D01*
X92516200Y-54982608D01*
X92516200Y-54314501D01*
X96996168Y-54314501D01*
X96994590Y-54316079D01*
X96937500Y-54453908D01*
X96937500Y-54603092D01*
X96937500Y-55238092D01*
X96994590Y-55375920D01*
X97100079Y-55481410D01*
X97237908Y-55538500D01*
X97387092Y-55538500D01*
X97434000Y-55538500D01*
X97434000Y-56144491D01*
X97300783Y-56199536D01*
X96980660Y-56519100D01*
X96807198Y-56936845D01*
X96806803Y-57389171D01*
X96979536Y-57807217D01*
X97299100Y-58127340D01*
X97716845Y-58300802D01*
X98169171Y-58301197D01*
X98587217Y-58128464D01*
X98907340Y-57808900D01*
X99080802Y-57391155D01*
X99081197Y-56938829D01*
X98908464Y-56520783D01*
X98588900Y-56200660D01*
X98334000Y-56094816D01*
X98334000Y-55538500D01*
X98530092Y-55538500D01*
X98667920Y-55481410D01*
X98773410Y-55375921D01*
X98830500Y-55238092D01*
X98830500Y-55088908D01*
X98830500Y-54453908D01*
X98773410Y-54316080D01*
X98771831Y-54314501D01*
X100217901Y-54314501D01*
X100390108Y-54280247D01*
X100390109Y-54280247D01*
X100536099Y-54182699D01*
X101551800Y-53166998D01*
X101551800Y-53831792D01*
X101608890Y-53969620D01*
X101714379Y-54075110D01*
X101852208Y-54132200D01*
X101934000Y-54132200D01*
X101934000Y-56524000D01*
X101968254Y-56696208D01*
X101979888Y-56713619D01*
X101979888Y-56713620D01*
X101887198Y-56936845D01*
X101886803Y-57389171D01*
X102059536Y-57807217D01*
X102379100Y-58127340D01*
X102796845Y-58300802D01*
X103249171Y-58301197D01*
X103667217Y-58128464D01*
X103987340Y-57808900D01*
X104160802Y-57391155D01*
X104161197Y-56938829D01*
X104105200Y-56803305D01*
X104105200Y-51799792D01*
X104105200Y-51650608D01*
X104105200Y-51386750D01*
X104105200Y-51149250D01*
X104105200Y-50885392D01*
X104105200Y-50736208D01*
X104048110Y-50598379D01*
X103942620Y-50492890D01*
X103804792Y-50435800D01*
X103391750Y-50435800D01*
X103298000Y-50529550D01*
X103298000Y-51243000D01*
X104011450Y-51243000D01*
X104105200Y-51149250D01*
X104105200Y-51386750D01*
X104011450Y-51293000D01*
X103298000Y-51293000D01*
X103298000Y-52006450D01*
X103391750Y-52100200D01*
X103804792Y-52100200D01*
X103942620Y-52043110D01*
X104048110Y-51937621D01*
X104105200Y-51799792D01*
X104105200Y-56803305D01*
X103988464Y-56520783D01*
X103668900Y-56200660D01*
X103251155Y-56027198D01*
X102834000Y-56026833D01*
X102834000Y-54132200D01*
X102915792Y-54132200D01*
X103053620Y-54075110D01*
X103159110Y-53969621D01*
X103216200Y-53831792D01*
X103216200Y-53682608D01*
X103216200Y-52768208D01*
X103159110Y-52630380D01*
X103053621Y-52524890D01*
X102915792Y-52467800D01*
X102766608Y-52467800D01*
X102250998Y-52467800D01*
X102495399Y-52223399D01*
X102592947Y-52077409D01*
X102592948Y-52077408D01*
X102600368Y-52040099D01*
X102603380Y-52043110D01*
X102741208Y-52100200D01*
X103154250Y-52100200D01*
X103248000Y-52006450D01*
X103248000Y-51293000D01*
X103228000Y-51293000D01*
X103228000Y-51243000D01*
X103248000Y-51243000D01*
X103248000Y-50529550D01*
X103154250Y-50435800D01*
X102741208Y-50435800D01*
X102603380Y-50492890D01*
X102600368Y-50495901D01*
X102592947Y-50458591D01*
X102495399Y-50312601D01*
X94148581Y-41965783D01*
X94002591Y-41868235D01*
X93830383Y-41833981D01*
X86298960Y-41833981D01*
X86298960Y-37453524D01*
X86168272Y-37127460D01*
X86156771Y-37110247D01*
X86001720Y-37066636D01*
X85449355Y-37619000D01*
X86001720Y-38171364D01*
X86156771Y-38127753D01*
X86294922Y-37804780D01*
X86298960Y-37453524D01*
X86298960Y-41833981D01*
X86201934Y-41833981D01*
X86296846Y-41605410D01*
X86297153Y-41254131D01*
X86163007Y-40929474D01*
X86027750Y-40793981D01*
X86162134Y-40659832D01*
X86296846Y-40335410D01*
X86297153Y-39984131D01*
X86163007Y-39659474D01*
X86027750Y-39523981D01*
X86162134Y-39389832D01*
X86296846Y-39065410D01*
X86297153Y-38714131D01*
X86163007Y-38389474D01*
X85914832Y-38140866D01*
X85890340Y-38130696D01*
X85414000Y-37654355D01*
X85378645Y-37689710D01*
X85378645Y-37619000D01*
X84826280Y-37066636D01*
X84671229Y-37110247D01*
X84533078Y-37433220D01*
X84529040Y-37784476D01*
X84659728Y-38110540D01*
X84671229Y-38127753D01*
X84826280Y-38171364D01*
X85378645Y-37619000D01*
X85378645Y-37689710D01*
X84938142Y-38130213D01*
X84914474Y-38139993D01*
X84665866Y-38388168D01*
X84531154Y-38712590D01*
X84530847Y-39063869D01*
X84664993Y-39388526D01*
X84800249Y-39524018D01*
X84665866Y-39658168D01*
X84531154Y-39982590D01*
X84530847Y-40333869D01*
X84664993Y-40658526D01*
X84800249Y-40794018D01*
X84665866Y-40928168D01*
X84531154Y-41252590D01*
X84530847Y-41603869D01*
X84625927Y-41833981D01*
X75879047Y-41833981D01*
X73840432Y-39795365D01*
X73960718Y-39745664D01*
X74191448Y-39515337D01*
X74316472Y-39214245D01*
X74316757Y-38888228D01*
X74192258Y-38586918D01*
X73961931Y-38356188D01*
X73660839Y-38231164D01*
X73334822Y-38230879D01*
X73319995Y-38237005D01*
X72309752Y-37226762D01*
X72163762Y-37129214D01*
X71991554Y-37094960D01*
X70238113Y-37094960D01*
X70065905Y-37129214D01*
X69919915Y-37226762D01*
X68996906Y-38149771D01*
X59847378Y-38149771D01*
X59841758Y-38136168D01*
X59611431Y-37905438D01*
X59310339Y-37780414D01*
X58984322Y-37780129D01*
X58803501Y-37854842D01*
X58803501Y-37537244D01*
X59071548Y-37269197D01*
X59169096Y-37123207D01*
X59169096Y-37123206D01*
X59187714Y-37029606D01*
X59216953Y-37017525D01*
X59447683Y-36787198D01*
X59572707Y-36486106D01*
X59572992Y-36160089D01*
X59448493Y-35858779D01*
X59289180Y-35699188D01*
X59518812Y-35699188D01*
X59691019Y-35664934D01*
X59691020Y-35664934D01*
X59837010Y-35567386D01*
X63148397Y-32255999D01*
X84531000Y-32255999D01*
X84531000Y-33121592D01*
X84588090Y-33259420D01*
X84657348Y-33328679D01*
X84531154Y-33632590D01*
X84530847Y-33983869D01*
X84664993Y-34308526D01*
X84800249Y-34444018D01*
X84665866Y-34578168D01*
X84531154Y-34902590D01*
X84530847Y-35253869D01*
X84664993Y-35578526D01*
X84800249Y-35714018D01*
X84665866Y-35848168D01*
X84531154Y-36172590D01*
X84530847Y-36523869D01*
X84664993Y-36848526D01*
X84913168Y-37097134D01*
X84937659Y-37107303D01*
X85414000Y-37583645D01*
X85889857Y-37107786D01*
X85913526Y-37098007D01*
X86162134Y-36849832D01*
X86296846Y-36525410D01*
X86297153Y-36174131D01*
X86163007Y-35849474D01*
X86027750Y-35713981D01*
X86162134Y-35579832D01*
X86296846Y-35255410D01*
X86297153Y-34904131D01*
X86163007Y-34579474D01*
X86027750Y-34443981D01*
X86162134Y-34309832D01*
X86296846Y-33985410D01*
X86297153Y-33634131D01*
X86170857Y-33328473D01*
X86239910Y-33259421D01*
X86297000Y-33121592D01*
X86297000Y-32972408D01*
X86297000Y-32255999D01*
X89828740Y-32255999D01*
X96006530Y-38433788D01*
X96152520Y-38531336D01*
X96152521Y-38531336D01*
X96324728Y-38565590D01*
X97420056Y-38565590D01*
X106645000Y-47790534D01*
X106645000Y-48835800D01*
X106563208Y-48835800D01*
X106425380Y-48892890D01*
X106319890Y-48998379D01*
X106262800Y-49136208D01*
X106262800Y-49285392D01*
X106262800Y-50199792D01*
X106319890Y-50337620D01*
X106425379Y-50443110D01*
X106563208Y-50500200D01*
X106712392Y-50500200D01*
X107626792Y-50500200D01*
X107764620Y-50443110D01*
X107870110Y-50337621D01*
X107927200Y-50199792D01*
X107927200Y-50050608D01*
X107927200Y-49136208D01*
X107870110Y-48998380D01*
X107764621Y-48892890D01*
X107626792Y-48835800D01*
X107545000Y-48835800D01*
X107545000Y-47604138D01*
X107510746Y-47431930D01*
X107413198Y-47285940D01*
X107370000Y-47242742D01*
X107370000Y-27538450D01*
X107370000Y-26825000D01*
X106656550Y-26825000D01*
X106562800Y-26918750D01*
X106562800Y-27182608D01*
X106562800Y-27331792D01*
X106619890Y-27469621D01*
X106725380Y-27575110D01*
X106863208Y-27632200D01*
X107276250Y-27632200D01*
X107370000Y-27538450D01*
X107370000Y-47242742D01*
X98776924Y-38649666D01*
X98947603Y-38579143D01*
X99178333Y-38348816D01*
X99303357Y-38047724D01*
X99303642Y-37721707D01*
X99297515Y-37706880D01*
X105491198Y-31513198D01*
X105588746Y-31367208D01*
X105588747Y-31367207D01*
X105623000Y-31195000D01*
X105623000Y-31148685D01*
X105623000Y-27732200D01*
X105704792Y-27732200D01*
X105842620Y-27675110D01*
X105948110Y-27569621D01*
X106005200Y-27431792D01*
X106005200Y-27282608D01*
X106005200Y-26368208D01*
X105948110Y-26230380D01*
X105856231Y-26138501D01*
X106616525Y-26138501D01*
X106562800Y-26268208D01*
X106562800Y-26417392D01*
X106562800Y-26681250D01*
X106656550Y-26775000D01*
X107370000Y-26775000D01*
X107370000Y-26755000D01*
X107420000Y-26755000D01*
X107420000Y-26775000D01*
X108133450Y-26775000D01*
X108227200Y-26681250D01*
X108227200Y-26417392D01*
X108227200Y-26268208D01*
X108173474Y-26138501D01*
X108394525Y-26138501D01*
X108340800Y-26268208D01*
X108340800Y-26417392D01*
X108340800Y-27331792D01*
X108397890Y-27469620D01*
X108503379Y-27575110D01*
X108641208Y-27632200D01*
X108790392Y-27632200D01*
X109704792Y-27632200D01*
X109842620Y-27575110D01*
X109948110Y-27469621D01*
X110005200Y-27331792D01*
X110005200Y-56963048D01*
X109705200Y-57263048D01*
X109705200Y-50199792D01*
X109705200Y-50050608D01*
X109705200Y-49786750D01*
X109705200Y-49549250D01*
X109705200Y-49285392D01*
X109705200Y-49136208D01*
X109648110Y-48998379D01*
X109542620Y-48892890D01*
X109404792Y-48835800D01*
X108991750Y-48835800D01*
X108898000Y-48929550D01*
X108898000Y-49643000D01*
X109611450Y-49643000D01*
X109705200Y-49549250D01*
X109705200Y-49786750D01*
X109611450Y-49693000D01*
X108898000Y-49693000D01*
X108898000Y-50406450D01*
X108991750Y-50500200D01*
X109404792Y-50500200D01*
X109542620Y-50443110D01*
X109648110Y-50337621D01*
X109705200Y-50199792D01*
X109705200Y-57263048D01*
X109241197Y-57727051D01*
X109241197Y-56938829D01*
X109068464Y-56520783D01*
X108848000Y-56299933D01*
X108848000Y-50406450D01*
X108848000Y-49693000D01*
X108848000Y-49643000D01*
X108848000Y-48929550D01*
X108754250Y-48835800D01*
X108341208Y-48835800D01*
X108227200Y-48883023D01*
X108227200Y-27331792D01*
X108227200Y-27182608D01*
X108227200Y-26918750D01*
X108133450Y-26825000D01*
X107420000Y-26825000D01*
X107420000Y-27538450D01*
X107513750Y-27632200D01*
X107926792Y-27632200D01*
X108064620Y-27575110D01*
X108170110Y-27469621D01*
X108227200Y-27331792D01*
X108227200Y-48883023D01*
X108203380Y-48892890D01*
X108097890Y-48998379D01*
X108040800Y-49136208D01*
X108040800Y-49285392D01*
X108040800Y-49549250D01*
X108134550Y-49643000D01*
X108848000Y-49643000D01*
X108848000Y-49693000D01*
X108134550Y-49693000D01*
X108040800Y-49786750D01*
X108040800Y-50050608D01*
X108040800Y-50199792D01*
X108097890Y-50337621D01*
X108203380Y-50443110D01*
X108341208Y-50500200D01*
X108754250Y-50500200D01*
X108848000Y-50406450D01*
X108848000Y-56299933D01*
X108748900Y-56200660D01*
X108434000Y-56069902D01*
X108434000Y-52532200D01*
X108515792Y-52532200D01*
X108653620Y-52475110D01*
X108759110Y-52369621D01*
X108816200Y-52231792D01*
X108816200Y-52082608D01*
X108816200Y-51168208D01*
X108759110Y-51030380D01*
X108653621Y-50924890D01*
X108515792Y-50867800D01*
X108366608Y-50867800D01*
X107452208Y-50867800D01*
X107314380Y-50924890D01*
X107208890Y-51030379D01*
X107151800Y-51168208D01*
X107151800Y-51317392D01*
X107151800Y-52231792D01*
X107208890Y-52369620D01*
X107314379Y-52475110D01*
X107452208Y-52532200D01*
X107534000Y-52532200D01*
X107534000Y-56169283D01*
X107460783Y-56199536D01*
X107140660Y-56519100D01*
X106967198Y-56936845D01*
X106966803Y-57389171D01*
X107139536Y-57807217D01*
X107459100Y-58127340D01*
X107876845Y-58300802D01*
X108329171Y-58301197D01*
X108747217Y-58128464D01*
X109067340Y-57808900D01*
X109240802Y-57391155D01*
X109241197Y-56938829D01*
X109241197Y-57727051D01*
X106701197Y-60267051D01*
X106701197Y-56938829D01*
X106528464Y-56520783D01*
X106208900Y-56200660D01*
X106034000Y-56128035D01*
X106034000Y-55538500D01*
X106230092Y-55538500D01*
X106367920Y-55481410D01*
X106473410Y-55375921D01*
X106530500Y-55238092D01*
X106530500Y-55088908D01*
X106530500Y-54453908D01*
X106530500Y-53714092D01*
X106530500Y-53564908D01*
X106530500Y-52929908D01*
X106473410Y-52792080D01*
X106367921Y-52686590D01*
X106230092Y-52629500D01*
X106080908Y-52629500D01*
X106034000Y-52629500D01*
X106034000Y-49455383D01*
X105999746Y-49283176D01*
X105999746Y-49283175D01*
X105902198Y-49137185D01*
X96407393Y-39642380D01*
X96261403Y-39544832D01*
X96167802Y-39526213D01*
X96155721Y-39496975D01*
X95925394Y-39266245D01*
X95624302Y-39141221D01*
X95298285Y-39140936D01*
X94996975Y-39265435D01*
X94766245Y-39495762D01*
X94641221Y-39796854D01*
X94640936Y-40122871D01*
X94765435Y-40424181D01*
X94995762Y-40654911D01*
X95296854Y-40779935D01*
X95622871Y-40780220D01*
X95924181Y-40655721D01*
X96036159Y-40543938D01*
X105134000Y-49641779D01*
X105134000Y-52629500D01*
X104937908Y-52629500D01*
X104800080Y-52686590D01*
X104694590Y-52792079D01*
X104637500Y-52929908D01*
X104637500Y-53079092D01*
X104637500Y-53714092D01*
X104694590Y-53851920D01*
X104800079Y-53957410D01*
X104937908Y-54014500D01*
X105087092Y-54014500D01*
X106230092Y-54014500D01*
X106367920Y-53957410D01*
X106473410Y-53851921D01*
X106530500Y-53714092D01*
X106530500Y-54453908D01*
X106473410Y-54316080D01*
X106367921Y-54210590D01*
X106230092Y-54153500D01*
X106080908Y-54153500D01*
X104937908Y-54153500D01*
X104800080Y-54210590D01*
X104694590Y-54316079D01*
X104637500Y-54453908D01*
X104637500Y-54603092D01*
X104637500Y-55238092D01*
X104694590Y-55375920D01*
X104800079Y-55481410D01*
X104937908Y-55538500D01*
X105087092Y-55538500D01*
X105134000Y-55538500D01*
X105134000Y-56111436D01*
X104920783Y-56199536D01*
X104600660Y-56519100D01*
X104427198Y-56936845D01*
X104426803Y-57389171D01*
X104599536Y-57807217D01*
X104919100Y-58127340D01*
X105336845Y-58300802D01*
X105789171Y-58301197D01*
X106207217Y-58128464D01*
X106527340Y-57808900D01*
X106700802Y-57391155D01*
X106701197Y-56938829D01*
X106701197Y-60267051D01*
X106483248Y-60485000D01*
X101621197Y-60485000D01*
X101621197Y-56938829D01*
X101448464Y-56520783D01*
X101128900Y-56200660D01*
X100711155Y-56027198D01*
X100258829Y-56026803D01*
X99840783Y-56199536D01*
X99520660Y-56519100D01*
X99347198Y-56936845D01*
X99346803Y-57389171D01*
X99519536Y-57807217D01*
X99839100Y-58127340D01*
X100256845Y-58300802D01*
X100709171Y-58301197D01*
X101127217Y-58128464D01*
X101447340Y-57808900D01*
X101620802Y-57391155D01*
X101621197Y-56938829D01*
X101621197Y-60485000D01*
X74267410Y-60485000D01*
X74267410Y-55743738D01*
X74083101Y-55297675D01*
X73742120Y-54956099D01*
X73296379Y-54771011D01*
X72813738Y-54770590D01*
X72367675Y-54954899D01*
X72026099Y-55295880D01*
X71841011Y-55741621D01*
X71840590Y-56224262D01*
X72024899Y-56670325D01*
X72365880Y-57011901D01*
X72811621Y-57196989D01*
X73294262Y-57197410D01*
X73740325Y-57013101D01*
X74081901Y-56672120D01*
X74266989Y-56226379D01*
X74267410Y-55743738D01*
X74267410Y-60485000D01*
X71727410Y-60485000D01*
X71727410Y-55743738D01*
X71543101Y-55297675D01*
X71202120Y-54956099D01*
X70756379Y-54771011D01*
X70273738Y-54770590D01*
X69827675Y-54954899D01*
X69486099Y-55295880D01*
X69301011Y-55741621D01*
X69300590Y-56224262D01*
X69484899Y-56670325D01*
X69825880Y-57011901D01*
X70271621Y-57196989D01*
X70754262Y-57197410D01*
X71200325Y-57013101D01*
X71541901Y-56672120D01*
X71726989Y-56226379D01*
X71727410Y-55743738D01*
X71727410Y-60485000D01*
X48710600Y-60485000D01*
X48710600Y-55546451D01*
X48710600Y-55187149D01*
X48616317Y-54713157D01*
X48347822Y-54311327D01*
X47945992Y-54042832D01*
X47472000Y-53948549D01*
X46998008Y-54042832D01*
X46596178Y-54311327D01*
X46327683Y-54713157D01*
X46233400Y-55187149D01*
X46233400Y-55546451D01*
X46327683Y-56020443D01*
X46596178Y-56422273D01*
X46998008Y-56690768D01*
X47472000Y-56785051D01*
X47945992Y-56690768D01*
X48347822Y-56422273D01*
X48616317Y-56020443D01*
X48710600Y-55546451D01*
X48710600Y-60485000D01*
X46170600Y-60485000D01*
X46170600Y-55546451D01*
X46170600Y-55187149D01*
X46076317Y-54713157D01*
X45807822Y-54311327D01*
X45405992Y-54042832D01*
X44932000Y-53948549D01*
X44458008Y-54042832D01*
X44056178Y-54311327D01*
X43787683Y-54713157D01*
X43693400Y-55187149D01*
X43693400Y-55546451D01*
X43787683Y-56020443D01*
X44056178Y-56422273D01*
X44458008Y-56690768D01*
X44932000Y-56785051D01*
X45405992Y-56690768D01*
X45807822Y-56422273D01*
X46076317Y-56020443D01*
X46170600Y-55546451D01*
X46170600Y-60485000D01*
X43630600Y-60485000D01*
X43630600Y-55544200D01*
X43630600Y-55391800D01*
X43630600Y-55341800D01*
X43630600Y-55189400D01*
X43526750Y-54717311D01*
X43250145Y-54320900D01*
X42842895Y-54060516D01*
X42610413Y-53995209D01*
X42417000Y-54069823D01*
X42417000Y-55341800D01*
X43630600Y-55341800D01*
X43630600Y-55391800D01*
X42417000Y-55391800D01*
X42417000Y-56663777D01*
X42610413Y-56738391D01*
X42842895Y-56673084D01*
X43250145Y-56412700D01*
X43526750Y-56016289D01*
X43630600Y-55544200D01*
X43630600Y-60485000D01*
X42367000Y-60485000D01*
X42367000Y-56663777D01*
X42367000Y-55391800D01*
X42367000Y-55341800D01*
X42367000Y-54069823D01*
X42173587Y-53995209D01*
X41941105Y-54060516D01*
X41533855Y-54320900D01*
X41257250Y-54717311D01*
X41153400Y-55189400D01*
X41153400Y-55341800D01*
X42367000Y-55341800D01*
X42367000Y-55391800D01*
X41153400Y-55391800D01*
X41153400Y-55544200D01*
X41257250Y-56016289D01*
X41533855Y-56412700D01*
X41941105Y-56673084D01*
X42173587Y-56738391D01*
X42367000Y-56663777D01*
X42367000Y-60485000D01*
X29359622Y-60485000D01*
X29359622Y-43220341D01*
X29359622Y-38821061D01*
X29234352Y-38517883D01*
X29002597Y-38285723D01*
X28699639Y-38159924D01*
X28371601Y-38159638D01*
X28068423Y-38284908D01*
X27836263Y-38516663D01*
X27710464Y-38819621D01*
X27710178Y-39147659D01*
X27835448Y-39450837D01*
X28067203Y-39682997D01*
X28370161Y-39808796D01*
X28698199Y-39809082D01*
X29001377Y-39683812D01*
X29233537Y-39452057D01*
X29359336Y-39149099D01*
X29359622Y-38821061D01*
X29359622Y-43220341D01*
X29234352Y-42917163D01*
X29002597Y-42685003D01*
X28699639Y-42559204D01*
X28371601Y-42558918D01*
X28068423Y-42684188D01*
X27836263Y-42915943D01*
X27710464Y-43218901D01*
X27710178Y-43546939D01*
X27835448Y-43850117D01*
X28067203Y-44082277D01*
X28370161Y-44208076D01*
X28698199Y-44208362D01*
X29001377Y-44083092D01*
X29233537Y-43851337D01*
X29359336Y-43548379D01*
X29359622Y-43220341D01*
X29359622Y-60485000D01*
X28136751Y-60485000D01*
X26972829Y-59321077D01*
X26972829Y-33356460D01*
X26915738Y-33218631D01*
X26810249Y-33113142D01*
X26453048Y-32755942D01*
X26320466Y-32755942D01*
X26285110Y-32791297D01*
X26285110Y-32720586D01*
X26285110Y-32588004D01*
X25927910Y-32230803D01*
X25822421Y-32125314D01*
X25684592Y-32068223D01*
X25535407Y-32068224D01*
X25397579Y-32125314D01*
X24934890Y-32588004D01*
X24934890Y-32720586D01*
X25610000Y-33395697D01*
X26285110Y-32720586D01*
X26285110Y-32791297D01*
X25645355Y-33431052D01*
X26320466Y-34106162D01*
X26453048Y-34106162D01*
X26915738Y-33643473D01*
X26972828Y-33505645D01*
X26972829Y-33356460D01*
X26972829Y-59321077D01*
X26285110Y-58633358D01*
X26285110Y-34274100D01*
X26285110Y-34141518D01*
X25610000Y-33466407D01*
X24934890Y-34141518D01*
X24934890Y-34274100D01*
X25292090Y-34631301D01*
X25397579Y-34736790D01*
X25535408Y-34793881D01*
X25684593Y-34793880D01*
X25822421Y-34736790D01*
X26285110Y-34274100D01*
X26285110Y-58633358D01*
X24605000Y-56953248D01*
X24605000Y-33944210D01*
X24766952Y-34106162D01*
X24899534Y-34106162D01*
X25574645Y-33431052D01*
X24899534Y-32755942D01*
X24766952Y-32755942D01*
X24605000Y-32917893D01*
X24605000Y-30217778D01*
X24699400Y-30446244D01*
X25001117Y-30748488D01*
X25395531Y-30912263D01*
X25822596Y-30912636D01*
X26217294Y-30749550D01*
X26519538Y-30447833D01*
X26683313Y-30053419D01*
X26683686Y-29626354D01*
X26520600Y-29231656D01*
X26218883Y-28929412D01*
X26112000Y-28885030D01*
X26112000Y-28310000D01*
X26073788Y-28117893D01*
X26073788Y-28117892D01*
X26030200Y-28052659D01*
X25964968Y-27955032D01*
X25964964Y-27955029D01*
X25712000Y-27702064D01*
X25712000Y-21703535D01*
X26056184Y-21359351D01*
X25965749Y-21814000D01*
X26060032Y-22287992D01*
X26328527Y-22689822D01*
X26730357Y-22958317D01*
X27204349Y-23052600D01*
X27563651Y-23052600D01*
X28037643Y-22958317D01*
X28279791Y-22796518D01*
X28286254Y-22829008D01*
X28383802Y-22974998D01*
X29312803Y-23904000D01*
X28712740Y-23904000D01*
X28707968Y-23880008D01*
X28439473Y-23478178D01*
X28037643Y-23209683D01*
X27563651Y-23115400D01*
X27204349Y-23115400D01*
X26730357Y-23209683D01*
X26328527Y-23478178D01*
X26060032Y-23880008D01*
X25965749Y-24354000D01*
X26060032Y-24827992D01*
X26328527Y-25229822D01*
X26730357Y-25498317D01*
X27204349Y-25592600D01*
X27563651Y-25592600D01*
X28037643Y-25498317D01*
X28439473Y-25229822D01*
X28707968Y-24827992D01*
X28712740Y-24804000D01*
X29247604Y-24804000D01*
X34930106Y-30486502D01*
X28755591Y-30486502D01*
X28755591Y-27112413D01*
X28755591Y-26675587D01*
X28690284Y-26443105D01*
X28429900Y-26035855D01*
X28033489Y-25759250D01*
X27561400Y-25655400D01*
X27409000Y-25655400D01*
X27409000Y-26869000D01*
X28680977Y-26869000D01*
X28755591Y-26675587D01*
X28755591Y-27112413D01*
X28680977Y-26919000D01*
X27409000Y-26919000D01*
X27409000Y-28132600D01*
X27561400Y-28132600D01*
X28033489Y-28028750D01*
X28429900Y-27752145D01*
X28690284Y-27344895D01*
X28755591Y-27112413D01*
X28755591Y-30486502D01*
X28104550Y-30486502D01*
X27932342Y-30520756D01*
X27786352Y-30618304D01*
X27777700Y-30626955D01*
X27620520Y-30561688D01*
X27359000Y-30561459D01*
X27359000Y-28132600D01*
X27359000Y-26919000D01*
X27359000Y-26869000D01*
X27359000Y-25655400D01*
X27206600Y-25655400D01*
X26734511Y-25759250D01*
X26338100Y-26035855D01*
X26077716Y-26443105D01*
X26012409Y-26675587D01*
X26087023Y-26869000D01*
X27359000Y-26869000D01*
X27359000Y-26919000D01*
X26087023Y-26919000D01*
X26012409Y-27112413D01*
X26077716Y-27344895D01*
X26338100Y-27752145D01*
X26734511Y-28028750D01*
X27206600Y-28132600D01*
X27359000Y-28132600D01*
X27359000Y-30561459D01*
X27193455Y-30561315D01*
X26798757Y-30724401D01*
X26496513Y-31026118D01*
X26332738Y-31420532D01*
X26332365Y-31847597D01*
X26495451Y-32242295D01*
X26797168Y-32544539D01*
X27191582Y-32708314D01*
X27618647Y-32708687D01*
X28013345Y-32545601D01*
X28315589Y-32243884D01*
X28479364Y-31849470D01*
X28479737Y-31422405D01*
X28464902Y-31386502D01*
X34950106Y-31386502D01*
X40926953Y-37363349D01*
X40939755Y-37427709D01*
X40992775Y-37507058D01*
X40980643Y-37536276D01*
X40980358Y-37862293D01*
X41104857Y-38163603D01*
X41335184Y-38394333D01*
X41636276Y-38519357D01*
X41962293Y-38519642D01*
X42263603Y-38395143D01*
X42494333Y-38164816D01*
X42527806Y-38084202D01*
X43745792Y-39302188D01*
X43891782Y-39399736D01*
X44063990Y-39433990D01*
X44384191Y-39433990D01*
X44484010Y-39433990D01*
X44511429Y-39433990D01*
X44683636Y-39399736D01*
X44683637Y-39399736D01*
X44829627Y-39302188D01*
X45134453Y-38997361D01*
X45148046Y-39003006D01*
X45474063Y-39003291D01*
X45775373Y-38878792D01*
X46006103Y-38648465D01*
X46131127Y-38347373D01*
X46131412Y-38021356D01*
X46006913Y-37720046D01*
X45776586Y-37489316D01*
X45475494Y-37364292D01*
X45149477Y-37364007D01*
X44848167Y-37488506D01*
X44741256Y-37595229D01*
X44713399Y-37527809D01*
X44483072Y-37297079D01*
X44181980Y-37172055D01*
X43855963Y-37171770D01*
X43854125Y-37172529D01*
X36292600Y-29611004D01*
X36292600Y-16861400D01*
X36292600Y-16709000D01*
X36292600Y-16659000D01*
X36292600Y-16506600D01*
X36188750Y-16034511D01*
X35912145Y-15638100D01*
X35504895Y-15377716D01*
X35272413Y-15312409D01*
X35079000Y-15387023D01*
X35079000Y-16659000D01*
X36292600Y-16659000D01*
X36292600Y-16709000D01*
X35079000Y-16709000D01*
X35079000Y-17980977D01*
X35272413Y-18055591D01*
X35504895Y-17990284D01*
X35912145Y-17729900D01*
X36188750Y-17333489D01*
X36292600Y-16861400D01*
X36292600Y-29611004D01*
X35029000Y-28347404D01*
X35029000Y-17980977D01*
X35029000Y-16709000D01*
X35029000Y-16659000D01*
X35029000Y-15387023D01*
X34835587Y-15312409D01*
X34603105Y-15377716D01*
X34195855Y-15638100D01*
X33919250Y-16034511D01*
X33815400Y-16506600D01*
X33815400Y-16659000D01*
X35029000Y-16659000D01*
X35029000Y-16709000D01*
X33815400Y-16709000D01*
X33815400Y-16861400D01*
X33919250Y-17333489D01*
X34195855Y-17729900D01*
X34603105Y-17990284D01*
X34835587Y-18055591D01*
X35029000Y-17980977D01*
X35029000Y-28347404D01*
X33752600Y-27071004D01*
X33752600Y-16863651D01*
X33752600Y-16504349D01*
X33658317Y-16030357D01*
X33389822Y-15628527D01*
X32987992Y-15360032D01*
X32514000Y-15265749D01*
X32040008Y-15360032D01*
X31638178Y-15628527D01*
X31369683Y-16030357D01*
X31275400Y-16504349D01*
X31275400Y-16863651D01*
X31369683Y-17337643D01*
X31638178Y-17739473D01*
X32040008Y-18007968D01*
X32514000Y-18102251D01*
X32987992Y-18007968D01*
X33389822Y-17739473D01*
X33658317Y-17337643D01*
X33752600Y-16863651D01*
X33752600Y-27071004D01*
X31212600Y-24531004D01*
X31212600Y-16863651D01*
X31212600Y-16504349D01*
X31118317Y-16030357D01*
X30849822Y-15628527D01*
X30447992Y-15360032D01*
X29974000Y-15265749D01*
X29500008Y-15360032D01*
X29098178Y-15628527D01*
X28829683Y-16030357D01*
X28735400Y-16504349D01*
X28735400Y-16863651D01*
X28829683Y-17337643D01*
X29098178Y-17739473D01*
X29500008Y-18007968D01*
X29974000Y-18102251D01*
X30447992Y-18007968D01*
X30849822Y-17739473D01*
X31118317Y-17337643D01*
X31212600Y-16863651D01*
X31212600Y-24531004D01*
X29152000Y-22470404D01*
X29152000Y-21966000D01*
X29117746Y-21793792D01*
X29020198Y-21647802D01*
X28868198Y-21495802D01*
X28722208Y-21398254D01*
X28719444Y-21397704D01*
X28707968Y-21340008D01*
X28439473Y-20938178D01*
X28037643Y-20669683D01*
X27563651Y-20575400D01*
X27204349Y-20575400D01*
X26749699Y-20665835D01*
X26902935Y-20512600D01*
X28474592Y-20512600D01*
X28612420Y-20455510D01*
X28717910Y-20350021D01*
X28775000Y-20212192D01*
X28775000Y-20063008D01*
X28775000Y-18335808D01*
X28717910Y-18197980D01*
X28612421Y-18092490D01*
X28474592Y-18035400D01*
X28467795Y-18035400D01*
X28510020Y-18017910D01*
X28615510Y-17912421D01*
X28672600Y-17774592D01*
X28672600Y-17625408D01*
X28672600Y-15593408D01*
X28615510Y-15455580D01*
X28510021Y-15350090D01*
X28372192Y-15293000D01*
X28223008Y-15293000D01*
X26495808Y-15293000D01*
X26357980Y-15350090D01*
X26252490Y-15455579D01*
X26195400Y-15593408D01*
X26195400Y-15742592D01*
X26195400Y-17774592D01*
X26252490Y-17912420D01*
X26357979Y-18017910D01*
X26400204Y-18035400D01*
X26293408Y-18035400D01*
X26155580Y-18092490D01*
X26050090Y-18197979D01*
X25993000Y-18335808D01*
X25993000Y-18484992D01*
X25993000Y-20002664D01*
X24855032Y-21140632D01*
X24746212Y-21303493D01*
X24707999Y-21495600D01*
X24708000Y-21495605D01*
X24708000Y-27909994D01*
X24707999Y-27910000D01*
X24746212Y-28102107D01*
X24855032Y-28264968D01*
X25108000Y-28517935D01*
X25108000Y-28884843D01*
X25002706Y-28928350D01*
X24700462Y-29230067D01*
X24605000Y-29459965D01*
X24605000Y-16706751D01*
X28136751Y-13175000D01*
X106483248Y-13175000D01*
X110015000Y-16706751D01*
X110015000Y-56953248D01*
M02*
