%FSLAX46Y46*%
G04 Gerber Fmt 4.6, Leading zero omitted, Abs format (unit mm)*
G04 Created by KiCad (PCBNEW (2014-08-02 BZR 5044)-product) date 13.08.2014 13:27:26*
%MOMM*%
G01*
G04 APERTURE LIST*
%ADD10C,0.150000*%
%ADD11C,0.200000*%
%ADD12C,0.119380*%
%ADD13C,0.203200*%
%ADD14C,0.127000*%
%ADD15C,0.381000*%
%ADD16C,0.066040*%
%ADD17C,0.101600*%
%ADD18C,0.254000*%
%ADD19C,0.152400*%
%ADD20C,0.114300*%
%ADD21C,0.088900*%
%ADD22C,0.304800*%
%ADD23C,0.129540*%
G04 APERTURE END LIST*
D10*
D11*
X32735000Y-20700000D02*
X33235000Y-21200000D01*
X32535000Y-20900000D02*
X32735000Y-20700000D01*
X32735000Y-20500000D02*
X32535000Y-20900000D01*
X32835000Y-20900000D02*
X32735000Y-20500000D01*
X32435000Y-20900000D02*
X32835000Y-20900000D01*
X32735000Y-20200000D02*
X32435000Y-20900000D01*
X33035000Y-21000000D02*
X32735000Y-20200000D01*
X32435000Y-21000000D02*
X33035000Y-21000000D01*
X32135000Y-21200000D02*
X32435000Y-21000000D01*
X33235000Y-21200000D02*
X32135000Y-21200000D01*
X32735000Y-19900000D02*
X33235000Y-21200000D01*
X32135000Y-21200000D02*
X32735000Y-19900000D01*
D12*
X48150240Y-33399620D02*
X48150240Y-32701120D01*
X48150240Y-34400380D02*
X48150240Y-35098880D01*
X46849760Y-33399620D02*
X46849760Y-32701120D01*
X46849760Y-35098880D02*
X46849760Y-34400380D01*
X46865000Y-32701120D02*
X48135000Y-32701120D01*
X48135000Y-35098880D02*
X46865000Y-35098880D01*
D13*
X61263720Y-32617280D02*
G75*
G03X61263720Y-32617280I-381000J0D01*
G74*
G01*
X51738720Y-41761280D02*
X61898720Y-41761280D01*
X61898720Y-41761280D02*
X61898720Y-32236280D01*
X61898720Y-32236280D02*
X61263720Y-31601280D01*
X61263720Y-31601280D02*
X51738720Y-31601280D01*
X51738720Y-31601280D02*
X51738720Y-41761280D01*
D10*
X87446000Y-32666000D02*
X87446000Y-43334000D01*
X87446000Y-43334000D02*
X85668000Y-43334000D01*
X85668000Y-43334000D02*
X85414000Y-43334000D01*
X85414000Y-43334000D02*
X85414000Y-32666000D01*
X85414000Y-32666000D02*
X87446000Y-32666000D01*
D14*
X68743000Y-40212800D02*
X68743000Y-38587200D01*
X66457000Y-38587200D02*
X66457000Y-40212800D01*
X65999800Y-38587200D02*
X65999800Y-40212800D01*
X65999800Y-40212800D02*
X69200200Y-40212800D01*
X69200200Y-40212800D02*
X69200200Y-38587200D01*
X69200200Y-38587200D02*
X65999800Y-38587200D01*
X29243000Y-56612800D02*
X29243000Y-54987200D01*
X26957000Y-54987200D02*
X26957000Y-56612800D01*
X26499800Y-54987200D02*
X26499800Y-56612800D01*
X26499800Y-56612800D02*
X29700200Y-56612800D01*
X29700200Y-56612800D02*
X29700200Y-54987200D01*
X29700200Y-54987200D02*
X26499800Y-54987200D01*
D15*
X15800820Y-33849360D02*
X15800820Y-41550640D01*
X14800060Y-33849360D02*
X14800060Y-41550640D01*
X14800060Y-41550640D02*
X23999940Y-41550640D01*
X23999940Y-41550640D02*
X23999940Y-33849360D01*
X23999940Y-33849360D02*
X14800060Y-33849360D01*
D16*
X25750420Y-59249580D02*
X25750420Y-58350420D01*
X25750420Y-58350420D02*
X25351640Y-58350420D01*
X25351640Y-59249580D02*
X25351640Y-58350420D01*
X25750420Y-59249580D02*
X25351640Y-59249580D01*
X27048360Y-59249580D02*
X27048360Y-58350420D01*
X27048360Y-58350420D02*
X26649580Y-58350420D01*
X26649580Y-59249580D02*
X26649580Y-58350420D01*
X27048360Y-59249580D02*
X26649580Y-59249580D01*
X26200000Y-59249580D02*
X26200000Y-59099720D01*
X26200000Y-59099720D02*
X25900280Y-59099720D01*
X25900280Y-59249580D02*
X25900280Y-59099720D01*
X26200000Y-59249580D02*
X25900280Y-59249580D01*
X26200000Y-58500280D02*
X26200000Y-58350420D01*
X26200000Y-58350420D02*
X25900280Y-58350420D01*
X25900280Y-58500280D02*
X25900280Y-58350420D01*
X26200000Y-58500280D02*
X25900280Y-58500280D01*
X26200000Y-58949860D02*
X26200000Y-58650140D01*
X26200000Y-58650140D02*
X25900280Y-58650140D01*
X25900280Y-58949860D02*
X25900280Y-58650140D01*
X26200000Y-58949860D02*
X25900280Y-58949860D01*
D17*
X25750420Y-59198780D02*
X26649580Y-59198780D01*
X25750420Y-58401220D02*
X26649580Y-58401220D01*
D16*
X74049580Y-34250420D02*
X74049580Y-35149580D01*
X74049580Y-35149580D02*
X74448360Y-35149580D01*
X74448360Y-34250420D02*
X74448360Y-35149580D01*
X74049580Y-34250420D02*
X74448360Y-34250420D01*
X72751640Y-34250420D02*
X72751640Y-35149580D01*
X72751640Y-35149580D02*
X73150420Y-35149580D01*
X73150420Y-34250420D02*
X73150420Y-35149580D01*
X72751640Y-34250420D02*
X73150420Y-34250420D01*
X73600000Y-34250420D02*
X73600000Y-34400280D01*
X73600000Y-34400280D02*
X73899720Y-34400280D01*
X73899720Y-34250420D02*
X73899720Y-34400280D01*
X73600000Y-34250420D02*
X73899720Y-34250420D01*
X73600000Y-34999720D02*
X73600000Y-35149580D01*
X73600000Y-35149580D02*
X73899720Y-35149580D01*
X73899720Y-34999720D02*
X73899720Y-35149580D01*
X73600000Y-34999720D02*
X73899720Y-34999720D01*
X73600000Y-34550140D02*
X73600000Y-34849860D01*
X73600000Y-34849860D02*
X73899720Y-34849860D01*
X73899720Y-34550140D02*
X73899720Y-34849860D01*
X73600000Y-34550140D02*
X73899720Y-34550140D01*
D17*
X74049580Y-34301220D02*
X73150420Y-34301220D01*
X74049580Y-35098780D02*
X73150420Y-35098780D01*
D18*
X74628800Y-58270000D02*
X74628800Y-55730000D01*
D19*
X71883136Y-56024473D02*
G75*
G03X71530000Y-57000000I1170864J-975527D01*
G74*
G01*
X71531889Y-57000469D02*
G75*
G03X71916080Y-58010920I1522111J469D01*
G74*
G01*
X74576147Y-56999966D02*
G75*
G03X74209700Y-56009400I-1522147J-34D01*
G74*
G01*
X74224864Y-57975527D02*
G75*
G03X74578000Y-57000000I-1170864J975527D01*
G74*
G01*
X74293166Y-56112845D02*
G75*
G03X73054000Y-55476000I-1239166J-887155D01*
G74*
G01*
X73053199Y-55476000D02*
G75*
G03X71834800Y-56085600I801J-1524000D01*
G74*
G01*
X73054442Y-58522206D02*
G75*
G03X74255420Y-57934720I-442J1522206D01*
G74*
G01*
X71851436Y-57936171D02*
G75*
G03X73054000Y-58524000I1202564J936171D01*
G74*
G01*
X73054000Y-56365000D02*
G75*
G03X72419000Y-57000000I0J-635000D01*
G74*
G01*
X73054000Y-55984000D02*
G75*
G03X72038000Y-57000000I0J-1016000D01*
G74*
G01*
X73054000Y-57635000D02*
G75*
G03X73689000Y-57000000I0J635000D01*
G74*
G01*
X73054000Y-58016000D02*
G75*
G03X74070000Y-57000000I0J1016000D01*
G74*
G01*
D18*
X74612880Y-55696574D02*
G75*
G03X73054000Y-54968000I-1558880J-1303426D01*
G74*
G01*
X73053025Y-54970540D02*
G75*
G03X71263300Y-56044960I975J-2029460D01*
G74*
G01*
X73056552Y-59029386D02*
G75*
G03X74603400Y-58310640I-2552J2029386D01*
G74*
G01*
X71290701Y-58009851D02*
G75*
G03X73054000Y-59032000I1763299J1009851D01*
G74*
G01*
X71264870Y-56036653D02*
G75*
G03X71022000Y-57000000I1789130J-963347D01*
G74*
G01*
X71023077Y-57000100D02*
G75*
G03X71324260Y-58064260I2030923J100D01*
G74*
G01*
X39960000Y-17770000D02*
X47580000Y-17770000D01*
X39960000Y-15230000D02*
X47580000Y-15230000D01*
X37420000Y-15230000D02*
X39960000Y-15230000D01*
X47580000Y-17770000D02*
X47580000Y-15230000D01*
X39960000Y-15230000D02*
X39960000Y-17770000D01*
X37420000Y-15230000D02*
X37420000Y-17770000D01*
X37420000Y-17770000D02*
X39960000Y-17770000D01*
X14230000Y-20660000D02*
X14230000Y-28280000D01*
X16770000Y-20660000D02*
X16770000Y-28280000D01*
X16770000Y-18120000D02*
X16770000Y-20660000D01*
X14230000Y-28280000D02*
X16770000Y-28280000D01*
X16770000Y-20660000D02*
X14230000Y-20660000D01*
X16770000Y-18120000D02*
X14230000Y-18120000D01*
X14230000Y-18120000D02*
X14230000Y-20660000D01*
X58840000Y-25840000D02*
X79160000Y-25840000D01*
X76620000Y-20760000D02*
X58840000Y-20760000D01*
X58840000Y-25840000D02*
X58840000Y-20760000D01*
X79160000Y-25840000D02*
X79160000Y-23300000D01*
X79160000Y-20760000D02*
X76620000Y-20760000D01*
X79160000Y-23300000D02*
X76620000Y-23300000D01*
X76620000Y-23300000D02*
X76620000Y-20760000D01*
X79160000Y-20760000D02*
X79160000Y-23300000D01*
D13*
X25244000Y-51324000D02*
X25244000Y-54372000D01*
X25244000Y-54372000D02*
X32356000Y-54372000D01*
X32356000Y-54372000D02*
X32356000Y-51324000D01*
X25244000Y-48276000D02*
X25244000Y-47514000D01*
X25244000Y-47514000D02*
X26768000Y-45228000D01*
X26768000Y-45228000D02*
X30832000Y-45228000D01*
X30832000Y-45228000D02*
X32356000Y-47514000D01*
X32356000Y-47514000D02*
X32356000Y-48276000D01*
D10*
X61253000Y-53251000D02*
X61253000Y-52870000D01*
X61253000Y-49949000D02*
X61253000Y-50330000D01*
X51347000Y-49949000D02*
X51347000Y-50330000D01*
X51347000Y-53251000D02*
X51347000Y-52870000D01*
X50585000Y-54140000D02*
X50585000Y-52870000D01*
X50585000Y-49060000D02*
X50585000Y-50330000D01*
X62015000Y-49060000D02*
X62015000Y-50330000D01*
X62015000Y-54140000D02*
X62015000Y-52870000D01*
X61253000Y-49949000D02*
X60618000Y-49314000D01*
X60618000Y-49314000D02*
X51982000Y-49314000D01*
X51982000Y-49314000D02*
X51347000Y-49949000D01*
X51347000Y-53251000D02*
X51982000Y-53886000D01*
X51982000Y-53886000D02*
X60618000Y-53886000D01*
X60618000Y-53886000D02*
X61253000Y-53251000D01*
X50585000Y-49060000D02*
X62015000Y-49060000D01*
X62015000Y-54140000D02*
X50585000Y-54140000D01*
D15*
X22499920Y-49698840D02*
X18700080Y-49698840D01*
X22499920Y-56399360D02*
X22499920Y-51400640D01*
X18700080Y-56396820D02*
X18700080Y-51398100D01*
X23503220Y-49195920D02*
X22403400Y-49195920D01*
X23002840Y-48596480D02*
X23002840Y-49795360D01*
D18*
X20920000Y-13636000D02*
X18380000Y-16176000D01*
X18380000Y-13636000D02*
X20920000Y-16176000D01*
X19523000Y-13509000D02*
X19523000Y-7667000D01*
X19523000Y-7667000D02*
X19777000Y-7667000D01*
X19777000Y-7667000D02*
X19777000Y-13509000D01*
X19777000Y-13509000D02*
X19650000Y-13509000D01*
X19650000Y-13509000D02*
X19650000Y-7667000D01*
X19396000Y-16176000D02*
X19396000Y-16557000D01*
X19904000Y-16176000D02*
X19904000Y-16557000D01*
X21936000Y-16176000D02*
X21936000Y-16557000D01*
X22444000Y-16176000D02*
X22444000Y-16557000D01*
X24476000Y-16176000D02*
X24476000Y-16557000D01*
X24984000Y-16176000D02*
X24984000Y-16557000D01*
X32604000Y-16176000D02*
X32604000Y-16557000D01*
X32096000Y-16176000D02*
X32096000Y-16557000D01*
X30064000Y-16176000D02*
X30064000Y-16557000D01*
X29556000Y-16176000D02*
X29556000Y-16557000D01*
X27524000Y-16176000D02*
X27524000Y-16557000D01*
X27016000Y-16176000D02*
X27016000Y-16557000D01*
X18380000Y-16176000D02*
X18380000Y-13636000D01*
X20920000Y-16176000D02*
X20920000Y-13636000D01*
X20920000Y-16176000D02*
X23460000Y-16176000D01*
X23460000Y-16176000D02*
X23460000Y-13636000D01*
X21936000Y-13636000D02*
X21936000Y-7540000D01*
X21936000Y-7540000D02*
X22444000Y-7540000D01*
X22444000Y-7540000D02*
X22444000Y-13636000D01*
X23460000Y-13636000D02*
X20920000Y-13636000D01*
X20920000Y-13636000D02*
X18380000Y-13636000D01*
X19904000Y-7540000D02*
X19904000Y-13636000D01*
X19396000Y-7540000D02*
X19904000Y-7540000D01*
X19396000Y-13636000D02*
X19396000Y-7540000D01*
X20920000Y-16176000D02*
X20920000Y-13636000D01*
X18380000Y-16176000D02*
X20920000Y-16176000D01*
X28540000Y-16176000D02*
X28540000Y-13636000D01*
X28540000Y-16176000D02*
X31080000Y-16176000D01*
X31080000Y-16176000D02*
X31080000Y-13636000D01*
X29556000Y-13636000D02*
X29556000Y-7540000D01*
X29556000Y-7540000D02*
X30064000Y-7540000D01*
X30064000Y-7540000D02*
X30064000Y-13636000D01*
X31080000Y-13636000D02*
X28540000Y-13636000D01*
X33620000Y-13636000D02*
X31080000Y-13636000D01*
X32604000Y-7540000D02*
X32604000Y-13636000D01*
X32096000Y-7540000D02*
X32604000Y-7540000D01*
X32096000Y-13636000D02*
X32096000Y-7540000D01*
X33620000Y-16176000D02*
X33620000Y-13636000D01*
X31080000Y-16176000D02*
X33620000Y-16176000D01*
X31080000Y-16176000D02*
X31080000Y-13636000D01*
X26000000Y-16176000D02*
X26000000Y-13636000D01*
X26000000Y-16176000D02*
X28540000Y-16176000D01*
X28540000Y-16176000D02*
X28540000Y-13636000D01*
X27016000Y-13636000D02*
X27016000Y-7540000D01*
X27016000Y-7540000D02*
X27524000Y-7540000D01*
X27524000Y-7540000D02*
X27524000Y-13636000D01*
X28540000Y-13636000D02*
X26000000Y-13636000D01*
X26000000Y-13636000D02*
X23460000Y-13636000D01*
X24984000Y-7540000D02*
X24984000Y-13636000D01*
X24476000Y-7540000D02*
X24984000Y-7540000D01*
X24476000Y-13636000D02*
X24476000Y-7540000D01*
X26000000Y-16176000D02*
X26000000Y-13636000D01*
X23460000Y-16176000D02*
X26000000Y-16176000D01*
X23460000Y-16176000D02*
X23460000Y-13636000D01*
D14*
X30600380Y-59898500D02*
X31306500Y-59898500D01*
X31306500Y-59898500D02*
X31306500Y-58501500D01*
X31306500Y-58501500D02*
X30600380Y-58501500D01*
X28893500Y-59898500D02*
X29599620Y-59898500D01*
X28893500Y-59898500D02*
X28893500Y-58501500D01*
X28893500Y-58501500D02*
X29599620Y-58501500D01*
X39498500Y-31399620D02*
X39498500Y-30693500D01*
X39498500Y-30693500D02*
X38101500Y-30693500D01*
X38101500Y-30693500D02*
X38101500Y-31399620D01*
X39498500Y-33106500D02*
X39498500Y-32400380D01*
X39498500Y-33106500D02*
X38101500Y-33106500D01*
X38101500Y-33106500D02*
X38101500Y-32400380D01*
X70199620Y-34001500D02*
X69493500Y-34001500D01*
X69493500Y-34001500D02*
X69493500Y-35398500D01*
X69493500Y-35398500D02*
X70199620Y-35398500D01*
X71906500Y-34001500D02*
X71200380Y-34001500D01*
X71906500Y-34001500D02*
X71906500Y-35398500D01*
X71906500Y-35398500D02*
X71200380Y-35398500D01*
X64760000Y-55857000D02*
X64760000Y-58143000D01*
X64760000Y-58143000D02*
X66411000Y-58143000D01*
X68189000Y-55857000D02*
X69840000Y-55857000D01*
X69840000Y-55857000D02*
X69840000Y-58143000D01*
X69840000Y-58143000D02*
X68189000Y-58143000D01*
X66411000Y-55857000D02*
X64760000Y-55857000D01*
X40799620Y-19601500D02*
X40093500Y-19601500D01*
X40093500Y-19601500D02*
X40093500Y-20998500D01*
X40093500Y-20998500D02*
X40799620Y-20998500D01*
X42506500Y-19601500D02*
X41800380Y-19601500D01*
X42506500Y-19601500D02*
X42506500Y-20998500D01*
X42506500Y-20998500D02*
X41800380Y-20998500D01*
X39899620Y-21501500D02*
X39193500Y-21501500D01*
X39193500Y-21501500D02*
X39193500Y-22898500D01*
X39193500Y-22898500D02*
X39899620Y-22898500D01*
X41606500Y-21501500D02*
X40900380Y-21501500D01*
X41606500Y-21501500D02*
X41606500Y-22898500D01*
X41606500Y-22898500D02*
X40900380Y-22898500D01*
X45999620Y-28101500D02*
X45293500Y-28101500D01*
X45293500Y-28101500D02*
X45293500Y-29498500D01*
X45293500Y-29498500D02*
X45999620Y-29498500D01*
X47706500Y-28101500D02*
X47000380Y-28101500D01*
X47706500Y-28101500D02*
X47706500Y-29498500D01*
X47706500Y-29498500D02*
X47000380Y-29498500D01*
D10*
X92102000Y-59450000D02*
G75*
G03X92102000Y-59450000I-508000J0D01*
G74*
G01*
X91848000Y-59450000D02*
G75*
G03X91848000Y-59450000I-254000J0D01*
G74*
G01*
X91953210Y-59450000D02*
G75*
G03X91953210Y-59450000I-359210J0D01*
G74*
G01*
X121820000Y-23636000D02*
X122328000Y-24144000D01*
X121820000Y-13730000D02*
X121820000Y-23636000D01*
X122328000Y-54624000D02*
X122074000Y-54878000D01*
X122328000Y-44464000D02*
X122328000Y-54624000D01*
X121820000Y-43956000D02*
X122328000Y-44464000D01*
X121820000Y-34812000D02*
X121820000Y-43956000D01*
X122328000Y-34304000D02*
X121820000Y-34812000D01*
X122328000Y-24144000D02*
X122328000Y-34304000D01*
X121820000Y-55132000D02*
X121820000Y-64530000D01*
X122074000Y-54878000D02*
X121820000Y-55132000D01*
X122074000Y-54878000D02*
X121820000Y-55132000D01*
X121820000Y-55132000D02*
X121820000Y-64530000D01*
X122328000Y-24144000D02*
X122328000Y-34304000D01*
X122328000Y-34304000D02*
X121820000Y-34812000D01*
X121820000Y-34812000D02*
X121820000Y-43956000D01*
X121820000Y-43956000D02*
X122328000Y-44464000D01*
X122328000Y-44464000D02*
X122328000Y-54624000D01*
X122328000Y-54624000D02*
X122074000Y-54878000D01*
X121820000Y-13730000D02*
X121820000Y-23636000D01*
X121820000Y-23636000D02*
X122328000Y-24144000D01*
X81180000Y-23636000D02*
X81688000Y-24144000D01*
X81180000Y-13730000D02*
X81180000Y-23636000D01*
X81688000Y-54624000D02*
X81434000Y-54878000D01*
X81688000Y-44464000D02*
X81688000Y-54624000D01*
X81180000Y-43956000D02*
X81688000Y-44464000D01*
X81180000Y-34812000D02*
X81180000Y-43956000D01*
X81688000Y-34304000D02*
X81180000Y-34812000D01*
X81688000Y-24144000D02*
X81688000Y-34304000D01*
X81180000Y-55132000D02*
X81180000Y-64530000D01*
X81434000Y-54878000D02*
X81180000Y-55132000D01*
X81434000Y-54878000D02*
X81180000Y-55132000D01*
X81180000Y-55132000D02*
X81180000Y-64530000D01*
X81688000Y-24144000D02*
X81688000Y-34304000D01*
X81688000Y-34304000D02*
X81180000Y-34812000D01*
X81180000Y-34812000D02*
X81180000Y-43956000D01*
X81180000Y-43956000D02*
X81688000Y-44464000D01*
X81688000Y-44464000D02*
X81688000Y-54624000D01*
X81688000Y-54624000D02*
X81434000Y-54878000D01*
X81180000Y-13730000D02*
X81180000Y-23636000D01*
X81180000Y-23636000D02*
X81688000Y-24144000D01*
X81180000Y-13730000D02*
X121820000Y-13730000D01*
X121820000Y-64530000D02*
X81180000Y-64530000D01*
D12*
X67719000Y-54624000D02*
X67719000Y-51576000D01*
X67719000Y-51576000D02*
X68481000Y-51576000D01*
X68481000Y-51576000D02*
X68481000Y-54624000D01*
X68481000Y-54624000D02*
X67719000Y-54624000D01*
X44149760Y-44700380D02*
X44149760Y-45398880D01*
X44149760Y-43699620D02*
X44149760Y-43001120D01*
X45450240Y-44700380D02*
X45450240Y-45398880D01*
X45450240Y-43001120D02*
X45450240Y-43699620D01*
X45435000Y-45398880D02*
X44165000Y-45398880D01*
X44165000Y-43001120D02*
X45435000Y-43001120D01*
X55899620Y-46449760D02*
X55201120Y-46449760D01*
X56900380Y-46449760D02*
X57598880Y-46449760D01*
X55899620Y-47750240D02*
X55201120Y-47750240D01*
X57598880Y-47750240D02*
X56900380Y-47750240D01*
X55201120Y-47735000D02*
X55201120Y-46465000D01*
X57598880Y-46465000D02*
X57598880Y-47735000D01*
X66800380Y-49650240D02*
X67498880Y-49650240D01*
X65799620Y-49650240D02*
X65101120Y-49650240D01*
X66800380Y-48349760D02*
X67498880Y-48349760D01*
X65101120Y-48349760D02*
X65799620Y-48349760D01*
X67498880Y-48365000D02*
X67498880Y-49635000D01*
X65101120Y-49635000D02*
X65101120Y-48365000D01*
X66400380Y-43250240D02*
X67098880Y-43250240D01*
X65399620Y-43250240D02*
X64701120Y-43250240D01*
X66400380Y-41949760D02*
X67098880Y-41949760D01*
X64701120Y-41949760D02*
X65399620Y-41949760D01*
X67098880Y-41965000D02*
X67098880Y-43235000D01*
X64701120Y-43235000D02*
X64701120Y-41965000D01*
X56399620Y-27649760D02*
X55701120Y-27649760D01*
X57400380Y-27649760D02*
X58098880Y-27649760D01*
X56399620Y-28950240D02*
X55701120Y-28950240D01*
X58098880Y-28950240D02*
X57400380Y-28950240D01*
X55701120Y-28935000D02*
X55701120Y-27665000D01*
X58098880Y-27665000D02*
X58098880Y-28935000D01*
X47149760Y-37800380D02*
X47149760Y-38498880D01*
X47149760Y-36799620D02*
X47149760Y-36101120D01*
X48450240Y-37800380D02*
X48450240Y-38498880D01*
X48450240Y-36101120D02*
X48450240Y-36799620D01*
X48435000Y-38498880D02*
X47165000Y-38498880D01*
X47165000Y-36101120D02*
X48435000Y-36101120D01*
X55200380Y-56150240D02*
X55898880Y-56150240D01*
X54199620Y-56150240D02*
X53501120Y-56150240D01*
X55200380Y-54849760D02*
X55898880Y-54849760D01*
X53501120Y-54849760D02*
X54199620Y-54849760D01*
X55898880Y-54865000D02*
X55898880Y-56135000D01*
X53501120Y-56135000D02*
X53501120Y-54865000D01*
X57299620Y-54849760D02*
X56601120Y-54849760D01*
X58300380Y-54849760D02*
X58998880Y-54849760D01*
X57299620Y-56150240D02*
X56601120Y-56150240D01*
X58998880Y-56150240D02*
X58300380Y-56150240D01*
X56601120Y-56135000D02*
X56601120Y-54865000D01*
X58998880Y-54865000D02*
X58998880Y-56135000D01*
X41849760Y-30700380D02*
X41849760Y-31398880D01*
X41849760Y-29699620D02*
X41849760Y-29001120D01*
X43150240Y-30700380D02*
X43150240Y-31398880D01*
X43150240Y-29001120D02*
X43150240Y-29699620D01*
X43135000Y-31398880D02*
X41865000Y-31398880D01*
X41865000Y-29001120D02*
X43135000Y-29001120D01*
D18*
X52880000Y-15230000D02*
X70660000Y-15230000D01*
X70660000Y-15230000D02*
X70660000Y-17770000D01*
X70660000Y-17770000D02*
X52880000Y-17770000D01*
X50340000Y-15230000D02*
X52880000Y-15230000D01*
X52880000Y-15230000D02*
X52880000Y-17770000D01*
X50340000Y-15230000D02*
X50340000Y-17770000D01*
X50340000Y-17770000D02*
X52880000Y-17770000D01*
D14*
X39000380Y-48698500D02*
X39706500Y-48698500D01*
X39706500Y-48698500D02*
X39706500Y-47301500D01*
X39706500Y-47301500D02*
X39000380Y-47301500D01*
X37293500Y-48698500D02*
X37999620Y-48698500D01*
X37293500Y-48698500D02*
X37293500Y-47301500D01*
X37293500Y-47301500D02*
X37999620Y-47301500D01*
D13*
X42417500Y-42912500D02*
X43687500Y-44119000D01*
X43687500Y-42912500D02*
X40512500Y-42912500D01*
X40512500Y-42912500D02*
X40512500Y-46087500D01*
X40512500Y-46087500D02*
X43687500Y-46087500D01*
X43687500Y-46087500D02*
X43687500Y-42912500D01*
D18*
X43340000Y-53930000D02*
X35720000Y-53930000D01*
X43340000Y-56470000D02*
X35720000Y-56470000D01*
X45880000Y-56470000D02*
X43340000Y-56470000D01*
X35720000Y-53930000D02*
X35720000Y-56470000D01*
X43340000Y-56470000D02*
X43340000Y-53930000D01*
X45880000Y-56470000D02*
X45880000Y-53930000D01*
X45880000Y-53930000D02*
X43340000Y-53930000D01*
D14*
X31040000Y-36143000D02*
X31040000Y-33857000D01*
X31040000Y-33857000D02*
X29389000Y-33857000D01*
X27611000Y-36143000D02*
X25960000Y-36143000D01*
X25960000Y-36143000D02*
X25960000Y-33857000D01*
X25960000Y-33857000D02*
X27611000Y-33857000D01*
X29389000Y-36143000D02*
X31040000Y-36143000D01*
X47999620Y-41501500D02*
X47293500Y-41501500D01*
X47293500Y-41501500D02*
X47293500Y-42898500D01*
X47293500Y-42898500D02*
X47999620Y-42898500D01*
X49706500Y-41501500D02*
X49000380Y-41501500D01*
X49706500Y-41501500D02*
X49706500Y-42898500D01*
X49706500Y-42898500D02*
X49000380Y-42898500D01*
D15*
X65949680Y-47500200D02*
X74550120Y-47500200D01*
X74550120Y-47500200D02*
X74550120Y-44299800D01*
X74550120Y-44299800D02*
X65949680Y-44299800D01*
X65949680Y-45049100D02*
X65949680Y-44299800D01*
X65949680Y-46799160D02*
X65949680Y-47500200D01*
X65949680Y-45600280D02*
X65649960Y-45501220D01*
X65949680Y-46199720D02*
X65649960Y-46298780D01*
X65949680Y-46799160D02*
X65949680Y-45000840D01*
D20*
X47423800Y-34081429D02*
X47402029Y-34105619D01*
X47336715Y-34129810D01*
X47293172Y-34129810D01*
X47227857Y-34105619D01*
X47184315Y-34057238D01*
X47162543Y-34008857D01*
X47140772Y-33912095D01*
X47140772Y-33839524D01*
X47162543Y-33742762D01*
X47184315Y-33694381D01*
X47227857Y-33646000D01*
X47293172Y-33621810D01*
X47336715Y-33621810D01*
X47402029Y-33646000D01*
X47423800Y-33670190D01*
X47815686Y-33791143D02*
X47815686Y-34129810D01*
X47706829Y-33597619D02*
X47597972Y-33960476D01*
X47881000Y-33960476D01*
X46988371Y-35780810D02*
X46727114Y-35780810D01*
X46857742Y-35780810D02*
X46857742Y-35272810D01*
X46814199Y-35345381D01*
X46770657Y-35393762D01*
X46727114Y-35417952D01*
X47271400Y-35272810D02*
X47314943Y-35272810D01*
X47358486Y-35297000D01*
X47380257Y-35321190D01*
X47402028Y-35369571D01*
X47423800Y-35466333D01*
X47423800Y-35587286D01*
X47402028Y-35684048D01*
X47380257Y-35732429D01*
X47358486Y-35756619D01*
X47314943Y-35780810D01*
X47271400Y-35780810D01*
X47227857Y-35756619D01*
X47206086Y-35732429D01*
X47184314Y-35684048D01*
X47162543Y-35587286D01*
X47162543Y-35466333D01*
X47184314Y-35369571D01*
X47206086Y-35321190D01*
X47227857Y-35297000D01*
X47271400Y-35272810D01*
X47706829Y-35272810D02*
X47750372Y-35272810D01*
X47793915Y-35297000D01*
X47815686Y-35321190D01*
X47837457Y-35369571D01*
X47859229Y-35466333D01*
X47859229Y-35587286D01*
X47837457Y-35684048D01*
X47815686Y-35732429D01*
X47793915Y-35756619D01*
X47750372Y-35780810D01*
X47706829Y-35780810D01*
X47663286Y-35756619D01*
X47641515Y-35732429D01*
X47619743Y-35684048D01*
X47597972Y-35587286D01*
X47597972Y-35466333D01*
X47619743Y-35369571D01*
X47641515Y-35321190D01*
X47663286Y-35297000D01*
X47706829Y-35272810D01*
X48055172Y-35442143D02*
X48055172Y-35780810D01*
X48055172Y-35490524D02*
X48076944Y-35466333D01*
X48120486Y-35442143D01*
X48185801Y-35442143D01*
X48229344Y-35466333D01*
X48251115Y-35514714D01*
X48251115Y-35780810D01*
D14*
X55935042Y-37521718D02*
X55935042Y-38412048D01*
X55987414Y-38516793D01*
X56039787Y-38569165D01*
X56144531Y-38621538D01*
X56354021Y-38621538D01*
X56458766Y-38569165D01*
X56511138Y-38516793D01*
X56563510Y-38412048D01*
X56563510Y-37521718D01*
X57663330Y-38621538D02*
X57034862Y-38621538D01*
X57349096Y-38621538D02*
X57349096Y-37521718D01*
X57244351Y-37678835D01*
X57139606Y-37783580D01*
X57034862Y-37835952D01*
D19*
X50275921Y-35401725D02*
X50275921Y-34400965D01*
X50657163Y-34400965D01*
X50752474Y-34448620D01*
X50800129Y-34496275D01*
X50847784Y-34591586D01*
X50847784Y-34734551D01*
X50800129Y-34829862D01*
X50752474Y-34877517D01*
X50657163Y-34925172D01*
X50275921Y-34925172D01*
X51276681Y-35401725D02*
X51276681Y-34400965D01*
X52325096Y-35306414D02*
X52277441Y-35354070D01*
X52134475Y-35401725D01*
X52039165Y-35401725D01*
X51896199Y-35354070D01*
X51800888Y-35258759D01*
X51753233Y-35163449D01*
X51705578Y-34972828D01*
X51705578Y-34829862D01*
X51753233Y-34639241D01*
X51800888Y-34543930D01*
X51896199Y-34448620D01*
X52039165Y-34400965D01*
X52134475Y-34400965D01*
X52277441Y-34448620D01*
X52325096Y-34496275D01*
X52706338Y-34496275D02*
X52753993Y-34448620D01*
X52849304Y-34400965D01*
X53087580Y-34400965D01*
X53182890Y-34448620D01*
X53230546Y-34496275D01*
X53278201Y-34591586D01*
X53278201Y-34686896D01*
X53230546Y-34829862D01*
X52658683Y-35401725D01*
X53278201Y-35401725D01*
X54135995Y-34734551D02*
X54135995Y-35401725D01*
X53897719Y-34353310D02*
X53659443Y-35068138D01*
X54278961Y-35068138D01*
X54993790Y-34877517D02*
X54660203Y-34877517D01*
X54660203Y-35401725D02*
X54660203Y-34400965D01*
X55136756Y-34400965D01*
X55803929Y-34400965D02*
X55803929Y-35115793D01*
X55756273Y-35258759D01*
X55660963Y-35354070D01*
X55517997Y-35401725D01*
X55422687Y-35401725D01*
X56185171Y-34400965D02*
X56852344Y-35401725D01*
X56852344Y-34400965D02*
X56185171Y-35401725D01*
X57138276Y-34400965D02*
X57805449Y-35401725D01*
X57805449Y-34400965D02*
X57138276Y-35401725D01*
X58091381Y-34400965D02*
X58758554Y-35401725D01*
X58758554Y-34400965D02*
X58091381Y-35401725D01*
X59664004Y-34448620D02*
X59568693Y-34400965D01*
X59425728Y-34400965D01*
X59282762Y-34448620D01*
X59187451Y-34543930D01*
X59139796Y-34639241D01*
X59092141Y-34829862D01*
X59092141Y-34972828D01*
X59139796Y-35163449D01*
X59187451Y-35258759D01*
X59282762Y-35354070D01*
X59425728Y-35401725D01*
X59521038Y-35401725D01*
X59664004Y-35354070D01*
X59711659Y-35306414D01*
X59711659Y-34972828D01*
X59521038Y-34972828D01*
X60474143Y-34877517D02*
X60617109Y-34925172D01*
X60664764Y-34972828D01*
X60712419Y-35068138D01*
X60712419Y-35211104D01*
X60664764Y-35306414D01*
X60617109Y-35354070D01*
X60521798Y-35401725D01*
X60140556Y-35401725D01*
X60140556Y-34400965D01*
X60474143Y-34400965D01*
X60569453Y-34448620D01*
X60617109Y-34496275D01*
X60664764Y-34591586D01*
X60664764Y-34686896D01*
X60617109Y-34782207D01*
X60569453Y-34829862D01*
X60474143Y-34877517D01*
X60140556Y-34877517D01*
X61665524Y-35401725D02*
X61093661Y-35401725D01*
X61379592Y-35401725D02*
X61379592Y-34400965D01*
X61284282Y-34543930D01*
X61188971Y-34639241D01*
X61093661Y-34686896D01*
X62285042Y-34400965D02*
X62380353Y-34400965D01*
X62475663Y-34448620D01*
X62523318Y-34496275D01*
X62570974Y-34591586D01*
X62618629Y-34782207D01*
X62618629Y-35020483D01*
X62570974Y-35211104D01*
X62523318Y-35306414D01*
X62475663Y-35354070D01*
X62380353Y-35401725D01*
X62285042Y-35401725D01*
X62189732Y-35354070D01*
X62142076Y-35306414D01*
X62094421Y-35211104D01*
X62046766Y-35020483D01*
X62046766Y-34782207D01*
X62094421Y-34591586D01*
X62142076Y-34496275D01*
X62189732Y-34448620D01*
X62285042Y-34400965D01*
X63476423Y-34400965D02*
X63285802Y-34400965D01*
X63190492Y-34448620D01*
X63142837Y-34496275D01*
X63047526Y-34639241D01*
X62999871Y-34829862D01*
X62999871Y-35211104D01*
X63047526Y-35306414D01*
X63095181Y-35354070D01*
X63190492Y-35401725D01*
X63381113Y-35401725D01*
X63476423Y-35354070D01*
X63524079Y-35306414D01*
X63571734Y-35211104D01*
X63571734Y-34972828D01*
X63524079Y-34877517D01*
X63476423Y-34829862D01*
X63381113Y-34782207D01*
X63190492Y-34782207D01*
X63095181Y-34829862D01*
X63047526Y-34877517D01*
X62999871Y-34972828D01*
D13*
X91461619Y-38749904D02*
X90445619Y-38749904D01*
X90445619Y-38362857D01*
X90494000Y-38266095D01*
X90542381Y-38217714D01*
X90639143Y-38169333D01*
X90784286Y-38169333D01*
X90881048Y-38217714D01*
X90929429Y-38266095D01*
X90977810Y-38362857D01*
X90977810Y-38749904D01*
X90445619Y-37830666D02*
X90445619Y-37153333D01*
X91461619Y-37588761D01*
X84760857Y-40152952D02*
X84809238Y-40201333D01*
X84857619Y-40346476D01*
X84857619Y-40443238D01*
X84809238Y-40588380D01*
X84712476Y-40685142D01*
X84615714Y-40733523D01*
X84422190Y-40781904D01*
X84277048Y-40781904D01*
X84083524Y-40733523D01*
X83986762Y-40685142D01*
X83890000Y-40588380D01*
X83841619Y-40443238D01*
X83841619Y-40346476D01*
X83890000Y-40201333D01*
X83938381Y-40152952D01*
X83841619Y-39523999D02*
X83841619Y-39330476D01*
X83890000Y-39233714D01*
X83986762Y-39136952D01*
X84180286Y-39088571D01*
X84518952Y-39088571D01*
X84712476Y-39136952D01*
X84809238Y-39233714D01*
X84857619Y-39330476D01*
X84857619Y-39523999D01*
X84809238Y-39620761D01*
X84712476Y-39717523D01*
X84518952Y-39765904D01*
X84180286Y-39765904D01*
X83986762Y-39717523D01*
X83890000Y-39620761D01*
X83841619Y-39523999D01*
X84857619Y-38653142D02*
X83841619Y-38653142D01*
X84857619Y-38072571D01*
X83841619Y-38072571D01*
X84857619Y-37588761D02*
X83841619Y-37588761D01*
X84857619Y-37008190D01*
X83841619Y-37008190D01*
X84954381Y-36766285D02*
X84954381Y-35992190D01*
X84277048Y-35605142D02*
X84228667Y-35701904D01*
X84180286Y-35750285D01*
X84083524Y-35798666D01*
X84035143Y-35798666D01*
X83938381Y-35750285D01*
X83890000Y-35701904D01*
X83841619Y-35605142D01*
X83841619Y-35411619D01*
X83890000Y-35314857D01*
X83938381Y-35266476D01*
X84035143Y-35218095D01*
X84083524Y-35218095D01*
X84180286Y-35266476D01*
X84228667Y-35314857D01*
X84277048Y-35411619D01*
X84277048Y-35605142D01*
X84325429Y-35701904D01*
X84373810Y-35750285D01*
X84470571Y-35798666D01*
X84664095Y-35798666D01*
X84760857Y-35750285D01*
X84809238Y-35701904D01*
X84857619Y-35605142D01*
X84857619Y-35411619D01*
X84809238Y-35314857D01*
X84760857Y-35266476D01*
X84664095Y-35218095D01*
X84470571Y-35218095D01*
X84373810Y-35266476D01*
X84325429Y-35314857D01*
X84277048Y-35411619D01*
D12*
X67303728Y-38283307D02*
X67279900Y-38307135D01*
X67208417Y-38330962D01*
X67160762Y-38330962D01*
X67089279Y-38307135D01*
X67041624Y-38259480D01*
X67017796Y-38211824D01*
X66993968Y-38116514D01*
X66993968Y-38045031D01*
X67017796Y-37949720D01*
X67041624Y-37902065D01*
X67089279Y-37854410D01*
X67160762Y-37830582D01*
X67208417Y-37830582D01*
X67279900Y-37854410D01*
X67303728Y-37878238D01*
X67780280Y-38330962D02*
X67494348Y-38330962D01*
X67637314Y-38330962D02*
X67637314Y-37830582D01*
X67589659Y-37902065D01*
X67542004Y-37949720D01*
X67494348Y-37973548D01*
X67970900Y-37878238D02*
X67994728Y-37854410D01*
X68042383Y-37830582D01*
X68161521Y-37830582D01*
X68209177Y-37854410D01*
X68233004Y-37878238D01*
X68256832Y-37925893D01*
X68256832Y-37973548D01*
X68233004Y-38045031D01*
X67947073Y-38330962D01*
X68256832Y-38330962D01*
X27803728Y-54683307D02*
X27779900Y-54707135D01*
X27708417Y-54730962D01*
X27660762Y-54730962D01*
X27589279Y-54707135D01*
X27541624Y-54659480D01*
X27517796Y-54611824D01*
X27493968Y-54516514D01*
X27493968Y-54445031D01*
X27517796Y-54349720D01*
X27541624Y-54302065D01*
X27589279Y-54254410D01*
X27660762Y-54230582D01*
X27708417Y-54230582D01*
X27779900Y-54254410D01*
X27803728Y-54278238D01*
X28280280Y-54730962D02*
X27994348Y-54730962D01*
X28137314Y-54730962D02*
X28137314Y-54230582D01*
X28089659Y-54302065D01*
X28042004Y-54349720D01*
X27994348Y-54373548D01*
X28447073Y-54230582D02*
X28756832Y-54230582D01*
X28590039Y-54421203D01*
X28661521Y-54421203D01*
X28709177Y-54445031D01*
X28733004Y-54468859D01*
X28756832Y-54516514D01*
X28756832Y-54635652D01*
X28733004Y-54683307D01*
X28709177Y-54707135D01*
X28661521Y-54730962D01*
X28518556Y-54730962D01*
X28470900Y-54707135D01*
X28447073Y-54683307D01*
D13*
X18166286Y-44964037D02*
X18117905Y-45012418D01*
X17972762Y-45060799D01*
X17876000Y-45060799D01*
X17730858Y-45012418D01*
X17634096Y-44915656D01*
X17585715Y-44818894D01*
X17537334Y-44625370D01*
X17537334Y-44480228D01*
X17585715Y-44286704D01*
X17634096Y-44189942D01*
X17730858Y-44093180D01*
X17876000Y-44044799D01*
X17972762Y-44044799D01*
X18117905Y-44093180D01*
X18166286Y-44141561D01*
X18795239Y-44044799D02*
X18988762Y-44044799D01*
X19085524Y-44093180D01*
X19182286Y-44189942D01*
X19230667Y-44383466D01*
X19230667Y-44722132D01*
X19182286Y-44915656D01*
X19085524Y-45012418D01*
X18988762Y-45060799D01*
X18795239Y-45060799D01*
X18698477Y-45012418D01*
X18601715Y-44915656D01*
X18553334Y-44722132D01*
X18553334Y-44383466D01*
X18601715Y-44189942D01*
X18698477Y-44093180D01*
X18795239Y-44044799D01*
X19666096Y-45060799D02*
X19666096Y-44044799D01*
X20246667Y-45060799D01*
X20246667Y-44044799D01*
X21262667Y-45060799D02*
X20682096Y-45060799D01*
X20972382Y-45060799D02*
X20972382Y-44044799D01*
X20875620Y-44189942D01*
X20778858Y-44286704D01*
X20682096Y-44335085D01*
D14*
X25825047Y-60045810D02*
X25825047Y-59537810D01*
X25946000Y-59537810D01*
X26018571Y-59562000D01*
X26066952Y-59610381D01*
X26091143Y-59658762D01*
X26115333Y-59755524D01*
X26115333Y-59828095D01*
X26091143Y-59924857D01*
X26066952Y-59973238D01*
X26018571Y-60021619D01*
X25946000Y-60045810D01*
X25825047Y-60045810D01*
X26599143Y-60045810D02*
X26308857Y-60045810D01*
X26454000Y-60045810D02*
X26454000Y-59537810D01*
X26405619Y-59610381D01*
X26357238Y-59658762D01*
X26308857Y-59682952D01*
X24385715Y-58013810D02*
X24143810Y-58013810D01*
X24143810Y-57505810D01*
X24555048Y-57747714D02*
X24724382Y-57747714D01*
X24796953Y-58013810D02*
X24555048Y-58013810D01*
X24555048Y-57505810D01*
X24796953Y-57505810D01*
X25014667Y-58013810D02*
X25014667Y-57505810D01*
X25135620Y-57505810D01*
X25208191Y-57530000D01*
X25256572Y-57578381D01*
X25280763Y-57626762D01*
X25304953Y-57723524D01*
X25304953Y-57796095D01*
X25280763Y-57892857D01*
X25256572Y-57941238D01*
X25208191Y-57989619D01*
X25135620Y-58013810D01*
X25014667Y-58013810D01*
X25401715Y-58062190D02*
X25788763Y-58062190D01*
X25909715Y-58013810D02*
X25909715Y-57505810D01*
X26103239Y-57505810D01*
X26151620Y-57530000D01*
X26175811Y-57554190D01*
X26200001Y-57602571D01*
X26200001Y-57675143D01*
X26175811Y-57723524D01*
X26151620Y-57747714D01*
X26103239Y-57771905D01*
X25909715Y-57771905D01*
X26514477Y-57505810D02*
X26611239Y-57505810D01*
X26659620Y-57530000D01*
X26708001Y-57578381D01*
X26732192Y-57675143D01*
X26732192Y-57844476D01*
X26708001Y-57941238D01*
X26659620Y-57989619D01*
X26611239Y-58013810D01*
X26514477Y-58013810D01*
X26466096Y-57989619D01*
X26417715Y-57941238D01*
X26393525Y-57844476D01*
X26393525Y-57675143D01*
X26417715Y-57578381D01*
X26466096Y-57530000D01*
X26514477Y-57505810D01*
X26901524Y-57505810D02*
X27022477Y-58013810D01*
X27119239Y-57650952D01*
X27216001Y-58013810D01*
X27336953Y-57505810D01*
X27530476Y-57747714D02*
X27699810Y-57747714D01*
X27772381Y-58013810D02*
X27530476Y-58013810D01*
X27530476Y-57505810D01*
X27772381Y-57505810D01*
X28280381Y-58013810D02*
X28111048Y-57771905D01*
X27990095Y-58013810D02*
X27990095Y-57505810D01*
X28183619Y-57505810D01*
X28232000Y-57530000D01*
X28256191Y-57554190D01*
X28280381Y-57602571D01*
X28280381Y-57675143D01*
X28256191Y-57723524D01*
X28232000Y-57747714D01*
X28183619Y-57771905D01*
X27990095Y-57771905D01*
X73225047Y-33913810D02*
X73225047Y-33405810D01*
X73346000Y-33405810D01*
X73418571Y-33430000D01*
X73466952Y-33478381D01*
X73491143Y-33526762D01*
X73515333Y-33623524D01*
X73515333Y-33696095D01*
X73491143Y-33792857D01*
X73466952Y-33841238D01*
X73418571Y-33889619D01*
X73346000Y-33913810D01*
X73225047Y-33913810D01*
X73708857Y-33454190D02*
X73733047Y-33430000D01*
X73781428Y-33405810D01*
X73902381Y-33405810D01*
X73950762Y-33430000D01*
X73974952Y-33454190D01*
X73999143Y-33502571D01*
X73999143Y-33550952D01*
X73974952Y-33623524D01*
X73684666Y-33913810D01*
X73999143Y-33913810D01*
X71846190Y-35437810D02*
X71846190Y-35849048D01*
X71870381Y-35897429D01*
X71894571Y-35921619D01*
X71942952Y-35945810D01*
X72039714Y-35945810D01*
X72088095Y-35921619D01*
X72112286Y-35897429D01*
X72136476Y-35849048D01*
X72136476Y-35437810D01*
X72354190Y-35921619D02*
X72426761Y-35945810D01*
X72547714Y-35945810D01*
X72596095Y-35921619D01*
X72620285Y-35897429D01*
X72644476Y-35849048D01*
X72644476Y-35800667D01*
X72620285Y-35752286D01*
X72596095Y-35728095D01*
X72547714Y-35703905D01*
X72450952Y-35679714D01*
X72402571Y-35655524D01*
X72378380Y-35631333D01*
X72354190Y-35582952D01*
X72354190Y-35534571D01*
X72378380Y-35486190D01*
X72402571Y-35462000D01*
X72450952Y-35437810D01*
X72571904Y-35437810D01*
X72644476Y-35462000D01*
X72862190Y-35679714D02*
X73031524Y-35679714D01*
X73104095Y-35945810D02*
X72862190Y-35945810D01*
X72862190Y-35437810D01*
X73104095Y-35437810D01*
X73612095Y-35945810D02*
X73442762Y-35703905D01*
X73321809Y-35945810D02*
X73321809Y-35437810D01*
X73515333Y-35437810D01*
X73563714Y-35462000D01*
X73587905Y-35486190D01*
X73612095Y-35534571D01*
X73612095Y-35607143D01*
X73587905Y-35655524D01*
X73563714Y-35679714D01*
X73515333Y-35703905D01*
X73321809Y-35703905D01*
X73708857Y-35994190D02*
X74095905Y-35994190D01*
X74458762Y-35945810D02*
X74216857Y-35945810D01*
X74216857Y-35437810D01*
X74628095Y-35679714D02*
X74797429Y-35679714D01*
X74870000Y-35945810D02*
X74628095Y-35945810D01*
X74628095Y-35437810D01*
X74870000Y-35437810D01*
X75087714Y-35945810D02*
X75087714Y-35437810D01*
X75208667Y-35437810D01*
X75281238Y-35462000D01*
X75329619Y-35510381D01*
X75353810Y-35558762D01*
X75378000Y-35655524D01*
X75378000Y-35728095D01*
X75353810Y-35824857D01*
X75329619Y-35873238D01*
X75281238Y-35921619D01*
X75208667Y-35945810D01*
X75087714Y-35945810D01*
D21*
X74015572Y-54550714D02*
X74015572Y-53788714D01*
X74197000Y-53788714D01*
X74305857Y-53825000D01*
X74378429Y-53897571D01*
X74414714Y-53970143D01*
X74451000Y-54115286D01*
X74451000Y-54224143D01*
X74414714Y-54369286D01*
X74378429Y-54441857D01*
X74305857Y-54514429D01*
X74197000Y-54550714D01*
X74015572Y-54550714D01*
X74705000Y-53788714D02*
X75176714Y-53788714D01*
X74922714Y-54079000D01*
X75031572Y-54079000D01*
X75104143Y-54115286D01*
X75140429Y-54151571D01*
X75176714Y-54224143D01*
X75176714Y-54405571D01*
X75140429Y-54478143D01*
X75104143Y-54514429D01*
X75031572Y-54550714D01*
X74813857Y-54550714D01*
X74741286Y-54514429D01*
X74705000Y-54478143D01*
X71094572Y-59884714D02*
X71094572Y-59122714D01*
X71892857Y-59884714D02*
X71638857Y-59521857D01*
X71457429Y-59884714D02*
X71457429Y-59122714D01*
X71747714Y-59122714D01*
X71820286Y-59159000D01*
X71856571Y-59195286D01*
X71892857Y-59267857D01*
X71892857Y-59376714D01*
X71856571Y-59449286D01*
X71820286Y-59485571D01*
X71747714Y-59521857D01*
X71457429Y-59521857D01*
X72038000Y-59957286D02*
X72618571Y-59957286D01*
X73162857Y-59884714D02*
X72800000Y-59884714D01*
X72800000Y-59122714D01*
X73416857Y-59485571D02*
X73670857Y-59485571D01*
X73779714Y-59884714D02*
X73416857Y-59884714D01*
X73416857Y-59122714D01*
X73779714Y-59122714D01*
X74106286Y-59884714D02*
X74106286Y-59122714D01*
X74287714Y-59122714D01*
X74396571Y-59159000D01*
X74469143Y-59231571D01*
X74505428Y-59304143D01*
X74541714Y-59449286D01*
X74541714Y-59558143D01*
X74505428Y-59703286D01*
X74469143Y-59775857D01*
X74396571Y-59848429D01*
X74287714Y-59884714D01*
X74106286Y-59884714D01*
D13*
X41562619Y-14788524D02*
X41562619Y-13518524D01*
X42046428Y-13518524D01*
X42167381Y-13579000D01*
X42227857Y-13639476D01*
X42288333Y-13760429D01*
X42288333Y-13941857D01*
X42227857Y-14062810D01*
X42167381Y-14123286D01*
X42046428Y-14183762D01*
X41562619Y-14183762D01*
X42772143Y-13639476D02*
X42832619Y-13579000D01*
X42953571Y-13518524D01*
X43255952Y-13518524D01*
X43376905Y-13579000D01*
X43437381Y-13639476D01*
X43497857Y-13760429D01*
X43497857Y-13881381D01*
X43437381Y-14062810D01*
X42711667Y-14788524D01*
X43497857Y-14788524D01*
X18360524Y-24137381D02*
X17090524Y-24137381D01*
X17090524Y-23653572D01*
X17151000Y-23532619D01*
X17211476Y-23472143D01*
X17332429Y-23411667D01*
X17513857Y-23411667D01*
X17634810Y-23472143D01*
X17695286Y-23532619D01*
X17755762Y-23653572D01*
X17755762Y-24137381D01*
X17090524Y-22262619D02*
X17090524Y-22867381D01*
X17695286Y-22927857D01*
X17634810Y-22867381D01*
X17574333Y-22746429D01*
X17574333Y-22444048D01*
X17634810Y-22323095D01*
X17695286Y-22262619D01*
X17816238Y-22202143D01*
X18118619Y-22202143D01*
X18239571Y-22262619D01*
X18300048Y-22323095D01*
X18360524Y-22444048D01*
X18360524Y-22746429D01*
X18300048Y-22867381D01*
X18239571Y-22927857D01*
X68062619Y-27684524D02*
X68062619Y-26414524D01*
X68546428Y-26414524D01*
X68667381Y-26475000D01*
X68727857Y-26535476D01*
X68788333Y-26656429D01*
X68788333Y-26837857D01*
X68727857Y-26958810D01*
X68667381Y-27019286D01*
X68546428Y-27079762D01*
X68062619Y-27079762D01*
X69514048Y-26958810D02*
X69393095Y-26898333D01*
X69332619Y-26837857D01*
X69272143Y-26716905D01*
X69272143Y-26656429D01*
X69332619Y-26535476D01*
X69393095Y-26475000D01*
X69514048Y-26414524D01*
X69755952Y-26414524D01*
X69876905Y-26475000D01*
X69937381Y-26535476D01*
X69997857Y-26656429D01*
X69997857Y-26716905D01*
X69937381Y-26837857D01*
X69876905Y-26898333D01*
X69755952Y-26958810D01*
X69514048Y-26958810D01*
X69393095Y-27019286D01*
X69332619Y-27079762D01*
X69272143Y-27200714D01*
X69272143Y-27442619D01*
X69332619Y-27563571D01*
X69393095Y-27624048D01*
X69514048Y-27684524D01*
X69755952Y-27684524D01*
X69876905Y-27624048D01*
X69937381Y-27563571D01*
X69997857Y-27442619D01*
X69997857Y-27200714D01*
X69937381Y-27079762D01*
X69876905Y-27019286D01*
X69755952Y-26958810D01*
X28025905Y-48481619D02*
X28025905Y-49304095D01*
X28074286Y-49400857D01*
X28122667Y-49449238D01*
X28219429Y-49497619D01*
X28412952Y-49497619D01*
X28509714Y-49449238D01*
X28558095Y-49400857D01*
X28606476Y-49304095D01*
X28606476Y-48481619D01*
X29041905Y-48578381D02*
X29090286Y-48530000D01*
X29187048Y-48481619D01*
X29428952Y-48481619D01*
X29525714Y-48530000D01*
X29574095Y-48578381D01*
X29622476Y-48675143D01*
X29622476Y-48771905D01*
X29574095Y-48917048D01*
X28993524Y-49497619D01*
X29622476Y-49497619D01*
X21567048Y-51021619D02*
X21083239Y-51021619D01*
X21083239Y-50005619D01*
X21905715Y-51021619D02*
X21905715Y-50005619D01*
X22244381Y-50731333D01*
X22583048Y-50005619D01*
X22583048Y-51021619D01*
X23599048Y-51021619D02*
X23018477Y-51021619D01*
X23308763Y-51021619D02*
X23308763Y-50005619D01*
X23212001Y-50150762D01*
X23115239Y-50247524D01*
X23018477Y-50295905D01*
X24566667Y-51021619D02*
X23986096Y-51021619D01*
X24276382Y-51021619D02*
X24276382Y-50005619D01*
X24179620Y-50150762D01*
X24082858Y-50247524D01*
X23986096Y-50295905D01*
X25534286Y-51021619D02*
X24953715Y-51021619D01*
X25244001Y-51021619D02*
X25244001Y-50005619D01*
X25147239Y-50150762D01*
X25050477Y-50247524D01*
X24953715Y-50295905D01*
X25872953Y-50005619D02*
X26550286Y-50005619D01*
X26114858Y-51021619D01*
X26695429Y-51118381D02*
X27469524Y-51118381D01*
X27663048Y-50973238D02*
X27808191Y-51021619D01*
X28050095Y-51021619D01*
X28146857Y-50973238D01*
X28195238Y-50924857D01*
X28243619Y-50828095D01*
X28243619Y-50731333D01*
X28195238Y-50634571D01*
X28146857Y-50586190D01*
X28050095Y-50537810D01*
X27856572Y-50489429D01*
X27759810Y-50441048D01*
X27711429Y-50392667D01*
X27663048Y-50295905D01*
X27663048Y-50199143D01*
X27711429Y-50102381D01*
X27759810Y-50054000D01*
X27856572Y-50005619D01*
X28098476Y-50005619D01*
X28243619Y-50054000D01*
X28872572Y-50005619D02*
X29066095Y-50005619D01*
X29162857Y-50054000D01*
X29259619Y-50150762D01*
X29308000Y-50344286D01*
X29308000Y-50682952D01*
X29259619Y-50876476D01*
X29162857Y-50973238D01*
X29066095Y-51021619D01*
X28872572Y-51021619D01*
X28775810Y-50973238D01*
X28679048Y-50876476D01*
X28630667Y-50682952D01*
X28630667Y-50344286D01*
X28679048Y-50150762D01*
X28775810Y-50054000D01*
X28872572Y-50005619D01*
X29598286Y-50005619D02*
X30178857Y-50005619D01*
X29888572Y-51021619D02*
X29888572Y-50005619D01*
X30469143Y-50102381D02*
X30517524Y-50054000D01*
X30614286Y-50005619D01*
X30856190Y-50005619D01*
X30952952Y-50054000D01*
X31001333Y-50102381D01*
X31049714Y-50199143D01*
X31049714Y-50295905D01*
X31001333Y-50441048D01*
X30420762Y-51021619D01*
X31049714Y-51021619D01*
X31436762Y-50102381D02*
X31485143Y-50054000D01*
X31581905Y-50005619D01*
X31823809Y-50005619D01*
X31920571Y-50054000D01*
X31968952Y-50102381D01*
X32017333Y-50199143D01*
X32017333Y-50295905D01*
X31968952Y-50441048D01*
X31388381Y-51021619D01*
X32017333Y-51021619D01*
X32356000Y-50005619D02*
X32984952Y-50005619D01*
X32646286Y-50392667D01*
X32791428Y-50392667D01*
X32888190Y-50441048D01*
X32936571Y-50489429D01*
X32984952Y-50586190D01*
X32984952Y-50828095D01*
X32936571Y-50924857D01*
X32888190Y-50973238D01*
X32791428Y-51021619D01*
X32501143Y-51021619D01*
X32404381Y-50973238D01*
X32356000Y-50924857D01*
X33178476Y-51118381D02*
X33952571Y-51118381D01*
X34097714Y-50005619D02*
X34726666Y-50005619D01*
X34388000Y-50392667D01*
X34533142Y-50392667D01*
X34629904Y-50441048D01*
X34678285Y-50489429D01*
X34726666Y-50586190D01*
X34726666Y-50828095D01*
X34678285Y-50924857D01*
X34629904Y-50973238D01*
X34533142Y-51021619D01*
X34242857Y-51021619D01*
X34146095Y-50973238D01*
X34097714Y-50924857D01*
X35016952Y-50005619D02*
X35355619Y-51021619D01*
X35694285Y-50005619D01*
X35936190Y-50005619D02*
X36565142Y-50005619D01*
X36226476Y-50392667D01*
X36371618Y-50392667D01*
X36468380Y-50441048D01*
X36516761Y-50489429D01*
X36565142Y-50586190D01*
X36565142Y-50828095D01*
X36516761Y-50924857D01*
X36468380Y-50973238D01*
X36371618Y-51021619D01*
X36081333Y-51021619D01*
X35984571Y-50973238D01*
X35936190Y-50924857D01*
D10*
X55752381Y-52761905D02*
X56285714Y-53561905D01*
X56285714Y-52761905D02*
X55752381Y-53561905D01*
X57009524Y-53561905D02*
X56552381Y-53561905D01*
X56780952Y-53561905D02*
X56780952Y-52761905D01*
X56704762Y-52876190D01*
X56628571Y-52952381D01*
X56552381Y-52990476D01*
X52128571Y-50185714D02*
X52090476Y-50223810D01*
X51976190Y-50261905D01*
X51900000Y-50261905D01*
X51785714Y-50223810D01*
X51709523Y-50147619D01*
X51671428Y-50071429D01*
X51633333Y-49919048D01*
X51633333Y-49804762D01*
X51671428Y-49652381D01*
X51709523Y-49576190D01*
X51785714Y-49500000D01*
X51900000Y-49461905D01*
X51976190Y-49461905D01*
X52090476Y-49500000D01*
X52128571Y-49538095D01*
X52928571Y-50261905D02*
X52661904Y-49880952D01*
X52471428Y-50261905D02*
X52471428Y-49461905D01*
X52776190Y-49461905D01*
X52852381Y-49500000D01*
X52890476Y-49538095D01*
X52928571Y-49614286D01*
X52928571Y-49728571D01*
X52890476Y-49804762D01*
X52852381Y-49842857D01*
X52776190Y-49880952D01*
X52471428Y-49880952D01*
X53423809Y-49880952D02*
X53423809Y-50261905D01*
X53157142Y-49461905D02*
X53423809Y-49880952D01*
X53690476Y-49461905D01*
X53919047Y-50223810D02*
X54033333Y-50261905D01*
X54223809Y-50261905D01*
X54299999Y-50223810D01*
X54338095Y-50185714D01*
X54376190Y-50109524D01*
X54376190Y-50033333D01*
X54338095Y-49957143D01*
X54299999Y-49919048D01*
X54223809Y-49880952D01*
X54071428Y-49842857D01*
X53995237Y-49804762D01*
X53957142Y-49766667D01*
X53919047Y-49690476D01*
X53919047Y-49614286D01*
X53957142Y-49538095D01*
X53995237Y-49500000D01*
X54071428Y-49461905D01*
X54261904Y-49461905D01*
X54376190Y-49500000D01*
X54604761Y-49461905D02*
X55061904Y-49461905D01*
X54833333Y-50261905D02*
X54833333Y-49461905D01*
X55290476Y-50033333D02*
X55671428Y-50033333D01*
X55214285Y-50261905D02*
X55480952Y-49461905D01*
X55747619Y-50261905D01*
X56395238Y-50261905D02*
X56014285Y-50261905D01*
X56014285Y-49461905D01*
X56471428Y-50338095D02*
X57080952Y-50338095D01*
X57690476Y-50261905D02*
X57233333Y-50261905D01*
X57461904Y-50261905D02*
X57461904Y-49461905D01*
X57385714Y-49576190D01*
X57309523Y-49652381D01*
X57233333Y-49690476D01*
X57995238Y-49538095D02*
X58033333Y-49500000D01*
X58109524Y-49461905D01*
X58300000Y-49461905D01*
X58376190Y-49500000D01*
X58414286Y-49538095D01*
X58452381Y-49614286D01*
X58452381Y-49690476D01*
X58414286Y-49804762D01*
X57957143Y-50261905D01*
X58452381Y-50261905D01*
X58795238Y-50261905D02*
X58795238Y-49461905D01*
X59061905Y-50033333D01*
X59328572Y-49461905D01*
X59328572Y-50261905D01*
X59709524Y-50261905D02*
X59709524Y-49461905D01*
X59709524Y-49842857D02*
X60166667Y-49842857D01*
X60166667Y-50261905D02*
X60166667Y-49461905D01*
X60471429Y-49461905D02*
X61004762Y-49461905D01*
X60471429Y-50261905D01*
X61004762Y-50261905D01*
D22*
X24443746Y-53953340D02*
X24516317Y-54025911D01*
X24588889Y-54243625D01*
X24588889Y-54388768D01*
X24516317Y-54606483D01*
X24371174Y-54751625D01*
X24226031Y-54824197D01*
X23935746Y-54896768D01*
X23718031Y-54896768D01*
X23427746Y-54824197D01*
X23282603Y-54751625D01*
X23137460Y-54606483D01*
X23064889Y-54388768D01*
X23064889Y-54243625D01*
X23137460Y-54025911D01*
X23210031Y-53953340D01*
X24588889Y-52501911D02*
X24588889Y-53372768D01*
X24588889Y-52937340D02*
X23064889Y-52937340D01*
X23282603Y-53082483D01*
X23427746Y-53227625D01*
X23500317Y-53372768D01*
X23109157Y-49779031D02*
X23109157Y-48617888D01*
X23689729Y-49198459D02*
X22528586Y-49198459D01*
D13*
X25062619Y-20560524D02*
X25062619Y-19290524D01*
X25546428Y-19290524D01*
X25667381Y-19351000D01*
X25727857Y-19411476D01*
X25788333Y-19532429D01*
X25788333Y-19713857D01*
X25727857Y-19834810D01*
X25667381Y-19895286D01*
X25546428Y-19955762D01*
X25062619Y-19955762D01*
X26997857Y-20560524D02*
X26272143Y-20560524D01*
X26635000Y-20560524D02*
X26635000Y-19290524D01*
X26514048Y-19471952D01*
X26393095Y-19592905D01*
X26272143Y-19653381D01*
D20*
X30262862Y-59339700D02*
X30024586Y-59492100D01*
X30262862Y-59600957D02*
X29762482Y-59600957D01*
X29762482Y-59426785D01*
X29786310Y-59383243D01*
X29810138Y-59361471D01*
X29857793Y-59339700D01*
X29929276Y-59339700D01*
X29976931Y-59361471D01*
X30000759Y-59383243D01*
X30024586Y-59426785D01*
X30024586Y-59600957D01*
X30262862Y-58904271D02*
X30262862Y-59165528D01*
X30262862Y-59034900D02*
X29762482Y-59034900D01*
X29833965Y-59078443D01*
X29881620Y-59121985D01*
X29905448Y-59165528D01*
X31521070Y-60016429D02*
X31521070Y-59733400D01*
X31714593Y-59885800D01*
X31714593Y-59820486D01*
X31738784Y-59776943D01*
X31762974Y-59755172D01*
X31811355Y-59733400D01*
X31932308Y-59733400D01*
X31980689Y-59755172D01*
X32004879Y-59776943D01*
X32029070Y-59820486D01*
X32029070Y-59951114D01*
X32004879Y-59994657D01*
X31980689Y-60016429D01*
X31521070Y-59581000D02*
X31521070Y-59297971D01*
X31714593Y-59450371D01*
X31714593Y-59385057D01*
X31738784Y-59341514D01*
X31762974Y-59319743D01*
X31811355Y-59297971D01*
X31932308Y-59297971D01*
X31980689Y-59319743D01*
X32004879Y-59341514D01*
X32029070Y-59385057D01*
X32029070Y-59515685D01*
X32004879Y-59559228D01*
X31980689Y-59581000D01*
X31521070Y-59014942D02*
X31521070Y-58971399D01*
X31545260Y-58927856D01*
X31569450Y-58906085D01*
X31617831Y-58884314D01*
X31714593Y-58862542D01*
X31835546Y-58862542D01*
X31932308Y-58884314D01*
X31980689Y-58906085D01*
X32004879Y-58927856D01*
X32029070Y-58971399D01*
X32029070Y-59014942D01*
X32004879Y-59058485D01*
X31980689Y-59080256D01*
X31932308Y-59102028D01*
X31835546Y-59123799D01*
X31714593Y-59123799D01*
X31617831Y-59102028D01*
X31569450Y-59080256D01*
X31545260Y-59058485D01*
X31521070Y-59014942D01*
X32029070Y-58405342D02*
X31787165Y-58557742D01*
X32029070Y-58666599D02*
X31521070Y-58666599D01*
X31521070Y-58492427D01*
X31545260Y-58448885D01*
X31569450Y-58427113D01*
X31617831Y-58405342D01*
X31690403Y-58405342D01*
X31738784Y-58427113D01*
X31762974Y-58448885D01*
X31787165Y-58492427D01*
X31787165Y-58666599D01*
X38787300Y-32189862D02*
X38634900Y-31951586D01*
X38526043Y-32189862D02*
X38526043Y-31689482D01*
X38700215Y-31689482D01*
X38743757Y-31713310D01*
X38765529Y-31737138D01*
X38787300Y-31784793D01*
X38787300Y-31856276D01*
X38765529Y-31903931D01*
X38743757Y-31927759D01*
X38700215Y-31951586D01*
X38526043Y-31951586D01*
X38961472Y-31737138D02*
X38983243Y-31713310D01*
X39026786Y-31689482D01*
X39135643Y-31689482D01*
X39179186Y-31713310D01*
X39200957Y-31737138D01*
X39222729Y-31784793D01*
X39222729Y-31832448D01*
X39200957Y-31903931D01*
X38939700Y-32189862D01*
X39222729Y-32189862D01*
X38527857Y-30430550D02*
X38266600Y-30430550D01*
X38397228Y-30430550D02*
X38397228Y-29922550D01*
X38353685Y-29995121D01*
X38310143Y-30043502D01*
X38266600Y-30067692D01*
X38810886Y-29922550D02*
X38854429Y-29922550D01*
X38897972Y-29946740D01*
X38919743Y-29970930D01*
X38941514Y-30019311D01*
X38963286Y-30116073D01*
X38963286Y-30237026D01*
X38941514Y-30333788D01*
X38919743Y-30382169D01*
X38897972Y-30406359D01*
X38854429Y-30430550D01*
X38810886Y-30430550D01*
X38767343Y-30406359D01*
X38745572Y-30382169D01*
X38723800Y-30333788D01*
X38702029Y-30237026D01*
X38702029Y-30116073D01*
X38723800Y-30019311D01*
X38745572Y-29970930D01*
X38767343Y-29946740D01*
X38810886Y-29922550D01*
X39159229Y-30430550D02*
X39159229Y-29922550D01*
X39202772Y-30237026D02*
X39333401Y-30430550D01*
X39333401Y-30091883D02*
X39159229Y-30285407D01*
X70989862Y-34712700D02*
X70751586Y-34865100D01*
X70989862Y-34973957D02*
X70489482Y-34973957D01*
X70489482Y-34799785D01*
X70513310Y-34756243D01*
X70537138Y-34734471D01*
X70584793Y-34712700D01*
X70656276Y-34712700D01*
X70703931Y-34734471D01*
X70727759Y-34756243D01*
X70751586Y-34799785D01*
X70751586Y-34973957D01*
X70489482Y-34560300D02*
X70489482Y-34277271D01*
X70680103Y-34429671D01*
X70680103Y-34364357D01*
X70703931Y-34320814D01*
X70727759Y-34299043D01*
X70775414Y-34277271D01*
X70894552Y-34277271D01*
X70942207Y-34299043D01*
X70966035Y-34320814D01*
X70989862Y-34364357D01*
X70989862Y-34494985D01*
X70966035Y-34538528D01*
X70942207Y-34560300D01*
X68722550Y-35516429D02*
X68722550Y-35233400D01*
X68916073Y-35385800D01*
X68916073Y-35320486D01*
X68940264Y-35276943D01*
X68964454Y-35255172D01*
X69012835Y-35233400D01*
X69133788Y-35233400D01*
X69182169Y-35255172D01*
X69206359Y-35276943D01*
X69230550Y-35320486D01*
X69230550Y-35451114D01*
X69206359Y-35494657D01*
X69182169Y-35516429D01*
X68722550Y-35081000D02*
X68722550Y-34797971D01*
X68916073Y-34950371D01*
X68916073Y-34885057D01*
X68940264Y-34841514D01*
X68964454Y-34819743D01*
X69012835Y-34797971D01*
X69133788Y-34797971D01*
X69182169Y-34819743D01*
X69206359Y-34841514D01*
X69230550Y-34885057D01*
X69230550Y-35015685D01*
X69206359Y-35059228D01*
X69182169Y-35081000D01*
X68722550Y-34514942D02*
X68722550Y-34471399D01*
X68746740Y-34427856D01*
X68770930Y-34406085D01*
X68819311Y-34384314D01*
X68916073Y-34362542D01*
X69037026Y-34362542D01*
X69133788Y-34384314D01*
X69182169Y-34406085D01*
X69206359Y-34427856D01*
X69230550Y-34471399D01*
X69230550Y-34514942D01*
X69206359Y-34558485D01*
X69182169Y-34580256D01*
X69133788Y-34602028D01*
X69037026Y-34623799D01*
X68916073Y-34623799D01*
X68819311Y-34602028D01*
X68770930Y-34580256D01*
X68746740Y-34558485D01*
X68722550Y-34514942D01*
X69230550Y-33905342D02*
X68988645Y-34057742D01*
X69230550Y-34166599D02*
X68722550Y-34166599D01*
X68722550Y-33992427D01*
X68746740Y-33948885D01*
X68770930Y-33927113D01*
X68819311Y-33905342D01*
X68891883Y-33905342D01*
X68940264Y-33927113D01*
X68964454Y-33948885D01*
X68988645Y-33992427D01*
X68988645Y-34166599D01*
D14*
X67173000Y-57344714D02*
X66919000Y-56981857D01*
X66737572Y-57344714D02*
X66737572Y-56582714D01*
X67027857Y-56582714D01*
X67100429Y-56619000D01*
X67136714Y-56655286D01*
X67173000Y-56727857D01*
X67173000Y-56836714D01*
X67136714Y-56909286D01*
X67100429Y-56945571D01*
X67027857Y-56981857D01*
X66737572Y-56981857D01*
X67826143Y-56836714D02*
X67826143Y-57344714D01*
X67644714Y-56546429D02*
X67463286Y-57090714D01*
X67935000Y-57090714D01*
D20*
X41589862Y-20312700D02*
X41351586Y-20465100D01*
X41589862Y-20573957D02*
X41089482Y-20573957D01*
X41089482Y-20399785D01*
X41113310Y-20356243D01*
X41137138Y-20334471D01*
X41184793Y-20312700D01*
X41256276Y-20312700D01*
X41303931Y-20334471D01*
X41327759Y-20356243D01*
X41351586Y-20399785D01*
X41351586Y-20573957D01*
X41089482Y-19899043D02*
X41089482Y-20116757D01*
X41327759Y-20138528D01*
X41303931Y-20116757D01*
X41280103Y-20073214D01*
X41280103Y-19964357D01*
X41303931Y-19920814D01*
X41327759Y-19899043D01*
X41375414Y-19877271D01*
X41494552Y-19877271D01*
X41542207Y-19899043D01*
X41566035Y-19920814D01*
X41589862Y-19964357D01*
X41589862Y-20073214D01*
X41566035Y-20116757D01*
X41542207Y-20138528D01*
X39491883Y-20615686D02*
X39830550Y-20615686D01*
X39298359Y-20724543D02*
X39661216Y-20833400D01*
X39661216Y-20550372D01*
X39830550Y-20376200D02*
X39322550Y-20376200D01*
X39637026Y-20332657D02*
X39830550Y-20202028D01*
X39491883Y-20202028D02*
X39685407Y-20376200D01*
X39322550Y-20049629D02*
X39322550Y-19744829D01*
X39830550Y-19940772D01*
X40689862Y-22212700D02*
X40451586Y-22365100D01*
X40689862Y-22473957D02*
X40189482Y-22473957D01*
X40189482Y-22299785D01*
X40213310Y-22256243D01*
X40237138Y-22234471D01*
X40284793Y-22212700D01*
X40356276Y-22212700D01*
X40403931Y-22234471D01*
X40427759Y-22256243D01*
X40451586Y-22299785D01*
X40451586Y-22473957D01*
X40189482Y-21820814D02*
X40189482Y-21907900D01*
X40213310Y-21951443D01*
X40237138Y-21973214D01*
X40308620Y-22016757D01*
X40403931Y-22038528D01*
X40594552Y-22038528D01*
X40642207Y-22016757D01*
X40666035Y-21994985D01*
X40689862Y-21951443D01*
X40689862Y-21864357D01*
X40666035Y-21820814D01*
X40642207Y-21799043D01*
X40594552Y-21777271D01*
X40475414Y-21777271D01*
X40427759Y-21799043D01*
X40403931Y-21820814D01*
X40380103Y-21864357D01*
X40380103Y-21951443D01*
X40403931Y-21994985D01*
X40427759Y-22016757D01*
X40475414Y-22038528D01*
X38591883Y-22515686D02*
X38930550Y-22515686D01*
X38398359Y-22624543D02*
X38761216Y-22733400D01*
X38761216Y-22450372D01*
X38930550Y-22276200D02*
X38422550Y-22276200D01*
X38737026Y-22232657D02*
X38930550Y-22102028D01*
X38591883Y-22102028D02*
X38785407Y-22276200D01*
X38422550Y-21949629D02*
X38422550Y-21644829D01*
X38930550Y-21840772D01*
X46789862Y-28812700D02*
X46551586Y-28965100D01*
X46789862Y-29073957D02*
X46289482Y-29073957D01*
X46289482Y-28899785D01*
X46313310Y-28856243D01*
X46337138Y-28834471D01*
X46384793Y-28812700D01*
X46456276Y-28812700D01*
X46503931Y-28834471D01*
X46527759Y-28856243D01*
X46551586Y-28899785D01*
X46551586Y-29073957D01*
X46289482Y-28660300D02*
X46289482Y-28355500D01*
X46789862Y-28551443D01*
X45030550Y-29333400D02*
X45030550Y-29594657D01*
X45030550Y-29464029D02*
X44522550Y-29464029D01*
X44595121Y-29507572D01*
X44643502Y-29551114D01*
X44667692Y-29594657D01*
X44522550Y-29050371D02*
X44522550Y-29006828D01*
X44546740Y-28963285D01*
X44570930Y-28941514D01*
X44619311Y-28919743D01*
X44716073Y-28897971D01*
X44837026Y-28897971D01*
X44933788Y-28919743D01*
X44982169Y-28941514D01*
X45006359Y-28963285D01*
X45030550Y-29006828D01*
X45030550Y-29050371D01*
X45006359Y-29093914D01*
X44982169Y-29115685D01*
X44933788Y-29137457D01*
X44837026Y-29159228D01*
X44716073Y-29159228D01*
X44619311Y-29137457D01*
X44570930Y-29115685D01*
X44546740Y-29093914D01*
X44522550Y-29050371D01*
X44522550Y-28614942D02*
X44522550Y-28571399D01*
X44546740Y-28527856D01*
X44570930Y-28506085D01*
X44619311Y-28484314D01*
X44716073Y-28462542D01*
X44837026Y-28462542D01*
X44933788Y-28484314D01*
X44982169Y-28506085D01*
X45006359Y-28527856D01*
X45030550Y-28571399D01*
X45030550Y-28614942D01*
X45006359Y-28658485D01*
X44982169Y-28680256D01*
X44933788Y-28702028D01*
X44837026Y-28723799D01*
X44716073Y-28723799D01*
X44619311Y-28702028D01*
X44570930Y-28680256D01*
X44546740Y-28658485D01*
X44522550Y-28614942D01*
X45030550Y-28005342D02*
X44788645Y-28157742D01*
X45030550Y-28266599D02*
X44522550Y-28266599D01*
X44522550Y-28092427D01*
X44546740Y-28048885D01*
X44570930Y-28027113D01*
X44619311Y-28005342D01*
X44691883Y-28005342D01*
X44740264Y-28027113D01*
X44764454Y-28048885D01*
X44788645Y-28092427D01*
X44788645Y-28266599D01*
D10*
X100357143Y-62438571D02*
X100357143Y-63652857D01*
X100428571Y-63795714D01*
X100500000Y-63867143D01*
X100642857Y-63938571D01*
X100928571Y-63938571D01*
X101071429Y-63867143D01*
X101142857Y-63795714D01*
X101214286Y-63652857D01*
X101214286Y-62438571D01*
X101785715Y-62438571D02*
X102714286Y-62438571D01*
X102214286Y-63010000D01*
X102428572Y-63010000D01*
X102571429Y-63081429D01*
X102642858Y-63152857D01*
X102714286Y-63295714D01*
X102714286Y-63652857D01*
X102642858Y-63795714D01*
X102571429Y-63867143D01*
X102428572Y-63938571D01*
X102000000Y-63938571D01*
X101857143Y-63867143D01*
X101785715Y-63795714D01*
X75415715Y-16718571D02*
X74701429Y-16718571D01*
X74630000Y-17432857D01*
X74701429Y-17361429D01*
X74844286Y-17290000D01*
X75201429Y-17290000D01*
X75344286Y-17361429D01*
X75415715Y-17432857D01*
X75487143Y-17575714D01*
X75487143Y-17932857D01*
X75415715Y-18075714D01*
X75344286Y-18147143D01*
X75201429Y-18218571D01*
X74844286Y-18218571D01*
X74701429Y-18147143D01*
X74630000Y-18075714D01*
X76415714Y-16718571D02*
X76558571Y-16718571D01*
X76701428Y-16790000D01*
X76772857Y-16861429D01*
X76844286Y-17004286D01*
X76915714Y-17290000D01*
X76915714Y-17647143D01*
X76844286Y-17932857D01*
X76772857Y-18075714D01*
X76701428Y-18147143D01*
X76558571Y-18218571D01*
X76415714Y-18218571D01*
X76272857Y-18147143D01*
X76201428Y-18075714D01*
X76130000Y-17932857D01*
X76058571Y-17647143D01*
X76058571Y-17290000D01*
X76130000Y-17004286D01*
X76201428Y-16861429D01*
X76272857Y-16790000D01*
X76415714Y-16718571D01*
X77558571Y-18218571D02*
X77558571Y-17218571D01*
X77558571Y-17361429D02*
X77629999Y-17290000D01*
X77772857Y-17218571D01*
X77987142Y-17218571D01*
X78129999Y-17290000D01*
X78201428Y-17432857D01*
X78201428Y-18218571D01*
X78201428Y-17432857D02*
X78272857Y-17290000D01*
X78415714Y-17218571D01*
X78629999Y-17218571D01*
X78772857Y-17290000D01*
X78844285Y-17432857D01*
X78844285Y-18218571D01*
X79558571Y-18218571D02*
X79558571Y-17218571D01*
X79558571Y-17361429D02*
X79629999Y-17290000D01*
X79772857Y-17218571D01*
X79987142Y-17218571D01*
X80129999Y-17290000D01*
X80201428Y-17432857D01*
X80201428Y-18218571D01*
X80201428Y-17432857D02*
X80272857Y-17290000D01*
X80415714Y-17218571D01*
X80629999Y-17218571D01*
X80772857Y-17290000D01*
X80844285Y-17432857D01*
X80844285Y-18218571D01*
X81201428Y-18361429D02*
X82344285Y-18361429D01*
X83415714Y-16718571D02*
X82701428Y-16718571D01*
X82629999Y-17432857D01*
X82701428Y-17361429D01*
X82844285Y-17290000D01*
X83201428Y-17290000D01*
X83344285Y-17361429D01*
X83415714Y-17432857D01*
X83487142Y-17575714D01*
X83487142Y-17932857D01*
X83415714Y-18075714D01*
X83344285Y-18147143D01*
X83201428Y-18218571D01*
X82844285Y-18218571D01*
X82701428Y-18147143D01*
X82629999Y-18075714D01*
X83987142Y-18218571D02*
X84772856Y-17218571D01*
X83987142Y-17218571D02*
X84772856Y-18218571D01*
X85201428Y-16718571D02*
X86201428Y-16718571D01*
X85558571Y-18218571D01*
X86415713Y-18361429D02*
X87558570Y-18361429D01*
X87915713Y-18218571D02*
X87915713Y-16718571D01*
X88272856Y-16718571D01*
X88487141Y-16790000D01*
X88629999Y-16932857D01*
X88701427Y-17075714D01*
X88772856Y-17361429D01*
X88772856Y-17575714D01*
X88701427Y-17861429D01*
X88629999Y-18004286D01*
X88487141Y-18147143D01*
X88272856Y-18218571D01*
X87915713Y-18218571D01*
X89629999Y-18218571D02*
X89487141Y-18147143D01*
X89415713Y-18075714D01*
X89344284Y-17932857D01*
X89344284Y-17504286D01*
X89415713Y-17361429D01*
X89487141Y-17290000D01*
X89629999Y-17218571D01*
X89844284Y-17218571D01*
X89987141Y-17290000D01*
X90058570Y-17361429D01*
X90129999Y-17504286D01*
X90129999Y-17932857D01*
X90058570Y-18075714D01*
X89987141Y-18147143D01*
X89844284Y-18218571D01*
X89629999Y-18218571D01*
X90558570Y-17218571D02*
X91129999Y-17218571D01*
X90772856Y-16718571D02*
X90772856Y-18004286D01*
X90844284Y-18147143D01*
X90987142Y-18218571D01*
X91129999Y-18218571D01*
X91272856Y-18361429D02*
X92415713Y-18361429D01*
X92772856Y-18218571D02*
X92772856Y-16718571D01*
X93272856Y-17790000D01*
X93772856Y-16718571D01*
X93772856Y-18218571D01*
X95129999Y-18218571D02*
X95129999Y-17432857D01*
X95058570Y-17290000D01*
X94915713Y-17218571D01*
X94629999Y-17218571D01*
X94487142Y-17290000D01*
X95129999Y-18147143D02*
X94987142Y-18218571D01*
X94629999Y-18218571D01*
X94487142Y-18147143D01*
X94415713Y-18004286D01*
X94415713Y-17861429D01*
X94487142Y-17718571D01*
X94629999Y-17647143D01*
X94987142Y-17647143D01*
X95129999Y-17575714D01*
X95629999Y-17218571D02*
X96201428Y-17218571D01*
X95844285Y-16718571D02*
X95844285Y-18004286D01*
X95915713Y-18147143D01*
X96058571Y-18218571D01*
X96201428Y-18218571D01*
X96701428Y-18218571D02*
X96701428Y-17218571D01*
X96701428Y-17504286D02*
X96772856Y-17361429D01*
X96844285Y-17290000D01*
X96987142Y-17218571D01*
X97129999Y-17218571D01*
X97629999Y-18218571D02*
X97629999Y-17218571D01*
X97629999Y-16718571D02*
X97558570Y-16790000D01*
X97629999Y-16861429D01*
X97701427Y-16790000D01*
X97629999Y-16718571D01*
X97629999Y-16861429D01*
X98201428Y-18218571D02*
X98987142Y-17218571D01*
X98201428Y-17218571D02*
X98987142Y-18218571D01*
X99201428Y-18361429D02*
X100344285Y-18361429D01*
X101415714Y-18218571D02*
X100701428Y-18218571D01*
X100701428Y-16718571D01*
X102487142Y-18147143D02*
X102344285Y-18218571D01*
X102058571Y-18218571D01*
X101915714Y-18147143D01*
X101844285Y-18004286D01*
X101844285Y-17432857D01*
X101915714Y-17290000D01*
X102058571Y-17218571D01*
X102344285Y-17218571D01*
X102487142Y-17290000D01*
X102558571Y-17432857D01*
X102558571Y-17575714D01*
X101844285Y-17718571D01*
X103844285Y-18218571D02*
X103844285Y-16718571D01*
X103844285Y-18147143D02*
X103701428Y-18218571D01*
X103415714Y-18218571D01*
X103272856Y-18147143D01*
X103201428Y-18075714D01*
X103129999Y-17932857D01*
X103129999Y-17504286D01*
X103201428Y-17361429D01*
X103272856Y-17290000D01*
X103415714Y-17218571D01*
X103701428Y-17218571D01*
X103844285Y-17290000D01*
X104201428Y-18361429D02*
X105344285Y-18361429D01*
X105701428Y-18218571D02*
X105701428Y-16718571D01*
X106058571Y-16718571D01*
X106272856Y-16790000D01*
X106415714Y-16932857D01*
X106487142Y-17075714D01*
X106558571Y-17361429D01*
X106558571Y-17575714D01*
X106487142Y-17861429D01*
X106415714Y-18004286D01*
X106272856Y-18147143D01*
X106058571Y-18218571D01*
X105701428Y-18218571D01*
X107201428Y-18218571D02*
X107201428Y-17218571D01*
X107201428Y-16718571D02*
X107129999Y-16790000D01*
X107201428Y-16861429D01*
X107272856Y-16790000D01*
X107201428Y-16718571D01*
X107201428Y-16861429D01*
X107844285Y-18147143D02*
X107987142Y-18218571D01*
X108272857Y-18218571D01*
X108415714Y-18147143D01*
X108487142Y-18004286D01*
X108487142Y-17932857D01*
X108415714Y-17790000D01*
X108272857Y-17718571D01*
X108058571Y-17718571D01*
X107915714Y-17647143D01*
X107844285Y-17504286D01*
X107844285Y-17432857D01*
X107915714Y-17290000D01*
X108058571Y-17218571D01*
X108272857Y-17218571D01*
X108415714Y-17290000D01*
X109130000Y-17218571D02*
X109130000Y-18718571D01*
X109130000Y-17290000D02*
X109272857Y-17218571D01*
X109558571Y-17218571D01*
X109701428Y-17290000D01*
X109772857Y-17361429D01*
X109844286Y-17504286D01*
X109844286Y-17932857D01*
X109772857Y-18075714D01*
X109701428Y-18147143D01*
X109558571Y-18218571D01*
X109272857Y-18218571D01*
X109130000Y-18147143D01*
X110701429Y-18218571D02*
X110558571Y-18147143D01*
X110487143Y-18004286D01*
X110487143Y-16718571D01*
X111915714Y-18218571D02*
X111915714Y-17432857D01*
X111844285Y-17290000D01*
X111701428Y-17218571D01*
X111415714Y-17218571D01*
X111272857Y-17290000D01*
X111915714Y-18147143D02*
X111772857Y-18218571D01*
X111415714Y-18218571D01*
X111272857Y-18147143D01*
X111201428Y-18004286D01*
X111201428Y-17861429D01*
X111272857Y-17718571D01*
X111415714Y-17647143D01*
X111772857Y-17647143D01*
X111915714Y-17575714D01*
X112487143Y-17218571D02*
X112844286Y-18218571D01*
X113201428Y-17218571D02*
X112844286Y-18218571D01*
X112701428Y-18575714D01*
X112630000Y-18647143D01*
X112487143Y-18718571D01*
D23*
X66358286Y-53172571D02*
X66322000Y-53245143D01*
X66249429Y-53317714D01*
X66140571Y-53426571D01*
X66104286Y-53499143D01*
X66104286Y-53571714D01*
X66285714Y-53535429D02*
X66249429Y-53608000D01*
X66176857Y-53680571D01*
X66031714Y-53716857D01*
X65777714Y-53716857D01*
X65632571Y-53680571D01*
X65560000Y-53608000D01*
X65523714Y-53535429D01*
X65523714Y-53390286D01*
X65560000Y-53317714D01*
X65632571Y-53245143D01*
X65777714Y-53208857D01*
X66031714Y-53208857D01*
X66176857Y-53245143D01*
X66249429Y-53317714D01*
X66285714Y-53390286D01*
X66285714Y-53535429D01*
X66285714Y-52483143D02*
X66285714Y-52918571D01*
X66285714Y-52700857D02*
X65523714Y-52700857D01*
X65632571Y-52773428D01*
X65705143Y-52846000D01*
X65741429Y-52918571D01*
X67755286Y-55168285D02*
X67719000Y-55131999D01*
X67682714Y-55059428D01*
X67682714Y-54877999D01*
X67719000Y-54805428D01*
X67755286Y-54769142D01*
X67827857Y-54732857D01*
X67900429Y-54732857D01*
X68009286Y-54769142D01*
X68444714Y-55204571D01*
X68444714Y-54732857D01*
X68444714Y-54406285D02*
X67682714Y-54406285D01*
X68444714Y-53970857D01*
X67682714Y-53970857D01*
X67682714Y-53680571D02*
X67682714Y-53172571D01*
X68444714Y-53499142D01*
X67682714Y-52737143D02*
X67682714Y-52664571D01*
X67719000Y-52592000D01*
X67755286Y-52555714D01*
X67827857Y-52519428D01*
X67973000Y-52483143D01*
X68154429Y-52483143D01*
X68299571Y-52519428D01*
X68372143Y-52555714D01*
X68408429Y-52592000D01*
X68444714Y-52664571D01*
X68444714Y-52737143D01*
X68408429Y-52809714D01*
X68372143Y-52846000D01*
X68299571Y-52882285D01*
X68154429Y-52918571D01*
X67973000Y-52918571D01*
X67827857Y-52882285D01*
X67755286Y-52846000D01*
X67719000Y-52809714D01*
X67682714Y-52737143D01*
X67682714Y-52011429D02*
X67682714Y-51938857D01*
X67719000Y-51866286D01*
X67755286Y-51830000D01*
X67827857Y-51793714D01*
X67973000Y-51757429D01*
X68154429Y-51757429D01*
X68299571Y-51793714D01*
X68372143Y-51830000D01*
X68408429Y-51866286D01*
X68444714Y-51938857D01*
X68444714Y-52011429D01*
X68408429Y-52084000D01*
X68372143Y-52120286D01*
X68299571Y-52156571D01*
X68154429Y-52192857D01*
X67973000Y-52192857D01*
X67827857Y-52156571D01*
X67755286Y-52120286D01*
X67719000Y-52084000D01*
X67682714Y-52011429D01*
X67755286Y-51467143D02*
X67719000Y-51430857D01*
X67682714Y-51358286D01*
X67682714Y-51176857D01*
X67719000Y-51104286D01*
X67755286Y-51068000D01*
X67827857Y-51031715D01*
X67900429Y-51031715D01*
X68009286Y-51068000D01*
X68444714Y-51503429D01*
X68444714Y-51031715D01*
D20*
X44723800Y-44381429D02*
X44702029Y-44405619D01*
X44636715Y-44429810D01*
X44593172Y-44429810D01*
X44527857Y-44405619D01*
X44484315Y-44357238D01*
X44462543Y-44308857D01*
X44440772Y-44212095D01*
X44440772Y-44139524D01*
X44462543Y-44042762D01*
X44484315Y-43994381D01*
X44527857Y-43946000D01*
X44593172Y-43921810D01*
X44636715Y-43921810D01*
X44702029Y-43946000D01*
X44723800Y-43970190D01*
X44897972Y-43970190D02*
X44919743Y-43946000D01*
X44963286Y-43921810D01*
X45072143Y-43921810D01*
X45115686Y-43946000D01*
X45137457Y-43970190D01*
X45159229Y-44018571D01*
X45159229Y-44066952D01*
X45137457Y-44139524D01*
X44876200Y-44429810D01*
X45159229Y-44429810D01*
X44288371Y-42778810D02*
X44027114Y-42778810D01*
X44157742Y-42778810D02*
X44157742Y-42270810D01*
X44114199Y-42343381D01*
X44070657Y-42391762D01*
X44027114Y-42415952D01*
X44571400Y-42270810D02*
X44614943Y-42270810D01*
X44658486Y-42295000D01*
X44680257Y-42319190D01*
X44702028Y-42367571D01*
X44723800Y-42464333D01*
X44723800Y-42585286D01*
X44702028Y-42682048D01*
X44680257Y-42730429D01*
X44658486Y-42754619D01*
X44614943Y-42778810D01*
X44571400Y-42778810D01*
X44527857Y-42754619D01*
X44506086Y-42730429D01*
X44484314Y-42682048D01*
X44462543Y-42585286D01*
X44462543Y-42464333D01*
X44484314Y-42367571D01*
X44506086Y-42319190D01*
X44527857Y-42295000D01*
X44571400Y-42270810D01*
X45006829Y-42270810D02*
X45050372Y-42270810D01*
X45093915Y-42295000D01*
X45115686Y-42319190D01*
X45137457Y-42367571D01*
X45159229Y-42464333D01*
X45159229Y-42585286D01*
X45137457Y-42682048D01*
X45115686Y-42730429D01*
X45093915Y-42754619D01*
X45050372Y-42778810D01*
X45006829Y-42778810D01*
X44963286Y-42754619D01*
X44941515Y-42730429D01*
X44919743Y-42682048D01*
X44897972Y-42585286D01*
X44897972Y-42464333D01*
X44919743Y-42367571D01*
X44941515Y-42319190D01*
X44963286Y-42295000D01*
X45006829Y-42270810D01*
X45355172Y-42440143D02*
X45355172Y-42778810D01*
X45355172Y-42488524D02*
X45376944Y-42464333D01*
X45420486Y-42440143D01*
X45485801Y-42440143D01*
X45529344Y-42464333D01*
X45551115Y-42512714D01*
X45551115Y-42778810D01*
X56581429Y-47176200D02*
X56605619Y-47197971D01*
X56629810Y-47263285D01*
X56629810Y-47306828D01*
X56605619Y-47372143D01*
X56557238Y-47415685D01*
X56508857Y-47437457D01*
X56412095Y-47459228D01*
X56339524Y-47459228D01*
X56242762Y-47437457D01*
X56194381Y-47415685D01*
X56146000Y-47372143D01*
X56121810Y-47306828D01*
X56121810Y-47263285D01*
X56146000Y-47197971D01*
X56170190Y-47176200D01*
X56121810Y-47023800D02*
X56121810Y-46740771D01*
X56315333Y-46893171D01*
X56315333Y-46827857D01*
X56339524Y-46784314D01*
X56363714Y-46762543D01*
X56412095Y-46740771D01*
X56533048Y-46740771D01*
X56581429Y-46762543D01*
X56605619Y-46784314D01*
X56629810Y-46827857D01*
X56629810Y-46958485D01*
X56605619Y-47002028D01*
X56581429Y-47023800D01*
X58280810Y-47611629D02*
X58280810Y-47872886D01*
X58280810Y-47742258D02*
X57772810Y-47742258D01*
X57845381Y-47785801D01*
X57893762Y-47829343D01*
X57917952Y-47872886D01*
X57772810Y-47328600D02*
X57772810Y-47285057D01*
X57797000Y-47241514D01*
X57821190Y-47219743D01*
X57869571Y-47197972D01*
X57966333Y-47176200D01*
X58087286Y-47176200D01*
X58184048Y-47197972D01*
X58232429Y-47219743D01*
X58256619Y-47241514D01*
X58280810Y-47285057D01*
X58280810Y-47328600D01*
X58256619Y-47372143D01*
X58232429Y-47393914D01*
X58184048Y-47415686D01*
X58087286Y-47437457D01*
X57966333Y-47437457D01*
X57869571Y-47415686D01*
X57821190Y-47393914D01*
X57797000Y-47372143D01*
X57772810Y-47328600D01*
X57772810Y-46893171D02*
X57772810Y-46849628D01*
X57797000Y-46806085D01*
X57821190Y-46784314D01*
X57869571Y-46762543D01*
X57966333Y-46740771D01*
X58087286Y-46740771D01*
X58184048Y-46762543D01*
X58232429Y-46784314D01*
X58256619Y-46806085D01*
X58280810Y-46849628D01*
X58280810Y-46893171D01*
X58256619Y-46936714D01*
X58232429Y-46958485D01*
X58184048Y-46980257D01*
X58087286Y-47002028D01*
X57966333Y-47002028D01*
X57869571Y-46980257D01*
X57821190Y-46958485D01*
X57797000Y-46936714D01*
X57772810Y-46893171D01*
X57942143Y-46544828D02*
X58280810Y-46544828D01*
X57990524Y-46544828D02*
X57966333Y-46523056D01*
X57942143Y-46479514D01*
X57942143Y-46414199D01*
X57966333Y-46370656D01*
X58014714Y-46348885D01*
X58280810Y-46348885D01*
X66481429Y-49076200D02*
X66505619Y-49097971D01*
X66529810Y-49163285D01*
X66529810Y-49206828D01*
X66505619Y-49272143D01*
X66457238Y-49315685D01*
X66408857Y-49337457D01*
X66312095Y-49359228D01*
X66239524Y-49359228D01*
X66142762Y-49337457D01*
X66094381Y-49315685D01*
X66046000Y-49272143D01*
X66021810Y-49206828D01*
X66021810Y-49163285D01*
X66046000Y-49097971D01*
X66070190Y-49076200D01*
X66021810Y-48662543D02*
X66021810Y-48880257D01*
X66263714Y-48902028D01*
X66239524Y-48880257D01*
X66215333Y-48836714D01*
X66215333Y-48727857D01*
X66239524Y-48684314D01*
X66263714Y-48662543D01*
X66312095Y-48640771D01*
X66433048Y-48640771D01*
X66481429Y-48662543D01*
X66505619Y-48684314D01*
X66529810Y-48727857D01*
X66529810Y-48836714D01*
X66505619Y-48880257D01*
X66481429Y-48902028D01*
X64830429Y-49021772D02*
X64854619Y-49000000D01*
X64878810Y-49021772D01*
X64854619Y-49043543D01*
X64830429Y-49021772D01*
X64878810Y-49021772D01*
X64395000Y-49108857D02*
X64370810Y-49065314D01*
X64370810Y-48956457D01*
X64395000Y-48912914D01*
X64443381Y-48891143D01*
X64491762Y-48891143D01*
X64540143Y-48912914D01*
X64564333Y-48934686D01*
X64588524Y-48978229D01*
X64612714Y-49000000D01*
X64661095Y-49021772D01*
X64685286Y-49021772D01*
X66081429Y-42676200D02*
X66105619Y-42697971D01*
X66129810Y-42763285D01*
X66129810Y-42806828D01*
X66105619Y-42872143D01*
X66057238Y-42915685D01*
X66008857Y-42937457D01*
X65912095Y-42959228D01*
X65839524Y-42959228D01*
X65742762Y-42937457D01*
X65694381Y-42915685D01*
X65646000Y-42872143D01*
X65621810Y-42806828D01*
X65621810Y-42763285D01*
X65646000Y-42697971D01*
X65670190Y-42676200D01*
X65621810Y-42284314D02*
X65621810Y-42371400D01*
X65646000Y-42414943D01*
X65670190Y-42436714D01*
X65742762Y-42480257D01*
X65839524Y-42502028D01*
X66033048Y-42502028D01*
X66081429Y-42480257D01*
X66105619Y-42458485D01*
X66129810Y-42414943D01*
X66129810Y-42327857D01*
X66105619Y-42284314D01*
X66081429Y-42262543D01*
X66033048Y-42240771D01*
X65912095Y-42240771D01*
X65863714Y-42262543D01*
X65839524Y-42284314D01*
X65815333Y-42327857D01*
X65815333Y-42414943D01*
X65839524Y-42458485D01*
X65863714Y-42480257D01*
X65912095Y-42502028D01*
X64430429Y-42621772D02*
X64454619Y-42600000D01*
X64478810Y-42621772D01*
X64454619Y-42643543D01*
X64430429Y-42621772D01*
X64478810Y-42621772D01*
X63995000Y-42708857D02*
X63970810Y-42665314D01*
X63970810Y-42556457D01*
X63995000Y-42512914D01*
X64043381Y-42491143D01*
X64091762Y-42491143D01*
X64140143Y-42512914D01*
X64164333Y-42534686D01*
X64188524Y-42578229D01*
X64212714Y-42600000D01*
X64261095Y-42621772D01*
X64285286Y-42621772D01*
X57081429Y-28376200D02*
X57105619Y-28397971D01*
X57129810Y-28463285D01*
X57129810Y-28506828D01*
X57105619Y-28572143D01*
X57057238Y-28615685D01*
X57008857Y-28637457D01*
X56912095Y-28659228D01*
X56839524Y-28659228D01*
X56742762Y-28637457D01*
X56694381Y-28615685D01*
X56646000Y-28572143D01*
X56621810Y-28506828D01*
X56621810Y-28463285D01*
X56646000Y-28397971D01*
X56670190Y-28376200D01*
X56621810Y-28223800D02*
X56621810Y-27919000D01*
X57129810Y-28114943D01*
X58780810Y-28811629D02*
X58780810Y-29072886D01*
X58780810Y-28942258D02*
X58272810Y-28942258D01*
X58345381Y-28985801D01*
X58393762Y-29029343D01*
X58417952Y-29072886D01*
X58272810Y-28528600D02*
X58272810Y-28485057D01*
X58297000Y-28441514D01*
X58321190Y-28419743D01*
X58369571Y-28397972D01*
X58466333Y-28376200D01*
X58587286Y-28376200D01*
X58684048Y-28397972D01*
X58732429Y-28419743D01*
X58756619Y-28441514D01*
X58780810Y-28485057D01*
X58780810Y-28528600D01*
X58756619Y-28572143D01*
X58732429Y-28593914D01*
X58684048Y-28615686D01*
X58587286Y-28637457D01*
X58466333Y-28637457D01*
X58369571Y-28615686D01*
X58321190Y-28593914D01*
X58297000Y-28572143D01*
X58272810Y-28528600D01*
X58272810Y-28093171D02*
X58272810Y-28049628D01*
X58297000Y-28006085D01*
X58321190Y-27984314D01*
X58369571Y-27962543D01*
X58466333Y-27940771D01*
X58587286Y-27940771D01*
X58684048Y-27962543D01*
X58732429Y-27984314D01*
X58756619Y-28006085D01*
X58780810Y-28049628D01*
X58780810Y-28093171D01*
X58756619Y-28136714D01*
X58732429Y-28158485D01*
X58684048Y-28180257D01*
X58587286Y-28202028D01*
X58466333Y-28202028D01*
X58369571Y-28180257D01*
X58321190Y-28158485D01*
X58297000Y-28136714D01*
X58272810Y-28093171D01*
X58442143Y-27744828D02*
X58780810Y-27744828D01*
X58490524Y-27744828D02*
X58466333Y-27723056D01*
X58442143Y-27679514D01*
X58442143Y-27614199D01*
X58466333Y-27570656D01*
X58514714Y-27548885D01*
X58780810Y-27548885D01*
X47723800Y-37481429D02*
X47702029Y-37505619D01*
X47636715Y-37529810D01*
X47593172Y-37529810D01*
X47527857Y-37505619D01*
X47484315Y-37457238D01*
X47462543Y-37408857D01*
X47440772Y-37312095D01*
X47440772Y-37239524D01*
X47462543Y-37142762D01*
X47484315Y-37094381D01*
X47527857Y-37046000D01*
X47593172Y-37021810D01*
X47636715Y-37021810D01*
X47702029Y-37046000D01*
X47723800Y-37070190D01*
X47985057Y-37239524D02*
X47941515Y-37215333D01*
X47919743Y-37191143D01*
X47897972Y-37142762D01*
X47897972Y-37118571D01*
X47919743Y-37070190D01*
X47941515Y-37046000D01*
X47985057Y-37021810D01*
X48072143Y-37021810D01*
X48115686Y-37046000D01*
X48137457Y-37070190D01*
X48159229Y-37118571D01*
X48159229Y-37142762D01*
X48137457Y-37191143D01*
X48115686Y-37215333D01*
X48072143Y-37239524D01*
X47985057Y-37239524D01*
X47941515Y-37263714D01*
X47919743Y-37287905D01*
X47897972Y-37336286D01*
X47897972Y-37433048D01*
X47919743Y-37481429D01*
X47941515Y-37505619D01*
X47985057Y-37529810D01*
X48072143Y-37529810D01*
X48115686Y-37505619D01*
X48137457Y-37481429D01*
X48159229Y-37433048D01*
X48159229Y-37336286D01*
X48137457Y-37287905D01*
X48115686Y-37263714D01*
X48072143Y-37239524D01*
X47288371Y-35878810D02*
X47027114Y-35878810D01*
X47157742Y-35878810D02*
X47157742Y-35370810D01*
X47114199Y-35443381D01*
X47070657Y-35491762D01*
X47027114Y-35515952D01*
X47571400Y-35370810D02*
X47614943Y-35370810D01*
X47658486Y-35395000D01*
X47680257Y-35419190D01*
X47702028Y-35467571D01*
X47723800Y-35564333D01*
X47723800Y-35685286D01*
X47702028Y-35782048D01*
X47680257Y-35830429D01*
X47658486Y-35854619D01*
X47614943Y-35878810D01*
X47571400Y-35878810D01*
X47527857Y-35854619D01*
X47506086Y-35830429D01*
X47484314Y-35782048D01*
X47462543Y-35685286D01*
X47462543Y-35564333D01*
X47484314Y-35467571D01*
X47506086Y-35419190D01*
X47527857Y-35395000D01*
X47571400Y-35370810D01*
X48006829Y-35370810D02*
X48050372Y-35370810D01*
X48093915Y-35395000D01*
X48115686Y-35419190D01*
X48137457Y-35467571D01*
X48159229Y-35564333D01*
X48159229Y-35685286D01*
X48137457Y-35782048D01*
X48115686Y-35830429D01*
X48093915Y-35854619D01*
X48050372Y-35878810D01*
X48006829Y-35878810D01*
X47963286Y-35854619D01*
X47941515Y-35830429D01*
X47919743Y-35782048D01*
X47897972Y-35685286D01*
X47897972Y-35564333D01*
X47919743Y-35467571D01*
X47941515Y-35419190D01*
X47963286Y-35395000D01*
X48006829Y-35370810D01*
X48355172Y-35540143D02*
X48355172Y-35878810D01*
X48355172Y-35588524D02*
X48376944Y-35564333D01*
X48420486Y-35540143D01*
X48485801Y-35540143D01*
X48529344Y-35564333D01*
X48551115Y-35612714D01*
X48551115Y-35878810D01*
X54881429Y-55576200D02*
X54905619Y-55597971D01*
X54929810Y-55663285D01*
X54929810Y-55706828D01*
X54905619Y-55772143D01*
X54857238Y-55815685D01*
X54808857Y-55837457D01*
X54712095Y-55859228D01*
X54639524Y-55859228D01*
X54542762Y-55837457D01*
X54494381Y-55815685D01*
X54446000Y-55772143D01*
X54421810Y-55706828D01*
X54421810Y-55663285D01*
X54446000Y-55597971D01*
X54470190Y-55576200D01*
X54929810Y-55358485D02*
X54929810Y-55271400D01*
X54905619Y-55227857D01*
X54881429Y-55206085D01*
X54808857Y-55162543D01*
X54712095Y-55140771D01*
X54518571Y-55140771D01*
X54470190Y-55162543D01*
X54446000Y-55184314D01*
X54421810Y-55227857D01*
X54421810Y-55314943D01*
X54446000Y-55358485D01*
X54470190Y-55380257D01*
X54518571Y-55402028D01*
X54639524Y-55402028D01*
X54687905Y-55380257D01*
X54712095Y-55358485D01*
X54736286Y-55314943D01*
X54736286Y-55227857D01*
X54712095Y-55184314D01*
X54687905Y-55162543D01*
X54639524Y-55140771D01*
X52819190Y-56055171D02*
X52795000Y-56033400D01*
X52770810Y-55989857D01*
X52770810Y-55881000D01*
X52795000Y-55837457D01*
X52819190Y-55815686D01*
X52867571Y-55793914D01*
X52915952Y-55793914D01*
X52988524Y-55815686D01*
X53278810Y-56076943D01*
X53278810Y-55793914D01*
X52819190Y-55619742D02*
X52795000Y-55597971D01*
X52770810Y-55554428D01*
X52770810Y-55445571D01*
X52795000Y-55402028D01*
X52819190Y-55380257D01*
X52867571Y-55358485D01*
X52915952Y-55358485D01*
X52988524Y-55380257D01*
X53278810Y-55641514D01*
X53278810Y-55358485D01*
X52940143Y-55162542D02*
X53448143Y-55162542D01*
X52964333Y-55162542D02*
X52940143Y-55118999D01*
X52940143Y-55031913D01*
X52964333Y-54988370D01*
X52988524Y-54966599D01*
X53036905Y-54944828D01*
X53182048Y-54944828D01*
X53230429Y-54966599D01*
X53254619Y-54988370D01*
X53278810Y-55031913D01*
X53278810Y-55118999D01*
X53254619Y-55162542D01*
X57981429Y-55793915D02*
X58005619Y-55815686D01*
X58029810Y-55881000D01*
X58029810Y-55924543D01*
X58005619Y-55989858D01*
X57957238Y-56033400D01*
X57908857Y-56055172D01*
X57812095Y-56076943D01*
X57739524Y-56076943D01*
X57642762Y-56055172D01*
X57594381Y-56033400D01*
X57546000Y-55989858D01*
X57521810Y-55924543D01*
X57521810Y-55881000D01*
X57546000Y-55815686D01*
X57570190Y-55793915D01*
X58029810Y-55358486D02*
X58029810Y-55619743D01*
X58029810Y-55489115D02*
X57521810Y-55489115D01*
X57594381Y-55532658D01*
X57642762Y-55576200D01*
X57666952Y-55619743D01*
X57521810Y-55075457D02*
X57521810Y-55031914D01*
X57546000Y-54988371D01*
X57570190Y-54966600D01*
X57618571Y-54944829D01*
X57715333Y-54923057D01*
X57836286Y-54923057D01*
X57933048Y-54944829D01*
X57981429Y-54966600D01*
X58005619Y-54988371D01*
X58029810Y-55031914D01*
X58029810Y-55075457D01*
X58005619Y-55119000D01*
X57981429Y-55140771D01*
X57933048Y-55162543D01*
X57836286Y-55184314D01*
X57715333Y-55184314D01*
X57618571Y-55162543D01*
X57570190Y-55140771D01*
X57546000Y-55119000D01*
X57521810Y-55075457D01*
X59221190Y-56055171D02*
X59197000Y-56033400D01*
X59172810Y-55989857D01*
X59172810Y-55881000D01*
X59197000Y-55837457D01*
X59221190Y-55815686D01*
X59269571Y-55793914D01*
X59317952Y-55793914D01*
X59390524Y-55815686D01*
X59680810Y-56076943D01*
X59680810Y-55793914D01*
X59221190Y-55619742D02*
X59197000Y-55597971D01*
X59172810Y-55554428D01*
X59172810Y-55445571D01*
X59197000Y-55402028D01*
X59221190Y-55380257D01*
X59269571Y-55358485D01*
X59317952Y-55358485D01*
X59390524Y-55380257D01*
X59680810Y-55641514D01*
X59680810Y-55358485D01*
X59342143Y-55162542D02*
X59850143Y-55162542D01*
X59366333Y-55162542D02*
X59342143Y-55118999D01*
X59342143Y-55031913D01*
X59366333Y-54988370D01*
X59390524Y-54966599D01*
X59438905Y-54944828D01*
X59584048Y-54944828D01*
X59632429Y-54966599D01*
X59656619Y-54988370D01*
X59680810Y-55031913D01*
X59680810Y-55118999D01*
X59656619Y-55162542D01*
X42206085Y-30381429D02*
X42184314Y-30405619D01*
X42119000Y-30429810D01*
X42075457Y-30429810D01*
X42010142Y-30405619D01*
X41966600Y-30357238D01*
X41944828Y-30308857D01*
X41923057Y-30212095D01*
X41923057Y-30139524D01*
X41944828Y-30042762D01*
X41966600Y-29994381D01*
X42010142Y-29946000D01*
X42075457Y-29921810D01*
X42119000Y-29921810D01*
X42184314Y-29946000D01*
X42206085Y-29970190D01*
X42641514Y-30429810D02*
X42380257Y-30429810D01*
X42510885Y-30429810D02*
X42510885Y-29921810D01*
X42467342Y-29994381D01*
X42423800Y-30042762D01*
X42380257Y-30066952D01*
X43076943Y-30429810D02*
X42815686Y-30429810D01*
X42946314Y-30429810D02*
X42946314Y-29921810D01*
X42902771Y-29994381D01*
X42859229Y-30042762D01*
X42815686Y-30066952D01*
X41988371Y-28778810D02*
X41727114Y-28778810D01*
X41857742Y-28778810D02*
X41857742Y-28270810D01*
X41814199Y-28343381D01*
X41770657Y-28391762D01*
X41727114Y-28415952D01*
X42271400Y-28270810D02*
X42314943Y-28270810D01*
X42358486Y-28295000D01*
X42380257Y-28319190D01*
X42402028Y-28367571D01*
X42423800Y-28464333D01*
X42423800Y-28585286D01*
X42402028Y-28682048D01*
X42380257Y-28730429D01*
X42358486Y-28754619D01*
X42314943Y-28778810D01*
X42271400Y-28778810D01*
X42227857Y-28754619D01*
X42206086Y-28730429D01*
X42184314Y-28682048D01*
X42162543Y-28585286D01*
X42162543Y-28464333D01*
X42184314Y-28367571D01*
X42206086Y-28319190D01*
X42227857Y-28295000D01*
X42271400Y-28270810D01*
X42706829Y-28270810D02*
X42750372Y-28270810D01*
X42793915Y-28295000D01*
X42815686Y-28319190D01*
X42837457Y-28367571D01*
X42859229Y-28464333D01*
X42859229Y-28585286D01*
X42837457Y-28682048D01*
X42815686Y-28730429D01*
X42793915Y-28754619D01*
X42750372Y-28778810D01*
X42706829Y-28778810D01*
X42663286Y-28754619D01*
X42641515Y-28730429D01*
X42619743Y-28682048D01*
X42597972Y-28585286D01*
X42597972Y-28464333D01*
X42619743Y-28367571D01*
X42641515Y-28319190D01*
X42663286Y-28295000D01*
X42706829Y-28270810D01*
X43055172Y-28440143D02*
X43055172Y-28778810D01*
X43055172Y-28488524D02*
X43076944Y-28464333D01*
X43120486Y-28440143D01*
X43185801Y-28440143D01*
X43229344Y-28464333D01*
X43251115Y-28512714D01*
X43251115Y-28778810D01*
D13*
X59562619Y-14788524D02*
X59562619Y-13518524D01*
X60046428Y-13518524D01*
X60167381Y-13579000D01*
X60227857Y-13639476D01*
X60288333Y-13760429D01*
X60288333Y-13941857D01*
X60227857Y-14062810D01*
X60167381Y-14123286D01*
X60046428Y-14183762D01*
X59562619Y-14183762D01*
X61376905Y-13941857D02*
X61376905Y-14788524D01*
X61074524Y-13458048D02*
X60772143Y-14365190D01*
X61558333Y-14365190D01*
D20*
X38662862Y-48357415D02*
X38424586Y-48509815D01*
X38662862Y-48618672D02*
X38162482Y-48618672D01*
X38162482Y-48444500D01*
X38186310Y-48400958D01*
X38210138Y-48379186D01*
X38257793Y-48357415D01*
X38329276Y-48357415D01*
X38376931Y-48379186D01*
X38400759Y-48400958D01*
X38424586Y-48444500D01*
X38424586Y-48618672D01*
X38662862Y-47921986D02*
X38662862Y-48183243D01*
X38662862Y-48052615D02*
X38162482Y-48052615D01*
X38233965Y-48096158D01*
X38281620Y-48139700D01*
X38305448Y-48183243D01*
X38162482Y-47769586D02*
X38162482Y-47486557D01*
X38353103Y-47638957D01*
X38353103Y-47573643D01*
X38376931Y-47530100D01*
X38400759Y-47508329D01*
X38448414Y-47486557D01*
X38567552Y-47486557D01*
X38615207Y-47508329D01*
X38639035Y-47530100D01*
X38662862Y-47573643D01*
X38662862Y-47704271D01*
X38639035Y-47747814D01*
X38615207Y-47769586D01*
X40429070Y-48272143D02*
X40429070Y-48533400D01*
X40429070Y-48402772D02*
X39921070Y-48402772D01*
X39993641Y-48446315D01*
X40042022Y-48489857D01*
X40066212Y-48533400D01*
X39921070Y-47989114D02*
X39921070Y-47945571D01*
X39945260Y-47902028D01*
X39969450Y-47880257D01*
X40017831Y-47858486D01*
X40114593Y-47836714D01*
X40235546Y-47836714D01*
X40332308Y-47858486D01*
X40380689Y-47880257D01*
X40404879Y-47902028D01*
X40429070Y-47945571D01*
X40429070Y-47989114D01*
X40404879Y-48032657D01*
X40380689Y-48054428D01*
X40332308Y-48076200D01*
X40235546Y-48097971D01*
X40114593Y-48097971D01*
X40017831Y-48076200D01*
X39969450Y-48054428D01*
X39945260Y-48032657D01*
X39921070Y-47989114D01*
X40429070Y-47640771D02*
X39921070Y-47640771D01*
X40235546Y-47597228D02*
X40429070Y-47466599D01*
X40090403Y-47466599D02*
X40283927Y-47640771D01*
D19*
X41337516Y-43316965D02*
X41337516Y-44127104D01*
X41385171Y-44222414D01*
X41432827Y-44270070D01*
X41528137Y-44317725D01*
X41718758Y-44317725D01*
X41814069Y-44270070D01*
X41861724Y-44222414D01*
X41909379Y-44127104D01*
X41909379Y-43316965D01*
X42814828Y-43650551D02*
X42814828Y-44317725D01*
X42576552Y-43269310D02*
X42338276Y-43984138D01*
X42957794Y-43984138D01*
D14*
X38859443Y-45714725D02*
X38859443Y-44713965D01*
X39193030Y-45428793D01*
X39526617Y-44713965D01*
X39526617Y-45714725D01*
X40575032Y-45619414D02*
X40527377Y-45667070D01*
X40384411Y-45714725D01*
X40289101Y-45714725D01*
X40146135Y-45667070D01*
X40050824Y-45571759D01*
X40003169Y-45476449D01*
X39955514Y-45285828D01*
X39955514Y-45142862D01*
X40003169Y-44952241D01*
X40050824Y-44856930D01*
X40146135Y-44761620D01*
X40289101Y-44713965D01*
X40384411Y-44713965D01*
X40527377Y-44761620D01*
X40575032Y-44809275D01*
X41003929Y-45714725D02*
X41003929Y-44713965D01*
X41385171Y-44713965D01*
X41480482Y-44761620D01*
X41528137Y-44809275D01*
X41575792Y-44904586D01*
X41575792Y-45047551D01*
X41528137Y-45142862D01*
X41480482Y-45190517D01*
X41385171Y-45238172D01*
X41003929Y-45238172D01*
X42433586Y-45047551D02*
X42433586Y-45714725D01*
X42195310Y-44666310D02*
X41957034Y-45381138D01*
X42576552Y-45381138D01*
X43100760Y-45142862D02*
X43005449Y-45095207D01*
X42957794Y-45047551D01*
X42910139Y-44952241D01*
X42910139Y-44904586D01*
X42957794Y-44809275D01*
X43005449Y-44761620D01*
X43100760Y-44713965D01*
X43291381Y-44713965D01*
X43386691Y-44761620D01*
X43434347Y-44809275D01*
X43482002Y-44904586D01*
X43482002Y-44952241D01*
X43434347Y-45047551D01*
X43386691Y-45095207D01*
X43291381Y-45142862D01*
X43100760Y-45142862D01*
X43005449Y-45190517D01*
X42957794Y-45238172D01*
X42910139Y-45333483D01*
X42910139Y-45524104D01*
X42957794Y-45619414D01*
X43005449Y-45667070D01*
X43100760Y-45714725D01*
X43291381Y-45714725D01*
X43386691Y-45667070D01*
X43434347Y-45619414D01*
X43482002Y-45524104D01*
X43482002Y-45333483D01*
X43434347Y-45238172D01*
X43386691Y-45190517D01*
X43291381Y-45142862D01*
X43815589Y-44713965D02*
X44482762Y-45714725D01*
X44482762Y-44713965D02*
X43815589Y-45714725D01*
X44816349Y-44809275D02*
X44864004Y-44761620D01*
X44959315Y-44713965D01*
X45197591Y-44713965D01*
X45292901Y-44761620D01*
X45340557Y-44809275D01*
X45388212Y-44904586D01*
X45388212Y-44999896D01*
X45340557Y-45142862D01*
X44768694Y-45714725D01*
X45388212Y-45714725D01*
D13*
X40362619Y-57760524D02*
X40362619Y-56490524D01*
X40846428Y-56490524D01*
X40967381Y-56551000D01*
X41027857Y-56611476D01*
X41088333Y-56732429D01*
X41088333Y-56913857D01*
X41027857Y-57034810D01*
X40967381Y-57095286D01*
X40846428Y-57155762D01*
X40362619Y-57155762D01*
X41511667Y-56490524D02*
X42297857Y-56490524D01*
X41874524Y-56974333D01*
X42055952Y-56974333D01*
X42176905Y-57034810D01*
X42237381Y-57095286D01*
X42297857Y-57216238D01*
X42297857Y-57518619D01*
X42237381Y-57639571D01*
X42176905Y-57700048D01*
X42055952Y-57760524D01*
X41693095Y-57760524D01*
X41572143Y-57700048D01*
X41511667Y-57639571D01*
D22*
X85674203Y-14100309D02*
X85674203Y-12576309D01*
X86254775Y-12576309D01*
X86399917Y-12648880D01*
X86472489Y-12721451D01*
X86545060Y-12866594D01*
X86545060Y-13084309D01*
X86472489Y-13229451D01*
X86399917Y-13302023D01*
X86254775Y-13374594D01*
X85674203Y-13374594D01*
X87851346Y-12576309D02*
X87561060Y-12576309D01*
X87415917Y-12648880D01*
X87343346Y-12721451D01*
X87198203Y-12939166D01*
X87125632Y-13229451D01*
X87125632Y-13810023D01*
X87198203Y-13955166D01*
X87270775Y-14027737D01*
X87415917Y-14100309D01*
X87706203Y-14100309D01*
X87851346Y-14027737D01*
X87923917Y-13955166D01*
X87996489Y-13810023D01*
X87996489Y-13447166D01*
X87923917Y-13302023D01*
X87851346Y-13229451D01*
X87706203Y-13156880D01*
X87415917Y-13156880D01*
X87270775Y-13229451D01*
X87198203Y-13302023D01*
X87125632Y-13447166D01*
X83780452Y-24905106D02*
X83707881Y-24977677D01*
X83490167Y-25050249D01*
X83345024Y-25050249D01*
X83127309Y-24977677D01*
X82982167Y-24832534D01*
X82909595Y-24687391D01*
X82837024Y-24397106D01*
X82837024Y-24179391D01*
X82909595Y-23889106D01*
X82982167Y-23743963D01*
X83127309Y-23598820D01*
X83345024Y-23526249D01*
X83490167Y-23526249D01*
X83707881Y-23598820D01*
X83780452Y-23671391D01*
X84723881Y-23526249D02*
X85014167Y-23526249D01*
X85159309Y-23598820D01*
X85304452Y-23743963D01*
X85377024Y-24034249D01*
X85377024Y-24542249D01*
X85304452Y-24832534D01*
X85159309Y-24977677D01*
X85014167Y-25050249D01*
X84723881Y-25050249D01*
X84578738Y-24977677D01*
X84433595Y-24832534D01*
X84361024Y-24542249D01*
X84361024Y-24034249D01*
X84433595Y-23743963D01*
X84578738Y-23598820D01*
X84723881Y-23526249D01*
X86030166Y-25050249D02*
X86030166Y-23526249D01*
X86901023Y-25050249D01*
X86901023Y-23526249D01*
X87626737Y-25050249D02*
X87626737Y-23526249D01*
X88497594Y-25050249D01*
X88497594Y-23526249D01*
X88860451Y-25195391D02*
X90021594Y-25195391D01*
X91182737Y-25050249D02*
X90311880Y-25050249D01*
X90747308Y-25050249D02*
X90747308Y-23526249D01*
X90602165Y-23743963D01*
X90457023Y-23889106D01*
X90311880Y-23961677D01*
D14*
X28010143Y-35344714D02*
X27756143Y-34981857D01*
X27574715Y-35344714D02*
X27574715Y-34582714D01*
X27865000Y-34582714D01*
X27937572Y-34619000D01*
X27973857Y-34655286D01*
X28010143Y-34727857D01*
X28010143Y-34836714D01*
X27973857Y-34909286D01*
X27937572Y-34945571D01*
X27865000Y-34981857D01*
X27574715Y-34981857D01*
X28735857Y-35344714D02*
X28300429Y-35344714D01*
X28518143Y-35344714D02*
X28518143Y-34582714D01*
X28445572Y-34691571D01*
X28373000Y-34764143D01*
X28300429Y-34800429D01*
X29389000Y-34836714D02*
X29389000Y-35344714D01*
X29207571Y-34546429D02*
X29026143Y-35090714D01*
X29497857Y-35090714D01*
D20*
X48789862Y-42430415D02*
X48551586Y-42582815D01*
X48789862Y-42691672D02*
X48289482Y-42691672D01*
X48289482Y-42517500D01*
X48313310Y-42473958D01*
X48337138Y-42452186D01*
X48384793Y-42430415D01*
X48456276Y-42430415D01*
X48503931Y-42452186D01*
X48527759Y-42473958D01*
X48551586Y-42517500D01*
X48551586Y-42691672D01*
X48789862Y-41994986D02*
X48789862Y-42256243D01*
X48789862Y-42125615D02*
X48289482Y-42125615D01*
X48360965Y-42169158D01*
X48408620Y-42212700D01*
X48432448Y-42256243D01*
X48289482Y-41581329D02*
X48289482Y-41799043D01*
X48527759Y-41820814D01*
X48503931Y-41799043D01*
X48480103Y-41755500D01*
X48480103Y-41646643D01*
X48503931Y-41603100D01*
X48527759Y-41581329D01*
X48575414Y-41559557D01*
X48694552Y-41559557D01*
X48742207Y-41581329D01*
X48766035Y-41603100D01*
X48789862Y-41646643D01*
X48789862Y-41755500D01*
X48766035Y-41799043D01*
X48742207Y-41820814D01*
X47030550Y-42733400D02*
X47030550Y-42994657D01*
X47030550Y-42864029D02*
X46522550Y-42864029D01*
X46595121Y-42907572D01*
X46643502Y-42951114D01*
X46667692Y-42994657D01*
X46522550Y-42450371D02*
X46522550Y-42406828D01*
X46546740Y-42363285D01*
X46570930Y-42341514D01*
X46619311Y-42319743D01*
X46716073Y-42297971D01*
X46837026Y-42297971D01*
X46933788Y-42319743D01*
X46982169Y-42341514D01*
X47006359Y-42363285D01*
X47030550Y-42406828D01*
X47030550Y-42450371D01*
X47006359Y-42493914D01*
X46982169Y-42515685D01*
X46933788Y-42537457D01*
X46837026Y-42559228D01*
X46716073Y-42559228D01*
X46619311Y-42537457D01*
X46570930Y-42515685D01*
X46546740Y-42493914D01*
X46522550Y-42450371D01*
X46522550Y-42014942D02*
X46522550Y-41971399D01*
X46546740Y-41927856D01*
X46570930Y-41906085D01*
X46619311Y-41884314D01*
X46716073Y-41862542D01*
X46837026Y-41862542D01*
X46933788Y-41884314D01*
X46982169Y-41906085D01*
X47006359Y-41927856D01*
X47030550Y-41971399D01*
X47030550Y-42014942D01*
X47006359Y-42058485D01*
X46982169Y-42080256D01*
X46933788Y-42102028D01*
X46837026Y-42123799D01*
X46716073Y-42123799D01*
X46619311Y-42102028D01*
X46570930Y-42080256D01*
X46546740Y-42058485D01*
X46522550Y-42014942D01*
X47030550Y-41666599D02*
X46522550Y-41666599D01*
X47030550Y-41405342D02*
X46740264Y-41601285D01*
X46522550Y-41405342D02*
X46812835Y-41666599D01*
D22*
X75714529Y-47382635D02*
X77238529Y-46366635D01*
X75714529Y-46366635D02*
X77238529Y-47382635D01*
X75859671Y-45858634D02*
X75787100Y-45786063D01*
X75714529Y-45640920D01*
X75714529Y-45278063D01*
X75787100Y-45132920D01*
X75859671Y-45060349D01*
X76004814Y-44987777D01*
X76149957Y-44987777D01*
X76367671Y-45060349D01*
X77238529Y-45931206D01*
X77238529Y-44987777D01*
M02*
