%FSLAX46Y46*%
G04 Gerber Fmt 4.6, Leading zero omitted, Abs format (unit mm)*
G04 Created by KiCad (PCBNEW (2014-08-02 BZR 5044)-product) date 13.08.2014 17:47:44*
%MOMM*%
G01*
G04 APERTURE LIST*
%ADD10C,0.150000*%
%ADD11C,0.127000*%
%ADD12C,0.119380*%
%ADD13C,0.114300*%
%ADD14C,0.129540*%
G04 APERTURE END LIST*
D10*
D11*
X96082500Y-22784380D02*
X96082500Y-23490500D01*
X96082500Y-23490500D02*
X94685500Y-23490500D01*
X94685500Y-23490500D02*
X94685500Y-22784380D01*
X96082500Y-21077500D02*
X96082500Y-21783620D01*
X96082500Y-21077500D02*
X94685500Y-21077500D01*
X94685500Y-21077500D02*
X94685500Y-21783620D01*
X101182500Y-23084380D02*
X101182500Y-23790500D01*
X101182500Y-23790500D02*
X99785500Y-23790500D01*
X99785500Y-23790500D02*
X99785500Y-23084380D01*
X101182500Y-21377500D02*
X101182500Y-22083620D01*
X101182500Y-21377500D02*
X99785500Y-21377500D01*
X99785500Y-21377500D02*
X99785500Y-22083620D01*
X102882500Y-23084380D02*
X102882500Y-23790500D01*
X102882500Y-23790500D02*
X101485500Y-23790500D01*
X101485500Y-23790500D02*
X101485500Y-23084380D01*
X102882500Y-21377500D02*
X102882500Y-22083620D01*
X102882500Y-21377500D02*
X101485500Y-21377500D01*
X101485500Y-21377500D02*
X101485500Y-22083620D01*
D12*
X102760000Y-26265000D02*
X105808000Y-26265000D01*
X105808000Y-26265000D02*
X105808000Y-25503000D01*
X105808000Y-25503000D02*
X102760000Y-25503000D01*
X102760000Y-25503000D02*
X102760000Y-26265000D01*
X91660000Y-25665000D02*
X94708000Y-25665000D01*
X94708000Y-25665000D02*
X94708000Y-24903000D01*
X94708000Y-24903000D02*
X91660000Y-24903000D01*
X91660000Y-24903000D02*
X91660000Y-25665000D01*
D11*
X97185500Y-53583620D02*
X97185500Y-52877500D01*
X97185500Y-52877500D02*
X98582500Y-52877500D01*
X98582500Y-52877500D02*
X98582500Y-53583620D01*
X97185500Y-55290500D02*
X97185500Y-54584380D01*
X97185500Y-55290500D02*
X98582500Y-55290500D01*
X98582500Y-55290500D02*
X98582500Y-54584380D01*
X104885500Y-53583620D02*
X104885500Y-52877500D01*
X104885500Y-52877500D02*
X106282500Y-52877500D01*
X106282500Y-52877500D02*
X106282500Y-53583620D01*
X104885500Y-55290500D02*
X104885500Y-54584380D01*
X104885500Y-55290500D02*
X106282500Y-55290500D01*
X106282500Y-55290500D02*
X106282500Y-54584380D01*
D12*
X106760000Y-26165000D02*
X109808000Y-26165000D01*
X109808000Y-26165000D02*
X109808000Y-25403000D01*
X109808000Y-25403000D02*
X106760000Y-25403000D01*
X106760000Y-25403000D02*
X106760000Y-26165000D01*
X103908000Y-51903000D02*
X100860000Y-51903000D01*
X100860000Y-51903000D02*
X100860000Y-52665000D01*
X100860000Y-52665000D02*
X103908000Y-52665000D01*
X103908000Y-52665000D02*
X103908000Y-51903000D01*
X93208000Y-53203000D02*
X90160000Y-53203000D01*
X90160000Y-53203000D02*
X90160000Y-53965000D01*
X90160000Y-53965000D02*
X93208000Y-53965000D01*
X93208000Y-53965000D02*
X93208000Y-53203000D01*
X109508000Y-50303000D02*
X106460000Y-50303000D01*
X106460000Y-50303000D02*
X106460000Y-51065000D01*
X106460000Y-51065000D02*
X109508000Y-51065000D01*
X109508000Y-51065000D02*
X109508000Y-50303000D01*
X96808000Y-50303000D02*
X93760000Y-50303000D01*
X93760000Y-50303000D02*
X93760000Y-51065000D01*
X93760000Y-51065000D02*
X96808000Y-51065000D01*
X96808000Y-51065000D02*
X96808000Y-50303000D01*
D13*
X95523700Y-22446862D02*
X95676100Y-22208586D01*
X95784957Y-22446862D02*
X95784957Y-21946482D01*
X95610785Y-21946482D01*
X95567243Y-21970310D01*
X95545471Y-21994138D01*
X95523700Y-22041793D01*
X95523700Y-22113276D01*
X95545471Y-22160931D01*
X95567243Y-22184759D01*
X95610785Y-22208586D01*
X95784957Y-22208586D01*
X95262443Y-22160931D02*
X95305985Y-22137103D01*
X95327757Y-22113276D01*
X95349528Y-22065620D01*
X95349528Y-22041793D01*
X95327757Y-21994138D01*
X95305985Y-21970310D01*
X95262443Y-21946482D01*
X95175357Y-21946482D01*
X95131814Y-21970310D01*
X95110043Y-21994138D01*
X95088271Y-22041793D01*
X95088271Y-22065620D01*
X95110043Y-22113276D01*
X95131814Y-22137103D01*
X95175357Y-22160931D01*
X95262443Y-22160931D01*
X95305985Y-22184759D01*
X95327757Y-22208586D01*
X95349528Y-22256241D01*
X95349528Y-22351552D01*
X95327757Y-22399207D01*
X95305985Y-22423035D01*
X95262443Y-22446862D01*
X95175357Y-22446862D01*
X95131814Y-22423035D01*
X95110043Y-22399207D01*
X95088271Y-22351552D01*
X95088271Y-22256241D01*
X95110043Y-22208586D01*
X95131814Y-22184759D01*
X95175357Y-22160931D01*
X96200429Y-23705070D02*
X95917400Y-23705070D01*
X96069800Y-23898593D01*
X96004486Y-23898593D01*
X95960943Y-23922784D01*
X95939172Y-23946974D01*
X95917400Y-23995355D01*
X95917400Y-24116308D01*
X95939172Y-24164689D01*
X95960943Y-24188879D01*
X96004486Y-24213070D01*
X96135114Y-24213070D01*
X96178657Y-24188879D01*
X96200429Y-24164689D01*
X95765000Y-23705070D02*
X95481971Y-23705070D01*
X95634371Y-23898593D01*
X95569057Y-23898593D01*
X95525514Y-23922784D01*
X95503743Y-23946974D01*
X95481971Y-23995355D01*
X95481971Y-24116308D01*
X95503743Y-24164689D01*
X95525514Y-24188879D01*
X95569057Y-24213070D01*
X95699685Y-24213070D01*
X95743228Y-24188879D01*
X95765000Y-24164689D01*
X95198942Y-23705070D02*
X95155399Y-23705070D01*
X95111856Y-23729260D01*
X95090085Y-23753450D01*
X95068314Y-23801831D01*
X95046542Y-23898593D01*
X95046542Y-24019546D01*
X95068314Y-24116308D01*
X95090085Y-24164689D01*
X95111856Y-24188879D01*
X95155399Y-24213070D01*
X95198942Y-24213070D01*
X95242485Y-24188879D01*
X95264256Y-24164689D01*
X95286028Y-24116308D01*
X95307799Y-24019546D01*
X95307799Y-23898593D01*
X95286028Y-23801831D01*
X95264256Y-23753450D01*
X95242485Y-23729260D01*
X95198942Y-23705070D01*
X94589342Y-24213070D02*
X94741742Y-23971165D01*
X94850599Y-24213070D02*
X94850599Y-23705070D01*
X94676427Y-23705070D01*
X94632885Y-23729260D01*
X94611113Y-23753450D01*
X94589342Y-23801831D01*
X94589342Y-23874403D01*
X94611113Y-23922784D01*
X94632885Y-23946974D01*
X94676427Y-23971165D01*
X94850599Y-23971165D01*
X100841415Y-22746862D02*
X100993815Y-22508586D01*
X101102672Y-22746862D02*
X101102672Y-22246482D01*
X100928500Y-22246482D01*
X100884958Y-22270310D01*
X100863186Y-22294138D01*
X100841415Y-22341793D01*
X100841415Y-22413276D01*
X100863186Y-22460931D01*
X100884958Y-22484759D01*
X100928500Y-22508586D01*
X101102672Y-22508586D01*
X100405986Y-22746862D02*
X100667243Y-22746862D01*
X100536615Y-22746862D02*
X100536615Y-22246482D01*
X100580158Y-22317965D01*
X100623700Y-22365620D01*
X100667243Y-22389448D01*
X100122957Y-22246482D02*
X100079414Y-22246482D01*
X100035871Y-22270310D01*
X100014100Y-22294138D01*
X99992329Y-22341793D01*
X99970557Y-22437103D01*
X99970557Y-22556241D01*
X99992329Y-22651552D01*
X100014100Y-22699207D01*
X100035871Y-22723035D01*
X100079414Y-22746862D01*
X100122957Y-22746862D01*
X100166500Y-22723035D01*
X100188271Y-22699207D01*
X100210043Y-22651552D01*
X100231814Y-22556241D01*
X100231814Y-22437103D01*
X100210043Y-22341793D01*
X100188271Y-22294138D01*
X100166500Y-22270310D01*
X100122957Y-22246482D01*
X101300429Y-24005070D02*
X101017400Y-24005070D01*
X101169800Y-24198593D01*
X101104486Y-24198593D01*
X101060943Y-24222784D01*
X101039172Y-24246974D01*
X101017400Y-24295355D01*
X101017400Y-24416308D01*
X101039172Y-24464689D01*
X101060943Y-24488879D01*
X101104486Y-24513070D01*
X101235114Y-24513070D01*
X101278657Y-24488879D01*
X101300429Y-24464689D01*
X100865000Y-24005070D02*
X100581971Y-24005070D01*
X100734371Y-24198593D01*
X100669057Y-24198593D01*
X100625514Y-24222784D01*
X100603743Y-24246974D01*
X100581971Y-24295355D01*
X100581971Y-24416308D01*
X100603743Y-24464689D01*
X100625514Y-24488879D01*
X100669057Y-24513070D01*
X100799685Y-24513070D01*
X100843228Y-24488879D01*
X100865000Y-24464689D01*
X100298942Y-24005070D02*
X100255399Y-24005070D01*
X100211856Y-24029260D01*
X100190085Y-24053450D01*
X100168314Y-24101831D01*
X100146542Y-24198593D01*
X100146542Y-24319546D01*
X100168314Y-24416308D01*
X100190085Y-24464689D01*
X100211856Y-24488879D01*
X100255399Y-24513070D01*
X100298942Y-24513070D01*
X100342485Y-24488879D01*
X100364256Y-24464689D01*
X100386028Y-24416308D01*
X100407799Y-24319546D01*
X100407799Y-24198593D01*
X100386028Y-24101831D01*
X100364256Y-24053450D01*
X100342485Y-24029260D01*
X100298942Y-24005070D01*
X99689342Y-24513070D02*
X99841742Y-24271165D01*
X99950599Y-24513070D02*
X99950599Y-24005070D01*
X99776427Y-24005070D01*
X99732885Y-24029260D01*
X99711113Y-24053450D01*
X99689342Y-24101831D01*
X99689342Y-24174403D01*
X99711113Y-24222784D01*
X99732885Y-24246974D01*
X99776427Y-24271165D01*
X99950599Y-24271165D01*
X102541415Y-22746862D02*
X102693815Y-22508586D01*
X102802672Y-22746862D02*
X102802672Y-22246482D01*
X102628500Y-22246482D01*
X102584958Y-22270310D01*
X102563186Y-22294138D01*
X102541415Y-22341793D01*
X102541415Y-22413276D01*
X102563186Y-22460931D01*
X102584958Y-22484759D01*
X102628500Y-22508586D01*
X102802672Y-22508586D01*
X102105986Y-22746862D02*
X102367243Y-22746862D01*
X102236615Y-22746862D02*
X102236615Y-22246482D01*
X102280158Y-22317965D01*
X102323700Y-22365620D01*
X102367243Y-22389448D01*
X101670557Y-22746862D02*
X101931814Y-22746862D01*
X101801186Y-22746862D02*
X101801186Y-22246482D01*
X101844729Y-22317965D01*
X101888271Y-22365620D01*
X101931814Y-22389448D01*
X103000429Y-24005070D02*
X102717400Y-24005070D01*
X102869800Y-24198593D01*
X102804486Y-24198593D01*
X102760943Y-24222784D01*
X102739172Y-24246974D01*
X102717400Y-24295355D01*
X102717400Y-24416308D01*
X102739172Y-24464689D01*
X102760943Y-24488879D01*
X102804486Y-24513070D01*
X102935114Y-24513070D01*
X102978657Y-24488879D01*
X103000429Y-24464689D01*
X102565000Y-24005070D02*
X102281971Y-24005070D01*
X102434371Y-24198593D01*
X102369057Y-24198593D01*
X102325514Y-24222784D01*
X102303743Y-24246974D01*
X102281971Y-24295355D01*
X102281971Y-24416308D01*
X102303743Y-24464689D01*
X102325514Y-24488879D01*
X102369057Y-24513070D01*
X102499685Y-24513070D01*
X102543228Y-24488879D01*
X102565000Y-24464689D01*
X101998942Y-24005070D02*
X101955399Y-24005070D01*
X101911856Y-24029260D01*
X101890085Y-24053450D01*
X101868314Y-24101831D01*
X101846542Y-24198593D01*
X101846542Y-24319546D01*
X101868314Y-24416308D01*
X101890085Y-24464689D01*
X101911856Y-24488879D01*
X101955399Y-24513070D01*
X101998942Y-24513070D01*
X102042485Y-24488879D01*
X102064256Y-24464689D01*
X102086028Y-24416308D01*
X102107799Y-24319546D01*
X102107799Y-24198593D01*
X102086028Y-24101831D01*
X102064256Y-24053450D01*
X102042485Y-24029260D01*
X101998942Y-24005070D01*
X101389342Y-24513070D02*
X101541742Y-24271165D01*
X101650599Y-24513070D02*
X101650599Y-24005070D01*
X101476427Y-24005070D01*
X101432885Y-24029260D01*
X101411113Y-24053450D01*
X101389342Y-24101831D01*
X101389342Y-24174403D01*
X101411113Y-24222784D01*
X101432885Y-24246974D01*
X101476427Y-24271165D01*
X101650599Y-24271165D01*
D14*
X104356571Y-28460286D02*
X104429143Y-28424000D01*
X104501714Y-28351429D01*
X104610571Y-28242571D01*
X104683143Y-28206286D01*
X104755714Y-28206286D01*
X104719429Y-28387714D02*
X104792000Y-28351429D01*
X104864571Y-28278857D01*
X104900857Y-28133714D01*
X104900857Y-27879714D01*
X104864571Y-27734571D01*
X104792000Y-27662000D01*
X104719429Y-27625714D01*
X104574286Y-27625714D01*
X104501714Y-27662000D01*
X104429143Y-27734571D01*
X104392857Y-27879714D01*
X104392857Y-28133714D01*
X104429143Y-28278857D01*
X104501714Y-28351429D01*
X104574286Y-28387714D01*
X104719429Y-28387714D01*
X104102571Y-27698286D02*
X104066285Y-27662000D01*
X103993714Y-27625714D01*
X103812285Y-27625714D01*
X103739714Y-27662000D01*
X103703428Y-27698286D01*
X103667143Y-27770857D01*
X103667143Y-27843429D01*
X103703428Y-27952286D01*
X104138857Y-28387714D01*
X103667143Y-28387714D01*
X106352285Y-25539286D02*
X106315999Y-25503000D01*
X106243428Y-25466714D01*
X106061999Y-25466714D01*
X105989428Y-25503000D01*
X105953142Y-25539286D01*
X105916857Y-25611857D01*
X105916857Y-25684429D01*
X105953142Y-25793286D01*
X106388571Y-26228714D01*
X105916857Y-26228714D01*
X105590285Y-26228714D02*
X105590285Y-25466714D01*
X105154857Y-26228714D01*
X105154857Y-25466714D01*
X104864571Y-25466714D02*
X104356571Y-25466714D01*
X104683142Y-26228714D01*
X103921143Y-25466714D02*
X103848571Y-25466714D01*
X103776000Y-25503000D01*
X103739714Y-25539286D01*
X103703428Y-25611857D01*
X103667143Y-25757000D01*
X103667143Y-25938429D01*
X103703428Y-26083571D01*
X103739714Y-26156143D01*
X103776000Y-26192429D01*
X103848571Y-26228714D01*
X103921143Y-26228714D01*
X103993714Y-26192429D01*
X104030000Y-26156143D01*
X104066285Y-26083571D01*
X104102571Y-25938429D01*
X104102571Y-25757000D01*
X104066285Y-25611857D01*
X104030000Y-25539286D01*
X103993714Y-25503000D01*
X103921143Y-25466714D01*
X103195429Y-25466714D02*
X103122857Y-25466714D01*
X103050286Y-25503000D01*
X103014000Y-25539286D01*
X102977714Y-25611857D01*
X102941429Y-25757000D01*
X102941429Y-25938429D01*
X102977714Y-26083571D01*
X103014000Y-26156143D01*
X103050286Y-26192429D01*
X103122857Y-26228714D01*
X103195429Y-26228714D01*
X103268000Y-26192429D01*
X103304286Y-26156143D01*
X103340571Y-26083571D01*
X103376857Y-25938429D01*
X103376857Y-25757000D01*
X103340571Y-25611857D01*
X103304286Y-25539286D01*
X103268000Y-25503000D01*
X103195429Y-25466714D01*
X102651143Y-25539286D02*
X102614857Y-25503000D01*
X102542286Y-25466714D01*
X102360857Y-25466714D01*
X102288286Y-25503000D01*
X102252000Y-25539286D01*
X102215715Y-25611857D01*
X102215715Y-25684429D01*
X102252000Y-25793286D01*
X102687429Y-26228714D01*
X102215715Y-26228714D01*
X93256571Y-27860286D02*
X93329143Y-27824000D01*
X93401714Y-27751429D01*
X93510571Y-27642571D01*
X93583143Y-27606286D01*
X93655714Y-27606286D01*
X93619429Y-27787714D02*
X93692000Y-27751429D01*
X93764571Y-27678857D01*
X93800857Y-27533714D01*
X93800857Y-27279714D01*
X93764571Y-27134571D01*
X93692000Y-27062000D01*
X93619429Y-27025714D01*
X93474286Y-27025714D01*
X93401714Y-27062000D01*
X93329143Y-27134571D01*
X93292857Y-27279714D01*
X93292857Y-27533714D01*
X93329143Y-27678857D01*
X93401714Y-27751429D01*
X93474286Y-27787714D01*
X93619429Y-27787714D01*
X93038857Y-27025714D02*
X92567143Y-27025714D01*
X92821143Y-27316000D01*
X92712285Y-27316000D01*
X92639714Y-27352286D01*
X92603428Y-27388571D01*
X92567143Y-27461143D01*
X92567143Y-27642571D01*
X92603428Y-27715143D01*
X92639714Y-27751429D01*
X92712285Y-27787714D01*
X92930000Y-27787714D01*
X93002571Y-27751429D01*
X93038857Y-27715143D01*
X95252285Y-24939286D02*
X95215999Y-24903000D01*
X95143428Y-24866714D01*
X94961999Y-24866714D01*
X94889428Y-24903000D01*
X94853142Y-24939286D01*
X94816857Y-25011857D01*
X94816857Y-25084429D01*
X94853142Y-25193286D01*
X95288571Y-25628714D01*
X94816857Y-25628714D01*
X94490285Y-25628714D02*
X94490285Y-24866714D01*
X94054857Y-25628714D01*
X94054857Y-24866714D01*
X93764571Y-24866714D02*
X93256571Y-24866714D01*
X93583142Y-25628714D01*
X92821143Y-24866714D02*
X92748571Y-24866714D01*
X92676000Y-24903000D01*
X92639714Y-24939286D01*
X92603428Y-25011857D01*
X92567143Y-25157000D01*
X92567143Y-25338429D01*
X92603428Y-25483571D01*
X92639714Y-25556143D01*
X92676000Y-25592429D01*
X92748571Y-25628714D01*
X92821143Y-25628714D01*
X92893714Y-25592429D01*
X92930000Y-25556143D01*
X92966285Y-25483571D01*
X93002571Y-25338429D01*
X93002571Y-25157000D01*
X92966285Y-25011857D01*
X92930000Y-24939286D01*
X92893714Y-24903000D01*
X92821143Y-24866714D01*
X92095429Y-24866714D02*
X92022857Y-24866714D01*
X91950286Y-24903000D01*
X91914000Y-24939286D01*
X91877714Y-25011857D01*
X91841429Y-25157000D01*
X91841429Y-25338429D01*
X91877714Y-25483571D01*
X91914000Y-25556143D01*
X91950286Y-25592429D01*
X92022857Y-25628714D01*
X92095429Y-25628714D01*
X92168000Y-25592429D01*
X92204286Y-25556143D01*
X92240571Y-25483571D01*
X92276857Y-25338429D01*
X92276857Y-25157000D01*
X92240571Y-25011857D01*
X92204286Y-24939286D01*
X92168000Y-24903000D01*
X92095429Y-24866714D01*
X91551143Y-24939286D02*
X91514857Y-24903000D01*
X91442286Y-24866714D01*
X91260857Y-24866714D01*
X91188286Y-24903000D01*
X91152000Y-24939286D01*
X91115715Y-25011857D01*
X91115715Y-25084429D01*
X91152000Y-25193286D01*
X91587429Y-25628714D01*
X91115715Y-25628714D01*
D13*
X97896700Y-54373862D02*
X98049100Y-54135586D01*
X98157957Y-54373862D02*
X98157957Y-53873482D01*
X97983785Y-53873482D01*
X97940243Y-53897310D01*
X97918471Y-53921138D01*
X97896700Y-53968793D01*
X97896700Y-54040276D01*
X97918471Y-54087931D01*
X97940243Y-54111759D01*
X97983785Y-54135586D01*
X98157957Y-54135586D01*
X97678985Y-54373862D02*
X97591900Y-54373862D01*
X97548357Y-54350035D01*
X97526585Y-54326207D01*
X97483043Y-54254724D01*
X97461271Y-54159414D01*
X97461271Y-53968793D01*
X97483043Y-53921138D01*
X97504814Y-53897310D01*
X97548357Y-53873482D01*
X97635443Y-53873482D01*
X97678985Y-53897310D01*
X97700757Y-53921138D01*
X97722528Y-53968793D01*
X97722528Y-54087931D01*
X97700757Y-54135586D01*
X97678985Y-54159414D01*
X97635443Y-54183241D01*
X97548357Y-54183241D01*
X97504814Y-54159414D01*
X97483043Y-54135586D01*
X97461271Y-54087931D01*
X98700429Y-52106550D02*
X98417400Y-52106550D01*
X98569800Y-52300073D01*
X98504486Y-52300073D01*
X98460943Y-52324264D01*
X98439172Y-52348454D01*
X98417400Y-52396835D01*
X98417400Y-52517788D01*
X98439172Y-52566169D01*
X98460943Y-52590359D01*
X98504486Y-52614550D01*
X98635114Y-52614550D01*
X98678657Y-52590359D01*
X98700429Y-52566169D01*
X98265000Y-52106550D02*
X97981971Y-52106550D01*
X98134371Y-52300073D01*
X98069057Y-52300073D01*
X98025514Y-52324264D01*
X98003743Y-52348454D01*
X97981971Y-52396835D01*
X97981971Y-52517788D01*
X98003743Y-52566169D01*
X98025514Y-52590359D01*
X98069057Y-52614550D01*
X98199685Y-52614550D01*
X98243228Y-52590359D01*
X98265000Y-52566169D01*
X97698942Y-52106550D02*
X97655399Y-52106550D01*
X97611856Y-52130740D01*
X97590085Y-52154930D01*
X97568314Y-52203311D01*
X97546542Y-52300073D01*
X97546542Y-52421026D01*
X97568314Y-52517788D01*
X97590085Y-52566169D01*
X97611856Y-52590359D01*
X97655399Y-52614550D01*
X97698942Y-52614550D01*
X97742485Y-52590359D01*
X97764256Y-52566169D01*
X97786028Y-52517788D01*
X97807799Y-52421026D01*
X97807799Y-52300073D01*
X97786028Y-52203311D01*
X97764256Y-52154930D01*
X97742485Y-52130740D01*
X97698942Y-52106550D01*
X97089342Y-52614550D02*
X97241742Y-52372645D01*
X97350599Y-52614550D02*
X97350599Y-52106550D01*
X97176427Y-52106550D01*
X97132885Y-52130740D01*
X97111113Y-52154930D01*
X97089342Y-52203311D01*
X97089342Y-52275883D01*
X97111113Y-52324264D01*
X97132885Y-52348454D01*
X97176427Y-52372645D01*
X97350599Y-52372645D01*
X105814415Y-54373862D02*
X105966815Y-54135586D01*
X106075672Y-54373862D02*
X106075672Y-53873482D01*
X105901500Y-53873482D01*
X105857958Y-53897310D01*
X105836186Y-53921138D01*
X105814415Y-53968793D01*
X105814415Y-54040276D01*
X105836186Y-54087931D01*
X105857958Y-54111759D01*
X105901500Y-54135586D01*
X106075672Y-54135586D01*
X105378986Y-54373862D02*
X105640243Y-54373862D01*
X105509615Y-54373862D02*
X105509615Y-53873482D01*
X105553158Y-53944965D01*
X105596700Y-53992620D01*
X105640243Y-54016448D01*
X105204814Y-53921138D02*
X105183043Y-53897310D01*
X105139500Y-53873482D01*
X105030643Y-53873482D01*
X104987100Y-53897310D01*
X104965329Y-53921138D01*
X104943557Y-53968793D01*
X104943557Y-54016448D01*
X104965329Y-54087931D01*
X105226586Y-54373862D01*
X104943557Y-54373862D01*
X106400429Y-52106550D02*
X106117400Y-52106550D01*
X106269800Y-52300073D01*
X106204486Y-52300073D01*
X106160943Y-52324264D01*
X106139172Y-52348454D01*
X106117400Y-52396835D01*
X106117400Y-52517788D01*
X106139172Y-52566169D01*
X106160943Y-52590359D01*
X106204486Y-52614550D01*
X106335114Y-52614550D01*
X106378657Y-52590359D01*
X106400429Y-52566169D01*
X105965000Y-52106550D02*
X105681971Y-52106550D01*
X105834371Y-52300073D01*
X105769057Y-52300073D01*
X105725514Y-52324264D01*
X105703743Y-52348454D01*
X105681971Y-52396835D01*
X105681971Y-52517788D01*
X105703743Y-52566169D01*
X105725514Y-52590359D01*
X105769057Y-52614550D01*
X105899685Y-52614550D01*
X105943228Y-52590359D01*
X105965000Y-52566169D01*
X105398942Y-52106550D02*
X105355399Y-52106550D01*
X105311856Y-52130740D01*
X105290085Y-52154930D01*
X105268314Y-52203311D01*
X105246542Y-52300073D01*
X105246542Y-52421026D01*
X105268314Y-52517788D01*
X105290085Y-52566169D01*
X105311856Y-52590359D01*
X105355399Y-52614550D01*
X105398942Y-52614550D01*
X105442485Y-52590359D01*
X105464256Y-52566169D01*
X105486028Y-52517788D01*
X105507799Y-52421026D01*
X105507799Y-52300073D01*
X105486028Y-52203311D01*
X105464256Y-52154930D01*
X105442485Y-52130740D01*
X105398942Y-52106550D01*
X104789342Y-52614550D02*
X104941742Y-52372645D01*
X105050599Y-52614550D02*
X105050599Y-52106550D01*
X104876427Y-52106550D01*
X104832885Y-52130740D01*
X104811113Y-52154930D01*
X104789342Y-52203311D01*
X104789342Y-52275883D01*
X104811113Y-52324264D01*
X104832885Y-52348454D01*
X104876427Y-52372645D01*
X105050599Y-52372645D01*
D14*
X108356571Y-28360286D02*
X108429143Y-28324000D01*
X108501714Y-28251429D01*
X108610571Y-28142571D01*
X108683143Y-28106286D01*
X108755714Y-28106286D01*
X108719429Y-28287714D02*
X108792000Y-28251429D01*
X108864571Y-28178857D01*
X108900857Y-28033714D01*
X108900857Y-27779714D01*
X108864571Y-27634571D01*
X108792000Y-27562000D01*
X108719429Y-27525714D01*
X108574286Y-27525714D01*
X108501714Y-27562000D01*
X108429143Y-27634571D01*
X108392857Y-27779714D01*
X108392857Y-28033714D01*
X108429143Y-28178857D01*
X108501714Y-28251429D01*
X108574286Y-28287714D01*
X108719429Y-28287714D01*
X107739714Y-27779714D02*
X107739714Y-28287714D01*
X107921143Y-27489429D02*
X108102571Y-28033714D01*
X107630857Y-28033714D01*
X110352285Y-25439286D02*
X110315999Y-25403000D01*
X110243428Y-25366714D01*
X110061999Y-25366714D01*
X109989428Y-25403000D01*
X109953142Y-25439286D01*
X109916857Y-25511857D01*
X109916857Y-25584429D01*
X109953142Y-25693286D01*
X110388571Y-26128714D01*
X109916857Y-26128714D01*
X109590285Y-26128714D02*
X109590285Y-25366714D01*
X109154857Y-26128714D01*
X109154857Y-25366714D01*
X108864571Y-25366714D02*
X108356571Y-25366714D01*
X108683142Y-26128714D01*
X107921143Y-25366714D02*
X107848571Y-25366714D01*
X107776000Y-25403000D01*
X107739714Y-25439286D01*
X107703428Y-25511857D01*
X107667143Y-25657000D01*
X107667143Y-25838429D01*
X107703428Y-25983571D01*
X107739714Y-26056143D01*
X107776000Y-26092429D01*
X107848571Y-26128714D01*
X107921143Y-26128714D01*
X107993714Y-26092429D01*
X108030000Y-26056143D01*
X108066285Y-25983571D01*
X108102571Y-25838429D01*
X108102571Y-25657000D01*
X108066285Y-25511857D01*
X108030000Y-25439286D01*
X107993714Y-25403000D01*
X107921143Y-25366714D01*
X107195429Y-25366714D02*
X107122857Y-25366714D01*
X107050286Y-25403000D01*
X107014000Y-25439286D01*
X106977714Y-25511857D01*
X106941429Y-25657000D01*
X106941429Y-25838429D01*
X106977714Y-25983571D01*
X107014000Y-26056143D01*
X107050286Y-26092429D01*
X107122857Y-26128714D01*
X107195429Y-26128714D01*
X107268000Y-26092429D01*
X107304286Y-26056143D01*
X107340571Y-25983571D01*
X107376857Y-25838429D01*
X107376857Y-25657000D01*
X107340571Y-25511857D01*
X107304286Y-25439286D01*
X107268000Y-25403000D01*
X107195429Y-25366714D01*
X106651143Y-25439286D02*
X106614857Y-25403000D01*
X106542286Y-25366714D01*
X106360857Y-25366714D01*
X106288286Y-25403000D01*
X106252000Y-25439286D01*
X106215715Y-25511857D01*
X106215715Y-25584429D01*
X106252000Y-25693286D01*
X106687429Y-26128714D01*
X106215715Y-26128714D01*
X102456571Y-50542286D02*
X102529143Y-50506000D01*
X102601714Y-50433429D01*
X102710571Y-50324571D01*
X102783143Y-50288286D01*
X102855714Y-50288286D01*
X102819429Y-50469714D02*
X102892000Y-50433429D01*
X102964571Y-50360857D01*
X103000857Y-50215714D01*
X103000857Y-49961714D01*
X102964571Y-49816571D01*
X102892000Y-49744000D01*
X102819429Y-49707714D01*
X102674286Y-49707714D01*
X102601714Y-49744000D01*
X102529143Y-49816571D01*
X102492857Y-49961714D01*
X102492857Y-50215714D01*
X102529143Y-50360857D01*
X102601714Y-50433429D01*
X102674286Y-50469714D01*
X102819429Y-50469714D01*
X101803428Y-49707714D02*
X102166285Y-49707714D01*
X102202571Y-50070571D01*
X102166285Y-50034286D01*
X102093714Y-49998000D01*
X101912285Y-49998000D01*
X101839714Y-50034286D01*
X101803428Y-50070571D01*
X101767143Y-50143143D01*
X101767143Y-50324571D01*
X101803428Y-50397143D01*
X101839714Y-50433429D01*
X101912285Y-50469714D01*
X102093714Y-50469714D01*
X102166285Y-50433429D01*
X102202571Y-50397143D01*
X104452285Y-51939286D02*
X104415999Y-51903000D01*
X104343428Y-51866714D01*
X104161999Y-51866714D01*
X104089428Y-51903000D01*
X104053142Y-51939286D01*
X104016857Y-52011857D01*
X104016857Y-52084429D01*
X104053142Y-52193286D01*
X104488571Y-52628714D01*
X104016857Y-52628714D01*
X103690285Y-52628714D02*
X103690285Y-51866714D01*
X103254857Y-52628714D01*
X103254857Y-51866714D01*
X102964571Y-51866714D02*
X102456571Y-51866714D01*
X102783142Y-52628714D01*
X102021143Y-51866714D02*
X101948571Y-51866714D01*
X101876000Y-51903000D01*
X101839714Y-51939286D01*
X101803428Y-52011857D01*
X101767143Y-52157000D01*
X101767143Y-52338429D01*
X101803428Y-52483571D01*
X101839714Y-52556143D01*
X101876000Y-52592429D01*
X101948571Y-52628714D01*
X102021143Y-52628714D01*
X102093714Y-52592429D01*
X102130000Y-52556143D01*
X102166285Y-52483571D01*
X102202571Y-52338429D01*
X102202571Y-52157000D01*
X102166285Y-52011857D01*
X102130000Y-51939286D01*
X102093714Y-51903000D01*
X102021143Y-51866714D01*
X101295429Y-51866714D02*
X101222857Y-51866714D01*
X101150286Y-51903000D01*
X101114000Y-51939286D01*
X101077714Y-52011857D01*
X101041429Y-52157000D01*
X101041429Y-52338429D01*
X101077714Y-52483571D01*
X101114000Y-52556143D01*
X101150286Y-52592429D01*
X101222857Y-52628714D01*
X101295429Y-52628714D01*
X101368000Y-52592429D01*
X101404286Y-52556143D01*
X101440571Y-52483571D01*
X101476857Y-52338429D01*
X101476857Y-52157000D01*
X101440571Y-52011857D01*
X101404286Y-51939286D01*
X101368000Y-51903000D01*
X101295429Y-51866714D01*
X100751143Y-51939286D02*
X100714857Y-51903000D01*
X100642286Y-51866714D01*
X100460857Y-51866714D01*
X100388286Y-51903000D01*
X100352000Y-51939286D01*
X100315715Y-52011857D01*
X100315715Y-52084429D01*
X100352000Y-52193286D01*
X100787429Y-52628714D01*
X100315715Y-52628714D01*
X91756571Y-51842286D02*
X91829143Y-51806000D01*
X91901714Y-51733429D01*
X92010571Y-51624571D01*
X92083143Y-51588286D01*
X92155714Y-51588286D01*
X92119429Y-51769714D02*
X92192000Y-51733429D01*
X92264571Y-51660857D01*
X92300857Y-51515714D01*
X92300857Y-51261714D01*
X92264571Y-51116571D01*
X92192000Y-51044000D01*
X92119429Y-51007714D01*
X91974286Y-51007714D01*
X91901714Y-51044000D01*
X91829143Y-51116571D01*
X91792857Y-51261714D01*
X91792857Y-51515714D01*
X91829143Y-51660857D01*
X91901714Y-51733429D01*
X91974286Y-51769714D01*
X92119429Y-51769714D01*
X91139714Y-51007714D02*
X91284857Y-51007714D01*
X91357428Y-51044000D01*
X91393714Y-51080286D01*
X91466285Y-51189143D01*
X91502571Y-51334286D01*
X91502571Y-51624571D01*
X91466285Y-51697143D01*
X91430000Y-51733429D01*
X91357428Y-51769714D01*
X91212285Y-51769714D01*
X91139714Y-51733429D01*
X91103428Y-51697143D01*
X91067143Y-51624571D01*
X91067143Y-51443143D01*
X91103428Y-51370571D01*
X91139714Y-51334286D01*
X91212285Y-51298000D01*
X91357428Y-51298000D01*
X91430000Y-51334286D01*
X91466285Y-51370571D01*
X91502571Y-51443143D01*
X93752285Y-53239286D02*
X93715999Y-53203000D01*
X93643428Y-53166714D01*
X93461999Y-53166714D01*
X93389428Y-53203000D01*
X93353142Y-53239286D01*
X93316857Y-53311857D01*
X93316857Y-53384429D01*
X93353142Y-53493286D01*
X93788571Y-53928714D01*
X93316857Y-53928714D01*
X92990285Y-53928714D02*
X92990285Y-53166714D01*
X92554857Y-53928714D01*
X92554857Y-53166714D01*
X92264571Y-53166714D02*
X91756571Y-53166714D01*
X92083142Y-53928714D01*
X91321143Y-53166714D02*
X91248571Y-53166714D01*
X91176000Y-53203000D01*
X91139714Y-53239286D01*
X91103428Y-53311857D01*
X91067143Y-53457000D01*
X91067143Y-53638429D01*
X91103428Y-53783571D01*
X91139714Y-53856143D01*
X91176000Y-53892429D01*
X91248571Y-53928714D01*
X91321143Y-53928714D01*
X91393714Y-53892429D01*
X91430000Y-53856143D01*
X91466285Y-53783571D01*
X91502571Y-53638429D01*
X91502571Y-53457000D01*
X91466285Y-53311857D01*
X91430000Y-53239286D01*
X91393714Y-53203000D01*
X91321143Y-53166714D01*
X90595429Y-53166714D02*
X90522857Y-53166714D01*
X90450286Y-53203000D01*
X90414000Y-53239286D01*
X90377714Y-53311857D01*
X90341429Y-53457000D01*
X90341429Y-53638429D01*
X90377714Y-53783571D01*
X90414000Y-53856143D01*
X90450286Y-53892429D01*
X90522857Y-53928714D01*
X90595429Y-53928714D01*
X90668000Y-53892429D01*
X90704286Y-53856143D01*
X90740571Y-53783571D01*
X90776857Y-53638429D01*
X90776857Y-53457000D01*
X90740571Y-53311857D01*
X90704286Y-53239286D01*
X90668000Y-53203000D01*
X90595429Y-53166714D01*
X90051143Y-53239286D02*
X90014857Y-53203000D01*
X89942286Y-53166714D01*
X89760857Y-53166714D01*
X89688286Y-53203000D01*
X89652000Y-53239286D01*
X89615715Y-53311857D01*
X89615715Y-53384429D01*
X89652000Y-53493286D01*
X90087429Y-53928714D01*
X89615715Y-53928714D01*
X108056571Y-48942286D02*
X108129143Y-48906000D01*
X108201714Y-48833429D01*
X108310571Y-48724571D01*
X108383143Y-48688286D01*
X108455714Y-48688286D01*
X108419429Y-48869714D02*
X108492000Y-48833429D01*
X108564571Y-48760857D01*
X108600857Y-48615714D01*
X108600857Y-48361714D01*
X108564571Y-48216571D01*
X108492000Y-48144000D01*
X108419429Y-48107714D01*
X108274286Y-48107714D01*
X108201714Y-48144000D01*
X108129143Y-48216571D01*
X108092857Y-48361714D01*
X108092857Y-48615714D01*
X108129143Y-48760857D01*
X108201714Y-48833429D01*
X108274286Y-48869714D01*
X108419429Y-48869714D01*
X107838857Y-48107714D02*
X107330857Y-48107714D01*
X107657428Y-48869714D01*
X110052285Y-50339286D02*
X110015999Y-50303000D01*
X109943428Y-50266714D01*
X109761999Y-50266714D01*
X109689428Y-50303000D01*
X109653142Y-50339286D01*
X109616857Y-50411857D01*
X109616857Y-50484429D01*
X109653142Y-50593286D01*
X110088571Y-51028714D01*
X109616857Y-51028714D01*
X109290285Y-51028714D02*
X109290285Y-50266714D01*
X108854857Y-51028714D01*
X108854857Y-50266714D01*
X108564571Y-50266714D02*
X108056571Y-50266714D01*
X108383142Y-51028714D01*
X107621143Y-50266714D02*
X107548571Y-50266714D01*
X107476000Y-50303000D01*
X107439714Y-50339286D01*
X107403428Y-50411857D01*
X107367143Y-50557000D01*
X107367143Y-50738429D01*
X107403428Y-50883571D01*
X107439714Y-50956143D01*
X107476000Y-50992429D01*
X107548571Y-51028714D01*
X107621143Y-51028714D01*
X107693714Y-50992429D01*
X107730000Y-50956143D01*
X107766285Y-50883571D01*
X107802571Y-50738429D01*
X107802571Y-50557000D01*
X107766285Y-50411857D01*
X107730000Y-50339286D01*
X107693714Y-50303000D01*
X107621143Y-50266714D01*
X106895429Y-50266714D02*
X106822857Y-50266714D01*
X106750286Y-50303000D01*
X106714000Y-50339286D01*
X106677714Y-50411857D01*
X106641429Y-50557000D01*
X106641429Y-50738429D01*
X106677714Y-50883571D01*
X106714000Y-50956143D01*
X106750286Y-50992429D01*
X106822857Y-51028714D01*
X106895429Y-51028714D01*
X106968000Y-50992429D01*
X107004286Y-50956143D01*
X107040571Y-50883571D01*
X107076857Y-50738429D01*
X107076857Y-50557000D01*
X107040571Y-50411857D01*
X107004286Y-50339286D01*
X106968000Y-50303000D01*
X106895429Y-50266714D01*
X106351143Y-50339286D02*
X106314857Y-50303000D01*
X106242286Y-50266714D01*
X106060857Y-50266714D01*
X105988286Y-50303000D01*
X105952000Y-50339286D01*
X105915715Y-50411857D01*
X105915715Y-50484429D01*
X105952000Y-50593286D01*
X106387429Y-51028714D01*
X105915715Y-51028714D01*
X95356571Y-48942286D02*
X95429143Y-48906000D01*
X95501714Y-48833429D01*
X95610571Y-48724571D01*
X95683143Y-48688286D01*
X95755714Y-48688286D01*
X95719429Y-48869714D02*
X95792000Y-48833429D01*
X95864571Y-48760857D01*
X95900857Y-48615714D01*
X95900857Y-48361714D01*
X95864571Y-48216571D01*
X95792000Y-48144000D01*
X95719429Y-48107714D01*
X95574286Y-48107714D01*
X95501714Y-48144000D01*
X95429143Y-48216571D01*
X95392857Y-48361714D01*
X95392857Y-48615714D01*
X95429143Y-48760857D01*
X95501714Y-48833429D01*
X95574286Y-48869714D01*
X95719429Y-48869714D01*
X94957428Y-48434286D02*
X95030000Y-48398000D01*
X95066285Y-48361714D01*
X95102571Y-48289143D01*
X95102571Y-48252857D01*
X95066285Y-48180286D01*
X95030000Y-48144000D01*
X94957428Y-48107714D01*
X94812285Y-48107714D01*
X94739714Y-48144000D01*
X94703428Y-48180286D01*
X94667143Y-48252857D01*
X94667143Y-48289143D01*
X94703428Y-48361714D01*
X94739714Y-48398000D01*
X94812285Y-48434286D01*
X94957428Y-48434286D01*
X95030000Y-48470571D01*
X95066285Y-48506857D01*
X95102571Y-48579429D01*
X95102571Y-48724571D01*
X95066285Y-48797143D01*
X95030000Y-48833429D01*
X94957428Y-48869714D01*
X94812285Y-48869714D01*
X94739714Y-48833429D01*
X94703428Y-48797143D01*
X94667143Y-48724571D01*
X94667143Y-48579429D01*
X94703428Y-48506857D01*
X94739714Y-48470571D01*
X94812285Y-48434286D01*
X97352285Y-50339286D02*
X97315999Y-50303000D01*
X97243428Y-50266714D01*
X97061999Y-50266714D01*
X96989428Y-50303000D01*
X96953142Y-50339286D01*
X96916857Y-50411857D01*
X96916857Y-50484429D01*
X96953142Y-50593286D01*
X97388571Y-51028714D01*
X96916857Y-51028714D01*
X96590285Y-51028714D02*
X96590285Y-50266714D01*
X96154857Y-51028714D01*
X96154857Y-50266714D01*
X95864571Y-50266714D02*
X95356571Y-50266714D01*
X95683142Y-51028714D01*
X94921143Y-50266714D02*
X94848571Y-50266714D01*
X94776000Y-50303000D01*
X94739714Y-50339286D01*
X94703428Y-50411857D01*
X94667143Y-50557000D01*
X94667143Y-50738429D01*
X94703428Y-50883571D01*
X94739714Y-50956143D01*
X94776000Y-50992429D01*
X94848571Y-51028714D01*
X94921143Y-51028714D01*
X94993714Y-50992429D01*
X95030000Y-50956143D01*
X95066285Y-50883571D01*
X95102571Y-50738429D01*
X95102571Y-50557000D01*
X95066285Y-50411857D01*
X95030000Y-50339286D01*
X94993714Y-50303000D01*
X94921143Y-50266714D01*
X94195429Y-50266714D02*
X94122857Y-50266714D01*
X94050286Y-50303000D01*
X94014000Y-50339286D01*
X93977714Y-50411857D01*
X93941429Y-50557000D01*
X93941429Y-50738429D01*
X93977714Y-50883571D01*
X94014000Y-50956143D01*
X94050286Y-50992429D01*
X94122857Y-51028714D01*
X94195429Y-51028714D01*
X94268000Y-50992429D01*
X94304286Y-50956143D01*
X94340571Y-50883571D01*
X94376857Y-50738429D01*
X94376857Y-50557000D01*
X94340571Y-50411857D01*
X94304286Y-50339286D01*
X94268000Y-50303000D01*
X94195429Y-50266714D01*
X93651143Y-50339286D02*
X93614857Y-50303000D01*
X93542286Y-50266714D01*
X93360857Y-50266714D01*
X93288286Y-50303000D01*
X93252000Y-50339286D01*
X93215715Y-50411857D01*
X93215715Y-50484429D01*
X93252000Y-50593286D01*
X93687429Y-51028714D01*
X93215715Y-51028714D01*
M02*
